G04 #@! TF.FileFunction,Legend,Bot*
%FSLAX46Y46*%
G04 Gerber Fmt 4.6, Leading zero omitted, Abs format (unit mm)*
G04 Created by KiCad (PCBNEW 4.0.7) date 02/05/18 12:52:08*
%MOMM*%
%LPD*%
G01*
G04 APERTURE LIST*
%ADD10C,0.100000*%
%ADD11C,0.175000*%
%ADD12C,0.300000*%
%ADD13C,0.010000*%
%ADD14C,0.152400*%
%ADD15C,0.120000*%
%ADD16C,0.500000*%
%ADD17C,0.150000*%
G04 APERTURE END LIST*
D10*
D11*
X117283334Y-107283333D02*
X117183334Y-107316667D01*
X117016667Y-107316667D01*
X116950000Y-107283333D01*
X116916667Y-107250000D01*
X116883334Y-107183333D01*
X116883334Y-107116667D01*
X116916667Y-107050000D01*
X116950000Y-107016667D01*
X117016667Y-106983333D01*
X117150000Y-106950000D01*
X117216667Y-106916667D01*
X117250000Y-106883333D01*
X117283334Y-106816667D01*
X117283334Y-106750000D01*
X117250000Y-106683333D01*
X117216667Y-106650000D01*
X117150000Y-106616667D01*
X116983334Y-106616667D01*
X116883334Y-106650000D01*
X116083333Y-106583333D02*
X116683333Y-107483333D01*
X115850000Y-107316667D02*
X115850000Y-106616667D01*
X115450000Y-107316667D01*
X115450000Y-106616667D01*
X115116667Y-107250000D02*
X115083334Y-107283333D01*
X115116667Y-107316667D01*
X115150001Y-107283333D01*
X115116667Y-107250000D01*
X115116667Y-107316667D01*
X115116667Y-106883333D02*
X115083334Y-106916667D01*
X115116667Y-106950000D01*
X115150001Y-106916667D01*
X115116667Y-106883333D01*
X115116667Y-106950000D01*
X114116668Y-106616667D02*
X114050001Y-106616667D01*
X113983335Y-106650000D01*
X113950001Y-106683333D01*
X113916668Y-106750000D01*
X113883335Y-106883333D01*
X113883335Y-107050000D01*
X113916668Y-107183333D01*
X113950001Y-107250000D01*
X113983335Y-107283333D01*
X114050001Y-107316667D01*
X114116668Y-107316667D01*
X114183335Y-107283333D01*
X114216668Y-107250000D01*
X114250001Y-107183333D01*
X114283335Y-107050000D01*
X114283335Y-106883333D01*
X114250001Y-106750000D01*
X114216668Y-106683333D01*
X114183335Y-106650000D01*
X114116668Y-106616667D01*
X113450001Y-106616667D02*
X113383334Y-106616667D01*
X113316668Y-106650000D01*
X113283334Y-106683333D01*
X113250001Y-106750000D01*
X113216668Y-106883333D01*
X113216668Y-107050000D01*
X113250001Y-107183333D01*
X113283334Y-107250000D01*
X113316668Y-107283333D01*
X113383334Y-107316667D01*
X113450001Y-107316667D01*
X113516668Y-107283333D01*
X113550001Y-107250000D01*
X113583334Y-107183333D01*
X113616668Y-107050000D01*
X113616668Y-106883333D01*
X113583334Y-106750000D01*
X113550001Y-106683333D01*
X113516668Y-106650000D01*
X113450001Y-106616667D01*
X112783334Y-106616667D02*
X112716667Y-106616667D01*
X112650001Y-106650000D01*
X112616667Y-106683333D01*
X112583334Y-106750000D01*
X112550001Y-106883333D01*
X112550001Y-107050000D01*
X112583334Y-107183333D01*
X112616667Y-107250000D01*
X112650001Y-107283333D01*
X112716667Y-107316667D01*
X112783334Y-107316667D01*
X112850001Y-107283333D01*
X112883334Y-107250000D01*
X112916667Y-107183333D01*
X112950001Y-107050000D01*
X112950001Y-106883333D01*
X112916667Y-106750000D01*
X112883334Y-106683333D01*
X112850001Y-106650000D01*
X112783334Y-106616667D01*
X112116667Y-106616667D02*
X112050000Y-106616667D01*
X111983334Y-106650000D01*
X111950000Y-106683333D01*
X111916667Y-106750000D01*
X111883334Y-106883333D01*
X111883334Y-107050000D01*
X111916667Y-107183333D01*
X111950000Y-107250000D01*
X111983334Y-107283333D01*
X112050000Y-107316667D01*
X112116667Y-107316667D01*
X112183334Y-107283333D01*
X112216667Y-107250000D01*
X112250000Y-107183333D01*
X112283334Y-107050000D01*
X112283334Y-106883333D01*
X112250000Y-106750000D01*
X112216667Y-106683333D01*
X112183334Y-106650000D01*
X112116667Y-106616667D01*
X111450000Y-106616667D02*
X111383333Y-106616667D01*
X111316667Y-106650000D01*
X111283333Y-106683333D01*
X111250000Y-106750000D01*
X111216667Y-106883333D01*
X111216667Y-107050000D01*
X111250000Y-107183333D01*
X111283333Y-107250000D01*
X111316667Y-107283333D01*
X111383333Y-107316667D01*
X111450000Y-107316667D01*
X111516667Y-107283333D01*
X111550000Y-107250000D01*
X111583333Y-107183333D01*
X111616667Y-107050000D01*
X111616667Y-106883333D01*
X111583333Y-106750000D01*
X111550000Y-106683333D01*
X111516667Y-106650000D01*
X111450000Y-106616667D01*
X110783333Y-106616667D02*
X110716666Y-106616667D01*
X110650000Y-106650000D01*
X110616666Y-106683333D01*
X110583333Y-106750000D01*
X110550000Y-106883333D01*
X110550000Y-107050000D01*
X110583333Y-107183333D01*
X110616666Y-107250000D01*
X110650000Y-107283333D01*
X110716666Y-107316667D01*
X110783333Y-107316667D01*
X110850000Y-107283333D01*
X110883333Y-107250000D01*
X110916666Y-107183333D01*
X110950000Y-107050000D01*
X110950000Y-106883333D01*
X110916666Y-106750000D01*
X110883333Y-106683333D01*
X110850000Y-106650000D01*
X110783333Y-106616667D01*
X110116666Y-106616667D02*
X110049999Y-106616667D01*
X109983333Y-106650000D01*
X109949999Y-106683333D01*
X109916666Y-106750000D01*
X109883333Y-106883333D01*
X109883333Y-107050000D01*
X109916666Y-107183333D01*
X109949999Y-107250000D01*
X109983333Y-107283333D01*
X110049999Y-107316667D01*
X110116666Y-107316667D01*
X110183333Y-107283333D01*
X110216666Y-107250000D01*
X110249999Y-107183333D01*
X110283333Y-107050000D01*
X110283333Y-106883333D01*
X110249999Y-106750000D01*
X110216666Y-106683333D01*
X110183333Y-106650000D01*
X110116666Y-106616667D01*
X109449999Y-106616667D02*
X109383332Y-106616667D01*
X109316666Y-106650000D01*
X109283332Y-106683333D01*
X109249999Y-106750000D01*
X109216666Y-106883333D01*
X109216666Y-107050000D01*
X109249999Y-107183333D01*
X109283332Y-107250000D01*
X109316666Y-107283333D01*
X109383332Y-107316667D01*
X109449999Y-107316667D01*
X109516666Y-107283333D01*
X109549999Y-107250000D01*
X109583332Y-107183333D01*
X109616666Y-107050000D01*
X109616666Y-106883333D01*
X109583332Y-106750000D01*
X109549999Y-106683333D01*
X109516666Y-106650000D01*
X109449999Y-106616667D01*
D12*
X116714285Y-103928571D02*
X116714285Y-102928571D01*
X116714285Y-103071429D02*
X116642857Y-103000000D01*
X116499999Y-102928571D01*
X116285714Y-102928571D01*
X116142857Y-103000000D01*
X116071428Y-103142857D01*
X116071428Y-103928571D01*
X116071428Y-103142857D02*
X115999999Y-103000000D01*
X115857142Y-102928571D01*
X115642857Y-102928571D01*
X115499999Y-103000000D01*
X115428571Y-103142857D01*
X115428571Y-103928571D01*
X113857142Y-103785714D02*
X113928571Y-103857143D01*
X114142857Y-103928571D01*
X114285714Y-103928571D01*
X114499999Y-103857143D01*
X114642857Y-103714286D01*
X114714285Y-103571429D01*
X114785714Y-103285714D01*
X114785714Y-103071429D01*
X114714285Y-102785714D01*
X114642857Y-102642857D01*
X114499999Y-102500000D01*
X114285714Y-102428571D01*
X114142857Y-102428571D01*
X113928571Y-102500000D01*
X113857142Y-102571429D01*
X112928571Y-102428571D02*
X112642857Y-102428571D01*
X112499999Y-102500000D01*
X112357142Y-102642857D01*
X112285714Y-102928571D01*
X112285714Y-103428571D01*
X112357142Y-103714286D01*
X112499999Y-103857143D01*
X112642857Y-103928571D01*
X112928571Y-103928571D01*
X113071428Y-103857143D01*
X113214285Y-103714286D01*
X113285714Y-103428571D01*
X113285714Y-102928571D01*
X113214285Y-102642857D01*
X113071428Y-102500000D01*
X112928571Y-102428571D01*
X111642856Y-103928571D02*
X111642856Y-102428571D01*
X111142856Y-103500000D01*
X110642856Y-102428571D01*
X110642856Y-103928571D01*
X109928570Y-103357143D02*
X108785713Y-103357143D01*
X108285713Y-102428571D02*
X107428570Y-102428571D01*
X107857141Y-103928571D02*
X107857141Y-102428571D01*
X106928570Y-103928571D02*
X106928570Y-102428571D01*
X106071427Y-103928571D02*
X106714284Y-103071429D01*
X106071427Y-102428571D02*
X106928570Y-103285714D01*
X104642856Y-103928571D02*
X105499999Y-103928571D01*
X105071427Y-103928571D02*
X105071427Y-102428571D01*
X105214284Y-102642857D01*
X105357142Y-102785714D01*
X105499999Y-102857143D01*
X101999999Y-103785714D02*
X102071428Y-103857143D01*
X102285714Y-103928571D01*
X102428571Y-103928571D01*
X102642856Y-103857143D01*
X102785714Y-103714286D01*
X102857142Y-103571429D01*
X102928571Y-103285714D01*
X102928571Y-103071429D01*
X102857142Y-102785714D01*
X102785714Y-102642857D01*
X102642856Y-102500000D01*
X102428571Y-102428571D01*
X102285714Y-102428571D01*
X102071428Y-102500000D01*
X101999999Y-102571429D01*
X100714285Y-103928571D02*
X100714285Y-103142857D01*
X100785714Y-103000000D01*
X100928571Y-102928571D01*
X101214285Y-102928571D01*
X101357142Y-103000000D01*
X100714285Y-103857143D02*
X100857142Y-103928571D01*
X101214285Y-103928571D01*
X101357142Y-103857143D01*
X101428571Y-103714286D01*
X101428571Y-103571429D01*
X101357142Y-103428571D01*
X101214285Y-103357143D01*
X100857142Y-103357143D01*
X100714285Y-103285714D01*
X99999999Y-103928571D02*
X99999999Y-102928571D01*
X99999999Y-103214286D02*
X99928571Y-103071429D01*
X99857142Y-103000000D01*
X99714285Y-102928571D01*
X99571428Y-102928571D01*
X99071428Y-103928571D02*
X99071428Y-102928571D01*
X99071428Y-103214286D02*
X99000000Y-103071429D01*
X98928571Y-103000000D01*
X98785714Y-102928571D01*
X98642857Y-102928571D01*
X98142857Y-103928571D02*
X98142857Y-102928571D01*
X98142857Y-102428571D02*
X98214286Y-102500000D01*
X98142857Y-102571429D01*
X98071429Y-102500000D01*
X98142857Y-102428571D01*
X98142857Y-102571429D01*
X96857143Y-103857143D02*
X97000000Y-103928571D01*
X97285714Y-103928571D01*
X97428571Y-103857143D01*
X97500000Y-103714286D01*
X97500000Y-103142857D01*
X97428571Y-103000000D01*
X97285714Y-102928571D01*
X97000000Y-102928571D01*
X96857143Y-103000000D01*
X96785714Y-103142857D01*
X96785714Y-103285714D01*
X97500000Y-103428571D01*
X96142857Y-103928571D02*
X96142857Y-102928571D01*
X96142857Y-103214286D02*
X96071429Y-103071429D01*
X96000000Y-103000000D01*
X95857143Y-102928571D01*
X95714286Y-102928571D01*
X93571429Y-103142857D02*
X93357143Y-103214286D01*
X93285715Y-103285714D01*
X93214286Y-103428571D01*
X93214286Y-103642857D01*
X93285715Y-103785714D01*
X93357143Y-103857143D01*
X93500001Y-103928571D01*
X94071429Y-103928571D01*
X94071429Y-102428571D01*
X93571429Y-102428571D01*
X93428572Y-102500000D01*
X93357143Y-102571429D01*
X93285715Y-102714286D01*
X93285715Y-102857143D01*
X93357143Y-103000000D01*
X93428572Y-103071429D01*
X93571429Y-103142857D01*
X94071429Y-103142857D01*
X92357143Y-103928571D02*
X92500001Y-103857143D01*
X92571429Y-103785714D01*
X92642858Y-103642857D01*
X92642858Y-103214286D01*
X92571429Y-103071429D01*
X92500001Y-103000000D01*
X92357143Y-102928571D01*
X92142858Y-102928571D01*
X92000001Y-103000000D01*
X91928572Y-103071429D01*
X91857143Y-103214286D01*
X91857143Y-103642857D01*
X91928572Y-103785714D01*
X92000001Y-103857143D01*
X92142858Y-103928571D01*
X92357143Y-103928571D01*
X90571429Y-103928571D02*
X90571429Y-103142857D01*
X90642858Y-103000000D01*
X90785715Y-102928571D01*
X91071429Y-102928571D01*
X91214286Y-103000000D01*
X90571429Y-103857143D02*
X90714286Y-103928571D01*
X91071429Y-103928571D01*
X91214286Y-103857143D01*
X91285715Y-103714286D01*
X91285715Y-103571429D01*
X91214286Y-103428571D01*
X91071429Y-103357143D01*
X90714286Y-103357143D01*
X90571429Y-103285714D01*
X89857143Y-103928571D02*
X89857143Y-102928571D01*
X89857143Y-103214286D02*
X89785715Y-103071429D01*
X89714286Y-103000000D01*
X89571429Y-102928571D01*
X89428572Y-102928571D01*
X88285715Y-103928571D02*
X88285715Y-102428571D01*
X88285715Y-103857143D02*
X88428572Y-103928571D01*
X88714286Y-103928571D01*
X88857144Y-103857143D01*
X88928572Y-103785714D01*
X89000001Y-103642857D01*
X89000001Y-103214286D01*
X88928572Y-103071429D01*
X88857144Y-103000000D01*
X88714286Y-102928571D01*
X88428572Y-102928571D01*
X88285715Y-103000000D01*
D13*
G36*
X139262671Y-92983977D02*
X139247500Y-95018863D01*
X136216777Y-95018863D01*
X136216819Y-96029091D01*
X140257728Y-96029091D01*
X140257728Y-90949091D01*
X139277841Y-90949091D01*
X139262671Y-92983977D01*
X139262671Y-92983977D01*
G37*
X139262671Y-92983977D02*
X139247500Y-95018863D01*
X136216777Y-95018863D01*
X136216819Y-96029091D01*
X140257728Y-96029091D01*
X140257728Y-90949091D01*
X139277841Y-90949091D01*
X139262671Y-92983977D01*
G36*
X132118182Y-94008636D02*
X134200859Y-94008636D01*
X134184180Y-94513750D01*
X134167500Y-95018863D01*
X132637728Y-95030372D01*
X131107955Y-95041881D01*
X131091276Y-95535486D01*
X131074596Y-96029091D01*
X135177728Y-96029091D01*
X135177728Y-92969545D01*
X132118182Y-92969545D01*
X132118182Y-94008636D01*
X132118182Y-94008636D01*
G37*
X132118182Y-94008636D02*
X134200859Y-94008636D01*
X134184180Y-94513750D01*
X134167500Y-95018863D01*
X132637728Y-95030372D01*
X131107955Y-95041881D01*
X131091276Y-95535486D01*
X131074596Y-96029091D01*
X135177728Y-96029091D01*
X135177728Y-92969545D01*
X132118182Y-92969545D01*
X132118182Y-94008636D01*
G36*
X128553523Y-92981729D02*
X128048409Y-92998409D01*
X128017629Y-96029091D01*
X129058637Y-96029091D01*
X129058637Y-92965050D01*
X128553523Y-92981729D01*
X128553523Y-92981729D01*
G37*
X128553523Y-92981729D02*
X128048409Y-92998409D01*
X128017629Y-96029091D01*
X129058637Y-96029091D01*
X129058637Y-92965050D01*
X128553523Y-92981729D01*
G36*
X124097529Y-92972050D02*
X123698927Y-92981621D01*
X123383180Y-93001343D01*
X123134022Y-93034299D01*
X122935189Y-93083574D01*
X122770413Y-93152251D01*
X122623431Y-93243416D01*
X122477976Y-93360153D01*
X122462130Y-93374019D01*
X122190982Y-93681390D01*
X122018310Y-94026077D01*
X121940812Y-94390892D01*
X121955183Y-94758648D01*
X122058119Y-95112158D01*
X122246318Y-95434235D01*
X122516475Y-95707693D01*
X122865286Y-95915344D01*
X122957784Y-95952540D01*
X123091740Y-95978125D01*
X123338671Y-95998267D01*
X123696221Y-96012861D01*
X124162034Y-96021800D01*
X124570341Y-96024699D01*
X125999091Y-96029091D01*
X125999091Y-95047727D01*
X124727237Y-95047727D01*
X124245497Y-95045300D01*
X123865878Y-95036392D01*
X123575116Y-95018563D01*
X123359947Y-94989370D01*
X123207109Y-94946373D01*
X123103338Y-94887130D01*
X123035371Y-94809201D01*
X122996906Y-94729261D01*
X122944469Y-94513553D01*
X122982277Y-94339426D01*
X123108287Y-94177377D01*
X123183242Y-94106036D01*
X123254709Y-94058311D01*
X123346793Y-94029456D01*
X123483593Y-94014723D01*
X123689212Y-94009366D01*
X123965022Y-94008636D01*
X124436464Y-93994068D01*
X124814631Y-93945645D01*
X125118552Y-93856287D01*
X125367260Y-93718914D01*
X125579783Y-93526445D01*
X125715588Y-93357389D01*
X125802648Y-93236084D01*
X125858470Y-93143125D01*
X125872165Y-93074745D01*
X125832846Y-93027172D01*
X125729623Y-92996638D01*
X125551610Y-92979374D01*
X125287918Y-92971610D01*
X124927659Y-92969576D01*
X124595251Y-92969545D01*
X124097529Y-92972050D01*
X124097529Y-92972050D01*
G37*
X124097529Y-92972050D02*
X123698927Y-92981621D01*
X123383180Y-93001343D01*
X123134022Y-93034299D01*
X122935189Y-93083574D01*
X122770413Y-93152251D01*
X122623431Y-93243416D01*
X122477976Y-93360153D01*
X122462130Y-93374019D01*
X122190982Y-93681390D01*
X122018310Y-94026077D01*
X121940812Y-94390892D01*
X121955183Y-94758648D01*
X122058119Y-95112158D01*
X122246318Y-95434235D01*
X122516475Y-95707693D01*
X122865286Y-95915344D01*
X122957784Y-95952540D01*
X123091740Y-95978125D01*
X123338671Y-95998267D01*
X123696221Y-96012861D01*
X124162034Y-96021800D01*
X124570341Y-96024699D01*
X125999091Y-96029091D01*
X125999091Y-95047727D01*
X124727237Y-95047727D01*
X124245497Y-95045300D01*
X123865878Y-95036392D01*
X123575116Y-95018563D01*
X123359947Y-94989370D01*
X123207109Y-94946373D01*
X123103338Y-94887130D01*
X123035371Y-94809201D01*
X122996906Y-94729261D01*
X122944469Y-94513553D01*
X122982277Y-94339426D01*
X123108287Y-94177377D01*
X123183242Y-94106036D01*
X123254709Y-94058311D01*
X123346793Y-94029456D01*
X123483593Y-94014723D01*
X123689212Y-94009366D01*
X123965022Y-94008636D01*
X124436464Y-93994068D01*
X124814631Y-93945645D01*
X125118552Y-93856287D01*
X125367260Y-93718914D01*
X125579783Y-93526445D01*
X125715588Y-93357389D01*
X125802648Y-93236084D01*
X125858470Y-93143125D01*
X125872165Y-93074745D01*
X125832846Y-93027172D01*
X125729623Y-92996638D01*
X125551610Y-92979374D01*
X125287918Y-92971610D01*
X124927659Y-92969576D01*
X124595251Y-92969545D01*
X124097529Y-92972050D01*
G36*
X116276393Y-94630594D02*
X116154017Y-94999470D01*
X116044852Y-95331853D01*
X115953939Y-95612114D01*
X115886321Y-95824624D01*
X115847043Y-95953755D01*
X115839091Y-95985821D01*
X115891224Y-96012592D01*
X116026587Y-96027820D01*
X116213630Y-96032407D01*
X116420801Y-96027253D01*
X116616548Y-96013259D01*
X116769321Y-95991325D01*
X116847569Y-95962352D01*
X116851138Y-95956931D01*
X116877252Y-95881530D01*
X116933678Y-95715026D01*
X117014212Y-95475845D01*
X117112649Y-95182414D01*
X117222787Y-94853157D01*
X117225284Y-94845681D01*
X117349660Y-94476685D01*
X117439598Y-94201075D01*
X117492728Y-94001322D01*
X117506678Y-93859900D01*
X117479075Y-93759281D01*
X117407550Y-93681939D01*
X117289730Y-93610346D01*
X117123243Y-93526975D01*
X117041279Y-93485785D01*
X116713695Y-93318636D01*
X116276393Y-94630594D01*
X116276393Y-94630594D01*
G37*
X116276393Y-94630594D02*
X116154017Y-94999470D01*
X116044852Y-95331853D01*
X115953939Y-95612114D01*
X115886321Y-95824624D01*
X115847043Y-95953755D01*
X115839091Y-95985821D01*
X115891224Y-96012592D01*
X116026587Y-96027820D01*
X116213630Y-96032407D01*
X116420801Y-96027253D01*
X116616548Y-96013259D01*
X116769321Y-95991325D01*
X116847569Y-95962352D01*
X116851138Y-95956931D01*
X116877252Y-95881530D01*
X116933678Y-95715026D01*
X117014212Y-95475845D01*
X117112649Y-95182414D01*
X117222787Y-94853157D01*
X117225284Y-94845681D01*
X117349660Y-94476685D01*
X117439598Y-94201075D01*
X117492728Y-94001322D01*
X117506678Y-93859900D01*
X117479075Y-93759281D01*
X117407550Y-93681939D01*
X117289730Y-93610346D01*
X117123243Y-93526975D01*
X117041279Y-93485785D01*
X116713695Y-93318636D01*
X116276393Y-94630594D01*
G36*
X117963686Y-91700812D02*
X118231538Y-91845224D01*
X118512108Y-92012984D01*
X118750492Y-92171037D01*
X118778714Y-92191493D01*
X119129870Y-92450000D01*
X135177728Y-92450000D01*
X135177728Y-91468636D01*
X117499813Y-91468636D01*
X117963686Y-91700812D01*
X117963686Y-91700812D01*
G37*
X117963686Y-91700812D02*
X118231538Y-91845224D01*
X118512108Y-92012984D01*
X118750492Y-92171037D01*
X118778714Y-92191493D01*
X119129870Y-92450000D01*
X135177728Y-92450000D01*
X135177728Y-91468636D01*
X117499813Y-91468636D01*
X117963686Y-91700812D01*
D14*
X156381006Y-41295000D02*
G75*
G03X156381006Y-41295000I-381000J0D01*
G01*
D15*
X133805000Y-108860000D02*
X135505000Y-108860000D01*
X135505000Y-108860000D02*
X135505000Y-111410000D01*
X133805000Y-108860000D02*
X133805000Y-111410000D01*
X140435000Y-114210000D02*
X140435000Y-113210000D01*
X139075000Y-113210000D02*
X139075000Y-114210000D01*
X138010000Y-114110000D02*
X138010000Y-113110000D01*
X136650000Y-113110000D02*
X136650000Y-114110000D01*
X143410000Y-114210000D02*
X143410000Y-113210000D01*
X142050000Y-113210000D02*
X142050000Y-114210000D01*
X167880000Y-80090000D02*
X167880000Y-81290000D01*
X169640000Y-81290000D02*
X169640000Y-80090000D01*
D16*
X167100000Y-54200000D02*
X167100000Y-86300000D01*
X166700000Y-86700000D02*
X156000000Y-86700000D01*
X155600000Y-86300000D02*
X155600000Y-54200000D01*
X156000000Y-53800000D02*
X166700000Y-53800000D01*
D15*
X87075000Y-27255000D02*
X88075000Y-27255000D01*
X88075000Y-25895000D02*
X87075000Y-25895000D01*
X88900000Y-33455000D02*
X89900000Y-33455000D01*
X89900000Y-32095000D02*
X88900000Y-32095000D01*
X88925000Y-37180000D02*
X89925000Y-37180000D01*
X89925000Y-35820000D02*
X88925000Y-35820000D01*
D17*
X133507381Y-109596905D02*
X132507381Y-109596905D01*
X132507381Y-109835000D01*
X132555000Y-109977858D01*
X132650238Y-110073096D01*
X132745476Y-110120715D01*
X132935952Y-110168334D01*
X133078810Y-110168334D01*
X133269286Y-110120715D01*
X133364524Y-110073096D01*
X133459762Y-109977858D01*
X133507381Y-109835000D01*
X133507381Y-109596905D01*
X132507381Y-111073096D02*
X132507381Y-110596905D01*
X132983571Y-110549286D01*
X132935952Y-110596905D01*
X132888333Y-110692143D01*
X132888333Y-110930239D01*
X132935952Y-111025477D01*
X132983571Y-111073096D01*
X133078810Y-111120715D01*
X133316905Y-111120715D01*
X133412143Y-111073096D01*
X133459762Y-111025477D01*
X133507381Y-110930239D01*
X133507381Y-110692143D01*
X133459762Y-110596905D01*
X133412143Y-110549286D01*
X140182381Y-110267143D02*
X139706190Y-109933809D01*
X140182381Y-109695714D02*
X139182381Y-109695714D01*
X139182381Y-110076667D01*
X139230000Y-110171905D01*
X139277619Y-110219524D01*
X139372857Y-110267143D01*
X139515714Y-110267143D01*
X139610952Y-110219524D01*
X139658571Y-110171905D01*
X139706190Y-110076667D01*
X139706190Y-109695714D01*
X139277619Y-110648095D02*
X139230000Y-110695714D01*
X139182381Y-110790952D01*
X139182381Y-111029048D01*
X139230000Y-111124286D01*
X139277619Y-111171905D01*
X139372857Y-111219524D01*
X139468095Y-111219524D01*
X139610952Y-111171905D01*
X140182381Y-110600476D01*
X140182381Y-111219524D01*
X139182381Y-111552857D02*
X139182381Y-112171905D01*
X139563333Y-111838571D01*
X139563333Y-111981429D01*
X139610952Y-112076667D01*
X139658571Y-112124286D01*
X139753810Y-112171905D01*
X139991905Y-112171905D01*
X140087143Y-112124286D01*
X140134762Y-112076667D01*
X140182381Y-111981429D01*
X140182381Y-111695714D01*
X140134762Y-111600476D01*
X140087143Y-111552857D01*
X137757381Y-110267143D02*
X137281190Y-109933809D01*
X137757381Y-109695714D02*
X136757381Y-109695714D01*
X136757381Y-110076667D01*
X136805000Y-110171905D01*
X136852619Y-110219524D01*
X136947857Y-110267143D01*
X137090714Y-110267143D01*
X137185952Y-110219524D01*
X137233571Y-110171905D01*
X137281190Y-110076667D01*
X137281190Y-109695714D01*
X136852619Y-110648095D02*
X136805000Y-110695714D01*
X136757381Y-110790952D01*
X136757381Y-111029048D01*
X136805000Y-111124286D01*
X136852619Y-111171905D01*
X136947857Y-111219524D01*
X137043095Y-111219524D01*
X137185952Y-111171905D01*
X137757381Y-110600476D01*
X137757381Y-111219524D01*
X137090714Y-112076667D02*
X137757381Y-112076667D01*
X136709762Y-111838571D02*
X137424048Y-111600476D01*
X137424048Y-112219524D01*
X143207381Y-110367143D02*
X142731190Y-110033809D01*
X143207381Y-109795714D02*
X142207381Y-109795714D01*
X142207381Y-110176667D01*
X142255000Y-110271905D01*
X142302619Y-110319524D01*
X142397857Y-110367143D01*
X142540714Y-110367143D01*
X142635952Y-110319524D01*
X142683571Y-110271905D01*
X142731190Y-110176667D01*
X142731190Y-109795714D01*
X142302619Y-110748095D02*
X142255000Y-110795714D01*
X142207381Y-110890952D01*
X142207381Y-111129048D01*
X142255000Y-111224286D01*
X142302619Y-111271905D01*
X142397857Y-111319524D01*
X142493095Y-111319524D01*
X142635952Y-111271905D01*
X143207381Y-110700476D01*
X143207381Y-111319524D01*
X142207381Y-112224286D02*
X142207381Y-111748095D01*
X142683571Y-111700476D01*
X142635952Y-111748095D01*
X142588333Y-111843333D01*
X142588333Y-112081429D01*
X142635952Y-112176667D01*
X142683571Y-112224286D01*
X142778810Y-112271905D01*
X143016905Y-112271905D01*
X143112143Y-112224286D01*
X143159762Y-112176667D01*
X143207381Y-112081429D01*
X143207381Y-111843333D01*
X143159762Y-111748095D01*
X143112143Y-111700476D01*
X170862381Y-80047143D02*
X170386190Y-79713809D01*
X170862381Y-79475714D02*
X169862381Y-79475714D01*
X169862381Y-79856667D01*
X169910000Y-79951905D01*
X169957619Y-79999524D01*
X170052857Y-80047143D01*
X170195714Y-80047143D01*
X170290952Y-79999524D01*
X170338571Y-79951905D01*
X170386190Y-79856667D01*
X170386190Y-79475714D01*
X169862381Y-80380476D02*
X169862381Y-80999524D01*
X170243333Y-80666190D01*
X170243333Y-80809048D01*
X170290952Y-80904286D01*
X170338571Y-80951905D01*
X170433810Y-80999524D01*
X170671905Y-80999524D01*
X170767143Y-80951905D01*
X170814762Y-80904286D01*
X170862381Y-80809048D01*
X170862381Y-80523333D01*
X170814762Y-80428095D01*
X170767143Y-80380476D01*
X169957619Y-81380476D02*
X169910000Y-81428095D01*
X169862381Y-81523333D01*
X169862381Y-81761429D01*
X169910000Y-81856667D01*
X169957619Y-81904286D01*
X170052857Y-81951905D01*
X170148095Y-81951905D01*
X170290952Y-81904286D01*
X170862381Y-81332857D01*
X170862381Y-81951905D01*
X164961143Y-87365429D02*
X164961143Y-88599143D01*
X164888571Y-88744286D01*
X164816000Y-88816857D01*
X164670857Y-88889429D01*
X164380571Y-88889429D01*
X164235429Y-88816857D01*
X164162857Y-88744286D01*
X164090286Y-88599143D01*
X164090286Y-87365429D01*
X163292000Y-88889429D02*
X163001715Y-88889429D01*
X162856572Y-88816857D01*
X162784000Y-88744286D01*
X162638858Y-88526571D01*
X162566286Y-88236286D01*
X162566286Y-87655714D01*
X162638858Y-87510571D01*
X162711429Y-87438000D01*
X162856572Y-87365429D01*
X163146858Y-87365429D01*
X163292000Y-87438000D01*
X163364572Y-87510571D01*
X163437143Y-87655714D01*
X163437143Y-88018571D01*
X163364572Y-88163714D01*
X163292000Y-88236286D01*
X163146858Y-88308857D01*
X162856572Y-88308857D01*
X162711429Y-88236286D01*
X162638858Y-88163714D01*
X162566286Y-88018571D01*
X164987715Y-88789429D02*
X164987715Y-87265429D01*
X164479715Y-88354000D01*
X163971715Y-87265429D01*
X163971715Y-88789429D01*
X163318572Y-88716857D02*
X163100858Y-88789429D01*
X162738001Y-88789429D01*
X162592858Y-88716857D01*
X162520287Y-88644286D01*
X162447715Y-88499143D01*
X162447715Y-88354000D01*
X162520287Y-88208857D01*
X162592858Y-88136286D01*
X162738001Y-88063714D01*
X163028287Y-87991143D01*
X163173429Y-87918571D01*
X163246001Y-87846000D01*
X163318572Y-87700857D01*
X163318572Y-87555714D01*
X163246001Y-87410571D01*
X163173429Y-87338000D01*
X163028287Y-87265429D01*
X162665429Y-87265429D01*
X162447715Y-87338000D01*
X161867143Y-88354000D02*
X161141429Y-88354000D01*
X162012286Y-88789429D02*
X161504286Y-87265429D01*
X160996286Y-88789429D01*
X160706000Y-87265429D02*
X159835143Y-87265429D01*
X160270572Y-88789429D02*
X160270572Y-87265429D01*
X159399714Y-88354000D02*
X158674000Y-88354000D01*
X159544857Y-88789429D02*
X159036857Y-87265429D01*
X158528857Y-88789429D01*
X158020857Y-88208857D02*
X156859714Y-88208857D01*
X156206571Y-88716857D02*
X155988857Y-88789429D01*
X155626000Y-88789429D01*
X155480857Y-88716857D01*
X155408286Y-88644286D01*
X155335714Y-88499143D01*
X155335714Y-88354000D01*
X155408286Y-88208857D01*
X155480857Y-88136286D01*
X155626000Y-88063714D01*
X155916286Y-87991143D01*
X156061428Y-87918571D01*
X156134000Y-87846000D01*
X156206571Y-87700857D01*
X156206571Y-87555714D01*
X156134000Y-87410571D01*
X156061428Y-87338000D01*
X155916286Y-87265429D01*
X155553428Y-87265429D01*
X155335714Y-87338000D01*
X154464857Y-88789429D02*
X154609999Y-88716857D01*
X154682571Y-88644286D01*
X154755142Y-88499143D01*
X154755142Y-88063714D01*
X154682571Y-87918571D01*
X154609999Y-87846000D01*
X154464857Y-87773429D01*
X154247142Y-87773429D01*
X154101999Y-87846000D01*
X154029428Y-87918571D01*
X153956857Y-88063714D01*
X153956857Y-88499143D01*
X154029428Y-88644286D01*
X154101999Y-88716857D01*
X154247142Y-88789429D01*
X154464857Y-88789429D01*
X152650571Y-88716857D02*
X152795714Y-88789429D01*
X153086000Y-88789429D01*
X153231142Y-88716857D01*
X153303714Y-88644286D01*
X153376285Y-88499143D01*
X153376285Y-88063714D01*
X153303714Y-87918571D01*
X153231142Y-87846000D01*
X153086000Y-87773429D01*
X152795714Y-87773429D01*
X152650571Y-87846000D01*
X151997428Y-88789429D02*
X151997428Y-87265429D01*
X151852285Y-88208857D02*
X151416856Y-88789429D01*
X151416856Y-87773429D02*
X151997428Y-88354000D01*
X150183142Y-88716857D02*
X150328285Y-88789429D01*
X150618571Y-88789429D01*
X150763714Y-88716857D01*
X150836285Y-88571714D01*
X150836285Y-87991143D01*
X150763714Y-87846000D01*
X150618571Y-87773429D01*
X150328285Y-87773429D01*
X150183142Y-87846000D01*
X150110571Y-87991143D01*
X150110571Y-88136286D01*
X150836285Y-88281429D01*
X149675142Y-87773429D02*
X149094571Y-87773429D01*
X149457428Y-87265429D02*
X149457428Y-88571714D01*
X149384856Y-88716857D01*
X149239714Y-88789429D01*
X149094571Y-88789429D01*
X88217857Y-25677381D02*
X88551191Y-25201190D01*
X88789286Y-25677381D02*
X88789286Y-24677381D01*
X88408333Y-24677381D01*
X88313095Y-24725000D01*
X88265476Y-24772619D01*
X88217857Y-24867857D01*
X88217857Y-25010714D01*
X88265476Y-25105952D01*
X88313095Y-25153571D01*
X88408333Y-25201190D01*
X88789286Y-25201190D01*
X87265476Y-25677381D02*
X87836905Y-25677381D01*
X87551191Y-25677381D02*
X87551191Y-24677381D01*
X87646429Y-24820238D01*
X87741667Y-24915476D01*
X87836905Y-24963095D01*
X86313095Y-25677381D02*
X86884524Y-25677381D01*
X86598810Y-25677381D02*
X86598810Y-24677381D01*
X86694048Y-24820238D01*
X86789286Y-24915476D01*
X86884524Y-24963095D01*
X92667857Y-33227381D02*
X93001191Y-32751190D01*
X93239286Y-33227381D02*
X93239286Y-32227381D01*
X92858333Y-32227381D01*
X92763095Y-32275000D01*
X92715476Y-32322619D01*
X92667857Y-32417857D01*
X92667857Y-32560714D01*
X92715476Y-32655952D01*
X92763095Y-32703571D01*
X92858333Y-32751190D01*
X93239286Y-32751190D01*
X91715476Y-33227381D02*
X92286905Y-33227381D01*
X92001191Y-33227381D02*
X92001191Y-32227381D01*
X92096429Y-32370238D01*
X92191667Y-32465476D01*
X92286905Y-32513095D01*
X91334524Y-32322619D02*
X91286905Y-32275000D01*
X91191667Y-32227381D01*
X90953571Y-32227381D01*
X90858333Y-32275000D01*
X90810714Y-32322619D01*
X90763095Y-32417857D01*
X90763095Y-32513095D01*
X90810714Y-32655952D01*
X91382143Y-33227381D01*
X90763095Y-33227381D01*
X92742857Y-36977381D02*
X93076191Y-36501190D01*
X93314286Y-36977381D02*
X93314286Y-35977381D01*
X92933333Y-35977381D01*
X92838095Y-36025000D01*
X92790476Y-36072619D01*
X92742857Y-36167857D01*
X92742857Y-36310714D01*
X92790476Y-36405952D01*
X92838095Y-36453571D01*
X92933333Y-36501190D01*
X93314286Y-36501190D01*
X91790476Y-36977381D02*
X92361905Y-36977381D01*
X92076191Y-36977381D02*
X92076191Y-35977381D01*
X92171429Y-36120238D01*
X92266667Y-36215476D01*
X92361905Y-36263095D01*
X91457143Y-35977381D02*
X90838095Y-35977381D01*
X91171429Y-36358333D01*
X91028571Y-36358333D01*
X90933333Y-36405952D01*
X90885714Y-36453571D01*
X90838095Y-36548810D01*
X90838095Y-36786905D01*
X90885714Y-36882143D01*
X90933333Y-36929762D01*
X91028571Y-36977381D01*
X91314286Y-36977381D01*
X91409524Y-36929762D01*
X91457143Y-36882143D01*
M02*
