G04 #@! TF.FileFunction,Copper,L4,Bot,Signal*
%FSLAX46Y46*%
G04 Gerber Fmt 4.6, Leading zero omitted, Abs format (unit mm)*
G04 Created by KiCad (PCBNEW 4.0.7) date 02/05/18 12:52:08*
%MOMM*%
%LPD*%
G01*
G04 APERTURE LIST*
%ADD10C,0.100000*%
%ADD11C,0.010000*%
%ADD12C,6.000000*%
%ADD13R,1.700000X1.700000*%
%ADD14O,1.700000X1.700000*%
%ADD15C,1.752600*%
%ADD16C,1.500000*%
%ADD17C,1.650000*%
%ADD18C,2.500000*%
%ADD19C,3.250000*%
%ADD20R,0.450000X0.600000*%
%ADD21C,1.524000*%
%ADD22R,0.900000X0.500000*%
%ADD23R,1.300000X0.700000*%
%ADD24R,3.200000X2.300000*%
%ADD25R,5.800000X5.800000*%
%ADD26R,2.000000X0.600000*%
%ADD27R,0.500000X0.900000*%
%ADD28C,0.600000*%
%ADD29C,0.200000*%
%ADD30C,0.250000*%
%ADD31C,0.500000*%
%ADD32C,0.127000*%
%ADD33C,0.125000*%
%ADD34C,0.254000*%
G04 APERTURE END LIST*
D10*
D11*
G36*
X111220909Y-92450000D02*
X113070457Y-92450000D01*
X113732830Y-92452074D01*
X114293958Y-92459132D01*
X114767991Y-92472429D01*
X115169077Y-92493219D01*
X115511366Y-92522755D01*
X115809007Y-92562293D01*
X116076150Y-92613086D01*
X116326944Y-92676389D01*
X116575538Y-92753456D01*
X116604698Y-92763282D01*
X117299195Y-93057860D01*
X117943002Y-93448453D01*
X118524584Y-93924436D01*
X119032409Y-94475186D01*
X119454941Y-95090077D01*
X119734750Y-95646575D01*
X119897321Y-96029091D01*
X120904762Y-96029091D01*
X120764389Y-95642368D01*
X120416921Y-94847685D01*
X119979031Y-94122270D01*
X119456257Y-93471217D01*
X118854141Y-92899619D01*
X118178223Y-92412572D01*
X117434043Y-92015168D01*
X116627141Y-91712502D01*
X116428245Y-91655465D01*
X116286061Y-91617652D01*
X116157206Y-91586593D01*
X116028581Y-91561502D01*
X115887090Y-91541592D01*
X115719634Y-91526076D01*
X115513115Y-91514166D01*
X115254437Y-91505076D01*
X114930500Y-91498018D01*
X114528209Y-91492207D01*
X114034464Y-91486854D01*
X113544432Y-91482182D01*
X111220909Y-91460490D01*
X111220909Y-92450000D01*
X111220909Y-92450000D01*
G37*
X111220909Y-92450000D02*
X113070457Y-92450000D01*
X113732830Y-92452074D01*
X114293958Y-92459132D01*
X114767991Y-92472429D01*
X115169077Y-92493219D01*
X115511366Y-92522755D01*
X115809007Y-92562293D01*
X116076150Y-92613086D01*
X116326944Y-92676389D01*
X116575538Y-92753456D01*
X116604698Y-92763282D01*
X117299195Y-93057860D01*
X117943002Y-93448453D01*
X118524584Y-93924436D01*
X119032409Y-94475186D01*
X119454941Y-95090077D01*
X119734750Y-95646575D01*
X119897321Y-96029091D01*
X120904762Y-96029091D01*
X120764389Y-95642368D01*
X120416921Y-94847685D01*
X119979031Y-94122270D01*
X119456257Y-93471217D01*
X118854141Y-92899619D01*
X118178223Y-92412572D01*
X117434043Y-92015168D01*
X116627141Y-91712502D01*
X116428245Y-91655465D01*
X116286061Y-91617652D01*
X116157206Y-91586593D01*
X116028581Y-91561502D01*
X115887090Y-91541592D01*
X115719634Y-91526076D01*
X115513115Y-91514166D01*
X115254437Y-91505076D01*
X114930500Y-91498018D01*
X114528209Y-91492207D01*
X114034464Y-91486854D01*
X113544432Y-91482182D01*
X111220909Y-91460490D01*
X111220909Y-92450000D01*
G36*
X113241364Y-96029091D02*
X114280455Y-96029091D01*
X114280455Y-92969545D01*
X113241364Y-92969545D01*
X113241364Y-96029091D01*
X113241364Y-96029091D01*
G37*
X113241364Y-96029091D02*
X114280455Y-96029091D01*
X114280455Y-92969545D01*
X113241364Y-92969545D01*
X113241364Y-96029091D01*
D12*
X170085000Y-43850000D03*
X170085000Y-90850000D03*
D13*
X85750000Y-96555000D03*
D14*
X83210000Y-96555000D03*
X85750000Y-94015000D03*
X83210000Y-94015000D03*
X85750000Y-91475000D03*
X83210000Y-91475000D03*
X85750000Y-88935000D03*
X83210000Y-88935000D03*
D15*
X99895598Y-45850000D03*
X99895598Y-45850000D03*
X157604398Y-45850000D03*
X157604398Y-45850000D03*
D16*
X161390000Y-108040000D03*
X160120000Y-105500000D03*
X158850000Y-108040000D03*
X157580000Y-105500000D03*
X156310000Y-108040000D03*
X155040000Y-105500000D03*
X153770000Y-108040000D03*
X152500000Y-105500000D03*
X151230000Y-108040000D03*
X149960000Y-105500000D03*
D17*
X161140000Y-100670000D03*
X158600000Y-100670000D03*
X152500000Y-100670000D03*
X149960000Y-100670000D03*
D18*
X148945000Y-111340000D03*
D19*
X149960000Y-114390000D03*
X161390000Y-114390000D03*
D18*
X162405000Y-111340000D03*
D20*
X134655000Y-109310000D03*
X134655000Y-111410000D03*
D21*
X96260000Y-36755000D03*
X96260000Y-34215000D03*
X98800000Y-36755000D03*
X98800000Y-34215000D03*
X101340000Y-36755000D03*
X101340000Y-34215000D03*
X103880000Y-36755000D03*
X103880000Y-34215000D03*
X106420000Y-36755000D03*
X106420000Y-34215000D03*
X108960000Y-36755000D03*
X108960000Y-34215000D03*
X111500000Y-36755000D03*
X111500000Y-34215000D03*
X114040000Y-36755000D03*
X114040000Y-34215000D03*
X116580000Y-36755000D03*
X116580000Y-34215000D03*
X119120000Y-36755000D03*
X119120000Y-34215000D03*
X121660000Y-36755000D03*
X121660000Y-34215000D03*
X124200000Y-36755000D03*
X124200000Y-34215000D03*
X126740000Y-36755000D03*
X126740000Y-34215000D03*
X129280000Y-36755000D03*
X129280000Y-34215000D03*
X131820000Y-36755000D03*
X131820000Y-34215000D03*
X134360000Y-36755000D03*
X134360000Y-34215000D03*
X136900000Y-36755000D03*
X136900000Y-34215000D03*
X139440000Y-36755000D03*
X139440000Y-34215000D03*
X141980000Y-36755000D03*
X141980000Y-34215000D03*
X144520000Y-36755000D03*
X144520000Y-34215000D03*
X147060000Y-36755000D03*
X147060000Y-34215000D03*
X149600000Y-36755000D03*
X149600000Y-34215000D03*
X152140000Y-36755000D03*
X152140000Y-34215000D03*
X154680000Y-36755000D03*
X154680000Y-34215000D03*
X157220000Y-36755000D03*
X157220000Y-34215000D03*
X159760000Y-36755000D03*
X159760000Y-34215000D03*
D22*
X139755000Y-112960000D03*
X139755000Y-114460000D03*
X137330000Y-112860000D03*
X137330000Y-114360000D03*
X142730000Y-112960000D03*
X142730000Y-114460000D03*
D23*
X168760000Y-81640000D03*
X168760000Y-79740000D03*
D21*
X96259001Y-31678961D03*
X96259001Y-29138961D03*
X98799001Y-31678961D03*
X98799001Y-29138961D03*
X101339001Y-31678961D03*
X101339001Y-29138961D03*
X103879001Y-31678961D03*
X103879001Y-29138961D03*
X106419001Y-31678961D03*
X106419001Y-29138961D03*
X108959001Y-31678961D03*
X108959001Y-29138961D03*
X111499001Y-31678961D03*
X111499001Y-29138961D03*
X114039001Y-31678961D03*
X114039001Y-29138961D03*
X116579001Y-31678961D03*
X116579001Y-29138961D03*
X119119001Y-31678961D03*
X119119001Y-29138961D03*
X121659001Y-31678961D03*
X121659001Y-29138961D03*
X124199001Y-31678961D03*
X124199001Y-29138961D03*
X126739001Y-31678961D03*
X126739001Y-29138961D03*
X129279001Y-31678961D03*
X129279001Y-29138961D03*
X131819001Y-31678961D03*
X131819001Y-29138961D03*
X134359001Y-31678961D03*
X134359001Y-29138961D03*
X136899001Y-31678961D03*
X136899001Y-29138961D03*
X139439001Y-31678961D03*
X139439001Y-29138961D03*
X141979001Y-31678961D03*
X141979001Y-29138961D03*
X144519001Y-31678961D03*
X144519001Y-29138961D03*
X147059001Y-31678961D03*
X147059001Y-29138961D03*
X149599001Y-31678961D03*
X149599001Y-29138961D03*
X152139001Y-31678961D03*
X152139001Y-29138961D03*
X154679001Y-31678961D03*
X154679001Y-29138961D03*
X157219001Y-31678961D03*
X157219001Y-29138961D03*
X159759001Y-31678961D03*
X159759001Y-29138961D03*
D13*
X85700000Y-73820000D03*
D14*
X85700000Y-71280000D03*
X85700000Y-68740000D03*
D13*
X85510000Y-65540000D03*
D14*
X85510000Y-63000000D03*
X85510000Y-60460000D03*
X85510000Y-57920000D03*
X85510000Y-55380000D03*
X85510000Y-52840000D03*
D13*
X172490000Y-49220000D03*
D14*
X172490000Y-51760000D03*
X172490000Y-54300000D03*
D24*
X164850000Y-55600000D03*
X164850000Y-84900000D03*
D25*
X113300000Y-58150000D03*
X113300000Y-82350000D03*
D26*
X165450000Y-58450000D03*
X157250000Y-58850000D03*
X165450000Y-59250000D03*
X157250000Y-59650000D03*
X165450000Y-60050000D03*
X157250000Y-60450000D03*
X165450000Y-60850000D03*
X157250000Y-61250000D03*
X165450000Y-61650000D03*
X157250000Y-62050000D03*
X165450000Y-62450000D03*
X157250000Y-62850000D03*
X165450000Y-63250000D03*
X157250000Y-63650000D03*
X165450000Y-64050000D03*
X157250000Y-64450000D03*
X165450000Y-68050000D03*
X157250000Y-68450000D03*
X165450000Y-68850000D03*
X157250000Y-69250000D03*
X165450000Y-69650000D03*
X157250000Y-70050000D03*
X165450000Y-70450000D03*
X157250000Y-70850000D03*
X165450000Y-71250000D03*
X157250000Y-71650000D03*
X165450000Y-72050000D03*
X157250000Y-72450000D03*
X165450000Y-72850000D03*
X157250000Y-73250000D03*
X165450000Y-73650000D03*
X157250000Y-74050000D03*
X165450000Y-74450000D03*
X157250000Y-74850000D03*
X165450000Y-75250000D03*
X157250000Y-75650000D03*
X165450000Y-76050000D03*
X157250000Y-76450000D03*
X165450000Y-76850000D03*
X157250000Y-77250000D03*
X165450000Y-77650000D03*
X157250000Y-78050000D03*
X165450000Y-78450000D03*
X157250000Y-78850000D03*
X165450000Y-79250000D03*
X157250000Y-79650000D03*
X165450000Y-80050000D03*
X157250000Y-80450000D03*
X165450000Y-80850000D03*
X157250000Y-81250000D03*
X165450000Y-81650000D03*
X157250000Y-82050000D03*
D13*
X85750000Y-85230000D03*
D14*
X83210000Y-85230000D03*
X85750000Y-82690000D03*
X83210000Y-82690000D03*
X85750000Y-80150000D03*
X83210000Y-80150000D03*
D27*
X88325000Y-26575000D03*
X86825000Y-26575000D03*
X90150000Y-32775000D03*
X88650000Y-32775000D03*
X90175000Y-36500000D03*
X88675000Y-36500000D03*
D12*
X94325000Y-90850000D03*
D28*
X160325000Y-58870000D03*
X154725000Y-58750000D03*
X160500000Y-71400000D03*
X153950000Y-82300000D03*
X139230000Y-104760000D03*
X163810000Y-77640000D03*
X137080000Y-111435000D03*
X137330000Y-114360000D03*
X139755000Y-114460000D03*
X142730000Y-114460000D03*
X91175000Y-36500000D03*
X126195000Y-110715000D03*
X113740000Y-50010000D03*
X142680000Y-111485000D03*
X140270000Y-49650000D03*
X156990000Y-49640000D03*
X139340000Y-47305000D03*
X120595000Y-107590000D03*
X125270000Y-113415000D03*
X132630000Y-101560000D03*
X136405000Y-106860000D03*
X168630000Y-70184099D03*
X168630000Y-70984099D03*
X145740000Y-40950000D03*
X145700000Y-45110000D03*
X168290000Y-73350000D03*
X145740000Y-40150000D03*
X145700000Y-45910000D03*
X168290000Y-74150000D03*
X164080000Y-80820000D03*
X130000000Y-44750000D03*
X125000000Y-45000000D03*
X125750000Y-51250000D03*
X123000000Y-44500000D03*
X114750000Y-45000000D03*
X112500000Y-53500000D03*
X110000000Y-41750000D03*
X107422875Y-44855010D03*
X91850000Y-45880000D03*
X89375000Y-26200000D03*
X94720000Y-46650000D03*
X86925000Y-47350000D03*
X95450000Y-47280000D03*
X93340000Y-42290000D03*
X131910000Y-47050000D03*
X83750000Y-38250000D03*
X87675000Y-32400000D03*
X129436490Y-47000000D03*
X128000000Y-49750000D03*
X125000000Y-47000000D03*
X123030000Y-47470000D03*
X87675000Y-36400000D03*
X105020000Y-49880000D03*
X102999999Y-45650000D03*
X108225000Y-96525000D03*
X134855000Y-98560000D03*
X159250000Y-44000000D03*
X159250000Y-45000000D03*
X159250000Y-46250000D03*
X159250000Y-47500000D03*
X160250000Y-47500000D03*
X160250000Y-46250000D03*
X160250000Y-45000000D03*
X160250000Y-44000000D03*
X98000000Y-44250000D03*
X98000000Y-45500000D03*
X98000000Y-46750000D03*
X98000000Y-47750000D03*
X97000000Y-47750000D03*
X97000000Y-46750000D03*
X97000000Y-45500000D03*
X97000000Y-44250000D03*
X111186490Y-47250000D03*
X146020000Y-49650000D03*
X155332053Y-46768515D03*
X160576490Y-94412781D03*
X151125000Y-94325000D03*
X85525000Y-51000000D03*
X87350000Y-73825000D03*
X100750000Y-113000000D03*
X99575000Y-110000000D03*
X99500000Y-111500000D03*
X99500000Y-113000000D03*
X102000000Y-113000000D03*
X102000000Y-111500000D03*
X102000000Y-110000000D03*
X100725000Y-110000000D03*
X100725000Y-111500000D03*
X115000000Y-113000000D03*
X112850000Y-113000000D03*
X114925000Y-110000000D03*
X112725000Y-110000000D03*
X112725000Y-111500000D03*
X115000000Y-111500000D03*
X113875000Y-113000000D03*
X113800000Y-110000000D03*
X113825000Y-111500000D03*
X155040000Y-103750000D03*
X150925000Y-111100000D03*
X163725000Y-109600000D03*
X162675000Y-108000000D03*
X155575000Y-80900000D03*
X159175000Y-77050000D03*
X159175000Y-74875000D03*
X163375000Y-75100000D03*
X158950000Y-71575000D03*
X163675000Y-72725000D03*
X163600000Y-71825000D03*
X162900000Y-69275000D03*
X157250000Y-67100000D03*
X163450000Y-61650000D03*
X158925000Y-59800000D03*
X101400000Y-47125000D03*
X106500000Y-47325000D03*
X116500000Y-47250000D03*
X121475000Y-47250000D03*
X126500000Y-47225000D03*
X130825000Y-47150000D03*
X136000000Y-47275000D03*
X141025000Y-47025000D03*
X150850000Y-47250000D03*
X101475000Y-42050000D03*
X106450000Y-41925000D03*
X111500000Y-42050000D03*
X116500000Y-42025000D03*
X121500000Y-41900000D03*
X123500000Y-41925000D03*
X126500000Y-42075000D03*
X128000000Y-42025000D03*
X131000000Y-42025000D03*
X136000000Y-42000000D03*
X141000000Y-42000000D03*
X146000000Y-42075000D03*
X149475000Y-44275000D03*
X156850000Y-43400000D03*
X163325000Y-76050000D03*
X163150000Y-64175000D03*
X129790000Y-112810000D03*
X144930000Y-112960000D03*
X155482842Y-45982842D03*
X147532842Y-79017158D03*
X154917158Y-45417158D03*
X146967158Y-79582842D03*
X157200000Y-42090000D03*
X152260000Y-39360000D03*
X144820000Y-72460000D03*
X152260000Y-40140000D03*
X145600000Y-72460000D03*
X152510000Y-41750000D03*
X151042158Y-78492158D03*
X152510000Y-40970000D03*
X151607842Y-79057842D03*
X150194229Y-41115771D03*
X149540000Y-72550000D03*
X150745771Y-40564229D03*
X150320000Y-72550000D03*
X111686490Y-51500000D03*
X110750000Y-45750000D03*
X109813510Y-44750000D03*
X110000000Y-51250000D03*
X109250000Y-46750000D03*
X97500000Y-70000000D03*
X108686490Y-45002986D03*
D29*
X157250000Y-58850000D02*
X160305000Y-58850000D01*
X160305000Y-58850000D02*
X160325000Y-58870000D01*
D30*
X154725000Y-58750000D02*
X157150000Y-58750000D01*
X157150000Y-58750000D02*
X157250000Y-58850000D01*
X157250000Y-70850000D02*
X159950000Y-70850000D01*
X159950000Y-70850000D02*
X160500000Y-71400000D01*
X153950000Y-82300000D02*
X154249999Y-82000001D01*
X156000000Y-70850000D02*
X157250000Y-70850000D01*
X154249999Y-82000001D02*
X154249999Y-72600001D01*
X154249999Y-72600001D02*
X156000000Y-70850000D01*
X157250000Y-82050000D02*
X154200000Y-82050000D01*
X154200000Y-82050000D02*
X153950000Y-82300000D01*
X165450000Y-76850000D02*
X165450000Y-77650000D01*
D31*
X163810000Y-77640000D02*
X165440000Y-77640000D01*
D30*
X165440000Y-77640000D02*
X165450000Y-77650000D01*
X134655000Y-111410000D02*
X137055000Y-111410000D01*
X137055000Y-111410000D02*
X137080000Y-111435000D01*
D31*
X86825000Y-26575000D02*
X86825000Y-28800000D01*
X86825000Y-28800000D02*
X87625002Y-28800000D01*
X87625002Y-28800000D02*
X90150000Y-31324998D01*
X90150000Y-31324998D02*
X90150000Y-31825000D01*
X90150000Y-31825000D02*
X90150000Y-32775000D01*
X91575000Y-33125000D02*
X91575000Y-36100000D01*
X91575000Y-36100000D02*
X91175000Y-36500000D01*
X91225000Y-32775000D02*
X91575000Y-33125000D01*
X90150000Y-32775000D02*
X91225000Y-32775000D01*
X90175000Y-36500000D02*
X91175000Y-36500000D01*
X126195000Y-114785000D02*
X127460000Y-116050000D01*
X126195000Y-110715000D02*
X126195000Y-114785000D01*
X127460000Y-116050000D02*
X145250000Y-116050000D01*
X145250000Y-116050000D02*
X145890000Y-115410000D01*
X145890000Y-115410000D02*
X145890000Y-111820000D01*
X145890000Y-111820000D02*
X145555000Y-111485000D01*
X145555000Y-111485000D02*
X142680000Y-111485000D01*
X113720000Y-50030000D02*
X113740000Y-50010000D01*
D30*
X90150000Y-36475000D02*
X90175000Y-36500000D01*
X142680000Y-111485000D02*
X143730000Y-111485000D01*
D32*
X156990000Y-49640000D02*
X140280000Y-49640000D01*
X156990000Y-49640000D02*
X157289999Y-49939999D01*
X158082422Y-49939999D02*
X159389433Y-51247011D01*
X157289999Y-49939999D02*
X158082422Y-49939999D01*
X159389433Y-51247011D02*
X167147011Y-51247011D01*
X167147011Y-51247011D02*
X170200000Y-54300000D01*
X170200000Y-54300000D02*
X172490000Y-54300000D01*
D30*
X140280000Y-49640000D02*
X140270000Y-49650000D01*
D32*
X155034556Y-47305000D02*
X156701485Y-48971929D01*
X140183501Y-46461499D02*
X141295481Y-46461499D01*
X151095481Y-46686499D02*
X151713982Y-47305000D01*
X157576812Y-48971929D02*
X158450000Y-49845117D01*
X146395481Y-46586499D02*
X146495481Y-46686499D01*
X151713982Y-47305000D02*
X155034556Y-47305000D01*
X141420481Y-46586499D02*
X146395481Y-46586499D01*
X141295481Y-46461499D02*
X141420481Y-46586499D01*
X156701485Y-48971929D02*
X157576812Y-48971929D01*
X139340000Y-47305000D02*
X140183501Y-46461499D01*
X146495481Y-46686499D02*
X151095481Y-46686499D01*
X168850001Y-50920001D02*
X168720000Y-50920001D01*
X168720000Y-50920001D02*
X159524884Y-50920001D01*
X172490000Y-51760000D02*
X171640001Y-50910001D01*
X171640001Y-50910001D02*
X168730000Y-50910001D01*
X168730000Y-50910001D02*
X168720000Y-50920001D01*
X158610000Y-50005117D02*
X158450000Y-49845117D01*
X159524884Y-50920001D02*
X158450000Y-49845117D01*
D30*
X139340000Y-47230000D02*
X139340000Y-47305000D01*
X120595000Y-109340000D02*
X120595000Y-107590000D01*
X125270000Y-113415000D02*
X124670000Y-113415000D01*
X124670000Y-113415000D02*
X120595000Y-109340000D01*
X136405000Y-106860000D02*
X136405000Y-105335000D01*
X136405000Y-105335000D02*
X132630000Y-101560000D01*
D29*
X165450000Y-81650000D02*
X168750000Y-81650000D01*
X168750000Y-81650000D02*
X168760000Y-81640000D01*
D32*
X165450000Y-70450000D02*
X166950000Y-70450000D01*
X167125000Y-70625000D02*
X167886802Y-70625000D01*
X166950000Y-70450000D02*
X167125000Y-70625000D01*
X167886802Y-70625000D02*
X168152702Y-70359100D01*
X168152702Y-70359100D02*
X168454999Y-70359100D01*
X168454999Y-70359100D02*
X168630000Y-70184099D01*
X168339100Y-70809098D02*
X168454999Y-70809098D01*
X165450000Y-71250000D02*
X166950000Y-71250000D01*
X166950000Y-71250000D02*
X167125000Y-71075000D01*
X167125000Y-71075000D02*
X168073198Y-71075000D01*
X168073198Y-71075000D02*
X168339100Y-70809098D01*
D30*
X168454999Y-70809098D02*
X168630000Y-70984099D01*
D32*
X145443199Y-40774999D02*
X144398198Y-41820000D01*
X144398198Y-41820000D02*
X144398198Y-44515000D01*
X145564999Y-40774999D02*
X145443199Y-40774999D01*
X144398198Y-44515000D02*
X145168199Y-45285001D01*
X145740000Y-40950000D02*
X145564999Y-40774999D01*
X145168199Y-45285001D02*
X145524999Y-45285001D01*
X145524999Y-45285001D02*
X145700000Y-45110000D01*
X165450000Y-73650000D02*
X166950000Y-73650000D01*
X167876801Y-73525001D02*
X168114999Y-73525001D01*
X166950000Y-73650000D02*
X167125000Y-73825000D01*
X167125000Y-73825000D02*
X167576802Y-73825000D01*
X167576802Y-73825000D02*
X167876801Y-73525001D01*
D30*
X168114999Y-73525001D02*
X168290000Y-73350000D01*
D32*
X145740000Y-40150000D02*
X145564999Y-40325001D01*
X145564999Y-40325001D02*
X145204369Y-40325001D01*
X145204369Y-40325001D02*
X143935000Y-41594370D01*
X143935000Y-41594370D02*
X143935000Y-44688198D01*
X143935000Y-44688198D02*
X144981801Y-45734999D01*
X144981801Y-45734999D02*
X145524999Y-45734999D01*
X145524999Y-45734999D02*
X145700000Y-45910000D01*
D30*
X168114999Y-73974999D02*
X168290000Y-74150000D01*
D32*
X165450000Y-74450000D02*
X166950000Y-74450000D01*
X166950000Y-74450000D02*
X167125000Y-74275000D01*
X167763198Y-74275000D02*
X168063199Y-73974999D01*
X167125000Y-74275000D02*
X167763198Y-74275000D01*
D30*
X168063199Y-73974999D02*
X168114999Y-73974999D01*
D32*
X165450000Y-80850000D02*
X164110000Y-80850000D01*
X164110000Y-80850000D02*
X164080000Y-80820000D01*
X87099301Y-90625001D02*
X125750000Y-51974302D01*
X86599999Y-90625001D02*
X87099301Y-90625001D01*
X85750000Y-91475000D02*
X86599999Y-90625001D01*
X125750000Y-51974302D02*
X125750000Y-51250000D01*
X112250000Y-50500000D02*
X112250000Y-53250000D01*
X112250000Y-53250000D02*
X112500000Y-53500000D01*
X112250000Y-50500000D02*
X112250000Y-44000000D01*
X112250000Y-44000000D02*
X110000000Y-41750000D01*
D30*
X95537179Y-44648699D02*
X95785000Y-44648699D01*
X95785000Y-44648699D02*
X105943695Y-44648699D01*
X91850000Y-45880000D02*
X93081301Y-44648699D01*
X93081301Y-44648699D02*
X94393699Y-44648699D01*
X94393699Y-44648699D02*
X95785000Y-44648699D01*
X106998611Y-44855010D02*
X107422875Y-44855010D01*
X106150006Y-44855010D02*
X106998611Y-44855010D01*
X105943695Y-44648699D02*
X106150006Y-44855010D01*
D32*
X94720000Y-46650000D02*
X94295736Y-46650000D01*
X94295736Y-46650000D02*
X94055736Y-46890000D01*
X94055736Y-46890000D02*
X92800000Y-46890000D01*
X86925000Y-53965000D02*
X86925000Y-53720000D01*
X86925000Y-53720000D02*
X86925000Y-47350000D01*
X91180000Y-53670000D02*
X86975000Y-53670000D01*
X86975000Y-53670000D02*
X86925000Y-53720000D01*
X85510000Y-55380000D02*
X86925000Y-53965000D01*
X91290000Y-53560000D02*
X91180000Y-53670000D01*
X91290000Y-48400000D02*
X91290000Y-53560000D01*
X92800000Y-46890000D02*
X91290000Y-48400000D01*
D30*
X88325000Y-26575000D02*
X89000000Y-26575000D01*
X89000000Y-26575000D02*
X89375000Y-26200000D01*
D32*
X95450000Y-47280000D02*
X92872462Y-47280000D01*
X92872462Y-47280000D02*
X91690000Y-48462462D01*
X91690000Y-48462462D02*
X91690000Y-56820000D01*
X91690000Y-56820000D02*
X85510000Y-63000000D01*
X130173501Y-45313501D02*
X131610001Y-46750001D01*
X129436499Y-44576499D02*
X129436499Y-45020481D01*
X129729519Y-45313501D02*
X130173501Y-45313501D01*
X127063501Y-42203501D02*
X129436499Y-44576499D01*
X131610001Y-46750001D02*
X131910000Y-47050000D01*
X127063501Y-41804519D02*
X127063501Y-42203501D01*
X117081445Y-41310000D02*
X126568982Y-41310000D01*
X126568982Y-41310000D02*
X127063501Y-41804519D01*
X94770513Y-40859487D02*
X110405934Y-40859487D01*
X110655933Y-41109487D02*
X116880932Y-41109487D01*
X116880932Y-41109487D02*
X117081445Y-41310000D01*
X110405934Y-40859487D02*
X110655933Y-41109487D01*
X93340000Y-42290000D02*
X94770513Y-40859487D01*
X129436499Y-45020481D02*
X129729519Y-45313501D01*
X83750000Y-38250000D02*
X88650000Y-33350000D01*
X88650000Y-33350000D02*
X88650000Y-32775000D01*
X87675000Y-32400000D02*
X88275000Y-32400000D01*
X88275000Y-32400000D02*
X88650000Y-32775000D01*
X122730001Y-47170001D02*
X123030000Y-47470000D01*
X116958982Y-41650000D02*
X117210000Y-41650000D01*
X116745480Y-41436498D02*
X116958982Y-41650000D01*
X110270482Y-41186498D02*
X110520482Y-41436498D01*
X117210000Y-41650000D02*
X122730001Y-47170001D01*
X98449943Y-41186498D02*
X110270482Y-41186498D01*
X95376253Y-44260188D02*
X98449943Y-41186498D01*
X110520482Y-41436498D02*
X116745480Y-41436498D01*
X87675000Y-37691441D02*
X94243747Y-44260188D01*
X87675000Y-36400000D02*
X87675000Y-37691441D01*
X94243747Y-44260188D02*
X95376253Y-44260188D01*
X83960000Y-47780000D02*
X83960000Y-58910000D01*
X83960000Y-58910000D02*
X85510000Y-60460000D01*
X85075000Y-46665000D02*
X83960000Y-47780000D01*
X85075000Y-38575736D02*
X85075000Y-46665000D01*
X87675000Y-36400000D02*
X87250736Y-36400000D01*
X87250736Y-36400000D02*
X85075000Y-38575736D01*
D30*
X88675000Y-36500000D02*
X87775000Y-36500000D01*
X87775000Y-36500000D02*
X87675000Y-36400000D01*
D32*
X90400000Y-59330000D02*
X90510000Y-59220000D01*
X90510000Y-59220000D02*
X92630000Y-57100000D01*
X87250000Y-64777000D02*
X87250000Y-62480000D01*
X87250000Y-62480000D02*
X90510000Y-59220000D01*
X85510000Y-65540000D02*
X86487000Y-65540000D01*
X86487000Y-65540000D02*
X87250000Y-64777000D01*
X92630000Y-50350000D02*
X93100000Y-49880000D01*
X93100000Y-49880000D02*
X105020000Y-49880000D01*
X92630000Y-57100000D02*
X92630000Y-50350000D01*
D30*
X131580000Y-106710000D02*
X131580000Y-101684998D01*
X131580000Y-101684998D02*
X134704998Y-98560000D01*
X134704998Y-98560000D02*
X134855000Y-98560000D01*
X134655000Y-109310000D02*
X134180000Y-109310000D01*
X134180000Y-109310000D02*
X131580000Y-106710000D01*
D29*
X85510000Y-52840000D02*
X85510000Y-51015000D01*
X85510000Y-51015000D02*
X85525000Y-51000000D01*
X168760000Y-79740000D02*
X168760000Y-78490000D01*
X168760000Y-78490000D02*
X168850000Y-78400000D01*
X157250000Y-81250000D02*
X155925000Y-81250000D01*
X155925000Y-81250000D02*
X155575000Y-80900000D01*
X157250000Y-77250000D02*
X158975000Y-77250000D01*
X158975000Y-77250000D02*
X159175000Y-77050000D01*
X157250000Y-74850000D02*
X159150000Y-74850000D01*
X159150000Y-74850000D02*
X159175000Y-74875000D01*
X165450000Y-75250000D02*
X163525000Y-75250000D01*
X163525000Y-75250000D02*
X163375000Y-75100000D01*
X157250000Y-71650000D02*
X158875000Y-71650000D01*
X158875000Y-71650000D02*
X158950000Y-71575000D01*
X165450000Y-72850000D02*
X163800000Y-72850000D01*
X163800000Y-72850000D02*
X163675000Y-72725000D01*
X165450000Y-72050000D02*
X163825000Y-72050000D01*
X163825000Y-72050000D02*
X163600000Y-71825000D01*
X165450000Y-69650000D02*
X163275000Y-69650000D01*
X163275000Y-69650000D02*
X162900000Y-69275000D01*
X157250000Y-68450000D02*
X157250000Y-67100000D01*
X165450000Y-61650000D02*
X163450000Y-61650000D01*
X157250000Y-59650000D02*
X158775000Y-59650000D01*
X158775000Y-59650000D02*
X158925000Y-59800000D01*
D31*
X165450000Y-76050000D02*
X163325000Y-76050000D01*
X165450000Y-64050000D02*
X163275000Y-64050000D01*
X163275000Y-64050000D02*
X163150000Y-64175000D01*
X137330000Y-112860000D02*
X129840000Y-112860000D01*
X129840000Y-112860000D02*
X129790000Y-112810000D01*
X142730000Y-112960000D02*
X144930000Y-112960000D01*
D30*
X164750000Y-64050000D02*
X165450000Y-64050000D01*
X165360000Y-72760000D02*
X165450000Y-72850000D01*
X157250000Y-81250000D02*
X156344998Y-81250000D01*
X165400000Y-69600000D02*
X165450000Y-69650000D01*
X165410000Y-61690000D02*
X165450000Y-61650000D01*
D29*
X165450000Y-72050000D02*
X165450000Y-72850000D01*
D30*
X155040000Y-105500000D02*
X154845001Y-105694999D01*
X137255000Y-112935000D02*
X137330000Y-112860000D01*
D31*
X139755000Y-112960000D02*
X140455000Y-112960000D01*
X140455000Y-112960000D02*
X142955000Y-112960000D01*
X137330000Y-112860000D02*
X139655000Y-112860000D01*
D30*
X139655000Y-112860000D02*
X139755000Y-112960000D01*
D33*
X147437500Y-82393166D02*
X145057501Y-80013167D01*
X147437500Y-88117308D02*
X147437500Y-82393166D01*
X145057501Y-80013167D02*
X145057501Y-72697501D01*
X153540191Y-105500000D02*
X153637500Y-105402691D01*
X153637500Y-105402691D02*
X153637500Y-102107692D01*
X152500000Y-105500000D02*
X153540191Y-105500000D01*
X153637500Y-102107692D02*
X154262500Y-101482692D01*
X154262500Y-101482692D02*
X154262500Y-94942308D01*
X154262500Y-94942308D02*
X147437500Y-88117308D01*
X145057501Y-72697501D02*
X144820000Y-72460000D01*
X147762500Y-87982692D02*
X147762500Y-82286834D01*
X154587500Y-101617308D02*
X154587500Y-94807692D01*
X153962500Y-105537309D02*
X153962500Y-102242308D01*
X153770000Y-108040000D02*
X153770000Y-105729809D01*
X153770000Y-105729809D02*
X153962500Y-105537309D01*
X153962500Y-102242308D02*
X154587500Y-101617308D01*
X154587500Y-94807692D02*
X147762500Y-87982692D01*
X145362499Y-72697501D02*
X145600000Y-72460000D01*
X147762500Y-82286834D02*
X145362499Y-79886833D01*
X145362499Y-79886833D02*
X145362499Y-72697501D01*
X149777501Y-82900381D02*
X149777501Y-72787501D01*
X158850000Y-108040000D02*
X158850000Y-103904808D01*
X158850000Y-103904808D02*
X156887500Y-101942308D01*
X149612500Y-84942308D02*
X149612500Y-83065382D01*
X149777501Y-72787501D02*
X149540000Y-72550000D01*
X156887500Y-101942308D02*
X156887500Y-92217308D01*
X156887500Y-92217308D02*
X149612500Y-84942308D01*
X149612500Y-83065382D02*
X149777501Y-82900381D01*
X150082499Y-83055001D02*
X150082499Y-72787501D01*
X149937500Y-83200000D02*
X150082499Y-83055001D01*
X150082499Y-72787501D02*
X150320000Y-72550000D01*
X149937500Y-84807692D02*
X149937500Y-83200000D01*
X157212500Y-92082692D02*
X149937500Y-84807692D01*
X157212500Y-101807692D02*
X157212500Y-92082692D01*
X160120000Y-105500000D02*
X159174999Y-104554999D01*
X159174999Y-104554999D02*
X159174999Y-103770191D01*
X159174999Y-103770191D02*
X157212500Y-101807692D01*
D32*
X111750000Y-46750000D02*
X111750000Y-51012226D01*
X110750000Y-45750000D02*
X111750000Y-46750000D01*
X111686490Y-51075736D02*
X111686490Y-51500000D01*
X111750000Y-51012226D02*
X111686490Y-51075736D01*
X110000000Y-44936490D02*
X109813510Y-44750000D01*
X110000000Y-51250000D02*
X110000000Y-44936490D01*
X109250000Y-46750000D02*
X109250000Y-58250000D01*
X106075944Y-60838100D02*
X106117830Y-60890623D01*
X109250000Y-58250000D02*
X107000000Y-60500000D01*
X105944157Y-62424640D02*
X105973303Y-62485167D01*
X107000000Y-60500000D02*
X106947477Y-60541885D01*
X105227417Y-61686628D02*
X105269303Y-61739151D01*
X106698277Y-61989740D02*
X106637750Y-62018888D01*
X106947477Y-60541885D02*
X106886951Y-60571032D01*
X105849749Y-62838268D02*
X105789222Y-62867416D01*
X106637750Y-62018888D02*
X106572257Y-62033836D01*
X106170352Y-60424474D02*
X106117830Y-60466359D01*
X106117830Y-60890623D02*
X106750798Y-61523590D01*
X105944156Y-62743860D02*
X105902271Y-62796382D01*
X106886951Y-60571032D02*
X106821457Y-60585981D01*
X106792685Y-61576112D02*
X106821831Y-61636639D01*
X105302946Y-62621321D02*
X105250422Y-62579436D01*
X106821457Y-60585981D02*
X106754278Y-60585981D01*
X106489571Y-60424474D02*
X106429046Y-60395326D01*
X106688784Y-60571032D02*
X106628258Y-60541885D01*
X106542094Y-60466359D02*
X106489571Y-60424474D01*
X106575735Y-60500000D02*
X106542094Y-60466359D01*
X106754278Y-60585981D02*
X106688784Y-60571032D01*
X105321825Y-61273002D02*
X105269303Y-61314887D01*
X106628258Y-60541885D02*
X106575735Y-60500000D01*
X106429046Y-60395326D02*
X106363551Y-60380377D01*
X105269303Y-61314887D02*
X105227417Y-61367409D01*
X106363551Y-60380377D02*
X106296373Y-60380377D01*
X106117830Y-60466359D02*
X106075944Y-60518881D01*
X105198270Y-61626102D02*
X105227417Y-61686628D01*
X106296373Y-60380377D02*
X106230878Y-60395326D01*
X106439584Y-62018887D02*
X106379057Y-61989741D01*
X106230878Y-60395326D02*
X106170352Y-60424474D01*
X105988252Y-62617840D02*
X105973304Y-62683333D01*
X106075944Y-60518881D02*
X106046797Y-60579407D01*
X105269303Y-61739151D02*
X105902270Y-62372118D01*
X106750798Y-61523590D02*
X106792685Y-61576112D01*
X105478007Y-62796382D02*
X105302946Y-62621321D01*
X106046797Y-60579407D02*
X106031848Y-60644901D01*
X106046797Y-60777574D02*
X106075944Y-60838100D01*
X105591056Y-62867415D02*
X105530529Y-62838269D01*
X105530529Y-62838269D02*
X105478007Y-62796382D01*
X106031848Y-60644901D02*
X106031848Y-60712080D01*
X105789222Y-62867416D02*
X105723729Y-62882364D01*
X106031848Y-60712080D02*
X106046797Y-60777574D01*
X105183321Y-61493429D02*
X105183321Y-61560608D01*
X103555111Y-63944889D02*
X97799999Y-69700001D01*
X105641044Y-61273002D02*
X105580519Y-61243854D01*
X106821831Y-61636639D02*
X106836781Y-61702132D01*
X105183321Y-61560608D02*
X105198270Y-61626102D01*
X105656549Y-62882365D02*
X105591056Y-62867415D01*
X106836781Y-61702132D02*
X106836780Y-61769312D01*
X106379057Y-61989741D02*
X106326535Y-61947854D01*
X106836780Y-61769312D02*
X106821832Y-61834805D01*
X106821832Y-61834805D02*
X106792684Y-61895332D01*
X105382351Y-61243854D02*
X105321825Y-61273002D01*
X106792684Y-61895332D02*
X106750799Y-61947854D01*
X106750799Y-61947854D02*
X106698277Y-61989740D01*
X106572257Y-62033836D02*
X106505077Y-62033837D01*
X106505077Y-62033837D02*
X106439584Y-62018887D01*
X106326535Y-61947854D02*
X105693567Y-61314887D01*
X105693567Y-61314887D02*
X105641044Y-61273002D01*
X105723729Y-62882364D02*
X105656549Y-62882365D01*
X97799999Y-69700001D02*
X97500000Y-70000000D01*
X105580519Y-61243854D02*
X105515024Y-61228905D01*
X105515024Y-61228905D02*
X105447845Y-61228905D01*
X105447845Y-61228905D02*
X105382351Y-61243854D01*
X105988253Y-62550660D02*
X105988252Y-62617840D01*
X105227417Y-61367409D02*
X105198270Y-61427935D01*
X105198270Y-61427935D02*
X105183321Y-61493429D01*
X105902270Y-62372118D02*
X105944157Y-62424640D01*
X105973303Y-62485167D02*
X105988253Y-62550660D01*
X105973304Y-62683333D02*
X105944156Y-62743860D01*
X105902271Y-62796382D02*
X105849749Y-62838268D01*
X105250422Y-62579436D02*
X105189897Y-62550288D01*
X105189897Y-62550288D02*
X105124402Y-62535340D01*
X105124402Y-62535340D02*
X105057224Y-62535339D01*
X104991729Y-62550289D02*
X104931204Y-62579435D01*
X105057224Y-62535339D02*
X104991729Y-62550289D01*
X104931204Y-62579435D02*
X104878680Y-62621322D01*
X104878680Y-62621322D02*
X103555111Y-63944889D01*
X85750000Y-80150000D02*
X97500000Y-68400000D01*
X98543432Y-66049322D02*
X98595955Y-66007437D01*
X98383943Y-68529823D02*
X98436465Y-68487937D01*
X98436465Y-68487937D02*
X98478350Y-68435414D01*
X101053079Y-65829307D02*
X101068028Y-65763813D01*
X99356025Y-67526361D02*
X99370974Y-67460867D01*
X97871741Y-68358114D02*
X97924264Y-68400000D01*
X97500000Y-68400000D02*
X97552522Y-68358114D01*
X100670831Y-66013389D02*
X100736325Y-66028338D01*
X98064724Y-68529823D02*
X98125250Y-68558970D01*
X99505007Y-65129764D02*
X99570502Y-65114814D01*
X99284993Y-67215145D02*
X98543432Y-66473586D01*
X97552522Y-68358114D02*
X97613048Y-68328967D01*
X99391959Y-65625059D02*
X99350073Y-65572538D01*
X100852223Y-65058411D02*
X100894109Y-65005889D01*
X98595955Y-66007437D02*
X98656480Y-65978291D01*
X97608924Y-67076392D02*
X97623871Y-67010898D01*
X99171944Y-67710443D02*
X99232470Y-67681296D01*
X97613048Y-68328967D02*
X97678542Y-68314018D01*
X99350073Y-65572538D02*
X99320925Y-65512012D01*
X99320925Y-65512012D02*
X99305978Y-65446516D01*
X99106450Y-67725392D02*
X99171944Y-67710443D01*
X97678542Y-68314018D02*
X97745721Y-68314018D01*
X98125250Y-68558970D02*
X98190744Y-68573919D01*
X97811215Y-68328967D02*
X97871741Y-68358114D01*
X97807953Y-66826818D02*
X97873448Y-66811868D01*
X97608924Y-67143570D02*
X97608924Y-67076392D01*
X101053079Y-65631140D02*
X101023932Y-65570614D01*
X98190744Y-68573919D02*
X98257923Y-68573919D01*
X98012201Y-68487937D02*
X98064724Y-68529823D01*
X97745721Y-68314018D02*
X97811215Y-68328967D01*
X98522446Y-68242215D02*
X98507497Y-68176721D01*
X98457451Y-66295043D02*
X98457451Y-66227865D01*
X97924264Y-68400000D02*
X98012201Y-68487937D01*
X97653019Y-67269592D02*
X97623871Y-67209066D01*
X99284993Y-67639410D02*
X99326878Y-67586887D01*
X98257923Y-68573919D02*
X98323417Y-68558970D01*
X101068028Y-65763813D02*
X101068028Y-65696634D01*
X98478350Y-68435414D02*
X98507497Y-68374888D01*
X99709255Y-66790883D02*
X99761778Y-66832769D01*
X99444482Y-65158910D02*
X99505007Y-65129764D01*
X100929524Y-65984242D02*
X100982047Y-65942356D01*
X100894109Y-65005889D02*
X101505661Y-64394339D01*
X98323417Y-68558970D02*
X98383943Y-68529823D01*
X98501546Y-66421065D02*
X98472398Y-66360539D01*
X97623871Y-67209066D02*
X97608924Y-67143570D01*
X98507497Y-68374888D02*
X98522446Y-68309394D01*
X97653020Y-66950372D02*
X97694905Y-66897849D01*
X97940626Y-66811869D02*
X98006121Y-66826817D01*
X98436465Y-68063672D02*
X97694905Y-67322113D01*
X100204552Y-66677834D02*
X100219501Y-66612340D01*
X98522446Y-68309394D02*
X98522446Y-68242215D01*
X98915173Y-66007438D02*
X98967696Y-66049323D01*
X99370974Y-67460867D02*
X99370974Y-67393688D01*
X98507497Y-68176721D02*
X98478350Y-68116195D01*
X98478350Y-68116195D02*
X98436465Y-68063672D01*
X97694905Y-67322113D02*
X97653019Y-67269592D01*
X97623871Y-67010898D02*
X97653020Y-66950372D01*
X98721975Y-65963341D02*
X98789153Y-65963342D01*
X100133520Y-66790883D02*
X100175405Y-66738360D01*
X100736325Y-66028338D02*
X100803504Y-66028338D01*
X98860728Y-67639410D02*
X98913251Y-67681296D01*
X98913251Y-67681296D02*
X98973777Y-67710443D01*
X97694905Y-66897849D02*
X97747428Y-66855964D01*
X100852223Y-65377630D02*
X100823076Y-65317104D01*
X97747428Y-66855964D02*
X97807953Y-66826818D01*
X99391959Y-65200795D02*
X99444482Y-65158910D01*
X100982047Y-65942356D02*
X101023932Y-65889833D01*
X108686490Y-45427250D02*
X108686490Y-45002986D01*
X97873448Y-66811868D02*
X97940626Y-66811869D01*
X99326878Y-67267668D02*
X99284993Y-67215145D01*
X98006121Y-66826817D02*
X98066646Y-66855965D01*
X98066646Y-66855965D02*
X98119169Y-66897850D01*
X98119169Y-66897850D02*
X98860728Y-67639410D01*
X98973777Y-67710443D02*
X99039271Y-67725392D01*
X98854648Y-65978290D02*
X98915173Y-66007438D01*
X99350074Y-65253318D02*
X99391959Y-65200795D01*
X99039271Y-67725392D02*
X99106450Y-67725392D01*
X99954977Y-66876865D02*
X100020471Y-66861916D01*
X99232470Y-67681296D02*
X99284993Y-67639410D01*
X99326878Y-67586887D02*
X99356025Y-67526361D01*
X99637680Y-65114815D02*
X99703175Y-65129763D01*
X99370974Y-67393688D02*
X99356025Y-67328194D01*
X99356025Y-67328194D02*
X99326878Y-67267668D01*
X99761778Y-66832769D02*
X99822304Y-66861916D01*
X100808127Y-65251610D02*
X100808127Y-65184431D01*
X98543432Y-66473586D02*
X98501546Y-66421065D01*
X98472398Y-66360539D02*
X98457451Y-66295043D01*
X100808127Y-65184431D02*
X100823076Y-65118937D01*
X98457451Y-66227865D02*
X98472398Y-66162371D01*
X98472398Y-66162371D02*
X98501547Y-66101845D01*
X98501547Y-66101845D02*
X98543432Y-66049322D01*
X98656480Y-65978291D02*
X98721975Y-65963341D01*
X101068028Y-65696634D02*
X101053079Y-65631140D01*
X101505661Y-64394339D02*
X108686490Y-57213510D01*
X98789153Y-65963342D02*
X98854648Y-65978290D01*
X98967696Y-66049323D02*
X99709255Y-66790883D01*
X99822304Y-66861916D02*
X99887798Y-66876865D01*
X99887798Y-66876865D02*
X99954977Y-66876865D01*
X99816223Y-65200796D02*
X100557782Y-65942356D01*
X100020471Y-66861916D02*
X100080997Y-66832769D01*
X100080997Y-66832769D02*
X100133520Y-66790883D01*
X100175405Y-66738360D02*
X100204552Y-66677834D01*
X100219501Y-66612340D02*
X100219501Y-66545161D01*
X100219501Y-66545161D02*
X100204552Y-66479667D01*
X100204552Y-66479667D02*
X100175405Y-66419141D01*
X100175405Y-66419141D02*
X100133520Y-66366618D01*
X100133520Y-66366618D02*
X99391959Y-65625059D01*
X99305978Y-65446516D02*
X99305978Y-65379338D01*
X99305978Y-65379338D02*
X99320925Y-65313844D01*
X99320925Y-65313844D02*
X99350074Y-65253318D01*
X99570502Y-65114814D02*
X99637680Y-65114815D01*
X99703175Y-65129763D02*
X99763700Y-65158911D01*
X99763700Y-65158911D02*
X99816223Y-65200796D01*
X100557782Y-65942356D02*
X100610305Y-65984242D01*
X100823076Y-65317104D02*
X100808127Y-65251610D01*
X100610305Y-65984242D02*
X100670831Y-66013389D01*
X100803504Y-66028338D02*
X100868998Y-66013389D01*
X100868998Y-66013389D02*
X100929524Y-65984242D01*
X101023932Y-65889833D02*
X101053079Y-65829307D01*
X101023932Y-65570614D02*
X100982047Y-65518091D01*
X100982047Y-65518091D02*
X100894109Y-65430153D01*
X100894109Y-65430153D02*
X100852223Y-65377630D01*
X100823076Y-65118937D02*
X100852223Y-65058411D01*
X108686490Y-57213510D02*
X108686490Y-45427250D01*
D30*
X152470000Y-100640000D02*
X152500000Y-100670000D01*
D34*
G36*
X95484369Y-25280126D02*
X95539685Y-25413669D01*
X95585456Y-25524171D01*
X96235775Y-26497441D01*
X96422559Y-26684225D01*
X97395828Y-27334544D01*
X97467308Y-27364151D01*
X97639874Y-27435631D01*
X98787924Y-27663992D01*
X98854604Y-27663992D01*
X98920000Y-27677000D01*
X110720000Y-27677000D01*
X110785396Y-27663992D01*
X110852076Y-27663992D01*
X112000126Y-27435631D01*
X112154022Y-27371885D01*
X112244171Y-27334544D01*
X113217441Y-26684225D01*
X113404225Y-26497441D01*
X114054544Y-25524172D01*
X114086095Y-25448000D01*
X114155631Y-25280126D01*
X114275600Y-24677000D01*
X172243000Y-24677000D01*
X172243000Y-32000000D01*
X172256008Y-32065396D01*
X172256008Y-32132076D01*
X172332128Y-32514758D01*
X172433215Y-32758804D01*
X172649988Y-33083228D01*
X172836772Y-33270012D01*
X173161196Y-33486785D01*
X173243000Y-33520669D01*
X173243000Y-42780717D01*
X172907138Y-41967868D01*
X171972055Y-41031151D01*
X170749685Y-40523579D01*
X169426122Y-40522424D01*
X168202868Y-41027862D01*
X167266151Y-41962945D01*
X166758579Y-43185315D01*
X166757424Y-44508878D01*
X167262862Y-45732132D01*
X168197945Y-46668849D01*
X169420315Y-47176421D01*
X170743878Y-47177576D01*
X171967132Y-46672138D01*
X172903849Y-45737055D01*
X173243000Y-44920288D01*
X173243000Y-50501564D01*
X173084159Y-50395430D01*
X172518936Y-50283000D01*
X172461064Y-50283000D01*
X172044594Y-50365841D01*
X171904244Y-50272062D01*
X171640001Y-50219501D01*
X168730000Y-50219501D01*
X168679726Y-50229501D01*
X159810899Y-50229501D01*
X158938257Y-49356860D01*
X158065069Y-48483672D01*
X157841055Y-48333990D01*
X157576812Y-48281429D01*
X156987500Y-48281429D01*
X155616029Y-46909959D01*
X155666425Y-46910003D01*
X156007259Y-46769173D01*
X156255307Y-46521557D01*
X156329219Y-46700438D01*
X156751735Y-47123692D01*
X157304061Y-47353038D01*
X157902111Y-47353560D01*
X158454836Y-47125179D01*
X158878090Y-46702663D01*
X159107436Y-46150337D01*
X159107958Y-45552287D01*
X158879577Y-44999562D01*
X158457061Y-44576308D01*
X157904735Y-44346962D01*
X157306685Y-44346440D01*
X156753960Y-44574821D01*
X156330706Y-44997337D01*
X156177414Y-45366505D01*
X156008631Y-45197428D01*
X155792260Y-45107583D01*
X155703489Y-44892741D01*
X155442947Y-44631744D01*
X155102359Y-44490319D01*
X154733575Y-44489997D01*
X154392741Y-44630827D01*
X154131744Y-44891369D01*
X153990319Y-45231957D01*
X153989997Y-45600741D01*
X154130827Y-45941575D01*
X154391369Y-46202572D01*
X154607740Y-46292417D01*
X154696511Y-46507259D01*
X154803565Y-46614500D01*
X151999997Y-46614500D01*
X151583738Y-46198242D01*
X151359724Y-46048560D01*
X151095481Y-45995999D01*
X146730721Y-45995999D01*
X146659724Y-45948560D01*
X146626973Y-45942045D01*
X146627161Y-45726417D01*
X146537693Y-45509888D01*
X146626839Y-45295201D01*
X146627161Y-44926417D01*
X146486331Y-44585583D01*
X146225789Y-44324586D01*
X145885201Y-44183161D01*
X145516417Y-44182839D01*
X145181101Y-44321389D01*
X145088698Y-44228986D01*
X145088698Y-42106014D01*
X145387389Y-41807324D01*
X145554799Y-41876839D01*
X145923583Y-41877161D01*
X146264417Y-41736331D01*
X146525414Y-41475789D01*
X146598676Y-41299354D01*
X149267068Y-41299354D01*
X149407898Y-41640188D01*
X149668440Y-41901185D01*
X150009028Y-42042610D01*
X150377812Y-42042932D01*
X150718646Y-41902102D01*
X150979643Y-41641560D01*
X151065329Y-41435206D01*
X151270188Y-41350560D01*
X151531185Y-41090018D01*
X151583003Y-40965226D01*
X151582839Y-41153583D01*
X151668165Y-41360087D01*
X151583161Y-41564799D01*
X151582839Y-41933583D01*
X151723669Y-42274417D01*
X151984211Y-42535414D01*
X152324799Y-42676839D01*
X152693583Y-42677161D01*
X153034417Y-42536331D01*
X153295414Y-42275789D01*
X153296330Y-42273583D01*
X156272839Y-42273583D01*
X156413669Y-42614417D01*
X156674211Y-42875414D01*
X157014799Y-43016839D01*
X157383583Y-43017161D01*
X157724417Y-42876331D01*
X157985414Y-42615789D01*
X158126839Y-42275201D01*
X158127161Y-41906417D01*
X157986331Y-41565583D01*
X157725789Y-41304586D01*
X157385201Y-41163161D01*
X157016417Y-41162839D01*
X156675583Y-41303669D01*
X156414586Y-41564211D01*
X156273161Y-41904799D01*
X156272839Y-42273583D01*
X153296330Y-42273583D01*
X153436839Y-41935201D01*
X153437161Y-41566417D01*
X153351835Y-41359913D01*
X153436839Y-41155201D01*
X153437161Y-40786417D01*
X153296331Y-40445583D01*
X153183702Y-40332757D01*
X153186839Y-40325201D01*
X153187161Y-39956417D01*
X153101835Y-39749913D01*
X153186839Y-39545201D01*
X153187161Y-39176417D01*
X153046331Y-38835583D01*
X152785789Y-38574586D01*
X152445201Y-38433161D01*
X152076417Y-38432839D01*
X151735583Y-38573669D01*
X151474586Y-38834211D01*
X151333161Y-39174799D01*
X151332839Y-39543583D01*
X151418165Y-39750087D01*
X151366673Y-39874094D01*
X151271560Y-39778815D01*
X150930972Y-39637390D01*
X150562188Y-39637068D01*
X150221354Y-39777898D01*
X149960357Y-40038440D01*
X149874671Y-40244794D01*
X149669812Y-40329440D01*
X149408815Y-40589982D01*
X149267390Y-40930570D01*
X149267068Y-41299354D01*
X146598676Y-41299354D01*
X146666839Y-41135201D01*
X146667161Y-40766417D01*
X146577693Y-40549888D01*
X146666839Y-40335201D01*
X146667161Y-39966417D01*
X146526331Y-39625583D01*
X146265789Y-39364586D01*
X145925201Y-39223161D01*
X145556417Y-39222839D01*
X145215583Y-39363669D01*
X144954586Y-39624211D01*
X144924019Y-39697824D01*
X144716112Y-39836744D01*
X143446743Y-41106113D01*
X143297061Y-41330127D01*
X143244500Y-41594370D01*
X143244500Y-44688198D01*
X143297061Y-44952441D01*
X143446743Y-45176455D01*
X144166287Y-45895999D01*
X141668136Y-45895999D01*
X141559724Y-45823560D01*
X141295481Y-45770999D01*
X140183501Y-45770999D01*
X139919258Y-45823560D01*
X139695244Y-45973241D01*
X139290529Y-46377956D01*
X139156417Y-46377839D01*
X138815583Y-46518669D01*
X138554586Y-46779211D01*
X138413161Y-47119799D01*
X138412839Y-47488583D01*
X138553669Y-47829417D01*
X138814211Y-48090414D01*
X139154799Y-48231839D01*
X139523583Y-48232161D01*
X139864417Y-48091331D01*
X140125414Y-47830789D01*
X140266839Y-47490201D01*
X140266957Y-47354557D01*
X140469516Y-47151999D01*
X141047826Y-47151999D01*
X141156238Y-47224438D01*
X141420481Y-47276999D01*
X146160241Y-47276999D01*
X146231238Y-47324438D01*
X146495481Y-47376999D01*
X150809467Y-47376999D01*
X151225725Y-47793258D01*
X151449739Y-47942939D01*
X151713982Y-47995500D01*
X154748542Y-47995500D01*
X155702541Y-48949500D01*
X140880555Y-48949500D01*
X140795789Y-48864586D01*
X140455201Y-48723161D01*
X140086417Y-48722839D01*
X139745583Y-48863669D01*
X139484586Y-49124211D01*
X139343161Y-49464799D01*
X139342839Y-49833583D01*
X139483669Y-50174417D01*
X139744211Y-50435414D01*
X140084799Y-50576839D01*
X140453583Y-50577161D01*
X140794417Y-50436331D01*
X140900433Y-50330500D01*
X156369462Y-50330500D01*
X156464211Y-50425414D01*
X156804799Y-50566839D01*
X157009413Y-50567018D01*
X157025756Y-50577938D01*
X157289999Y-50630499D01*
X157796408Y-50630499D01*
X158901175Y-51735268D01*
X159125190Y-51884950D01*
X159389433Y-51937511D01*
X166860997Y-51937511D01*
X169711742Y-54788257D01*
X169826930Y-54865223D01*
X169935757Y-54937939D01*
X170200000Y-54990500D01*
X171180201Y-54990500D01*
X171416667Y-55344397D01*
X171895841Y-55664570D01*
X172461064Y-55777000D01*
X172518936Y-55777000D01*
X173084159Y-55664570D01*
X173243000Y-55558436D01*
X173243000Y-66444400D01*
X173022557Y-66488249D01*
X172885161Y-66545161D01*
X172778512Y-66589336D01*
X172129665Y-67022881D01*
X171942881Y-67209665D01*
X171942881Y-67209666D01*
X171509336Y-67858512D01*
X171448701Y-68004899D01*
X171408249Y-68102557D01*
X171256008Y-68867924D01*
X171256008Y-68934604D01*
X171243000Y-69000000D01*
X171243000Y-75000000D01*
X171256008Y-75065396D01*
X171256008Y-75132076D01*
X171408249Y-75897443D01*
X171430019Y-75950000D01*
X171509336Y-76141488D01*
X171942880Y-76790332D01*
X171942881Y-76790335D01*
X172129665Y-76977119D01*
X172778512Y-77410664D01*
X172879599Y-77452535D01*
X173022557Y-77511751D01*
X173243000Y-77555600D01*
X173243000Y-89780717D01*
X172907138Y-88967868D01*
X171972055Y-88031151D01*
X170749685Y-87523579D01*
X169426122Y-87522424D01*
X168202868Y-88027862D01*
X167266151Y-88962945D01*
X166758579Y-90185315D01*
X166757424Y-91508878D01*
X167262862Y-92732132D01*
X168197945Y-93668849D01*
X169420315Y-94176421D01*
X170743878Y-94177576D01*
X171967132Y-93672138D01*
X172903849Y-92737055D01*
X173243000Y-91920288D01*
X173243000Y-106444400D01*
X173022557Y-106488249D01*
X172879599Y-106547465D01*
X172778512Y-106589336D01*
X172129665Y-107022881D01*
X171942881Y-107209665D01*
X171942881Y-107209666D01*
X171509336Y-107858512D01*
X171437857Y-108031078D01*
X171408249Y-108102557D01*
X171256008Y-108867924D01*
X171256008Y-108934604D01*
X171243000Y-109000000D01*
X171243000Y-119323000D01*
X149475600Y-119323000D01*
X149355631Y-118719874D01*
X149254544Y-118475829D01*
X149254544Y-118475828D01*
X148604225Y-117502559D01*
X148417441Y-117315775D01*
X147444171Y-116665456D01*
X147354022Y-116628115D01*
X147200126Y-116564369D01*
X146179009Y-116361257D01*
X146510130Y-116030135D01*
X146510133Y-116030133D01*
X146700242Y-115745613D01*
X146715010Y-115671370D01*
X146767001Y-115410000D01*
X146767000Y-115409995D01*
X146767000Y-114835985D01*
X147707610Y-114835985D01*
X148049734Y-115663989D01*
X148682679Y-116298039D01*
X149510084Y-116641608D01*
X150405985Y-116642390D01*
X151233989Y-116300266D01*
X151868039Y-115667321D01*
X152211608Y-114839916D01*
X152211611Y-114835985D01*
X159137610Y-114835985D01*
X159479734Y-115663989D01*
X160112679Y-116298039D01*
X160940084Y-116641608D01*
X161835985Y-116642390D01*
X162663989Y-116300266D01*
X163298039Y-115667321D01*
X163641608Y-114839916D01*
X163641642Y-114800000D01*
X165043000Y-114800000D01*
X165216326Y-115671370D01*
X165709918Y-116410082D01*
X166448630Y-116903674D01*
X167320000Y-117077000D01*
X168191370Y-116903674D01*
X168930082Y-116410082D01*
X169423674Y-115671370D01*
X169597000Y-114800000D01*
X169423674Y-113928630D01*
X168930082Y-113189918D01*
X168191370Y-112696326D01*
X167320000Y-112523000D01*
X166448630Y-112696326D01*
X165709918Y-113189918D01*
X165216326Y-113928630D01*
X165043000Y-114800000D01*
X163641642Y-114800000D01*
X163642390Y-113944015D01*
X163300266Y-113116011D01*
X162667321Y-112481961D01*
X161839916Y-112138392D01*
X160944015Y-112137610D01*
X160116011Y-112479734D01*
X159481961Y-113112679D01*
X159138392Y-113940084D01*
X159137610Y-114835985D01*
X152211611Y-114835985D01*
X152212390Y-113944015D01*
X151870266Y-113116011D01*
X151237321Y-112481961D01*
X150409916Y-112138392D01*
X149514015Y-112137610D01*
X148686011Y-112479734D01*
X148051961Y-113112679D01*
X147708392Y-113940084D01*
X147707610Y-114835985D01*
X146767000Y-114835985D01*
X146767000Y-111820005D01*
X146767001Y-111820000D01*
X146700242Y-111484387D01*
X146667243Y-111435000D01*
X146510133Y-111199867D01*
X146510130Y-111199865D01*
X146175133Y-110864867D01*
X145890613Y-110674758D01*
X145555000Y-110608000D01*
X142985226Y-110608000D01*
X142865201Y-110558161D01*
X142496417Y-110557839D01*
X142155583Y-110698669D01*
X141894586Y-110959211D01*
X141753161Y-111299799D01*
X141752839Y-111668583D01*
X141893669Y-112009417D01*
X142154211Y-112270414D01*
X142494799Y-112411839D01*
X142863583Y-112412161D01*
X142984982Y-112362000D01*
X145013000Y-112362000D01*
X145013000Y-115046735D01*
X144886734Y-115173000D01*
X143618360Y-115173000D01*
X143625753Y-115168243D01*
X143768917Y-114958717D01*
X143819283Y-114710000D01*
X143819283Y-114210000D01*
X143775563Y-113977648D01*
X143638243Y-113764247D01*
X143428717Y-113621083D01*
X143180000Y-113570717D01*
X143005646Y-113570717D01*
X142915201Y-113533161D01*
X142546417Y-113532839D01*
X142454745Y-113570717D01*
X142280000Y-113570717D01*
X142047648Y-113614437D01*
X141834247Y-113751757D01*
X141691083Y-113961283D01*
X141640717Y-114210000D01*
X141640717Y-114710000D01*
X141684437Y-114942352D01*
X141821757Y-115155753D01*
X141846999Y-115173000D01*
X140643360Y-115173000D01*
X140650753Y-115168243D01*
X140793917Y-114958717D01*
X140844283Y-114710000D01*
X140844283Y-114210000D01*
X140800563Y-113977648D01*
X140663243Y-113764247D01*
X140453717Y-113621083D01*
X140205000Y-113570717D01*
X140030646Y-113570717D01*
X139940201Y-113533161D01*
X139571417Y-113532839D01*
X139479745Y-113570717D01*
X139305000Y-113570717D01*
X139072648Y-113614437D01*
X138859247Y-113751757D01*
X138716083Y-113961283D01*
X138665717Y-114210000D01*
X138665717Y-114710000D01*
X138709437Y-114942352D01*
X138846757Y-115155753D01*
X138871999Y-115173000D01*
X138062956Y-115173000D01*
X138225753Y-115068243D01*
X138368917Y-114858717D01*
X138419283Y-114610000D01*
X138419283Y-114110000D01*
X138375563Y-113877648D01*
X138238243Y-113664247D01*
X138028717Y-113521083D01*
X137780000Y-113470717D01*
X137605646Y-113470717D01*
X137515201Y-113433161D01*
X137146417Y-113432839D01*
X137054745Y-113470717D01*
X136880000Y-113470717D01*
X136647648Y-113514437D01*
X136434247Y-113651757D01*
X136291083Y-113861283D01*
X136240717Y-114110000D01*
X136240717Y-114610000D01*
X136284437Y-114842352D01*
X136421757Y-115055753D01*
X136593352Y-115173000D01*
X127823266Y-115173000D01*
X127072000Y-114421734D01*
X127072000Y-111110000D01*
X133790717Y-111110000D01*
X133790717Y-111710000D01*
X133834437Y-111942352D01*
X133971757Y-112155753D01*
X134181283Y-112298917D01*
X134430000Y-112349283D01*
X134880000Y-112349283D01*
X135112352Y-112305563D01*
X135325753Y-112168243D01*
X135330019Y-112162000D01*
X136495899Y-112162000D01*
X136554211Y-112220414D01*
X136894799Y-112361839D01*
X137263583Y-112362161D01*
X137604417Y-112221331D01*
X137865414Y-111960789D01*
X138006839Y-111620201D01*
X138007161Y-111251417D01*
X137866331Y-110910583D01*
X137605789Y-110649586D01*
X137265201Y-110508161D01*
X136896417Y-110507839D01*
X136555583Y-110648669D01*
X136546236Y-110658000D01*
X135329100Y-110658000D01*
X135128717Y-110521083D01*
X134880000Y-110470717D01*
X134430000Y-110470717D01*
X134197648Y-110514437D01*
X133984247Y-110651757D01*
X133841083Y-110861283D01*
X133790717Y-111110000D01*
X127072000Y-111110000D01*
X127072000Y-111020226D01*
X127121839Y-110900201D01*
X127122161Y-110531417D01*
X126981331Y-110190583D01*
X126720789Y-109929586D01*
X126380201Y-109788161D01*
X126011417Y-109787839D01*
X125670583Y-109928669D01*
X125409586Y-110189211D01*
X125268161Y-110529799D01*
X125267839Y-110898583D01*
X125318000Y-111019982D01*
X125318000Y-112488041D01*
X125086417Y-112487839D01*
X124888220Y-112569732D01*
X121347000Y-109028512D01*
X121347000Y-108149145D01*
X121380414Y-108115789D01*
X121521839Y-107775201D01*
X121522161Y-107406417D01*
X121381331Y-107065583D01*
X121120789Y-106804586D01*
X120780201Y-106663161D01*
X120411417Y-106662839D01*
X120070583Y-106803669D01*
X119809586Y-107064211D01*
X119668161Y-107404799D01*
X119667839Y-107773583D01*
X119808669Y-108114417D01*
X119843000Y-108148808D01*
X119843000Y-109340000D01*
X119900243Y-109627778D01*
X120063256Y-109871744D01*
X124138256Y-113946744D01*
X124382222Y-114109757D01*
X124670000Y-114167000D01*
X124710855Y-114167000D01*
X124744211Y-114200414D01*
X125084799Y-114341839D01*
X125318000Y-114342043D01*
X125318000Y-114785000D01*
X125384758Y-115120613D01*
X125574867Y-115405133D01*
X126492734Y-116323000D01*
X122120000Y-116323000D01*
X122054604Y-116336008D01*
X120839874Y-116564369D01*
X120696205Y-116623879D01*
X120595828Y-116665456D01*
X119622559Y-117315775D01*
X119435775Y-117502559D01*
X118785456Y-118475829D01*
X118757769Y-118542671D01*
X118684369Y-118719874D01*
X118564400Y-119323000D01*
X84597000Y-119323000D01*
X84597000Y-114800000D01*
X85043000Y-114800000D01*
X85216326Y-115671370D01*
X85709918Y-116410082D01*
X86448630Y-116903674D01*
X87320000Y-117077000D01*
X88191370Y-116903674D01*
X88930082Y-116410082D01*
X89423674Y-115671370D01*
X89438425Y-115597211D01*
X105747718Y-115597211D01*
X105994892Y-116195418D01*
X106452175Y-116653499D01*
X107049950Y-116901717D01*
X107697211Y-116902282D01*
X108295418Y-116655108D01*
X108753499Y-116197825D01*
X109001717Y-115600050D01*
X109002282Y-114952789D01*
X108755108Y-114354582D01*
X108297825Y-113896501D01*
X107700050Y-113648283D01*
X107052789Y-113647718D01*
X106454582Y-113894892D01*
X105996501Y-114352175D01*
X105748283Y-114949950D01*
X105747718Y-115597211D01*
X89438425Y-115597211D01*
X89597000Y-114800000D01*
X89423674Y-113928630D01*
X88930082Y-113189918D01*
X88191370Y-112696326D01*
X87320000Y-112523000D01*
X86448630Y-112696326D01*
X85709918Y-113189918D01*
X85216326Y-113928630D01*
X85043000Y-114800000D01*
X84597000Y-114800000D01*
X84597000Y-104000000D01*
X84583992Y-103934604D01*
X84583992Y-103867923D01*
X84431751Y-103102557D01*
X84361024Y-102931808D01*
X84330664Y-102858512D01*
X83897119Y-102209665D01*
X83710335Y-102022881D01*
X83710332Y-102022880D01*
X83204657Y-101684998D01*
X130828000Y-101684998D01*
X130828000Y-106710000D01*
X130885243Y-106997778D01*
X131048256Y-107241744D01*
X133648256Y-109841744D01*
X133892222Y-110004757D01*
X133945800Y-110015414D01*
X133971757Y-110055753D01*
X134181283Y-110198917D01*
X134430000Y-110249283D01*
X134880000Y-110249283D01*
X135112352Y-110205563D01*
X135325753Y-110068243D01*
X135468917Y-109858717D01*
X135519283Y-109610000D01*
X135519283Y-109010000D01*
X135475563Y-108777648D01*
X135338243Y-108564247D01*
X135128717Y-108421083D01*
X134880000Y-108370717D01*
X134430000Y-108370717D01*
X134324126Y-108390638D01*
X132332000Y-106398512D01*
X132332000Y-102440001D01*
X132444799Y-102486839D01*
X132493393Y-102486881D01*
X135653000Y-105646488D01*
X135653000Y-106300855D01*
X135619586Y-106334211D01*
X135478161Y-106674799D01*
X135477839Y-107043583D01*
X135618669Y-107384417D01*
X135879211Y-107645414D01*
X136219799Y-107786839D01*
X136588583Y-107787161D01*
X136929417Y-107646331D01*
X137190414Y-107385789D01*
X137331839Y-107045201D01*
X137332161Y-106676417D01*
X137191331Y-106335583D01*
X137157000Y-106301192D01*
X137157000Y-105335000D01*
X137099757Y-105047222D01*
X137030508Y-104943583D01*
X138302839Y-104943583D01*
X138443669Y-105284417D01*
X138704211Y-105545414D01*
X139044799Y-105686839D01*
X139413583Y-105687161D01*
X139754417Y-105546331D01*
X140015414Y-105285789D01*
X140156839Y-104945201D01*
X140157161Y-104576417D01*
X140016331Y-104235583D01*
X139755789Y-103974586D01*
X139415201Y-103833161D01*
X139046417Y-103832839D01*
X138705583Y-103973669D01*
X138444586Y-104234211D01*
X138303161Y-104574799D01*
X138302839Y-104943583D01*
X137030508Y-104943583D01*
X136936744Y-104803256D01*
X133557120Y-101423632D01*
X133557161Y-101376417D01*
X133416331Y-101035583D01*
X133354671Y-100973815D01*
X134841498Y-99486989D01*
X135038583Y-99487161D01*
X135379417Y-99346331D01*
X135640414Y-99085789D01*
X135781839Y-98745201D01*
X135782161Y-98376417D01*
X135641331Y-98035583D01*
X135380789Y-97774586D01*
X135040201Y-97633161D01*
X134671417Y-97632839D01*
X134330583Y-97773669D01*
X134069586Y-98034211D01*
X134000201Y-98201308D01*
X131048256Y-101153254D01*
X130885243Y-101397220D01*
X130828000Y-101684998D01*
X83204657Y-101684998D01*
X83061488Y-101589336D01*
X82888922Y-101517857D01*
X82817443Y-101488249D01*
X82618278Y-101448633D01*
X82597000Y-100463728D01*
X82597000Y-97906981D01*
X82615841Y-97919570D01*
X83181064Y-98032000D01*
X83238936Y-98032000D01*
X83804159Y-97919570D01*
X84283333Y-97599397D01*
X84294227Y-97583092D01*
X84304437Y-97637352D01*
X84441757Y-97850753D01*
X84651283Y-97993917D01*
X84900000Y-98044283D01*
X86600000Y-98044283D01*
X86832352Y-98000563D01*
X87045753Y-97863243D01*
X87188917Y-97653717D01*
X87239283Y-97405000D01*
X87239283Y-96708583D01*
X107297839Y-96708583D01*
X107438669Y-97049417D01*
X107699211Y-97310414D01*
X108039799Y-97451839D01*
X108408583Y-97452161D01*
X108749417Y-97311331D01*
X109010414Y-97050789D01*
X109151839Y-96710201D01*
X109152161Y-96341417D01*
X109011331Y-96000583D01*
X108750789Y-95739586D01*
X108410201Y-95598161D01*
X108041417Y-95597839D01*
X107700583Y-95738669D01*
X107439586Y-95999211D01*
X107298161Y-96339799D01*
X107297839Y-96708583D01*
X87239283Y-96708583D01*
X87239283Y-95705000D01*
X87195563Y-95472648D01*
X87058243Y-95259247D01*
X86848717Y-95116083D01*
X86764131Y-95098954D01*
X86823333Y-95059397D01*
X87143506Y-94580223D01*
X87255936Y-94015000D01*
X87143506Y-93449777D01*
X86823333Y-92970603D01*
X86485693Y-92745000D01*
X86823333Y-92519397D01*
X87143506Y-92040223D01*
X87249197Y-91508878D01*
X90997424Y-91508878D01*
X91502862Y-92732132D01*
X92437945Y-93668849D01*
X93660315Y-94176421D01*
X94983878Y-94177576D01*
X96207132Y-93672138D01*
X97143849Y-92737055D01*
X97651421Y-91514685D01*
X97651468Y-91460490D01*
X110588909Y-91460490D01*
X110588909Y-92450000D01*
X110637017Y-92691856D01*
X110774018Y-92896891D01*
X110979053Y-93033892D01*
X111220909Y-93082000D01*
X112609364Y-93082000D01*
X112609364Y-96029091D01*
X112657472Y-96270947D01*
X112794473Y-96475982D01*
X112999508Y-96612983D01*
X113241364Y-96661091D01*
X114280455Y-96661091D01*
X114522311Y-96612983D01*
X114727346Y-96475982D01*
X114864347Y-96270947D01*
X114912455Y-96029091D01*
X114912455Y-93112766D01*
X115125555Y-93123812D01*
X115442542Y-93151165D01*
X115708297Y-93186467D01*
X115939670Y-93230459D01*
X116155921Y-93285043D01*
X116380302Y-93354605D01*
X117010395Y-93621865D01*
X117577151Y-93965711D01*
X118090001Y-94385442D01*
X118537134Y-94870369D01*
X118909659Y-95412488D01*
X119161017Y-95912401D01*
X119315673Y-96276294D01*
X119383535Y-96375867D01*
X119450430Y-96475982D01*
X119452883Y-96477621D01*
X119454548Y-96480064D01*
X119555291Y-96546048D01*
X119655465Y-96612983D01*
X119658366Y-96613560D01*
X119660833Y-96615176D01*
X119779074Y-96637570D01*
X119897321Y-96661091D01*
X120904762Y-96661091D01*
X121012167Y-96639727D01*
X121120399Y-96623165D01*
X121132611Y-96615769D01*
X121146618Y-96612983D01*
X121237666Y-96552146D01*
X121331328Y-96495423D01*
X121339782Y-96483914D01*
X121351653Y-96475982D01*
X121412490Y-96384934D01*
X121477314Y-96296686D01*
X121480719Y-96282822D01*
X121488654Y-96270947D01*
X121510019Y-96163537D01*
X121536136Y-96057210D01*
X121533976Y-96043096D01*
X121536762Y-96029091D01*
X121515398Y-95921687D01*
X121498836Y-95813453D01*
X121358463Y-95426730D01*
X121347845Y-95409197D01*
X121343455Y-95389176D01*
X120995987Y-94594493D01*
X120972154Y-94560287D01*
X120957986Y-94521077D01*
X120520096Y-93795661D01*
X120491457Y-93764261D01*
X120471826Y-93726572D01*
X119949052Y-93075519D01*
X119916156Y-93047929D01*
X119891382Y-93012861D01*
X119289266Y-92441263D01*
X119252918Y-92418320D01*
X119223615Y-92386868D01*
X118547696Y-91899821D01*
X118508903Y-91882121D01*
X118475931Y-91855083D01*
X117731751Y-91457679D01*
X117691627Y-91445524D01*
X117656003Y-91423427D01*
X116849101Y-91120761D01*
X116823986Y-91116643D01*
X116801357Y-91104988D01*
X116602460Y-91047951D01*
X116596260Y-91047436D01*
X116590676Y-91044695D01*
X116448492Y-91006882D01*
X116440986Y-91006404D01*
X116434156Y-91003248D01*
X116305301Y-90972189D01*
X116291234Y-90971624D01*
X116278210Y-90966285D01*
X116149585Y-90941194D01*
X116132641Y-90941257D01*
X116116646Y-90935668D01*
X115975155Y-90915758D01*
X115959974Y-90916617D01*
X115945399Y-90912288D01*
X115777944Y-90896772D01*
X115766835Y-90897931D01*
X115756021Y-90895124D01*
X115549502Y-90883214D01*
X115542343Y-90884214D01*
X115535310Y-90882556D01*
X115276632Y-90873466D01*
X115272395Y-90874155D01*
X115268204Y-90873226D01*
X114944267Y-90866168D01*
X114941939Y-90866579D01*
X114939628Y-90866084D01*
X114537337Y-90860273D01*
X114536196Y-90860483D01*
X114535060Y-90860244D01*
X114041316Y-90854891D01*
X114040901Y-90854969D01*
X114040489Y-90854883D01*
X113550457Y-90850211D01*
X113550394Y-90850223D01*
X113550332Y-90850210D01*
X111226809Y-90828518D01*
X111223858Y-90829076D01*
X111220909Y-90828490D01*
X111102780Y-90851987D01*
X110984514Y-90874366D01*
X110982001Y-90876012D01*
X110979053Y-90876598D01*
X110878928Y-90943500D01*
X110778209Y-91009447D01*
X110776516Y-91011930D01*
X110774018Y-91013599D01*
X110707129Y-91113704D01*
X110639300Y-91213194D01*
X110638686Y-91216136D01*
X110637017Y-91218634D01*
X110613525Y-91336739D01*
X110588937Y-91454590D01*
X110589495Y-91457541D01*
X110588909Y-91460490D01*
X97651468Y-91460490D01*
X97652576Y-90191122D01*
X97147138Y-88967868D01*
X96212055Y-88031151D01*
X94989685Y-87523579D01*
X93666122Y-87522424D01*
X92442868Y-88027862D01*
X91506151Y-88962945D01*
X90998579Y-90185315D01*
X90997424Y-91508878D01*
X87249197Y-91508878D01*
X87255936Y-91475000D01*
X87219456Y-91291601D01*
X87363544Y-91262940D01*
X87587558Y-91113258D01*
X99250816Y-79450000D01*
X109760717Y-79450000D01*
X109760717Y-85250000D01*
X109804437Y-85482352D01*
X109941757Y-85695753D01*
X110151283Y-85838917D01*
X110400000Y-85889283D01*
X116200000Y-85889283D01*
X116432352Y-85845563D01*
X116645753Y-85708243D01*
X116788917Y-85498717D01*
X116839283Y-85250000D01*
X116839283Y-79450000D01*
X116795563Y-79217648D01*
X116658243Y-79004247D01*
X116448717Y-78861083D01*
X116200000Y-78810717D01*
X110400000Y-78810717D01*
X110167648Y-78854437D01*
X109954247Y-78991757D01*
X109811083Y-79201283D01*
X109760717Y-79450000D01*
X99250816Y-79450000D01*
X106057233Y-72643583D01*
X143892839Y-72643583D01*
X144033669Y-72984417D01*
X144294211Y-73245414D01*
X144368001Y-73276054D01*
X144368001Y-80013167D01*
X144420486Y-80277027D01*
X144569951Y-80500717D01*
X146748000Y-82678766D01*
X146748000Y-88117308D01*
X146800485Y-88381168D01*
X146949950Y-88604858D01*
X153573000Y-95227908D01*
X153573000Y-99689642D01*
X153323566Y-99439772D01*
X152790088Y-99218253D01*
X152212447Y-99217749D01*
X151678583Y-99438337D01*
X151269772Y-99846434D01*
X151230176Y-99941792D01*
X151191663Y-99848583D01*
X150783566Y-99439772D01*
X150250088Y-99218253D01*
X149672447Y-99217749D01*
X149138583Y-99438337D01*
X148729772Y-99846434D01*
X148508253Y-100379912D01*
X148507749Y-100957553D01*
X148728337Y-101491417D01*
X149136434Y-101900228D01*
X149669912Y-102121747D01*
X150247553Y-102122251D01*
X150781417Y-101901663D01*
X151190228Y-101493566D01*
X151229824Y-101398208D01*
X151268337Y-101491417D01*
X151676434Y-101900228D01*
X152209912Y-102121747D01*
X152787553Y-102122251D01*
X152959213Y-102051323D01*
X152948000Y-102107692D01*
X152948000Y-104195033D01*
X152775104Y-104123240D01*
X152227299Y-104122762D01*
X151721011Y-104331956D01*
X151333317Y-104718974D01*
X151230005Y-104967776D01*
X151128044Y-104721011D01*
X150741026Y-104333317D01*
X150235104Y-104123240D01*
X149687299Y-104122762D01*
X149181011Y-104331956D01*
X148793317Y-104718974D01*
X148583240Y-105224896D01*
X148582762Y-105772701D01*
X148791956Y-106278989D01*
X149178974Y-106666683D01*
X149684896Y-106876760D01*
X150232701Y-106877238D01*
X150738989Y-106668044D01*
X151126683Y-106281026D01*
X151229995Y-106032224D01*
X151331956Y-106278989D01*
X151718974Y-106666683D01*
X152224896Y-106876760D01*
X152772701Y-106877238D01*
X153080500Y-106750058D01*
X153080500Y-106834980D01*
X152991011Y-106871956D01*
X152603317Y-107258974D01*
X152500005Y-107507776D01*
X152398044Y-107261011D01*
X152011026Y-106873317D01*
X151505104Y-106663240D01*
X150957299Y-106662762D01*
X150451011Y-106871956D01*
X150063317Y-107258974D01*
X149853240Y-107764896D01*
X149852762Y-108312701D01*
X150061956Y-108818989D01*
X150448974Y-109206683D01*
X150954896Y-109416760D01*
X151502701Y-109417238D01*
X152008989Y-109208044D01*
X152396683Y-108821026D01*
X152499995Y-108572224D01*
X152601956Y-108818989D01*
X152988974Y-109206683D01*
X153494896Y-109416760D01*
X154042701Y-109417238D01*
X154548989Y-109208044D01*
X154936683Y-108821026D01*
X155039995Y-108572224D01*
X155141956Y-108818989D01*
X155528974Y-109206683D01*
X156034896Y-109416760D01*
X156582701Y-109417238D01*
X157088989Y-109208044D01*
X157476683Y-108821026D01*
X157579995Y-108572224D01*
X157681956Y-108818989D01*
X158068974Y-109206683D01*
X158574896Y-109416760D01*
X159122701Y-109417238D01*
X159628989Y-109208044D01*
X160016683Y-108821026D01*
X160226760Y-108315104D01*
X160227238Y-107767299D01*
X160018044Y-107261011D01*
X159631026Y-106873317D01*
X159539500Y-106835312D01*
X159539500Y-106749949D01*
X159844896Y-106876760D01*
X160392701Y-106877238D01*
X160898989Y-106668044D01*
X161286683Y-106281026D01*
X161496760Y-105775104D01*
X161497238Y-105227299D01*
X161288044Y-104721011D01*
X160901026Y-104333317D01*
X160395104Y-104123240D01*
X159864499Y-104122777D01*
X159864499Y-103770191D01*
X159812014Y-103506331D01*
X159662549Y-103282641D01*
X158501822Y-102121914D01*
X158887553Y-102122251D01*
X159421417Y-101901663D01*
X159830228Y-101493566D01*
X159869824Y-101398208D01*
X159908337Y-101491417D01*
X160316434Y-101900228D01*
X160849912Y-102121747D01*
X161427553Y-102122251D01*
X161961417Y-101901663D01*
X162370228Y-101493566D01*
X162591747Y-100960088D01*
X162592251Y-100382447D01*
X162371663Y-99848583D01*
X161963566Y-99439772D01*
X161430088Y-99218253D01*
X160852447Y-99217749D01*
X160318583Y-99438337D01*
X159909772Y-99846434D01*
X159870176Y-99941792D01*
X159831663Y-99848583D01*
X159423566Y-99439772D01*
X158890088Y-99218253D01*
X158312447Y-99217749D01*
X157902000Y-99387342D01*
X157902000Y-92082692D01*
X157849515Y-91818832D01*
X157700050Y-91595142D01*
X150627000Y-84522092D01*
X150627000Y-83750000D01*
X162610717Y-83750000D01*
X162610717Y-86050000D01*
X162654437Y-86282352D01*
X162791757Y-86495753D01*
X163001283Y-86638917D01*
X163250000Y-86689283D01*
X166450000Y-86689283D01*
X166682352Y-86645563D01*
X166895753Y-86508243D01*
X167038917Y-86298717D01*
X167089283Y-86050000D01*
X167089283Y-83750000D01*
X167045563Y-83517648D01*
X166908243Y-83304247D01*
X166698717Y-83161083D01*
X166450000Y-83110717D01*
X163250000Y-83110717D01*
X163017648Y-83154437D01*
X162804247Y-83291757D01*
X162661083Y-83501283D01*
X162610717Y-83750000D01*
X150627000Y-83750000D01*
X150627000Y-83457318D01*
X150719514Y-83318861D01*
X150771999Y-83055001D01*
X150771999Y-82483583D01*
X153022839Y-82483583D01*
X153163669Y-82824417D01*
X153424211Y-83085414D01*
X153764799Y-83226839D01*
X154133583Y-83227161D01*
X154474417Y-83086331D01*
X154735414Y-82825789D01*
X154745292Y-82802000D01*
X155800900Y-82802000D01*
X156001283Y-82938917D01*
X156250000Y-82989283D01*
X158250000Y-82989283D01*
X158482352Y-82945563D01*
X158695753Y-82808243D01*
X158838917Y-82598717D01*
X158889283Y-82350000D01*
X158889283Y-81750000D01*
X158845563Y-81517648D01*
X158708243Y-81304247D01*
X158629826Y-81250666D01*
X158695753Y-81208243D01*
X158838917Y-80998717D01*
X158889283Y-80750000D01*
X158889283Y-80150000D01*
X158869776Y-80046329D01*
X158889283Y-79950000D01*
X158889283Y-79350000D01*
X158869776Y-79246329D01*
X158889283Y-79150000D01*
X158889283Y-78550000D01*
X158869776Y-78446329D01*
X158889283Y-78350000D01*
X158889283Y-77823583D01*
X162882839Y-77823583D01*
X163023669Y-78164417D01*
X163284211Y-78425414D01*
X163624799Y-78566839D01*
X163810717Y-78567001D01*
X163810717Y-78750000D01*
X163830224Y-78853671D01*
X163810717Y-78950000D01*
X163810717Y-79550000D01*
X163830224Y-79653671D01*
X163810717Y-79750000D01*
X163810717Y-79928250D01*
X163555583Y-80033669D01*
X163294586Y-80294211D01*
X163153161Y-80634799D01*
X163152839Y-81003583D01*
X163293669Y-81344417D01*
X163554211Y-81605414D01*
X163810717Y-81711925D01*
X163810717Y-81950000D01*
X163854437Y-82182352D01*
X163991757Y-82395753D01*
X164201283Y-82538917D01*
X164450000Y-82589283D01*
X166450000Y-82589283D01*
X166682352Y-82545563D01*
X166895753Y-82408243D01*
X166917101Y-82377000D01*
X167613950Y-82377000D01*
X167651757Y-82435753D01*
X167861283Y-82578917D01*
X168110000Y-82629283D01*
X169410000Y-82629283D01*
X169642352Y-82585563D01*
X169855753Y-82448243D01*
X169998917Y-82238717D01*
X170049283Y-81990000D01*
X170049283Y-81290000D01*
X170005563Y-81057648D01*
X169868243Y-80844247D01*
X169658717Y-80701083D01*
X169410000Y-80650717D01*
X168110000Y-80650717D01*
X167877648Y-80694437D01*
X167664247Y-80831757D01*
X167601903Y-80923000D01*
X167089283Y-80923000D01*
X167089283Y-80550000D01*
X167069776Y-80446329D01*
X167089283Y-80350000D01*
X167089283Y-79750000D01*
X167069776Y-79646329D01*
X167089283Y-79550000D01*
X167089283Y-78950000D01*
X167069776Y-78846329D01*
X167089283Y-78750000D01*
X167089283Y-78150000D01*
X167069776Y-78046329D01*
X167089283Y-77950000D01*
X167089283Y-77350000D01*
X167069776Y-77246329D01*
X167089283Y-77150000D01*
X167089283Y-76550000D01*
X167045563Y-76317648D01*
X166908243Y-76104247D01*
X166698717Y-75961083D01*
X166450000Y-75910717D01*
X164450000Y-75910717D01*
X164217648Y-75954437D01*
X164004247Y-76091757D01*
X163861083Y-76301283D01*
X163810717Y-76550000D01*
X163810717Y-76713000D01*
X163626417Y-76712839D01*
X163285583Y-76853669D01*
X163024586Y-77114211D01*
X162883161Y-77454799D01*
X162882839Y-77823583D01*
X158889283Y-77823583D01*
X158889283Y-77750000D01*
X158845563Y-77517648D01*
X158708243Y-77304247D01*
X158629826Y-77250666D01*
X158695753Y-77208243D01*
X158838917Y-76998717D01*
X158889283Y-76750000D01*
X158889283Y-76150000D01*
X158869776Y-76046329D01*
X158889283Y-75950000D01*
X158889283Y-75350000D01*
X158845563Y-75117648D01*
X158708243Y-74904247D01*
X158629826Y-74850666D01*
X158695753Y-74808243D01*
X158838917Y-74598717D01*
X158889283Y-74350000D01*
X158889283Y-73750000D01*
X158869776Y-73646329D01*
X158889283Y-73550000D01*
X158889283Y-73350000D01*
X163810717Y-73350000D01*
X163810717Y-73950000D01*
X163830224Y-74053671D01*
X163810717Y-74150000D01*
X163810717Y-74750000D01*
X163854437Y-74982352D01*
X163991757Y-75195753D01*
X164201283Y-75338917D01*
X164450000Y-75389283D01*
X166450000Y-75389283D01*
X166682352Y-75345563D01*
X166895753Y-75208243D01*
X166942040Y-75140500D01*
X166950000Y-75140500D01*
X167214243Y-75087939D01*
X167397485Y-74965500D01*
X167763198Y-74965500D01*
X167812871Y-74955619D01*
X168104799Y-75076839D01*
X168473583Y-75077161D01*
X168814417Y-74936331D01*
X169075414Y-74675789D01*
X169216839Y-74335201D01*
X169217161Y-73966417D01*
X169127693Y-73749888D01*
X169216839Y-73535201D01*
X169217161Y-73166417D01*
X169076331Y-72825583D01*
X168815789Y-72564586D01*
X168475201Y-72423161D01*
X168106417Y-72422839D01*
X167765583Y-72563669D01*
X167504586Y-72824211D01*
X167427006Y-73011045D01*
X167388544Y-73036744D01*
X167333525Y-73091763D01*
X167214243Y-73012061D01*
X166950000Y-72959500D01*
X166943797Y-72959500D01*
X166908243Y-72904247D01*
X166698717Y-72761083D01*
X166450000Y-72710717D01*
X164450000Y-72710717D01*
X164217648Y-72754437D01*
X164004247Y-72891757D01*
X163861083Y-73101283D01*
X163810717Y-73350000D01*
X158889283Y-73350000D01*
X158889283Y-72950000D01*
X158869776Y-72846329D01*
X158889283Y-72750000D01*
X158889283Y-72150000D01*
X158845563Y-71917648D01*
X158708243Y-71704247D01*
X158629826Y-71650666D01*
X158695753Y-71608243D01*
X158700019Y-71602000D01*
X159580449Y-71602000D01*
X159713669Y-71924417D01*
X159974211Y-72185414D01*
X160314799Y-72326839D01*
X160683583Y-72327161D01*
X161024417Y-72186331D01*
X161285414Y-71925789D01*
X161426839Y-71585201D01*
X161427161Y-71216417D01*
X161286331Y-70875583D01*
X161025789Y-70614586D01*
X160685201Y-70473161D01*
X160636607Y-70473119D01*
X160481744Y-70318256D01*
X160237778Y-70155243D01*
X159950000Y-70098000D01*
X158889283Y-70098000D01*
X158889283Y-69750000D01*
X158869776Y-69646329D01*
X158889283Y-69550000D01*
X158889283Y-68950000D01*
X158845563Y-68717648D01*
X158708243Y-68504247D01*
X158498717Y-68361083D01*
X158250000Y-68310717D01*
X156250000Y-68310717D01*
X156017648Y-68354437D01*
X155804247Y-68491757D01*
X155661083Y-68701283D01*
X155610717Y-68950000D01*
X155610717Y-69550000D01*
X155630224Y-69653671D01*
X155610717Y-69750000D01*
X155610717Y-70223067D01*
X155468256Y-70318256D01*
X153718255Y-72068257D01*
X153555242Y-72312223D01*
X153497999Y-72600001D01*
X153497999Y-81483747D01*
X153425583Y-81513669D01*
X153164586Y-81774211D01*
X153023161Y-82114799D01*
X153022839Y-82483583D01*
X150771999Y-82483583D01*
X150771999Y-79462431D01*
X150821511Y-79582259D01*
X151082053Y-79843256D01*
X151422641Y-79984681D01*
X151791425Y-79985003D01*
X152132259Y-79844173D01*
X152393256Y-79583631D01*
X152534681Y-79243043D01*
X152535003Y-78874259D01*
X152394173Y-78533425D01*
X152133631Y-78272428D01*
X151917260Y-78182583D01*
X151828489Y-77967741D01*
X151567947Y-77706744D01*
X151227359Y-77565319D01*
X150858575Y-77564997D01*
X150771999Y-77600770D01*
X150771999Y-73366254D01*
X150844417Y-73336331D01*
X151105414Y-73075789D01*
X151246839Y-72735201D01*
X151247161Y-72366417D01*
X151106331Y-72025583D01*
X150845789Y-71764586D01*
X150505201Y-71623161D01*
X150136417Y-71622839D01*
X149929913Y-71708165D01*
X149725201Y-71623161D01*
X149356417Y-71622839D01*
X149015583Y-71763669D01*
X148754586Y-72024211D01*
X148613161Y-72364799D01*
X148612839Y-72733583D01*
X148753669Y-73074417D01*
X149014211Y-73335414D01*
X149088001Y-73366054D01*
X149088001Y-82633130D01*
X148975485Y-82801522D01*
X148923000Y-83065382D01*
X148923000Y-84942308D01*
X148975485Y-85206168D01*
X149124950Y-85429858D01*
X156198000Y-92502908D01*
X156198000Y-101942308D01*
X156250485Y-102206168D01*
X156399950Y-102429858D01*
X158160500Y-104190408D01*
X158160500Y-104250051D01*
X157855104Y-104123240D01*
X157307299Y-104122762D01*
X156801011Y-104331956D01*
X156413317Y-104718974D01*
X156203240Y-105224896D01*
X156202762Y-105772701D01*
X156411956Y-106278989D01*
X156798974Y-106666683D01*
X157304896Y-106876760D01*
X157852701Y-106877238D01*
X158160500Y-106750058D01*
X158160500Y-106834980D01*
X158071011Y-106871956D01*
X157683317Y-107258974D01*
X157580005Y-107507776D01*
X157478044Y-107261011D01*
X157091026Y-106873317D01*
X156585104Y-106663240D01*
X156037299Y-106662762D01*
X155531011Y-106871956D01*
X155143317Y-107258974D01*
X155040005Y-107507776D01*
X154938044Y-107261011D01*
X154551026Y-106873317D01*
X154459500Y-106835312D01*
X154459500Y-106010716D01*
X154599515Y-105801170D01*
X154652000Y-105537309D01*
X154652000Y-102527908D01*
X155075050Y-102104858D01*
X155224515Y-101881168D01*
X155277000Y-101617308D01*
X155277000Y-94807692D01*
X155224515Y-94543832D01*
X155075050Y-94320142D01*
X148452000Y-87697092D01*
X148452000Y-82286834D01*
X148399515Y-82022974D01*
X148250050Y-81799284D01*
X146960603Y-80509837D01*
X147150741Y-80510003D01*
X147491575Y-80369173D01*
X147752572Y-80108631D01*
X147842417Y-79892260D01*
X148057259Y-79803489D01*
X148318256Y-79542947D01*
X148459681Y-79202359D01*
X148460003Y-78833575D01*
X148319173Y-78492741D01*
X148058631Y-78231744D01*
X147718043Y-78090319D01*
X147349259Y-78089997D01*
X147008425Y-78230827D01*
X146747428Y-78491369D01*
X146657583Y-78707740D01*
X146442741Y-78796511D01*
X146181744Y-79057053D01*
X146051999Y-79369513D01*
X146051999Y-73276254D01*
X146124417Y-73246331D01*
X146385414Y-72985789D01*
X146526839Y-72645201D01*
X146527161Y-72276417D01*
X146386331Y-71935583D01*
X146125789Y-71674586D01*
X145785201Y-71533161D01*
X145416417Y-71532839D01*
X145209913Y-71618165D01*
X145005201Y-71533161D01*
X144636417Y-71532839D01*
X144295583Y-71673669D01*
X144034586Y-71934211D01*
X143893161Y-72274799D01*
X143892839Y-72643583D01*
X106057233Y-72643583D01*
X110950816Y-67750000D01*
X163810717Y-67750000D01*
X163810717Y-68350000D01*
X163830224Y-68453671D01*
X163810717Y-68550000D01*
X163810717Y-69150000D01*
X163854437Y-69382352D01*
X163991757Y-69595753D01*
X164070174Y-69649334D01*
X164004247Y-69691757D01*
X163861083Y-69901283D01*
X163810717Y-70150000D01*
X163810717Y-70750000D01*
X163830224Y-70853671D01*
X163810717Y-70950000D01*
X163810717Y-71550000D01*
X163854437Y-71782352D01*
X163991757Y-71995753D01*
X164201283Y-72138917D01*
X164450000Y-72189283D01*
X166450000Y-72189283D01*
X166682352Y-72145563D01*
X166895753Y-72008243D01*
X166942040Y-71940500D01*
X166950000Y-71940500D01*
X167214243Y-71887939D01*
X167397485Y-71765500D01*
X168073198Y-71765500D01*
X168095731Y-71761018D01*
X168104211Y-71769513D01*
X168444799Y-71910938D01*
X168813583Y-71911260D01*
X169154417Y-71770430D01*
X169415414Y-71509888D01*
X169556839Y-71169300D01*
X169557161Y-70800516D01*
X169467693Y-70583987D01*
X169556839Y-70369300D01*
X169557161Y-70000516D01*
X169416331Y-69659682D01*
X169155789Y-69398685D01*
X168815201Y-69257260D01*
X168446417Y-69256938D01*
X168105583Y-69397768D01*
X167844586Y-69658310D01*
X167791619Y-69785867D01*
X167664444Y-69870843D01*
X167600787Y-69934500D01*
X167397485Y-69934500D01*
X167214243Y-69812061D01*
X166950000Y-69759500D01*
X166943797Y-69759500D01*
X166908243Y-69704247D01*
X166829826Y-69650666D01*
X166895753Y-69608243D01*
X167038917Y-69398717D01*
X167089283Y-69150000D01*
X167089283Y-68550000D01*
X167069776Y-68446329D01*
X167089283Y-68350000D01*
X167089283Y-67750000D01*
X167045563Y-67517648D01*
X166908243Y-67304247D01*
X166698717Y-67161083D01*
X166450000Y-67110717D01*
X164450000Y-67110717D01*
X164217648Y-67154437D01*
X164004247Y-67291757D01*
X163861083Y-67501283D01*
X163810717Y-67750000D01*
X110950816Y-67750000D01*
X119767233Y-58933583D01*
X153797839Y-58933583D01*
X153938669Y-59274417D01*
X154199211Y-59535414D01*
X154539799Y-59676839D01*
X154908583Y-59677161D01*
X155249417Y-59536331D01*
X155283808Y-59502000D01*
X155731429Y-59502000D01*
X155791757Y-59595753D01*
X155870174Y-59649334D01*
X155804247Y-59691757D01*
X155661083Y-59901283D01*
X155610717Y-60150000D01*
X155610717Y-60750000D01*
X155630224Y-60853671D01*
X155610717Y-60950000D01*
X155610717Y-61550000D01*
X155630224Y-61653671D01*
X155610717Y-61750000D01*
X155610717Y-62350000D01*
X155630224Y-62453671D01*
X155610717Y-62550000D01*
X155610717Y-63150000D01*
X155630224Y-63253671D01*
X155610717Y-63350000D01*
X155610717Y-63950000D01*
X155630224Y-64053671D01*
X155610717Y-64150000D01*
X155610717Y-64750000D01*
X155654437Y-64982352D01*
X155791757Y-65195753D01*
X156001283Y-65338917D01*
X156250000Y-65389283D01*
X158250000Y-65389283D01*
X158482352Y-65345563D01*
X158695753Y-65208243D01*
X158838917Y-64998717D01*
X158889283Y-64750000D01*
X158889283Y-64150000D01*
X158869776Y-64046329D01*
X158889283Y-63950000D01*
X158889283Y-63350000D01*
X158869776Y-63246329D01*
X158889283Y-63150000D01*
X158889283Y-62550000D01*
X158869776Y-62446329D01*
X158889283Y-62350000D01*
X158889283Y-61750000D01*
X158869776Y-61646329D01*
X158889283Y-61550000D01*
X158889283Y-60950000D01*
X158869776Y-60846329D01*
X158889283Y-60750000D01*
X158889283Y-60150000D01*
X158845563Y-59917648D01*
X158708243Y-59704247D01*
X158629826Y-59650666D01*
X158695753Y-59608243D01*
X158717101Y-59577000D01*
X159720934Y-59577000D01*
X159799211Y-59655414D01*
X160139799Y-59796839D01*
X160508583Y-59797161D01*
X160849417Y-59656331D01*
X161110414Y-59395789D01*
X161251839Y-59055201D01*
X161252161Y-58686417D01*
X161111331Y-58345583D01*
X160916089Y-58150000D01*
X163810717Y-58150000D01*
X163810717Y-58750000D01*
X163830224Y-58853671D01*
X163810717Y-58950000D01*
X163810717Y-59550000D01*
X163830224Y-59653671D01*
X163810717Y-59750000D01*
X163810717Y-60350000D01*
X163830224Y-60453671D01*
X163810717Y-60550000D01*
X163810717Y-61150000D01*
X163854437Y-61382352D01*
X163991757Y-61595753D01*
X164070174Y-61649334D01*
X164004247Y-61691757D01*
X163861083Y-61901283D01*
X163810717Y-62150000D01*
X163810717Y-62750000D01*
X163830224Y-62853671D01*
X163810717Y-62950000D01*
X163810717Y-63550000D01*
X163854437Y-63782352D01*
X163991757Y-63995753D01*
X164201283Y-64138917D01*
X164450000Y-64189283D01*
X166450000Y-64189283D01*
X166682352Y-64145563D01*
X166895753Y-64008243D01*
X167038917Y-63798717D01*
X167089283Y-63550000D01*
X167089283Y-62950000D01*
X167069776Y-62846329D01*
X167089283Y-62750000D01*
X167089283Y-62150000D01*
X167045563Y-61917648D01*
X166908243Y-61704247D01*
X166829826Y-61650666D01*
X166895753Y-61608243D01*
X167038917Y-61398717D01*
X167089283Y-61150000D01*
X167089283Y-60550000D01*
X167069776Y-60446329D01*
X167089283Y-60350000D01*
X167089283Y-59750000D01*
X167069776Y-59646329D01*
X167089283Y-59550000D01*
X167089283Y-58950000D01*
X167069776Y-58846329D01*
X167089283Y-58750000D01*
X167089283Y-58150000D01*
X167045563Y-57917648D01*
X166908243Y-57704247D01*
X166698717Y-57561083D01*
X166450000Y-57510717D01*
X164450000Y-57510717D01*
X164217648Y-57554437D01*
X164004247Y-57691757D01*
X163861083Y-57901283D01*
X163810717Y-58150000D01*
X160916089Y-58150000D01*
X160850789Y-58084586D01*
X160510201Y-57943161D01*
X160141417Y-57942839D01*
X159800583Y-58083669D01*
X159761183Y-58123000D01*
X158720310Y-58123000D01*
X158708243Y-58104247D01*
X158498717Y-57961083D01*
X158250000Y-57910717D01*
X156250000Y-57910717D01*
X156017648Y-57954437D01*
X155949949Y-57998000D01*
X155284145Y-57998000D01*
X155250789Y-57964586D01*
X154910201Y-57823161D01*
X154541417Y-57822839D01*
X154200583Y-57963669D01*
X153939586Y-58224211D01*
X153798161Y-58564799D01*
X153797839Y-58933583D01*
X119767233Y-58933583D01*
X124250816Y-54450000D01*
X162610717Y-54450000D01*
X162610717Y-56750000D01*
X162654437Y-56982352D01*
X162791757Y-57195753D01*
X163001283Y-57338917D01*
X163250000Y-57389283D01*
X166450000Y-57389283D01*
X166682352Y-57345563D01*
X166895753Y-57208243D01*
X167038917Y-56998717D01*
X167089283Y-56750000D01*
X167089283Y-54450000D01*
X167045563Y-54217648D01*
X166908243Y-54004247D01*
X166698717Y-53861083D01*
X166450000Y-53810717D01*
X163250000Y-53810717D01*
X163017648Y-53854437D01*
X162804247Y-53991757D01*
X162661083Y-54201283D01*
X162610717Y-54450000D01*
X124250816Y-54450000D01*
X126238257Y-52462559D01*
X126387939Y-52238545D01*
X126440500Y-51974302D01*
X126440500Y-51870538D01*
X126535414Y-51775789D01*
X126676839Y-51435201D01*
X126677161Y-51066417D01*
X126536331Y-50725583D01*
X126275789Y-50464586D01*
X125935201Y-50323161D01*
X125566417Y-50322839D01*
X125225583Y-50463669D01*
X124964586Y-50724211D01*
X124823161Y-51064799D01*
X124822839Y-51433583D01*
X124963669Y-51774417D01*
X124968516Y-51779272D01*
X116839283Y-59908505D01*
X116839283Y-55250000D01*
X116795563Y-55017648D01*
X116658243Y-54804247D01*
X116448717Y-54661083D01*
X116200000Y-54610717D01*
X110400000Y-54610717D01*
X110167648Y-54654437D01*
X109954247Y-54791757D01*
X109940500Y-54811876D01*
X109940500Y-52176949D01*
X110183583Y-52177161D01*
X110524417Y-52036331D01*
X110785414Y-51775789D01*
X110791436Y-51761287D01*
X110900159Y-52024417D01*
X111160701Y-52285414D01*
X111501289Y-52426839D01*
X111559500Y-52426890D01*
X111559500Y-53250000D01*
X111573158Y-53318662D01*
X111572839Y-53683583D01*
X111713669Y-54024417D01*
X111974211Y-54285414D01*
X112314799Y-54426839D01*
X112683583Y-54427161D01*
X113024417Y-54286331D01*
X113285414Y-54025789D01*
X113426839Y-53685201D01*
X113427161Y-53316417D01*
X113286331Y-52975583D01*
X113025789Y-52714586D01*
X112940500Y-52679171D01*
X112940500Y-50502546D01*
X112953669Y-50534417D01*
X113214211Y-50795414D01*
X113554799Y-50936839D01*
X113923583Y-50937161D01*
X114264417Y-50796331D01*
X114525414Y-50535789D01*
X114666839Y-50195201D01*
X114667067Y-49933583D01*
X127072839Y-49933583D01*
X127213669Y-50274417D01*
X127474211Y-50535414D01*
X127814799Y-50676839D01*
X128183583Y-50677161D01*
X128524417Y-50536331D01*
X128785414Y-50275789D01*
X128926839Y-49935201D01*
X128927161Y-49566417D01*
X128786331Y-49225583D01*
X128525789Y-48964586D01*
X128185201Y-48823161D01*
X127816417Y-48822839D01*
X127475583Y-48963669D01*
X127214586Y-49224211D01*
X127073161Y-49564799D01*
X127072839Y-49933583D01*
X114667067Y-49933583D01*
X114667161Y-49826417D01*
X114526331Y-49485583D01*
X114265789Y-49224586D01*
X113925201Y-49083161D01*
X113556417Y-49082839D01*
X113215583Y-49223669D01*
X112954586Y-49484211D01*
X112940500Y-49518134D01*
X112940500Y-45183583D01*
X113822839Y-45183583D01*
X113963669Y-45524417D01*
X114224211Y-45785414D01*
X114564799Y-45926839D01*
X114933583Y-45927161D01*
X115274417Y-45786331D01*
X115535414Y-45525789D01*
X115676839Y-45185201D01*
X115677161Y-44816417D01*
X115536331Y-44475583D01*
X115275789Y-44214586D01*
X114935201Y-44073161D01*
X114566417Y-44072839D01*
X114225583Y-44213669D01*
X113964586Y-44474211D01*
X113823161Y-44814799D01*
X113822839Y-45183583D01*
X112940500Y-45183583D01*
X112940500Y-44000000D01*
X112887939Y-43735757D01*
X112873180Y-43713669D01*
X112738258Y-43511743D01*
X111353512Y-42126998D01*
X116459465Y-42126998D01*
X116470724Y-42138257D01*
X116568369Y-42203501D01*
X116694739Y-42287939D01*
X116915296Y-42331810D01*
X122102956Y-47519470D01*
X122102839Y-47653583D01*
X122243669Y-47994417D01*
X122504211Y-48255414D01*
X122844799Y-48396839D01*
X123213583Y-48397161D01*
X123554417Y-48256331D01*
X123815414Y-47995789D01*
X123956839Y-47655201D01*
X123957161Y-47286417D01*
X123914671Y-47183583D01*
X124072839Y-47183583D01*
X124213669Y-47524417D01*
X124474211Y-47785414D01*
X124814799Y-47926839D01*
X125183583Y-47927161D01*
X125524417Y-47786331D01*
X125785414Y-47525789D01*
X125926839Y-47185201D01*
X125926840Y-47183583D01*
X128509329Y-47183583D01*
X128650159Y-47524417D01*
X128910701Y-47785414D01*
X129251289Y-47926839D01*
X129620073Y-47927161D01*
X129960907Y-47786331D01*
X130221904Y-47525789D01*
X130363329Y-47185201D01*
X130363651Y-46816417D01*
X130222821Y-46475583D01*
X129962279Y-46214586D01*
X129621691Y-46073161D01*
X129252907Y-46072839D01*
X128912073Y-46213669D01*
X128651076Y-46474211D01*
X128509651Y-46814799D01*
X128509329Y-47183583D01*
X125926840Y-47183583D01*
X125927161Y-46816417D01*
X125786331Y-46475583D01*
X125525789Y-46214586D01*
X125185201Y-46073161D01*
X124816417Y-46072839D01*
X124475583Y-46213669D01*
X124214586Y-46474211D01*
X124073161Y-46814799D01*
X124072839Y-47183583D01*
X123914671Y-47183583D01*
X123816331Y-46945583D01*
X123555789Y-46684586D01*
X123215201Y-46543161D01*
X123079557Y-46543043D01*
X121220097Y-44683583D01*
X122072839Y-44683583D01*
X122213669Y-45024417D01*
X122474211Y-45285414D01*
X122814799Y-45426839D01*
X123183583Y-45427161D01*
X123524417Y-45286331D01*
X123627344Y-45183583D01*
X124072839Y-45183583D01*
X124213669Y-45524417D01*
X124474211Y-45785414D01*
X124814799Y-45926839D01*
X125183583Y-45927161D01*
X125524417Y-45786331D01*
X125785414Y-45525789D01*
X125926839Y-45185201D01*
X125927161Y-44816417D01*
X125786331Y-44475583D01*
X125525789Y-44214586D01*
X125185201Y-44073161D01*
X124816417Y-44072839D01*
X124475583Y-44213669D01*
X124214586Y-44474211D01*
X124073161Y-44814799D01*
X124072839Y-45183583D01*
X123627344Y-45183583D01*
X123785414Y-45025789D01*
X123926839Y-44685201D01*
X123927161Y-44316417D01*
X123786331Y-43975583D01*
X123525789Y-43714586D01*
X123185201Y-43573161D01*
X122816417Y-43572839D01*
X122475583Y-43713669D01*
X122214586Y-43974211D01*
X122073161Y-44314799D01*
X122072839Y-44683583D01*
X121220097Y-44683583D01*
X118537014Y-42000500D01*
X126282968Y-42000500D01*
X126373001Y-42090534D01*
X126373001Y-42203501D01*
X126425562Y-42467744D01*
X126575244Y-42691758D01*
X128745999Y-44862513D01*
X128745999Y-45020481D01*
X128798560Y-45284724D01*
X128948242Y-45508738D01*
X129241262Y-45801758D01*
X129465276Y-45951440D01*
X129729519Y-46004001D01*
X129887487Y-46004001D01*
X130982956Y-47099470D01*
X130982839Y-47233583D01*
X131123669Y-47574417D01*
X131384211Y-47835414D01*
X131724799Y-47976839D01*
X132093583Y-47977161D01*
X132434417Y-47836331D01*
X132695414Y-47575789D01*
X132836839Y-47235201D01*
X132837161Y-46866417D01*
X132696331Y-46525583D01*
X132435789Y-46264586D01*
X132095201Y-46123161D01*
X131959557Y-46123043D01*
X130881325Y-45044811D01*
X130926839Y-44935201D01*
X130927161Y-44566417D01*
X130786331Y-44225583D01*
X130525789Y-43964586D01*
X130185201Y-43823161D01*
X129816417Y-43822839D01*
X129705276Y-43868762D01*
X127754001Y-41917487D01*
X127754001Y-41804519D01*
X127701440Y-41540276D01*
X127676980Y-41503669D01*
X127551758Y-41316261D01*
X127057239Y-40821743D01*
X126833225Y-40672061D01*
X126568982Y-40619500D01*
X117366600Y-40619500D01*
X117145175Y-40471548D01*
X116880932Y-40418987D01*
X110941948Y-40418987D01*
X110894191Y-40371230D01*
X110670177Y-40221548D01*
X110458496Y-40179442D01*
X110405935Y-40168987D01*
X94770513Y-40168987D01*
X94506270Y-40221548D01*
X94282256Y-40371230D01*
X93290530Y-41362956D01*
X93156417Y-41362839D01*
X92815583Y-41503669D01*
X92639509Y-41679436D01*
X88549356Y-37589283D01*
X88925000Y-37589283D01*
X89157352Y-37545563D01*
X89370753Y-37408243D01*
X89424334Y-37329826D01*
X89466757Y-37395753D01*
X89676283Y-37538917D01*
X89925000Y-37589283D01*
X90425000Y-37589283D01*
X90657352Y-37545563D01*
X90870753Y-37408243D01*
X90887166Y-37384222D01*
X90989799Y-37426839D01*
X91358583Y-37427161D01*
X91699417Y-37286331D01*
X91960414Y-37025789D01*
X92010787Y-36904479D01*
X92195130Y-36720135D01*
X92195133Y-36720133D01*
X92311290Y-36546291D01*
X92385242Y-36435614D01*
X92452000Y-36100000D01*
X92452000Y-33125005D01*
X92452001Y-33125000D01*
X92385242Y-32789387D01*
X92364807Y-32758804D01*
X92195133Y-32504867D01*
X92195130Y-32504865D01*
X91845133Y-32154867D01*
X91560613Y-31964758D01*
X91225000Y-31898000D01*
X91027000Y-31898000D01*
X91027000Y-31358501D01*
X91120000Y-31377000D01*
X91991370Y-31203674D01*
X92730082Y-30710082D01*
X93223674Y-29971370D01*
X93334534Y-29414038D01*
X94869761Y-29414038D01*
X95080778Y-29924738D01*
X95471168Y-30315811D01*
X95695420Y-30408928D01*
X95473224Y-30500738D01*
X95082151Y-30891128D01*
X94870243Y-31401460D01*
X94869761Y-31954038D01*
X95080778Y-32464738D01*
X95471168Y-32855811D01*
X95691137Y-32947150D01*
X95474223Y-33036777D01*
X95083150Y-33427167D01*
X94871242Y-33937499D01*
X94870760Y-34490077D01*
X95081777Y-35000777D01*
X95472167Y-35391850D01*
X95696419Y-35484967D01*
X95474223Y-35576777D01*
X95083150Y-35967167D01*
X94871242Y-36477499D01*
X94870760Y-37030077D01*
X95081777Y-37540777D01*
X95472167Y-37931850D01*
X95982499Y-38143758D01*
X96535077Y-38144240D01*
X97045777Y-37933223D01*
X97436850Y-37542833D01*
X97529967Y-37318581D01*
X97621777Y-37540777D01*
X98012167Y-37931850D01*
X98522499Y-38143758D01*
X99075077Y-38144240D01*
X99585777Y-37933223D01*
X99976850Y-37542833D01*
X100069967Y-37318581D01*
X100161777Y-37540777D01*
X100552167Y-37931850D01*
X101062499Y-38143758D01*
X101615077Y-38144240D01*
X102125777Y-37933223D01*
X102516850Y-37542833D01*
X102609967Y-37318581D01*
X102701777Y-37540777D01*
X103092167Y-37931850D01*
X103602499Y-38143758D01*
X104155077Y-38144240D01*
X104665777Y-37933223D01*
X105056850Y-37542833D01*
X105149967Y-37318581D01*
X105241777Y-37540777D01*
X105632167Y-37931850D01*
X106142499Y-38143758D01*
X106695077Y-38144240D01*
X107205777Y-37933223D01*
X107596850Y-37542833D01*
X107689967Y-37318581D01*
X107781777Y-37540777D01*
X108172167Y-37931850D01*
X108682499Y-38143758D01*
X109235077Y-38144240D01*
X109745777Y-37933223D01*
X110136850Y-37542833D01*
X110229967Y-37318581D01*
X110321777Y-37540777D01*
X110712167Y-37931850D01*
X111222499Y-38143758D01*
X111775077Y-38144240D01*
X112285777Y-37933223D01*
X112676850Y-37542833D01*
X112769967Y-37318581D01*
X112861777Y-37540777D01*
X113252167Y-37931850D01*
X113762499Y-38143758D01*
X114315077Y-38144240D01*
X114825777Y-37933223D01*
X115216850Y-37542833D01*
X115309967Y-37318581D01*
X115401777Y-37540777D01*
X115792167Y-37931850D01*
X116302499Y-38143758D01*
X116855077Y-38144240D01*
X117365777Y-37933223D01*
X117756850Y-37542833D01*
X117849967Y-37318581D01*
X117941777Y-37540777D01*
X118332167Y-37931850D01*
X118842499Y-38143758D01*
X119395077Y-38144240D01*
X119905777Y-37933223D01*
X120296850Y-37542833D01*
X120389967Y-37318581D01*
X120481777Y-37540777D01*
X120872167Y-37931850D01*
X121382499Y-38143758D01*
X121935077Y-38144240D01*
X122445777Y-37933223D01*
X122836850Y-37542833D01*
X122929967Y-37318581D01*
X123021777Y-37540777D01*
X123412167Y-37931850D01*
X123922499Y-38143758D01*
X124475077Y-38144240D01*
X124985777Y-37933223D01*
X125376850Y-37542833D01*
X125469967Y-37318581D01*
X125561777Y-37540777D01*
X125952167Y-37931850D01*
X126462499Y-38143758D01*
X127015077Y-38144240D01*
X127525777Y-37933223D01*
X127916850Y-37542833D01*
X128009967Y-37318581D01*
X128101777Y-37540777D01*
X128492167Y-37931850D01*
X129002499Y-38143758D01*
X129555077Y-38144240D01*
X130065777Y-37933223D01*
X130456850Y-37542833D01*
X130549967Y-37318581D01*
X130641777Y-37540777D01*
X131032167Y-37931850D01*
X131542499Y-38143758D01*
X132095077Y-38144240D01*
X132605777Y-37933223D01*
X132996850Y-37542833D01*
X133089967Y-37318581D01*
X133181777Y-37540777D01*
X133572167Y-37931850D01*
X134082499Y-38143758D01*
X134635077Y-38144240D01*
X135145777Y-37933223D01*
X135536850Y-37542833D01*
X135629967Y-37318581D01*
X135721777Y-37540777D01*
X136112167Y-37931850D01*
X136622499Y-38143758D01*
X137175077Y-38144240D01*
X137685777Y-37933223D01*
X138076850Y-37542833D01*
X138169967Y-37318581D01*
X138261777Y-37540777D01*
X138652167Y-37931850D01*
X139162499Y-38143758D01*
X139715077Y-38144240D01*
X140225777Y-37933223D01*
X140616850Y-37542833D01*
X140709967Y-37318581D01*
X140801777Y-37540777D01*
X141192167Y-37931850D01*
X141702499Y-38143758D01*
X142255077Y-38144240D01*
X142765777Y-37933223D01*
X143156850Y-37542833D01*
X143249967Y-37318581D01*
X143341777Y-37540777D01*
X143732167Y-37931850D01*
X144242499Y-38143758D01*
X144795077Y-38144240D01*
X145305777Y-37933223D01*
X145696850Y-37542833D01*
X145789967Y-37318581D01*
X145881777Y-37540777D01*
X146272167Y-37931850D01*
X146782499Y-38143758D01*
X147335077Y-38144240D01*
X147845777Y-37933223D01*
X148236850Y-37542833D01*
X148329967Y-37318581D01*
X148421777Y-37540777D01*
X148812167Y-37931850D01*
X149322499Y-38143758D01*
X149875077Y-38144240D01*
X150385777Y-37933223D01*
X150776850Y-37542833D01*
X150869967Y-37318581D01*
X150961777Y-37540777D01*
X151352167Y-37931850D01*
X151862499Y-38143758D01*
X152415077Y-38144240D01*
X152925777Y-37933223D01*
X153316850Y-37542833D01*
X153409967Y-37318581D01*
X153501777Y-37540777D01*
X153892167Y-37931850D01*
X154402499Y-38143758D01*
X154955077Y-38144240D01*
X155465777Y-37933223D01*
X155856850Y-37542833D01*
X155949967Y-37318581D01*
X156041777Y-37540777D01*
X156432167Y-37931850D01*
X156942499Y-38143758D01*
X157495077Y-38144240D01*
X158005777Y-37933223D01*
X158396850Y-37542833D01*
X158489967Y-37318581D01*
X158581777Y-37540777D01*
X158972167Y-37931850D01*
X159482499Y-38143758D01*
X160035077Y-38144240D01*
X160545777Y-37933223D01*
X160936850Y-37542833D01*
X161148758Y-37032501D01*
X161149240Y-36479923D01*
X160938223Y-35969223D01*
X160547833Y-35578150D01*
X160323581Y-35485033D01*
X160545777Y-35393223D01*
X160936850Y-35002833D01*
X161148758Y-34492501D01*
X161149240Y-33939923D01*
X160938223Y-33429223D01*
X160547833Y-33038150D01*
X160327864Y-32946811D01*
X160544778Y-32857184D01*
X160935851Y-32466794D01*
X161147759Y-31956462D01*
X161148241Y-31403884D01*
X160937224Y-30893184D01*
X160546834Y-30502111D01*
X160322582Y-30408994D01*
X160544778Y-30317184D01*
X160935851Y-29926794D01*
X161147759Y-29416462D01*
X161148035Y-29100000D01*
X162543000Y-29100000D01*
X162716326Y-29971370D01*
X163209918Y-30710082D01*
X163948630Y-31203674D01*
X164820000Y-31377000D01*
X165691370Y-31203674D01*
X166430082Y-30710082D01*
X166923674Y-29971370D01*
X167097000Y-29100000D01*
X166923674Y-28228630D01*
X166430082Y-27489918D01*
X165691370Y-26996326D01*
X164820000Y-26823000D01*
X163948630Y-26996326D01*
X163209918Y-27489918D01*
X162716326Y-28228630D01*
X162543000Y-29100000D01*
X161148035Y-29100000D01*
X161148241Y-28863884D01*
X160937224Y-28353184D01*
X160546834Y-27962111D01*
X160036502Y-27750203D01*
X159483924Y-27749721D01*
X158973224Y-27960738D01*
X158582151Y-28351128D01*
X158489034Y-28575380D01*
X158397224Y-28353184D01*
X158006834Y-27962111D01*
X157496502Y-27750203D01*
X156943924Y-27749721D01*
X156433224Y-27960738D01*
X156042151Y-28351128D01*
X155949034Y-28575380D01*
X155857224Y-28353184D01*
X155466834Y-27962111D01*
X154956502Y-27750203D01*
X154403924Y-27749721D01*
X153893224Y-27960738D01*
X153502151Y-28351128D01*
X153409034Y-28575380D01*
X153317224Y-28353184D01*
X152926834Y-27962111D01*
X152416502Y-27750203D01*
X151863924Y-27749721D01*
X151353224Y-27960738D01*
X150962151Y-28351128D01*
X150869034Y-28575380D01*
X150777224Y-28353184D01*
X150386834Y-27962111D01*
X149876502Y-27750203D01*
X149323924Y-27749721D01*
X148813224Y-27960738D01*
X148422151Y-28351128D01*
X148329034Y-28575380D01*
X148237224Y-28353184D01*
X147846834Y-27962111D01*
X147336502Y-27750203D01*
X146783924Y-27749721D01*
X146273224Y-27960738D01*
X145882151Y-28351128D01*
X145789034Y-28575380D01*
X145697224Y-28353184D01*
X145306834Y-27962111D01*
X144796502Y-27750203D01*
X144243924Y-27749721D01*
X143733224Y-27960738D01*
X143342151Y-28351128D01*
X143249034Y-28575380D01*
X143157224Y-28353184D01*
X142766834Y-27962111D01*
X142256502Y-27750203D01*
X141703924Y-27749721D01*
X141193224Y-27960738D01*
X140802151Y-28351128D01*
X140709034Y-28575380D01*
X140617224Y-28353184D01*
X140226834Y-27962111D01*
X139716502Y-27750203D01*
X139163924Y-27749721D01*
X138653224Y-27960738D01*
X138262151Y-28351128D01*
X138169034Y-28575380D01*
X138077224Y-28353184D01*
X137686834Y-27962111D01*
X137176502Y-27750203D01*
X136623924Y-27749721D01*
X136113224Y-27960738D01*
X135722151Y-28351128D01*
X135629034Y-28575380D01*
X135537224Y-28353184D01*
X135146834Y-27962111D01*
X134636502Y-27750203D01*
X134083924Y-27749721D01*
X133573224Y-27960738D01*
X133182151Y-28351128D01*
X133089034Y-28575380D01*
X132997224Y-28353184D01*
X132606834Y-27962111D01*
X132096502Y-27750203D01*
X131543924Y-27749721D01*
X131033224Y-27960738D01*
X130642151Y-28351128D01*
X130549034Y-28575380D01*
X130457224Y-28353184D01*
X130066834Y-27962111D01*
X129556502Y-27750203D01*
X129003924Y-27749721D01*
X128493224Y-27960738D01*
X128102151Y-28351128D01*
X128009034Y-28575380D01*
X127917224Y-28353184D01*
X127526834Y-27962111D01*
X127016502Y-27750203D01*
X126463924Y-27749721D01*
X125953224Y-27960738D01*
X125562151Y-28351128D01*
X125469034Y-28575380D01*
X125377224Y-28353184D01*
X124986834Y-27962111D01*
X124476502Y-27750203D01*
X123923924Y-27749721D01*
X123413224Y-27960738D01*
X123022151Y-28351128D01*
X122929034Y-28575380D01*
X122837224Y-28353184D01*
X122446834Y-27962111D01*
X121936502Y-27750203D01*
X121383924Y-27749721D01*
X120873224Y-27960738D01*
X120482151Y-28351128D01*
X120389034Y-28575380D01*
X120297224Y-28353184D01*
X119906834Y-27962111D01*
X119396502Y-27750203D01*
X118843924Y-27749721D01*
X118333224Y-27960738D01*
X117942151Y-28351128D01*
X117849034Y-28575380D01*
X117757224Y-28353184D01*
X117366834Y-27962111D01*
X116856502Y-27750203D01*
X116303924Y-27749721D01*
X115793224Y-27960738D01*
X115402151Y-28351128D01*
X115309034Y-28575380D01*
X115217224Y-28353184D01*
X114826834Y-27962111D01*
X114316502Y-27750203D01*
X113763924Y-27749721D01*
X113253224Y-27960738D01*
X112862151Y-28351128D01*
X112769034Y-28575380D01*
X112677224Y-28353184D01*
X112286834Y-27962111D01*
X111776502Y-27750203D01*
X111223924Y-27749721D01*
X110713224Y-27960738D01*
X110322151Y-28351128D01*
X110229034Y-28575380D01*
X110137224Y-28353184D01*
X109746834Y-27962111D01*
X109236502Y-27750203D01*
X108683924Y-27749721D01*
X108173224Y-27960738D01*
X107782151Y-28351128D01*
X107689034Y-28575380D01*
X107597224Y-28353184D01*
X107206834Y-27962111D01*
X106696502Y-27750203D01*
X106143924Y-27749721D01*
X105633224Y-27960738D01*
X105242151Y-28351128D01*
X105149034Y-28575380D01*
X105057224Y-28353184D01*
X104666834Y-27962111D01*
X104156502Y-27750203D01*
X103603924Y-27749721D01*
X103093224Y-27960738D01*
X102702151Y-28351128D01*
X102609034Y-28575380D01*
X102517224Y-28353184D01*
X102126834Y-27962111D01*
X101616502Y-27750203D01*
X101063924Y-27749721D01*
X100553224Y-27960738D01*
X100162151Y-28351128D01*
X100069034Y-28575380D01*
X99977224Y-28353184D01*
X99586834Y-27962111D01*
X99076502Y-27750203D01*
X98523924Y-27749721D01*
X98013224Y-27960738D01*
X97622151Y-28351128D01*
X97529034Y-28575380D01*
X97437224Y-28353184D01*
X97046834Y-27962111D01*
X96536502Y-27750203D01*
X95983924Y-27749721D01*
X95473224Y-27960738D01*
X95082151Y-28351128D01*
X94870243Y-28861460D01*
X94869761Y-29414038D01*
X93334534Y-29414038D01*
X93397000Y-29100000D01*
X93223674Y-28228630D01*
X92730082Y-27489918D01*
X91991370Y-26996326D01*
X91120000Y-26823000D01*
X90248630Y-26996326D01*
X89509918Y-27489918D01*
X89016326Y-28228630D01*
X88896468Y-28831200D01*
X88245135Y-28179867D01*
X87960615Y-27989758D01*
X87702000Y-27938316D01*
X87702000Y-27528997D01*
X87826283Y-27613917D01*
X88075000Y-27664283D01*
X88575000Y-27664283D01*
X88807352Y-27620563D01*
X89020753Y-27483243D01*
X89147566Y-27297647D01*
X89287778Y-27269757D01*
X89501263Y-27127111D01*
X89558583Y-27127161D01*
X89899417Y-26986331D01*
X90160414Y-26725789D01*
X90301839Y-26385201D01*
X90302161Y-26016417D01*
X90161331Y-25675583D01*
X89900789Y-25414586D01*
X89560201Y-25273161D01*
X89191417Y-25272839D01*
X88850583Y-25413669D01*
X88744105Y-25519961D01*
X88575000Y-25485717D01*
X88075000Y-25485717D01*
X87842648Y-25529437D01*
X87629247Y-25666757D01*
X87575666Y-25745174D01*
X87533243Y-25679247D01*
X87323717Y-25536083D01*
X87075000Y-25485717D01*
X86575000Y-25485717D01*
X86342648Y-25529437D01*
X86129247Y-25666757D01*
X85986083Y-25876283D01*
X85935717Y-26125000D01*
X85935717Y-27025000D01*
X85948000Y-27090279D01*
X85948000Y-28800000D01*
X86014758Y-29135613D01*
X86204867Y-29420133D01*
X86489387Y-29610242D01*
X86825000Y-29677000D01*
X87261736Y-29677000D01*
X89273000Y-31688263D01*
X89273000Y-31821003D01*
X89148717Y-31736083D01*
X88900000Y-31685717D01*
X88400000Y-31685717D01*
X88292069Y-31706026D01*
X88200789Y-31614586D01*
X87860201Y-31473161D01*
X87491417Y-31472839D01*
X87150583Y-31613669D01*
X86889586Y-31874211D01*
X86748161Y-32214799D01*
X86747839Y-32583583D01*
X86888669Y-32924417D01*
X87149211Y-33185414D01*
X87489799Y-33326839D01*
X87696466Y-33327019D01*
X83700530Y-37322956D01*
X83566417Y-37322839D01*
X83225583Y-37463669D01*
X82964586Y-37724211D01*
X82823161Y-38064799D01*
X82822839Y-38433583D01*
X82963669Y-38774417D01*
X83224211Y-39035414D01*
X83564799Y-39176839D01*
X83933583Y-39177161D01*
X84274417Y-39036331D01*
X84384500Y-38926440D01*
X84384500Y-46378986D01*
X83471743Y-47291743D01*
X83322061Y-47515757D01*
X83269500Y-47780000D01*
X83269500Y-58910000D01*
X83322061Y-59174243D01*
X83471743Y-59398257D01*
X84091901Y-60018415D01*
X84004064Y-60460000D01*
X84116494Y-61025223D01*
X84436667Y-61504397D01*
X84774307Y-61730000D01*
X84436667Y-61955603D01*
X84116494Y-62434777D01*
X84004064Y-63000000D01*
X84116494Y-63565223D01*
X84436667Y-64044397D01*
X84493120Y-64082118D01*
X84427648Y-64094437D01*
X84214247Y-64231757D01*
X84071083Y-64441283D01*
X84020717Y-64690000D01*
X84020717Y-66390000D01*
X84064437Y-66622352D01*
X84201757Y-66835753D01*
X84411283Y-66978917D01*
X84660000Y-67029283D01*
X86360000Y-67029283D01*
X86592352Y-66985563D01*
X86805753Y-66848243D01*
X86948917Y-66638717D01*
X86999283Y-66390000D01*
X86999283Y-66004231D01*
X87738257Y-65265257D01*
X87887939Y-65041243D01*
X87940500Y-64777000D01*
X87940500Y-62766014D01*
X90933306Y-59773208D01*
X90998257Y-59708258D01*
X90998259Y-59708255D01*
X93118257Y-57588257D01*
X93267939Y-57364243D01*
X93320500Y-57100000D01*
X93320500Y-50636014D01*
X93386014Y-50570500D01*
X104399462Y-50570500D01*
X104494211Y-50665414D01*
X104834799Y-50806839D01*
X105203583Y-50807161D01*
X105544417Y-50666331D01*
X105805414Y-50405789D01*
X105946839Y-50065201D01*
X105947161Y-49696417D01*
X105806331Y-49355583D01*
X105545789Y-49094586D01*
X105205201Y-48953161D01*
X104836417Y-48952839D01*
X104495583Y-49093669D01*
X104399585Y-49189500D01*
X93100000Y-49189500D01*
X92835757Y-49242061D01*
X92611743Y-49391743D01*
X92380500Y-49622986D01*
X92380500Y-48748476D01*
X93158476Y-47970500D01*
X94829462Y-47970500D01*
X94924211Y-48065414D01*
X95264799Y-48206839D01*
X95633583Y-48207161D01*
X95974417Y-48066331D01*
X96235414Y-47805789D01*
X96376839Y-47465201D01*
X96377161Y-47096417D01*
X96236331Y-46755583D01*
X95975789Y-46494586D01*
X95635201Y-46353161D01*
X95600352Y-46353131D01*
X95506331Y-46125583D01*
X95245789Y-45864586D01*
X94905201Y-45723161D01*
X94536417Y-45722839D01*
X94195583Y-45863669D01*
X94050774Y-46008226D01*
X94031493Y-46012061D01*
X93807479Y-46161743D01*
X93769722Y-46199500D01*
X92800000Y-46199500D01*
X92713967Y-46216613D01*
X92776839Y-46065201D01*
X92776881Y-46016607D01*
X93392790Y-45400699D01*
X98454415Y-45400699D01*
X98392560Y-45549663D01*
X98392038Y-46147713D01*
X98620419Y-46700438D01*
X99042935Y-47123692D01*
X99595261Y-47353038D01*
X100193311Y-47353560D01*
X100746036Y-47125179D01*
X101169290Y-46702663D01*
X101398636Y-46150337D01*
X101399158Y-45552287D01*
X101336523Y-45400699D01*
X102099777Y-45400699D01*
X102073160Y-45464799D01*
X102072838Y-45833583D01*
X102213668Y-46174417D01*
X102474210Y-46435414D01*
X102814798Y-46576839D01*
X103183582Y-46577161D01*
X103524416Y-46436331D01*
X103785413Y-46175789D01*
X103926838Y-45835201D01*
X103927160Y-45466417D01*
X103900006Y-45400699D01*
X105639132Y-45400699D01*
X105862228Y-45549767D01*
X106150006Y-45607010D01*
X106863730Y-45607010D01*
X106897086Y-45640424D01*
X107237674Y-45781849D01*
X107606458Y-45782171D01*
X107947292Y-45641341D01*
X107980653Y-45608038D01*
X107995990Y-45623401D01*
X107995990Y-56927496D01*
X101017405Y-63906081D01*
X100405853Y-64517631D01*
X100384133Y-64550138D01*
X100354260Y-64575362D01*
X100312374Y-64627884D01*
X100277837Y-64694736D01*
X100271966Y-64690813D01*
X100246738Y-64660938D01*
X100194215Y-64619053D01*
X100125291Y-64583446D01*
X100063303Y-64536795D01*
X100002778Y-64507647D01*
X99927646Y-64488266D01*
X99856818Y-64456573D01*
X99791323Y-64441625D01*
X99713773Y-64439450D01*
X99637690Y-64424315D01*
X99570512Y-64424314D01*
X99494405Y-64439451D01*
X99416840Y-64441629D01*
X99351345Y-64456579D01*
X99280538Y-64488265D01*
X99205421Y-64507640D01*
X99144896Y-64536786D01*
X99082901Y-64583440D01*
X99013967Y-64619052D01*
X98961444Y-64660937D01*
X98911383Y-64720219D01*
X98852101Y-64770280D01*
X98810216Y-64822803D01*
X98774610Y-64891726D01*
X98727960Y-64953711D01*
X98698811Y-65014237D01*
X98679427Y-65089377D01*
X98647734Y-65160209D01*
X98632787Y-65225703D01*
X98631029Y-65288395D01*
X98568313Y-65290156D01*
X98502818Y-65305106D01*
X98432011Y-65336792D01*
X98356894Y-65356167D01*
X98296369Y-65385313D01*
X98234374Y-65431967D01*
X98165440Y-65467579D01*
X98112917Y-65509464D01*
X98062856Y-65568746D01*
X98003574Y-65618807D01*
X97961689Y-65671330D01*
X97926083Y-65740253D01*
X97879433Y-65802238D01*
X97850284Y-65862764D01*
X97830900Y-65937904D01*
X97799207Y-66008736D01*
X97784260Y-66074230D01*
X97782502Y-66136922D01*
X97719786Y-66138683D01*
X97654291Y-66153633D01*
X97583484Y-66185319D01*
X97508367Y-66204694D01*
X97447842Y-66233840D01*
X97385847Y-66280494D01*
X97316913Y-66316106D01*
X97264390Y-66357991D01*
X97214329Y-66417273D01*
X97155047Y-66467334D01*
X97113162Y-66519857D01*
X97077556Y-66588780D01*
X97030906Y-66650765D01*
X97001757Y-66711291D01*
X96982373Y-66786431D01*
X96950680Y-66857263D01*
X96935733Y-66922757D01*
X96933559Y-67000303D01*
X96918424Y-67076392D01*
X96918424Y-67143570D01*
X96933558Y-67219656D01*
X96935732Y-67297201D01*
X96950679Y-67362697D01*
X96982370Y-67433526D01*
X97001753Y-67508665D01*
X97030901Y-67569191D01*
X97077559Y-67631189D01*
X97113174Y-67700124D01*
X97155060Y-67752645D01*
X97184929Y-67777866D01*
X97188846Y-67783728D01*
X97121995Y-67818265D01*
X97069473Y-67860151D01*
X97044249Y-67890023D01*
X97011743Y-67911743D01*
X86172251Y-78751235D01*
X85778936Y-78673000D01*
X85721064Y-78673000D01*
X85155841Y-78785430D01*
X84676667Y-79105603D01*
X84356494Y-79584777D01*
X84244064Y-80150000D01*
X84356494Y-80715223D01*
X84676667Y-81194397D01*
X85014307Y-81420000D01*
X84676667Y-81645603D01*
X84480000Y-81939937D01*
X84283333Y-81645603D01*
X83804159Y-81325430D01*
X83238936Y-81213000D01*
X83181064Y-81213000D01*
X82615841Y-81325430D01*
X82597000Y-81338019D01*
X82597000Y-77555600D01*
X82817443Y-77511751D01*
X82888922Y-77482143D01*
X83061488Y-77410664D01*
X83710332Y-76977120D01*
X83710335Y-76977119D01*
X83897119Y-76790335D01*
X84330664Y-76141488D01*
X84373491Y-76038093D01*
X84431751Y-75897443D01*
X84583992Y-75132077D01*
X84583992Y-75065396D01*
X84597000Y-75000000D01*
X84597000Y-72279997D01*
X84626667Y-72324397D01*
X85105841Y-72644570D01*
X85671064Y-72757000D01*
X85728936Y-72757000D01*
X86294159Y-72644570D01*
X86773333Y-72324397D01*
X87093506Y-71845223D01*
X87205936Y-71280000D01*
X87093506Y-70714777D01*
X86773333Y-70235603D01*
X86435693Y-70010000D01*
X86773333Y-69784397D01*
X87093506Y-69305223D01*
X87205936Y-68740000D01*
X87093506Y-68174777D01*
X86773333Y-67695603D01*
X86294159Y-67375430D01*
X85728936Y-67263000D01*
X85671064Y-67263000D01*
X85105841Y-67375430D01*
X84626667Y-67695603D01*
X84402284Y-68031417D01*
X84367767Y-67948088D01*
X84330664Y-67858512D01*
X83897119Y-67209665D01*
X83710335Y-67022881D01*
X83710332Y-67022880D01*
X83061488Y-66589336D01*
X82880021Y-66514170D01*
X82817443Y-66488249D01*
X82597000Y-66444400D01*
X82597000Y-37555600D01*
X82817443Y-37511751D01*
X82888922Y-37482143D01*
X83061488Y-37410664D01*
X83710332Y-36977120D01*
X83710335Y-36977119D01*
X83897119Y-36790335D01*
X84330664Y-36141488D01*
X84373491Y-36038093D01*
X84431751Y-35897443D01*
X84583992Y-35132077D01*
X84583992Y-35065396D01*
X84597000Y-35000000D01*
X84597000Y-24677000D01*
X95364400Y-24677000D01*
X95484369Y-25280126D01*
X95484369Y-25280126D01*
G37*
X95484369Y-25280126D02*
X95539685Y-25413669D01*
X95585456Y-25524171D01*
X96235775Y-26497441D01*
X96422559Y-26684225D01*
X97395828Y-27334544D01*
X97467308Y-27364151D01*
X97639874Y-27435631D01*
X98787924Y-27663992D01*
X98854604Y-27663992D01*
X98920000Y-27677000D01*
X110720000Y-27677000D01*
X110785396Y-27663992D01*
X110852076Y-27663992D01*
X112000126Y-27435631D01*
X112154022Y-27371885D01*
X112244171Y-27334544D01*
X113217441Y-26684225D01*
X113404225Y-26497441D01*
X114054544Y-25524172D01*
X114086095Y-25448000D01*
X114155631Y-25280126D01*
X114275600Y-24677000D01*
X172243000Y-24677000D01*
X172243000Y-32000000D01*
X172256008Y-32065396D01*
X172256008Y-32132076D01*
X172332128Y-32514758D01*
X172433215Y-32758804D01*
X172649988Y-33083228D01*
X172836772Y-33270012D01*
X173161196Y-33486785D01*
X173243000Y-33520669D01*
X173243000Y-42780717D01*
X172907138Y-41967868D01*
X171972055Y-41031151D01*
X170749685Y-40523579D01*
X169426122Y-40522424D01*
X168202868Y-41027862D01*
X167266151Y-41962945D01*
X166758579Y-43185315D01*
X166757424Y-44508878D01*
X167262862Y-45732132D01*
X168197945Y-46668849D01*
X169420315Y-47176421D01*
X170743878Y-47177576D01*
X171967132Y-46672138D01*
X172903849Y-45737055D01*
X173243000Y-44920288D01*
X173243000Y-50501564D01*
X173084159Y-50395430D01*
X172518936Y-50283000D01*
X172461064Y-50283000D01*
X172044594Y-50365841D01*
X171904244Y-50272062D01*
X171640001Y-50219501D01*
X168730000Y-50219501D01*
X168679726Y-50229501D01*
X159810899Y-50229501D01*
X158938257Y-49356860D01*
X158065069Y-48483672D01*
X157841055Y-48333990D01*
X157576812Y-48281429D01*
X156987500Y-48281429D01*
X155616029Y-46909959D01*
X155666425Y-46910003D01*
X156007259Y-46769173D01*
X156255307Y-46521557D01*
X156329219Y-46700438D01*
X156751735Y-47123692D01*
X157304061Y-47353038D01*
X157902111Y-47353560D01*
X158454836Y-47125179D01*
X158878090Y-46702663D01*
X159107436Y-46150337D01*
X159107958Y-45552287D01*
X158879577Y-44999562D01*
X158457061Y-44576308D01*
X157904735Y-44346962D01*
X157306685Y-44346440D01*
X156753960Y-44574821D01*
X156330706Y-44997337D01*
X156177414Y-45366505D01*
X156008631Y-45197428D01*
X155792260Y-45107583D01*
X155703489Y-44892741D01*
X155442947Y-44631744D01*
X155102359Y-44490319D01*
X154733575Y-44489997D01*
X154392741Y-44630827D01*
X154131744Y-44891369D01*
X153990319Y-45231957D01*
X153989997Y-45600741D01*
X154130827Y-45941575D01*
X154391369Y-46202572D01*
X154607740Y-46292417D01*
X154696511Y-46507259D01*
X154803565Y-46614500D01*
X151999997Y-46614500D01*
X151583738Y-46198242D01*
X151359724Y-46048560D01*
X151095481Y-45995999D01*
X146730721Y-45995999D01*
X146659724Y-45948560D01*
X146626973Y-45942045D01*
X146627161Y-45726417D01*
X146537693Y-45509888D01*
X146626839Y-45295201D01*
X146627161Y-44926417D01*
X146486331Y-44585583D01*
X146225789Y-44324586D01*
X145885201Y-44183161D01*
X145516417Y-44182839D01*
X145181101Y-44321389D01*
X145088698Y-44228986D01*
X145088698Y-42106014D01*
X145387389Y-41807324D01*
X145554799Y-41876839D01*
X145923583Y-41877161D01*
X146264417Y-41736331D01*
X146525414Y-41475789D01*
X146598676Y-41299354D01*
X149267068Y-41299354D01*
X149407898Y-41640188D01*
X149668440Y-41901185D01*
X150009028Y-42042610D01*
X150377812Y-42042932D01*
X150718646Y-41902102D01*
X150979643Y-41641560D01*
X151065329Y-41435206D01*
X151270188Y-41350560D01*
X151531185Y-41090018D01*
X151583003Y-40965226D01*
X151582839Y-41153583D01*
X151668165Y-41360087D01*
X151583161Y-41564799D01*
X151582839Y-41933583D01*
X151723669Y-42274417D01*
X151984211Y-42535414D01*
X152324799Y-42676839D01*
X152693583Y-42677161D01*
X153034417Y-42536331D01*
X153295414Y-42275789D01*
X153296330Y-42273583D01*
X156272839Y-42273583D01*
X156413669Y-42614417D01*
X156674211Y-42875414D01*
X157014799Y-43016839D01*
X157383583Y-43017161D01*
X157724417Y-42876331D01*
X157985414Y-42615789D01*
X158126839Y-42275201D01*
X158127161Y-41906417D01*
X157986331Y-41565583D01*
X157725789Y-41304586D01*
X157385201Y-41163161D01*
X157016417Y-41162839D01*
X156675583Y-41303669D01*
X156414586Y-41564211D01*
X156273161Y-41904799D01*
X156272839Y-42273583D01*
X153296330Y-42273583D01*
X153436839Y-41935201D01*
X153437161Y-41566417D01*
X153351835Y-41359913D01*
X153436839Y-41155201D01*
X153437161Y-40786417D01*
X153296331Y-40445583D01*
X153183702Y-40332757D01*
X153186839Y-40325201D01*
X153187161Y-39956417D01*
X153101835Y-39749913D01*
X153186839Y-39545201D01*
X153187161Y-39176417D01*
X153046331Y-38835583D01*
X152785789Y-38574586D01*
X152445201Y-38433161D01*
X152076417Y-38432839D01*
X151735583Y-38573669D01*
X151474586Y-38834211D01*
X151333161Y-39174799D01*
X151332839Y-39543583D01*
X151418165Y-39750087D01*
X151366673Y-39874094D01*
X151271560Y-39778815D01*
X150930972Y-39637390D01*
X150562188Y-39637068D01*
X150221354Y-39777898D01*
X149960357Y-40038440D01*
X149874671Y-40244794D01*
X149669812Y-40329440D01*
X149408815Y-40589982D01*
X149267390Y-40930570D01*
X149267068Y-41299354D01*
X146598676Y-41299354D01*
X146666839Y-41135201D01*
X146667161Y-40766417D01*
X146577693Y-40549888D01*
X146666839Y-40335201D01*
X146667161Y-39966417D01*
X146526331Y-39625583D01*
X146265789Y-39364586D01*
X145925201Y-39223161D01*
X145556417Y-39222839D01*
X145215583Y-39363669D01*
X144954586Y-39624211D01*
X144924019Y-39697824D01*
X144716112Y-39836744D01*
X143446743Y-41106113D01*
X143297061Y-41330127D01*
X143244500Y-41594370D01*
X143244500Y-44688198D01*
X143297061Y-44952441D01*
X143446743Y-45176455D01*
X144166287Y-45895999D01*
X141668136Y-45895999D01*
X141559724Y-45823560D01*
X141295481Y-45770999D01*
X140183501Y-45770999D01*
X139919258Y-45823560D01*
X139695244Y-45973241D01*
X139290529Y-46377956D01*
X139156417Y-46377839D01*
X138815583Y-46518669D01*
X138554586Y-46779211D01*
X138413161Y-47119799D01*
X138412839Y-47488583D01*
X138553669Y-47829417D01*
X138814211Y-48090414D01*
X139154799Y-48231839D01*
X139523583Y-48232161D01*
X139864417Y-48091331D01*
X140125414Y-47830789D01*
X140266839Y-47490201D01*
X140266957Y-47354557D01*
X140469516Y-47151999D01*
X141047826Y-47151999D01*
X141156238Y-47224438D01*
X141420481Y-47276999D01*
X146160241Y-47276999D01*
X146231238Y-47324438D01*
X146495481Y-47376999D01*
X150809467Y-47376999D01*
X151225725Y-47793258D01*
X151449739Y-47942939D01*
X151713982Y-47995500D01*
X154748542Y-47995500D01*
X155702541Y-48949500D01*
X140880555Y-48949500D01*
X140795789Y-48864586D01*
X140455201Y-48723161D01*
X140086417Y-48722839D01*
X139745583Y-48863669D01*
X139484586Y-49124211D01*
X139343161Y-49464799D01*
X139342839Y-49833583D01*
X139483669Y-50174417D01*
X139744211Y-50435414D01*
X140084799Y-50576839D01*
X140453583Y-50577161D01*
X140794417Y-50436331D01*
X140900433Y-50330500D01*
X156369462Y-50330500D01*
X156464211Y-50425414D01*
X156804799Y-50566839D01*
X157009413Y-50567018D01*
X157025756Y-50577938D01*
X157289999Y-50630499D01*
X157796408Y-50630499D01*
X158901175Y-51735268D01*
X159125190Y-51884950D01*
X159389433Y-51937511D01*
X166860997Y-51937511D01*
X169711742Y-54788257D01*
X169826930Y-54865223D01*
X169935757Y-54937939D01*
X170200000Y-54990500D01*
X171180201Y-54990500D01*
X171416667Y-55344397D01*
X171895841Y-55664570D01*
X172461064Y-55777000D01*
X172518936Y-55777000D01*
X173084159Y-55664570D01*
X173243000Y-55558436D01*
X173243000Y-66444400D01*
X173022557Y-66488249D01*
X172885161Y-66545161D01*
X172778512Y-66589336D01*
X172129665Y-67022881D01*
X171942881Y-67209665D01*
X171942881Y-67209666D01*
X171509336Y-67858512D01*
X171448701Y-68004899D01*
X171408249Y-68102557D01*
X171256008Y-68867924D01*
X171256008Y-68934604D01*
X171243000Y-69000000D01*
X171243000Y-75000000D01*
X171256008Y-75065396D01*
X171256008Y-75132076D01*
X171408249Y-75897443D01*
X171430019Y-75950000D01*
X171509336Y-76141488D01*
X171942880Y-76790332D01*
X171942881Y-76790335D01*
X172129665Y-76977119D01*
X172778512Y-77410664D01*
X172879599Y-77452535D01*
X173022557Y-77511751D01*
X173243000Y-77555600D01*
X173243000Y-89780717D01*
X172907138Y-88967868D01*
X171972055Y-88031151D01*
X170749685Y-87523579D01*
X169426122Y-87522424D01*
X168202868Y-88027862D01*
X167266151Y-88962945D01*
X166758579Y-90185315D01*
X166757424Y-91508878D01*
X167262862Y-92732132D01*
X168197945Y-93668849D01*
X169420315Y-94176421D01*
X170743878Y-94177576D01*
X171967132Y-93672138D01*
X172903849Y-92737055D01*
X173243000Y-91920288D01*
X173243000Y-106444400D01*
X173022557Y-106488249D01*
X172879599Y-106547465D01*
X172778512Y-106589336D01*
X172129665Y-107022881D01*
X171942881Y-107209665D01*
X171942881Y-107209666D01*
X171509336Y-107858512D01*
X171437857Y-108031078D01*
X171408249Y-108102557D01*
X171256008Y-108867924D01*
X171256008Y-108934604D01*
X171243000Y-109000000D01*
X171243000Y-119323000D01*
X149475600Y-119323000D01*
X149355631Y-118719874D01*
X149254544Y-118475829D01*
X149254544Y-118475828D01*
X148604225Y-117502559D01*
X148417441Y-117315775D01*
X147444171Y-116665456D01*
X147354022Y-116628115D01*
X147200126Y-116564369D01*
X146179009Y-116361257D01*
X146510130Y-116030135D01*
X146510133Y-116030133D01*
X146700242Y-115745613D01*
X146715010Y-115671370D01*
X146767001Y-115410000D01*
X146767000Y-115409995D01*
X146767000Y-114835985D01*
X147707610Y-114835985D01*
X148049734Y-115663989D01*
X148682679Y-116298039D01*
X149510084Y-116641608D01*
X150405985Y-116642390D01*
X151233989Y-116300266D01*
X151868039Y-115667321D01*
X152211608Y-114839916D01*
X152211611Y-114835985D01*
X159137610Y-114835985D01*
X159479734Y-115663989D01*
X160112679Y-116298039D01*
X160940084Y-116641608D01*
X161835985Y-116642390D01*
X162663989Y-116300266D01*
X163298039Y-115667321D01*
X163641608Y-114839916D01*
X163641642Y-114800000D01*
X165043000Y-114800000D01*
X165216326Y-115671370D01*
X165709918Y-116410082D01*
X166448630Y-116903674D01*
X167320000Y-117077000D01*
X168191370Y-116903674D01*
X168930082Y-116410082D01*
X169423674Y-115671370D01*
X169597000Y-114800000D01*
X169423674Y-113928630D01*
X168930082Y-113189918D01*
X168191370Y-112696326D01*
X167320000Y-112523000D01*
X166448630Y-112696326D01*
X165709918Y-113189918D01*
X165216326Y-113928630D01*
X165043000Y-114800000D01*
X163641642Y-114800000D01*
X163642390Y-113944015D01*
X163300266Y-113116011D01*
X162667321Y-112481961D01*
X161839916Y-112138392D01*
X160944015Y-112137610D01*
X160116011Y-112479734D01*
X159481961Y-113112679D01*
X159138392Y-113940084D01*
X159137610Y-114835985D01*
X152211611Y-114835985D01*
X152212390Y-113944015D01*
X151870266Y-113116011D01*
X151237321Y-112481961D01*
X150409916Y-112138392D01*
X149514015Y-112137610D01*
X148686011Y-112479734D01*
X148051961Y-113112679D01*
X147708392Y-113940084D01*
X147707610Y-114835985D01*
X146767000Y-114835985D01*
X146767000Y-111820005D01*
X146767001Y-111820000D01*
X146700242Y-111484387D01*
X146667243Y-111435000D01*
X146510133Y-111199867D01*
X146510130Y-111199865D01*
X146175133Y-110864867D01*
X145890613Y-110674758D01*
X145555000Y-110608000D01*
X142985226Y-110608000D01*
X142865201Y-110558161D01*
X142496417Y-110557839D01*
X142155583Y-110698669D01*
X141894586Y-110959211D01*
X141753161Y-111299799D01*
X141752839Y-111668583D01*
X141893669Y-112009417D01*
X142154211Y-112270414D01*
X142494799Y-112411839D01*
X142863583Y-112412161D01*
X142984982Y-112362000D01*
X145013000Y-112362000D01*
X145013000Y-115046735D01*
X144886734Y-115173000D01*
X143618360Y-115173000D01*
X143625753Y-115168243D01*
X143768917Y-114958717D01*
X143819283Y-114710000D01*
X143819283Y-114210000D01*
X143775563Y-113977648D01*
X143638243Y-113764247D01*
X143428717Y-113621083D01*
X143180000Y-113570717D01*
X143005646Y-113570717D01*
X142915201Y-113533161D01*
X142546417Y-113532839D01*
X142454745Y-113570717D01*
X142280000Y-113570717D01*
X142047648Y-113614437D01*
X141834247Y-113751757D01*
X141691083Y-113961283D01*
X141640717Y-114210000D01*
X141640717Y-114710000D01*
X141684437Y-114942352D01*
X141821757Y-115155753D01*
X141846999Y-115173000D01*
X140643360Y-115173000D01*
X140650753Y-115168243D01*
X140793917Y-114958717D01*
X140844283Y-114710000D01*
X140844283Y-114210000D01*
X140800563Y-113977648D01*
X140663243Y-113764247D01*
X140453717Y-113621083D01*
X140205000Y-113570717D01*
X140030646Y-113570717D01*
X139940201Y-113533161D01*
X139571417Y-113532839D01*
X139479745Y-113570717D01*
X139305000Y-113570717D01*
X139072648Y-113614437D01*
X138859247Y-113751757D01*
X138716083Y-113961283D01*
X138665717Y-114210000D01*
X138665717Y-114710000D01*
X138709437Y-114942352D01*
X138846757Y-115155753D01*
X138871999Y-115173000D01*
X138062956Y-115173000D01*
X138225753Y-115068243D01*
X138368917Y-114858717D01*
X138419283Y-114610000D01*
X138419283Y-114110000D01*
X138375563Y-113877648D01*
X138238243Y-113664247D01*
X138028717Y-113521083D01*
X137780000Y-113470717D01*
X137605646Y-113470717D01*
X137515201Y-113433161D01*
X137146417Y-113432839D01*
X137054745Y-113470717D01*
X136880000Y-113470717D01*
X136647648Y-113514437D01*
X136434247Y-113651757D01*
X136291083Y-113861283D01*
X136240717Y-114110000D01*
X136240717Y-114610000D01*
X136284437Y-114842352D01*
X136421757Y-115055753D01*
X136593352Y-115173000D01*
X127823266Y-115173000D01*
X127072000Y-114421734D01*
X127072000Y-111110000D01*
X133790717Y-111110000D01*
X133790717Y-111710000D01*
X133834437Y-111942352D01*
X133971757Y-112155753D01*
X134181283Y-112298917D01*
X134430000Y-112349283D01*
X134880000Y-112349283D01*
X135112352Y-112305563D01*
X135325753Y-112168243D01*
X135330019Y-112162000D01*
X136495899Y-112162000D01*
X136554211Y-112220414D01*
X136894799Y-112361839D01*
X137263583Y-112362161D01*
X137604417Y-112221331D01*
X137865414Y-111960789D01*
X138006839Y-111620201D01*
X138007161Y-111251417D01*
X137866331Y-110910583D01*
X137605789Y-110649586D01*
X137265201Y-110508161D01*
X136896417Y-110507839D01*
X136555583Y-110648669D01*
X136546236Y-110658000D01*
X135329100Y-110658000D01*
X135128717Y-110521083D01*
X134880000Y-110470717D01*
X134430000Y-110470717D01*
X134197648Y-110514437D01*
X133984247Y-110651757D01*
X133841083Y-110861283D01*
X133790717Y-111110000D01*
X127072000Y-111110000D01*
X127072000Y-111020226D01*
X127121839Y-110900201D01*
X127122161Y-110531417D01*
X126981331Y-110190583D01*
X126720789Y-109929586D01*
X126380201Y-109788161D01*
X126011417Y-109787839D01*
X125670583Y-109928669D01*
X125409586Y-110189211D01*
X125268161Y-110529799D01*
X125267839Y-110898583D01*
X125318000Y-111019982D01*
X125318000Y-112488041D01*
X125086417Y-112487839D01*
X124888220Y-112569732D01*
X121347000Y-109028512D01*
X121347000Y-108149145D01*
X121380414Y-108115789D01*
X121521839Y-107775201D01*
X121522161Y-107406417D01*
X121381331Y-107065583D01*
X121120789Y-106804586D01*
X120780201Y-106663161D01*
X120411417Y-106662839D01*
X120070583Y-106803669D01*
X119809586Y-107064211D01*
X119668161Y-107404799D01*
X119667839Y-107773583D01*
X119808669Y-108114417D01*
X119843000Y-108148808D01*
X119843000Y-109340000D01*
X119900243Y-109627778D01*
X120063256Y-109871744D01*
X124138256Y-113946744D01*
X124382222Y-114109757D01*
X124670000Y-114167000D01*
X124710855Y-114167000D01*
X124744211Y-114200414D01*
X125084799Y-114341839D01*
X125318000Y-114342043D01*
X125318000Y-114785000D01*
X125384758Y-115120613D01*
X125574867Y-115405133D01*
X126492734Y-116323000D01*
X122120000Y-116323000D01*
X122054604Y-116336008D01*
X120839874Y-116564369D01*
X120696205Y-116623879D01*
X120595828Y-116665456D01*
X119622559Y-117315775D01*
X119435775Y-117502559D01*
X118785456Y-118475829D01*
X118757769Y-118542671D01*
X118684369Y-118719874D01*
X118564400Y-119323000D01*
X84597000Y-119323000D01*
X84597000Y-114800000D01*
X85043000Y-114800000D01*
X85216326Y-115671370D01*
X85709918Y-116410082D01*
X86448630Y-116903674D01*
X87320000Y-117077000D01*
X88191370Y-116903674D01*
X88930082Y-116410082D01*
X89423674Y-115671370D01*
X89438425Y-115597211D01*
X105747718Y-115597211D01*
X105994892Y-116195418D01*
X106452175Y-116653499D01*
X107049950Y-116901717D01*
X107697211Y-116902282D01*
X108295418Y-116655108D01*
X108753499Y-116197825D01*
X109001717Y-115600050D01*
X109002282Y-114952789D01*
X108755108Y-114354582D01*
X108297825Y-113896501D01*
X107700050Y-113648283D01*
X107052789Y-113647718D01*
X106454582Y-113894892D01*
X105996501Y-114352175D01*
X105748283Y-114949950D01*
X105747718Y-115597211D01*
X89438425Y-115597211D01*
X89597000Y-114800000D01*
X89423674Y-113928630D01*
X88930082Y-113189918D01*
X88191370Y-112696326D01*
X87320000Y-112523000D01*
X86448630Y-112696326D01*
X85709918Y-113189918D01*
X85216326Y-113928630D01*
X85043000Y-114800000D01*
X84597000Y-114800000D01*
X84597000Y-104000000D01*
X84583992Y-103934604D01*
X84583992Y-103867923D01*
X84431751Y-103102557D01*
X84361024Y-102931808D01*
X84330664Y-102858512D01*
X83897119Y-102209665D01*
X83710335Y-102022881D01*
X83710332Y-102022880D01*
X83204657Y-101684998D01*
X130828000Y-101684998D01*
X130828000Y-106710000D01*
X130885243Y-106997778D01*
X131048256Y-107241744D01*
X133648256Y-109841744D01*
X133892222Y-110004757D01*
X133945800Y-110015414D01*
X133971757Y-110055753D01*
X134181283Y-110198917D01*
X134430000Y-110249283D01*
X134880000Y-110249283D01*
X135112352Y-110205563D01*
X135325753Y-110068243D01*
X135468917Y-109858717D01*
X135519283Y-109610000D01*
X135519283Y-109010000D01*
X135475563Y-108777648D01*
X135338243Y-108564247D01*
X135128717Y-108421083D01*
X134880000Y-108370717D01*
X134430000Y-108370717D01*
X134324126Y-108390638D01*
X132332000Y-106398512D01*
X132332000Y-102440001D01*
X132444799Y-102486839D01*
X132493393Y-102486881D01*
X135653000Y-105646488D01*
X135653000Y-106300855D01*
X135619586Y-106334211D01*
X135478161Y-106674799D01*
X135477839Y-107043583D01*
X135618669Y-107384417D01*
X135879211Y-107645414D01*
X136219799Y-107786839D01*
X136588583Y-107787161D01*
X136929417Y-107646331D01*
X137190414Y-107385789D01*
X137331839Y-107045201D01*
X137332161Y-106676417D01*
X137191331Y-106335583D01*
X137157000Y-106301192D01*
X137157000Y-105335000D01*
X137099757Y-105047222D01*
X137030508Y-104943583D01*
X138302839Y-104943583D01*
X138443669Y-105284417D01*
X138704211Y-105545414D01*
X139044799Y-105686839D01*
X139413583Y-105687161D01*
X139754417Y-105546331D01*
X140015414Y-105285789D01*
X140156839Y-104945201D01*
X140157161Y-104576417D01*
X140016331Y-104235583D01*
X139755789Y-103974586D01*
X139415201Y-103833161D01*
X139046417Y-103832839D01*
X138705583Y-103973669D01*
X138444586Y-104234211D01*
X138303161Y-104574799D01*
X138302839Y-104943583D01*
X137030508Y-104943583D01*
X136936744Y-104803256D01*
X133557120Y-101423632D01*
X133557161Y-101376417D01*
X133416331Y-101035583D01*
X133354671Y-100973815D01*
X134841498Y-99486989D01*
X135038583Y-99487161D01*
X135379417Y-99346331D01*
X135640414Y-99085789D01*
X135781839Y-98745201D01*
X135782161Y-98376417D01*
X135641331Y-98035583D01*
X135380789Y-97774586D01*
X135040201Y-97633161D01*
X134671417Y-97632839D01*
X134330583Y-97773669D01*
X134069586Y-98034211D01*
X134000201Y-98201308D01*
X131048256Y-101153254D01*
X130885243Y-101397220D01*
X130828000Y-101684998D01*
X83204657Y-101684998D01*
X83061488Y-101589336D01*
X82888922Y-101517857D01*
X82817443Y-101488249D01*
X82618278Y-101448633D01*
X82597000Y-100463728D01*
X82597000Y-97906981D01*
X82615841Y-97919570D01*
X83181064Y-98032000D01*
X83238936Y-98032000D01*
X83804159Y-97919570D01*
X84283333Y-97599397D01*
X84294227Y-97583092D01*
X84304437Y-97637352D01*
X84441757Y-97850753D01*
X84651283Y-97993917D01*
X84900000Y-98044283D01*
X86600000Y-98044283D01*
X86832352Y-98000563D01*
X87045753Y-97863243D01*
X87188917Y-97653717D01*
X87239283Y-97405000D01*
X87239283Y-96708583D01*
X107297839Y-96708583D01*
X107438669Y-97049417D01*
X107699211Y-97310414D01*
X108039799Y-97451839D01*
X108408583Y-97452161D01*
X108749417Y-97311331D01*
X109010414Y-97050789D01*
X109151839Y-96710201D01*
X109152161Y-96341417D01*
X109011331Y-96000583D01*
X108750789Y-95739586D01*
X108410201Y-95598161D01*
X108041417Y-95597839D01*
X107700583Y-95738669D01*
X107439586Y-95999211D01*
X107298161Y-96339799D01*
X107297839Y-96708583D01*
X87239283Y-96708583D01*
X87239283Y-95705000D01*
X87195563Y-95472648D01*
X87058243Y-95259247D01*
X86848717Y-95116083D01*
X86764131Y-95098954D01*
X86823333Y-95059397D01*
X87143506Y-94580223D01*
X87255936Y-94015000D01*
X87143506Y-93449777D01*
X86823333Y-92970603D01*
X86485693Y-92745000D01*
X86823333Y-92519397D01*
X87143506Y-92040223D01*
X87249197Y-91508878D01*
X90997424Y-91508878D01*
X91502862Y-92732132D01*
X92437945Y-93668849D01*
X93660315Y-94176421D01*
X94983878Y-94177576D01*
X96207132Y-93672138D01*
X97143849Y-92737055D01*
X97651421Y-91514685D01*
X97651468Y-91460490D01*
X110588909Y-91460490D01*
X110588909Y-92450000D01*
X110637017Y-92691856D01*
X110774018Y-92896891D01*
X110979053Y-93033892D01*
X111220909Y-93082000D01*
X112609364Y-93082000D01*
X112609364Y-96029091D01*
X112657472Y-96270947D01*
X112794473Y-96475982D01*
X112999508Y-96612983D01*
X113241364Y-96661091D01*
X114280455Y-96661091D01*
X114522311Y-96612983D01*
X114727346Y-96475982D01*
X114864347Y-96270947D01*
X114912455Y-96029091D01*
X114912455Y-93112766D01*
X115125555Y-93123812D01*
X115442542Y-93151165D01*
X115708297Y-93186467D01*
X115939670Y-93230459D01*
X116155921Y-93285043D01*
X116380302Y-93354605D01*
X117010395Y-93621865D01*
X117577151Y-93965711D01*
X118090001Y-94385442D01*
X118537134Y-94870369D01*
X118909659Y-95412488D01*
X119161017Y-95912401D01*
X119315673Y-96276294D01*
X119383535Y-96375867D01*
X119450430Y-96475982D01*
X119452883Y-96477621D01*
X119454548Y-96480064D01*
X119555291Y-96546048D01*
X119655465Y-96612983D01*
X119658366Y-96613560D01*
X119660833Y-96615176D01*
X119779074Y-96637570D01*
X119897321Y-96661091D01*
X120904762Y-96661091D01*
X121012167Y-96639727D01*
X121120399Y-96623165D01*
X121132611Y-96615769D01*
X121146618Y-96612983D01*
X121237666Y-96552146D01*
X121331328Y-96495423D01*
X121339782Y-96483914D01*
X121351653Y-96475982D01*
X121412490Y-96384934D01*
X121477314Y-96296686D01*
X121480719Y-96282822D01*
X121488654Y-96270947D01*
X121510019Y-96163537D01*
X121536136Y-96057210D01*
X121533976Y-96043096D01*
X121536762Y-96029091D01*
X121515398Y-95921687D01*
X121498836Y-95813453D01*
X121358463Y-95426730D01*
X121347845Y-95409197D01*
X121343455Y-95389176D01*
X120995987Y-94594493D01*
X120972154Y-94560287D01*
X120957986Y-94521077D01*
X120520096Y-93795661D01*
X120491457Y-93764261D01*
X120471826Y-93726572D01*
X119949052Y-93075519D01*
X119916156Y-93047929D01*
X119891382Y-93012861D01*
X119289266Y-92441263D01*
X119252918Y-92418320D01*
X119223615Y-92386868D01*
X118547696Y-91899821D01*
X118508903Y-91882121D01*
X118475931Y-91855083D01*
X117731751Y-91457679D01*
X117691627Y-91445524D01*
X117656003Y-91423427D01*
X116849101Y-91120761D01*
X116823986Y-91116643D01*
X116801357Y-91104988D01*
X116602460Y-91047951D01*
X116596260Y-91047436D01*
X116590676Y-91044695D01*
X116448492Y-91006882D01*
X116440986Y-91006404D01*
X116434156Y-91003248D01*
X116305301Y-90972189D01*
X116291234Y-90971624D01*
X116278210Y-90966285D01*
X116149585Y-90941194D01*
X116132641Y-90941257D01*
X116116646Y-90935668D01*
X115975155Y-90915758D01*
X115959974Y-90916617D01*
X115945399Y-90912288D01*
X115777944Y-90896772D01*
X115766835Y-90897931D01*
X115756021Y-90895124D01*
X115549502Y-90883214D01*
X115542343Y-90884214D01*
X115535310Y-90882556D01*
X115276632Y-90873466D01*
X115272395Y-90874155D01*
X115268204Y-90873226D01*
X114944267Y-90866168D01*
X114941939Y-90866579D01*
X114939628Y-90866084D01*
X114537337Y-90860273D01*
X114536196Y-90860483D01*
X114535060Y-90860244D01*
X114041316Y-90854891D01*
X114040901Y-90854969D01*
X114040489Y-90854883D01*
X113550457Y-90850211D01*
X113550394Y-90850223D01*
X113550332Y-90850210D01*
X111226809Y-90828518D01*
X111223858Y-90829076D01*
X111220909Y-90828490D01*
X111102780Y-90851987D01*
X110984514Y-90874366D01*
X110982001Y-90876012D01*
X110979053Y-90876598D01*
X110878928Y-90943500D01*
X110778209Y-91009447D01*
X110776516Y-91011930D01*
X110774018Y-91013599D01*
X110707129Y-91113704D01*
X110639300Y-91213194D01*
X110638686Y-91216136D01*
X110637017Y-91218634D01*
X110613525Y-91336739D01*
X110588937Y-91454590D01*
X110589495Y-91457541D01*
X110588909Y-91460490D01*
X97651468Y-91460490D01*
X97652576Y-90191122D01*
X97147138Y-88967868D01*
X96212055Y-88031151D01*
X94989685Y-87523579D01*
X93666122Y-87522424D01*
X92442868Y-88027862D01*
X91506151Y-88962945D01*
X90998579Y-90185315D01*
X90997424Y-91508878D01*
X87249197Y-91508878D01*
X87255936Y-91475000D01*
X87219456Y-91291601D01*
X87363544Y-91262940D01*
X87587558Y-91113258D01*
X99250816Y-79450000D01*
X109760717Y-79450000D01*
X109760717Y-85250000D01*
X109804437Y-85482352D01*
X109941757Y-85695753D01*
X110151283Y-85838917D01*
X110400000Y-85889283D01*
X116200000Y-85889283D01*
X116432352Y-85845563D01*
X116645753Y-85708243D01*
X116788917Y-85498717D01*
X116839283Y-85250000D01*
X116839283Y-79450000D01*
X116795563Y-79217648D01*
X116658243Y-79004247D01*
X116448717Y-78861083D01*
X116200000Y-78810717D01*
X110400000Y-78810717D01*
X110167648Y-78854437D01*
X109954247Y-78991757D01*
X109811083Y-79201283D01*
X109760717Y-79450000D01*
X99250816Y-79450000D01*
X106057233Y-72643583D01*
X143892839Y-72643583D01*
X144033669Y-72984417D01*
X144294211Y-73245414D01*
X144368001Y-73276054D01*
X144368001Y-80013167D01*
X144420486Y-80277027D01*
X144569951Y-80500717D01*
X146748000Y-82678766D01*
X146748000Y-88117308D01*
X146800485Y-88381168D01*
X146949950Y-88604858D01*
X153573000Y-95227908D01*
X153573000Y-99689642D01*
X153323566Y-99439772D01*
X152790088Y-99218253D01*
X152212447Y-99217749D01*
X151678583Y-99438337D01*
X151269772Y-99846434D01*
X151230176Y-99941792D01*
X151191663Y-99848583D01*
X150783566Y-99439772D01*
X150250088Y-99218253D01*
X149672447Y-99217749D01*
X149138583Y-99438337D01*
X148729772Y-99846434D01*
X148508253Y-100379912D01*
X148507749Y-100957553D01*
X148728337Y-101491417D01*
X149136434Y-101900228D01*
X149669912Y-102121747D01*
X150247553Y-102122251D01*
X150781417Y-101901663D01*
X151190228Y-101493566D01*
X151229824Y-101398208D01*
X151268337Y-101491417D01*
X151676434Y-101900228D01*
X152209912Y-102121747D01*
X152787553Y-102122251D01*
X152959213Y-102051323D01*
X152948000Y-102107692D01*
X152948000Y-104195033D01*
X152775104Y-104123240D01*
X152227299Y-104122762D01*
X151721011Y-104331956D01*
X151333317Y-104718974D01*
X151230005Y-104967776D01*
X151128044Y-104721011D01*
X150741026Y-104333317D01*
X150235104Y-104123240D01*
X149687299Y-104122762D01*
X149181011Y-104331956D01*
X148793317Y-104718974D01*
X148583240Y-105224896D01*
X148582762Y-105772701D01*
X148791956Y-106278989D01*
X149178974Y-106666683D01*
X149684896Y-106876760D01*
X150232701Y-106877238D01*
X150738989Y-106668044D01*
X151126683Y-106281026D01*
X151229995Y-106032224D01*
X151331956Y-106278989D01*
X151718974Y-106666683D01*
X152224896Y-106876760D01*
X152772701Y-106877238D01*
X153080500Y-106750058D01*
X153080500Y-106834980D01*
X152991011Y-106871956D01*
X152603317Y-107258974D01*
X152500005Y-107507776D01*
X152398044Y-107261011D01*
X152011026Y-106873317D01*
X151505104Y-106663240D01*
X150957299Y-106662762D01*
X150451011Y-106871956D01*
X150063317Y-107258974D01*
X149853240Y-107764896D01*
X149852762Y-108312701D01*
X150061956Y-108818989D01*
X150448974Y-109206683D01*
X150954896Y-109416760D01*
X151502701Y-109417238D01*
X152008989Y-109208044D01*
X152396683Y-108821026D01*
X152499995Y-108572224D01*
X152601956Y-108818989D01*
X152988974Y-109206683D01*
X153494896Y-109416760D01*
X154042701Y-109417238D01*
X154548989Y-109208044D01*
X154936683Y-108821026D01*
X155039995Y-108572224D01*
X155141956Y-108818989D01*
X155528974Y-109206683D01*
X156034896Y-109416760D01*
X156582701Y-109417238D01*
X157088989Y-109208044D01*
X157476683Y-108821026D01*
X157579995Y-108572224D01*
X157681956Y-108818989D01*
X158068974Y-109206683D01*
X158574896Y-109416760D01*
X159122701Y-109417238D01*
X159628989Y-109208044D01*
X160016683Y-108821026D01*
X160226760Y-108315104D01*
X160227238Y-107767299D01*
X160018044Y-107261011D01*
X159631026Y-106873317D01*
X159539500Y-106835312D01*
X159539500Y-106749949D01*
X159844896Y-106876760D01*
X160392701Y-106877238D01*
X160898989Y-106668044D01*
X161286683Y-106281026D01*
X161496760Y-105775104D01*
X161497238Y-105227299D01*
X161288044Y-104721011D01*
X160901026Y-104333317D01*
X160395104Y-104123240D01*
X159864499Y-104122777D01*
X159864499Y-103770191D01*
X159812014Y-103506331D01*
X159662549Y-103282641D01*
X158501822Y-102121914D01*
X158887553Y-102122251D01*
X159421417Y-101901663D01*
X159830228Y-101493566D01*
X159869824Y-101398208D01*
X159908337Y-101491417D01*
X160316434Y-101900228D01*
X160849912Y-102121747D01*
X161427553Y-102122251D01*
X161961417Y-101901663D01*
X162370228Y-101493566D01*
X162591747Y-100960088D01*
X162592251Y-100382447D01*
X162371663Y-99848583D01*
X161963566Y-99439772D01*
X161430088Y-99218253D01*
X160852447Y-99217749D01*
X160318583Y-99438337D01*
X159909772Y-99846434D01*
X159870176Y-99941792D01*
X159831663Y-99848583D01*
X159423566Y-99439772D01*
X158890088Y-99218253D01*
X158312447Y-99217749D01*
X157902000Y-99387342D01*
X157902000Y-92082692D01*
X157849515Y-91818832D01*
X157700050Y-91595142D01*
X150627000Y-84522092D01*
X150627000Y-83750000D01*
X162610717Y-83750000D01*
X162610717Y-86050000D01*
X162654437Y-86282352D01*
X162791757Y-86495753D01*
X163001283Y-86638917D01*
X163250000Y-86689283D01*
X166450000Y-86689283D01*
X166682352Y-86645563D01*
X166895753Y-86508243D01*
X167038917Y-86298717D01*
X167089283Y-86050000D01*
X167089283Y-83750000D01*
X167045563Y-83517648D01*
X166908243Y-83304247D01*
X166698717Y-83161083D01*
X166450000Y-83110717D01*
X163250000Y-83110717D01*
X163017648Y-83154437D01*
X162804247Y-83291757D01*
X162661083Y-83501283D01*
X162610717Y-83750000D01*
X150627000Y-83750000D01*
X150627000Y-83457318D01*
X150719514Y-83318861D01*
X150771999Y-83055001D01*
X150771999Y-82483583D01*
X153022839Y-82483583D01*
X153163669Y-82824417D01*
X153424211Y-83085414D01*
X153764799Y-83226839D01*
X154133583Y-83227161D01*
X154474417Y-83086331D01*
X154735414Y-82825789D01*
X154745292Y-82802000D01*
X155800900Y-82802000D01*
X156001283Y-82938917D01*
X156250000Y-82989283D01*
X158250000Y-82989283D01*
X158482352Y-82945563D01*
X158695753Y-82808243D01*
X158838917Y-82598717D01*
X158889283Y-82350000D01*
X158889283Y-81750000D01*
X158845563Y-81517648D01*
X158708243Y-81304247D01*
X158629826Y-81250666D01*
X158695753Y-81208243D01*
X158838917Y-80998717D01*
X158889283Y-80750000D01*
X158889283Y-80150000D01*
X158869776Y-80046329D01*
X158889283Y-79950000D01*
X158889283Y-79350000D01*
X158869776Y-79246329D01*
X158889283Y-79150000D01*
X158889283Y-78550000D01*
X158869776Y-78446329D01*
X158889283Y-78350000D01*
X158889283Y-77823583D01*
X162882839Y-77823583D01*
X163023669Y-78164417D01*
X163284211Y-78425414D01*
X163624799Y-78566839D01*
X163810717Y-78567001D01*
X163810717Y-78750000D01*
X163830224Y-78853671D01*
X163810717Y-78950000D01*
X163810717Y-79550000D01*
X163830224Y-79653671D01*
X163810717Y-79750000D01*
X163810717Y-79928250D01*
X163555583Y-80033669D01*
X163294586Y-80294211D01*
X163153161Y-80634799D01*
X163152839Y-81003583D01*
X163293669Y-81344417D01*
X163554211Y-81605414D01*
X163810717Y-81711925D01*
X163810717Y-81950000D01*
X163854437Y-82182352D01*
X163991757Y-82395753D01*
X164201283Y-82538917D01*
X164450000Y-82589283D01*
X166450000Y-82589283D01*
X166682352Y-82545563D01*
X166895753Y-82408243D01*
X166917101Y-82377000D01*
X167613950Y-82377000D01*
X167651757Y-82435753D01*
X167861283Y-82578917D01*
X168110000Y-82629283D01*
X169410000Y-82629283D01*
X169642352Y-82585563D01*
X169855753Y-82448243D01*
X169998917Y-82238717D01*
X170049283Y-81990000D01*
X170049283Y-81290000D01*
X170005563Y-81057648D01*
X169868243Y-80844247D01*
X169658717Y-80701083D01*
X169410000Y-80650717D01*
X168110000Y-80650717D01*
X167877648Y-80694437D01*
X167664247Y-80831757D01*
X167601903Y-80923000D01*
X167089283Y-80923000D01*
X167089283Y-80550000D01*
X167069776Y-80446329D01*
X167089283Y-80350000D01*
X167089283Y-79750000D01*
X167069776Y-79646329D01*
X167089283Y-79550000D01*
X167089283Y-78950000D01*
X167069776Y-78846329D01*
X167089283Y-78750000D01*
X167089283Y-78150000D01*
X167069776Y-78046329D01*
X167089283Y-77950000D01*
X167089283Y-77350000D01*
X167069776Y-77246329D01*
X167089283Y-77150000D01*
X167089283Y-76550000D01*
X167045563Y-76317648D01*
X166908243Y-76104247D01*
X166698717Y-75961083D01*
X166450000Y-75910717D01*
X164450000Y-75910717D01*
X164217648Y-75954437D01*
X164004247Y-76091757D01*
X163861083Y-76301283D01*
X163810717Y-76550000D01*
X163810717Y-76713000D01*
X163626417Y-76712839D01*
X163285583Y-76853669D01*
X163024586Y-77114211D01*
X162883161Y-77454799D01*
X162882839Y-77823583D01*
X158889283Y-77823583D01*
X158889283Y-77750000D01*
X158845563Y-77517648D01*
X158708243Y-77304247D01*
X158629826Y-77250666D01*
X158695753Y-77208243D01*
X158838917Y-76998717D01*
X158889283Y-76750000D01*
X158889283Y-76150000D01*
X158869776Y-76046329D01*
X158889283Y-75950000D01*
X158889283Y-75350000D01*
X158845563Y-75117648D01*
X158708243Y-74904247D01*
X158629826Y-74850666D01*
X158695753Y-74808243D01*
X158838917Y-74598717D01*
X158889283Y-74350000D01*
X158889283Y-73750000D01*
X158869776Y-73646329D01*
X158889283Y-73550000D01*
X158889283Y-73350000D01*
X163810717Y-73350000D01*
X163810717Y-73950000D01*
X163830224Y-74053671D01*
X163810717Y-74150000D01*
X163810717Y-74750000D01*
X163854437Y-74982352D01*
X163991757Y-75195753D01*
X164201283Y-75338917D01*
X164450000Y-75389283D01*
X166450000Y-75389283D01*
X166682352Y-75345563D01*
X166895753Y-75208243D01*
X166942040Y-75140500D01*
X166950000Y-75140500D01*
X167214243Y-75087939D01*
X167397485Y-74965500D01*
X167763198Y-74965500D01*
X167812871Y-74955619D01*
X168104799Y-75076839D01*
X168473583Y-75077161D01*
X168814417Y-74936331D01*
X169075414Y-74675789D01*
X169216839Y-74335201D01*
X169217161Y-73966417D01*
X169127693Y-73749888D01*
X169216839Y-73535201D01*
X169217161Y-73166417D01*
X169076331Y-72825583D01*
X168815789Y-72564586D01*
X168475201Y-72423161D01*
X168106417Y-72422839D01*
X167765583Y-72563669D01*
X167504586Y-72824211D01*
X167427006Y-73011045D01*
X167388544Y-73036744D01*
X167333525Y-73091763D01*
X167214243Y-73012061D01*
X166950000Y-72959500D01*
X166943797Y-72959500D01*
X166908243Y-72904247D01*
X166698717Y-72761083D01*
X166450000Y-72710717D01*
X164450000Y-72710717D01*
X164217648Y-72754437D01*
X164004247Y-72891757D01*
X163861083Y-73101283D01*
X163810717Y-73350000D01*
X158889283Y-73350000D01*
X158889283Y-72950000D01*
X158869776Y-72846329D01*
X158889283Y-72750000D01*
X158889283Y-72150000D01*
X158845563Y-71917648D01*
X158708243Y-71704247D01*
X158629826Y-71650666D01*
X158695753Y-71608243D01*
X158700019Y-71602000D01*
X159580449Y-71602000D01*
X159713669Y-71924417D01*
X159974211Y-72185414D01*
X160314799Y-72326839D01*
X160683583Y-72327161D01*
X161024417Y-72186331D01*
X161285414Y-71925789D01*
X161426839Y-71585201D01*
X161427161Y-71216417D01*
X161286331Y-70875583D01*
X161025789Y-70614586D01*
X160685201Y-70473161D01*
X160636607Y-70473119D01*
X160481744Y-70318256D01*
X160237778Y-70155243D01*
X159950000Y-70098000D01*
X158889283Y-70098000D01*
X158889283Y-69750000D01*
X158869776Y-69646329D01*
X158889283Y-69550000D01*
X158889283Y-68950000D01*
X158845563Y-68717648D01*
X158708243Y-68504247D01*
X158498717Y-68361083D01*
X158250000Y-68310717D01*
X156250000Y-68310717D01*
X156017648Y-68354437D01*
X155804247Y-68491757D01*
X155661083Y-68701283D01*
X155610717Y-68950000D01*
X155610717Y-69550000D01*
X155630224Y-69653671D01*
X155610717Y-69750000D01*
X155610717Y-70223067D01*
X155468256Y-70318256D01*
X153718255Y-72068257D01*
X153555242Y-72312223D01*
X153497999Y-72600001D01*
X153497999Y-81483747D01*
X153425583Y-81513669D01*
X153164586Y-81774211D01*
X153023161Y-82114799D01*
X153022839Y-82483583D01*
X150771999Y-82483583D01*
X150771999Y-79462431D01*
X150821511Y-79582259D01*
X151082053Y-79843256D01*
X151422641Y-79984681D01*
X151791425Y-79985003D01*
X152132259Y-79844173D01*
X152393256Y-79583631D01*
X152534681Y-79243043D01*
X152535003Y-78874259D01*
X152394173Y-78533425D01*
X152133631Y-78272428D01*
X151917260Y-78182583D01*
X151828489Y-77967741D01*
X151567947Y-77706744D01*
X151227359Y-77565319D01*
X150858575Y-77564997D01*
X150771999Y-77600770D01*
X150771999Y-73366254D01*
X150844417Y-73336331D01*
X151105414Y-73075789D01*
X151246839Y-72735201D01*
X151247161Y-72366417D01*
X151106331Y-72025583D01*
X150845789Y-71764586D01*
X150505201Y-71623161D01*
X150136417Y-71622839D01*
X149929913Y-71708165D01*
X149725201Y-71623161D01*
X149356417Y-71622839D01*
X149015583Y-71763669D01*
X148754586Y-72024211D01*
X148613161Y-72364799D01*
X148612839Y-72733583D01*
X148753669Y-73074417D01*
X149014211Y-73335414D01*
X149088001Y-73366054D01*
X149088001Y-82633130D01*
X148975485Y-82801522D01*
X148923000Y-83065382D01*
X148923000Y-84942308D01*
X148975485Y-85206168D01*
X149124950Y-85429858D01*
X156198000Y-92502908D01*
X156198000Y-101942308D01*
X156250485Y-102206168D01*
X156399950Y-102429858D01*
X158160500Y-104190408D01*
X158160500Y-104250051D01*
X157855104Y-104123240D01*
X157307299Y-104122762D01*
X156801011Y-104331956D01*
X156413317Y-104718974D01*
X156203240Y-105224896D01*
X156202762Y-105772701D01*
X156411956Y-106278989D01*
X156798974Y-106666683D01*
X157304896Y-106876760D01*
X157852701Y-106877238D01*
X158160500Y-106750058D01*
X158160500Y-106834980D01*
X158071011Y-106871956D01*
X157683317Y-107258974D01*
X157580005Y-107507776D01*
X157478044Y-107261011D01*
X157091026Y-106873317D01*
X156585104Y-106663240D01*
X156037299Y-106662762D01*
X155531011Y-106871956D01*
X155143317Y-107258974D01*
X155040005Y-107507776D01*
X154938044Y-107261011D01*
X154551026Y-106873317D01*
X154459500Y-106835312D01*
X154459500Y-106010716D01*
X154599515Y-105801170D01*
X154652000Y-105537309D01*
X154652000Y-102527908D01*
X155075050Y-102104858D01*
X155224515Y-101881168D01*
X155277000Y-101617308D01*
X155277000Y-94807692D01*
X155224515Y-94543832D01*
X155075050Y-94320142D01*
X148452000Y-87697092D01*
X148452000Y-82286834D01*
X148399515Y-82022974D01*
X148250050Y-81799284D01*
X146960603Y-80509837D01*
X147150741Y-80510003D01*
X147491575Y-80369173D01*
X147752572Y-80108631D01*
X147842417Y-79892260D01*
X148057259Y-79803489D01*
X148318256Y-79542947D01*
X148459681Y-79202359D01*
X148460003Y-78833575D01*
X148319173Y-78492741D01*
X148058631Y-78231744D01*
X147718043Y-78090319D01*
X147349259Y-78089997D01*
X147008425Y-78230827D01*
X146747428Y-78491369D01*
X146657583Y-78707740D01*
X146442741Y-78796511D01*
X146181744Y-79057053D01*
X146051999Y-79369513D01*
X146051999Y-73276254D01*
X146124417Y-73246331D01*
X146385414Y-72985789D01*
X146526839Y-72645201D01*
X146527161Y-72276417D01*
X146386331Y-71935583D01*
X146125789Y-71674586D01*
X145785201Y-71533161D01*
X145416417Y-71532839D01*
X145209913Y-71618165D01*
X145005201Y-71533161D01*
X144636417Y-71532839D01*
X144295583Y-71673669D01*
X144034586Y-71934211D01*
X143893161Y-72274799D01*
X143892839Y-72643583D01*
X106057233Y-72643583D01*
X110950816Y-67750000D01*
X163810717Y-67750000D01*
X163810717Y-68350000D01*
X163830224Y-68453671D01*
X163810717Y-68550000D01*
X163810717Y-69150000D01*
X163854437Y-69382352D01*
X163991757Y-69595753D01*
X164070174Y-69649334D01*
X164004247Y-69691757D01*
X163861083Y-69901283D01*
X163810717Y-70150000D01*
X163810717Y-70750000D01*
X163830224Y-70853671D01*
X163810717Y-70950000D01*
X163810717Y-71550000D01*
X163854437Y-71782352D01*
X163991757Y-71995753D01*
X164201283Y-72138917D01*
X164450000Y-72189283D01*
X166450000Y-72189283D01*
X166682352Y-72145563D01*
X166895753Y-72008243D01*
X166942040Y-71940500D01*
X166950000Y-71940500D01*
X167214243Y-71887939D01*
X167397485Y-71765500D01*
X168073198Y-71765500D01*
X168095731Y-71761018D01*
X168104211Y-71769513D01*
X168444799Y-71910938D01*
X168813583Y-71911260D01*
X169154417Y-71770430D01*
X169415414Y-71509888D01*
X169556839Y-71169300D01*
X169557161Y-70800516D01*
X169467693Y-70583987D01*
X169556839Y-70369300D01*
X169557161Y-70000516D01*
X169416331Y-69659682D01*
X169155789Y-69398685D01*
X168815201Y-69257260D01*
X168446417Y-69256938D01*
X168105583Y-69397768D01*
X167844586Y-69658310D01*
X167791619Y-69785867D01*
X167664444Y-69870843D01*
X167600787Y-69934500D01*
X167397485Y-69934500D01*
X167214243Y-69812061D01*
X166950000Y-69759500D01*
X166943797Y-69759500D01*
X166908243Y-69704247D01*
X166829826Y-69650666D01*
X166895753Y-69608243D01*
X167038917Y-69398717D01*
X167089283Y-69150000D01*
X167089283Y-68550000D01*
X167069776Y-68446329D01*
X167089283Y-68350000D01*
X167089283Y-67750000D01*
X167045563Y-67517648D01*
X166908243Y-67304247D01*
X166698717Y-67161083D01*
X166450000Y-67110717D01*
X164450000Y-67110717D01*
X164217648Y-67154437D01*
X164004247Y-67291757D01*
X163861083Y-67501283D01*
X163810717Y-67750000D01*
X110950816Y-67750000D01*
X119767233Y-58933583D01*
X153797839Y-58933583D01*
X153938669Y-59274417D01*
X154199211Y-59535414D01*
X154539799Y-59676839D01*
X154908583Y-59677161D01*
X155249417Y-59536331D01*
X155283808Y-59502000D01*
X155731429Y-59502000D01*
X155791757Y-59595753D01*
X155870174Y-59649334D01*
X155804247Y-59691757D01*
X155661083Y-59901283D01*
X155610717Y-60150000D01*
X155610717Y-60750000D01*
X155630224Y-60853671D01*
X155610717Y-60950000D01*
X155610717Y-61550000D01*
X155630224Y-61653671D01*
X155610717Y-61750000D01*
X155610717Y-62350000D01*
X155630224Y-62453671D01*
X155610717Y-62550000D01*
X155610717Y-63150000D01*
X155630224Y-63253671D01*
X155610717Y-63350000D01*
X155610717Y-63950000D01*
X155630224Y-64053671D01*
X155610717Y-64150000D01*
X155610717Y-64750000D01*
X155654437Y-64982352D01*
X155791757Y-65195753D01*
X156001283Y-65338917D01*
X156250000Y-65389283D01*
X158250000Y-65389283D01*
X158482352Y-65345563D01*
X158695753Y-65208243D01*
X158838917Y-64998717D01*
X158889283Y-64750000D01*
X158889283Y-64150000D01*
X158869776Y-64046329D01*
X158889283Y-63950000D01*
X158889283Y-63350000D01*
X158869776Y-63246329D01*
X158889283Y-63150000D01*
X158889283Y-62550000D01*
X158869776Y-62446329D01*
X158889283Y-62350000D01*
X158889283Y-61750000D01*
X158869776Y-61646329D01*
X158889283Y-61550000D01*
X158889283Y-60950000D01*
X158869776Y-60846329D01*
X158889283Y-60750000D01*
X158889283Y-60150000D01*
X158845563Y-59917648D01*
X158708243Y-59704247D01*
X158629826Y-59650666D01*
X158695753Y-59608243D01*
X158717101Y-59577000D01*
X159720934Y-59577000D01*
X159799211Y-59655414D01*
X160139799Y-59796839D01*
X160508583Y-59797161D01*
X160849417Y-59656331D01*
X161110414Y-59395789D01*
X161251839Y-59055201D01*
X161252161Y-58686417D01*
X161111331Y-58345583D01*
X160916089Y-58150000D01*
X163810717Y-58150000D01*
X163810717Y-58750000D01*
X163830224Y-58853671D01*
X163810717Y-58950000D01*
X163810717Y-59550000D01*
X163830224Y-59653671D01*
X163810717Y-59750000D01*
X163810717Y-60350000D01*
X163830224Y-60453671D01*
X163810717Y-60550000D01*
X163810717Y-61150000D01*
X163854437Y-61382352D01*
X163991757Y-61595753D01*
X164070174Y-61649334D01*
X164004247Y-61691757D01*
X163861083Y-61901283D01*
X163810717Y-62150000D01*
X163810717Y-62750000D01*
X163830224Y-62853671D01*
X163810717Y-62950000D01*
X163810717Y-63550000D01*
X163854437Y-63782352D01*
X163991757Y-63995753D01*
X164201283Y-64138917D01*
X164450000Y-64189283D01*
X166450000Y-64189283D01*
X166682352Y-64145563D01*
X166895753Y-64008243D01*
X167038917Y-63798717D01*
X167089283Y-63550000D01*
X167089283Y-62950000D01*
X167069776Y-62846329D01*
X167089283Y-62750000D01*
X167089283Y-62150000D01*
X167045563Y-61917648D01*
X166908243Y-61704247D01*
X166829826Y-61650666D01*
X166895753Y-61608243D01*
X167038917Y-61398717D01*
X167089283Y-61150000D01*
X167089283Y-60550000D01*
X167069776Y-60446329D01*
X167089283Y-60350000D01*
X167089283Y-59750000D01*
X167069776Y-59646329D01*
X167089283Y-59550000D01*
X167089283Y-58950000D01*
X167069776Y-58846329D01*
X167089283Y-58750000D01*
X167089283Y-58150000D01*
X167045563Y-57917648D01*
X166908243Y-57704247D01*
X166698717Y-57561083D01*
X166450000Y-57510717D01*
X164450000Y-57510717D01*
X164217648Y-57554437D01*
X164004247Y-57691757D01*
X163861083Y-57901283D01*
X163810717Y-58150000D01*
X160916089Y-58150000D01*
X160850789Y-58084586D01*
X160510201Y-57943161D01*
X160141417Y-57942839D01*
X159800583Y-58083669D01*
X159761183Y-58123000D01*
X158720310Y-58123000D01*
X158708243Y-58104247D01*
X158498717Y-57961083D01*
X158250000Y-57910717D01*
X156250000Y-57910717D01*
X156017648Y-57954437D01*
X155949949Y-57998000D01*
X155284145Y-57998000D01*
X155250789Y-57964586D01*
X154910201Y-57823161D01*
X154541417Y-57822839D01*
X154200583Y-57963669D01*
X153939586Y-58224211D01*
X153798161Y-58564799D01*
X153797839Y-58933583D01*
X119767233Y-58933583D01*
X124250816Y-54450000D01*
X162610717Y-54450000D01*
X162610717Y-56750000D01*
X162654437Y-56982352D01*
X162791757Y-57195753D01*
X163001283Y-57338917D01*
X163250000Y-57389283D01*
X166450000Y-57389283D01*
X166682352Y-57345563D01*
X166895753Y-57208243D01*
X167038917Y-56998717D01*
X167089283Y-56750000D01*
X167089283Y-54450000D01*
X167045563Y-54217648D01*
X166908243Y-54004247D01*
X166698717Y-53861083D01*
X166450000Y-53810717D01*
X163250000Y-53810717D01*
X163017648Y-53854437D01*
X162804247Y-53991757D01*
X162661083Y-54201283D01*
X162610717Y-54450000D01*
X124250816Y-54450000D01*
X126238257Y-52462559D01*
X126387939Y-52238545D01*
X126440500Y-51974302D01*
X126440500Y-51870538D01*
X126535414Y-51775789D01*
X126676839Y-51435201D01*
X126677161Y-51066417D01*
X126536331Y-50725583D01*
X126275789Y-50464586D01*
X125935201Y-50323161D01*
X125566417Y-50322839D01*
X125225583Y-50463669D01*
X124964586Y-50724211D01*
X124823161Y-51064799D01*
X124822839Y-51433583D01*
X124963669Y-51774417D01*
X124968516Y-51779272D01*
X116839283Y-59908505D01*
X116839283Y-55250000D01*
X116795563Y-55017648D01*
X116658243Y-54804247D01*
X116448717Y-54661083D01*
X116200000Y-54610717D01*
X110400000Y-54610717D01*
X110167648Y-54654437D01*
X109954247Y-54791757D01*
X109940500Y-54811876D01*
X109940500Y-52176949D01*
X110183583Y-52177161D01*
X110524417Y-52036331D01*
X110785414Y-51775789D01*
X110791436Y-51761287D01*
X110900159Y-52024417D01*
X111160701Y-52285414D01*
X111501289Y-52426839D01*
X111559500Y-52426890D01*
X111559500Y-53250000D01*
X111573158Y-53318662D01*
X111572839Y-53683583D01*
X111713669Y-54024417D01*
X111974211Y-54285414D01*
X112314799Y-54426839D01*
X112683583Y-54427161D01*
X113024417Y-54286331D01*
X113285414Y-54025789D01*
X113426839Y-53685201D01*
X113427161Y-53316417D01*
X113286331Y-52975583D01*
X113025789Y-52714586D01*
X112940500Y-52679171D01*
X112940500Y-50502546D01*
X112953669Y-50534417D01*
X113214211Y-50795414D01*
X113554799Y-50936839D01*
X113923583Y-50937161D01*
X114264417Y-50796331D01*
X114525414Y-50535789D01*
X114666839Y-50195201D01*
X114667067Y-49933583D01*
X127072839Y-49933583D01*
X127213669Y-50274417D01*
X127474211Y-50535414D01*
X127814799Y-50676839D01*
X128183583Y-50677161D01*
X128524417Y-50536331D01*
X128785414Y-50275789D01*
X128926839Y-49935201D01*
X128927161Y-49566417D01*
X128786331Y-49225583D01*
X128525789Y-48964586D01*
X128185201Y-48823161D01*
X127816417Y-48822839D01*
X127475583Y-48963669D01*
X127214586Y-49224211D01*
X127073161Y-49564799D01*
X127072839Y-49933583D01*
X114667067Y-49933583D01*
X114667161Y-49826417D01*
X114526331Y-49485583D01*
X114265789Y-49224586D01*
X113925201Y-49083161D01*
X113556417Y-49082839D01*
X113215583Y-49223669D01*
X112954586Y-49484211D01*
X112940500Y-49518134D01*
X112940500Y-45183583D01*
X113822839Y-45183583D01*
X113963669Y-45524417D01*
X114224211Y-45785414D01*
X114564799Y-45926839D01*
X114933583Y-45927161D01*
X115274417Y-45786331D01*
X115535414Y-45525789D01*
X115676839Y-45185201D01*
X115677161Y-44816417D01*
X115536331Y-44475583D01*
X115275789Y-44214586D01*
X114935201Y-44073161D01*
X114566417Y-44072839D01*
X114225583Y-44213669D01*
X113964586Y-44474211D01*
X113823161Y-44814799D01*
X113822839Y-45183583D01*
X112940500Y-45183583D01*
X112940500Y-44000000D01*
X112887939Y-43735757D01*
X112873180Y-43713669D01*
X112738258Y-43511743D01*
X111353512Y-42126998D01*
X116459465Y-42126998D01*
X116470724Y-42138257D01*
X116568369Y-42203501D01*
X116694739Y-42287939D01*
X116915296Y-42331810D01*
X122102956Y-47519470D01*
X122102839Y-47653583D01*
X122243669Y-47994417D01*
X122504211Y-48255414D01*
X122844799Y-48396839D01*
X123213583Y-48397161D01*
X123554417Y-48256331D01*
X123815414Y-47995789D01*
X123956839Y-47655201D01*
X123957161Y-47286417D01*
X123914671Y-47183583D01*
X124072839Y-47183583D01*
X124213669Y-47524417D01*
X124474211Y-47785414D01*
X124814799Y-47926839D01*
X125183583Y-47927161D01*
X125524417Y-47786331D01*
X125785414Y-47525789D01*
X125926839Y-47185201D01*
X125926840Y-47183583D01*
X128509329Y-47183583D01*
X128650159Y-47524417D01*
X128910701Y-47785414D01*
X129251289Y-47926839D01*
X129620073Y-47927161D01*
X129960907Y-47786331D01*
X130221904Y-47525789D01*
X130363329Y-47185201D01*
X130363651Y-46816417D01*
X130222821Y-46475583D01*
X129962279Y-46214586D01*
X129621691Y-46073161D01*
X129252907Y-46072839D01*
X128912073Y-46213669D01*
X128651076Y-46474211D01*
X128509651Y-46814799D01*
X128509329Y-47183583D01*
X125926840Y-47183583D01*
X125927161Y-46816417D01*
X125786331Y-46475583D01*
X125525789Y-46214586D01*
X125185201Y-46073161D01*
X124816417Y-46072839D01*
X124475583Y-46213669D01*
X124214586Y-46474211D01*
X124073161Y-46814799D01*
X124072839Y-47183583D01*
X123914671Y-47183583D01*
X123816331Y-46945583D01*
X123555789Y-46684586D01*
X123215201Y-46543161D01*
X123079557Y-46543043D01*
X121220097Y-44683583D01*
X122072839Y-44683583D01*
X122213669Y-45024417D01*
X122474211Y-45285414D01*
X122814799Y-45426839D01*
X123183583Y-45427161D01*
X123524417Y-45286331D01*
X123627344Y-45183583D01*
X124072839Y-45183583D01*
X124213669Y-45524417D01*
X124474211Y-45785414D01*
X124814799Y-45926839D01*
X125183583Y-45927161D01*
X125524417Y-45786331D01*
X125785414Y-45525789D01*
X125926839Y-45185201D01*
X125927161Y-44816417D01*
X125786331Y-44475583D01*
X125525789Y-44214586D01*
X125185201Y-44073161D01*
X124816417Y-44072839D01*
X124475583Y-44213669D01*
X124214586Y-44474211D01*
X124073161Y-44814799D01*
X124072839Y-45183583D01*
X123627344Y-45183583D01*
X123785414Y-45025789D01*
X123926839Y-44685201D01*
X123927161Y-44316417D01*
X123786331Y-43975583D01*
X123525789Y-43714586D01*
X123185201Y-43573161D01*
X122816417Y-43572839D01*
X122475583Y-43713669D01*
X122214586Y-43974211D01*
X122073161Y-44314799D01*
X122072839Y-44683583D01*
X121220097Y-44683583D01*
X118537014Y-42000500D01*
X126282968Y-42000500D01*
X126373001Y-42090534D01*
X126373001Y-42203501D01*
X126425562Y-42467744D01*
X126575244Y-42691758D01*
X128745999Y-44862513D01*
X128745999Y-45020481D01*
X128798560Y-45284724D01*
X128948242Y-45508738D01*
X129241262Y-45801758D01*
X129465276Y-45951440D01*
X129729519Y-46004001D01*
X129887487Y-46004001D01*
X130982956Y-47099470D01*
X130982839Y-47233583D01*
X131123669Y-47574417D01*
X131384211Y-47835414D01*
X131724799Y-47976839D01*
X132093583Y-47977161D01*
X132434417Y-47836331D01*
X132695414Y-47575789D01*
X132836839Y-47235201D01*
X132837161Y-46866417D01*
X132696331Y-46525583D01*
X132435789Y-46264586D01*
X132095201Y-46123161D01*
X131959557Y-46123043D01*
X130881325Y-45044811D01*
X130926839Y-44935201D01*
X130927161Y-44566417D01*
X130786331Y-44225583D01*
X130525789Y-43964586D01*
X130185201Y-43823161D01*
X129816417Y-43822839D01*
X129705276Y-43868762D01*
X127754001Y-41917487D01*
X127754001Y-41804519D01*
X127701440Y-41540276D01*
X127676980Y-41503669D01*
X127551758Y-41316261D01*
X127057239Y-40821743D01*
X126833225Y-40672061D01*
X126568982Y-40619500D01*
X117366600Y-40619500D01*
X117145175Y-40471548D01*
X116880932Y-40418987D01*
X110941948Y-40418987D01*
X110894191Y-40371230D01*
X110670177Y-40221548D01*
X110458496Y-40179442D01*
X110405935Y-40168987D01*
X94770513Y-40168987D01*
X94506270Y-40221548D01*
X94282256Y-40371230D01*
X93290530Y-41362956D01*
X93156417Y-41362839D01*
X92815583Y-41503669D01*
X92639509Y-41679436D01*
X88549356Y-37589283D01*
X88925000Y-37589283D01*
X89157352Y-37545563D01*
X89370753Y-37408243D01*
X89424334Y-37329826D01*
X89466757Y-37395753D01*
X89676283Y-37538917D01*
X89925000Y-37589283D01*
X90425000Y-37589283D01*
X90657352Y-37545563D01*
X90870753Y-37408243D01*
X90887166Y-37384222D01*
X90989799Y-37426839D01*
X91358583Y-37427161D01*
X91699417Y-37286331D01*
X91960414Y-37025789D01*
X92010787Y-36904479D01*
X92195130Y-36720135D01*
X92195133Y-36720133D01*
X92311290Y-36546291D01*
X92385242Y-36435614D01*
X92452000Y-36100000D01*
X92452000Y-33125005D01*
X92452001Y-33125000D01*
X92385242Y-32789387D01*
X92364807Y-32758804D01*
X92195133Y-32504867D01*
X92195130Y-32504865D01*
X91845133Y-32154867D01*
X91560613Y-31964758D01*
X91225000Y-31898000D01*
X91027000Y-31898000D01*
X91027000Y-31358501D01*
X91120000Y-31377000D01*
X91991370Y-31203674D01*
X92730082Y-30710082D01*
X93223674Y-29971370D01*
X93334534Y-29414038D01*
X94869761Y-29414038D01*
X95080778Y-29924738D01*
X95471168Y-30315811D01*
X95695420Y-30408928D01*
X95473224Y-30500738D01*
X95082151Y-30891128D01*
X94870243Y-31401460D01*
X94869761Y-31954038D01*
X95080778Y-32464738D01*
X95471168Y-32855811D01*
X95691137Y-32947150D01*
X95474223Y-33036777D01*
X95083150Y-33427167D01*
X94871242Y-33937499D01*
X94870760Y-34490077D01*
X95081777Y-35000777D01*
X95472167Y-35391850D01*
X95696419Y-35484967D01*
X95474223Y-35576777D01*
X95083150Y-35967167D01*
X94871242Y-36477499D01*
X94870760Y-37030077D01*
X95081777Y-37540777D01*
X95472167Y-37931850D01*
X95982499Y-38143758D01*
X96535077Y-38144240D01*
X97045777Y-37933223D01*
X97436850Y-37542833D01*
X97529967Y-37318581D01*
X97621777Y-37540777D01*
X98012167Y-37931850D01*
X98522499Y-38143758D01*
X99075077Y-38144240D01*
X99585777Y-37933223D01*
X99976850Y-37542833D01*
X100069967Y-37318581D01*
X100161777Y-37540777D01*
X100552167Y-37931850D01*
X101062499Y-38143758D01*
X101615077Y-38144240D01*
X102125777Y-37933223D01*
X102516850Y-37542833D01*
X102609967Y-37318581D01*
X102701777Y-37540777D01*
X103092167Y-37931850D01*
X103602499Y-38143758D01*
X104155077Y-38144240D01*
X104665777Y-37933223D01*
X105056850Y-37542833D01*
X105149967Y-37318581D01*
X105241777Y-37540777D01*
X105632167Y-37931850D01*
X106142499Y-38143758D01*
X106695077Y-38144240D01*
X107205777Y-37933223D01*
X107596850Y-37542833D01*
X107689967Y-37318581D01*
X107781777Y-37540777D01*
X108172167Y-37931850D01*
X108682499Y-38143758D01*
X109235077Y-38144240D01*
X109745777Y-37933223D01*
X110136850Y-37542833D01*
X110229967Y-37318581D01*
X110321777Y-37540777D01*
X110712167Y-37931850D01*
X111222499Y-38143758D01*
X111775077Y-38144240D01*
X112285777Y-37933223D01*
X112676850Y-37542833D01*
X112769967Y-37318581D01*
X112861777Y-37540777D01*
X113252167Y-37931850D01*
X113762499Y-38143758D01*
X114315077Y-38144240D01*
X114825777Y-37933223D01*
X115216850Y-37542833D01*
X115309967Y-37318581D01*
X115401777Y-37540777D01*
X115792167Y-37931850D01*
X116302499Y-38143758D01*
X116855077Y-38144240D01*
X117365777Y-37933223D01*
X117756850Y-37542833D01*
X117849967Y-37318581D01*
X117941777Y-37540777D01*
X118332167Y-37931850D01*
X118842499Y-38143758D01*
X119395077Y-38144240D01*
X119905777Y-37933223D01*
X120296850Y-37542833D01*
X120389967Y-37318581D01*
X120481777Y-37540777D01*
X120872167Y-37931850D01*
X121382499Y-38143758D01*
X121935077Y-38144240D01*
X122445777Y-37933223D01*
X122836850Y-37542833D01*
X122929967Y-37318581D01*
X123021777Y-37540777D01*
X123412167Y-37931850D01*
X123922499Y-38143758D01*
X124475077Y-38144240D01*
X124985777Y-37933223D01*
X125376850Y-37542833D01*
X125469967Y-37318581D01*
X125561777Y-37540777D01*
X125952167Y-37931850D01*
X126462499Y-38143758D01*
X127015077Y-38144240D01*
X127525777Y-37933223D01*
X127916850Y-37542833D01*
X128009967Y-37318581D01*
X128101777Y-37540777D01*
X128492167Y-37931850D01*
X129002499Y-38143758D01*
X129555077Y-38144240D01*
X130065777Y-37933223D01*
X130456850Y-37542833D01*
X130549967Y-37318581D01*
X130641777Y-37540777D01*
X131032167Y-37931850D01*
X131542499Y-38143758D01*
X132095077Y-38144240D01*
X132605777Y-37933223D01*
X132996850Y-37542833D01*
X133089967Y-37318581D01*
X133181777Y-37540777D01*
X133572167Y-37931850D01*
X134082499Y-38143758D01*
X134635077Y-38144240D01*
X135145777Y-37933223D01*
X135536850Y-37542833D01*
X135629967Y-37318581D01*
X135721777Y-37540777D01*
X136112167Y-37931850D01*
X136622499Y-38143758D01*
X137175077Y-38144240D01*
X137685777Y-37933223D01*
X138076850Y-37542833D01*
X138169967Y-37318581D01*
X138261777Y-37540777D01*
X138652167Y-37931850D01*
X139162499Y-38143758D01*
X139715077Y-38144240D01*
X140225777Y-37933223D01*
X140616850Y-37542833D01*
X140709967Y-37318581D01*
X140801777Y-37540777D01*
X141192167Y-37931850D01*
X141702499Y-38143758D01*
X142255077Y-38144240D01*
X142765777Y-37933223D01*
X143156850Y-37542833D01*
X143249967Y-37318581D01*
X143341777Y-37540777D01*
X143732167Y-37931850D01*
X144242499Y-38143758D01*
X144795077Y-38144240D01*
X145305777Y-37933223D01*
X145696850Y-37542833D01*
X145789967Y-37318581D01*
X145881777Y-37540777D01*
X146272167Y-37931850D01*
X146782499Y-38143758D01*
X147335077Y-38144240D01*
X147845777Y-37933223D01*
X148236850Y-37542833D01*
X148329967Y-37318581D01*
X148421777Y-37540777D01*
X148812167Y-37931850D01*
X149322499Y-38143758D01*
X149875077Y-38144240D01*
X150385777Y-37933223D01*
X150776850Y-37542833D01*
X150869967Y-37318581D01*
X150961777Y-37540777D01*
X151352167Y-37931850D01*
X151862499Y-38143758D01*
X152415077Y-38144240D01*
X152925777Y-37933223D01*
X153316850Y-37542833D01*
X153409967Y-37318581D01*
X153501777Y-37540777D01*
X153892167Y-37931850D01*
X154402499Y-38143758D01*
X154955077Y-38144240D01*
X155465777Y-37933223D01*
X155856850Y-37542833D01*
X155949967Y-37318581D01*
X156041777Y-37540777D01*
X156432167Y-37931850D01*
X156942499Y-38143758D01*
X157495077Y-38144240D01*
X158005777Y-37933223D01*
X158396850Y-37542833D01*
X158489967Y-37318581D01*
X158581777Y-37540777D01*
X158972167Y-37931850D01*
X159482499Y-38143758D01*
X160035077Y-38144240D01*
X160545777Y-37933223D01*
X160936850Y-37542833D01*
X161148758Y-37032501D01*
X161149240Y-36479923D01*
X160938223Y-35969223D01*
X160547833Y-35578150D01*
X160323581Y-35485033D01*
X160545777Y-35393223D01*
X160936850Y-35002833D01*
X161148758Y-34492501D01*
X161149240Y-33939923D01*
X160938223Y-33429223D01*
X160547833Y-33038150D01*
X160327864Y-32946811D01*
X160544778Y-32857184D01*
X160935851Y-32466794D01*
X161147759Y-31956462D01*
X161148241Y-31403884D01*
X160937224Y-30893184D01*
X160546834Y-30502111D01*
X160322582Y-30408994D01*
X160544778Y-30317184D01*
X160935851Y-29926794D01*
X161147759Y-29416462D01*
X161148035Y-29100000D01*
X162543000Y-29100000D01*
X162716326Y-29971370D01*
X163209918Y-30710082D01*
X163948630Y-31203674D01*
X164820000Y-31377000D01*
X165691370Y-31203674D01*
X166430082Y-30710082D01*
X166923674Y-29971370D01*
X167097000Y-29100000D01*
X166923674Y-28228630D01*
X166430082Y-27489918D01*
X165691370Y-26996326D01*
X164820000Y-26823000D01*
X163948630Y-26996326D01*
X163209918Y-27489918D01*
X162716326Y-28228630D01*
X162543000Y-29100000D01*
X161148035Y-29100000D01*
X161148241Y-28863884D01*
X160937224Y-28353184D01*
X160546834Y-27962111D01*
X160036502Y-27750203D01*
X159483924Y-27749721D01*
X158973224Y-27960738D01*
X158582151Y-28351128D01*
X158489034Y-28575380D01*
X158397224Y-28353184D01*
X158006834Y-27962111D01*
X157496502Y-27750203D01*
X156943924Y-27749721D01*
X156433224Y-27960738D01*
X156042151Y-28351128D01*
X155949034Y-28575380D01*
X155857224Y-28353184D01*
X155466834Y-27962111D01*
X154956502Y-27750203D01*
X154403924Y-27749721D01*
X153893224Y-27960738D01*
X153502151Y-28351128D01*
X153409034Y-28575380D01*
X153317224Y-28353184D01*
X152926834Y-27962111D01*
X152416502Y-27750203D01*
X151863924Y-27749721D01*
X151353224Y-27960738D01*
X150962151Y-28351128D01*
X150869034Y-28575380D01*
X150777224Y-28353184D01*
X150386834Y-27962111D01*
X149876502Y-27750203D01*
X149323924Y-27749721D01*
X148813224Y-27960738D01*
X148422151Y-28351128D01*
X148329034Y-28575380D01*
X148237224Y-28353184D01*
X147846834Y-27962111D01*
X147336502Y-27750203D01*
X146783924Y-27749721D01*
X146273224Y-27960738D01*
X145882151Y-28351128D01*
X145789034Y-28575380D01*
X145697224Y-28353184D01*
X145306834Y-27962111D01*
X144796502Y-27750203D01*
X144243924Y-27749721D01*
X143733224Y-27960738D01*
X143342151Y-28351128D01*
X143249034Y-28575380D01*
X143157224Y-28353184D01*
X142766834Y-27962111D01*
X142256502Y-27750203D01*
X141703924Y-27749721D01*
X141193224Y-27960738D01*
X140802151Y-28351128D01*
X140709034Y-28575380D01*
X140617224Y-28353184D01*
X140226834Y-27962111D01*
X139716502Y-27750203D01*
X139163924Y-27749721D01*
X138653224Y-27960738D01*
X138262151Y-28351128D01*
X138169034Y-28575380D01*
X138077224Y-28353184D01*
X137686834Y-27962111D01*
X137176502Y-27750203D01*
X136623924Y-27749721D01*
X136113224Y-27960738D01*
X135722151Y-28351128D01*
X135629034Y-28575380D01*
X135537224Y-28353184D01*
X135146834Y-27962111D01*
X134636502Y-27750203D01*
X134083924Y-27749721D01*
X133573224Y-27960738D01*
X133182151Y-28351128D01*
X133089034Y-28575380D01*
X132997224Y-28353184D01*
X132606834Y-27962111D01*
X132096502Y-27750203D01*
X131543924Y-27749721D01*
X131033224Y-27960738D01*
X130642151Y-28351128D01*
X130549034Y-28575380D01*
X130457224Y-28353184D01*
X130066834Y-27962111D01*
X129556502Y-27750203D01*
X129003924Y-27749721D01*
X128493224Y-27960738D01*
X128102151Y-28351128D01*
X128009034Y-28575380D01*
X127917224Y-28353184D01*
X127526834Y-27962111D01*
X127016502Y-27750203D01*
X126463924Y-27749721D01*
X125953224Y-27960738D01*
X125562151Y-28351128D01*
X125469034Y-28575380D01*
X125377224Y-28353184D01*
X124986834Y-27962111D01*
X124476502Y-27750203D01*
X123923924Y-27749721D01*
X123413224Y-27960738D01*
X123022151Y-28351128D01*
X122929034Y-28575380D01*
X122837224Y-28353184D01*
X122446834Y-27962111D01*
X121936502Y-27750203D01*
X121383924Y-27749721D01*
X120873224Y-27960738D01*
X120482151Y-28351128D01*
X120389034Y-28575380D01*
X120297224Y-28353184D01*
X119906834Y-27962111D01*
X119396502Y-27750203D01*
X118843924Y-27749721D01*
X118333224Y-27960738D01*
X117942151Y-28351128D01*
X117849034Y-28575380D01*
X117757224Y-28353184D01*
X117366834Y-27962111D01*
X116856502Y-27750203D01*
X116303924Y-27749721D01*
X115793224Y-27960738D01*
X115402151Y-28351128D01*
X115309034Y-28575380D01*
X115217224Y-28353184D01*
X114826834Y-27962111D01*
X114316502Y-27750203D01*
X113763924Y-27749721D01*
X113253224Y-27960738D01*
X112862151Y-28351128D01*
X112769034Y-28575380D01*
X112677224Y-28353184D01*
X112286834Y-27962111D01*
X111776502Y-27750203D01*
X111223924Y-27749721D01*
X110713224Y-27960738D01*
X110322151Y-28351128D01*
X110229034Y-28575380D01*
X110137224Y-28353184D01*
X109746834Y-27962111D01*
X109236502Y-27750203D01*
X108683924Y-27749721D01*
X108173224Y-27960738D01*
X107782151Y-28351128D01*
X107689034Y-28575380D01*
X107597224Y-28353184D01*
X107206834Y-27962111D01*
X106696502Y-27750203D01*
X106143924Y-27749721D01*
X105633224Y-27960738D01*
X105242151Y-28351128D01*
X105149034Y-28575380D01*
X105057224Y-28353184D01*
X104666834Y-27962111D01*
X104156502Y-27750203D01*
X103603924Y-27749721D01*
X103093224Y-27960738D01*
X102702151Y-28351128D01*
X102609034Y-28575380D01*
X102517224Y-28353184D01*
X102126834Y-27962111D01*
X101616502Y-27750203D01*
X101063924Y-27749721D01*
X100553224Y-27960738D01*
X100162151Y-28351128D01*
X100069034Y-28575380D01*
X99977224Y-28353184D01*
X99586834Y-27962111D01*
X99076502Y-27750203D01*
X98523924Y-27749721D01*
X98013224Y-27960738D01*
X97622151Y-28351128D01*
X97529034Y-28575380D01*
X97437224Y-28353184D01*
X97046834Y-27962111D01*
X96536502Y-27750203D01*
X95983924Y-27749721D01*
X95473224Y-27960738D01*
X95082151Y-28351128D01*
X94870243Y-28861460D01*
X94869761Y-29414038D01*
X93334534Y-29414038D01*
X93397000Y-29100000D01*
X93223674Y-28228630D01*
X92730082Y-27489918D01*
X91991370Y-26996326D01*
X91120000Y-26823000D01*
X90248630Y-26996326D01*
X89509918Y-27489918D01*
X89016326Y-28228630D01*
X88896468Y-28831200D01*
X88245135Y-28179867D01*
X87960615Y-27989758D01*
X87702000Y-27938316D01*
X87702000Y-27528997D01*
X87826283Y-27613917D01*
X88075000Y-27664283D01*
X88575000Y-27664283D01*
X88807352Y-27620563D01*
X89020753Y-27483243D01*
X89147566Y-27297647D01*
X89287778Y-27269757D01*
X89501263Y-27127111D01*
X89558583Y-27127161D01*
X89899417Y-26986331D01*
X90160414Y-26725789D01*
X90301839Y-26385201D01*
X90302161Y-26016417D01*
X90161331Y-25675583D01*
X89900789Y-25414586D01*
X89560201Y-25273161D01*
X89191417Y-25272839D01*
X88850583Y-25413669D01*
X88744105Y-25519961D01*
X88575000Y-25485717D01*
X88075000Y-25485717D01*
X87842648Y-25529437D01*
X87629247Y-25666757D01*
X87575666Y-25745174D01*
X87533243Y-25679247D01*
X87323717Y-25536083D01*
X87075000Y-25485717D01*
X86575000Y-25485717D01*
X86342648Y-25529437D01*
X86129247Y-25666757D01*
X85986083Y-25876283D01*
X85935717Y-26125000D01*
X85935717Y-27025000D01*
X85948000Y-27090279D01*
X85948000Y-28800000D01*
X86014758Y-29135613D01*
X86204867Y-29420133D01*
X86489387Y-29610242D01*
X86825000Y-29677000D01*
X87261736Y-29677000D01*
X89273000Y-31688263D01*
X89273000Y-31821003D01*
X89148717Y-31736083D01*
X88900000Y-31685717D01*
X88400000Y-31685717D01*
X88292069Y-31706026D01*
X88200789Y-31614586D01*
X87860201Y-31473161D01*
X87491417Y-31472839D01*
X87150583Y-31613669D01*
X86889586Y-31874211D01*
X86748161Y-32214799D01*
X86747839Y-32583583D01*
X86888669Y-32924417D01*
X87149211Y-33185414D01*
X87489799Y-33326839D01*
X87696466Y-33327019D01*
X83700530Y-37322956D01*
X83566417Y-37322839D01*
X83225583Y-37463669D01*
X82964586Y-37724211D01*
X82823161Y-38064799D01*
X82822839Y-38433583D01*
X82963669Y-38774417D01*
X83224211Y-39035414D01*
X83564799Y-39176839D01*
X83933583Y-39177161D01*
X84274417Y-39036331D01*
X84384500Y-38926440D01*
X84384500Y-46378986D01*
X83471743Y-47291743D01*
X83322061Y-47515757D01*
X83269500Y-47780000D01*
X83269500Y-58910000D01*
X83322061Y-59174243D01*
X83471743Y-59398257D01*
X84091901Y-60018415D01*
X84004064Y-60460000D01*
X84116494Y-61025223D01*
X84436667Y-61504397D01*
X84774307Y-61730000D01*
X84436667Y-61955603D01*
X84116494Y-62434777D01*
X84004064Y-63000000D01*
X84116494Y-63565223D01*
X84436667Y-64044397D01*
X84493120Y-64082118D01*
X84427648Y-64094437D01*
X84214247Y-64231757D01*
X84071083Y-64441283D01*
X84020717Y-64690000D01*
X84020717Y-66390000D01*
X84064437Y-66622352D01*
X84201757Y-66835753D01*
X84411283Y-66978917D01*
X84660000Y-67029283D01*
X86360000Y-67029283D01*
X86592352Y-66985563D01*
X86805753Y-66848243D01*
X86948917Y-66638717D01*
X86999283Y-66390000D01*
X86999283Y-66004231D01*
X87738257Y-65265257D01*
X87887939Y-65041243D01*
X87940500Y-64777000D01*
X87940500Y-62766014D01*
X90933306Y-59773208D01*
X90998257Y-59708258D01*
X90998259Y-59708255D01*
X93118257Y-57588257D01*
X93267939Y-57364243D01*
X93320500Y-57100000D01*
X93320500Y-50636014D01*
X93386014Y-50570500D01*
X104399462Y-50570500D01*
X104494211Y-50665414D01*
X104834799Y-50806839D01*
X105203583Y-50807161D01*
X105544417Y-50666331D01*
X105805414Y-50405789D01*
X105946839Y-50065201D01*
X105947161Y-49696417D01*
X105806331Y-49355583D01*
X105545789Y-49094586D01*
X105205201Y-48953161D01*
X104836417Y-48952839D01*
X104495583Y-49093669D01*
X104399585Y-49189500D01*
X93100000Y-49189500D01*
X92835757Y-49242061D01*
X92611743Y-49391743D01*
X92380500Y-49622986D01*
X92380500Y-48748476D01*
X93158476Y-47970500D01*
X94829462Y-47970500D01*
X94924211Y-48065414D01*
X95264799Y-48206839D01*
X95633583Y-48207161D01*
X95974417Y-48066331D01*
X96235414Y-47805789D01*
X96376839Y-47465201D01*
X96377161Y-47096417D01*
X96236331Y-46755583D01*
X95975789Y-46494586D01*
X95635201Y-46353161D01*
X95600352Y-46353131D01*
X95506331Y-46125583D01*
X95245789Y-45864586D01*
X94905201Y-45723161D01*
X94536417Y-45722839D01*
X94195583Y-45863669D01*
X94050774Y-46008226D01*
X94031493Y-46012061D01*
X93807479Y-46161743D01*
X93769722Y-46199500D01*
X92800000Y-46199500D01*
X92713967Y-46216613D01*
X92776839Y-46065201D01*
X92776881Y-46016607D01*
X93392790Y-45400699D01*
X98454415Y-45400699D01*
X98392560Y-45549663D01*
X98392038Y-46147713D01*
X98620419Y-46700438D01*
X99042935Y-47123692D01*
X99595261Y-47353038D01*
X100193311Y-47353560D01*
X100746036Y-47125179D01*
X101169290Y-46702663D01*
X101398636Y-46150337D01*
X101399158Y-45552287D01*
X101336523Y-45400699D01*
X102099777Y-45400699D01*
X102073160Y-45464799D01*
X102072838Y-45833583D01*
X102213668Y-46174417D01*
X102474210Y-46435414D01*
X102814798Y-46576839D01*
X103183582Y-46577161D01*
X103524416Y-46436331D01*
X103785413Y-46175789D01*
X103926838Y-45835201D01*
X103927160Y-45466417D01*
X103900006Y-45400699D01*
X105639132Y-45400699D01*
X105862228Y-45549767D01*
X106150006Y-45607010D01*
X106863730Y-45607010D01*
X106897086Y-45640424D01*
X107237674Y-45781849D01*
X107606458Y-45782171D01*
X107947292Y-45641341D01*
X107980653Y-45608038D01*
X107995990Y-45623401D01*
X107995990Y-56927496D01*
X101017405Y-63906081D01*
X100405853Y-64517631D01*
X100384133Y-64550138D01*
X100354260Y-64575362D01*
X100312374Y-64627884D01*
X100277837Y-64694736D01*
X100271966Y-64690813D01*
X100246738Y-64660938D01*
X100194215Y-64619053D01*
X100125291Y-64583446D01*
X100063303Y-64536795D01*
X100002778Y-64507647D01*
X99927646Y-64488266D01*
X99856818Y-64456573D01*
X99791323Y-64441625D01*
X99713773Y-64439450D01*
X99637690Y-64424315D01*
X99570512Y-64424314D01*
X99494405Y-64439451D01*
X99416840Y-64441629D01*
X99351345Y-64456579D01*
X99280538Y-64488265D01*
X99205421Y-64507640D01*
X99144896Y-64536786D01*
X99082901Y-64583440D01*
X99013967Y-64619052D01*
X98961444Y-64660937D01*
X98911383Y-64720219D01*
X98852101Y-64770280D01*
X98810216Y-64822803D01*
X98774610Y-64891726D01*
X98727960Y-64953711D01*
X98698811Y-65014237D01*
X98679427Y-65089377D01*
X98647734Y-65160209D01*
X98632787Y-65225703D01*
X98631029Y-65288395D01*
X98568313Y-65290156D01*
X98502818Y-65305106D01*
X98432011Y-65336792D01*
X98356894Y-65356167D01*
X98296369Y-65385313D01*
X98234374Y-65431967D01*
X98165440Y-65467579D01*
X98112917Y-65509464D01*
X98062856Y-65568746D01*
X98003574Y-65618807D01*
X97961689Y-65671330D01*
X97926083Y-65740253D01*
X97879433Y-65802238D01*
X97850284Y-65862764D01*
X97830900Y-65937904D01*
X97799207Y-66008736D01*
X97784260Y-66074230D01*
X97782502Y-66136922D01*
X97719786Y-66138683D01*
X97654291Y-66153633D01*
X97583484Y-66185319D01*
X97508367Y-66204694D01*
X97447842Y-66233840D01*
X97385847Y-66280494D01*
X97316913Y-66316106D01*
X97264390Y-66357991D01*
X97214329Y-66417273D01*
X97155047Y-66467334D01*
X97113162Y-66519857D01*
X97077556Y-66588780D01*
X97030906Y-66650765D01*
X97001757Y-66711291D01*
X96982373Y-66786431D01*
X96950680Y-66857263D01*
X96935733Y-66922757D01*
X96933559Y-67000303D01*
X96918424Y-67076392D01*
X96918424Y-67143570D01*
X96933558Y-67219656D01*
X96935732Y-67297201D01*
X96950679Y-67362697D01*
X96982370Y-67433526D01*
X97001753Y-67508665D01*
X97030901Y-67569191D01*
X97077559Y-67631189D01*
X97113174Y-67700124D01*
X97155060Y-67752645D01*
X97184929Y-67777866D01*
X97188846Y-67783728D01*
X97121995Y-67818265D01*
X97069473Y-67860151D01*
X97044249Y-67890023D01*
X97011743Y-67911743D01*
X86172251Y-78751235D01*
X85778936Y-78673000D01*
X85721064Y-78673000D01*
X85155841Y-78785430D01*
X84676667Y-79105603D01*
X84356494Y-79584777D01*
X84244064Y-80150000D01*
X84356494Y-80715223D01*
X84676667Y-81194397D01*
X85014307Y-81420000D01*
X84676667Y-81645603D01*
X84480000Y-81939937D01*
X84283333Y-81645603D01*
X83804159Y-81325430D01*
X83238936Y-81213000D01*
X83181064Y-81213000D01*
X82615841Y-81325430D01*
X82597000Y-81338019D01*
X82597000Y-77555600D01*
X82817443Y-77511751D01*
X82888922Y-77482143D01*
X83061488Y-77410664D01*
X83710332Y-76977120D01*
X83710335Y-76977119D01*
X83897119Y-76790335D01*
X84330664Y-76141488D01*
X84373491Y-76038093D01*
X84431751Y-75897443D01*
X84583992Y-75132077D01*
X84583992Y-75065396D01*
X84597000Y-75000000D01*
X84597000Y-72279997D01*
X84626667Y-72324397D01*
X85105841Y-72644570D01*
X85671064Y-72757000D01*
X85728936Y-72757000D01*
X86294159Y-72644570D01*
X86773333Y-72324397D01*
X87093506Y-71845223D01*
X87205936Y-71280000D01*
X87093506Y-70714777D01*
X86773333Y-70235603D01*
X86435693Y-70010000D01*
X86773333Y-69784397D01*
X87093506Y-69305223D01*
X87205936Y-68740000D01*
X87093506Y-68174777D01*
X86773333Y-67695603D01*
X86294159Y-67375430D01*
X85728936Y-67263000D01*
X85671064Y-67263000D01*
X85105841Y-67375430D01*
X84626667Y-67695603D01*
X84402284Y-68031417D01*
X84367767Y-67948088D01*
X84330664Y-67858512D01*
X83897119Y-67209665D01*
X83710335Y-67022881D01*
X83710332Y-67022880D01*
X83061488Y-66589336D01*
X82880021Y-66514170D01*
X82817443Y-66488249D01*
X82597000Y-66444400D01*
X82597000Y-37555600D01*
X82817443Y-37511751D01*
X82888922Y-37482143D01*
X83061488Y-37410664D01*
X83710332Y-36977120D01*
X83710335Y-36977119D01*
X83897119Y-36790335D01*
X84330664Y-36141488D01*
X84373491Y-36038093D01*
X84431751Y-35897443D01*
X84583992Y-35132077D01*
X84583992Y-35065396D01*
X84597000Y-35000000D01*
X84597000Y-24677000D01*
X95364400Y-24677000D01*
X95484369Y-25280126D01*
G36*
X155610717Y-72750000D02*
X155630224Y-72853671D01*
X155610717Y-72950000D01*
X155610717Y-73550000D01*
X155630224Y-73653671D01*
X155610717Y-73750000D01*
X155610717Y-74350000D01*
X155654437Y-74582352D01*
X155791757Y-74795753D01*
X155870174Y-74849334D01*
X155804247Y-74891757D01*
X155661083Y-75101283D01*
X155610717Y-75350000D01*
X155610717Y-75950000D01*
X155630224Y-76053671D01*
X155610717Y-76150000D01*
X155610717Y-76750000D01*
X155654437Y-76982352D01*
X155791757Y-77195753D01*
X155870174Y-77249334D01*
X155804247Y-77291757D01*
X155661083Y-77501283D01*
X155610717Y-77750000D01*
X155610717Y-78350000D01*
X155630224Y-78453671D01*
X155610717Y-78550000D01*
X155610717Y-79150000D01*
X155630224Y-79253671D01*
X155610717Y-79350000D01*
X155610717Y-79950000D01*
X155630224Y-80053671D01*
X155610717Y-80150000D01*
X155610717Y-80750000D01*
X155654437Y-80982352D01*
X155791757Y-81195753D01*
X155870174Y-81249334D01*
X155804247Y-81291757D01*
X155799981Y-81298000D01*
X155001999Y-81298000D01*
X155001999Y-72911489D01*
X155610717Y-72302771D01*
X155610717Y-72750000D01*
X155610717Y-72750000D01*
G37*
X155610717Y-72750000D02*
X155630224Y-72853671D01*
X155610717Y-72950000D01*
X155610717Y-73550000D01*
X155630224Y-73653671D01*
X155610717Y-73750000D01*
X155610717Y-74350000D01*
X155654437Y-74582352D01*
X155791757Y-74795753D01*
X155870174Y-74849334D01*
X155804247Y-74891757D01*
X155661083Y-75101283D01*
X155610717Y-75350000D01*
X155610717Y-75950000D01*
X155630224Y-76053671D01*
X155610717Y-76150000D01*
X155610717Y-76750000D01*
X155654437Y-76982352D01*
X155791757Y-77195753D01*
X155870174Y-77249334D01*
X155804247Y-77291757D01*
X155661083Y-77501283D01*
X155610717Y-77750000D01*
X155610717Y-78350000D01*
X155630224Y-78453671D01*
X155610717Y-78550000D01*
X155610717Y-79150000D01*
X155630224Y-79253671D01*
X155610717Y-79350000D01*
X155610717Y-79950000D01*
X155630224Y-80053671D01*
X155610717Y-80150000D01*
X155610717Y-80750000D01*
X155654437Y-80982352D01*
X155791757Y-81195753D01*
X155870174Y-81249334D01*
X155804247Y-81291757D01*
X155799981Y-81298000D01*
X155001999Y-81298000D01*
X155001999Y-72911489D01*
X155610717Y-72302771D01*
X155610717Y-72750000D01*
G36*
X86984500Y-37691441D02*
X87037061Y-37955684D01*
X87186743Y-38179698D01*
X92933203Y-43926158D01*
X92793523Y-43953942D01*
X92695804Y-44019235D01*
X92549557Y-44116954D01*
X91713631Y-44952880D01*
X91666417Y-44952839D01*
X91325583Y-45093669D01*
X91064586Y-45354211D01*
X90923161Y-45694799D01*
X90922839Y-46063583D01*
X91063669Y-46404417D01*
X91324211Y-46665414D01*
X91664799Y-46806839D01*
X91906435Y-46807050D01*
X90801743Y-47911743D01*
X90652061Y-48135757D01*
X90599500Y-48400000D01*
X90599500Y-52979500D01*
X87615500Y-52979500D01*
X87615500Y-47970538D01*
X87710414Y-47875789D01*
X87851839Y-47535201D01*
X87852161Y-47166417D01*
X87711331Y-46825583D01*
X87450789Y-46564586D01*
X87110201Y-46423161D01*
X86741417Y-46422839D01*
X86400583Y-46563669D01*
X86139586Y-46824211D01*
X85998161Y-47164799D01*
X85997839Y-47533583D01*
X86138669Y-47874417D01*
X86234500Y-47970415D01*
X86234500Y-53678986D01*
X85932251Y-53981235D01*
X85538936Y-53903000D01*
X85481064Y-53903000D01*
X84915841Y-54015430D01*
X84650500Y-54192725D01*
X84650500Y-48066014D01*
X85563257Y-47153257D01*
X85712939Y-46929243D01*
X85765500Y-46665000D01*
X85765500Y-38861750D01*
X86984500Y-37642750D01*
X86984500Y-37691441D01*
X86984500Y-37691441D01*
G37*
X86984500Y-37691441D02*
X87037061Y-37955684D01*
X87186743Y-38179698D01*
X92933203Y-43926158D01*
X92793523Y-43953942D01*
X92695804Y-44019235D01*
X92549557Y-44116954D01*
X91713631Y-44952880D01*
X91666417Y-44952839D01*
X91325583Y-45093669D01*
X91064586Y-45354211D01*
X90923161Y-45694799D01*
X90922839Y-46063583D01*
X91063669Y-46404417D01*
X91324211Y-46665414D01*
X91664799Y-46806839D01*
X91906435Y-46807050D01*
X90801743Y-47911743D01*
X90652061Y-48135757D01*
X90599500Y-48400000D01*
X90599500Y-52979500D01*
X87615500Y-52979500D01*
X87615500Y-47970538D01*
X87710414Y-47875789D01*
X87851839Y-47535201D01*
X87852161Y-47166417D01*
X87711331Y-46825583D01*
X87450789Y-46564586D01*
X87110201Y-46423161D01*
X86741417Y-46422839D01*
X86400583Y-46563669D01*
X86139586Y-46824211D01*
X85998161Y-47164799D01*
X85997839Y-47533583D01*
X86138669Y-47874417D01*
X86234500Y-47970415D01*
X86234500Y-53678986D01*
X85932251Y-53981235D01*
X85538936Y-53903000D01*
X85481064Y-53903000D01*
X84915841Y-54015430D01*
X84650500Y-54192725D01*
X84650500Y-48066014D01*
X85563257Y-47153257D01*
X85712939Y-46929243D01*
X85765500Y-46665000D01*
X85765500Y-38861750D01*
X86984500Y-37642750D01*
X86984500Y-37691441D01*
G36*
X109072839Y-41933583D02*
X109213669Y-42274417D01*
X109474211Y-42535414D01*
X109814799Y-42676839D01*
X109950443Y-42676957D01*
X111559500Y-44286015D01*
X111559500Y-45281656D01*
X111536331Y-45225583D01*
X111275789Y-44964586D01*
X110935201Y-44823161D01*
X110740447Y-44822991D01*
X110740671Y-44566417D01*
X110599841Y-44225583D01*
X110339299Y-43964586D01*
X109998711Y-43823161D01*
X109629927Y-43822839D01*
X109289093Y-43963669D01*
X109086900Y-44165510D01*
X108871691Y-44076147D01*
X108502907Y-44075825D01*
X108162073Y-44216655D01*
X108128712Y-44249958D01*
X107948664Y-44069596D01*
X107608076Y-43928171D01*
X107239292Y-43927849D01*
X106898458Y-44068679D01*
X106864067Y-44103010D01*
X106454569Y-44103010D01*
X106231473Y-43953942D01*
X105943695Y-43896699D01*
X96716256Y-43896699D01*
X98735957Y-41876998D01*
X109072888Y-41876998D01*
X109072839Y-41933583D01*
X109072839Y-41933583D01*
G37*
X109072839Y-41933583D02*
X109213669Y-42274417D01*
X109474211Y-42535414D01*
X109814799Y-42676839D01*
X109950443Y-42676957D01*
X111559500Y-44286015D01*
X111559500Y-45281656D01*
X111536331Y-45225583D01*
X111275789Y-44964586D01*
X110935201Y-44823161D01*
X110740447Y-44822991D01*
X110740671Y-44566417D01*
X110599841Y-44225583D01*
X110339299Y-43964586D01*
X109998711Y-43823161D01*
X109629927Y-43822839D01*
X109289093Y-43963669D01*
X109086900Y-44165510D01*
X108871691Y-44076147D01*
X108502907Y-44075825D01*
X108162073Y-44216655D01*
X108128712Y-44249958D01*
X107948664Y-44069596D01*
X107608076Y-43928171D01*
X107239292Y-43927849D01*
X106898458Y-44068679D01*
X106864067Y-44103010D01*
X106454569Y-44103010D01*
X106231473Y-43953942D01*
X105943695Y-43896699D01*
X96716256Y-43896699D01*
X98735957Y-41876998D01*
X109072888Y-41876998D01*
X109072839Y-41933583D01*
M02*
