G04 #@! TF.FileFunction,Copper,L3,Inr,Plane*
%FSLAX46Y46*%
G04 Gerber Fmt 4.6, Leading zero omitted, Abs format (unit mm)*
G04 Created by KiCad (PCBNEW 4.0.7) date 02/05/18 12:52:08*
%MOMM*%
%LPD*%
G01*
G04 APERTURE LIST*
%ADD10C,0.100000*%
%ADD11C,6.000000*%
%ADD12R,1.700000X1.700000*%
%ADD13O,1.700000X1.700000*%
%ADD14C,1.752600*%
%ADD15C,1.500000*%
%ADD16C,1.650000*%
%ADD17C,2.500000*%
%ADD18C,3.250000*%
%ADD19C,1.524000*%
%ADD20C,0.600000*%
%ADD21C,0.200000*%
%ADD22C,0.250000*%
%ADD23C,0.500000*%
%ADD24C,1.000000*%
%ADD25C,0.125000*%
%ADD26C,0.254000*%
G04 APERTURE END LIST*
D10*
D11*
X170085000Y-43850000D03*
X170085000Y-90850000D03*
D12*
X85750000Y-96555000D03*
D13*
X83210000Y-96555000D03*
X85750000Y-94015000D03*
X83210000Y-94015000D03*
X85750000Y-91475000D03*
X83210000Y-91475000D03*
X85750000Y-88935000D03*
X83210000Y-88935000D03*
D14*
X99895598Y-45850000D03*
X99895598Y-45850000D03*
X157604398Y-45850000D03*
X157604398Y-45850000D03*
D15*
X161390000Y-108040000D03*
X160120000Y-105500000D03*
X158850000Y-108040000D03*
X157580000Y-105500000D03*
X156310000Y-108040000D03*
X155040000Y-105500000D03*
X153770000Y-108040000D03*
X152500000Y-105500000D03*
X151230000Y-108040000D03*
X149960000Y-105500000D03*
D16*
X161140000Y-100670000D03*
X158600000Y-100670000D03*
X152500000Y-100670000D03*
X149960000Y-100670000D03*
D17*
X148945000Y-111340000D03*
D18*
X149960000Y-114390000D03*
X161390000Y-114390000D03*
D17*
X162405000Y-111340000D03*
D19*
X96260000Y-36755000D03*
X96260000Y-34215000D03*
X98800000Y-36755000D03*
X98800000Y-34215000D03*
X101340000Y-36755000D03*
X101340000Y-34215000D03*
X103880000Y-36755000D03*
X103880000Y-34215000D03*
X106420000Y-36755000D03*
X106420000Y-34215000D03*
X108960000Y-36755000D03*
X108960000Y-34215000D03*
X111500000Y-36755000D03*
X111500000Y-34215000D03*
X114040000Y-36755000D03*
X114040000Y-34215000D03*
X116580000Y-36755000D03*
X116580000Y-34215000D03*
X119120000Y-36755000D03*
X119120000Y-34215000D03*
X121660000Y-36755000D03*
X121660000Y-34215000D03*
X124200000Y-36755000D03*
X124200000Y-34215000D03*
X126740000Y-36755000D03*
X126740000Y-34215000D03*
X129280000Y-36755000D03*
X129280000Y-34215000D03*
X131820000Y-36755000D03*
X131820000Y-34215000D03*
X134360000Y-36755000D03*
X134360000Y-34215000D03*
X136900000Y-36755000D03*
X136900000Y-34215000D03*
X139440000Y-36755000D03*
X139440000Y-34215000D03*
X141980000Y-36755000D03*
X141980000Y-34215000D03*
X144520000Y-36755000D03*
X144520000Y-34215000D03*
X147060000Y-36755000D03*
X147060000Y-34215000D03*
X149600000Y-36755000D03*
X149600000Y-34215000D03*
X152140000Y-36755000D03*
X152140000Y-34215000D03*
X154680000Y-36755000D03*
X154680000Y-34215000D03*
X157220000Y-36755000D03*
X157220000Y-34215000D03*
X159760000Y-36755000D03*
X159760000Y-34215000D03*
X96259001Y-31678961D03*
X96259001Y-29138961D03*
X98799001Y-31678961D03*
X98799001Y-29138961D03*
X101339001Y-31678961D03*
X101339001Y-29138961D03*
X103879001Y-31678961D03*
X103879001Y-29138961D03*
X106419001Y-31678961D03*
X106419001Y-29138961D03*
X108959001Y-31678961D03*
X108959001Y-29138961D03*
X111499001Y-31678961D03*
X111499001Y-29138961D03*
X114039001Y-31678961D03*
X114039001Y-29138961D03*
X116579001Y-31678961D03*
X116579001Y-29138961D03*
X119119001Y-31678961D03*
X119119001Y-29138961D03*
X121659001Y-31678961D03*
X121659001Y-29138961D03*
X124199001Y-31678961D03*
X124199001Y-29138961D03*
X126739001Y-31678961D03*
X126739001Y-29138961D03*
X129279001Y-31678961D03*
X129279001Y-29138961D03*
X131819001Y-31678961D03*
X131819001Y-29138961D03*
X134359001Y-31678961D03*
X134359001Y-29138961D03*
X136899001Y-31678961D03*
X136899001Y-29138961D03*
X139439001Y-31678961D03*
X139439001Y-29138961D03*
X141979001Y-31678961D03*
X141979001Y-29138961D03*
X144519001Y-31678961D03*
X144519001Y-29138961D03*
X147059001Y-31678961D03*
X147059001Y-29138961D03*
X149599001Y-31678961D03*
X149599001Y-29138961D03*
X152139001Y-31678961D03*
X152139001Y-29138961D03*
X154679001Y-31678961D03*
X154679001Y-29138961D03*
X157219001Y-31678961D03*
X157219001Y-29138961D03*
X159759001Y-31678961D03*
X159759001Y-29138961D03*
D12*
X85700000Y-73820000D03*
D13*
X85700000Y-71280000D03*
X85700000Y-68740000D03*
D12*
X85510000Y-65540000D03*
D13*
X85510000Y-63000000D03*
X85510000Y-60460000D03*
X85510000Y-57920000D03*
X85510000Y-55380000D03*
X85510000Y-52840000D03*
D12*
X172490000Y-49220000D03*
D13*
X172490000Y-51760000D03*
X172490000Y-54300000D03*
D12*
X85750000Y-85230000D03*
D13*
X83210000Y-85230000D03*
X85750000Y-82690000D03*
X83210000Y-82690000D03*
X85750000Y-80150000D03*
X83210000Y-80150000D03*
D11*
X94325000Y-90850000D03*
D20*
X160325000Y-58870000D03*
X154725000Y-58750000D03*
X160500000Y-71400000D03*
X153950000Y-82300000D03*
X139230000Y-104760000D03*
X163810000Y-77640000D03*
X137080000Y-111435000D03*
X137330000Y-114360000D03*
X139755000Y-114460000D03*
X142730000Y-114460000D03*
X91175000Y-36500000D03*
X126195000Y-110715000D03*
X113740000Y-50010000D03*
X142680000Y-111485000D03*
X140270000Y-49650000D03*
X156990000Y-49640000D03*
X139340000Y-47305000D03*
X120595000Y-107590000D03*
X125270000Y-113415000D03*
X132630000Y-101560000D03*
X136405000Y-106860000D03*
X168630000Y-70184099D03*
X168630000Y-70984099D03*
X145740000Y-40950000D03*
X145700000Y-45110000D03*
X168290000Y-73350000D03*
X145740000Y-40150000D03*
X145700000Y-45910000D03*
X168290000Y-74150000D03*
X164080000Y-80820000D03*
X130000000Y-44750000D03*
X125000000Y-45000000D03*
X125750000Y-51250000D03*
X123000000Y-44500000D03*
X114750000Y-45000000D03*
X112500000Y-53500000D03*
X110000000Y-41750000D03*
X107422875Y-44855010D03*
X91850000Y-45880000D03*
X89375000Y-26200000D03*
X94720000Y-46650000D03*
X86925000Y-47350000D03*
X95450000Y-47280000D03*
X93340000Y-42290000D03*
X131910000Y-47050000D03*
X83750000Y-38250000D03*
X87675000Y-32400000D03*
X129436490Y-47000000D03*
X128000000Y-49750000D03*
X125000000Y-47000000D03*
X123030000Y-47470000D03*
X87675000Y-36400000D03*
X105020000Y-49880000D03*
X102999999Y-45650000D03*
X108225000Y-96525000D03*
X134855000Y-98560000D03*
X159250000Y-44000000D03*
X159250000Y-45000000D03*
X159250000Y-46250000D03*
X159250000Y-47500000D03*
X160250000Y-47500000D03*
X160250000Y-46250000D03*
X160250000Y-45000000D03*
X160250000Y-44000000D03*
X98000000Y-44250000D03*
X98000000Y-45500000D03*
X98000000Y-46750000D03*
X98000000Y-47750000D03*
X97000000Y-47750000D03*
X97000000Y-46750000D03*
X97000000Y-45500000D03*
X97000000Y-44250000D03*
X111186490Y-47250000D03*
X146020000Y-49650000D03*
X155332053Y-46768515D03*
X160576490Y-94412781D03*
X151125000Y-94325000D03*
X85525000Y-51000000D03*
X87350000Y-73825000D03*
X100750000Y-113000000D03*
X99575000Y-110000000D03*
X99500000Y-111500000D03*
X99500000Y-113000000D03*
X102000000Y-113000000D03*
X102000000Y-111500000D03*
X102000000Y-110000000D03*
X100725000Y-110000000D03*
X100725000Y-111500000D03*
X115000000Y-113000000D03*
X112850000Y-113000000D03*
X114925000Y-110000000D03*
X112725000Y-110000000D03*
X112725000Y-111500000D03*
X115000000Y-111500000D03*
X113875000Y-113000000D03*
X113800000Y-110000000D03*
X113825000Y-111500000D03*
X155040000Y-103750000D03*
X150925000Y-111100000D03*
X163725000Y-109600000D03*
X162675000Y-108000000D03*
X155575000Y-80900000D03*
X159175000Y-77050000D03*
X159175000Y-74875000D03*
X163375000Y-75100000D03*
X158950000Y-71575000D03*
X163675000Y-72725000D03*
X163600000Y-71825000D03*
X162900000Y-69275000D03*
X157250000Y-67100000D03*
X163450000Y-61650000D03*
X158925000Y-59800000D03*
X101400000Y-47125000D03*
X106500000Y-47325000D03*
X116500000Y-47250000D03*
X121475000Y-47250000D03*
X126500000Y-47225000D03*
X130825000Y-47150000D03*
X136000000Y-47275000D03*
X141025000Y-47025000D03*
X150850000Y-47250000D03*
X101475000Y-42050000D03*
X106450000Y-41925000D03*
X111500000Y-42050000D03*
X116500000Y-42025000D03*
X121500000Y-41900000D03*
X123500000Y-41925000D03*
X126500000Y-42075000D03*
X128000000Y-42025000D03*
X131000000Y-42025000D03*
X136000000Y-42000000D03*
X141000000Y-42000000D03*
X146000000Y-42075000D03*
X149475000Y-44275000D03*
X156850000Y-43400000D03*
X163325000Y-76050000D03*
X163150000Y-64175000D03*
X129790000Y-112810000D03*
X144930000Y-112960000D03*
X155482842Y-45982842D03*
X147532842Y-79017158D03*
X154917158Y-45417158D03*
X146967158Y-79582842D03*
X157200000Y-42090000D03*
X152260000Y-39360000D03*
X144820000Y-72460000D03*
X152260000Y-40140000D03*
X145600000Y-72460000D03*
X152510000Y-41750000D03*
X151042158Y-78492158D03*
X152510000Y-40970000D03*
X151607842Y-79057842D03*
X150194229Y-41115771D03*
X149540000Y-72550000D03*
X150745771Y-40564229D03*
X150320000Y-72550000D03*
X111686490Y-51500000D03*
X110750000Y-45750000D03*
X109813510Y-44750000D03*
X110000000Y-51250000D03*
X109250000Y-46750000D03*
X97500000Y-70000000D03*
X108686490Y-45002986D03*
D21*
X105595000Y-99000000D02*
X112250000Y-99000000D01*
X84980000Y-87000000D02*
X97405000Y-87000000D01*
X83210000Y-85230000D02*
X84980000Y-87000000D01*
X97405000Y-87000000D02*
X103825000Y-93420000D01*
X103825000Y-93420000D02*
X103825000Y-97230000D01*
X103825000Y-97230000D02*
X105595000Y-99000000D01*
X120250000Y-114500000D02*
X131250000Y-114500000D01*
X139230000Y-106520000D02*
X139230000Y-104760000D01*
X131250000Y-114500000D02*
X139230000Y-106520000D01*
X112250000Y-99000000D02*
X117500000Y-104250000D01*
X117500000Y-104250000D02*
X117500000Y-111750000D01*
X117500000Y-111750000D02*
X120250000Y-114500000D01*
D22*
X152825000Y-80475000D02*
X152825000Y-60650000D01*
X152825000Y-60650000D02*
X154725000Y-58750000D01*
X161940000Y-77640000D02*
X160500000Y-76200000D01*
X160500000Y-76200000D02*
X160500000Y-71400000D01*
X163810000Y-77640000D02*
X161940000Y-77640000D01*
X155325000Y-77975000D02*
X163475000Y-77975000D01*
X163475000Y-77975000D02*
X163810000Y-77640000D01*
X152825000Y-80475000D02*
X155325000Y-77975000D01*
D23*
X152825000Y-82300000D02*
X153950000Y-82300000D01*
X149300000Y-82300000D02*
X152825000Y-82300000D01*
D22*
X152825000Y-82300000D02*
X152825000Y-80475000D01*
D23*
X139529999Y-92070001D02*
X149300000Y-82300000D01*
X139230000Y-104760000D02*
X139529999Y-104460001D01*
X139529999Y-104460001D02*
X139529999Y-92070001D01*
D21*
X139230000Y-104760000D02*
X139360000Y-104760000D01*
D24*
X91474999Y-36799999D02*
X91175000Y-36500000D01*
X113740000Y-50010000D02*
X113740000Y-47220002D01*
X113740000Y-47220002D02*
X106244998Y-39725000D01*
X106244998Y-39725000D02*
X94400000Y-39725000D01*
X94400000Y-39725000D02*
X91474999Y-36799999D01*
D23*
X121695999Y-67500000D02*
X121695999Y-67114079D01*
D24*
X121695999Y-57965999D02*
X121230000Y-57500000D01*
X121695999Y-106215999D02*
X121695999Y-67500000D01*
D23*
X121800000Y-58070000D02*
X121230000Y-57500000D01*
D24*
X121230000Y-57500000D02*
X114039999Y-50309999D01*
X121695999Y-67500000D02*
X121695999Y-57965999D01*
X126195000Y-110715000D02*
X121695999Y-106215999D01*
X114039999Y-50309999D02*
X113740000Y-50010000D01*
X108225000Y-96525000D02*
X108225000Y-50875001D01*
X108225000Y-50875001D02*
X102999999Y-45650000D01*
D25*
X145581525Y-67140194D02*
X145584113Y-67132797D01*
X145089225Y-67341360D02*
X145127390Y-67280620D01*
X147727500Y-43296834D02*
X148547500Y-42476834D01*
X145565179Y-67156540D02*
X145571814Y-67152370D01*
X145549995Y-67160006D02*
X145557782Y-67159128D01*
X145571814Y-66622639D02*
X145565179Y-66618469D01*
X145584991Y-67125010D02*
X145584991Y-66650000D01*
X145178115Y-66545114D02*
X145127390Y-66494389D01*
X145584113Y-66642212D02*
X145581525Y-66634815D01*
X147727500Y-45876834D02*
X147727500Y-43296834D01*
X145238855Y-67191730D02*
X145306564Y-67168037D01*
X144820000Y-72460000D02*
X145057501Y-72222499D01*
X145571814Y-67152370D02*
X145577355Y-67146829D01*
X145306564Y-66606972D02*
X145238855Y-66583279D01*
X145065532Y-66365940D02*
X145057501Y-66294655D01*
X145057501Y-67480354D02*
X145065532Y-67409069D01*
X145577355Y-66628180D02*
X145571814Y-66622639D01*
X145057501Y-72222499D02*
X145057501Y-67480354D01*
X145065532Y-67409069D02*
X145089225Y-67341360D01*
X145557782Y-67159128D02*
X145565179Y-67156540D01*
X145127390Y-67280620D02*
X145178115Y-67229895D01*
X145178115Y-67229895D02*
X145238855Y-67191730D01*
X145306564Y-67168037D02*
X145377849Y-67160006D01*
X145377849Y-67160006D02*
X145549995Y-67160006D01*
X145584113Y-67132797D02*
X145584991Y-67125010D01*
X145577355Y-67146829D02*
X145581525Y-67140194D01*
X145584991Y-66650000D02*
X145584113Y-66642212D01*
X148547500Y-42476834D02*
X148547500Y-40536834D01*
X145581525Y-66634815D02*
X145577355Y-66628180D01*
X145565179Y-66618469D02*
X145557782Y-66615881D01*
X145557782Y-66615881D02*
X145549995Y-66615004D01*
X145549995Y-66615004D02*
X145377849Y-66615004D01*
X145377849Y-66615004D02*
X145306564Y-66606972D01*
X145238855Y-66583279D02*
X145178115Y-66545114D01*
X145127390Y-66494389D02*
X145089225Y-66433649D01*
X145089225Y-66433649D02*
X145065532Y-66365940D01*
X145057501Y-66294655D02*
X145057501Y-48546833D01*
X145057501Y-48546833D02*
X147727500Y-45876834D01*
X148547500Y-40536834D02*
X149486834Y-39597500D01*
X149486834Y-39597500D02*
X152022499Y-39597501D01*
X152022499Y-39597501D02*
X152260000Y-39360000D01*
X145600000Y-72460000D02*
X145362499Y-72222499D01*
X145769374Y-67395114D02*
X145820099Y-67344389D01*
X145382310Y-67468469D02*
X145389707Y-67465881D01*
X145820099Y-67344389D02*
X145858264Y-67283649D01*
X145362499Y-72222499D02*
X145362499Y-67500000D01*
X145362499Y-66275010D02*
X145362499Y-48673167D01*
X145708634Y-67433279D02*
X145769374Y-67395114D01*
X148032500Y-43423166D02*
X148852500Y-42603166D01*
X145362499Y-67500000D02*
X145363376Y-67492212D01*
X145858264Y-67283649D02*
X145881957Y-67215940D01*
X145363376Y-67492212D02*
X145365964Y-67484815D01*
X145769374Y-66379895D02*
X145708634Y-66341730D01*
X145370134Y-67478180D02*
X145375675Y-67472639D01*
X145382310Y-66306540D02*
X145375675Y-66302370D01*
X145365964Y-67484815D02*
X145370134Y-67478180D01*
X145889989Y-66630354D02*
X145881957Y-66559069D01*
X145375675Y-67472639D02*
X145382310Y-67468469D01*
X145389707Y-67465881D02*
X145397495Y-67465004D01*
X145881957Y-66559069D02*
X145858264Y-66491360D01*
X149613166Y-39902500D02*
X152022499Y-39902499D01*
X145397495Y-67465004D02*
X145569640Y-67465004D01*
X145569640Y-66310006D02*
X145397495Y-66310006D01*
X148032500Y-46003166D02*
X148032500Y-43423166D01*
X145569640Y-67465004D02*
X145640925Y-67456972D01*
X145889989Y-67144655D02*
X145889989Y-66630354D01*
X145640925Y-67456972D02*
X145708634Y-67433279D01*
X145881957Y-67215940D02*
X145889989Y-67144655D01*
X145640925Y-66318037D02*
X145569640Y-66310006D01*
X145858264Y-66491360D02*
X145820099Y-66430620D01*
X145365964Y-66290194D02*
X145363376Y-66282797D01*
X145820099Y-66430620D02*
X145769374Y-66379895D01*
X145389707Y-66309128D02*
X145382310Y-66306540D01*
X145708634Y-66341730D02*
X145640925Y-66318037D01*
X145397495Y-66310006D02*
X145389707Y-66309128D01*
X145363376Y-66282797D02*
X145362499Y-66275010D01*
X145375675Y-66302370D02*
X145370134Y-66296829D01*
X145370134Y-66296829D02*
X145365964Y-66290194D01*
X145362499Y-48673167D02*
X148032500Y-46003166D01*
X148852500Y-42603166D02*
X148852500Y-40663166D01*
X148852500Y-40663166D02*
X149613166Y-39902500D01*
X152022499Y-39902499D02*
X152260000Y-40140000D01*
X149777501Y-45636833D02*
X149777501Y-65000000D01*
X149777501Y-72312499D02*
X149540000Y-72550000D01*
X149745320Y-65091965D02*
X149721965Y-65115320D01*
X148625002Y-65626146D02*
X148635691Y-65721019D01*
X149773802Y-65032822D02*
X149762893Y-65063998D01*
X150897820Y-66291965D02*
X150874465Y-66315320D01*
X148866366Y-66010276D02*
X148956481Y-66041809D01*
X150915393Y-66136001D02*
X150926302Y-66167177D01*
X149693998Y-65132893D02*
X149662822Y-65143802D01*
X149630000Y-65147501D02*
X149051354Y-65147501D01*
X150815322Y-66056197D02*
X150846498Y-66067106D01*
X149777501Y-65000000D02*
X149773802Y-65032822D01*
X148866366Y-65189723D02*
X148785527Y-65240517D01*
X149777501Y-66773853D02*
X149777501Y-72312499D01*
X149870518Y-66508026D02*
X149819724Y-66588865D01*
X150807500Y-44606834D02*
X149777501Y-45636833D01*
X149788191Y-66678980D02*
X149777501Y-66773853D01*
X150807500Y-41393167D02*
X150807500Y-44606834D01*
X148956481Y-65158190D02*
X148866366Y-65189723D01*
X148635691Y-65721019D02*
X148667224Y-65811134D01*
X149819724Y-66588865D02*
X149788191Y-66678980D01*
X150874465Y-66084679D02*
X150897820Y-66108034D01*
X148625002Y-65573853D02*
X148625002Y-65626146D01*
X150194229Y-41115771D02*
X150530104Y-41115771D01*
X150530104Y-41115771D02*
X150807500Y-41393167D01*
X149762893Y-65063998D02*
X149745320Y-65091965D01*
X148718018Y-65891973D02*
X148785527Y-65959482D01*
X149721965Y-65115320D02*
X149693998Y-65132893D01*
X149662822Y-65143802D02*
X149630000Y-65147501D01*
X149051354Y-65147501D02*
X148956481Y-65158190D01*
X148785527Y-65240517D02*
X148718018Y-65308026D01*
X148718018Y-65308026D02*
X148667224Y-65388865D01*
X149938027Y-66440517D02*
X149870518Y-66508026D01*
X148667224Y-65388865D02*
X148635691Y-65478980D01*
X148635691Y-65478980D02*
X148625002Y-65573853D01*
X148667224Y-65811134D02*
X148718018Y-65891973D01*
X148785527Y-65959482D02*
X148866366Y-66010276D01*
X148956481Y-66041809D02*
X149051354Y-66052499D01*
X149051354Y-66052499D02*
X150782499Y-66052499D01*
X150782499Y-66052499D02*
X150815322Y-66056197D01*
X150846498Y-66067106D02*
X150874465Y-66084679D01*
X150815322Y-66343802D02*
X150782499Y-66347501D01*
X150897820Y-66108034D02*
X150915393Y-66136001D01*
X150926302Y-66167177D02*
X150930000Y-66200000D01*
X150930000Y-66200000D02*
X150926302Y-66232822D01*
X150926302Y-66232822D02*
X150915393Y-66263998D01*
X150915393Y-66263998D02*
X150897820Y-66291965D01*
X150874465Y-66315320D02*
X150846498Y-66332893D01*
X150846498Y-66332893D02*
X150815322Y-66343802D01*
X150782499Y-66347501D02*
X150203854Y-66347501D01*
X150203854Y-66347501D02*
X150108981Y-66358190D01*
X150108981Y-66358190D02*
X150018866Y-66389723D01*
X150018866Y-66389723D02*
X149938027Y-66440517D01*
X149077501Y-65452499D02*
X149044678Y-65456197D01*
X150040276Y-65211134D02*
X149989482Y-65291973D01*
X150745771Y-40564229D02*
X150745771Y-40900104D01*
X148930000Y-65600000D02*
X148933698Y-65632822D01*
X150071809Y-65121019D02*
X150040276Y-65211134D01*
X150745771Y-40900104D02*
X151112500Y-41266833D01*
X149989482Y-65291973D02*
X149921973Y-65359482D01*
X151112500Y-41266833D02*
X151112500Y-44733166D01*
X149044678Y-65743802D02*
X149077501Y-65747501D01*
X151112500Y-44733166D02*
X150082499Y-45763167D01*
X148985535Y-65484679D02*
X148962180Y-65508034D01*
X150082499Y-45763167D02*
X150082499Y-65026146D01*
X149077501Y-65747501D02*
X150808646Y-65747501D01*
X150082499Y-65026146D02*
X150071809Y-65121019D01*
X149921973Y-65359482D02*
X149841134Y-65410276D01*
X151141982Y-66491973D02*
X151074473Y-66559482D01*
X149841134Y-65410276D02*
X149751019Y-65441809D01*
X149751019Y-65441809D02*
X149656146Y-65452499D01*
X150808646Y-66652499D02*
X150230000Y-66652499D01*
X149656146Y-65452499D02*
X149077501Y-65452499D01*
X151074473Y-65840517D02*
X151141982Y-65908026D01*
X150086198Y-66767177D02*
X150082499Y-66800000D01*
X149013502Y-65467106D02*
X148985535Y-65484679D01*
X148933698Y-65567177D02*
X148930000Y-65600000D01*
X149044678Y-65456197D02*
X149013502Y-65467106D01*
X150903519Y-66641809D02*
X150808646Y-66652499D01*
X148962180Y-65508034D02*
X148944607Y-65536001D01*
X148944607Y-65536001D02*
X148933698Y-65567177D01*
X148944607Y-65663998D02*
X148962180Y-65691965D01*
X148933698Y-65632822D02*
X148944607Y-65663998D01*
X149013502Y-65732893D02*
X149044678Y-65743802D01*
X148962180Y-65691965D02*
X148985535Y-65715320D01*
X148985535Y-65715320D02*
X149013502Y-65732893D01*
X150114680Y-66708034D02*
X150097107Y-66736001D01*
X150808646Y-65747501D02*
X150903519Y-65758190D01*
X150993634Y-65789723D02*
X151074473Y-65840517D01*
X150903519Y-65758190D02*
X150993634Y-65789723D01*
X150082499Y-66800000D02*
X150082499Y-72312499D01*
X151141982Y-65908026D02*
X151192776Y-65988865D01*
X151192776Y-65988865D02*
X151224309Y-66078980D01*
X151224309Y-66078980D02*
X151234998Y-66173853D01*
X151074473Y-66559482D02*
X150993634Y-66610276D01*
X151234998Y-66173853D02*
X151234998Y-66226146D01*
X151234998Y-66226146D02*
X151224309Y-66321019D01*
X150082499Y-72312499D02*
X150320000Y-72550000D01*
X151224309Y-66321019D02*
X151192776Y-66411134D01*
X151192776Y-66411134D02*
X151141982Y-66491973D01*
X150993634Y-66610276D02*
X150903519Y-66641809D01*
X150230000Y-66652499D02*
X150197178Y-66656197D01*
X150138035Y-66684679D02*
X150114680Y-66708034D01*
X150197178Y-66656197D02*
X150166002Y-66667106D01*
X150166002Y-66667106D02*
X150138035Y-66684679D01*
X150097107Y-66736001D02*
X150086198Y-66767177D01*
D26*
G36*
X95484369Y-25280126D02*
X95539685Y-25413669D01*
X95585456Y-25524171D01*
X96235775Y-26497441D01*
X96422559Y-26684225D01*
X97395828Y-27334544D01*
X97467308Y-27364151D01*
X97639874Y-27435631D01*
X98787924Y-27663992D01*
X98854604Y-27663992D01*
X98920000Y-27677000D01*
X110720000Y-27677000D01*
X110785396Y-27663992D01*
X110852076Y-27663992D01*
X112000126Y-27435631D01*
X112154022Y-27371885D01*
X112244171Y-27334544D01*
X113217441Y-26684225D01*
X113404225Y-26497441D01*
X114054544Y-25524172D01*
X114084151Y-25452692D01*
X114155631Y-25280126D01*
X114275600Y-24677000D01*
X172243000Y-24677000D01*
X172243000Y-32000000D01*
X172256008Y-32065396D01*
X172256008Y-32132076D01*
X172332128Y-32514758D01*
X172433215Y-32758804D01*
X172649988Y-33083228D01*
X172836772Y-33270012D01*
X173161196Y-33486785D01*
X173243000Y-33520669D01*
X173243000Y-42780717D01*
X172907138Y-41967868D01*
X171972055Y-41031151D01*
X170749685Y-40523579D01*
X169426122Y-40522424D01*
X168202868Y-41027862D01*
X167266151Y-41962945D01*
X166758579Y-43185315D01*
X166757424Y-44508878D01*
X167262862Y-45732132D01*
X168197945Y-46668849D01*
X169420315Y-47176421D01*
X170743878Y-47177576D01*
X171967132Y-46672138D01*
X172903849Y-45737055D01*
X173243000Y-44920288D01*
X173243000Y-50501564D01*
X173084159Y-50395430D01*
X172518936Y-50283000D01*
X172461064Y-50283000D01*
X171895841Y-50395430D01*
X171416667Y-50715603D01*
X171096494Y-51194777D01*
X170984064Y-51760000D01*
X171096494Y-52325223D01*
X171416667Y-52804397D01*
X171754307Y-53030000D01*
X171416667Y-53255603D01*
X171096494Y-53734777D01*
X170984064Y-54300000D01*
X171096494Y-54865223D01*
X171416667Y-55344397D01*
X171895841Y-55664570D01*
X172461064Y-55777000D01*
X172518936Y-55777000D01*
X173084159Y-55664570D01*
X173243000Y-55558436D01*
X173243000Y-66444400D01*
X173022557Y-66488249D01*
X172882865Y-66546112D01*
X172778512Y-66589336D01*
X172129665Y-67022881D01*
X171942881Y-67209665D01*
X171942881Y-67209666D01*
X171509336Y-67858512D01*
X171443648Y-68017097D01*
X171408249Y-68102557D01*
X171256008Y-68867924D01*
X171256008Y-68934604D01*
X171243000Y-69000000D01*
X171243000Y-75000000D01*
X171256008Y-75065396D01*
X171256008Y-75132076D01*
X171408249Y-75897443D01*
X171414371Y-75912222D01*
X171509336Y-76141488D01*
X171942880Y-76790332D01*
X171942881Y-76790335D01*
X172129665Y-76977119D01*
X172778512Y-77410664D01*
X172857197Y-77443256D01*
X173022557Y-77511751D01*
X173243000Y-77555600D01*
X173243000Y-89780717D01*
X172907138Y-88967868D01*
X171972055Y-88031151D01*
X170749685Y-87523579D01*
X169426122Y-87522424D01*
X168202868Y-88027862D01*
X167266151Y-88962945D01*
X166758579Y-90185315D01*
X166757424Y-91508878D01*
X167262862Y-92732132D01*
X168197945Y-93668849D01*
X169420315Y-94176421D01*
X170743878Y-94177576D01*
X171967132Y-93672138D01*
X172903849Y-92737055D01*
X173243000Y-91920288D01*
X173243000Y-106444400D01*
X173022557Y-106488249D01*
X172879599Y-106547465D01*
X172778512Y-106589336D01*
X172129665Y-107022881D01*
X171942881Y-107209665D01*
X171942881Y-107209666D01*
X171509336Y-107858512D01*
X171437857Y-108031078D01*
X171408249Y-108102557D01*
X171256008Y-108867924D01*
X171256008Y-108934604D01*
X171243000Y-109000000D01*
X171243000Y-119323000D01*
X149475600Y-119323000D01*
X149355631Y-118719874D01*
X149254544Y-118475829D01*
X149254544Y-118475828D01*
X148604225Y-117502559D01*
X148417441Y-117315775D01*
X147444171Y-116665456D01*
X147354022Y-116628115D01*
X147200126Y-116564369D01*
X146052076Y-116336008D01*
X145985396Y-116336008D01*
X145920000Y-116323000D01*
X122120000Y-116323000D01*
X122054604Y-116336008D01*
X120839874Y-116564369D01*
X120696205Y-116623879D01*
X120595828Y-116665456D01*
X119622559Y-117315775D01*
X119435775Y-117502559D01*
X118785456Y-118475829D01*
X118757769Y-118542671D01*
X118684369Y-118719874D01*
X118564400Y-119323000D01*
X84597000Y-119323000D01*
X84597000Y-114800000D01*
X85043000Y-114800000D01*
X85216326Y-115671370D01*
X85709918Y-116410082D01*
X86448630Y-116903674D01*
X87320000Y-117077000D01*
X88191370Y-116903674D01*
X88930082Y-116410082D01*
X89423674Y-115671370D01*
X89438425Y-115597211D01*
X105747718Y-115597211D01*
X105994892Y-116195418D01*
X106452175Y-116653499D01*
X107049950Y-116901717D01*
X107697211Y-116902282D01*
X108295418Y-116655108D01*
X108753499Y-116197825D01*
X109001717Y-115600050D01*
X109002282Y-114952789D01*
X108755108Y-114354582D01*
X108297825Y-113896501D01*
X107700050Y-113648283D01*
X107052789Y-113647718D01*
X106454582Y-113894892D01*
X105996501Y-114352175D01*
X105748283Y-114949950D01*
X105747718Y-115597211D01*
X89438425Y-115597211D01*
X89597000Y-114800000D01*
X89423674Y-113928630D01*
X88930082Y-113189918D01*
X88191370Y-112696326D01*
X87320000Y-112523000D01*
X86448630Y-112696326D01*
X85709918Y-113189918D01*
X85216326Y-113928630D01*
X85043000Y-114800000D01*
X84597000Y-114800000D01*
X84597000Y-104000000D01*
X84583992Y-103934604D01*
X84583992Y-103867923D01*
X84431751Y-103102557D01*
X84372535Y-102959599D01*
X84330664Y-102858512D01*
X83897119Y-102209665D01*
X83710335Y-102022881D01*
X83710332Y-102022880D01*
X83061488Y-101589336D01*
X82888922Y-101517857D01*
X82817443Y-101488249D01*
X82597000Y-101444400D01*
X82597000Y-97906981D01*
X82615841Y-97919570D01*
X83181064Y-98032000D01*
X83238936Y-98032000D01*
X83804159Y-97919570D01*
X84283333Y-97599397D01*
X84294227Y-97583092D01*
X84304437Y-97637352D01*
X84441757Y-97850753D01*
X84651283Y-97993917D01*
X84900000Y-98044283D01*
X86600000Y-98044283D01*
X86832352Y-98000563D01*
X87045753Y-97863243D01*
X87188917Y-97653717D01*
X87239283Y-97405000D01*
X87239283Y-95705000D01*
X87195563Y-95472648D01*
X87058243Y-95259247D01*
X86848717Y-95116083D01*
X86764131Y-95098954D01*
X86823333Y-95059397D01*
X87143506Y-94580223D01*
X87255936Y-94015000D01*
X87143506Y-93449777D01*
X86823333Y-92970603D01*
X86485693Y-92745000D01*
X86823333Y-92519397D01*
X87143506Y-92040223D01*
X87255936Y-91475000D01*
X87143506Y-90909777D01*
X86823333Y-90430603D01*
X86485693Y-90205000D01*
X86823333Y-89979397D01*
X87143506Y-89500223D01*
X87255936Y-88935000D01*
X87143506Y-88369777D01*
X86823333Y-87890603D01*
X86578483Y-87727000D01*
X93171010Y-87727000D01*
X92442868Y-88027862D01*
X91506151Y-88962945D01*
X90998579Y-90185315D01*
X90997424Y-91508878D01*
X91502862Y-92732132D01*
X92437945Y-93668849D01*
X93660315Y-94176421D01*
X94983878Y-94177576D01*
X96207132Y-93672138D01*
X97143849Y-92737055D01*
X97651421Y-91514685D01*
X97652576Y-90191122D01*
X97147138Y-88967868D01*
X96212055Y-88031151D01*
X95479578Y-87727000D01*
X97103866Y-87727000D01*
X103098000Y-93721134D01*
X103098000Y-97229995D01*
X103097999Y-97230000D01*
X103132810Y-97405000D01*
X103153340Y-97508211D01*
X103310933Y-97744067D01*
X105080933Y-99514067D01*
X105316789Y-99671660D01*
X105362948Y-99680842D01*
X105595000Y-99727001D01*
X105595005Y-99727000D01*
X111948866Y-99727000D01*
X116773000Y-104551133D01*
X116773000Y-111749995D01*
X116772999Y-111750000D01*
X116814656Y-111959417D01*
X116828340Y-112028211D01*
X116956765Y-112220414D01*
X116985933Y-112264067D01*
X119735931Y-115014064D01*
X119735933Y-115014067D01*
X119971789Y-115171660D01*
X120250000Y-115227000D01*
X131249995Y-115227000D01*
X131250000Y-115227001D01*
X131482052Y-115180842D01*
X131528211Y-115171660D01*
X131764067Y-115014067D01*
X131764068Y-115014066D01*
X132234550Y-114543583D01*
X136402839Y-114543583D01*
X136543669Y-114884417D01*
X136804211Y-115145414D01*
X137144799Y-115286839D01*
X137513583Y-115287161D01*
X137854417Y-115146331D01*
X138115414Y-114885789D01*
X138215987Y-114643583D01*
X138827839Y-114643583D01*
X138968669Y-114984417D01*
X139229211Y-115245414D01*
X139569799Y-115386839D01*
X139938583Y-115387161D01*
X140279417Y-115246331D01*
X140540414Y-114985789D01*
X140681839Y-114645201D01*
X140681840Y-114643583D01*
X141802839Y-114643583D01*
X141943669Y-114984417D01*
X142204211Y-115245414D01*
X142544799Y-115386839D01*
X142913583Y-115387161D01*
X143254417Y-115246331D01*
X143515414Y-114985789D01*
X143577618Y-114835985D01*
X147707610Y-114835985D01*
X148049734Y-115663989D01*
X148682679Y-116298039D01*
X149510084Y-116641608D01*
X150405985Y-116642390D01*
X151233989Y-116300266D01*
X151868039Y-115667321D01*
X152211608Y-114839916D01*
X152211611Y-114835985D01*
X159137610Y-114835985D01*
X159479734Y-115663989D01*
X160112679Y-116298039D01*
X160940084Y-116641608D01*
X161835985Y-116642390D01*
X162663989Y-116300266D01*
X163298039Y-115667321D01*
X163641608Y-114839916D01*
X163641642Y-114800000D01*
X165043000Y-114800000D01*
X165216326Y-115671370D01*
X165709918Y-116410082D01*
X166448630Y-116903674D01*
X167320000Y-117077000D01*
X168191370Y-116903674D01*
X168930082Y-116410082D01*
X169423674Y-115671370D01*
X169597000Y-114800000D01*
X169423674Y-113928630D01*
X168930082Y-113189918D01*
X168191370Y-112696326D01*
X167320000Y-112523000D01*
X166448630Y-112696326D01*
X165709918Y-113189918D01*
X165216326Y-113928630D01*
X165043000Y-114800000D01*
X163641642Y-114800000D01*
X163642390Y-113944015D01*
X163300266Y-113116011D01*
X162667321Y-112481961D01*
X161839916Y-112138392D01*
X160944015Y-112137610D01*
X160116011Y-112479734D01*
X159481961Y-113112679D01*
X159138392Y-113940084D01*
X159137610Y-114835985D01*
X152211611Y-114835985D01*
X152212390Y-113944015D01*
X151870266Y-113116011D01*
X151237321Y-112481961D01*
X150409916Y-112138392D01*
X149514015Y-112137610D01*
X148686011Y-112479734D01*
X148051961Y-113112679D01*
X147708392Y-113940084D01*
X147707610Y-114835985D01*
X143577618Y-114835985D01*
X143656839Y-114645201D01*
X143657161Y-114276417D01*
X143516331Y-113935583D01*
X143255789Y-113674586D01*
X142915201Y-113533161D01*
X142546417Y-113532839D01*
X142205583Y-113673669D01*
X141944586Y-113934211D01*
X141803161Y-114274799D01*
X141802839Y-114643583D01*
X140681840Y-114643583D01*
X140682161Y-114276417D01*
X140541331Y-113935583D01*
X140280789Y-113674586D01*
X139940201Y-113533161D01*
X139571417Y-113532839D01*
X139230583Y-113673669D01*
X138969586Y-113934211D01*
X138828161Y-114274799D01*
X138827839Y-114643583D01*
X138215987Y-114643583D01*
X138256839Y-114545201D01*
X138257161Y-114176417D01*
X138116331Y-113835583D01*
X137855789Y-113574586D01*
X137515201Y-113433161D01*
X137146417Y-113432839D01*
X136805583Y-113573669D01*
X136544586Y-113834211D01*
X136403161Y-114174799D01*
X136402839Y-114543583D01*
X132234550Y-114543583D01*
X135159550Y-111618583D01*
X136152839Y-111618583D01*
X136293669Y-111959417D01*
X136554211Y-112220414D01*
X136894799Y-112361839D01*
X137263583Y-112362161D01*
X137604417Y-112221331D01*
X137865414Y-111960789D01*
X137986748Y-111668583D01*
X141752839Y-111668583D01*
X141893669Y-112009417D01*
X142154211Y-112270414D01*
X142494799Y-112411839D01*
X142863583Y-112412161D01*
X143204417Y-112271331D01*
X143465414Y-112010789D01*
X143606839Y-111670201D01*
X143607161Y-111301417D01*
X143466331Y-110960583D01*
X143205789Y-110699586D01*
X142865201Y-110558161D01*
X142496417Y-110557839D01*
X142155583Y-110698669D01*
X141894586Y-110959211D01*
X141753161Y-111299799D01*
X141752839Y-111668583D01*
X137986748Y-111668583D01*
X138006839Y-111620201D01*
X138007161Y-111251417D01*
X137866331Y-110910583D01*
X137605789Y-110649586D01*
X137265201Y-110508161D01*
X136896417Y-110507839D01*
X136555583Y-110648669D01*
X136294586Y-110909211D01*
X136153161Y-111249799D01*
X136152839Y-111618583D01*
X135159550Y-111618583D01*
X138465432Y-108312701D01*
X149852762Y-108312701D01*
X150061956Y-108818989D01*
X150448974Y-109206683D01*
X150954896Y-109416760D01*
X151502701Y-109417238D01*
X152008989Y-109208044D01*
X152396683Y-108821026D01*
X152499995Y-108572224D01*
X152601956Y-108818989D01*
X152988974Y-109206683D01*
X153494896Y-109416760D01*
X154042701Y-109417238D01*
X154548989Y-109208044D01*
X154936683Y-108821026D01*
X155039995Y-108572224D01*
X155141956Y-108818989D01*
X155528974Y-109206683D01*
X156034896Y-109416760D01*
X156582701Y-109417238D01*
X157088989Y-109208044D01*
X157476683Y-108821026D01*
X157579995Y-108572224D01*
X157681956Y-108818989D01*
X158068974Y-109206683D01*
X158574896Y-109416760D01*
X159122701Y-109417238D01*
X159628989Y-109208044D01*
X160016683Y-108821026D01*
X160226760Y-108315104D01*
X160227238Y-107767299D01*
X160018044Y-107261011D01*
X159631026Y-106873317D01*
X159125104Y-106663240D01*
X158577299Y-106662762D01*
X158071011Y-106871956D01*
X157683317Y-107258974D01*
X157580005Y-107507776D01*
X157478044Y-107261011D01*
X157091026Y-106873317D01*
X156585104Y-106663240D01*
X156037299Y-106662762D01*
X155531011Y-106871956D01*
X155143317Y-107258974D01*
X155040005Y-107507776D01*
X154938044Y-107261011D01*
X154551026Y-106873317D01*
X154045104Y-106663240D01*
X153497299Y-106662762D01*
X152991011Y-106871956D01*
X152603317Y-107258974D01*
X152500005Y-107507776D01*
X152398044Y-107261011D01*
X152011026Y-106873317D01*
X151505104Y-106663240D01*
X150957299Y-106662762D01*
X150451011Y-106871956D01*
X150063317Y-107258974D01*
X149853240Y-107764896D01*
X149852762Y-108312701D01*
X138465432Y-108312701D01*
X139744064Y-107034069D01*
X139744067Y-107034067D01*
X139901660Y-106798211D01*
X139957000Y-106520000D01*
X139957000Y-105772701D01*
X148582762Y-105772701D01*
X148791956Y-106278989D01*
X149178974Y-106666683D01*
X149684896Y-106876760D01*
X150232701Y-106877238D01*
X150738989Y-106668044D01*
X151126683Y-106281026D01*
X151229995Y-106032224D01*
X151331956Y-106278989D01*
X151718974Y-106666683D01*
X152224896Y-106876760D01*
X152772701Y-106877238D01*
X153278989Y-106668044D01*
X153666683Y-106281026D01*
X153876760Y-105775104D01*
X153876762Y-105772701D01*
X156202762Y-105772701D01*
X156411956Y-106278989D01*
X156798974Y-106666683D01*
X157304896Y-106876760D01*
X157852701Y-106877238D01*
X158358989Y-106668044D01*
X158746683Y-106281026D01*
X158849995Y-106032224D01*
X158951956Y-106278989D01*
X159338974Y-106666683D01*
X159844896Y-106876760D01*
X160392701Y-106877238D01*
X160898989Y-106668044D01*
X161286683Y-106281026D01*
X161496760Y-105775104D01*
X161497238Y-105227299D01*
X161288044Y-104721011D01*
X160901026Y-104333317D01*
X160395104Y-104123240D01*
X159847299Y-104122762D01*
X159341011Y-104331956D01*
X158953317Y-104718974D01*
X158850005Y-104967776D01*
X158748044Y-104721011D01*
X158361026Y-104333317D01*
X157855104Y-104123240D01*
X157307299Y-104122762D01*
X156801011Y-104331956D01*
X156413317Y-104718974D01*
X156203240Y-105224896D01*
X156202762Y-105772701D01*
X153876762Y-105772701D01*
X153877238Y-105227299D01*
X153668044Y-104721011D01*
X153281026Y-104333317D01*
X152775104Y-104123240D01*
X152227299Y-104122762D01*
X151721011Y-104331956D01*
X151333317Y-104718974D01*
X151230005Y-104967776D01*
X151128044Y-104721011D01*
X150741026Y-104333317D01*
X150235104Y-104123240D01*
X149687299Y-104122762D01*
X149181011Y-104331956D01*
X148793317Y-104718974D01*
X148583240Y-105224896D01*
X148582762Y-105772701D01*
X139957000Y-105772701D01*
X139957000Y-105344101D01*
X140015414Y-105285789D01*
X140065787Y-105164479D01*
X140150129Y-105080136D01*
X140150132Y-105080134D01*
X140340241Y-104795614D01*
X140366423Y-104663991D01*
X140407000Y-104460001D01*
X140406999Y-104459996D01*
X140406999Y-100957553D01*
X148507749Y-100957553D01*
X148728337Y-101491417D01*
X149136434Y-101900228D01*
X149669912Y-102121747D01*
X150247553Y-102122251D01*
X150781417Y-101901663D01*
X151190228Y-101493566D01*
X151229824Y-101398208D01*
X151268337Y-101491417D01*
X151676434Y-101900228D01*
X152209912Y-102121747D01*
X152787553Y-102122251D01*
X153321417Y-101901663D01*
X153730228Y-101493566D01*
X153951747Y-100960088D01*
X153951749Y-100957553D01*
X157147749Y-100957553D01*
X157368337Y-101491417D01*
X157776434Y-101900228D01*
X158309912Y-102121747D01*
X158887553Y-102122251D01*
X159421417Y-101901663D01*
X159830228Y-101493566D01*
X159869824Y-101398208D01*
X159908337Y-101491417D01*
X160316434Y-101900228D01*
X160849912Y-102121747D01*
X161427553Y-102122251D01*
X161961417Y-101901663D01*
X162370228Y-101493566D01*
X162591747Y-100960088D01*
X162592251Y-100382447D01*
X162371663Y-99848583D01*
X161963566Y-99439772D01*
X161430088Y-99218253D01*
X160852447Y-99217749D01*
X160318583Y-99438337D01*
X159909772Y-99846434D01*
X159870176Y-99941792D01*
X159831663Y-99848583D01*
X159423566Y-99439772D01*
X158890088Y-99218253D01*
X158312447Y-99217749D01*
X157778583Y-99438337D01*
X157369772Y-99846434D01*
X157148253Y-100379912D01*
X157147749Y-100957553D01*
X153951749Y-100957553D01*
X153952251Y-100382447D01*
X153731663Y-99848583D01*
X153323566Y-99439772D01*
X152790088Y-99218253D01*
X152212447Y-99217749D01*
X151678583Y-99438337D01*
X151269772Y-99846434D01*
X151230176Y-99941792D01*
X151191663Y-99848583D01*
X150783566Y-99439772D01*
X150250088Y-99218253D01*
X149672447Y-99217749D01*
X149138583Y-99438337D01*
X148729772Y-99846434D01*
X148508253Y-100379912D01*
X148507749Y-100957553D01*
X140406999Y-100957553D01*
X140406999Y-92433267D01*
X149663266Y-83177000D01*
X153644774Y-83177000D01*
X153764799Y-83226839D01*
X154133583Y-83227161D01*
X154474417Y-83086331D01*
X154735414Y-82825789D01*
X154876839Y-82485201D01*
X154877161Y-82116417D01*
X154736331Y-81775583D01*
X154475789Y-81514586D01*
X154135201Y-81373161D01*
X153766417Y-81372839D01*
X153645018Y-81423000D01*
X153577000Y-81423000D01*
X153577000Y-81003583D01*
X163152839Y-81003583D01*
X163293669Y-81344417D01*
X163554211Y-81605414D01*
X163894799Y-81746839D01*
X164263583Y-81747161D01*
X164604417Y-81606331D01*
X164865414Y-81345789D01*
X165006839Y-81005201D01*
X165007161Y-80636417D01*
X164866331Y-80295583D01*
X164605789Y-80034586D01*
X164265201Y-79893161D01*
X163896417Y-79892839D01*
X163555583Y-80033669D01*
X163294586Y-80294211D01*
X163153161Y-80634799D01*
X163152839Y-81003583D01*
X153577000Y-81003583D01*
X153577000Y-80786488D01*
X155636488Y-78727000D01*
X163475000Y-78727000D01*
X163762778Y-78669757D01*
X163916424Y-78567094D01*
X163993583Y-78567161D01*
X164334417Y-78426331D01*
X164595414Y-78165789D01*
X164736839Y-77825201D01*
X164737161Y-77456417D01*
X164596331Y-77115583D01*
X164335789Y-76854586D01*
X163995201Y-76713161D01*
X163626417Y-76712839D01*
X163285583Y-76853669D01*
X163251192Y-76888000D01*
X162251489Y-76888000D01*
X161252000Y-75888512D01*
X161252000Y-73533583D01*
X167362839Y-73533583D01*
X167452307Y-73750112D01*
X167363161Y-73964799D01*
X167362839Y-74333583D01*
X167503669Y-74674417D01*
X167764211Y-74935414D01*
X168104799Y-75076839D01*
X168473583Y-75077161D01*
X168814417Y-74936331D01*
X169075414Y-74675789D01*
X169216839Y-74335201D01*
X169217161Y-73966417D01*
X169127693Y-73749888D01*
X169216839Y-73535201D01*
X169217161Y-73166417D01*
X169076331Y-72825583D01*
X168815789Y-72564586D01*
X168475201Y-72423161D01*
X168106417Y-72422839D01*
X167765583Y-72563669D01*
X167504586Y-72824211D01*
X167363161Y-73164799D01*
X167362839Y-73533583D01*
X161252000Y-73533583D01*
X161252000Y-71959145D01*
X161285414Y-71925789D01*
X161426839Y-71585201D01*
X161427161Y-71216417D01*
X161286331Y-70875583D01*
X161025789Y-70614586D01*
X160685201Y-70473161D01*
X160316417Y-70472839D01*
X159975583Y-70613669D01*
X159714586Y-70874211D01*
X159573161Y-71214799D01*
X159572839Y-71583583D01*
X159713669Y-71924417D01*
X159748000Y-71958808D01*
X159748000Y-76200000D01*
X159805243Y-76487778D01*
X159968256Y-76731744D01*
X160459512Y-77223000D01*
X155325000Y-77223000D01*
X155037222Y-77280243D01*
X154793256Y-77443256D01*
X153577000Y-78659512D01*
X153577000Y-70367682D01*
X167702839Y-70367682D01*
X167792307Y-70584211D01*
X167703161Y-70798898D01*
X167702839Y-71167682D01*
X167843669Y-71508516D01*
X168104211Y-71769513D01*
X168444799Y-71910938D01*
X168813583Y-71911260D01*
X169154417Y-71770430D01*
X169415414Y-71509888D01*
X169556839Y-71169300D01*
X169557161Y-70800516D01*
X169467693Y-70583987D01*
X169556839Y-70369300D01*
X169557161Y-70000516D01*
X169416331Y-69659682D01*
X169155789Y-69398685D01*
X168815201Y-69257260D01*
X168446417Y-69256938D01*
X168105583Y-69397768D01*
X167844586Y-69658310D01*
X167703161Y-69998898D01*
X167702839Y-70367682D01*
X153577000Y-70367682D01*
X153577000Y-60961488D01*
X154861368Y-59677120D01*
X154908583Y-59677161D01*
X155249417Y-59536331D01*
X155510414Y-59275789D01*
X155602682Y-59053583D01*
X159397839Y-59053583D01*
X159538669Y-59394417D01*
X159799211Y-59655414D01*
X160139799Y-59796839D01*
X160508583Y-59797161D01*
X160849417Y-59656331D01*
X161110414Y-59395789D01*
X161251839Y-59055201D01*
X161252161Y-58686417D01*
X161111331Y-58345583D01*
X160850789Y-58084586D01*
X160510201Y-57943161D01*
X160141417Y-57942839D01*
X159800583Y-58083669D01*
X159539586Y-58344211D01*
X159398161Y-58684799D01*
X159397839Y-59053583D01*
X155602682Y-59053583D01*
X155651839Y-58935201D01*
X155652161Y-58566417D01*
X155511331Y-58225583D01*
X155250789Y-57964586D01*
X154910201Y-57823161D01*
X154541417Y-57822839D01*
X154200583Y-57963669D01*
X153939586Y-58224211D01*
X153798161Y-58564799D01*
X153798119Y-58613393D01*
X152293256Y-60118256D01*
X152130243Y-60362222D01*
X152073000Y-60650000D01*
X152073000Y-78247252D01*
X151917260Y-78182583D01*
X151828489Y-77967741D01*
X151567947Y-77706744D01*
X151227359Y-77565319D01*
X150858575Y-77564997D01*
X150517741Y-77705827D01*
X150256744Y-77966369D01*
X150115319Y-78306957D01*
X150114997Y-78675741D01*
X150255827Y-79016575D01*
X150516369Y-79277572D01*
X150732740Y-79367417D01*
X150821511Y-79582259D01*
X151082053Y-79843256D01*
X151422641Y-79984681D01*
X151791425Y-79985003D01*
X152073000Y-79868658D01*
X152073000Y-81423000D01*
X149300005Y-81423000D01*
X149300000Y-81422999D01*
X148964387Y-81489758D01*
X148679867Y-81679867D01*
X138909866Y-91449868D01*
X138719757Y-91734388D01*
X138652999Y-92070001D01*
X138652999Y-104026161D01*
X138444586Y-104234211D01*
X138303161Y-104574799D01*
X138302839Y-104943583D01*
X138443669Y-105284417D01*
X138503000Y-105343852D01*
X138503000Y-106218867D01*
X130948866Y-113773000D01*
X126125086Y-113773000D01*
X126196839Y-113600201D01*
X126197161Y-113231417D01*
X126056331Y-112890583D01*
X125795789Y-112629586D01*
X125455201Y-112488161D01*
X125086417Y-112487839D01*
X124745583Y-112628669D01*
X124484586Y-112889211D01*
X124343161Y-113229799D01*
X124342839Y-113598583D01*
X124414907Y-113773000D01*
X120551133Y-113773000D01*
X118227000Y-111448866D01*
X118227000Y-104250000D01*
X118171660Y-103971789D01*
X118014067Y-103735933D01*
X118014064Y-103735931D01*
X112764067Y-98485933D01*
X112528211Y-98328340D01*
X112482052Y-98319158D01*
X112250000Y-98272999D01*
X112249995Y-98273000D01*
X105896134Y-98273000D01*
X104552000Y-96928866D01*
X104552000Y-93420000D01*
X104496660Y-93141789D01*
X104339067Y-92905933D01*
X97919067Y-86485933D01*
X97683211Y-86328340D01*
X97637052Y-86319158D01*
X97405000Y-86272999D01*
X97404995Y-86273000D01*
X87200200Y-86273000D01*
X87239283Y-86080000D01*
X87239283Y-84380000D01*
X87195563Y-84147648D01*
X87058243Y-83934247D01*
X86848717Y-83791083D01*
X86764131Y-83773954D01*
X86823333Y-83734397D01*
X87143506Y-83255223D01*
X87255936Y-82690000D01*
X87143506Y-82124777D01*
X86823333Y-81645603D01*
X86485693Y-81420000D01*
X86823333Y-81194397D01*
X87143506Y-80715223D01*
X87255936Y-80150000D01*
X87143506Y-79584777D01*
X86823333Y-79105603D01*
X86344159Y-78785430D01*
X85778936Y-78673000D01*
X85721064Y-78673000D01*
X85155841Y-78785430D01*
X84676667Y-79105603D01*
X84356494Y-79584777D01*
X84244064Y-80150000D01*
X84356494Y-80715223D01*
X84676667Y-81194397D01*
X85014307Y-81420000D01*
X84676667Y-81645603D01*
X84480000Y-81939937D01*
X84283333Y-81645603D01*
X83804159Y-81325430D01*
X83238936Y-81213000D01*
X83181064Y-81213000D01*
X82615841Y-81325430D01*
X82597000Y-81338019D01*
X82597000Y-77555600D01*
X82817443Y-77511751D01*
X82888922Y-77482143D01*
X83061488Y-77410664D01*
X83710332Y-76977120D01*
X83710335Y-76977119D01*
X83897119Y-76790335D01*
X84330664Y-76141488D01*
X84373491Y-76038093D01*
X84431751Y-75897443D01*
X84583992Y-75132077D01*
X84583992Y-75065396D01*
X84597000Y-75000000D01*
X84597000Y-72279997D01*
X84626667Y-72324397D01*
X85105841Y-72644570D01*
X85671064Y-72757000D01*
X85728936Y-72757000D01*
X86294159Y-72644570D01*
X86773333Y-72324397D01*
X87093506Y-71845223D01*
X87205936Y-71280000D01*
X87093506Y-70714777D01*
X86773333Y-70235603D01*
X86695480Y-70183583D01*
X96572839Y-70183583D01*
X96713669Y-70524417D01*
X96974211Y-70785414D01*
X97314799Y-70926839D01*
X97683583Y-70927161D01*
X98024417Y-70786331D01*
X98285414Y-70525789D01*
X98426839Y-70185201D01*
X98427161Y-69816417D01*
X98286331Y-69475583D01*
X98025789Y-69214586D01*
X97685201Y-69073161D01*
X97316417Y-69072839D01*
X96975583Y-69213669D01*
X96714586Y-69474211D01*
X96573161Y-69814799D01*
X96572839Y-70183583D01*
X86695480Y-70183583D01*
X86435693Y-70010000D01*
X86773333Y-69784397D01*
X87093506Y-69305223D01*
X87205936Y-68740000D01*
X87093506Y-68174777D01*
X86773333Y-67695603D01*
X86294159Y-67375430D01*
X85728936Y-67263000D01*
X85671064Y-67263000D01*
X85105841Y-67375430D01*
X84626667Y-67695603D01*
X84402284Y-68031417D01*
X84369238Y-67951638D01*
X84330664Y-67858512D01*
X83897119Y-67209665D01*
X83710335Y-67022881D01*
X83710332Y-67022880D01*
X83061488Y-66589336D01*
X82873792Y-66511590D01*
X82817443Y-66488249D01*
X82597000Y-66444400D01*
X82597000Y-55380000D01*
X84004064Y-55380000D01*
X84116494Y-55945223D01*
X84436667Y-56424397D01*
X84774307Y-56650000D01*
X84436667Y-56875603D01*
X84116494Y-57354777D01*
X84004064Y-57920000D01*
X84116494Y-58485223D01*
X84436667Y-58964397D01*
X84774307Y-59190000D01*
X84436667Y-59415603D01*
X84116494Y-59894777D01*
X84004064Y-60460000D01*
X84116494Y-61025223D01*
X84436667Y-61504397D01*
X84774307Y-61730000D01*
X84436667Y-61955603D01*
X84116494Y-62434777D01*
X84004064Y-63000000D01*
X84116494Y-63565223D01*
X84436667Y-64044397D01*
X84493120Y-64082118D01*
X84427648Y-64094437D01*
X84214247Y-64231757D01*
X84071083Y-64441283D01*
X84020717Y-64690000D01*
X84020717Y-66390000D01*
X84064437Y-66622352D01*
X84201757Y-66835753D01*
X84411283Y-66978917D01*
X84660000Y-67029283D01*
X86360000Y-67029283D01*
X86592352Y-66985563D01*
X86805753Y-66848243D01*
X86948917Y-66638717D01*
X86999283Y-66390000D01*
X86999283Y-64690000D01*
X86955563Y-64457648D01*
X86818243Y-64244247D01*
X86608717Y-64101083D01*
X86524131Y-64083954D01*
X86583333Y-64044397D01*
X86903506Y-63565223D01*
X87015936Y-63000000D01*
X86903506Y-62434777D01*
X86583333Y-61955603D01*
X86245693Y-61730000D01*
X86583333Y-61504397D01*
X86903506Y-61025223D01*
X87015936Y-60460000D01*
X86903506Y-59894777D01*
X86583333Y-59415603D01*
X86245693Y-59190000D01*
X86583333Y-58964397D01*
X86903506Y-58485223D01*
X87015936Y-57920000D01*
X86903506Y-57354777D01*
X86583333Y-56875603D01*
X86245693Y-56650000D01*
X86583333Y-56424397D01*
X86903506Y-55945223D01*
X87015936Y-55380000D01*
X86903506Y-54814777D01*
X86583333Y-54335603D01*
X86104159Y-54015430D01*
X85538936Y-53903000D01*
X85481064Y-53903000D01*
X84915841Y-54015430D01*
X84436667Y-54335603D01*
X84116494Y-54814777D01*
X84004064Y-55380000D01*
X82597000Y-55380000D01*
X82597000Y-47533583D01*
X85997839Y-47533583D01*
X86138669Y-47874417D01*
X86399211Y-48135414D01*
X86739799Y-48276839D01*
X87108583Y-48277161D01*
X87449417Y-48136331D01*
X87710414Y-47875789D01*
X87851839Y-47535201D01*
X87852161Y-47166417D01*
X87714637Y-46833583D01*
X93792839Y-46833583D01*
X93933669Y-47174417D01*
X94194211Y-47435414D01*
X94534799Y-47576839D01*
X94569648Y-47576869D01*
X94663669Y-47804417D01*
X94924211Y-48065414D01*
X95264799Y-48206839D01*
X95633583Y-48207161D01*
X95974417Y-48066331D01*
X96235414Y-47805789D01*
X96376839Y-47465201D01*
X96377161Y-47096417D01*
X96236331Y-46755583D01*
X95975789Y-46494586D01*
X95635201Y-46353161D01*
X95600352Y-46353131D01*
X95515475Y-46147713D01*
X98392038Y-46147713D01*
X98620419Y-46700438D01*
X99042935Y-47123692D01*
X99595261Y-47353038D01*
X100193311Y-47353560D01*
X100746036Y-47125179D01*
X101169290Y-46702663D01*
X101398636Y-46150337D01*
X101399072Y-45650000D01*
X101872999Y-45650000D01*
X101958787Y-46081284D01*
X102203090Y-46446909D01*
X104746268Y-48990088D01*
X104495583Y-49093669D01*
X104234586Y-49354211D01*
X104093161Y-49694799D01*
X104092839Y-50063583D01*
X104233669Y-50404417D01*
X104494211Y-50665414D01*
X104834799Y-50806839D01*
X105203583Y-50807161D01*
X105544417Y-50666331D01*
X105805414Y-50405789D01*
X105910029Y-50153849D01*
X107098000Y-51341820D01*
X107098000Y-96525000D01*
X107183788Y-96956284D01*
X107428091Y-97321909D01*
X107793716Y-97566212D01*
X108225000Y-97652000D01*
X108656284Y-97566212D01*
X109021909Y-97321909D01*
X109266212Y-96956284D01*
X109352000Y-96525000D01*
X109352000Y-53683583D01*
X111572839Y-53683583D01*
X111713669Y-54024417D01*
X111974211Y-54285414D01*
X112314799Y-54426839D01*
X112683583Y-54427161D01*
X113024417Y-54286331D01*
X113285414Y-54025789D01*
X113426839Y-53685201D01*
X113427161Y-53316417D01*
X113286331Y-52975583D01*
X113025789Y-52714586D01*
X112685201Y-52573161D01*
X112316417Y-52572839D01*
X111975583Y-52713669D01*
X111714586Y-52974211D01*
X111573161Y-53314799D01*
X111572839Y-53683583D01*
X109352000Y-53683583D01*
X109352000Y-51912990D01*
X109474211Y-52035414D01*
X109814799Y-52176839D01*
X110183583Y-52177161D01*
X110524417Y-52036331D01*
X110785414Y-51775789D01*
X110791436Y-51761287D01*
X110900159Y-52024417D01*
X111160701Y-52285414D01*
X111501289Y-52426839D01*
X111870073Y-52427161D01*
X112210907Y-52286331D01*
X112471904Y-52025789D01*
X112613329Y-51685201D01*
X112613651Y-51316417D01*
X112472821Y-50975583D01*
X112212279Y-50714586D01*
X111871691Y-50573161D01*
X111502907Y-50572839D01*
X111162073Y-50713669D01*
X110901076Y-50974211D01*
X110895054Y-50988713D01*
X110786331Y-50725583D01*
X110525789Y-50464586D01*
X110185201Y-50323161D01*
X109816417Y-50322839D01*
X109475583Y-50463669D01*
X109304210Y-50634744D01*
X109266212Y-50443717D01*
X109185444Y-50322839D01*
X109021909Y-50078091D01*
X103796908Y-44853091D01*
X103431283Y-44608788D01*
X102999999Y-44523000D01*
X102568715Y-44608788D01*
X102203090Y-44853091D01*
X101958787Y-45218716D01*
X101872999Y-45650000D01*
X101399072Y-45650000D01*
X101399158Y-45552287D01*
X101170777Y-44999562D01*
X100748261Y-44576308D01*
X100195935Y-44346962D01*
X99597885Y-44346440D01*
X99045160Y-44574821D01*
X98621906Y-44997337D01*
X98392560Y-45549663D01*
X98392038Y-46147713D01*
X95515475Y-46147713D01*
X95506331Y-46125583D01*
X95245789Y-45864586D01*
X94905201Y-45723161D01*
X94536417Y-45722839D01*
X94195583Y-45863669D01*
X93934586Y-46124211D01*
X93793161Y-46464799D01*
X93792839Y-46833583D01*
X87714637Y-46833583D01*
X87711331Y-46825583D01*
X87450789Y-46564586D01*
X87110201Y-46423161D01*
X86741417Y-46422839D01*
X86400583Y-46563669D01*
X86139586Y-46824211D01*
X85998161Y-47164799D01*
X85997839Y-47533583D01*
X82597000Y-47533583D01*
X82597000Y-46063583D01*
X90922839Y-46063583D01*
X91063669Y-46404417D01*
X91324211Y-46665414D01*
X91664799Y-46806839D01*
X92033583Y-46807161D01*
X92374417Y-46666331D01*
X92635414Y-46405789D01*
X92776839Y-46065201D01*
X92777161Y-45696417D01*
X92636331Y-45355583D01*
X92375789Y-45094586D01*
X92035201Y-44953161D01*
X91666417Y-44952839D01*
X91325583Y-45093669D01*
X91064586Y-45354211D01*
X90923161Y-45694799D01*
X90922839Y-46063583D01*
X82597000Y-46063583D01*
X82597000Y-42473583D01*
X92412839Y-42473583D01*
X92553669Y-42814417D01*
X92814211Y-43075414D01*
X93154799Y-43216839D01*
X93523583Y-43217161D01*
X93864417Y-43076331D01*
X94125414Y-42815789D01*
X94266839Y-42475201D01*
X94267161Y-42106417D01*
X94126331Y-41765583D01*
X93865789Y-41504586D01*
X93525201Y-41363161D01*
X93156417Y-41362839D01*
X92815583Y-41503669D01*
X92554586Y-41764211D01*
X92413161Y-42104799D01*
X92412839Y-42473583D01*
X82597000Y-42473583D01*
X82597000Y-38433583D01*
X82822839Y-38433583D01*
X82963669Y-38774417D01*
X83224211Y-39035414D01*
X83564799Y-39176839D01*
X83933583Y-39177161D01*
X84274417Y-39036331D01*
X84535414Y-38775789D01*
X84676839Y-38435201D01*
X84677161Y-38066417D01*
X84536331Y-37725583D01*
X84275789Y-37464586D01*
X83935201Y-37323161D01*
X83566417Y-37322839D01*
X83225583Y-37463669D01*
X82964586Y-37724211D01*
X82823161Y-38064799D01*
X82822839Y-38433583D01*
X82597000Y-38433583D01*
X82597000Y-37555600D01*
X82817443Y-37511751D01*
X82888922Y-37482143D01*
X83061488Y-37410664D01*
X83710332Y-36977120D01*
X83710335Y-36977119D01*
X83897119Y-36790335D01*
X84035266Y-36583583D01*
X86747839Y-36583583D01*
X86888669Y-36924417D01*
X87149211Y-37185414D01*
X87489799Y-37326839D01*
X87858583Y-37327161D01*
X88199417Y-37186331D01*
X88460414Y-36925789D01*
X88601839Y-36585201D01*
X88601913Y-36500000D01*
X90048000Y-36500000D01*
X90133788Y-36931284D01*
X90378091Y-37296909D01*
X90678090Y-37596909D01*
X90678093Y-37596911D01*
X93603091Y-40521909D01*
X93968716Y-40766212D01*
X94400000Y-40852000D01*
X105778180Y-40852000D01*
X109089297Y-44163117D01*
X109086900Y-44165510D01*
X108871691Y-44076147D01*
X108502907Y-44075825D01*
X108162073Y-44216655D01*
X108128712Y-44249958D01*
X107948664Y-44069596D01*
X107608076Y-43928171D01*
X107239292Y-43927849D01*
X106898458Y-44068679D01*
X106637461Y-44329221D01*
X106496036Y-44669809D01*
X106495714Y-45038593D01*
X106636544Y-45379427D01*
X106897086Y-45640424D01*
X107237674Y-45781849D01*
X107606458Y-45782171D01*
X107947292Y-45641341D01*
X107980653Y-45608038D01*
X108160701Y-45788400D01*
X108501289Y-45929825D01*
X108806846Y-45930092D01*
X108725583Y-45963669D01*
X108464586Y-46224211D01*
X108323161Y-46564799D01*
X108322839Y-46933583D01*
X108463669Y-47274417D01*
X108724211Y-47535414D01*
X109064799Y-47676839D01*
X109433583Y-47677161D01*
X109774417Y-47536331D01*
X110035414Y-47275789D01*
X110176839Y-46935201D01*
X110177161Y-46566417D01*
X110122075Y-46433100D01*
X110224211Y-46535414D01*
X110564799Y-46676839D01*
X110933583Y-46677161D01*
X111274417Y-46536331D01*
X111368546Y-46442366D01*
X112613000Y-47686821D01*
X112613000Y-50010000D01*
X112698788Y-50441284D01*
X112943091Y-50806909D01*
X113243090Y-51106909D01*
X113243093Y-51106911D01*
X120568999Y-58432817D01*
X120568999Y-106215999D01*
X120654787Y-106647283D01*
X120665329Y-106663061D01*
X120411417Y-106662839D01*
X120070583Y-106803669D01*
X119809586Y-107064211D01*
X119668161Y-107404799D01*
X119667839Y-107773583D01*
X119808669Y-108114417D01*
X120069211Y-108375414D01*
X120409799Y-108516839D01*
X120778583Y-108517161D01*
X121119417Y-108376331D01*
X121380414Y-108115789D01*
X121521839Y-107775201D01*
X121521961Y-107635779D01*
X125398090Y-111511909D01*
X125763716Y-111756212D01*
X126195000Y-111841999D01*
X126626284Y-111756212D01*
X126991909Y-111511909D01*
X127236212Y-111146284D01*
X127321999Y-110715000D01*
X127236212Y-110283716D01*
X126991909Y-109918090D01*
X124117402Y-107043583D01*
X135477839Y-107043583D01*
X135618669Y-107384417D01*
X135879211Y-107645414D01*
X136219799Y-107786839D01*
X136588583Y-107787161D01*
X136929417Y-107646331D01*
X137190414Y-107385789D01*
X137331839Y-107045201D01*
X137332161Y-106676417D01*
X137191331Y-106335583D01*
X136930789Y-106074586D01*
X136590201Y-105933161D01*
X136221417Y-105932839D01*
X135880583Y-106073669D01*
X135619586Y-106334211D01*
X135478161Y-106674799D01*
X135477839Y-107043583D01*
X124117402Y-107043583D01*
X122822999Y-105749181D01*
X122822999Y-101743583D01*
X131702839Y-101743583D01*
X131843669Y-102084417D01*
X132104211Y-102345414D01*
X132444799Y-102486839D01*
X132813583Y-102487161D01*
X133154417Y-102346331D01*
X133415414Y-102085789D01*
X133556839Y-101745201D01*
X133557161Y-101376417D01*
X133416331Y-101035583D01*
X133155789Y-100774586D01*
X132815201Y-100633161D01*
X132446417Y-100632839D01*
X132105583Y-100773669D01*
X131844586Y-101034211D01*
X131703161Y-101374799D01*
X131702839Y-101743583D01*
X122822999Y-101743583D01*
X122822999Y-98743583D01*
X133927839Y-98743583D01*
X134068669Y-99084417D01*
X134329211Y-99345414D01*
X134669799Y-99486839D01*
X135038583Y-99487161D01*
X135379417Y-99346331D01*
X135640414Y-99085789D01*
X135781839Y-98745201D01*
X135782161Y-98376417D01*
X135641331Y-98035583D01*
X135380789Y-97774586D01*
X135040201Y-97633161D01*
X134671417Y-97632839D01*
X134330583Y-97773669D01*
X134069586Y-98034211D01*
X133928161Y-98374799D01*
X133927839Y-98743583D01*
X122822999Y-98743583D01*
X122822999Y-79766425D01*
X146039997Y-79766425D01*
X146180827Y-80107259D01*
X146441369Y-80368256D01*
X146781957Y-80509681D01*
X147150741Y-80510003D01*
X147491575Y-80369173D01*
X147752572Y-80108631D01*
X147842417Y-79892260D01*
X148057259Y-79803489D01*
X148318256Y-79542947D01*
X148459681Y-79202359D01*
X148460003Y-78833575D01*
X148319173Y-78492741D01*
X148058631Y-78231744D01*
X147718043Y-78090319D01*
X147349259Y-78089997D01*
X147008425Y-78230827D01*
X146747428Y-78491369D01*
X146657583Y-78707740D01*
X146442741Y-78796511D01*
X146181744Y-79057053D01*
X146040319Y-79397641D01*
X146039997Y-79766425D01*
X122822999Y-79766425D01*
X122822999Y-72643583D01*
X143892839Y-72643583D01*
X144033669Y-72984417D01*
X144294211Y-73245414D01*
X144634799Y-73386839D01*
X145003583Y-73387161D01*
X145210087Y-73301835D01*
X145414799Y-73386839D01*
X145783583Y-73387161D01*
X146124417Y-73246331D01*
X146385414Y-72985789D01*
X146526839Y-72645201D01*
X146527161Y-72276417D01*
X146386331Y-71935583D01*
X146125789Y-71674586D01*
X146051999Y-71643946D01*
X146051999Y-68026055D01*
X146075467Y-68017097D01*
X146136207Y-67978932D01*
X146192506Y-67925707D01*
X146256924Y-67882664D01*
X146307649Y-67831939D01*
X146350692Y-67767521D01*
X146403917Y-67711222D01*
X146442082Y-67650482D01*
X146469708Y-67578109D01*
X146509070Y-67511382D01*
X146532763Y-67443672D01*
X146543594Y-67366955D01*
X146567121Y-67293141D01*
X146575153Y-67221856D01*
X146571872Y-67182951D01*
X146579489Y-67144655D01*
X146579489Y-66630354D01*
X146571872Y-66592058D01*
X146575153Y-66553153D01*
X146567121Y-66481868D01*
X146543594Y-66408054D01*
X146532763Y-66331337D01*
X146509070Y-66263627D01*
X146469708Y-66196900D01*
X146442082Y-66124527D01*
X146403917Y-66063787D01*
X146350692Y-66007488D01*
X146307649Y-65943070D01*
X146256924Y-65892345D01*
X146192506Y-65849302D01*
X146136207Y-65796077D01*
X146075467Y-65757912D01*
X146051999Y-65748954D01*
X146051999Y-48958767D01*
X148520050Y-46490716D01*
X148669515Y-46267026D01*
X148722000Y-46003166D01*
X148722000Y-43708766D01*
X149340050Y-43090716D01*
X149489515Y-42867027D01*
X149542000Y-42603166D01*
X149542000Y-41774524D01*
X149668440Y-41901185D01*
X150009028Y-42042610D01*
X150118000Y-42042705D01*
X150118000Y-44321234D01*
X149289951Y-45149283D01*
X149140486Y-45372973D01*
X149088001Y-45636833D01*
X149088001Y-64458001D01*
X149051354Y-64458001D01*
X149013062Y-64465618D01*
X148974159Y-64462336D01*
X148879286Y-64473025D01*
X148805470Y-64496552D01*
X148728751Y-64507383D01*
X148638636Y-64538916D01*
X148571908Y-64578278D01*
X148499532Y-64605905D01*
X148418694Y-64656699D01*
X148362396Y-64709923D01*
X148297977Y-64752967D01*
X148230468Y-64820476D01*
X148187425Y-64884894D01*
X148134200Y-64941193D01*
X148083406Y-65022032D01*
X148055779Y-65094407D01*
X148016417Y-65161135D01*
X147984884Y-65251250D01*
X147974053Y-65327967D01*
X147950526Y-65401785D01*
X147939837Y-65496658D01*
X147943119Y-65535561D01*
X147935502Y-65573853D01*
X147935502Y-65626146D01*
X147943119Y-65664438D01*
X147939837Y-65703341D01*
X147950526Y-65798214D01*
X147974053Y-65872032D01*
X147984884Y-65948749D01*
X148016417Y-66038864D01*
X148055779Y-66105592D01*
X148083406Y-66177967D01*
X148134200Y-66258806D01*
X148187425Y-66315105D01*
X148230468Y-66379523D01*
X148297977Y-66447032D01*
X148362396Y-66490076D01*
X148418694Y-66543300D01*
X148499532Y-66594094D01*
X148571908Y-66621721D01*
X148638636Y-66661083D01*
X148728751Y-66692616D01*
X148805468Y-66703447D01*
X148879279Y-66726973D01*
X148974151Y-66737663D01*
X149013058Y-66734381D01*
X149051354Y-66741999D01*
X149094337Y-66741999D01*
X149088001Y-66773853D01*
X149088001Y-71733746D01*
X149015583Y-71763669D01*
X148754586Y-72024211D01*
X148613161Y-72364799D01*
X148612839Y-72733583D01*
X148753669Y-73074417D01*
X149014211Y-73335414D01*
X149354799Y-73476839D01*
X149723583Y-73477161D01*
X149930087Y-73391835D01*
X150134799Y-73476839D01*
X150503583Y-73477161D01*
X150844417Y-73336331D01*
X151105414Y-73075789D01*
X151246839Y-72735201D01*
X151247161Y-72366417D01*
X151106331Y-72025583D01*
X150845789Y-71764586D01*
X150771999Y-71733946D01*
X150771999Y-67341999D01*
X150808646Y-67341999D01*
X150846942Y-67334381D01*
X150885848Y-67337663D01*
X150980721Y-67326973D01*
X151054533Y-67303447D01*
X151131249Y-67292616D01*
X151221364Y-67261083D01*
X151288092Y-67221721D01*
X151360467Y-67194094D01*
X151441306Y-67143300D01*
X151497605Y-67090075D01*
X151562023Y-67047032D01*
X151629532Y-66979523D01*
X151672576Y-66915104D01*
X151725800Y-66858806D01*
X151776594Y-66777968D01*
X151804221Y-66705592D01*
X151843583Y-66638864D01*
X151875116Y-66548749D01*
X151885947Y-66472030D01*
X151909474Y-66398214D01*
X151920163Y-66303341D01*
X151916881Y-66264438D01*
X151924498Y-66226146D01*
X151924498Y-66173853D01*
X151916881Y-66135561D01*
X151920163Y-66096658D01*
X151909474Y-66001785D01*
X151885947Y-65927969D01*
X151875116Y-65851250D01*
X151843583Y-65761135D01*
X151804221Y-65694407D01*
X151776594Y-65622031D01*
X151725800Y-65541193D01*
X151672576Y-65484895D01*
X151629532Y-65420476D01*
X151562023Y-65352967D01*
X151497605Y-65309924D01*
X151441306Y-65256699D01*
X151360467Y-65205905D01*
X151288092Y-65178278D01*
X151221364Y-65138916D01*
X151131249Y-65107383D01*
X151054532Y-65096552D01*
X150980714Y-65073025D01*
X150885841Y-65062336D01*
X150846938Y-65065618D01*
X150808646Y-65058001D01*
X150765663Y-65058001D01*
X150771999Y-65026146D01*
X150771999Y-49823583D01*
X156062839Y-49823583D01*
X156203669Y-50164417D01*
X156464211Y-50425414D01*
X156804799Y-50566839D01*
X157173583Y-50567161D01*
X157514417Y-50426331D01*
X157775414Y-50165789D01*
X157916839Y-49825201D01*
X157917161Y-49456417D01*
X157776331Y-49115583D01*
X157515789Y-48854586D01*
X157175201Y-48713161D01*
X156806417Y-48712839D01*
X156465583Y-48853669D01*
X156204586Y-49114211D01*
X156063161Y-49454799D01*
X156062839Y-49823583D01*
X150771999Y-49823583D01*
X150771999Y-46048767D01*
X151220025Y-45600741D01*
X153989997Y-45600741D01*
X154130827Y-45941575D01*
X154391369Y-46202572D01*
X154607740Y-46292417D01*
X154696511Y-46507259D01*
X154957053Y-46768256D01*
X155297641Y-46909681D01*
X155666425Y-46910003D01*
X156007259Y-46769173D01*
X156255307Y-46521557D01*
X156329219Y-46700438D01*
X156751735Y-47123692D01*
X157304061Y-47353038D01*
X157902111Y-47353560D01*
X158454836Y-47125179D01*
X158878090Y-46702663D01*
X159107436Y-46150337D01*
X159107958Y-45552287D01*
X158879577Y-44999562D01*
X158457061Y-44576308D01*
X157904735Y-44346962D01*
X157306685Y-44346440D01*
X156753960Y-44574821D01*
X156330706Y-44997337D01*
X156177414Y-45366505D01*
X156008631Y-45197428D01*
X155792260Y-45107583D01*
X155703489Y-44892741D01*
X155442947Y-44631744D01*
X155102359Y-44490319D01*
X154733575Y-44489997D01*
X154392741Y-44630827D01*
X154131744Y-44891369D01*
X153990319Y-45231957D01*
X153989997Y-45600741D01*
X151220025Y-45600741D01*
X151600050Y-45220716D01*
X151749515Y-44997027D01*
X151802000Y-44733166D01*
X151802000Y-42352885D01*
X151984211Y-42535414D01*
X152324799Y-42676839D01*
X152693583Y-42677161D01*
X153034417Y-42536331D01*
X153295414Y-42275789D01*
X153296330Y-42273583D01*
X156272839Y-42273583D01*
X156413669Y-42614417D01*
X156674211Y-42875414D01*
X157014799Y-43016839D01*
X157383583Y-43017161D01*
X157724417Y-42876331D01*
X157985414Y-42615789D01*
X158126839Y-42275201D01*
X158127161Y-41906417D01*
X157986331Y-41565583D01*
X157725789Y-41304586D01*
X157385201Y-41163161D01*
X157016417Y-41162839D01*
X156675583Y-41303669D01*
X156414586Y-41564211D01*
X156273161Y-41904799D01*
X156272839Y-42273583D01*
X153296330Y-42273583D01*
X153436839Y-41935201D01*
X153437161Y-41566417D01*
X153351835Y-41359913D01*
X153436839Y-41155201D01*
X153437161Y-40786417D01*
X153296331Y-40445583D01*
X153183702Y-40332757D01*
X153186839Y-40325201D01*
X153187161Y-39956417D01*
X153101835Y-39749913D01*
X153186839Y-39545201D01*
X153187161Y-39176417D01*
X153046331Y-38835583D01*
X152785789Y-38574586D01*
X152445201Y-38433161D01*
X152076417Y-38432839D01*
X151735583Y-38573669D01*
X151474586Y-38834211D01*
X151443946Y-38908001D01*
X149486834Y-38908000D01*
X149222974Y-38960485D01*
X148999284Y-39109950D01*
X148059950Y-40049284D01*
X147910485Y-40272974D01*
X147858000Y-40536834D01*
X147858000Y-42191234D01*
X147239950Y-42809284D01*
X147090485Y-43032974D01*
X147038000Y-43296834D01*
X147038000Y-45591234D01*
X146626920Y-46002314D01*
X146627161Y-45726417D01*
X146537693Y-45509888D01*
X146626839Y-45295201D01*
X146627161Y-44926417D01*
X146486331Y-44585583D01*
X146225789Y-44324586D01*
X145885201Y-44183161D01*
X145516417Y-44182839D01*
X145175583Y-44323669D01*
X144914586Y-44584211D01*
X144773161Y-44924799D01*
X144772839Y-45293583D01*
X144862307Y-45510112D01*
X144773161Y-45724799D01*
X144772839Y-46093583D01*
X144913669Y-46434417D01*
X145174211Y-46695414D01*
X145514799Y-46836839D01*
X145792153Y-46837081D01*
X144569951Y-48059283D01*
X144420486Y-48282973D01*
X144368001Y-48546833D01*
X144368001Y-66294655D01*
X144375617Y-66332943D01*
X144372335Y-66371846D01*
X144380366Y-66443131D01*
X144403894Y-66516953D01*
X144414726Y-66593673D01*
X144438419Y-66661382D01*
X144477781Y-66728109D01*
X144505407Y-66800482D01*
X144543572Y-66861222D01*
X144568420Y-66887505D01*
X144543572Y-66913787D01*
X144505407Y-66974527D01*
X144477781Y-67046900D01*
X144438419Y-67113627D01*
X144414726Y-67181336D01*
X144403894Y-67258056D01*
X144380366Y-67331878D01*
X144372335Y-67403163D01*
X144375617Y-67442066D01*
X144368001Y-67480354D01*
X144368001Y-71643746D01*
X144295583Y-71673669D01*
X144034586Y-71934211D01*
X143893161Y-72274799D01*
X143892839Y-72643583D01*
X122822999Y-72643583D01*
X122822999Y-57965999D01*
X122737211Y-57534715D01*
X122492908Y-57169090D01*
X116757401Y-51433583D01*
X124822839Y-51433583D01*
X124963669Y-51774417D01*
X125224211Y-52035414D01*
X125564799Y-52176839D01*
X125933583Y-52177161D01*
X126274417Y-52036331D01*
X126535414Y-51775789D01*
X126676839Y-51435201D01*
X126677161Y-51066417D01*
X126536331Y-50725583D01*
X126275789Y-50464586D01*
X125935201Y-50323161D01*
X125566417Y-50322839D01*
X125225583Y-50463669D01*
X124964586Y-50724211D01*
X124823161Y-51064799D01*
X124822839Y-51433583D01*
X116757401Y-51433583D01*
X115257401Y-49933583D01*
X127072839Y-49933583D01*
X127213669Y-50274417D01*
X127474211Y-50535414D01*
X127814799Y-50676839D01*
X128183583Y-50677161D01*
X128524417Y-50536331D01*
X128785414Y-50275789D01*
X128926839Y-49935201D01*
X128926927Y-49833583D01*
X139342839Y-49833583D01*
X139483669Y-50174417D01*
X139744211Y-50435414D01*
X140084799Y-50576839D01*
X140453583Y-50577161D01*
X140794417Y-50436331D01*
X141055414Y-50175789D01*
X141196839Y-49835201D01*
X141197161Y-49466417D01*
X141056331Y-49125583D01*
X140795789Y-48864586D01*
X140455201Y-48723161D01*
X140086417Y-48722839D01*
X139745583Y-48863669D01*
X139484586Y-49124211D01*
X139343161Y-49464799D01*
X139342839Y-49833583D01*
X128926927Y-49833583D01*
X128927161Y-49566417D01*
X128786331Y-49225583D01*
X128525789Y-48964586D01*
X128185201Y-48823161D01*
X127816417Y-48822839D01*
X127475583Y-48963669D01*
X127214586Y-49224211D01*
X127073161Y-49564799D01*
X127072839Y-49933583D01*
X115257401Y-49933583D01*
X114867000Y-49543182D01*
X114867000Y-47653583D01*
X122102839Y-47653583D01*
X122243669Y-47994417D01*
X122504211Y-48255414D01*
X122844799Y-48396839D01*
X123213583Y-48397161D01*
X123554417Y-48256331D01*
X123815414Y-47995789D01*
X123956839Y-47655201D01*
X123957161Y-47286417D01*
X123914671Y-47183583D01*
X124072839Y-47183583D01*
X124213669Y-47524417D01*
X124474211Y-47785414D01*
X124814799Y-47926839D01*
X125183583Y-47927161D01*
X125524417Y-47786331D01*
X125785414Y-47525789D01*
X125926839Y-47185201D01*
X125926840Y-47183583D01*
X128509329Y-47183583D01*
X128650159Y-47524417D01*
X128910701Y-47785414D01*
X129251289Y-47926839D01*
X129620073Y-47927161D01*
X129960907Y-47786331D01*
X130221904Y-47525789D01*
X130343238Y-47233583D01*
X130982839Y-47233583D01*
X131123669Y-47574417D01*
X131384211Y-47835414D01*
X131724799Y-47976839D01*
X132093583Y-47977161D01*
X132434417Y-47836331D01*
X132695414Y-47575789D01*
X132731625Y-47488583D01*
X138412839Y-47488583D01*
X138553669Y-47829417D01*
X138814211Y-48090414D01*
X139154799Y-48231839D01*
X139523583Y-48232161D01*
X139864417Y-48091331D01*
X140125414Y-47830789D01*
X140266839Y-47490201D01*
X140267161Y-47121417D01*
X140126331Y-46780583D01*
X139865789Y-46519586D01*
X139525201Y-46378161D01*
X139156417Y-46377839D01*
X138815583Y-46518669D01*
X138554586Y-46779211D01*
X138413161Y-47119799D01*
X138412839Y-47488583D01*
X132731625Y-47488583D01*
X132836839Y-47235201D01*
X132837161Y-46866417D01*
X132696331Y-46525583D01*
X132435789Y-46264586D01*
X132095201Y-46123161D01*
X131726417Y-46122839D01*
X131385583Y-46263669D01*
X131124586Y-46524211D01*
X130983161Y-46864799D01*
X130982839Y-47233583D01*
X130343238Y-47233583D01*
X130363329Y-47185201D01*
X130363651Y-46816417D01*
X130222821Y-46475583D01*
X129962279Y-46214586D01*
X129621691Y-46073161D01*
X129252907Y-46072839D01*
X128912073Y-46213669D01*
X128651076Y-46474211D01*
X128509651Y-46814799D01*
X128509329Y-47183583D01*
X125926840Y-47183583D01*
X125927161Y-46816417D01*
X125786331Y-46475583D01*
X125525789Y-46214586D01*
X125185201Y-46073161D01*
X124816417Y-46072839D01*
X124475583Y-46213669D01*
X124214586Y-46474211D01*
X124073161Y-46814799D01*
X124072839Y-47183583D01*
X123914671Y-47183583D01*
X123816331Y-46945583D01*
X123555789Y-46684586D01*
X123215201Y-46543161D01*
X122846417Y-46542839D01*
X122505583Y-46683669D01*
X122244586Y-46944211D01*
X122103161Y-47284799D01*
X122102839Y-47653583D01*
X114867000Y-47653583D01*
X114867000Y-47220002D01*
X114781212Y-46788718D01*
X114781212Y-46788717D01*
X114536909Y-46423092D01*
X113297400Y-45183583D01*
X113822839Y-45183583D01*
X113963669Y-45524417D01*
X114224211Y-45785414D01*
X114564799Y-45926839D01*
X114933583Y-45927161D01*
X115274417Y-45786331D01*
X115535414Y-45525789D01*
X115676839Y-45185201D01*
X115677161Y-44816417D01*
X115622276Y-44683583D01*
X122072839Y-44683583D01*
X122213669Y-45024417D01*
X122474211Y-45285414D01*
X122814799Y-45426839D01*
X123183583Y-45427161D01*
X123524417Y-45286331D01*
X123627344Y-45183583D01*
X124072839Y-45183583D01*
X124213669Y-45524417D01*
X124474211Y-45785414D01*
X124814799Y-45926839D01*
X125183583Y-45927161D01*
X125524417Y-45786331D01*
X125785414Y-45525789D01*
X125926839Y-45185201D01*
X125927058Y-44933583D01*
X129072839Y-44933583D01*
X129213669Y-45274417D01*
X129474211Y-45535414D01*
X129814799Y-45676839D01*
X130183583Y-45677161D01*
X130524417Y-45536331D01*
X130785414Y-45275789D01*
X130926839Y-44935201D01*
X130927161Y-44566417D01*
X130786331Y-44225583D01*
X130525789Y-43964586D01*
X130185201Y-43823161D01*
X129816417Y-43822839D01*
X129475583Y-43963669D01*
X129214586Y-44224211D01*
X129073161Y-44564799D01*
X129072839Y-44933583D01*
X125927058Y-44933583D01*
X125927161Y-44816417D01*
X125786331Y-44475583D01*
X125525789Y-44214586D01*
X125185201Y-44073161D01*
X124816417Y-44072839D01*
X124475583Y-44213669D01*
X124214586Y-44474211D01*
X124073161Y-44814799D01*
X124072839Y-45183583D01*
X123627344Y-45183583D01*
X123785414Y-45025789D01*
X123926839Y-44685201D01*
X123927161Y-44316417D01*
X123786331Y-43975583D01*
X123525789Y-43714586D01*
X123185201Y-43573161D01*
X122816417Y-43572839D01*
X122475583Y-43713669D01*
X122214586Y-43974211D01*
X122073161Y-44314799D01*
X122072839Y-44683583D01*
X115622276Y-44683583D01*
X115536331Y-44475583D01*
X115275789Y-44214586D01*
X114935201Y-44073161D01*
X114566417Y-44072839D01*
X114225583Y-44213669D01*
X113964586Y-44474211D01*
X113823161Y-44814799D01*
X113822839Y-45183583D01*
X113297400Y-45183583D01*
X110587337Y-42473521D01*
X110785414Y-42275789D01*
X110926839Y-41935201D01*
X110927161Y-41566417D01*
X110786331Y-41225583D01*
X110525789Y-40964586D01*
X110185201Y-40823161D01*
X109816417Y-40822839D01*
X109475583Y-40963669D01*
X109276360Y-41162544D01*
X108447399Y-40333583D01*
X144812839Y-40333583D01*
X144902307Y-40550112D01*
X144813161Y-40764799D01*
X144812839Y-41133583D01*
X144953669Y-41474417D01*
X145214211Y-41735414D01*
X145554799Y-41876839D01*
X145923583Y-41877161D01*
X146264417Y-41736331D01*
X146525414Y-41475789D01*
X146666839Y-41135201D01*
X146667161Y-40766417D01*
X146577693Y-40549888D01*
X146666839Y-40335201D01*
X146667161Y-39966417D01*
X146526331Y-39625583D01*
X146265789Y-39364586D01*
X145925201Y-39223161D01*
X145556417Y-39222839D01*
X145215583Y-39363669D01*
X144954586Y-39624211D01*
X144813161Y-39964799D01*
X144812839Y-40333583D01*
X108447399Y-40333583D01*
X107041907Y-38928091D01*
X106676282Y-38683788D01*
X106244998Y-38598000D01*
X94866818Y-38598000D01*
X92271911Y-36003093D01*
X92271909Y-36003090D01*
X91971909Y-35703091D01*
X91606284Y-35458788D01*
X91175000Y-35373000D01*
X90743716Y-35458788D01*
X90378091Y-35703091D01*
X90133788Y-36068716D01*
X90048000Y-36500000D01*
X88601913Y-36500000D01*
X88602161Y-36216417D01*
X88461331Y-35875583D01*
X88200789Y-35614586D01*
X87860201Y-35473161D01*
X87491417Y-35472839D01*
X87150583Y-35613669D01*
X86889586Y-35874211D01*
X86748161Y-36214799D01*
X86747839Y-36583583D01*
X84035266Y-36583583D01*
X84330664Y-36141488D01*
X84387990Y-36003090D01*
X84431751Y-35897443D01*
X84583992Y-35132077D01*
X84583992Y-35065396D01*
X84597000Y-35000000D01*
X84597000Y-32583583D01*
X86747839Y-32583583D01*
X86888669Y-32924417D01*
X87149211Y-33185414D01*
X87489799Y-33326839D01*
X87858583Y-33327161D01*
X88199417Y-33186331D01*
X88460414Y-32925789D01*
X88601839Y-32585201D01*
X88602161Y-32216417D01*
X88461331Y-31875583D01*
X88200789Y-31614586D01*
X87860201Y-31473161D01*
X87491417Y-31472839D01*
X87150583Y-31613669D01*
X86889586Y-31874211D01*
X86748161Y-32214799D01*
X86747839Y-32583583D01*
X84597000Y-32583583D01*
X84597000Y-29100000D01*
X88843000Y-29100000D01*
X89016326Y-29971370D01*
X89509918Y-30710082D01*
X90248630Y-31203674D01*
X91120000Y-31377000D01*
X91991370Y-31203674D01*
X92730082Y-30710082D01*
X93223674Y-29971370D01*
X93334534Y-29414038D01*
X94869761Y-29414038D01*
X95080778Y-29924738D01*
X95471168Y-30315811D01*
X95695420Y-30408928D01*
X95473224Y-30500738D01*
X95082151Y-30891128D01*
X94870243Y-31401460D01*
X94869761Y-31954038D01*
X95080778Y-32464738D01*
X95471168Y-32855811D01*
X95691137Y-32947150D01*
X95474223Y-33036777D01*
X95083150Y-33427167D01*
X94871242Y-33937499D01*
X94870760Y-34490077D01*
X95081777Y-35000777D01*
X95472167Y-35391850D01*
X95696419Y-35484967D01*
X95474223Y-35576777D01*
X95083150Y-35967167D01*
X94871242Y-36477499D01*
X94870760Y-37030077D01*
X95081777Y-37540777D01*
X95472167Y-37931850D01*
X95982499Y-38143758D01*
X96535077Y-38144240D01*
X97045777Y-37933223D01*
X97436850Y-37542833D01*
X97529967Y-37318581D01*
X97621777Y-37540777D01*
X98012167Y-37931850D01*
X98522499Y-38143758D01*
X99075077Y-38144240D01*
X99585777Y-37933223D01*
X99976850Y-37542833D01*
X100069967Y-37318581D01*
X100161777Y-37540777D01*
X100552167Y-37931850D01*
X101062499Y-38143758D01*
X101615077Y-38144240D01*
X102125777Y-37933223D01*
X102516850Y-37542833D01*
X102609967Y-37318581D01*
X102701777Y-37540777D01*
X103092167Y-37931850D01*
X103602499Y-38143758D01*
X104155077Y-38144240D01*
X104665777Y-37933223D01*
X105056850Y-37542833D01*
X105149967Y-37318581D01*
X105241777Y-37540777D01*
X105632167Y-37931850D01*
X106142499Y-38143758D01*
X106695077Y-38144240D01*
X107205777Y-37933223D01*
X107596850Y-37542833D01*
X107689967Y-37318581D01*
X107781777Y-37540777D01*
X108172167Y-37931850D01*
X108682499Y-38143758D01*
X109235077Y-38144240D01*
X109745777Y-37933223D01*
X110136850Y-37542833D01*
X110229967Y-37318581D01*
X110321777Y-37540777D01*
X110712167Y-37931850D01*
X111222499Y-38143758D01*
X111775077Y-38144240D01*
X112285777Y-37933223D01*
X112676850Y-37542833D01*
X112769967Y-37318581D01*
X112861777Y-37540777D01*
X113252167Y-37931850D01*
X113762499Y-38143758D01*
X114315077Y-38144240D01*
X114825777Y-37933223D01*
X115216850Y-37542833D01*
X115309967Y-37318581D01*
X115401777Y-37540777D01*
X115792167Y-37931850D01*
X116302499Y-38143758D01*
X116855077Y-38144240D01*
X117365777Y-37933223D01*
X117756850Y-37542833D01*
X117849967Y-37318581D01*
X117941777Y-37540777D01*
X118332167Y-37931850D01*
X118842499Y-38143758D01*
X119395077Y-38144240D01*
X119905777Y-37933223D01*
X120296850Y-37542833D01*
X120389967Y-37318581D01*
X120481777Y-37540777D01*
X120872167Y-37931850D01*
X121382499Y-38143758D01*
X121935077Y-38144240D01*
X122445777Y-37933223D01*
X122836850Y-37542833D01*
X122929967Y-37318581D01*
X123021777Y-37540777D01*
X123412167Y-37931850D01*
X123922499Y-38143758D01*
X124475077Y-38144240D01*
X124985777Y-37933223D01*
X125376850Y-37542833D01*
X125469967Y-37318581D01*
X125561777Y-37540777D01*
X125952167Y-37931850D01*
X126462499Y-38143758D01*
X127015077Y-38144240D01*
X127525777Y-37933223D01*
X127916850Y-37542833D01*
X128009967Y-37318581D01*
X128101777Y-37540777D01*
X128492167Y-37931850D01*
X129002499Y-38143758D01*
X129555077Y-38144240D01*
X130065777Y-37933223D01*
X130456850Y-37542833D01*
X130549967Y-37318581D01*
X130641777Y-37540777D01*
X131032167Y-37931850D01*
X131542499Y-38143758D01*
X132095077Y-38144240D01*
X132605777Y-37933223D01*
X132996850Y-37542833D01*
X133089967Y-37318581D01*
X133181777Y-37540777D01*
X133572167Y-37931850D01*
X134082499Y-38143758D01*
X134635077Y-38144240D01*
X135145777Y-37933223D01*
X135536850Y-37542833D01*
X135629967Y-37318581D01*
X135721777Y-37540777D01*
X136112167Y-37931850D01*
X136622499Y-38143758D01*
X137175077Y-38144240D01*
X137685777Y-37933223D01*
X138076850Y-37542833D01*
X138169967Y-37318581D01*
X138261777Y-37540777D01*
X138652167Y-37931850D01*
X139162499Y-38143758D01*
X139715077Y-38144240D01*
X140225777Y-37933223D01*
X140616850Y-37542833D01*
X140709967Y-37318581D01*
X140801777Y-37540777D01*
X141192167Y-37931850D01*
X141702499Y-38143758D01*
X142255077Y-38144240D01*
X142765777Y-37933223D01*
X143156850Y-37542833D01*
X143249967Y-37318581D01*
X143341777Y-37540777D01*
X143732167Y-37931850D01*
X144242499Y-38143758D01*
X144795077Y-38144240D01*
X145305777Y-37933223D01*
X145696850Y-37542833D01*
X145789967Y-37318581D01*
X145881777Y-37540777D01*
X146272167Y-37931850D01*
X146782499Y-38143758D01*
X147335077Y-38144240D01*
X147845777Y-37933223D01*
X148236850Y-37542833D01*
X148329967Y-37318581D01*
X148421777Y-37540777D01*
X148812167Y-37931850D01*
X149322499Y-38143758D01*
X149875077Y-38144240D01*
X150385777Y-37933223D01*
X150776850Y-37542833D01*
X150869967Y-37318581D01*
X150961777Y-37540777D01*
X151352167Y-37931850D01*
X151862499Y-38143758D01*
X152415077Y-38144240D01*
X152925777Y-37933223D01*
X153316850Y-37542833D01*
X153409967Y-37318581D01*
X153501777Y-37540777D01*
X153892167Y-37931850D01*
X154402499Y-38143758D01*
X154955077Y-38144240D01*
X155465777Y-37933223D01*
X155856850Y-37542833D01*
X155949967Y-37318581D01*
X156041777Y-37540777D01*
X156432167Y-37931850D01*
X156942499Y-38143758D01*
X157495077Y-38144240D01*
X158005777Y-37933223D01*
X158396850Y-37542833D01*
X158489967Y-37318581D01*
X158581777Y-37540777D01*
X158972167Y-37931850D01*
X159482499Y-38143758D01*
X160035077Y-38144240D01*
X160545777Y-37933223D01*
X160936850Y-37542833D01*
X161148758Y-37032501D01*
X161149240Y-36479923D01*
X160938223Y-35969223D01*
X160547833Y-35578150D01*
X160323581Y-35485033D01*
X160545777Y-35393223D01*
X160936850Y-35002833D01*
X161148758Y-34492501D01*
X161149240Y-33939923D01*
X160938223Y-33429223D01*
X160547833Y-33038150D01*
X160327864Y-32946811D01*
X160544778Y-32857184D01*
X160935851Y-32466794D01*
X161147759Y-31956462D01*
X161148241Y-31403884D01*
X160937224Y-30893184D01*
X160546834Y-30502111D01*
X160322582Y-30408994D01*
X160544778Y-30317184D01*
X160935851Y-29926794D01*
X161147759Y-29416462D01*
X161148035Y-29100000D01*
X162543000Y-29100000D01*
X162716326Y-29971370D01*
X163209918Y-30710082D01*
X163948630Y-31203674D01*
X164820000Y-31377000D01*
X165691370Y-31203674D01*
X166430082Y-30710082D01*
X166923674Y-29971370D01*
X167097000Y-29100000D01*
X166923674Y-28228630D01*
X166430082Y-27489918D01*
X165691370Y-26996326D01*
X164820000Y-26823000D01*
X163948630Y-26996326D01*
X163209918Y-27489918D01*
X162716326Y-28228630D01*
X162543000Y-29100000D01*
X161148035Y-29100000D01*
X161148241Y-28863884D01*
X160937224Y-28353184D01*
X160546834Y-27962111D01*
X160036502Y-27750203D01*
X159483924Y-27749721D01*
X158973224Y-27960738D01*
X158582151Y-28351128D01*
X158489034Y-28575380D01*
X158397224Y-28353184D01*
X158006834Y-27962111D01*
X157496502Y-27750203D01*
X156943924Y-27749721D01*
X156433224Y-27960738D01*
X156042151Y-28351128D01*
X155949034Y-28575380D01*
X155857224Y-28353184D01*
X155466834Y-27962111D01*
X154956502Y-27750203D01*
X154403924Y-27749721D01*
X153893224Y-27960738D01*
X153502151Y-28351128D01*
X153409034Y-28575380D01*
X153317224Y-28353184D01*
X152926834Y-27962111D01*
X152416502Y-27750203D01*
X151863924Y-27749721D01*
X151353224Y-27960738D01*
X150962151Y-28351128D01*
X150869034Y-28575380D01*
X150777224Y-28353184D01*
X150386834Y-27962111D01*
X149876502Y-27750203D01*
X149323924Y-27749721D01*
X148813224Y-27960738D01*
X148422151Y-28351128D01*
X148329034Y-28575380D01*
X148237224Y-28353184D01*
X147846834Y-27962111D01*
X147336502Y-27750203D01*
X146783924Y-27749721D01*
X146273224Y-27960738D01*
X145882151Y-28351128D01*
X145789034Y-28575380D01*
X145697224Y-28353184D01*
X145306834Y-27962111D01*
X144796502Y-27750203D01*
X144243924Y-27749721D01*
X143733224Y-27960738D01*
X143342151Y-28351128D01*
X143249034Y-28575380D01*
X143157224Y-28353184D01*
X142766834Y-27962111D01*
X142256502Y-27750203D01*
X141703924Y-27749721D01*
X141193224Y-27960738D01*
X140802151Y-28351128D01*
X140709034Y-28575380D01*
X140617224Y-28353184D01*
X140226834Y-27962111D01*
X139716502Y-27750203D01*
X139163924Y-27749721D01*
X138653224Y-27960738D01*
X138262151Y-28351128D01*
X138169034Y-28575380D01*
X138077224Y-28353184D01*
X137686834Y-27962111D01*
X137176502Y-27750203D01*
X136623924Y-27749721D01*
X136113224Y-27960738D01*
X135722151Y-28351128D01*
X135629034Y-28575380D01*
X135537224Y-28353184D01*
X135146834Y-27962111D01*
X134636502Y-27750203D01*
X134083924Y-27749721D01*
X133573224Y-27960738D01*
X133182151Y-28351128D01*
X133089034Y-28575380D01*
X132997224Y-28353184D01*
X132606834Y-27962111D01*
X132096502Y-27750203D01*
X131543924Y-27749721D01*
X131033224Y-27960738D01*
X130642151Y-28351128D01*
X130549034Y-28575380D01*
X130457224Y-28353184D01*
X130066834Y-27962111D01*
X129556502Y-27750203D01*
X129003924Y-27749721D01*
X128493224Y-27960738D01*
X128102151Y-28351128D01*
X128009034Y-28575380D01*
X127917224Y-28353184D01*
X127526834Y-27962111D01*
X127016502Y-27750203D01*
X126463924Y-27749721D01*
X125953224Y-27960738D01*
X125562151Y-28351128D01*
X125469034Y-28575380D01*
X125377224Y-28353184D01*
X124986834Y-27962111D01*
X124476502Y-27750203D01*
X123923924Y-27749721D01*
X123413224Y-27960738D01*
X123022151Y-28351128D01*
X122929034Y-28575380D01*
X122837224Y-28353184D01*
X122446834Y-27962111D01*
X121936502Y-27750203D01*
X121383924Y-27749721D01*
X120873224Y-27960738D01*
X120482151Y-28351128D01*
X120389034Y-28575380D01*
X120297224Y-28353184D01*
X119906834Y-27962111D01*
X119396502Y-27750203D01*
X118843924Y-27749721D01*
X118333224Y-27960738D01*
X117942151Y-28351128D01*
X117849034Y-28575380D01*
X117757224Y-28353184D01*
X117366834Y-27962111D01*
X116856502Y-27750203D01*
X116303924Y-27749721D01*
X115793224Y-27960738D01*
X115402151Y-28351128D01*
X115309034Y-28575380D01*
X115217224Y-28353184D01*
X114826834Y-27962111D01*
X114316502Y-27750203D01*
X113763924Y-27749721D01*
X113253224Y-27960738D01*
X112862151Y-28351128D01*
X112769034Y-28575380D01*
X112677224Y-28353184D01*
X112286834Y-27962111D01*
X111776502Y-27750203D01*
X111223924Y-27749721D01*
X110713224Y-27960738D01*
X110322151Y-28351128D01*
X110229034Y-28575380D01*
X110137224Y-28353184D01*
X109746834Y-27962111D01*
X109236502Y-27750203D01*
X108683924Y-27749721D01*
X108173224Y-27960738D01*
X107782151Y-28351128D01*
X107689034Y-28575380D01*
X107597224Y-28353184D01*
X107206834Y-27962111D01*
X106696502Y-27750203D01*
X106143924Y-27749721D01*
X105633224Y-27960738D01*
X105242151Y-28351128D01*
X105149034Y-28575380D01*
X105057224Y-28353184D01*
X104666834Y-27962111D01*
X104156502Y-27750203D01*
X103603924Y-27749721D01*
X103093224Y-27960738D01*
X102702151Y-28351128D01*
X102609034Y-28575380D01*
X102517224Y-28353184D01*
X102126834Y-27962111D01*
X101616502Y-27750203D01*
X101063924Y-27749721D01*
X100553224Y-27960738D01*
X100162151Y-28351128D01*
X100069034Y-28575380D01*
X99977224Y-28353184D01*
X99586834Y-27962111D01*
X99076502Y-27750203D01*
X98523924Y-27749721D01*
X98013224Y-27960738D01*
X97622151Y-28351128D01*
X97529034Y-28575380D01*
X97437224Y-28353184D01*
X97046834Y-27962111D01*
X96536502Y-27750203D01*
X95983924Y-27749721D01*
X95473224Y-27960738D01*
X95082151Y-28351128D01*
X94870243Y-28861460D01*
X94869761Y-29414038D01*
X93334534Y-29414038D01*
X93397000Y-29100000D01*
X93223674Y-28228630D01*
X92730082Y-27489918D01*
X91991370Y-26996326D01*
X91120000Y-26823000D01*
X90248630Y-26996326D01*
X89509918Y-27489918D01*
X89016326Y-28228630D01*
X88843000Y-29100000D01*
X84597000Y-29100000D01*
X84597000Y-26383583D01*
X88447839Y-26383583D01*
X88588669Y-26724417D01*
X88849211Y-26985414D01*
X89189799Y-27126839D01*
X89558583Y-27127161D01*
X89899417Y-26986331D01*
X90160414Y-26725789D01*
X90301839Y-26385201D01*
X90302161Y-26016417D01*
X90161331Y-25675583D01*
X89900789Y-25414586D01*
X89560201Y-25273161D01*
X89191417Y-25272839D01*
X88850583Y-25413669D01*
X88589586Y-25674211D01*
X88448161Y-26014799D01*
X88447839Y-26383583D01*
X84597000Y-26383583D01*
X84597000Y-24677000D01*
X95364400Y-24677000D01*
X95484369Y-25280126D01*
X95484369Y-25280126D01*
G37*
X95484369Y-25280126D02*
X95539685Y-25413669D01*
X95585456Y-25524171D01*
X96235775Y-26497441D01*
X96422559Y-26684225D01*
X97395828Y-27334544D01*
X97467308Y-27364151D01*
X97639874Y-27435631D01*
X98787924Y-27663992D01*
X98854604Y-27663992D01*
X98920000Y-27677000D01*
X110720000Y-27677000D01*
X110785396Y-27663992D01*
X110852076Y-27663992D01*
X112000126Y-27435631D01*
X112154022Y-27371885D01*
X112244171Y-27334544D01*
X113217441Y-26684225D01*
X113404225Y-26497441D01*
X114054544Y-25524172D01*
X114084151Y-25452692D01*
X114155631Y-25280126D01*
X114275600Y-24677000D01*
X172243000Y-24677000D01*
X172243000Y-32000000D01*
X172256008Y-32065396D01*
X172256008Y-32132076D01*
X172332128Y-32514758D01*
X172433215Y-32758804D01*
X172649988Y-33083228D01*
X172836772Y-33270012D01*
X173161196Y-33486785D01*
X173243000Y-33520669D01*
X173243000Y-42780717D01*
X172907138Y-41967868D01*
X171972055Y-41031151D01*
X170749685Y-40523579D01*
X169426122Y-40522424D01*
X168202868Y-41027862D01*
X167266151Y-41962945D01*
X166758579Y-43185315D01*
X166757424Y-44508878D01*
X167262862Y-45732132D01*
X168197945Y-46668849D01*
X169420315Y-47176421D01*
X170743878Y-47177576D01*
X171967132Y-46672138D01*
X172903849Y-45737055D01*
X173243000Y-44920288D01*
X173243000Y-50501564D01*
X173084159Y-50395430D01*
X172518936Y-50283000D01*
X172461064Y-50283000D01*
X171895841Y-50395430D01*
X171416667Y-50715603D01*
X171096494Y-51194777D01*
X170984064Y-51760000D01*
X171096494Y-52325223D01*
X171416667Y-52804397D01*
X171754307Y-53030000D01*
X171416667Y-53255603D01*
X171096494Y-53734777D01*
X170984064Y-54300000D01*
X171096494Y-54865223D01*
X171416667Y-55344397D01*
X171895841Y-55664570D01*
X172461064Y-55777000D01*
X172518936Y-55777000D01*
X173084159Y-55664570D01*
X173243000Y-55558436D01*
X173243000Y-66444400D01*
X173022557Y-66488249D01*
X172882865Y-66546112D01*
X172778512Y-66589336D01*
X172129665Y-67022881D01*
X171942881Y-67209665D01*
X171942881Y-67209666D01*
X171509336Y-67858512D01*
X171443648Y-68017097D01*
X171408249Y-68102557D01*
X171256008Y-68867924D01*
X171256008Y-68934604D01*
X171243000Y-69000000D01*
X171243000Y-75000000D01*
X171256008Y-75065396D01*
X171256008Y-75132076D01*
X171408249Y-75897443D01*
X171414371Y-75912222D01*
X171509336Y-76141488D01*
X171942880Y-76790332D01*
X171942881Y-76790335D01*
X172129665Y-76977119D01*
X172778512Y-77410664D01*
X172857197Y-77443256D01*
X173022557Y-77511751D01*
X173243000Y-77555600D01*
X173243000Y-89780717D01*
X172907138Y-88967868D01*
X171972055Y-88031151D01*
X170749685Y-87523579D01*
X169426122Y-87522424D01*
X168202868Y-88027862D01*
X167266151Y-88962945D01*
X166758579Y-90185315D01*
X166757424Y-91508878D01*
X167262862Y-92732132D01*
X168197945Y-93668849D01*
X169420315Y-94176421D01*
X170743878Y-94177576D01*
X171967132Y-93672138D01*
X172903849Y-92737055D01*
X173243000Y-91920288D01*
X173243000Y-106444400D01*
X173022557Y-106488249D01*
X172879599Y-106547465D01*
X172778512Y-106589336D01*
X172129665Y-107022881D01*
X171942881Y-107209665D01*
X171942881Y-107209666D01*
X171509336Y-107858512D01*
X171437857Y-108031078D01*
X171408249Y-108102557D01*
X171256008Y-108867924D01*
X171256008Y-108934604D01*
X171243000Y-109000000D01*
X171243000Y-119323000D01*
X149475600Y-119323000D01*
X149355631Y-118719874D01*
X149254544Y-118475829D01*
X149254544Y-118475828D01*
X148604225Y-117502559D01*
X148417441Y-117315775D01*
X147444171Y-116665456D01*
X147354022Y-116628115D01*
X147200126Y-116564369D01*
X146052076Y-116336008D01*
X145985396Y-116336008D01*
X145920000Y-116323000D01*
X122120000Y-116323000D01*
X122054604Y-116336008D01*
X120839874Y-116564369D01*
X120696205Y-116623879D01*
X120595828Y-116665456D01*
X119622559Y-117315775D01*
X119435775Y-117502559D01*
X118785456Y-118475829D01*
X118757769Y-118542671D01*
X118684369Y-118719874D01*
X118564400Y-119323000D01*
X84597000Y-119323000D01*
X84597000Y-114800000D01*
X85043000Y-114800000D01*
X85216326Y-115671370D01*
X85709918Y-116410082D01*
X86448630Y-116903674D01*
X87320000Y-117077000D01*
X88191370Y-116903674D01*
X88930082Y-116410082D01*
X89423674Y-115671370D01*
X89438425Y-115597211D01*
X105747718Y-115597211D01*
X105994892Y-116195418D01*
X106452175Y-116653499D01*
X107049950Y-116901717D01*
X107697211Y-116902282D01*
X108295418Y-116655108D01*
X108753499Y-116197825D01*
X109001717Y-115600050D01*
X109002282Y-114952789D01*
X108755108Y-114354582D01*
X108297825Y-113896501D01*
X107700050Y-113648283D01*
X107052789Y-113647718D01*
X106454582Y-113894892D01*
X105996501Y-114352175D01*
X105748283Y-114949950D01*
X105747718Y-115597211D01*
X89438425Y-115597211D01*
X89597000Y-114800000D01*
X89423674Y-113928630D01*
X88930082Y-113189918D01*
X88191370Y-112696326D01*
X87320000Y-112523000D01*
X86448630Y-112696326D01*
X85709918Y-113189918D01*
X85216326Y-113928630D01*
X85043000Y-114800000D01*
X84597000Y-114800000D01*
X84597000Y-104000000D01*
X84583992Y-103934604D01*
X84583992Y-103867923D01*
X84431751Y-103102557D01*
X84372535Y-102959599D01*
X84330664Y-102858512D01*
X83897119Y-102209665D01*
X83710335Y-102022881D01*
X83710332Y-102022880D01*
X83061488Y-101589336D01*
X82888922Y-101517857D01*
X82817443Y-101488249D01*
X82597000Y-101444400D01*
X82597000Y-97906981D01*
X82615841Y-97919570D01*
X83181064Y-98032000D01*
X83238936Y-98032000D01*
X83804159Y-97919570D01*
X84283333Y-97599397D01*
X84294227Y-97583092D01*
X84304437Y-97637352D01*
X84441757Y-97850753D01*
X84651283Y-97993917D01*
X84900000Y-98044283D01*
X86600000Y-98044283D01*
X86832352Y-98000563D01*
X87045753Y-97863243D01*
X87188917Y-97653717D01*
X87239283Y-97405000D01*
X87239283Y-95705000D01*
X87195563Y-95472648D01*
X87058243Y-95259247D01*
X86848717Y-95116083D01*
X86764131Y-95098954D01*
X86823333Y-95059397D01*
X87143506Y-94580223D01*
X87255936Y-94015000D01*
X87143506Y-93449777D01*
X86823333Y-92970603D01*
X86485693Y-92745000D01*
X86823333Y-92519397D01*
X87143506Y-92040223D01*
X87255936Y-91475000D01*
X87143506Y-90909777D01*
X86823333Y-90430603D01*
X86485693Y-90205000D01*
X86823333Y-89979397D01*
X87143506Y-89500223D01*
X87255936Y-88935000D01*
X87143506Y-88369777D01*
X86823333Y-87890603D01*
X86578483Y-87727000D01*
X93171010Y-87727000D01*
X92442868Y-88027862D01*
X91506151Y-88962945D01*
X90998579Y-90185315D01*
X90997424Y-91508878D01*
X91502862Y-92732132D01*
X92437945Y-93668849D01*
X93660315Y-94176421D01*
X94983878Y-94177576D01*
X96207132Y-93672138D01*
X97143849Y-92737055D01*
X97651421Y-91514685D01*
X97652576Y-90191122D01*
X97147138Y-88967868D01*
X96212055Y-88031151D01*
X95479578Y-87727000D01*
X97103866Y-87727000D01*
X103098000Y-93721134D01*
X103098000Y-97229995D01*
X103097999Y-97230000D01*
X103132810Y-97405000D01*
X103153340Y-97508211D01*
X103310933Y-97744067D01*
X105080933Y-99514067D01*
X105316789Y-99671660D01*
X105362948Y-99680842D01*
X105595000Y-99727001D01*
X105595005Y-99727000D01*
X111948866Y-99727000D01*
X116773000Y-104551133D01*
X116773000Y-111749995D01*
X116772999Y-111750000D01*
X116814656Y-111959417D01*
X116828340Y-112028211D01*
X116956765Y-112220414D01*
X116985933Y-112264067D01*
X119735931Y-115014064D01*
X119735933Y-115014067D01*
X119971789Y-115171660D01*
X120250000Y-115227000D01*
X131249995Y-115227000D01*
X131250000Y-115227001D01*
X131482052Y-115180842D01*
X131528211Y-115171660D01*
X131764067Y-115014067D01*
X131764068Y-115014066D01*
X132234550Y-114543583D01*
X136402839Y-114543583D01*
X136543669Y-114884417D01*
X136804211Y-115145414D01*
X137144799Y-115286839D01*
X137513583Y-115287161D01*
X137854417Y-115146331D01*
X138115414Y-114885789D01*
X138215987Y-114643583D01*
X138827839Y-114643583D01*
X138968669Y-114984417D01*
X139229211Y-115245414D01*
X139569799Y-115386839D01*
X139938583Y-115387161D01*
X140279417Y-115246331D01*
X140540414Y-114985789D01*
X140681839Y-114645201D01*
X140681840Y-114643583D01*
X141802839Y-114643583D01*
X141943669Y-114984417D01*
X142204211Y-115245414D01*
X142544799Y-115386839D01*
X142913583Y-115387161D01*
X143254417Y-115246331D01*
X143515414Y-114985789D01*
X143577618Y-114835985D01*
X147707610Y-114835985D01*
X148049734Y-115663989D01*
X148682679Y-116298039D01*
X149510084Y-116641608D01*
X150405985Y-116642390D01*
X151233989Y-116300266D01*
X151868039Y-115667321D01*
X152211608Y-114839916D01*
X152211611Y-114835985D01*
X159137610Y-114835985D01*
X159479734Y-115663989D01*
X160112679Y-116298039D01*
X160940084Y-116641608D01*
X161835985Y-116642390D01*
X162663989Y-116300266D01*
X163298039Y-115667321D01*
X163641608Y-114839916D01*
X163641642Y-114800000D01*
X165043000Y-114800000D01*
X165216326Y-115671370D01*
X165709918Y-116410082D01*
X166448630Y-116903674D01*
X167320000Y-117077000D01*
X168191370Y-116903674D01*
X168930082Y-116410082D01*
X169423674Y-115671370D01*
X169597000Y-114800000D01*
X169423674Y-113928630D01*
X168930082Y-113189918D01*
X168191370Y-112696326D01*
X167320000Y-112523000D01*
X166448630Y-112696326D01*
X165709918Y-113189918D01*
X165216326Y-113928630D01*
X165043000Y-114800000D01*
X163641642Y-114800000D01*
X163642390Y-113944015D01*
X163300266Y-113116011D01*
X162667321Y-112481961D01*
X161839916Y-112138392D01*
X160944015Y-112137610D01*
X160116011Y-112479734D01*
X159481961Y-113112679D01*
X159138392Y-113940084D01*
X159137610Y-114835985D01*
X152211611Y-114835985D01*
X152212390Y-113944015D01*
X151870266Y-113116011D01*
X151237321Y-112481961D01*
X150409916Y-112138392D01*
X149514015Y-112137610D01*
X148686011Y-112479734D01*
X148051961Y-113112679D01*
X147708392Y-113940084D01*
X147707610Y-114835985D01*
X143577618Y-114835985D01*
X143656839Y-114645201D01*
X143657161Y-114276417D01*
X143516331Y-113935583D01*
X143255789Y-113674586D01*
X142915201Y-113533161D01*
X142546417Y-113532839D01*
X142205583Y-113673669D01*
X141944586Y-113934211D01*
X141803161Y-114274799D01*
X141802839Y-114643583D01*
X140681840Y-114643583D01*
X140682161Y-114276417D01*
X140541331Y-113935583D01*
X140280789Y-113674586D01*
X139940201Y-113533161D01*
X139571417Y-113532839D01*
X139230583Y-113673669D01*
X138969586Y-113934211D01*
X138828161Y-114274799D01*
X138827839Y-114643583D01*
X138215987Y-114643583D01*
X138256839Y-114545201D01*
X138257161Y-114176417D01*
X138116331Y-113835583D01*
X137855789Y-113574586D01*
X137515201Y-113433161D01*
X137146417Y-113432839D01*
X136805583Y-113573669D01*
X136544586Y-113834211D01*
X136403161Y-114174799D01*
X136402839Y-114543583D01*
X132234550Y-114543583D01*
X135159550Y-111618583D01*
X136152839Y-111618583D01*
X136293669Y-111959417D01*
X136554211Y-112220414D01*
X136894799Y-112361839D01*
X137263583Y-112362161D01*
X137604417Y-112221331D01*
X137865414Y-111960789D01*
X137986748Y-111668583D01*
X141752839Y-111668583D01*
X141893669Y-112009417D01*
X142154211Y-112270414D01*
X142494799Y-112411839D01*
X142863583Y-112412161D01*
X143204417Y-112271331D01*
X143465414Y-112010789D01*
X143606839Y-111670201D01*
X143607161Y-111301417D01*
X143466331Y-110960583D01*
X143205789Y-110699586D01*
X142865201Y-110558161D01*
X142496417Y-110557839D01*
X142155583Y-110698669D01*
X141894586Y-110959211D01*
X141753161Y-111299799D01*
X141752839Y-111668583D01*
X137986748Y-111668583D01*
X138006839Y-111620201D01*
X138007161Y-111251417D01*
X137866331Y-110910583D01*
X137605789Y-110649586D01*
X137265201Y-110508161D01*
X136896417Y-110507839D01*
X136555583Y-110648669D01*
X136294586Y-110909211D01*
X136153161Y-111249799D01*
X136152839Y-111618583D01*
X135159550Y-111618583D01*
X138465432Y-108312701D01*
X149852762Y-108312701D01*
X150061956Y-108818989D01*
X150448974Y-109206683D01*
X150954896Y-109416760D01*
X151502701Y-109417238D01*
X152008989Y-109208044D01*
X152396683Y-108821026D01*
X152499995Y-108572224D01*
X152601956Y-108818989D01*
X152988974Y-109206683D01*
X153494896Y-109416760D01*
X154042701Y-109417238D01*
X154548989Y-109208044D01*
X154936683Y-108821026D01*
X155039995Y-108572224D01*
X155141956Y-108818989D01*
X155528974Y-109206683D01*
X156034896Y-109416760D01*
X156582701Y-109417238D01*
X157088989Y-109208044D01*
X157476683Y-108821026D01*
X157579995Y-108572224D01*
X157681956Y-108818989D01*
X158068974Y-109206683D01*
X158574896Y-109416760D01*
X159122701Y-109417238D01*
X159628989Y-109208044D01*
X160016683Y-108821026D01*
X160226760Y-108315104D01*
X160227238Y-107767299D01*
X160018044Y-107261011D01*
X159631026Y-106873317D01*
X159125104Y-106663240D01*
X158577299Y-106662762D01*
X158071011Y-106871956D01*
X157683317Y-107258974D01*
X157580005Y-107507776D01*
X157478044Y-107261011D01*
X157091026Y-106873317D01*
X156585104Y-106663240D01*
X156037299Y-106662762D01*
X155531011Y-106871956D01*
X155143317Y-107258974D01*
X155040005Y-107507776D01*
X154938044Y-107261011D01*
X154551026Y-106873317D01*
X154045104Y-106663240D01*
X153497299Y-106662762D01*
X152991011Y-106871956D01*
X152603317Y-107258974D01*
X152500005Y-107507776D01*
X152398044Y-107261011D01*
X152011026Y-106873317D01*
X151505104Y-106663240D01*
X150957299Y-106662762D01*
X150451011Y-106871956D01*
X150063317Y-107258974D01*
X149853240Y-107764896D01*
X149852762Y-108312701D01*
X138465432Y-108312701D01*
X139744064Y-107034069D01*
X139744067Y-107034067D01*
X139901660Y-106798211D01*
X139957000Y-106520000D01*
X139957000Y-105772701D01*
X148582762Y-105772701D01*
X148791956Y-106278989D01*
X149178974Y-106666683D01*
X149684896Y-106876760D01*
X150232701Y-106877238D01*
X150738989Y-106668044D01*
X151126683Y-106281026D01*
X151229995Y-106032224D01*
X151331956Y-106278989D01*
X151718974Y-106666683D01*
X152224896Y-106876760D01*
X152772701Y-106877238D01*
X153278989Y-106668044D01*
X153666683Y-106281026D01*
X153876760Y-105775104D01*
X153876762Y-105772701D01*
X156202762Y-105772701D01*
X156411956Y-106278989D01*
X156798974Y-106666683D01*
X157304896Y-106876760D01*
X157852701Y-106877238D01*
X158358989Y-106668044D01*
X158746683Y-106281026D01*
X158849995Y-106032224D01*
X158951956Y-106278989D01*
X159338974Y-106666683D01*
X159844896Y-106876760D01*
X160392701Y-106877238D01*
X160898989Y-106668044D01*
X161286683Y-106281026D01*
X161496760Y-105775104D01*
X161497238Y-105227299D01*
X161288044Y-104721011D01*
X160901026Y-104333317D01*
X160395104Y-104123240D01*
X159847299Y-104122762D01*
X159341011Y-104331956D01*
X158953317Y-104718974D01*
X158850005Y-104967776D01*
X158748044Y-104721011D01*
X158361026Y-104333317D01*
X157855104Y-104123240D01*
X157307299Y-104122762D01*
X156801011Y-104331956D01*
X156413317Y-104718974D01*
X156203240Y-105224896D01*
X156202762Y-105772701D01*
X153876762Y-105772701D01*
X153877238Y-105227299D01*
X153668044Y-104721011D01*
X153281026Y-104333317D01*
X152775104Y-104123240D01*
X152227299Y-104122762D01*
X151721011Y-104331956D01*
X151333317Y-104718974D01*
X151230005Y-104967776D01*
X151128044Y-104721011D01*
X150741026Y-104333317D01*
X150235104Y-104123240D01*
X149687299Y-104122762D01*
X149181011Y-104331956D01*
X148793317Y-104718974D01*
X148583240Y-105224896D01*
X148582762Y-105772701D01*
X139957000Y-105772701D01*
X139957000Y-105344101D01*
X140015414Y-105285789D01*
X140065787Y-105164479D01*
X140150129Y-105080136D01*
X140150132Y-105080134D01*
X140340241Y-104795614D01*
X140366423Y-104663991D01*
X140407000Y-104460001D01*
X140406999Y-104459996D01*
X140406999Y-100957553D01*
X148507749Y-100957553D01*
X148728337Y-101491417D01*
X149136434Y-101900228D01*
X149669912Y-102121747D01*
X150247553Y-102122251D01*
X150781417Y-101901663D01*
X151190228Y-101493566D01*
X151229824Y-101398208D01*
X151268337Y-101491417D01*
X151676434Y-101900228D01*
X152209912Y-102121747D01*
X152787553Y-102122251D01*
X153321417Y-101901663D01*
X153730228Y-101493566D01*
X153951747Y-100960088D01*
X153951749Y-100957553D01*
X157147749Y-100957553D01*
X157368337Y-101491417D01*
X157776434Y-101900228D01*
X158309912Y-102121747D01*
X158887553Y-102122251D01*
X159421417Y-101901663D01*
X159830228Y-101493566D01*
X159869824Y-101398208D01*
X159908337Y-101491417D01*
X160316434Y-101900228D01*
X160849912Y-102121747D01*
X161427553Y-102122251D01*
X161961417Y-101901663D01*
X162370228Y-101493566D01*
X162591747Y-100960088D01*
X162592251Y-100382447D01*
X162371663Y-99848583D01*
X161963566Y-99439772D01*
X161430088Y-99218253D01*
X160852447Y-99217749D01*
X160318583Y-99438337D01*
X159909772Y-99846434D01*
X159870176Y-99941792D01*
X159831663Y-99848583D01*
X159423566Y-99439772D01*
X158890088Y-99218253D01*
X158312447Y-99217749D01*
X157778583Y-99438337D01*
X157369772Y-99846434D01*
X157148253Y-100379912D01*
X157147749Y-100957553D01*
X153951749Y-100957553D01*
X153952251Y-100382447D01*
X153731663Y-99848583D01*
X153323566Y-99439772D01*
X152790088Y-99218253D01*
X152212447Y-99217749D01*
X151678583Y-99438337D01*
X151269772Y-99846434D01*
X151230176Y-99941792D01*
X151191663Y-99848583D01*
X150783566Y-99439772D01*
X150250088Y-99218253D01*
X149672447Y-99217749D01*
X149138583Y-99438337D01*
X148729772Y-99846434D01*
X148508253Y-100379912D01*
X148507749Y-100957553D01*
X140406999Y-100957553D01*
X140406999Y-92433267D01*
X149663266Y-83177000D01*
X153644774Y-83177000D01*
X153764799Y-83226839D01*
X154133583Y-83227161D01*
X154474417Y-83086331D01*
X154735414Y-82825789D01*
X154876839Y-82485201D01*
X154877161Y-82116417D01*
X154736331Y-81775583D01*
X154475789Y-81514586D01*
X154135201Y-81373161D01*
X153766417Y-81372839D01*
X153645018Y-81423000D01*
X153577000Y-81423000D01*
X153577000Y-81003583D01*
X163152839Y-81003583D01*
X163293669Y-81344417D01*
X163554211Y-81605414D01*
X163894799Y-81746839D01*
X164263583Y-81747161D01*
X164604417Y-81606331D01*
X164865414Y-81345789D01*
X165006839Y-81005201D01*
X165007161Y-80636417D01*
X164866331Y-80295583D01*
X164605789Y-80034586D01*
X164265201Y-79893161D01*
X163896417Y-79892839D01*
X163555583Y-80033669D01*
X163294586Y-80294211D01*
X163153161Y-80634799D01*
X163152839Y-81003583D01*
X153577000Y-81003583D01*
X153577000Y-80786488D01*
X155636488Y-78727000D01*
X163475000Y-78727000D01*
X163762778Y-78669757D01*
X163916424Y-78567094D01*
X163993583Y-78567161D01*
X164334417Y-78426331D01*
X164595414Y-78165789D01*
X164736839Y-77825201D01*
X164737161Y-77456417D01*
X164596331Y-77115583D01*
X164335789Y-76854586D01*
X163995201Y-76713161D01*
X163626417Y-76712839D01*
X163285583Y-76853669D01*
X163251192Y-76888000D01*
X162251489Y-76888000D01*
X161252000Y-75888512D01*
X161252000Y-73533583D01*
X167362839Y-73533583D01*
X167452307Y-73750112D01*
X167363161Y-73964799D01*
X167362839Y-74333583D01*
X167503669Y-74674417D01*
X167764211Y-74935414D01*
X168104799Y-75076839D01*
X168473583Y-75077161D01*
X168814417Y-74936331D01*
X169075414Y-74675789D01*
X169216839Y-74335201D01*
X169217161Y-73966417D01*
X169127693Y-73749888D01*
X169216839Y-73535201D01*
X169217161Y-73166417D01*
X169076331Y-72825583D01*
X168815789Y-72564586D01*
X168475201Y-72423161D01*
X168106417Y-72422839D01*
X167765583Y-72563669D01*
X167504586Y-72824211D01*
X167363161Y-73164799D01*
X167362839Y-73533583D01*
X161252000Y-73533583D01*
X161252000Y-71959145D01*
X161285414Y-71925789D01*
X161426839Y-71585201D01*
X161427161Y-71216417D01*
X161286331Y-70875583D01*
X161025789Y-70614586D01*
X160685201Y-70473161D01*
X160316417Y-70472839D01*
X159975583Y-70613669D01*
X159714586Y-70874211D01*
X159573161Y-71214799D01*
X159572839Y-71583583D01*
X159713669Y-71924417D01*
X159748000Y-71958808D01*
X159748000Y-76200000D01*
X159805243Y-76487778D01*
X159968256Y-76731744D01*
X160459512Y-77223000D01*
X155325000Y-77223000D01*
X155037222Y-77280243D01*
X154793256Y-77443256D01*
X153577000Y-78659512D01*
X153577000Y-70367682D01*
X167702839Y-70367682D01*
X167792307Y-70584211D01*
X167703161Y-70798898D01*
X167702839Y-71167682D01*
X167843669Y-71508516D01*
X168104211Y-71769513D01*
X168444799Y-71910938D01*
X168813583Y-71911260D01*
X169154417Y-71770430D01*
X169415414Y-71509888D01*
X169556839Y-71169300D01*
X169557161Y-70800516D01*
X169467693Y-70583987D01*
X169556839Y-70369300D01*
X169557161Y-70000516D01*
X169416331Y-69659682D01*
X169155789Y-69398685D01*
X168815201Y-69257260D01*
X168446417Y-69256938D01*
X168105583Y-69397768D01*
X167844586Y-69658310D01*
X167703161Y-69998898D01*
X167702839Y-70367682D01*
X153577000Y-70367682D01*
X153577000Y-60961488D01*
X154861368Y-59677120D01*
X154908583Y-59677161D01*
X155249417Y-59536331D01*
X155510414Y-59275789D01*
X155602682Y-59053583D01*
X159397839Y-59053583D01*
X159538669Y-59394417D01*
X159799211Y-59655414D01*
X160139799Y-59796839D01*
X160508583Y-59797161D01*
X160849417Y-59656331D01*
X161110414Y-59395789D01*
X161251839Y-59055201D01*
X161252161Y-58686417D01*
X161111331Y-58345583D01*
X160850789Y-58084586D01*
X160510201Y-57943161D01*
X160141417Y-57942839D01*
X159800583Y-58083669D01*
X159539586Y-58344211D01*
X159398161Y-58684799D01*
X159397839Y-59053583D01*
X155602682Y-59053583D01*
X155651839Y-58935201D01*
X155652161Y-58566417D01*
X155511331Y-58225583D01*
X155250789Y-57964586D01*
X154910201Y-57823161D01*
X154541417Y-57822839D01*
X154200583Y-57963669D01*
X153939586Y-58224211D01*
X153798161Y-58564799D01*
X153798119Y-58613393D01*
X152293256Y-60118256D01*
X152130243Y-60362222D01*
X152073000Y-60650000D01*
X152073000Y-78247252D01*
X151917260Y-78182583D01*
X151828489Y-77967741D01*
X151567947Y-77706744D01*
X151227359Y-77565319D01*
X150858575Y-77564997D01*
X150517741Y-77705827D01*
X150256744Y-77966369D01*
X150115319Y-78306957D01*
X150114997Y-78675741D01*
X150255827Y-79016575D01*
X150516369Y-79277572D01*
X150732740Y-79367417D01*
X150821511Y-79582259D01*
X151082053Y-79843256D01*
X151422641Y-79984681D01*
X151791425Y-79985003D01*
X152073000Y-79868658D01*
X152073000Y-81423000D01*
X149300005Y-81423000D01*
X149300000Y-81422999D01*
X148964387Y-81489758D01*
X148679867Y-81679867D01*
X138909866Y-91449868D01*
X138719757Y-91734388D01*
X138652999Y-92070001D01*
X138652999Y-104026161D01*
X138444586Y-104234211D01*
X138303161Y-104574799D01*
X138302839Y-104943583D01*
X138443669Y-105284417D01*
X138503000Y-105343852D01*
X138503000Y-106218867D01*
X130948866Y-113773000D01*
X126125086Y-113773000D01*
X126196839Y-113600201D01*
X126197161Y-113231417D01*
X126056331Y-112890583D01*
X125795789Y-112629586D01*
X125455201Y-112488161D01*
X125086417Y-112487839D01*
X124745583Y-112628669D01*
X124484586Y-112889211D01*
X124343161Y-113229799D01*
X124342839Y-113598583D01*
X124414907Y-113773000D01*
X120551133Y-113773000D01*
X118227000Y-111448866D01*
X118227000Y-104250000D01*
X118171660Y-103971789D01*
X118014067Y-103735933D01*
X118014064Y-103735931D01*
X112764067Y-98485933D01*
X112528211Y-98328340D01*
X112482052Y-98319158D01*
X112250000Y-98272999D01*
X112249995Y-98273000D01*
X105896134Y-98273000D01*
X104552000Y-96928866D01*
X104552000Y-93420000D01*
X104496660Y-93141789D01*
X104339067Y-92905933D01*
X97919067Y-86485933D01*
X97683211Y-86328340D01*
X97637052Y-86319158D01*
X97405000Y-86272999D01*
X97404995Y-86273000D01*
X87200200Y-86273000D01*
X87239283Y-86080000D01*
X87239283Y-84380000D01*
X87195563Y-84147648D01*
X87058243Y-83934247D01*
X86848717Y-83791083D01*
X86764131Y-83773954D01*
X86823333Y-83734397D01*
X87143506Y-83255223D01*
X87255936Y-82690000D01*
X87143506Y-82124777D01*
X86823333Y-81645603D01*
X86485693Y-81420000D01*
X86823333Y-81194397D01*
X87143506Y-80715223D01*
X87255936Y-80150000D01*
X87143506Y-79584777D01*
X86823333Y-79105603D01*
X86344159Y-78785430D01*
X85778936Y-78673000D01*
X85721064Y-78673000D01*
X85155841Y-78785430D01*
X84676667Y-79105603D01*
X84356494Y-79584777D01*
X84244064Y-80150000D01*
X84356494Y-80715223D01*
X84676667Y-81194397D01*
X85014307Y-81420000D01*
X84676667Y-81645603D01*
X84480000Y-81939937D01*
X84283333Y-81645603D01*
X83804159Y-81325430D01*
X83238936Y-81213000D01*
X83181064Y-81213000D01*
X82615841Y-81325430D01*
X82597000Y-81338019D01*
X82597000Y-77555600D01*
X82817443Y-77511751D01*
X82888922Y-77482143D01*
X83061488Y-77410664D01*
X83710332Y-76977120D01*
X83710335Y-76977119D01*
X83897119Y-76790335D01*
X84330664Y-76141488D01*
X84373491Y-76038093D01*
X84431751Y-75897443D01*
X84583992Y-75132077D01*
X84583992Y-75065396D01*
X84597000Y-75000000D01*
X84597000Y-72279997D01*
X84626667Y-72324397D01*
X85105841Y-72644570D01*
X85671064Y-72757000D01*
X85728936Y-72757000D01*
X86294159Y-72644570D01*
X86773333Y-72324397D01*
X87093506Y-71845223D01*
X87205936Y-71280000D01*
X87093506Y-70714777D01*
X86773333Y-70235603D01*
X86695480Y-70183583D01*
X96572839Y-70183583D01*
X96713669Y-70524417D01*
X96974211Y-70785414D01*
X97314799Y-70926839D01*
X97683583Y-70927161D01*
X98024417Y-70786331D01*
X98285414Y-70525789D01*
X98426839Y-70185201D01*
X98427161Y-69816417D01*
X98286331Y-69475583D01*
X98025789Y-69214586D01*
X97685201Y-69073161D01*
X97316417Y-69072839D01*
X96975583Y-69213669D01*
X96714586Y-69474211D01*
X96573161Y-69814799D01*
X96572839Y-70183583D01*
X86695480Y-70183583D01*
X86435693Y-70010000D01*
X86773333Y-69784397D01*
X87093506Y-69305223D01*
X87205936Y-68740000D01*
X87093506Y-68174777D01*
X86773333Y-67695603D01*
X86294159Y-67375430D01*
X85728936Y-67263000D01*
X85671064Y-67263000D01*
X85105841Y-67375430D01*
X84626667Y-67695603D01*
X84402284Y-68031417D01*
X84369238Y-67951638D01*
X84330664Y-67858512D01*
X83897119Y-67209665D01*
X83710335Y-67022881D01*
X83710332Y-67022880D01*
X83061488Y-66589336D01*
X82873792Y-66511590D01*
X82817443Y-66488249D01*
X82597000Y-66444400D01*
X82597000Y-55380000D01*
X84004064Y-55380000D01*
X84116494Y-55945223D01*
X84436667Y-56424397D01*
X84774307Y-56650000D01*
X84436667Y-56875603D01*
X84116494Y-57354777D01*
X84004064Y-57920000D01*
X84116494Y-58485223D01*
X84436667Y-58964397D01*
X84774307Y-59190000D01*
X84436667Y-59415603D01*
X84116494Y-59894777D01*
X84004064Y-60460000D01*
X84116494Y-61025223D01*
X84436667Y-61504397D01*
X84774307Y-61730000D01*
X84436667Y-61955603D01*
X84116494Y-62434777D01*
X84004064Y-63000000D01*
X84116494Y-63565223D01*
X84436667Y-64044397D01*
X84493120Y-64082118D01*
X84427648Y-64094437D01*
X84214247Y-64231757D01*
X84071083Y-64441283D01*
X84020717Y-64690000D01*
X84020717Y-66390000D01*
X84064437Y-66622352D01*
X84201757Y-66835753D01*
X84411283Y-66978917D01*
X84660000Y-67029283D01*
X86360000Y-67029283D01*
X86592352Y-66985563D01*
X86805753Y-66848243D01*
X86948917Y-66638717D01*
X86999283Y-66390000D01*
X86999283Y-64690000D01*
X86955563Y-64457648D01*
X86818243Y-64244247D01*
X86608717Y-64101083D01*
X86524131Y-64083954D01*
X86583333Y-64044397D01*
X86903506Y-63565223D01*
X87015936Y-63000000D01*
X86903506Y-62434777D01*
X86583333Y-61955603D01*
X86245693Y-61730000D01*
X86583333Y-61504397D01*
X86903506Y-61025223D01*
X87015936Y-60460000D01*
X86903506Y-59894777D01*
X86583333Y-59415603D01*
X86245693Y-59190000D01*
X86583333Y-58964397D01*
X86903506Y-58485223D01*
X87015936Y-57920000D01*
X86903506Y-57354777D01*
X86583333Y-56875603D01*
X86245693Y-56650000D01*
X86583333Y-56424397D01*
X86903506Y-55945223D01*
X87015936Y-55380000D01*
X86903506Y-54814777D01*
X86583333Y-54335603D01*
X86104159Y-54015430D01*
X85538936Y-53903000D01*
X85481064Y-53903000D01*
X84915841Y-54015430D01*
X84436667Y-54335603D01*
X84116494Y-54814777D01*
X84004064Y-55380000D01*
X82597000Y-55380000D01*
X82597000Y-47533583D01*
X85997839Y-47533583D01*
X86138669Y-47874417D01*
X86399211Y-48135414D01*
X86739799Y-48276839D01*
X87108583Y-48277161D01*
X87449417Y-48136331D01*
X87710414Y-47875789D01*
X87851839Y-47535201D01*
X87852161Y-47166417D01*
X87714637Y-46833583D01*
X93792839Y-46833583D01*
X93933669Y-47174417D01*
X94194211Y-47435414D01*
X94534799Y-47576839D01*
X94569648Y-47576869D01*
X94663669Y-47804417D01*
X94924211Y-48065414D01*
X95264799Y-48206839D01*
X95633583Y-48207161D01*
X95974417Y-48066331D01*
X96235414Y-47805789D01*
X96376839Y-47465201D01*
X96377161Y-47096417D01*
X96236331Y-46755583D01*
X95975789Y-46494586D01*
X95635201Y-46353161D01*
X95600352Y-46353131D01*
X95515475Y-46147713D01*
X98392038Y-46147713D01*
X98620419Y-46700438D01*
X99042935Y-47123692D01*
X99595261Y-47353038D01*
X100193311Y-47353560D01*
X100746036Y-47125179D01*
X101169290Y-46702663D01*
X101398636Y-46150337D01*
X101399072Y-45650000D01*
X101872999Y-45650000D01*
X101958787Y-46081284D01*
X102203090Y-46446909D01*
X104746268Y-48990088D01*
X104495583Y-49093669D01*
X104234586Y-49354211D01*
X104093161Y-49694799D01*
X104092839Y-50063583D01*
X104233669Y-50404417D01*
X104494211Y-50665414D01*
X104834799Y-50806839D01*
X105203583Y-50807161D01*
X105544417Y-50666331D01*
X105805414Y-50405789D01*
X105910029Y-50153849D01*
X107098000Y-51341820D01*
X107098000Y-96525000D01*
X107183788Y-96956284D01*
X107428091Y-97321909D01*
X107793716Y-97566212D01*
X108225000Y-97652000D01*
X108656284Y-97566212D01*
X109021909Y-97321909D01*
X109266212Y-96956284D01*
X109352000Y-96525000D01*
X109352000Y-53683583D01*
X111572839Y-53683583D01*
X111713669Y-54024417D01*
X111974211Y-54285414D01*
X112314799Y-54426839D01*
X112683583Y-54427161D01*
X113024417Y-54286331D01*
X113285414Y-54025789D01*
X113426839Y-53685201D01*
X113427161Y-53316417D01*
X113286331Y-52975583D01*
X113025789Y-52714586D01*
X112685201Y-52573161D01*
X112316417Y-52572839D01*
X111975583Y-52713669D01*
X111714586Y-52974211D01*
X111573161Y-53314799D01*
X111572839Y-53683583D01*
X109352000Y-53683583D01*
X109352000Y-51912990D01*
X109474211Y-52035414D01*
X109814799Y-52176839D01*
X110183583Y-52177161D01*
X110524417Y-52036331D01*
X110785414Y-51775789D01*
X110791436Y-51761287D01*
X110900159Y-52024417D01*
X111160701Y-52285414D01*
X111501289Y-52426839D01*
X111870073Y-52427161D01*
X112210907Y-52286331D01*
X112471904Y-52025789D01*
X112613329Y-51685201D01*
X112613651Y-51316417D01*
X112472821Y-50975583D01*
X112212279Y-50714586D01*
X111871691Y-50573161D01*
X111502907Y-50572839D01*
X111162073Y-50713669D01*
X110901076Y-50974211D01*
X110895054Y-50988713D01*
X110786331Y-50725583D01*
X110525789Y-50464586D01*
X110185201Y-50323161D01*
X109816417Y-50322839D01*
X109475583Y-50463669D01*
X109304210Y-50634744D01*
X109266212Y-50443717D01*
X109185444Y-50322839D01*
X109021909Y-50078091D01*
X103796908Y-44853091D01*
X103431283Y-44608788D01*
X102999999Y-44523000D01*
X102568715Y-44608788D01*
X102203090Y-44853091D01*
X101958787Y-45218716D01*
X101872999Y-45650000D01*
X101399072Y-45650000D01*
X101399158Y-45552287D01*
X101170777Y-44999562D01*
X100748261Y-44576308D01*
X100195935Y-44346962D01*
X99597885Y-44346440D01*
X99045160Y-44574821D01*
X98621906Y-44997337D01*
X98392560Y-45549663D01*
X98392038Y-46147713D01*
X95515475Y-46147713D01*
X95506331Y-46125583D01*
X95245789Y-45864586D01*
X94905201Y-45723161D01*
X94536417Y-45722839D01*
X94195583Y-45863669D01*
X93934586Y-46124211D01*
X93793161Y-46464799D01*
X93792839Y-46833583D01*
X87714637Y-46833583D01*
X87711331Y-46825583D01*
X87450789Y-46564586D01*
X87110201Y-46423161D01*
X86741417Y-46422839D01*
X86400583Y-46563669D01*
X86139586Y-46824211D01*
X85998161Y-47164799D01*
X85997839Y-47533583D01*
X82597000Y-47533583D01*
X82597000Y-46063583D01*
X90922839Y-46063583D01*
X91063669Y-46404417D01*
X91324211Y-46665414D01*
X91664799Y-46806839D01*
X92033583Y-46807161D01*
X92374417Y-46666331D01*
X92635414Y-46405789D01*
X92776839Y-46065201D01*
X92777161Y-45696417D01*
X92636331Y-45355583D01*
X92375789Y-45094586D01*
X92035201Y-44953161D01*
X91666417Y-44952839D01*
X91325583Y-45093669D01*
X91064586Y-45354211D01*
X90923161Y-45694799D01*
X90922839Y-46063583D01*
X82597000Y-46063583D01*
X82597000Y-42473583D01*
X92412839Y-42473583D01*
X92553669Y-42814417D01*
X92814211Y-43075414D01*
X93154799Y-43216839D01*
X93523583Y-43217161D01*
X93864417Y-43076331D01*
X94125414Y-42815789D01*
X94266839Y-42475201D01*
X94267161Y-42106417D01*
X94126331Y-41765583D01*
X93865789Y-41504586D01*
X93525201Y-41363161D01*
X93156417Y-41362839D01*
X92815583Y-41503669D01*
X92554586Y-41764211D01*
X92413161Y-42104799D01*
X92412839Y-42473583D01*
X82597000Y-42473583D01*
X82597000Y-38433583D01*
X82822839Y-38433583D01*
X82963669Y-38774417D01*
X83224211Y-39035414D01*
X83564799Y-39176839D01*
X83933583Y-39177161D01*
X84274417Y-39036331D01*
X84535414Y-38775789D01*
X84676839Y-38435201D01*
X84677161Y-38066417D01*
X84536331Y-37725583D01*
X84275789Y-37464586D01*
X83935201Y-37323161D01*
X83566417Y-37322839D01*
X83225583Y-37463669D01*
X82964586Y-37724211D01*
X82823161Y-38064799D01*
X82822839Y-38433583D01*
X82597000Y-38433583D01*
X82597000Y-37555600D01*
X82817443Y-37511751D01*
X82888922Y-37482143D01*
X83061488Y-37410664D01*
X83710332Y-36977120D01*
X83710335Y-36977119D01*
X83897119Y-36790335D01*
X84035266Y-36583583D01*
X86747839Y-36583583D01*
X86888669Y-36924417D01*
X87149211Y-37185414D01*
X87489799Y-37326839D01*
X87858583Y-37327161D01*
X88199417Y-37186331D01*
X88460414Y-36925789D01*
X88601839Y-36585201D01*
X88601913Y-36500000D01*
X90048000Y-36500000D01*
X90133788Y-36931284D01*
X90378091Y-37296909D01*
X90678090Y-37596909D01*
X90678093Y-37596911D01*
X93603091Y-40521909D01*
X93968716Y-40766212D01*
X94400000Y-40852000D01*
X105778180Y-40852000D01*
X109089297Y-44163117D01*
X109086900Y-44165510D01*
X108871691Y-44076147D01*
X108502907Y-44075825D01*
X108162073Y-44216655D01*
X108128712Y-44249958D01*
X107948664Y-44069596D01*
X107608076Y-43928171D01*
X107239292Y-43927849D01*
X106898458Y-44068679D01*
X106637461Y-44329221D01*
X106496036Y-44669809D01*
X106495714Y-45038593D01*
X106636544Y-45379427D01*
X106897086Y-45640424D01*
X107237674Y-45781849D01*
X107606458Y-45782171D01*
X107947292Y-45641341D01*
X107980653Y-45608038D01*
X108160701Y-45788400D01*
X108501289Y-45929825D01*
X108806846Y-45930092D01*
X108725583Y-45963669D01*
X108464586Y-46224211D01*
X108323161Y-46564799D01*
X108322839Y-46933583D01*
X108463669Y-47274417D01*
X108724211Y-47535414D01*
X109064799Y-47676839D01*
X109433583Y-47677161D01*
X109774417Y-47536331D01*
X110035414Y-47275789D01*
X110176839Y-46935201D01*
X110177161Y-46566417D01*
X110122075Y-46433100D01*
X110224211Y-46535414D01*
X110564799Y-46676839D01*
X110933583Y-46677161D01*
X111274417Y-46536331D01*
X111368546Y-46442366D01*
X112613000Y-47686821D01*
X112613000Y-50010000D01*
X112698788Y-50441284D01*
X112943091Y-50806909D01*
X113243090Y-51106909D01*
X113243093Y-51106911D01*
X120568999Y-58432817D01*
X120568999Y-106215999D01*
X120654787Y-106647283D01*
X120665329Y-106663061D01*
X120411417Y-106662839D01*
X120070583Y-106803669D01*
X119809586Y-107064211D01*
X119668161Y-107404799D01*
X119667839Y-107773583D01*
X119808669Y-108114417D01*
X120069211Y-108375414D01*
X120409799Y-108516839D01*
X120778583Y-108517161D01*
X121119417Y-108376331D01*
X121380414Y-108115789D01*
X121521839Y-107775201D01*
X121521961Y-107635779D01*
X125398090Y-111511909D01*
X125763716Y-111756212D01*
X126195000Y-111841999D01*
X126626284Y-111756212D01*
X126991909Y-111511909D01*
X127236212Y-111146284D01*
X127321999Y-110715000D01*
X127236212Y-110283716D01*
X126991909Y-109918090D01*
X124117402Y-107043583D01*
X135477839Y-107043583D01*
X135618669Y-107384417D01*
X135879211Y-107645414D01*
X136219799Y-107786839D01*
X136588583Y-107787161D01*
X136929417Y-107646331D01*
X137190414Y-107385789D01*
X137331839Y-107045201D01*
X137332161Y-106676417D01*
X137191331Y-106335583D01*
X136930789Y-106074586D01*
X136590201Y-105933161D01*
X136221417Y-105932839D01*
X135880583Y-106073669D01*
X135619586Y-106334211D01*
X135478161Y-106674799D01*
X135477839Y-107043583D01*
X124117402Y-107043583D01*
X122822999Y-105749181D01*
X122822999Y-101743583D01*
X131702839Y-101743583D01*
X131843669Y-102084417D01*
X132104211Y-102345414D01*
X132444799Y-102486839D01*
X132813583Y-102487161D01*
X133154417Y-102346331D01*
X133415414Y-102085789D01*
X133556839Y-101745201D01*
X133557161Y-101376417D01*
X133416331Y-101035583D01*
X133155789Y-100774586D01*
X132815201Y-100633161D01*
X132446417Y-100632839D01*
X132105583Y-100773669D01*
X131844586Y-101034211D01*
X131703161Y-101374799D01*
X131702839Y-101743583D01*
X122822999Y-101743583D01*
X122822999Y-98743583D01*
X133927839Y-98743583D01*
X134068669Y-99084417D01*
X134329211Y-99345414D01*
X134669799Y-99486839D01*
X135038583Y-99487161D01*
X135379417Y-99346331D01*
X135640414Y-99085789D01*
X135781839Y-98745201D01*
X135782161Y-98376417D01*
X135641331Y-98035583D01*
X135380789Y-97774586D01*
X135040201Y-97633161D01*
X134671417Y-97632839D01*
X134330583Y-97773669D01*
X134069586Y-98034211D01*
X133928161Y-98374799D01*
X133927839Y-98743583D01*
X122822999Y-98743583D01*
X122822999Y-79766425D01*
X146039997Y-79766425D01*
X146180827Y-80107259D01*
X146441369Y-80368256D01*
X146781957Y-80509681D01*
X147150741Y-80510003D01*
X147491575Y-80369173D01*
X147752572Y-80108631D01*
X147842417Y-79892260D01*
X148057259Y-79803489D01*
X148318256Y-79542947D01*
X148459681Y-79202359D01*
X148460003Y-78833575D01*
X148319173Y-78492741D01*
X148058631Y-78231744D01*
X147718043Y-78090319D01*
X147349259Y-78089997D01*
X147008425Y-78230827D01*
X146747428Y-78491369D01*
X146657583Y-78707740D01*
X146442741Y-78796511D01*
X146181744Y-79057053D01*
X146040319Y-79397641D01*
X146039997Y-79766425D01*
X122822999Y-79766425D01*
X122822999Y-72643583D01*
X143892839Y-72643583D01*
X144033669Y-72984417D01*
X144294211Y-73245414D01*
X144634799Y-73386839D01*
X145003583Y-73387161D01*
X145210087Y-73301835D01*
X145414799Y-73386839D01*
X145783583Y-73387161D01*
X146124417Y-73246331D01*
X146385414Y-72985789D01*
X146526839Y-72645201D01*
X146527161Y-72276417D01*
X146386331Y-71935583D01*
X146125789Y-71674586D01*
X146051999Y-71643946D01*
X146051999Y-68026055D01*
X146075467Y-68017097D01*
X146136207Y-67978932D01*
X146192506Y-67925707D01*
X146256924Y-67882664D01*
X146307649Y-67831939D01*
X146350692Y-67767521D01*
X146403917Y-67711222D01*
X146442082Y-67650482D01*
X146469708Y-67578109D01*
X146509070Y-67511382D01*
X146532763Y-67443672D01*
X146543594Y-67366955D01*
X146567121Y-67293141D01*
X146575153Y-67221856D01*
X146571872Y-67182951D01*
X146579489Y-67144655D01*
X146579489Y-66630354D01*
X146571872Y-66592058D01*
X146575153Y-66553153D01*
X146567121Y-66481868D01*
X146543594Y-66408054D01*
X146532763Y-66331337D01*
X146509070Y-66263627D01*
X146469708Y-66196900D01*
X146442082Y-66124527D01*
X146403917Y-66063787D01*
X146350692Y-66007488D01*
X146307649Y-65943070D01*
X146256924Y-65892345D01*
X146192506Y-65849302D01*
X146136207Y-65796077D01*
X146075467Y-65757912D01*
X146051999Y-65748954D01*
X146051999Y-48958767D01*
X148520050Y-46490716D01*
X148669515Y-46267026D01*
X148722000Y-46003166D01*
X148722000Y-43708766D01*
X149340050Y-43090716D01*
X149489515Y-42867027D01*
X149542000Y-42603166D01*
X149542000Y-41774524D01*
X149668440Y-41901185D01*
X150009028Y-42042610D01*
X150118000Y-42042705D01*
X150118000Y-44321234D01*
X149289951Y-45149283D01*
X149140486Y-45372973D01*
X149088001Y-45636833D01*
X149088001Y-64458001D01*
X149051354Y-64458001D01*
X149013062Y-64465618D01*
X148974159Y-64462336D01*
X148879286Y-64473025D01*
X148805470Y-64496552D01*
X148728751Y-64507383D01*
X148638636Y-64538916D01*
X148571908Y-64578278D01*
X148499532Y-64605905D01*
X148418694Y-64656699D01*
X148362396Y-64709923D01*
X148297977Y-64752967D01*
X148230468Y-64820476D01*
X148187425Y-64884894D01*
X148134200Y-64941193D01*
X148083406Y-65022032D01*
X148055779Y-65094407D01*
X148016417Y-65161135D01*
X147984884Y-65251250D01*
X147974053Y-65327967D01*
X147950526Y-65401785D01*
X147939837Y-65496658D01*
X147943119Y-65535561D01*
X147935502Y-65573853D01*
X147935502Y-65626146D01*
X147943119Y-65664438D01*
X147939837Y-65703341D01*
X147950526Y-65798214D01*
X147974053Y-65872032D01*
X147984884Y-65948749D01*
X148016417Y-66038864D01*
X148055779Y-66105592D01*
X148083406Y-66177967D01*
X148134200Y-66258806D01*
X148187425Y-66315105D01*
X148230468Y-66379523D01*
X148297977Y-66447032D01*
X148362396Y-66490076D01*
X148418694Y-66543300D01*
X148499532Y-66594094D01*
X148571908Y-66621721D01*
X148638636Y-66661083D01*
X148728751Y-66692616D01*
X148805468Y-66703447D01*
X148879279Y-66726973D01*
X148974151Y-66737663D01*
X149013058Y-66734381D01*
X149051354Y-66741999D01*
X149094337Y-66741999D01*
X149088001Y-66773853D01*
X149088001Y-71733746D01*
X149015583Y-71763669D01*
X148754586Y-72024211D01*
X148613161Y-72364799D01*
X148612839Y-72733583D01*
X148753669Y-73074417D01*
X149014211Y-73335414D01*
X149354799Y-73476839D01*
X149723583Y-73477161D01*
X149930087Y-73391835D01*
X150134799Y-73476839D01*
X150503583Y-73477161D01*
X150844417Y-73336331D01*
X151105414Y-73075789D01*
X151246839Y-72735201D01*
X151247161Y-72366417D01*
X151106331Y-72025583D01*
X150845789Y-71764586D01*
X150771999Y-71733946D01*
X150771999Y-67341999D01*
X150808646Y-67341999D01*
X150846942Y-67334381D01*
X150885848Y-67337663D01*
X150980721Y-67326973D01*
X151054533Y-67303447D01*
X151131249Y-67292616D01*
X151221364Y-67261083D01*
X151288092Y-67221721D01*
X151360467Y-67194094D01*
X151441306Y-67143300D01*
X151497605Y-67090075D01*
X151562023Y-67047032D01*
X151629532Y-66979523D01*
X151672576Y-66915104D01*
X151725800Y-66858806D01*
X151776594Y-66777968D01*
X151804221Y-66705592D01*
X151843583Y-66638864D01*
X151875116Y-66548749D01*
X151885947Y-66472030D01*
X151909474Y-66398214D01*
X151920163Y-66303341D01*
X151916881Y-66264438D01*
X151924498Y-66226146D01*
X151924498Y-66173853D01*
X151916881Y-66135561D01*
X151920163Y-66096658D01*
X151909474Y-66001785D01*
X151885947Y-65927969D01*
X151875116Y-65851250D01*
X151843583Y-65761135D01*
X151804221Y-65694407D01*
X151776594Y-65622031D01*
X151725800Y-65541193D01*
X151672576Y-65484895D01*
X151629532Y-65420476D01*
X151562023Y-65352967D01*
X151497605Y-65309924D01*
X151441306Y-65256699D01*
X151360467Y-65205905D01*
X151288092Y-65178278D01*
X151221364Y-65138916D01*
X151131249Y-65107383D01*
X151054532Y-65096552D01*
X150980714Y-65073025D01*
X150885841Y-65062336D01*
X150846938Y-65065618D01*
X150808646Y-65058001D01*
X150765663Y-65058001D01*
X150771999Y-65026146D01*
X150771999Y-49823583D01*
X156062839Y-49823583D01*
X156203669Y-50164417D01*
X156464211Y-50425414D01*
X156804799Y-50566839D01*
X157173583Y-50567161D01*
X157514417Y-50426331D01*
X157775414Y-50165789D01*
X157916839Y-49825201D01*
X157917161Y-49456417D01*
X157776331Y-49115583D01*
X157515789Y-48854586D01*
X157175201Y-48713161D01*
X156806417Y-48712839D01*
X156465583Y-48853669D01*
X156204586Y-49114211D01*
X156063161Y-49454799D01*
X156062839Y-49823583D01*
X150771999Y-49823583D01*
X150771999Y-46048767D01*
X151220025Y-45600741D01*
X153989997Y-45600741D01*
X154130827Y-45941575D01*
X154391369Y-46202572D01*
X154607740Y-46292417D01*
X154696511Y-46507259D01*
X154957053Y-46768256D01*
X155297641Y-46909681D01*
X155666425Y-46910003D01*
X156007259Y-46769173D01*
X156255307Y-46521557D01*
X156329219Y-46700438D01*
X156751735Y-47123692D01*
X157304061Y-47353038D01*
X157902111Y-47353560D01*
X158454836Y-47125179D01*
X158878090Y-46702663D01*
X159107436Y-46150337D01*
X159107958Y-45552287D01*
X158879577Y-44999562D01*
X158457061Y-44576308D01*
X157904735Y-44346962D01*
X157306685Y-44346440D01*
X156753960Y-44574821D01*
X156330706Y-44997337D01*
X156177414Y-45366505D01*
X156008631Y-45197428D01*
X155792260Y-45107583D01*
X155703489Y-44892741D01*
X155442947Y-44631744D01*
X155102359Y-44490319D01*
X154733575Y-44489997D01*
X154392741Y-44630827D01*
X154131744Y-44891369D01*
X153990319Y-45231957D01*
X153989997Y-45600741D01*
X151220025Y-45600741D01*
X151600050Y-45220716D01*
X151749515Y-44997027D01*
X151802000Y-44733166D01*
X151802000Y-42352885D01*
X151984211Y-42535414D01*
X152324799Y-42676839D01*
X152693583Y-42677161D01*
X153034417Y-42536331D01*
X153295414Y-42275789D01*
X153296330Y-42273583D01*
X156272839Y-42273583D01*
X156413669Y-42614417D01*
X156674211Y-42875414D01*
X157014799Y-43016839D01*
X157383583Y-43017161D01*
X157724417Y-42876331D01*
X157985414Y-42615789D01*
X158126839Y-42275201D01*
X158127161Y-41906417D01*
X157986331Y-41565583D01*
X157725789Y-41304586D01*
X157385201Y-41163161D01*
X157016417Y-41162839D01*
X156675583Y-41303669D01*
X156414586Y-41564211D01*
X156273161Y-41904799D01*
X156272839Y-42273583D01*
X153296330Y-42273583D01*
X153436839Y-41935201D01*
X153437161Y-41566417D01*
X153351835Y-41359913D01*
X153436839Y-41155201D01*
X153437161Y-40786417D01*
X153296331Y-40445583D01*
X153183702Y-40332757D01*
X153186839Y-40325201D01*
X153187161Y-39956417D01*
X153101835Y-39749913D01*
X153186839Y-39545201D01*
X153187161Y-39176417D01*
X153046331Y-38835583D01*
X152785789Y-38574586D01*
X152445201Y-38433161D01*
X152076417Y-38432839D01*
X151735583Y-38573669D01*
X151474586Y-38834211D01*
X151443946Y-38908001D01*
X149486834Y-38908000D01*
X149222974Y-38960485D01*
X148999284Y-39109950D01*
X148059950Y-40049284D01*
X147910485Y-40272974D01*
X147858000Y-40536834D01*
X147858000Y-42191234D01*
X147239950Y-42809284D01*
X147090485Y-43032974D01*
X147038000Y-43296834D01*
X147038000Y-45591234D01*
X146626920Y-46002314D01*
X146627161Y-45726417D01*
X146537693Y-45509888D01*
X146626839Y-45295201D01*
X146627161Y-44926417D01*
X146486331Y-44585583D01*
X146225789Y-44324586D01*
X145885201Y-44183161D01*
X145516417Y-44182839D01*
X145175583Y-44323669D01*
X144914586Y-44584211D01*
X144773161Y-44924799D01*
X144772839Y-45293583D01*
X144862307Y-45510112D01*
X144773161Y-45724799D01*
X144772839Y-46093583D01*
X144913669Y-46434417D01*
X145174211Y-46695414D01*
X145514799Y-46836839D01*
X145792153Y-46837081D01*
X144569951Y-48059283D01*
X144420486Y-48282973D01*
X144368001Y-48546833D01*
X144368001Y-66294655D01*
X144375617Y-66332943D01*
X144372335Y-66371846D01*
X144380366Y-66443131D01*
X144403894Y-66516953D01*
X144414726Y-66593673D01*
X144438419Y-66661382D01*
X144477781Y-66728109D01*
X144505407Y-66800482D01*
X144543572Y-66861222D01*
X144568420Y-66887505D01*
X144543572Y-66913787D01*
X144505407Y-66974527D01*
X144477781Y-67046900D01*
X144438419Y-67113627D01*
X144414726Y-67181336D01*
X144403894Y-67258056D01*
X144380366Y-67331878D01*
X144372335Y-67403163D01*
X144375617Y-67442066D01*
X144368001Y-67480354D01*
X144368001Y-71643746D01*
X144295583Y-71673669D01*
X144034586Y-71934211D01*
X143893161Y-72274799D01*
X143892839Y-72643583D01*
X122822999Y-72643583D01*
X122822999Y-57965999D01*
X122737211Y-57534715D01*
X122492908Y-57169090D01*
X116757401Y-51433583D01*
X124822839Y-51433583D01*
X124963669Y-51774417D01*
X125224211Y-52035414D01*
X125564799Y-52176839D01*
X125933583Y-52177161D01*
X126274417Y-52036331D01*
X126535414Y-51775789D01*
X126676839Y-51435201D01*
X126677161Y-51066417D01*
X126536331Y-50725583D01*
X126275789Y-50464586D01*
X125935201Y-50323161D01*
X125566417Y-50322839D01*
X125225583Y-50463669D01*
X124964586Y-50724211D01*
X124823161Y-51064799D01*
X124822839Y-51433583D01*
X116757401Y-51433583D01*
X115257401Y-49933583D01*
X127072839Y-49933583D01*
X127213669Y-50274417D01*
X127474211Y-50535414D01*
X127814799Y-50676839D01*
X128183583Y-50677161D01*
X128524417Y-50536331D01*
X128785414Y-50275789D01*
X128926839Y-49935201D01*
X128926927Y-49833583D01*
X139342839Y-49833583D01*
X139483669Y-50174417D01*
X139744211Y-50435414D01*
X140084799Y-50576839D01*
X140453583Y-50577161D01*
X140794417Y-50436331D01*
X141055414Y-50175789D01*
X141196839Y-49835201D01*
X141197161Y-49466417D01*
X141056331Y-49125583D01*
X140795789Y-48864586D01*
X140455201Y-48723161D01*
X140086417Y-48722839D01*
X139745583Y-48863669D01*
X139484586Y-49124211D01*
X139343161Y-49464799D01*
X139342839Y-49833583D01*
X128926927Y-49833583D01*
X128927161Y-49566417D01*
X128786331Y-49225583D01*
X128525789Y-48964586D01*
X128185201Y-48823161D01*
X127816417Y-48822839D01*
X127475583Y-48963669D01*
X127214586Y-49224211D01*
X127073161Y-49564799D01*
X127072839Y-49933583D01*
X115257401Y-49933583D01*
X114867000Y-49543182D01*
X114867000Y-47653583D01*
X122102839Y-47653583D01*
X122243669Y-47994417D01*
X122504211Y-48255414D01*
X122844799Y-48396839D01*
X123213583Y-48397161D01*
X123554417Y-48256331D01*
X123815414Y-47995789D01*
X123956839Y-47655201D01*
X123957161Y-47286417D01*
X123914671Y-47183583D01*
X124072839Y-47183583D01*
X124213669Y-47524417D01*
X124474211Y-47785414D01*
X124814799Y-47926839D01*
X125183583Y-47927161D01*
X125524417Y-47786331D01*
X125785414Y-47525789D01*
X125926839Y-47185201D01*
X125926840Y-47183583D01*
X128509329Y-47183583D01*
X128650159Y-47524417D01*
X128910701Y-47785414D01*
X129251289Y-47926839D01*
X129620073Y-47927161D01*
X129960907Y-47786331D01*
X130221904Y-47525789D01*
X130343238Y-47233583D01*
X130982839Y-47233583D01*
X131123669Y-47574417D01*
X131384211Y-47835414D01*
X131724799Y-47976839D01*
X132093583Y-47977161D01*
X132434417Y-47836331D01*
X132695414Y-47575789D01*
X132731625Y-47488583D01*
X138412839Y-47488583D01*
X138553669Y-47829417D01*
X138814211Y-48090414D01*
X139154799Y-48231839D01*
X139523583Y-48232161D01*
X139864417Y-48091331D01*
X140125414Y-47830789D01*
X140266839Y-47490201D01*
X140267161Y-47121417D01*
X140126331Y-46780583D01*
X139865789Y-46519586D01*
X139525201Y-46378161D01*
X139156417Y-46377839D01*
X138815583Y-46518669D01*
X138554586Y-46779211D01*
X138413161Y-47119799D01*
X138412839Y-47488583D01*
X132731625Y-47488583D01*
X132836839Y-47235201D01*
X132837161Y-46866417D01*
X132696331Y-46525583D01*
X132435789Y-46264586D01*
X132095201Y-46123161D01*
X131726417Y-46122839D01*
X131385583Y-46263669D01*
X131124586Y-46524211D01*
X130983161Y-46864799D01*
X130982839Y-47233583D01*
X130343238Y-47233583D01*
X130363329Y-47185201D01*
X130363651Y-46816417D01*
X130222821Y-46475583D01*
X129962279Y-46214586D01*
X129621691Y-46073161D01*
X129252907Y-46072839D01*
X128912073Y-46213669D01*
X128651076Y-46474211D01*
X128509651Y-46814799D01*
X128509329Y-47183583D01*
X125926840Y-47183583D01*
X125927161Y-46816417D01*
X125786331Y-46475583D01*
X125525789Y-46214586D01*
X125185201Y-46073161D01*
X124816417Y-46072839D01*
X124475583Y-46213669D01*
X124214586Y-46474211D01*
X124073161Y-46814799D01*
X124072839Y-47183583D01*
X123914671Y-47183583D01*
X123816331Y-46945583D01*
X123555789Y-46684586D01*
X123215201Y-46543161D01*
X122846417Y-46542839D01*
X122505583Y-46683669D01*
X122244586Y-46944211D01*
X122103161Y-47284799D01*
X122102839Y-47653583D01*
X114867000Y-47653583D01*
X114867000Y-47220002D01*
X114781212Y-46788718D01*
X114781212Y-46788717D01*
X114536909Y-46423092D01*
X113297400Y-45183583D01*
X113822839Y-45183583D01*
X113963669Y-45524417D01*
X114224211Y-45785414D01*
X114564799Y-45926839D01*
X114933583Y-45927161D01*
X115274417Y-45786331D01*
X115535414Y-45525789D01*
X115676839Y-45185201D01*
X115677161Y-44816417D01*
X115622276Y-44683583D01*
X122072839Y-44683583D01*
X122213669Y-45024417D01*
X122474211Y-45285414D01*
X122814799Y-45426839D01*
X123183583Y-45427161D01*
X123524417Y-45286331D01*
X123627344Y-45183583D01*
X124072839Y-45183583D01*
X124213669Y-45524417D01*
X124474211Y-45785414D01*
X124814799Y-45926839D01*
X125183583Y-45927161D01*
X125524417Y-45786331D01*
X125785414Y-45525789D01*
X125926839Y-45185201D01*
X125927058Y-44933583D01*
X129072839Y-44933583D01*
X129213669Y-45274417D01*
X129474211Y-45535414D01*
X129814799Y-45676839D01*
X130183583Y-45677161D01*
X130524417Y-45536331D01*
X130785414Y-45275789D01*
X130926839Y-44935201D01*
X130927161Y-44566417D01*
X130786331Y-44225583D01*
X130525789Y-43964586D01*
X130185201Y-43823161D01*
X129816417Y-43822839D01*
X129475583Y-43963669D01*
X129214586Y-44224211D01*
X129073161Y-44564799D01*
X129072839Y-44933583D01*
X125927058Y-44933583D01*
X125927161Y-44816417D01*
X125786331Y-44475583D01*
X125525789Y-44214586D01*
X125185201Y-44073161D01*
X124816417Y-44072839D01*
X124475583Y-44213669D01*
X124214586Y-44474211D01*
X124073161Y-44814799D01*
X124072839Y-45183583D01*
X123627344Y-45183583D01*
X123785414Y-45025789D01*
X123926839Y-44685201D01*
X123927161Y-44316417D01*
X123786331Y-43975583D01*
X123525789Y-43714586D01*
X123185201Y-43573161D01*
X122816417Y-43572839D01*
X122475583Y-43713669D01*
X122214586Y-43974211D01*
X122073161Y-44314799D01*
X122072839Y-44683583D01*
X115622276Y-44683583D01*
X115536331Y-44475583D01*
X115275789Y-44214586D01*
X114935201Y-44073161D01*
X114566417Y-44072839D01*
X114225583Y-44213669D01*
X113964586Y-44474211D01*
X113823161Y-44814799D01*
X113822839Y-45183583D01*
X113297400Y-45183583D01*
X110587337Y-42473521D01*
X110785414Y-42275789D01*
X110926839Y-41935201D01*
X110927161Y-41566417D01*
X110786331Y-41225583D01*
X110525789Y-40964586D01*
X110185201Y-40823161D01*
X109816417Y-40822839D01*
X109475583Y-40963669D01*
X109276360Y-41162544D01*
X108447399Y-40333583D01*
X144812839Y-40333583D01*
X144902307Y-40550112D01*
X144813161Y-40764799D01*
X144812839Y-41133583D01*
X144953669Y-41474417D01*
X145214211Y-41735414D01*
X145554799Y-41876839D01*
X145923583Y-41877161D01*
X146264417Y-41736331D01*
X146525414Y-41475789D01*
X146666839Y-41135201D01*
X146667161Y-40766417D01*
X146577693Y-40549888D01*
X146666839Y-40335201D01*
X146667161Y-39966417D01*
X146526331Y-39625583D01*
X146265789Y-39364586D01*
X145925201Y-39223161D01*
X145556417Y-39222839D01*
X145215583Y-39363669D01*
X144954586Y-39624211D01*
X144813161Y-39964799D01*
X144812839Y-40333583D01*
X108447399Y-40333583D01*
X107041907Y-38928091D01*
X106676282Y-38683788D01*
X106244998Y-38598000D01*
X94866818Y-38598000D01*
X92271911Y-36003093D01*
X92271909Y-36003090D01*
X91971909Y-35703091D01*
X91606284Y-35458788D01*
X91175000Y-35373000D01*
X90743716Y-35458788D01*
X90378091Y-35703091D01*
X90133788Y-36068716D01*
X90048000Y-36500000D01*
X88601913Y-36500000D01*
X88602161Y-36216417D01*
X88461331Y-35875583D01*
X88200789Y-35614586D01*
X87860201Y-35473161D01*
X87491417Y-35472839D01*
X87150583Y-35613669D01*
X86889586Y-35874211D01*
X86748161Y-36214799D01*
X86747839Y-36583583D01*
X84035266Y-36583583D01*
X84330664Y-36141488D01*
X84387990Y-36003090D01*
X84431751Y-35897443D01*
X84583992Y-35132077D01*
X84583992Y-35065396D01*
X84597000Y-35000000D01*
X84597000Y-32583583D01*
X86747839Y-32583583D01*
X86888669Y-32924417D01*
X87149211Y-33185414D01*
X87489799Y-33326839D01*
X87858583Y-33327161D01*
X88199417Y-33186331D01*
X88460414Y-32925789D01*
X88601839Y-32585201D01*
X88602161Y-32216417D01*
X88461331Y-31875583D01*
X88200789Y-31614586D01*
X87860201Y-31473161D01*
X87491417Y-31472839D01*
X87150583Y-31613669D01*
X86889586Y-31874211D01*
X86748161Y-32214799D01*
X86747839Y-32583583D01*
X84597000Y-32583583D01*
X84597000Y-29100000D01*
X88843000Y-29100000D01*
X89016326Y-29971370D01*
X89509918Y-30710082D01*
X90248630Y-31203674D01*
X91120000Y-31377000D01*
X91991370Y-31203674D01*
X92730082Y-30710082D01*
X93223674Y-29971370D01*
X93334534Y-29414038D01*
X94869761Y-29414038D01*
X95080778Y-29924738D01*
X95471168Y-30315811D01*
X95695420Y-30408928D01*
X95473224Y-30500738D01*
X95082151Y-30891128D01*
X94870243Y-31401460D01*
X94869761Y-31954038D01*
X95080778Y-32464738D01*
X95471168Y-32855811D01*
X95691137Y-32947150D01*
X95474223Y-33036777D01*
X95083150Y-33427167D01*
X94871242Y-33937499D01*
X94870760Y-34490077D01*
X95081777Y-35000777D01*
X95472167Y-35391850D01*
X95696419Y-35484967D01*
X95474223Y-35576777D01*
X95083150Y-35967167D01*
X94871242Y-36477499D01*
X94870760Y-37030077D01*
X95081777Y-37540777D01*
X95472167Y-37931850D01*
X95982499Y-38143758D01*
X96535077Y-38144240D01*
X97045777Y-37933223D01*
X97436850Y-37542833D01*
X97529967Y-37318581D01*
X97621777Y-37540777D01*
X98012167Y-37931850D01*
X98522499Y-38143758D01*
X99075077Y-38144240D01*
X99585777Y-37933223D01*
X99976850Y-37542833D01*
X100069967Y-37318581D01*
X100161777Y-37540777D01*
X100552167Y-37931850D01*
X101062499Y-38143758D01*
X101615077Y-38144240D01*
X102125777Y-37933223D01*
X102516850Y-37542833D01*
X102609967Y-37318581D01*
X102701777Y-37540777D01*
X103092167Y-37931850D01*
X103602499Y-38143758D01*
X104155077Y-38144240D01*
X104665777Y-37933223D01*
X105056850Y-37542833D01*
X105149967Y-37318581D01*
X105241777Y-37540777D01*
X105632167Y-37931850D01*
X106142499Y-38143758D01*
X106695077Y-38144240D01*
X107205777Y-37933223D01*
X107596850Y-37542833D01*
X107689967Y-37318581D01*
X107781777Y-37540777D01*
X108172167Y-37931850D01*
X108682499Y-38143758D01*
X109235077Y-38144240D01*
X109745777Y-37933223D01*
X110136850Y-37542833D01*
X110229967Y-37318581D01*
X110321777Y-37540777D01*
X110712167Y-37931850D01*
X111222499Y-38143758D01*
X111775077Y-38144240D01*
X112285777Y-37933223D01*
X112676850Y-37542833D01*
X112769967Y-37318581D01*
X112861777Y-37540777D01*
X113252167Y-37931850D01*
X113762499Y-38143758D01*
X114315077Y-38144240D01*
X114825777Y-37933223D01*
X115216850Y-37542833D01*
X115309967Y-37318581D01*
X115401777Y-37540777D01*
X115792167Y-37931850D01*
X116302499Y-38143758D01*
X116855077Y-38144240D01*
X117365777Y-37933223D01*
X117756850Y-37542833D01*
X117849967Y-37318581D01*
X117941777Y-37540777D01*
X118332167Y-37931850D01*
X118842499Y-38143758D01*
X119395077Y-38144240D01*
X119905777Y-37933223D01*
X120296850Y-37542833D01*
X120389967Y-37318581D01*
X120481777Y-37540777D01*
X120872167Y-37931850D01*
X121382499Y-38143758D01*
X121935077Y-38144240D01*
X122445777Y-37933223D01*
X122836850Y-37542833D01*
X122929967Y-37318581D01*
X123021777Y-37540777D01*
X123412167Y-37931850D01*
X123922499Y-38143758D01*
X124475077Y-38144240D01*
X124985777Y-37933223D01*
X125376850Y-37542833D01*
X125469967Y-37318581D01*
X125561777Y-37540777D01*
X125952167Y-37931850D01*
X126462499Y-38143758D01*
X127015077Y-38144240D01*
X127525777Y-37933223D01*
X127916850Y-37542833D01*
X128009967Y-37318581D01*
X128101777Y-37540777D01*
X128492167Y-37931850D01*
X129002499Y-38143758D01*
X129555077Y-38144240D01*
X130065777Y-37933223D01*
X130456850Y-37542833D01*
X130549967Y-37318581D01*
X130641777Y-37540777D01*
X131032167Y-37931850D01*
X131542499Y-38143758D01*
X132095077Y-38144240D01*
X132605777Y-37933223D01*
X132996850Y-37542833D01*
X133089967Y-37318581D01*
X133181777Y-37540777D01*
X133572167Y-37931850D01*
X134082499Y-38143758D01*
X134635077Y-38144240D01*
X135145777Y-37933223D01*
X135536850Y-37542833D01*
X135629967Y-37318581D01*
X135721777Y-37540777D01*
X136112167Y-37931850D01*
X136622499Y-38143758D01*
X137175077Y-38144240D01*
X137685777Y-37933223D01*
X138076850Y-37542833D01*
X138169967Y-37318581D01*
X138261777Y-37540777D01*
X138652167Y-37931850D01*
X139162499Y-38143758D01*
X139715077Y-38144240D01*
X140225777Y-37933223D01*
X140616850Y-37542833D01*
X140709967Y-37318581D01*
X140801777Y-37540777D01*
X141192167Y-37931850D01*
X141702499Y-38143758D01*
X142255077Y-38144240D01*
X142765777Y-37933223D01*
X143156850Y-37542833D01*
X143249967Y-37318581D01*
X143341777Y-37540777D01*
X143732167Y-37931850D01*
X144242499Y-38143758D01*
X144795077Y-38144240D01*
X145305777Y-37933223D01*
X145696850Y-37542833D01*
X145789967Y-37318581D01*
X145881777Y-37540777D01*
X146272167Y-37931850D01*
X146782499Y-38143758D01*
X147335077Y-38144240D01*
X147845777Y-37933223D01*
X148236850Y-37542833D01*
X148329967Y-37318581D01*
X148421777Y-37540777D01*
X148812167Y-37931850D01*
X149322499Y-38143758D01*
X149875077Y-38144240D01*
X150385777Y-37933223D01*
X150776850Y-37542833D01*
X150869967Y-37318581D01*
X150961777Y-37540777D01*
X151352167Y-37931850D01*
X151862499Y-38143758D01*
X152415077Y-38144240D01*
X152925777Y-37933223D01*
X153316850Y-37542833D01*
X153409967Y-37318581D01*
X153501777Y-37540777D01*
X153892167Y-37931850D01*
X154402499Y-38143758D01*
X154955077Y-38144240D01*
X155465777Y-37933223D01*
X155856850Y-37542833D01*
X155949967Y-37318581D01*
X156041777Y-37540777D01*
X156432167Y-37931850D01*
X156942499Y-38143758D01*
X157495077Y-38144240D01*
X158005777Y-37933223D01*
X158396850Y-37542833D01*
X158489967Y-37318581D01*
X158581777Y-37540777D01*
X158972167Y-37931850D01*
X159482499Y-38143758D01*
X160035077Y-38144240D01*
X160545777Y-37933223D01*
X160936850Y-37542833D01*
X161148758Y-37032501D01*
X161149240Y-36479923D01*
X160938223Y-35969223D01*
X160547833Y-35578150D01*
X160323581Y-35485033D01*
X160545777Y-35393223D01*
X160936850Y-35002833D01*
X161148758Y-34492501D01*
X161149240Y-33939923D01*
X160938223Y-33429223D01*
X160547833Y-33038150D01*
X160327864Y-32946811D01*
X160544778Y-32857184D01*
X160935851Y-32466794D01*
X161147759Y-31956462D01*
X161148241Y-31403884D01*
X160937224Y-30893184D01*
X160546834Y-30502111D01*
X160322582Y-30408994D01*
X160544778Y-30317184D01*
X160935851Y-29926794D01*
X161147759Y-29416462D01*
X161148035Y-29100000D01*
X162543000Y-29100000D01*
X162716326Y-29971370D01*
X163209918Y-30710082D01*
X163948630Y-31203674D01*
X164820000Y-31377000D01*
X165691370Y-31203674D01*
X166430082Y-30710082D01*
X166923674Y-29971370D01*
X167097000Y-29100000D01*
X166923674Y-28228630D01*
X166430082Y-27489918D01*
X165691370Y-26996326D01*
X164820000Y-26823000D01*
X163948630Y-26996326D01*
X163209918Y-27489918D01*
X162716326Y-28228630D01*
X162543000Y-29100000D01*
X161148035Y-29100000D01*
X161148241Y-28863884D01*
X160937224Y-28353184D01*
X160546834Y-27962111D01*
X160036502Y-27750203D01*
X159483924Y-27749721D01*
X158973224Y-27960738D01*
X158582151Y-28351128D01*
X158489034Y-28575380D01*
X158397224Y-28353184D01*
X158006834Y-27962111D01*
X157496502Y-27750203D01*
X156943924Y-27749721D01*
X156433224Y-27960738D01*
X156042151Y-28351128D01*
X155949034Y-28575380D01*
X155857224Y-28353184D01*
X155466834Y-27962111D01*
X154956502Y-27750203D01*
X154403924Y-27749721D01*
X153893224Y-27960738D01*
X153502151Y-28351128D01*
X153409034Y-28575380D01*
X153317224Y-28353184D01*
X152926834Y-27962111D01*
X152416502Y-27750203D01*
X151863924Y-27749721D01*
X151353224Y-27960738D01*
X150962151Y-28351128D01*
X150869034Y-28575380D01*
X150777224Y-28353184D01*
X150386834Y-27962111D01*
X149876502Y-27750203D01*
X149323924Y-27749721D01*
X148813224Y-27960738D01*
X148422151Y-28351128D01*
X148329034Y-28575380D01*
X148237224Y-28353184D01*
X147846834Y-27962111D01*
X147336502Y-27750203D01*
X146783924Y-27749721D01*
X146273224Y-27960738D01*
X145882151Y-28351128D01*
X145789034Y-28575380D01*
X145697224Y-28353184D01*
X145306834Y-27962111D01*
X144796502Y-27750203D01*
X144243924Y-27749721D01*
X143733224Y-27960738D01*
X143342151Y-28351128D01*
X143249034Y-28575380D01*
X143157224Y-28353184D01*
X142766834Y-27962111D01*
X142256502Y-27750203D01*
X141703924Y-27749721D01*
X141193224Y-27960738D01*
X140802151Y-28351128D01*
X140709034Y-28575380D01*
X140617224Y-28353184D01*
X140226834Y-27962111D01*
X139716502Y-27750203D01*
X139163924Y-27749721D01*
X138653224Y-27960738D01*
X138262151Y-28351128D01*
X138169034Y-28575380D01*
X138077224Y-28353184D01*
X137686834Y-27962111D01*
X137176502Y-27750203D01*
X136623924Y-27749721D01*
X136113224Y-27960738D01*
X135722151Y-28351128D01*
X135629034Y-28575380D01*
X135537224Y-28353184D01*
X135146834Y-27962111D01*
X134636502Y-27750203D01*
X134083924Y-27749721D01*
X133573224Y-27960738D01*
X133182151Y-28351128D01*
X133089034Y-28575380D01*
X132997224Y-28353184D01*
X132606834Y-27962111D01*
X132096502Y-27750203D01*
X131543924Y-27749721D01*
X131033224Y-27960738D01*
X130642151Y-28351128D01*
X130549034Y-28575380D01*
X130457224Y-28353184D01*
X130066834Y-27962111D01*
X129556502Y-27750203D01*
X129003924Y-27749721D01*
X128493224Y-27960738D01*
X128102151Y-28351128D01*
X128009034Y-28575380D01*
X127917224Y-28353184D01*
X127526834Y-27962111D01*
X127016502Y-27750203D01*
X126463924Y-27749721D01*
X125953224Y-27960738D01*
X125562151Y-28351128D01*
X125469034Y-28575380D01*
X125377224Y-28353184D01*
X124986834Y-27962111D01*
X124476502Y-27750203D01*
X123923924Y-27749721D01*
X123413224Y-27960738D01*
X123022151Y-28351128D01*
X122929034Y-28575380D01*
X122837224Y-28353184D01*
X122446834Y-27962111D01*
X121936502Y-27750203D01*
X121383924Y-27749721D01*
X120873224Y-27960738D01*
X120482151Y-28351128D01*
X120389034Y-28575380D01*
X120297224Y-28353184D01*
X119906834Y-27962111D01*
X119396502Y-27750203D01*
X118843924Y-27749721D01*
X118333224Y-27960738D01*
X117942151Y-28351128D01*
X117849034Y-28575380D01*
X117757224Y-28353184D01*
X117366834Y-27962111D01*
X116856502Y-27750203D01*
X116303924Y-27749721D01*
X115793224Y-27960738D01*
X115402151Y-28351128D01*
X115309034Y-28575380D01*
X115217224Y-28353184D01*
X114826834Y-27962111D01*
X114316502Y-27750203D01*
X113763924Y-27749721D01*
X113253224Y-27960738D01*
X112862151Y-28351128D01*
X112769034Y-28575380D01*
X112677224Y-28353184D01*
X112286834Y-27962111D01*
X111776502Y-27750203D01*
X111223924Y-27749721D01*
X110713224Y-27960738D01*
X110322151Y-28351128D01*
X110229034Y-28575380D01*
X110137224Y-28353184D01*
X109746834Y-27962111D01*
X109236502Y-27750203D01*
X108683924Y-27749721D01*
X108173224Y-27960738D01*
X107782151Y-28351128D01*
X107689034Y-28575380D01*
X107597224Y-28353184D01*
X107206834Y-27962111D01*
X106696502Y-27750203D01*
X106143924Y-27749721D01*
X105633224Y-27960738D01*
X105242151Y-28351128D01*
X105149034Y-28575380D01*
X105057224Y-28353184D01*
X104666834Y-27962111D01*
X104156502Y-27750203D01*
X103603924Y-27749721D01*
X103093224Y-27960738D01*
X102702151Y-28351128D01*
X102609034Y-28575380D01*
X102517224Y-28353184D01*
X102126834Y-27962111D01*
X101616502Y-27750203D01*
X101063924Y-27749721D01*
X100553224Y-27960738D01*
X100162151Y-28351128D01*
X100069034Y-28575380D01*
X99977224Y-28353184D01*
X99586834Y-27962111D01*
X99076502Y-27750203D01*
X98523924Y-27749721D01*
X98013224Y-27960738D01*
X97622151Y-28351128D01*
X97529034Y-28575380D01*
X97437224Y-28353184D01*
X97046834Y-27962111D01*
X96536502Y-27750203D01*
X95983924Y-27749721D01*
X95473224Y-27960738D01*
X95082151Y-28351128D01*
X94870243Y-28861460D01*
X94869761Y-29414038D01*
X93334534Y-29414038D01*
X93397000Y-29100000D01*
X93223674Y-28228630D01*
X92730082Y-27489918D01*
X91991370Y-26996326D01*
X91120000Y-26823000D01*
X90248630Y-26996326D01*
X89509918Y-27489918D01*
X89016326Y-28228630D01*
X88843000Y-29100000D01*
X84597000Y-29100000D01*
X84597000Y-26383583D01*
X88447839Y-26383583D01*
X88588669Y-26724417D01*
X88849211Y-26985414D01*
X89189799Y-27126839D01*
X89558583Y-27127161D01*
X89899417Y-26986331D01*
X90160414Y-26725789D01*
X90301839Y-26385201D01*
X90302161Y-26016417D01*
X90161331Y-25675583D01*
X89900789Y-25414586D01*
X89560201Y-25273161D01*
X89191417Y-25272839D01*
X88850583Y-25413669D01*
X88589586Y-25674211D01*
X88448161Y-26014799D01*
X88447839Y-26383583D01*
X84597000Y-26383583D01*
X84597000Y-24677000D01*
X95364400Y-24677000D01*
X95484369Y-25280126D01*
M02*
