G04 #@! TF.FileFunction,Legend,Top*
%FSLAX46Y46*%
G04 Gerber Fmt 4.6, Leading zero omitted, Abs format (unit mm)*
G04 Created by KiCad (PCBNEW 4.0.7) date 02/05/18 12:52:08*
%MOMM*%
%LPD*%
G01*
G04 APERTURE LIST*
%ADD10C,0.100000*%
%ADD11C,0.200000*%
%ADD12C,0.120000*%
%ADD13C,0.152400*%
%ADD14C,0.254000*%
%ADD15C,0.010000*%
%ADD16C,0.127000*%
%ADD17C,0.150000*%
%ADD18C,0.049267*%
%ADD19C,0.050000*%
%ADD20C,0.049235*%
G04 APERTURE END LIST*
D10*
D11*
X99925000Y-45850000D02*
X157625000Y-45850000D01*
D12*
X81770000Y-97885000D02*
X81770000Y-87605000D01*
X81770000Y-87605000D02*
X79110000Y-87605000D01*
X79110000Y-87605000D02*
X79110000Y-97885000D01*
X79110000Y-97885000D02*
X81770000Y-97885000D01*
X79110000Y-96935000D02*
X73110000Y-96935000D01*
X73110000Y-96935000D02*
X73110000Y-96175000D01*
X73110000Y-96175000D02*
X79110000Y-96175000D01*
X79110000Y-96875000D02*
X73110000Y-96875000D01*
X79110000Y-96755000D02*
X73110000Y-96755000D01*
X79110000Y-96635000D02*
X73110000Y-96635000D01*
X79110000Y-96515000D02*
X73110000Y-96515000D01*
X79110000Y-96395000D02*
X73110000Y-96395000D01*
X79110000Y-96275000D02*
X73110000Y-96275000D01*
X82167071Y-96935000D02*
X81770000Y-96935000D01*
X82167071Y-96175000D02*
X81770000Y-96175000D01*
X84640000Y-96935000D02*
X84252929Y-96935000D01*
X84640000Y-96175000D02*
X84252929Y-96175000D01*
X81770000Y-95285000D02*
X79110000Y-95285000D01*
X79110000Y-94395000D02*
X73110000Y-94395000D01*
X73110000Y-94395000D02*
X73110000Y-93635000D01*
X73110000Y-93635000D02*
X79110000Y-93635000D01*
X82167071Y-94395000D02*
X81770000Y-94395000D01*
X82167071Y-93635000D02*
X81770000Y-93635000D01*
X84707071Y-94395000D02*
X84252929Y-94395000D01*
X84707071Y-93635000D02*
X84252929Y-93635000D01*
X81770000Y-92745000D02*
X79110000Y-92745000D01*
X79110000Y-91855000D02*
X73110000Y-91855000D01*
X73110000Y-91855000D02*
X73110000Y-91095000D01*
X73110000Y-91095000D02*
X79110000Y-91095000D01*
X82167071Y-91855000D02*
X81770000Y-91855000D01*
X82167071Y-91095000D02*
X81770000Y-91095000D01*
X84707071Y-91855000D02*
X84252929Y-91855000D01*
X84707071Y-91095000D02*
X84252929Y-91095000D01*
X81770000Y-90205000D02*
X79110000Y-90205000D01*
X79110000Y-89315000D02*
X73110000Y-89315000D01*
X73110000Y-89315000D02*
X73110000Y-88555000D01*
X73110000Y-88555000D02*
X79110000Y-88555000D01*
X82167071Y-89315000D02*
X81770000Y-89315000D01*
X82167071Y-88555000D02*
X81770000Y-88555000D01*
X84707071Y-89315000D02*
X84252929Y-89315000D01*
X84707071Y-88555000D02*
X84252929Y-88555000D01*
X87020000Y-96555000D02*
X87020000Y-97825000D01*
X87020000Y-97825000D02*
X85750000Y-97825000D01*
X159920000Y-97675000D02*
X159920000Y-96475000D01*
X161680000Y-96475000D02*
X161680000Y-97675000D01*
D13*
X97723898Y-42624200D02*
X101002159Y-42624200D01*
X159776098Y-42624200D02*
X159776098Y-49075800D01*
X159776098Y-49075800D02*
X156497170Y-49075800D01*
X97723898Y-49075800D02*
X97723898Y-42624200D01*
X156497839Y-42624200D02*
X159776098Y-42624200D01*
X101002159Y-49075800D02*
X97723898Y-49075800D01*
X156381006Y-41295000D02*
G75*
G03X156381006Y-41295000I-381000J0D01*
G01*
D11*
X146560000Y-99780000D02*
X146560000Y-125180000D01*
X146560000Y-125180000D02*
X164540000Y-125180000D01*
X164540000Y-125180000D02*
X164540000Y-99780000D01*
D14*
X165382000Y-107972000D02*
G75*
G03X165382000Y-107972000I-70000J0D01*
G01*
D12*
X160860000Y-78640000D02*
X161560000Y-78640000D01*
X161560000Y-79840000D02*
X160860000Y-79840000D01*
X161600000Y-73100000D02*
X160900000Y-73100000D01*
X160900000Y-71900000D02*
X161600000Y-71900000D01*
X162210000Y-60830000D02*
X161510000Y-60830000D01*
X161510000Y-59630000D02*
X162210000Y-59630000D01*
X138820000Y-115185000D02*
X140940000Y-115185000D01*
X138820000Y-111985000D02*
X138820000Y-115185000D01*
X140940000Y-115185000D02*
X140940000Y-111985000D01*
X136020000Y-115135000D02*
X138140000Y-115135000D01*
X136020000Y-111935000D02*
X136020000Y-115135000D01*
X138140000Y-115135000D02*
X138140000Y-111935000D01*
X141620000Y-115185000D02*
X143740000Y-115185000D01*
X141620000Y-111985000D02*
X141620000Y-115185000D01*
X143740000Y-115185000D02*
X143740000Y-111985000D01*
D15*
G36*
X112987329Y-69453977D02*
X113002500Y-71488863D01*
X116033223Y-71488863D01*
X116033181Y-72499091D01*
X111992272Y-72499091D01*
X111992272Y-67419091D01*
X112972159Y-67419091D01*
X112987329Y-69453977D01*
X112987329Y-69453977D01*
G37*
X112987329Y-69453977D02*
X113002500Y-71488863D01*
X116033223Y-71488863D01*
X116033181Y-72499091D01*
X111992272Y-72499091D01*
X111992272Y-67419091D01*
X112972159Y-67419091D01*
X112987329Y-69453977D01*
G36*
X120131818Y-70478636D02*
X118049141Y-70478636D01*
X118065820Y-70983750D01*
X118082500Y-71488863D01*
X119612272Y-71500372D01*
X121142045Y-71511881D01*
X121158724Y-72005486D01*
X121175404Y-72499091D01*
X117072272Y-72499091D01*
X117072272Y-69439545D01*
X120131818Y-69439545D01*
X120131818Y-70478636D01*
X120131818Y-70478636D01*
G37*
X120131818Y-70478636D02*
X118049141Y-70478636D01*
X118065820Y-70983750D01*
X118082500Y-71488863D01*
X119612272Y-71500372D01*
X121142045Y-71511881D01*
X121158724Y-72005486D01*
X121175404Y-72499091D01*
X117072272Y-72499091D01*
X117072272Y-69439545D01*
X120131818Y-69439545D01*
X120131818Y-70478636D01*
G36*
X123696477Y-69451729D02*
X124201591Y-69468409D01*
X124232371Y-72499091D01*
X123191363Y-72499091D01*
X123191363Y-69435050D01*
X123696477Y-69451729D01*
X123696477Y-69451729D01*
G37*
X123696477Y-69451729D02*
X124201591Y-69468409D01*
X124232371Y-72499091D01*
X123191363Y-72499091D01*
X123191363Y-69435050D01*
X123696477Y-69451729D01*
G36*
X128152471Y-69442050D02*
X128551073Y-69451621D01*
X128866820Y-69471343D01*
X129115978Y-69504299D01*
X129314811Y-69553574D01*
X129479587Y-69622251D01*
X129626569Y-69713416D01*
X129772024Y-69830153D01*
X129787870Y-69844019D01*
X130059018Y-70151390D01*
X130231690Y-70496077D01*
X130309188Y-70860892D01*
X130294817Y-71228648D01*
X130191881Y-71582158D01*
X130003682Y-71904235D01*
X129733525Y-72177693D01*
X129384714Y-72385344D01*
X129292216Y-72422540D01*
X129158260Y-72448125D01*
X128911329Y-72468267D01*
X128553779Y-72482861D01*
X128087966Y-72491800D01*
X127679659Y-72494699D01*
X126250909Y-72499091D01*
X126250909Y-71517727D01*
X127522763Y-71517727D01*
X128004503Y-71515300D01*
X128384122Y-71506392D01*
X128674884Y-71488563D01*
X128890053Y-71459370D01*
X129042891Y-71416373D01*
X129146662Y-71357130D01*
X129214629Y-71279201D01*
X129253094Y-71199261D01*
X129305531Y-70983553D01*
X129267723Y-70809426D01*
X129141713Y-70647377D01*
X129066758Y-70576036D01*
X128995291Y-70528311D01*
X128903207Y-70499456D01*
X128766407Y-70484723D01*
X128560788Y-70479366D01*
X128284978Y-70478636D01*
X127813536Y-70464068D01*
X127435369Y-70415645D01*
X127131448Y-70326287D01*
X126882740Y-70188914D01*
X126670217Y-69996445D01*
X126534412Y-69827389D01*
X126447352Y-69706084D01*
X126391530Y-69613125D01*
X126377835Y-69544745D01*
X126417154Y-69497172D01*
X126520377Y-69466638D01*
X126698390Y-69449374D01*
X126962082Y-69441610D01*
X127322341Y-69439576D01*
X127654749Y-69439545D01*
X128152471Y-69442050D01*
X128152471Y-69442050D01*
G37*
X128152471Y-69442050D02*
X128551073Y-69451621D01*
X128866820Y-69471343D01*
X129115978Y-69504299D01*
X129314811Y-69553574D01*
X129479587Y-69622251D01*
X129626569Y-69713416D01*
X129772024Y-69830153D01*
X129787870Y-69844019D01*
X130059018Y-70151390D01*
X130231690Y-70496077D01*
X130309188Y-70860892D01*
X130294817Y-71228648D01*
X130191881Y-71582158D01*
X130003682Y-71904235D01*
X129733525Y-72177693D01*
X129384714Y-72385344D01*
X129292216Y-72422540D01*
X129158260Y-72448125D01*
X128911329Y-72468267D01*
X128553779Y-72482861D01*
X128087966Y-72491800D01*
X127679659Y-72494699D01*
X126250909Y-72499091D01*
X126250909Y-71517727D01*
X127522763Y-71517727D01*
X128004503Y-71515300D01*
X128384122Y-71506392D01*
X128674884Y-71488563D01*
X128890053Y-71459370D01*
X129042891Y-71416373D01*
X129146662Y-71357130D01*
X129214629Y-71279201D01*
X129253094Y-71199261D01*
X129305531Y-70983553D01*
X129267723Y-70809426D01*
X129141713Y-70647377D01*
X129066758Y-70576036D01*
X128995291Y-70528311D01*
X128903207Y-70499456D01*
X128766407Y-70484723D01*
X128560788Y-70479366D01*
X128284978Y-70478636D01*
X127813536Y-70464068D01*
X127435369Y-70415645D01*
X127131448Y-70326287D01*
X126882740Y-70188914D01*
X126670217Y-69996445D01*
X126534412Y-69827389D01*
X126447352Y-69706084D01*
X126391530Y-69613125D01*
X126377835Y-69544745D01*
X126417154Y-69497172D01*
X126520377Y-69466638D01*
X126698390Y-69449374D01*
X126962082Y-69441610D01*
X127322341Y-69439576D01*
X127654749Y-69439545D01*
X128152471Y-69442050D01*
G36*
X135973607Y-71100594D02*
X136095983Y-71469470D01*
X136205148Y-71801853D01*
X136296061Y-72082114D01*
X136363679Y-72294624D01*
X136402957Y-72423755D01*
X136410909Y-72455821D01*
X136358776Y-72482592D01*
X136223413Y-72497820D01*
X136036370Y-72502407D01*
X135829199Y-72497253D01*
X135633452Y-72483259D01*
X135480679Y-72461325D01*
X135402431Y-72432352D01*
X135398862Y-72426931D01*
X135372748Y-72351530D01*
X135316322Y-72185026D01*
X135235788Y-71945845D01*
X135137351Y-71652414D01*
X135027213Y-71323157D01*
X135024716Y-71315681D01*
X134900340Y-70946685D01*
X134810402Y-70671075D01*
X134757272Y-70471322D01*
X134743322Y-70329900D01*
X134770925Y-70229281D01*
X134842450Y-70151939D01*
X134960270Y-70080346D01*
X135126757Y-69996975D01*
X135208721Y-69955785D01*
X135536305Y-69788636D01*
X135973607Y-71100594D01*
X135973607Y-71100594D01*
G37*
X135973607Y-71100594D02*
X136095983Y-71469470D01*
X136205148Y-71801853D01*
X136296061Y-72082114D01*
X136363679Y-72294624D01*
X136402957Y-72423755D01*
X136410909Y-72455821D01*
X136358776Y-72482592D01*
X136223413Y-72497820D01*
X136036370Y-72502407D01*
X135829199Y-72497253D01*
X135633452Y-72483259D01*
X135480679Y-72461325D01*
X135402431Y-72432352D01*
X135398862Y-72426931D01*
X135372748Y-72351530D01*
X135316322Y-72185026D01*
X135235788Y-71945845D01*
X135137351Y-71652414D01*
X135027213Y-71323157D01*
X135024716Y-71315681D01*
X134900340Y-70946685D01*
X134810402Y-70671075D01*
X134757272Y-70471322D01*
X134743322Y-70329900D01*
X134770925Y-70229281D01*
X134842450Y-70151939D01*
X134960270Y-70080346D01*
X135126757Y-69996975D01*
X135208721Y-69955785D01*
X135536305Y-69788636D01*
X135973607Y-71100594D01*
G36*
X134286314Y-68170812D02*
X134018462Y-68315224D01*
X133737892Y-68482984D01*
X133499508Y-68641037D01*
X133471286Y-68661493D01*
X133120130Y-68920000D01*
X117072272Y-68920000D01*
X117072272Y-67938636D01*
X134750187Y-67938636D01*
X134286314Y-68170812D01*
X134286314Y-68170812D01*
G37*
X134286314Y-68170812D02*
X134018462Y-68315224D01*
X133737892Y-68482984D01*
X133499508Y-68641037D01*
X133471286Y-68661493D01*
X133120130Y-68920000D01*
X117072272Y-68920000D01*
X117072272Y-67938636D01*
X134750187Y-67938636D01*
X134286314Y-68170812D01*
D14*
X94228000Y-38466960D02*
X94228000Y-32503040D01*
X94228000Y-32503040D02*
X161792000Y-32503040D01*
X161792000Y-32503040D02*
X161792000Y-38466960D01*
X161792000Y-38466960D02*
X94228000Y-38466960D01*
D12*
X126690000Y-113015000D02*
X126690000Y-111815000D01*
X128450000Y-111815000D02*
X128450000Y-113015000D01*
X123720000Y-112535000D02*
X124920000Y-112535000D01*
X124920000Y-114295000D02*
X123720000Y-114295000D01*
X121470000Y-103035000D02*
X122670000Y-103035000D01*
X122670000Y-104795000D02*
X121470000Y-104795000D01*
X118190000Y-108265000D02*
X118190000Y-107065000D01*
X119950000Y-107065000D02*
X119950000Y-108265000D01*
X138330000Y-105980000D02*
X139530000Y-105980000D01*
X139530000Y-107740000D02*
X138330000Y-107740000D01*
X134855000Y-105980000D02*
X136055000Y-105980000D01*
X136055000Y-107740000D02*
X134855000Y-107740000D01*
X133305000Y-97680000D02*
X134505000Y-97680000D01*
X134505000Y-99440000D02*
X133305000Y-99440000D01*
X130400000Y-102435000D02*
X130400000Y-101235000D01*
X132160000Y-101235000D02*
X132160000Y-102435000D01*
D16*
X134145000Y-101596392D02*
G75*
G03X134145000Y-101596392I-65000J0D01*
G01*
X133480000Y-100646392D02*
X133480000Y-105646392D01*
X133480000Y-105646392D02*
X136480000Y-105646392D01*
X136480000Y-105646392D02*
X136480000Y-100646392D01*
X136480000Y-100646392D02*
X133480000Y-100646392D01*
D14*
X94227001Y-33390921D02*
X94227001Y-27427001D01*
X94227001Y-27427001D02*
X161791001Y-27427001D01*
X161791001Y-27427001D02*
X161791001Y-33390921D01*
X161791001Y-33390921D02*
X94227001Y-33390921D01*
D16*
X122235000Y-107615000D02*
G75*
G03X122235000Y-107615000I-65000J0D01*
G01*
X121570000Y-106665000D02*
X121570000Y-111665000D01*
X121570000Y-111665000D02*
X124570000Y-111665000D01*
X124570000Y-111665000D02*
X124570000Y-106665000D01*
X124570000Y-106665000D02*
X121570000Y-106665000D01*
D12*
X84260000Y-75150000D02*
X84260000Y-67410000D01*
X84260000Y-67410000D02*
X81600000Y-67410000D01*
X81600000Y-67410000D02*
X81600000Y-75150000D01*
X81600000Y-75150000D02*
X84260000Y-75150000D01*
X81600000Y-74200000D02*
X75600000Y-74200000D01*
X75600000Y-74200000D02*
X75600000Y-73440000D01*
X75600000Y-73440000D02*
X81600000Y-73440000D01*
X81600000Y-74140000D02*
X75600000Y-74140000D01*
X81600000Y-74020000D02*
X75600000Y-74020000D01*
X81600000Y-73900000D02*
X75600000Y-73900000D01*
X81600000Y-73780000D02*
X75600000Y-73780000D01*
X81600000Y-73660000D02*
X75600000Y-73660000D01*
X81600000Y-73540000D02*
X75600000Y-73540000D01*
X84590000Y-74200000D02*
X84260000Y-74200000D01*
X84590000Y-73440000D02*
X84260000Y-73440000D01*
X84260000Y-72550000D02*
X81600000Y-72550000D01*
X81600000Y-71660000D02*
X75600000Y-71660000D01*
X75600000Y-71660000D02*
X75600000Y-70900000D01*
X75600000Y-70900000D02*
X81600000Y-70900000D01*
X84657071Y-71660000D02*
X84260000Y-71660000D01*
X84657071Y-70900000D02*
X84260000Y-70900000D01*
X84260000Y-70010000D02*
X81600000Y-70010000D01*
X81600000Y-69120000D02*
X75600000Y-69120000D01*
X75600000Y-69120000D02*
X75600000Y-68360000D01*
X75600000Y-68360000D02*
X81600000Y-68360000D01*
X84657071Y-69120000D02*
X84260000Y-69120000D01*
X84657071Y-68360000D02*
X84260000Y-68360000D01*
X86970000Y-73820000D02*
X86970000Y-75090000D01*
X86970000Y-75090000D02*
X85700000Y-75090000D01*
X84070000Y-66870000D02*
X84070000Y-51510000D01*
X84070000Y-51510000D02*
X81410000Y-51510000D01*
X81410000Y-51510000D02*
X81410000Y-66870000D01*
X81410000Y-66870000D02*
X84070000Y-66870000D01*
X81410000Y-65920000D02*
X75410000Y-65920000D01*
X75410000Y-65920000D02*
X75410000Y-65160000D01*
X75410000Y-65160000D02*
X81410000Y-65160000D01*
X81410000Y-65860000D02*
X75410000Y-65860000D01*
X81410000Y-65740000D02*
X75410000Y-65740000D01*
X81410000Y-65620000D02*
X75410000Y-65620000D01*
X81410000Y-65500000D02*
X75410000Y-65500000D01*
X81410000Y-65380000D02*
X75410000Y-65380000D01*
X81410000Y-65260000D02*
X75410000Y-65260000D01*
X84400000Y-65920000D02*
X84070000Y-65920000D01*
X84400000Y-65160000D02*
X84070000Y-65160000D01*
X84070000Y-64270000D02*
X81410000Y-64270000D01*
X81410000Y-63380000D02*
X75410000Y-63380000D01*
X75410000Y-63380000D02*
X75410000Y-62620000D01*
X75410000Y-62620000D02*
X81410000Y-62620000D01*
X84467071Y-63380000D02*
X84070000Y-63380000D01*
X84467071Y-62620000D02*
X84070000Y-62620000D01*
X84070000Y-61730000D02*
X81410000Y-61730000D01*
X81410000Y-60840000D02*
X75410000Y-60840000D01*
X75410000Y-60840000D02*
X75410000Y-60080000D01*
X75410000Y-60080000D02*
X81410000Y-60080000D01*
X84467071Y-60840000D02*
X84070000Y-60840000D01*
X84467071Y-60080000D02*
X84070000Y-60080000D01*
X84070000Y-59190000D02*
X81410000Y-59190000D01*
X81410000Y-58300000D02*
X75410000Y-58300000D01*
X75410000Y-58300000D02*
X75410000Y-57540000D01*
X75410000Y-57540000D02*
X81410000Y-57540000D01*
X84467071Y-58300000D02*
X84070000Y-58300000D01*
X84467071Y-57540000D02*
X84070000Y-57540000D01*
X84070000Y-56650000D02*
X81410000Y-56650000D01*
X81410000Y-55760000D02*
X75410000Y-55760000D01*
X75410000Y-55760000D02*
X75410000Y-55000000D01*
X75410000Y-55000000D02*
X81410000Y-55000000D01*
X84467071Y-55760000D02*
X84070000Y-55760000D01*
X84467071Y-55000000D02*
X84070000Y-55000000D01*
X84070000Y-54110000D02*
X81410000Y-54110000D01*
X81410000Y-53220000D02*
X75410000Y-53220000D01*
X75410000Y-53220000D02*
X75410000Y-52460000D01*
X75410000Y-52460000D02*
X81410000Y-52460000D01*
X84467071Y-53220000D02*
X84070000Y-53220000D01*
X84467071Y-52460000D02*
X84070000Y-52460000D01*
X86780000Y-65540000D02*
X86780000Y-66810000D01*
X86780000Y-66810000D02*
X85510000Y-66810000D01*
X173930000Y-47890000D02*
X173930000Y-55630000D01*
X173930000Y-55630000D02*
X176590000Y-55630000D01*
X176590000Y-55630000D02*
X176590000Y-47890000D01*
X176590000Y-47890000D02*
X173930000Y-47890000D01*
X176590000Y-48840000D02*
X182590000Y-48840000D01*
X182590000Y-48840000D02*
X182590000Y-49600000D01*
X182590000Y-49600000D02*
X176590000Y-49600000D01*
X176590000Y-48900000D02*
X182590000Y-48900000D01*
X176590000Y-49020000D02*
X182590000Y-49020000D01*
X176590000Y-49140000D02*
X182590000Y-49140000D01*
X176590000Y-49260000D02*
X182590000Y-49260000D01*
X176590000Y-49380000D02*
X182590000Y-49380000D01*
X176590000Y-49500000D02*
X182590000Y-49500000D01*
X173600000Y-48840000D02*
X173930000Y-48840000D01*
X173600000Y-49600000D02*
X173930000Y-49600000D01*
X173930000Y-50490000D02*
X176590000Y-50490000D01*
X176590000Y-51380000D02*
X182590000Y-51380000D01*
X182590000Y-51380000D02*
X182590000Y-52140000D01*
X182590000Y-52140000D02*
X176590000Y-52140000D01*
X173532929Y-51380000D02*
X173930000Y-51380000D01*
X173532929Y-52140000D02*
X173930000Y-52140000D01*
X173930000Y-53030000D02*
X176590000Y-53030000D01*
X176590000Y-53920000D02*
X182590000Y-53920000D01*
X182590000Y-53920000D02*
X182590000Y-54680000D01*
X182590000Y-54680000D02*
X176590000Y-54680000D01*
X173532929Y-53920000D02*
X173930000Y-53920000D01*
X173532929Y-54680000D02*
X173930000Y-54680000D01*
X171220000Y-49220000D02*
X171220000Y-47950000D01*
X171220000Y-47950000D02*
X172490000Y-47950000D01*
X111975000Y-114825000D02*
X111975000Y-118375000D01*
X111975000Y-118375000D02*
X102775000Y-118375000D01*
X102775000Y-118375000D02*
X102775000Y-114825000D01*
X102775000Y-108125000D02*
X102775000Y-105675000D01*
X102775000Y-105675000D02*
X103175000Y-105675000D01*
X103175000Y-105675000D02*
X103175000Y-103675000D01*
X103175000Y-103675000D02*
X106175000Y-103675000D01*
X109975000Y-103675000D02*
X111575000Y-103675000D01*
X111575000Y-103675000D02*
X111575000Y-105675000D01*
X111575000Y-105675000D02*
X111975000Y-105675000D01*
X111975000Y-105675000D02*
X111975000Y-108125000D01*
X106185000Y-101775000D02*
X106185000Y-100035000D01*
X106185000Y-100035000D02*
X107925000Y-100035000D01*
X150445000Y-97250000D02*
X150445000Y-96050000D01*
X152205000Y-96050000D02*
X152205000Y-97250000D01*
X81770000Y-86560000D02*
X81770000Y-78820000D01*
X81770000Y-78820000D02*
X79110000Y-78820000D01*
X79110000Y-78820000D02*
X79110000Y-86560000D01*
X79110000Y-86560000D02*
X81770000Y-86560000D01*
X79110000Y-85610000D02*
X73110000Y-85610000D01*
X73110000Y-85610000D02*
X73110000Y-84850000D01*
X73110000Y-84850000D02*
X79110000Y-84850000D01*
X79110000Y-85550000D02*
X73110000Y-85550000D01*
X79110000Y-85430000D02*
X73110000Y-85430000D01*
X79110000Y-85310000D02*
X73110000Y-85310000D01*
X79110000Y-85190000D02*
X73110000Y-85190000D01*
X79110000Y-85070000D02*
X73110000Y-85070000D01*
X79110000Y-84950000D02*
X73110000Y-84950000D01*
X82167071Y-85610000D02*
X81770000Y-85610000D01*
X82167071Y-84850000D02*
X81770000Y-84850000D01*
X84640000Y-85610000D02*
X84252929Y-85610000D01*
X84640000Y-84850000D02*
X84252929Y-84850000D01*
X81770000Y-83960000D02*
X79110000Y-83960000D01*
X79110000Y-83070000D02*
X73110000Y-83070000D01*
X73110000Y-83070000D02*
X73110000Y-82310000D01*
X73110000Y-82310000D02*
X79110000Y-82310000D01*
X82167071Y-83070000D02*
X81770000Y-83070000D01*
X82167071Y-82310000D02*
X81770000Y-82310000D01*
X84707071Y-83070000D02*
X84252929Y-83070000D01*
X84707071Y-82310000D02*
X84252929Y-82310000D01*
X81770000Y-81420000D02*
X79110000Y-81420000D01*
X79110000Y-80530000D02*
X73110000Y-80530000D01*
X73110000Y-80530000D02*
X73110000Y-79770000D01*
X73110000Y-79770000D02*
X79110000Y-79770000D01*
X82167071Y-80530000D02*
X81770000Y-80530000D01*
X82167071Y-79770000D02*
X81770000Y-79770000D01*
X84707071Y-80530000D02*
X84252929Y-80530000D01*
X84707071Y-79770000D02*
X84252929Y-79770000D01*
X87020000Y-85230000D02*
X87020000Y-86500000D01*
X87020000Y-86500000D02*
X85750000Y-86500000D01*
X85175000Y-27950000D02*
X85175000Y-28250000D01*
X85175000Y-28250000D02*
X88475000Y-28250000D01*
X88475000Y-28250000D02*
X88475000Y-27950000D01*
X85175000Y-25750000D02*
X85175000Y-25450000D01*
X85175000Y-25450000D02*
X88475000Y-25450000D01*
X88475000Y-25450000D02*
X88475000Y-25750000D01*
X85275000Y-32650000D02*
X85275000Y-32950000D01*
X85275000Y-32950000D02*
X88575000Y-32950000D01*
X88575000Y-32950000D02*
X88575000Y-32650000D01*
X85275000Y-30450000D02*
X85275000Y-30150000D01*
X85275000Y-30150000D02*
X88575000Y-30150000D01*
X88575000Y-30150000D02*
X88575000Y-30450000D01*
X85250000Y-37475000D02*
X85250000Y-37775000D01*
X85250000Y-37775000D02*
X88550000Y-37775000D01*
X88550000Y-37775000D02*
X88550000Y-37475000D01*
X85250000Y-35275000D02*
X85250000Y-34975000D01*
X85250000Y-34975000D02*
X88550000Y-34975000D01*
X88550000Y-34975000D02*
X88550000Y-35275000D01*
X126920000Y-105165000D02*
X126920000Y-104165000D01*
X125220000Y-104165000D02*
X125220000Y-105165000D01*
X126720000Y-108165000D02*
X126720000Y-109165000D01*
X128420000Y-109165000D02*
X128420000Y-108165000D01*
X138830000Y-99360000D02*
X138830000Y-98360000D01*
X137130000Y-98360000D02*
X137130000Y-99360000D01*
X138380000Y-102085000D02*
X138380000Y-103085000D01*
X140080000Y-103085000D02*
X140080000Y-102085000D01*
D17*
X88126667Y-95967381D02*
X88126667Y-96681667D01*
X88079047Y-96824524D01*
X87983809Y-96919762D01*
X87840952Y-96967381D01*
X87745714Y-96967381D01*
X88650476Y-96967381D02*
X88840952Y-96967381D01*
X88936191Y-96919762D01*
X88983810Y-96872143D01*
X89079048Y-96729286D01*
X89126667Y-96538810D01*
X89126667Y-96157857D01*
X89079048Y-96062619D01*
X89031429Y-96015000D01*
X88936191Y-95967381D01*
X88745714Y-95967381D01*
X88650476Y-96015000D01*
X88602857Y-96062619D01*
X88555238Y-96157857D01*
X88555238Y-96395952D01*
X88602857Y-96491190D01*
X88650476Y-96538810D01*
X88745714Y-96586429D01*
X88936191Y-96586429D01*
X89031429Y-96538810D01*
X89079048Y-96491190D01*
X89126667Y-96395952D01*
X162902381Y-97717857D02*
X162426190Y-98051191D01*
X162902381Y-98289286D02*
X161902381Y-98289286D01*
X161902381Y-97908333D01*
X161950000Y-97813095D01*
X161997619Y-97765476D01*
X162092857Y-97717857D01*
X162235714Y-97717857D01*
X162330952Y-97765476D01*
X162378571Y-97813095D01*
X162426190Y-97908333D01*
X162426190Y-98289286D01*
X162902381Y-96765476D02*
X162902381Y-97336905D01*
X162902381Y-97051191D02*
X161902381Y-97051191D01*
X162045238Y-97146429D01*
X162140476Y-97241667D01*
X162188095Y-97336905D01*
X161902381Y-96146429D02*
X161902381Y-96051190D01*
X161950000Y-95955952D01*
X161997619Y-95908333D01*
X162092857Y-95860714D01*
X162283333Y-95813095D01*
X162521429Y-95813095D01*
X162711905Y-95860714D01*
X162807143Y-95908333D01*
X162854762Y-95955952D01*
X162902381Y-96051190D01*
X162902381Y-96146429D01*
X162854762Y-96241667D01*
X162807143Y-96289286D01*
X162711905Y-96336905D01*
X162521429Y-96384524D01*
X162283333Y-96384524D01*
X162092857Y-96336905D01*
X161997619Y-96289286D01*
X161950000Y-96241667D01*
X161902381Y-96146429D01*
D14*
X154900407Y-117140884D02*
X154900407Y-118048027D01*
X154839931Y-118229455D01*
X154718979Y-118350408D01*
X154537550Y-118410884D01*
X154416598Y-118410884D01*
X156049455Y-117564217D02*
X156049455Y-118410884D01*
X155747074Y-117080408D02*
X155444693Y-117987550D01*
X156230883Y-117987550D01*
D17*
X83336667Y-22952381D02*
X83003333Y-22476190D01*
X82765238Y-22952381D02*
X82765238Y-21952381D01*
X83146191Y-21952381D01*
X83241429Y-22000000D01*
X83289048Y-22047619D01*
X83336667Y-22142857D01*
X83336667Y-22285714D01*
X83289048Y-22380952D01*
X83241429Y-22428571D01*
X83146191Y-22476190D01*
X82765238Y-22476190D01*
X83765238Y-22428571D02*
X84098572Y-22428571D01*
X84241429Y-22952381D02*
X83765238Y-22952381D01*
X83765238Y-21952381D01*
X84241429Y-21952381D01*
X85003334Y-22428571D02*
X84670000Y-22428571D01*
X84670000Y-22952381D02*
X84670000Y-21952381D01*
X85146191Y-21952381D01*
X85670000Y-21952381D02*
X85670000Y-22190476D01*
X85431905Y-22095238D02*
X85670000Y-22190476D01*
X85908096Y-22095238D01*
X85527143Y-22380952D02*
X85670000Y-22190476D01*
X85812858Y-22380952D01*
X86431905Y-21952381D02*
X86431905Y-22190476D01*
X86193810Y-22095238D02*
X86431905Y-22190476D01*
X86670001Y-22095238D01*
X86289048Y-22380952D02*
X86431905Y-22190476D01*
X86574763Y-22380952D01*
X160317143Y-80847143D02*
X160269524Y-80894762D01*
X160126667Y-80942381D01*
X160031429Y-80942381D01*
X159888571Y-80894762D01*
X159793333Y-80799524D01*
X159745714Y-80704286D01*
X159698095Y-80513810D01*
X159698095Y-80370952D01*
X159745714Y-80180476D01*
X159793333Y-80085238D01*
X159888571Y-79990000D01*
X160031429Y-79942381D01*
X160126667Y-79942381D01*
X160269524Y-79990000D01*
X160317143Y-80037619D01*
X160698095Y-80037619D02*
X160745714Y-79990000D01*
X160840952Y-79942381D01*
X161079048Y-79942381D01*
X161174286Y-79990000D01*
X161221905Y-80037619D01*
X161269524Y-80132857D01*
X161269524Y-80228095D01*
X161221905Y-80370952D01*
X160650476Y-80942381D01*
X161269524Y-80942381D01*
X161602857Y-79942381D02*
X162269524Y-79942381D01*
X161840952Y-80942381D01*
X160607143Y-71357143D02*
X160559524Y-71404762D01*
X160416667Y-71452381D01*
X160321429Y-71452381D01*
X160178571Y-71404762D01*
X160083333Y-71309524D01*
X160035714Y-71214286D01*
X159988095Y-71023810D01*
X159988095Y-70880952D01*
X160035714Y-70690476D01*
X160083333Y-70595238D01*
X160178571Y-70500000D01*
X160321429Y-70452381D01*
X160416667Y-70452381D01*
X160559524Y-70500000D01*
X160607143Y-70547619D01*
X160988095Y-70547619D02*
X161035714Y-70500000D01*
X161130952Y-70452381D01*
X161369048Y-70452381D01*
X161464286Y-70500000D01*
X161511905Y-70547619D01*
X161559524Y-70642857D01*
X161559524Y-70738095D01*
X161511905Y-70880952D01*
X160940476Y-71452381D01*
X161559524Y-71452381D01*
X162130952Y-70880952D02*
X162035714Y-70833333D01*
X161988095Y-70785714D01*
X161940476Y-70690476D01*
X161940476Y-70642857D01*
X161988095Y-70547619D01*
X162035714Y-70500000D01*
X162130952Y-70452381D01*
X162321429Y-70452381D01*
X162416667Y-70500000D01*
X162464286Y-70547619D01*
X162511905Y-70642857D01*
X162511905Y-70690476D01*
X162464286Y-70785714D01*
X162416667Y-70833333D01*
X162321429Y-70880952D01*
X162130952Y-70880952D01*
X162035714Y-70928571D01*
X161988095Y-70976190D01*
X161940476Y-71071429D01*
X161940476Y-71261905D01*
X161988095Y-71357143D01*
X162035714Y-71404762D01*
X162130952Y-71452381D01*
X162321429Y-71452381D01*
X162416667Y-71404762D01*
X162464286Y-71357143D01*
X162511905Y-71261905D01*
X162511905Y-71071429D01*
X162464286Y-70976190D01*
X162416667Y-70928571D01*
X162321429Y-70880952D01*
X161217143Y-59087143D02*
X161169524Y-59134762D01*
X161026667Y-59182381D01*
X160931429Y-59182381D01*
X160788571Y-59134762D01*
X160693333Y-59039524D01*
X160645714Y-58944286D01*
X160598095Y-58753810D01*
X160598095Y-58610952D01*
X160645714Y-58420476D01*
X160693333Y-58325238D01*
X160788571Y-58230000D01*
X160931429Y-58182381D01*
X161026667Y-58182381D01*
X161169524Y-58230000D01*
X161217143Y-58277619D01*
X161598095Y-58277619D02*
X161645714Y-58230000D01*
X161740952Y-58182381D01*
X161979048Y-58182381D01*
X162074286Y-58230000D01*
X162121905Y-58277619D01*
X162169524Y-58372857D01*
X162169524Y-58468095D01*
X162121905Y-58610952D01*
X161550476Y-59182381D01*
X162169524Y-59182381D01*
X162645714Y-59182381D02*
X162836190Y-59182381D01*
X162931429Y-59134762D01*
X162979048Y-59087143D01*
X163074286Y-58944286D01*
X163121905Y-58753810D01*
X163121905Y-58372857D01*
X163074286Y-58277619D01*
X163026667Y-58230000D01*
X162931429Y-58182381D01*
X162740952Y-58182381D01*
X162645714Y-58230000D01*
X162598095Y-58277619D01*
X162550476Y-58372857D01*
X162550476Y-58610952D01*
X162598095Y-58706190D01*
X162645714Y-58753810D01*
X162740952Y-58801429D01*
X162931429Y-58801429D01*
X163026667Y-58753810D01*
X163074286Y-58706190D01*
X163121905Y-58610952D01*
X139116905Y-110487381D02*
X139116905Y-109487381D01*
X139355000Y-109487381D01*
X139497858Y-109535000D01*
X139593096Y-109630238D01*
X139640715Y-109725476D01*
X139688334Y-109915952D01*
X139688334Y-110058810D01*
X139640715Y-110249286D01*
X139593096Y-110344524D01*
X139497858Y-110439762D01*
X139355000Y-110487381D01*
X139116905Y-110487381D01*
X140021667Y-109487381D02*
X140688334Y-109487381D01*
X140259762Y-110487381D01*
X136316905Y-110512381D02*
X136316905Y-109512381D01*
X136555000Y-109512381D01*
X136697858Y-109560000D01*
X136793096Y-109655238D01*
X136840715Y-109750476D01*
X136888334Y-109940952D01*
X136888334Y-110083810D01*
X136840715Y-110274286D01*
X136793096Y-110369524D01*
X136697858Y-110464762D01*
X136555000Y-110512381D01*
X136316905Y-110512381D01*
X137745477Y-109512381D02*
X137555000Y-109512381D01*
X137459762Y-109560000D01*
X137412143Y-109607619D01*
X137316905Y-109750476D01*
X137269286Y-109940952D01*
X137269286Y-110321905D01*
X137316905Y-110417143D01*
X137364524Y-110464762D01*
X137459762Y-110512381D01*
X137650239Y-110512381D01*
X137745477Y-110464762D01*
X137793096Y-110417143D01*
X137840715Y-110321905D01*
X137840715Y-110083810D01*
X137793096Y-109988571D01*
X137745477Y-109940952D01*
X137650239Y-109893333D01*
X137459762Y-109893333D01*
X137364524Y-109940952D01*
X137316905Y-109988571D01*
X137269286Y-110083810D01*
X141916905Y-110537381D02*
X141916905Y-109537381D01*
X142155000Y-109537381D01*
X142297858Y-109585000D01*
X142393096Y-109680238D01*
X142440715Y-109775476D01*
X142488334Y-109965952D01*
X142488334Y-110108810D01*
X142440715Y-110299286D01*
X142393096Y-110394524D01*
X142297858Y-110489762D01*
X142155000Y-110537381D01*
X141916905Y-110537381D01*
X143059762Y-109965952D02*
X142964524Y-109918333D01*
X142916905Y-109870714D01*
X142869286Y-109775476D01*
X142869286Y-109727857D01*
X142916905Y-109632619D01*
X142964524Y-109585000D01*
X143059762Y-109537381D01*
X143250239Y-109537381D01*
X143345477Y-109585000D01*
X143393096Y-109632619D01*
X143440715Y-109727857D01*
X143440715Y-109775476D01*
X143393096Y-109870714D01*
X143345477Y-109918333D01*
X143250239Y-109965952D01*
X143059762Y-109965952D01*
X142964524Y-110013571D01*
X142916905Y-110061190D01*
X142869286Y-110156429D01*
X142869286Y-110346905D01*
X142916905Y-110442143D01*
X142964524Y-110489762D01*
X143059762Y-110537381D01*
X143250239Y-110537381D01*
X143345477Y-110489762D01*
X143393096Y-110442143D01*
X143440715Y-110346905D01*
X143440715Y-110156429D01*
X143393096Y-110061190D01*
X143345477Y-110013571D01*
X143250239Y-109965952D01*
X127502000Y-34650429D02*
X127502000Y-35739000D01*
X127429428Y-35956714D01*
X127284285Y-36101857D01*
X127066571Y-36174429D01*
X126921428Y-36174429D01*
X128953428Y-34650429D02*
X128227714Y-34650429D01*
X128155143Y-35376143D01*
X128227714Y-35303571D01*
X128372857Y-35231000D01*
X128735714Y-35231000D01*
X128880857Y-35303571D01*
X128953428Y-35376143D01*
X129026000Y-35521286D01*
X129026000Y-35884143D01*
X128953428Y-36029286D01*
X128880857Y-36101857D01*
X128735714Y-36174429D01*
X128372857Y-36174429D01*
X128227714Y-36101857D01*
X128155143Y-36029286D01*
X116278284Y-35685325D02*
X116205713Y-35757896D01*
X115987999Y-35830468D01*
X115842856Y-35830468D01*
X115625141Y-35757896D01*
X115479999Y-35612753D01*
X115407427Y-35467610D01*
X115334856Y-35177325D01*
X115334856Y-34959610D01*
X115407427Y-34669325D01*
X115479999Y-34524182D01*
X115625141Y-34379039D01*
X115842856Y-34306468D01*
X115987999Y-34306468D01*
X116205713Y-34379039D01*
X116278284Y-34451610D01*
X117149141Y-35830468D02*
X117003999Y-35757896D01*
X116931427Y-35685325D01*
X116858856Y-35540182D01*
X116858856Y-35104753D01*
X116931427Y-34959610D01*
X117003999Y-34887039D01*
X117149141Y-34814468D01*
X117366856Y-34814468D01*
X117511999Y-34887039D01*
X117584570Y-34959610D01*
X117657141Y-35104753D01*
X117657141Y-35540182D01*
X117584570Y-35685325D01*
X117511999Y-35757896D01*
X117366856Y-35830468D01*
X117149141Y-35830468D01*
X118310284Y-34814468D02*
X118310284Y-35830468D01*
X118310284Y-34959610D02*
X118382856Y-34887039D01*
X118527998Y-34814468D01*
X118745713Y-34814468D01*
X118890856Y-34887039D01*
X118963427Y-35032182D01*
X118963427Y-35830468D01*
X119689141Y-34814468D02*
X119689141Y-35830468D01*
X119689141Y-34959610D02*
X119761713Y-34887039D01*
X119906855Y-34814468D01*
X120124570Y-34814468D01*
X120269713Y-34887039D01*
X120342284Y-35032182D01*
X120342284Y-35830468D01*
X120705141Y-35975610D02*
X121866284Y-35975610D01*
X122519427Y-34306468D02*
X122664570Y-34306468D01*
X122809713Y-34379039D01*
X122882284Y-34451610D01*
X122954855Y-34596753D01*
X123027427Y-34887039D01*
X123027427Y-35249896D01*
X122954855Y-35540182D01*
X122882284Y-35685325D01*
X122809713Y-35757896D01*
X122664570Y-35830468D01*
X122519427Y-35830468D01*
X122374284Y-35757896D01*
X122301713Y-35685325D01*
X122229141Y-35540182D01*
X122156570Y-35249896D01*
X122156570Y-34887039D01*
X122229141Y-34596753D01*
X122301713Y-34451610D01*
X122374284Y-34379039D01*
X122519427Y-34306468D01*
X123607999Y-34451610D02*
X123680570Y-34379039D01*
X123825713Y-34306468D01*
X124188570Y-34306468D01*
X124333713Y-34379039D01*
X124406284Y-34451610D01*
X124478856Y-34596753D01*
X124478856Y-34741896D01*
X124406284Y-34959610D01*
X123535427Y-35830468D01*
X124478856Y-35830468D01*
X124986856Y-35830468D02*
X125785142Y-34814468D01*
X124986856Y-34814468D02*
X125785142Y-35830468D01*
X126293142Y-34451610D02*
X126365713Y-34379039D01*
X126510856Y-34306468D01*
X126873713Y-34306468D01*
X127018856Y-34379039D01*
X127091427Y-34451610D01*
X127163999Y-34596753D01*
X127163999Y-34741896D01*
X127091427Y-34959610D01*
X126220570Y-35830468D01*
X127163999Y-35830468D01*
X128470285Y-34306468D02*
X128179999Y-34306468D01*
X128034856Y-34379039D01*
X127962285Y-34451610D01*
X127817142Y-34669325D01*
X127744571Y-34959610D01*
X127744571Y-35540182D01*
X127817142Y-35685325D01*
X127889714Y-35757896D01*
X128034856Y-35830468D01*
X128325142Y-35830468D01*
X128470285Y-35757896D01*
X128542856Y-35685325D01*
X128615428Y-35540182D01*
X128615428Y-35177325D01*
X128542856Y-35032182D01*
X128470285Y-34959610D01*
X128325142Y-34887039D01*
X128034856Y-34887039D01*
X127889714Y-34959610D01*
X127817142Y-35032182D01*
X127744571Y-35177325D01*
X128905714Y-35975610D02*
X130066857Y-35975610D01*
X130720000Y-34306468D02*
X131010286Y-34306468D01*
X131155428Y-34379039D01*
X131300571Y-34524182D01*
X131373143Y-34814468D01*
X131373143Y-35322468D01*
X131300571Y-35612753D01*
X131155428Y-35757896D01*
X131010286Y-35830468D01*
X130720000Y-35830468D01*
X130574857Y-35757896D01*
X130429714Y-35612753D01*
X130357143Y-35322468D01*
X130357143Y-34814468D01*
X130429714Y-34524182D01*
X130574857Y-34379039D01*
X130720000Y-34306468D01*
X132679428Y-35830468D02*
X132679428Y-34306468D01*
X132679428Y-35757896D02*
X132534285Y-35830468D01*
X132243999Y-35830468D01*
X132098857Y-35757896D01*
X132026285Y-35685325D01*
X131953714Y-35540182D01*
X131953714Y-35104753D01*
X132026285Y-34959610D01*
X132098857Y-34887039D01*
X132243999Y-34814468D01*
X132534285Y-34814468D01*
X132679428Y-34887039D01*
X134058285Y-35830468D02*
X134058285Y-34306468D01*
X134058285Y-35757896D02*
X133913142Y-35830468D01*
X133622856Y-35830468D01*
X133477714Y-35757896D01*
X133405142Y-35685325D01*
X133332571Y-35540182D01*
X133332571Y-35104753D01*
X133405142Y-34959610D01*
X133477714Y-34887039D01*
X133622856Y-34814468D01*
X133913142Y-34814468D01*
X134058285Y-34887039D01*
X134421142Y-35975610D02*
X135582285Y-35975610D01*
X135945142Y-35032182D02*
X136453142Y-35032182D01*
X136670856Y-35830468D02*
X135945142Y-35830468D01*
X135945142Y-34306468D01*
X136670856Y-34306468D01*
X137178856Y-34814468D02*
X137541713Y-35830468D01*
X137904571Y-34814468D01*
X139065714Y-35757896D02*
X138920571Y-35830468D01*
X138630285Y-35830468D01*
X138485142Y-35757896D01*
X138412571Y-35612753D01*
X138412571Y-35032182D01*
X138485142Y-34887039D01*
X138630285Y-34814468D01*
X138920571Y-34814468D01*
X139065714Y-34887039D01*
X139138285Y-35032182D01*
X139138285Y-35177325D01*
X138412571Y-35322468D01*
X139791428Y-34814468D02*
X139791428Y-35830468D01*
X139791428Y-34959610D02*
X139864000Y-34887039D01*
X140009142Y-34814468D01*
X140226857Y-34814468D01*
X140372000Y-34887039D01*
X140444571Y-35032182D01*
X140444571Y-35830468D01*
X129672381Y-112581666D02*
X129196190Y-112915000D01*
X129672381Y-113153095D02*
X128672381Y-113153095D01*
X128672381Y-112772142D01*
X128720000Y-112676904D01*
X128767619Y-112629285D01*
X128862857Y-112581666D01*
X129005714Y-112581666D01*
X129100952Y-112629285D01*
X129148571Y-112676904D01*
X129196190Y-112772142D01*
X129196190Y-113153095D01*
X129672381Y-111629285D02*
X129672381Y-112200714D01*
X129672381Y-111915000D02*
X128672381Y-111915000D01*
X128815238Y-112010238D01*
X128910476Y-112105476D01*
X128958095Y-112200714D01*
X124153334Y-115517381D02*
X123820000Y-115041190D01*
X123581905Y-115517381D02*
X123581905Y-114517381D01*
X123962858Y-114517381D01*
X124058096Y-114565000D01*
X124105715Y-114612619D01*
X124153334Y-114707857D01*
X124153334Y-114850714D01*
X124105715Y-114945952D01*
X124058096Y-114993571D01*
X123962858Y-115041190D01*
X123581905Y-115041190D01*
X124534286Y-114612619D02*
X124581905Y-114565000D01*
X124677143Y-114517381D01*
X124915239Y-114517381D01*
X125010477Y-114565000D01*
X125058096Y-114612619D01*
X125105715Y-114707857D01*
X125105715Y-114803095D01*
X125058096Y-114945952D01*
X124486667Y-115517381D01*
X125105715Y-115517381D01*
X121928334Y-102592381D02*
X121595000Y-102116190D01*
X121356905Y-102592381D02*
X121356905Y-101592381D01*
X121737858Y-101592381D01*
X121833096Y-101640000D01*
X121880715Y-101687619D01*
X121928334Y-101782857D01*
X121928334Y-101925714D01*
X121880715Y-102020952D01*
X121833096Y-102068571D01*
X121737858Y-102116190D01*
X121356905Y-102116190D01*
X122261667Y-101592381D02*
X122880715Y-101592381D01*
X122547381Y-101973333D01*
X122690239Y-101973333D01*
X122785477Y-102020952D01*
X122833096Y-102068571D01*
X122880715Y-102163810D01*
X122880715Y-102401905D01*
X122833096Y-102497143D01*
X122785477Y-102544762D01*
X122690239Y-102592381D01*
X122404524Y-102592381D01*
X122309286Y-102544762D01*
X122261667Y-102497143D01*
X118928334Y-105992381D02*
X118595000Y-105516190D01*
X118356905Y-105992381D02*
X118356905Y-104992381D01*
X118737858Y-104992381D01*
X118833096Y-105040000D01*
X118880715Y-105087619D01*
X118928334Y-105182857D01*
X118928334Y-105325714D01*
X118880715Y-105420952D01*
X118833096Y-105468571D01*
X118737858Y-105516190D01*
X118356905Y-105516190D01*
X119785477Y-105325714D02*
X119785477Y-105992381D01*
X119547381Y-104944762D02*
X119309286Y-105659048D01*
X119928334Y-105659048D01*
X138763334Y-108962381D02*
X138430000Y-108486190D01*
X138191905Y-108962381D02*
X138191905Y-107962381D01*
X138572858Y-107962381D01*
X138668096Y-108010000D01*
X138715715Y-108057619D01*
X138763334Y-108152857D01*
X138763334Y-108295714D01*
X138715715Y-108390952D01*
X138668096Y-108438571D01*
X138572858Y-108486190D01*
X138191905Y-108486190D01*
X139668096Y-107962381D02*
X139191905Y-107962381D01*
X139144286Y-108438571D01*
X139191905Y-108390952D01*
X139287143Y-108343333D01*
X139525239Y-108343333D01*
X139620477Y-108390952D01*
X139668096Y-108438571D01*
X139715715Y-108533810D01*
X139715715Y-108771905D01*
X139668096Y-108867143D01*
X139620477Y-108914762D01*
X139525239Y-108962381D01*
X139287143Y-108962381D01*
X139191905Y-108914762D01*
X139144286Y-108867143D01*
X135288334Y-108962381D02*
X134955000Y-108486190D01*
X134716905Y-108962381D02*
X134716905Y-107962381D01*
X135097858Y-107962381D01*
X135193096Y-108010000D01*
X135240715Y-108057619D01*
X135288334Y-108152857D01*
X135288334Y-108295714D01*
X135240715Y-108390952D01*
X135193096Y-108438571D01*
X135097858Y-108486190D01*
X134716905Y-108486190D01*
X136145477Y-107962381D02*
X135955000Y-107962381D01*
X135859762Y-108010000D01*
X135812143Y-108057619D01*
X135716905Y-108200476D01*
X135669286Y-108390952D01*
X135669286Y-108771905D01*
X135716905Y-108867143D01*
X135764524Y-108914762D01*
X135859762Y-108962381D01*
X136050239Y-108962381D01*
X136145477Y-108914762D01*
X136193096Y-108867143D01*
X136240715Y-108771905D01*
X136240715Y-108533810D01*
X136193096Y-108438571D01*
X136145477Y-108390952D01*
X136050239Y-108343333D01*
X135859762Y-108343333D01*
X135764524Y-108390952D01*
X135716905Y-108438571D01*
X135669286Y-108533810D01*
X133763334Y-97387381D02*
X133430000Y-96911190D01*
X133191905Y-97387381D02*
X133191905Y-96387381D01*
X133572858Y-96387381D01*
X133668096Y-96435000D01*
X133715715Y-96482619D01*
X133763334Y-96577857D01*
X133763334Y-96720714D01*
X133715715Y-96815952D01*
X133668096Y-96863571D01*
X133572858Y-96911190D01*
X133191905Y-96911190D01*
X134096667Y-96387381D02*
X134763334Y-96387381D01*
X134334762Y-97387381D01*
X131113334Y-100137381D02*
X130780000Y-99661190D01*
X130541905Y-100137381D02*
X130541905Y-99137381D01*
X130922858Y-99137381D01*
X131018096Y-99185000D01*
X131065715Y-99232619D01*
X131113334Y-99327857D01*
X131113334Y-99470714D01*
X131065715Y-99565952D01*
X131018096Y-99613571D01*
X130922858Y-99661190D01*
X130541905Y-99661190D01*
X131684762Y-99565952D02*
X131589524Y-99518333D01*
X131541905Y-99470714D01*
X131494286Y-99375476D01*
X131494286Y-99327857D01*
X131541905Y-99232619D01*
X131589524Y-99185000D01*
X131684762Y-99137381D01*
X131875239Y-99137381D01*
X131970477Y-99185000D01*
X132018096Y-99232619D01*
X132065715Y-99327857D01*
X132065715Y-99375476D01*
X132018096Y-99470714D01*
X131970477Y-99518333D01*
X131875239Y-99565952D01*
X131684762Y-99565952D01*
X131589524Y-99613571D01*
X131541905Y-99661190D01*
X131494286Y-99756429D01*
X131494286Y-99946905D01*
X131541905Y-100042143D01*
X131589524Y-100089762D01*
X131684762Y-100137381D01*
X131875239Y-100137381D01*
X131970477Y-100089762D01*
X132018096Y-100042143D01*
X132065715Y-99946905D01*
X132065715Y-99756429D01*
X132018096Y-99661190D01*
X131970477Y-99613571D01*
X131875239Y-99565952D01*
D18*
X133978924Y-105816515D02*
X133978924Y-105976045D01*
X133988309Y-105994813D01*
X133997693Y-106004197D01*
X134016461Y-106013581D01*
X134053997Y-106013581D01*
X134072765Y-106004197D01*
X134082150Y-105994813D01*
X134091534Y-105976045D01*
X134091534Y-105816515D01*
X134175990Y-105835283D02*
X134185374Y-105825899D01*
X134204143Y-105816515D01*
X134251063Y-105816515D01*
X134269831Y-105825899D01*
X134279215Y-105835283D01*
X134288600Y-105854051D01*
X134288600Y-105872819D01*
X134279215Y-105900972D01*
X134166606Y-106013581D01*
X134288600Y-106013581D01*
D19*
D20*
X133602894Y-106361904D02*
X133602894Y-106164964D01*
X133668541Y-106305635D01*
X133734188Y-106164964D01*
X133734188Y-106361904D01*
X133827968Y-106361904D02*
X133827968Y-106164964D01*
X133902993Y-106164964D01*
X133921749Y-106174342D01*
X133931128Y-106183720D01*
X133940506Y-106202476D01*
X133940506Y-106230611D01*
X133931128Y-106249367D01*
X133921749Y-106258745D01*
X133902993Y-106268123D01*
X133827968Y-106268123D01*
X134024908Y-106361904D02*
X134024908Y-106164964D01*
X134090555Y-106305635D01*
X134156202Y-106164964D01*
X134156202Y-106361904D01*
X134231226Y-106164964D02*
X134353142Y-106164964D01*
X134287495Y-106239989D01*
X134315629Y-106239989D01*
X134334385Y-106249367D01*
X134343763Y-106258745D01*
X134353142Y-106277501D01*
X134353142Y-106324392D01*
X134343763Y-106343148D01*
X134334385Y-106352526D01*
X134315629Y-106361904D01*
X134259361Y-106361904D01*
X134240604Y-106352526D01*
X134231226Y-106343148D01*
X134521947Y-106164964D02*
X134484435Y-106164964D01*
X134465679Y-106174342D01*
X134456301Y-106183720D01*
X134437544Y-106211854D01*
X134428166Y-106249367D01*
X134428166Y-106324392D01*
X134437544Y-106343148D01*
X134446923Y-106352526D01*
X134465679Y-106361904D01*
X134503191Y-106361904D01*
X134521947Y-106352526D01*
X134531325Y-106343148D01*
X134540704Y-106324392D01*
X134540704Y-106277501D01*
X134531325Y-106258745D01*
X134521947Y-106249367D01*
X134503191Y-106239989D01*
X134465679Y-106239989D01*
X134446923Y-106249367D01*
X134437544Y-106258745D01*
X134428166Y-106277501D01*
X134615728Y-106183720D02*
X134625106Y-106174342D01*
X134643863Y-106164964D01*
X134690753Y-106164964D01*
X134709509Y-106174342D01*
X134718887Y-106183720D01*
X134728266Y-106202476D01*
X134728266Y-106221232D01*
X134718887Y-106249367D01*
X134606350Y-106361904D01*
X134728266Y-106361904D01*
X134850181Y-106164964D02*
X134868937Y-106164964D01*
X134887693Y-106174342D01*
X134897071Y-106183720D01*
X134906449Y-106202476D01*
X134915828Y-106239989D01*
X134915828Y-106286879D01*
X134906449Y-106324392D01*
X134897071Y-106343148D01*
X134887693Y-106352526D01*
X134868937Y-106361904D01*
X134850181Y-106361904D01*
X134831425Y-106352526D01*
X134822047Y-106343148D01*
X134812668Y-106324392D01*
X134803290Y-106286879D01*
X134803290Y-106239989D01*
X134812668Y-106202476D01*
X134822047Y-106183720D01*
X134831425Y-106174342D01*
X134850181Y-106164964D01*
D19*
D17*
X127501001Y-29574390D02*
X127501001Y-30662961D01*
X127428429Y-30880675D01*
X127283286Y-31025818D01*
X127065572Y-31098390D01*
X126920429Y-31098390D01*
X128081572Y-29574390D02*
X129025001Y-29574390D01*
X128517001Y-30154961D01*
X128734715Y-30154961D01*
X128879858Y-30227532D01*
X128952429Y-30300104D01*
X129025001Y-30445247D01*
X129025001Y-30808104D01*
X128952429Y-30953247D01*
X128879858Y-31025818D01*
X128734715Y-31098390D01*
X128299287Y-31098390D01*
X128154144Y-31025818D01*
X128081572Y-30953247D01*
X116361286Y-30953247D02*
X116288715Y-31025818D01*
X116071001Y-31098390D01*
X115925858Y-31098390D01*
X115708143Y-31025818D01*
X115563001Y-30880675D01*
X115490429Y-30735532D01*
X115417858Y-30445247D01*
X115417858Y-30227532D01*
X115490429Y-29937247D01*
X115563001Y-29792104D01*
X115708143Y-29646961D01*
X115925858Y-29574390D01*
X116071001Y-29574390D01*
X116288715Y-29646961D01*
X116361286Y-29719532D01*
X117232143Y-31098390D02*
X117087001Y-31025818D01*
X117014429Y-30953247D01*
X116941858Y-30808104D01*
X116941858Y-30372675D01*
X117014429Y-30227532D01*
X117087001Y-30154961D01*
X117232143Y-30082390D01*
X117449858Y-30082390D01*
X117595001Y-30154961D01*
X117667572Y-30227532D01*
X117740143Y-30372675D01*
X117740143Y-30808104D01*
X117667572Y-30953247D01*
X117595001Y-31025818D01*
X117449858Y-31098390D01*
X117232143Y-31098390D01*
X118393286Y-30082390D02*
X118393286Y-31098390D01*
X118393286Y-30227532D02*
X118465858Y-30154961D01*
X118611000Y-30082390D01*
X118828715Y-30082390D01*
X118973858Y-30154961D01*
X119046429Y-30300104D01*
X119046429Y-31098390D01*
X119772143Y-30082390D02*
X119772143Y-31098390D01*
X119772143Y-30227532D02*
X119844715Y-30154961D01*
X119989857Y-30082390D01*
X120207572Y-30082390D01*
X120352715Y-30154961D01*
X120425286Y-30300104D01*
X120425286Y-31098390D01*
X120788143Y-31243532D02*
X121949286Y-31243532D01*
X122602429Y-29574390D02*
X122747572Y-29574390D01*
X122892715Y-29646961D01*
X122965286Y-29719532D01*
X123037857Y-29864675D01*
X123110429Y-30154961D01*
X123110429Y-30517818D01*
X123037857Y-30808104D01*
X122965286Y-30953247D01*
X122892715Y-31025818D01*
X122747572Y-31098390D01*
X122602429Y-31098390D01*
X122457286Y-31025818D01*
X122384715Y-30953247D01*
X122312143Y-30808104D01*
X122239572Y-30517818D01*
X122239572Y-30154961D01*
X122312143Y-29864675D01*
X122384715Y-29719532D01*
X122457286Y-29646961D01*
X122602429Y-29574390D01*
X123691001Y-29719532D02*
X123763572Y-29646961D01*
X123908715Y-29574390D01*
X124271572Y-29574390D01*
X124416715Y-29646961D01*
X124489286Y-29719532D01*
X124561858Y-29864675D01*
X124561858Y-30009818D01*
X124489286Y-30227532D01*
X123618429Y-31098390D01*
X124561858Y-31098390D01*
X125069858Y-31098390D02*
X125868144Y-30082390D01*
X125069858Y-30082390D02*
X125868144Y-31098390D01*
X126376144Y-29719532D02*
X126448715Y-29646961D01*
X126593858Y-29574390D01*
X126956715Y-29574390D01*
X127101858Y-29646961D01*
X127174429Y-29719532D01*
X127247001Y-29864675D01*
X127247001Y-30009818D01*
X127174429Y-30227532D01*
X126303572Y-31098390D01*
X127247001Y-31098390D01*
X128553287Y-29574390D02*
X128263001Y-29574390D01*
X128117858Y-29646961D01*
X128045287Y-29719532D01*
X127900144Y-29937247D01*
X127827573Y-30227532D01*
X127827573Y-30808104D01*
X127900144Y-30953247D01*
X127972716Y-31025818D01*
X128117858Y-31098390D01*
X128408144Y-31098390D01*
X128553287Y-31025818D01*
X128625858Y-30953247D01*
X128698430Y-30808104D01*
X128698430Y-30445247D01*
X128625858Y-30300104D01*
X128553287Y-30227532D01*
X128408144Y-30154961D01*
X128117858Y-30154961D01*
X127972716Y-30227532D01*
X127900144Y-30300104D01*
X127827573Y-30445247D01*
X128988716Y-31243532D02*
X130149859Y-31243532D01*
X130803002Y-29574390D02*
X131093288Y-29574390D01*
X131238430Y-29646961D01*
X131383573Y-29792104D01*
X131456145Y-30082390D01*
X131456145Y-30590390D01*
X131383573Y-30880675D01*
X131238430Y-31025818D01*
X131093288Y-31098390D01*
X130803002Y-31098390D01*
X130657859Y-31025818D01*
X130512716Y-30880675D01*
X130440145Y-30590390D01*
X130440145Y-30082390D01*
X130512716Y-29792104D01*
X130657859Y-29646961D01*
X130803002Y-29574390D01*
X132762430Y-31098390D02*
X132762430Y-29574390D01*
X132762430Y-31025818D02*
X132617287Y-31098390D01*
X132327001Y-31098390D01*
X132181859Y-31025818D01*
X132109287Y-30953247D01*
X132036716Y-30808104D01*
X132036716Y-30372675D01*
X132109287Y-30227532D01*
X132181859Y-30154961D01*
X132327001Y-30082390D01*
X132617287Y-30082390D01*
X132762430Y-30154961D01*
X134141287Y-31098390D02*
X134141287Y-29574390D01*
X134141287Y-31025818D02*
X133996144Y-31098390D01*
X133705858Y-31098390D01*
X133560716Y-31025818D01*
X133488144Y-30953247D01*
X133415573Y-30808104D01*
X133415573Y-30372675D01*
X133488144Y-30227532D01*
X133560716Y-30154961D01*
X133705858Y-30082390D01*
X133996144Y-30082390D01*
X134141287Y-30154961D01*
X134504144Y-31243532D02*
X135665287Y-31243532D01*
X136028144Y-30300104D02*
X136536144Y-30300104D01*
X136753858Y-31098390D02*
X136028144Y-31098390D01*
X136028144Y-29574390D01*
X136753858Y-29574390D01*
X137261858Y-30082390D02*
X137624715Y-31098390D01*
X137987573Y-30082390D01*
X139148716Y-31025818D02*
X139003573Y-31098390D01*
X138713287Y-31098390D01*
X138568144Y-31025818D01*
X138495573Y-30880675D01*
X138495573Y-30300104D01*
X138568144Y-30154961D01*
X138713287Y-30082390D01*
X139003573Y-30082390D01*
X139148716Y-30154961D01*
X139221287Y-30300104D01*
X139221287Y-30445247D01*
X138495573Y-30590390D01*
X139874430Y-30082390D02*
X139874430Y-31098390D01*
X139874430Y-30227532D02*
X139947002Y-30154961D01*
X140092144Y-30082390D01*
X140309859Y-30082390D01*
X140455002Y-30154961D01*
X140527573Y-30300104D01*
X140527573Y-31098390D01*
D18*
X120944854Y-106057083D02*
X120944854Y-106216613D01*
X120954239Y-106235381D01*
X120963623Y-106244765D01*
X120982391Y-106254149D01*
X121019927Y-106254149D01*
X121038695Y-106244765D01*
X121048080Y-106235381D01*
X121057464Y-106216613D01*
X121057464Y-106057083D01*
X121254530Y-106254149D02*
X121141920Y-106254149D01*
X121198225Y-106254149D02*
X121198225Y-106057083D01*
X121179457Y-106085235D01*
X121160689Y-106104003D01*
X121141920Y-106113387D01*
D19*
D20*
X123234092Y-109916778D02*
X123037152Y-109916778D01*
X123177823Y-109851131D01*
X123037152Y-109785484D01*
X123234092Y-109785484D01*
X123234092Y-109691704D02*
X123037152Y-109691704D01*
X123037152Y-109616679D01*
X123046530Y-109597923D01*
X123055908Y-109588544D01*
X123074664Y-109579166D01*
X123102799Y-109579166D01*
X123121555Y-109588544D01*
X123130933Y-109597923D01*
X123140311Y-109616679D01*
X123140311Y-109691704D01*
X123234092Y-109494764D02*
X123037152Y-109494764D01*
X123177823Y-109429117D01*
X123037152Y-109363470D01*
X123234092Y-109363470D01*
X123037152Y-109288446D02*
X123037152Y-109166530D01*
X123112177Y-109232177D01*
X123112177Y-109204043D01*
X123121555Y-109185287D01*
X123130933Y-109175909D01*
X123149689Y-109166530D01*
X123196580Y-109166530D01*
X123215336Y-109175909D01*
X123224714Y-109185287D01*
X123234092Y-109204043D01*
X123234092Y-109260311D01*
X123224714Y-109279068D01*
X123215336Y-109288446D01*
X123037152Y-108997725D02*
X123037152Y-109035237D01*
X123046530Y-109053993D01*
X123055908Y-109063371D01*
X123084042Y-109082128D01*
X123121555Y-109091506D01*
X123196580Y-109091506D01*
X123215336Y-109082128D01*
X123224714Y-109072749D01*
X123234092Y-109053993D01*
X123234092Y-109016481D01*
X123224714Y-108997725D01*
X123215336Y-108988347D01*
X123196580Y-108978968D01*
X123149689Y-108978968D01*
X123130933Y-108988347D01*
X123121555Y-108997725D01*
X123112177Y-109016481D01*
X123112177Y-109053993D01*
X123121555Y-109072749D01*
X123130933Y-109082128D01*
X123149689Y-109091506D01*
X123055908Y-108903944D02*
X123046530Y-108894566D01*
X123037152Y-108875809D01*
X123037152Y-108828919D01*
X123046530Y-108810163D01*
X123055908Y-108800785D01*
X123074664Y-108791406D01*
X123093420Y-108791406D01*
X123121555Y-108800785D01*
X123234092Y-108913322D01*
X123234092Y-108791406D01*
X123037152Y-108669491D02*
X123037152Y-108650735D01*
X123046530Y-108631979D01*
X123055908Y-108622601D01*
X123074664Y-108613223D01*
X123112177Y-108603844D01*
X123159067Y-108603844D01*
X123196580Y-108613223D01*
X123215336Y-108622601D01*
X123224714Y-108631979D01*
X123234092Y-108650735D01*
X123234092Y-108669491D01*
X123224714Y-108688247D01*
X123215336Y-108697625D01*
X123196580Y-108707004D01*
X123159067Y-108716382D01*
X123112177Y-108716382D01*
X123074664Y-108707004D01*
X123055908Y-108697625D01*
X123046530Y-108688247D01*
X123037152Y-108669491D01*
D19*
D17*
X87866667Y-73232381D02*
X87866667Y-73946667D01*
X87819047Y-74089524D01*
X87723809Y-74184762D01*
X87580952Y-74232381D01*
X87485714Y-74232381D01*
X88247619Y-73232381D02*
X88914286Y-73232381D01*
X88485714Y-74232381D01*
X87926667Y-64912381D02*
X87926667Y-65626667D01*
X87879047Y-65769524D01*
X87783809Y-65864762D01*
X87640952Y-65912381D01*
X87545714Y-65912381D01*
X88545714Y-65340952D02*
X88450476Y-65293333D01*
X88402857Y-65245714D01*
X88355238Y-65150476D01*
X88355238Y-65102857D01*
X88402857Y-65007619D01*
X88450476Y-64960000D01*
X88545714Y-64912381D01*
X88736191Y-64912381D01*
X88831429Y-64960000D01*
X88879048Y-65007619D01*
X88926667Y-65102857D01*
X88926667Y-65150476D01*
X88879048Y-65245714D01*
X88831429Y-65293333D01*
X88736191Y-65340952D01*
X88545714Y-65340952D01*
X88450476Y-65388571D01*
X88402857Y-65436190D01*
X88355238Y-65531429D01*
X88355238Y-65721905D01*
X88402857Y-65817143D01*
X88450476Y-65864762D01*
X88545714Y-65912381D01*
X88736191Y-65912381D01*
X88831429Y-65864762D01*
X88879048Y-65817143D01*
X88926667Y-65721905D01*
X88926667Y-65531429D01*
X88879048Y-65436190D01*
X88831429Y-65388571D01*
X88736191Y-65340952D01*
X169156667Y-48712381D02*
X169156667Y-49426667D01*
X169109047Y-49569524D01*
X169013809Y-49664762D01*
X168870952Y-49712381D01*
X168775714Y-49712381D01*
X170061429Y-48712381D02*
X169870952Y-48712381D01*
X169775714Y-48760000D01*
X169728095Y-48807619D01*
X169632857Y-48950476D01*
X169585238Y-49140952D01*
X169585238Y-49521905D01*
X169632857Y-49617143D01*
X169680476Y-49664762D01*
X169775714Y-49712381D01*
X169966191Y-49712381D01*
X170061429Y-49664762D01*
X170109048Y-49617143D01*
X170156667Y-49521905D01*
X170156667Y-49283810D01*
X170109048Y-49188571D01*
X170061429Y-49140952D01*
X169966191Y-49093333D01*
X169775714Y-49093333D01*
X169680476Y-49140952D01*
X169632857Y-49188571D01*
X169585238Y-49283810D01*
X102541667Y-101977381D02*
X102541667Y-102691667D01*
X102494047Y-102834524D01*
X102398809Y-102929762D01*
X102255952Y-102977381D01*
X102160714Y-102977381D01*
X102970238Y-102072619D02*
X103017857Y-102025000D01*
X103113095Y-101977381D01*
X103351191Y-101977381D01*
X103446429Y-102025000D01*
X103494048Y-102072619D01*
X103541667Y-102167857D01*
X103541667Y-102263095D01*
X103494048Y-102405952D01*
X102922619Y-102977381D01*
X103541667Y-102977381D01*
X153427381Y-96816666D02*
X152951190Y-97150000D01*
X153427381Y-97388095D02*
X152427381Y-97388095D01*
X152427381Y-97007142D01*
X152475000Y-96911904D01*
X152522619Y-96864285D01*
X152617857Y-96816666D01*
X152760714Y-96816666D01*
X152855952Y-96864285D01*
X152903571Y-96911904D01*
X152951190Y-97007142D01*
X152951190Y-97388095D01*
X153427381Y-96340476D02*
X153427381Y-96150000D01*
X153379762Y-96054761D01*
X153332143Y-96007142D01*
X153189286Y-95911904D01*
X152998810Y-95864285D01*
X152617857Y-95864285D01*
X152522619Y-95911904D01*
X152475000Y-95959523D01*
X152427381Y-96054761D01*
X152427381Y-96245238D01*
X152475000Y-96340476D01*
X152522619Y-96388095D01*
X152617857Y-96435714D01*
X152855952Y-96435714D01*
X152951190Y-96388095D01*
X152998810Y-96340476D01*
X153046429Y-96245238D01*
X153046429Y-96054761D01*
X152998810Y-95959523D01*
X152951190Y-95911904D01*
X152855952Y-95864285D01*
X79285477Y-86952381D02*
X79285477Y-87666667D01*
X79237857Y-87809524D01*
X79142619Y-87904762D01*
X78999762Y-87952381D01*
X78904524Y-87952381D01*
X80285477Y-87952381D02*
X79714048Y-87952381D01*
X79999762Y-87952381D02*
X79999762Y-86952381D01*
X79904524Y-87095238D01*
X79809286Y-87190476D01*
X79714048Y-87238095D01*
X80904524Y-86952381D02*
X80999763Y-86952381D01*
X81095001Y-87000000D01*
X81142620Y-87047619D01*
X81190239Y-87142857D01*
X81237858Y-87333333D01*
X81237858Y-87571429D01*
X81190239Y-87761905D01*
X81142620Y-87857143D01*
X81095001Y-87904762D01*
X80999763Y-87952381D01*
X80904524Y-87952381D01*
X80809286Y-87904762D01*
X80761667Y-87857143D01*
X80714048Y-87761905D01*
X80666429Y-87571429D01*
X80666429Y-87333333D01*
X80714048Y-87142857D01*
X80761667Y-87047619D01*
X80809286Y-87000000D01*
X80904524Y-86952381D01*
X85516667Y-29704762D02*
X85659524Y-29752381D01*
X85897620Y-29752381D01*
X85992858Y-29704762D01*
X86040477Y-29657143D01*
X86088096Y-29561905D01*
X86088096Y-29466667D01*
X86040477Y-29371429D01*
X85992858Y-29323810D01*
X85897620Y-29276190D01*
X85707143Y-29228571D01*
X85611905Y-29180952D01*
X85564286Y-29133333D01*
X85516667Y-29038095D01*
X85516667Y-28942857D01*
X85564286Y-28847619D01*
X85611905Y-28800000D01*
X85707143Y-28752381D01*
X85945239Y-28752381D01*
X86088096Y-28800000D01*
X86421429Y-28752381D02*
X86659524Y-29752381D01*
X86850001Y-29038095D01*
X87040477Y-29752381D01*
X87278572Y-28752381D01*
X88183334Y-29752381D02*
X87611905Y-29752381D01*
X87897619Y-29752381D02*
X87897619Y-28752381D01*
X87802381Y-28895238D01*
X87707143Y-28990476D01*
X87611905Y-29038095D01*
X85691667Y-39104762D02*
X85834524Y-39152381D01*
X86072620Y-39152381D01*
X86167858Y-39104762D01*
X86215477Y-39057143D01*
X86263096Y-38961905D01*
X86263096Y-38866667D01*
X86215477Y-38771429D01*
X86167858Y-38723810D01*
X86072620Y-38676190D01*
X85882143Y-38628571D01*
X85786905Y-38580952D01*
X85739286Y-38533333D01*
X85691667Y-38438095D01*
X85691667Y-38342857D01*
X85739286Y-38247619D01*
X85786905Y-38200000D01*
X85882143Y-38152381D01*
X86120239Y-38152381D01*
X86263096Y-38200000D01*
X86596429Y-38152381D02*
X86834524Y-39152381D01*
X87025001Y-38438095D01*
X87215477Y-39152381D01*
X87453572Y-38152381D01*
X87786905Y-38247619D02*
X87834524Y-38200000D01*
X87929762Y-38152381D01*
X88167858Y-38152381D01*
X88263096Y-38200000D01*
X88310715Y-38247619D01*
X88358334Y-38342857D01*
X88358334Y-38438095D01*
X88310715Y-38580952D01*
X87739286Y-39152381D01*
X88358334Y-39152381D01*
X85566667Y-34279762D02*
X85709524Y-34327381D01*
X85947620Y-34327381D01*
X86042858Y-34279762D01*
X86090477Y-34232143D01*
X86138096Y-34136905D01*
X86138096Y-34041667D01*
X86090477Y-33946429D01*
X86042858Y-33898810D01*
X85947620Y-33851190D01*
X85757143Y-33803571D01*
X85661905Y-33755952D01*
X85614286Y-33708333D01*
X85566667Y-33613095D01*
X85566667Y-33517857D01*
X85614286Y-33422619D01*
X85661905Y-33375000D01*
X85757143Y-33327381D01*
X85995239Y-33327381D01*
X86138096Y-33375000D01*
X86471429Y-33327381D02*
X86709524Y-34327381D01*
X86900001Y-33613095D01*
X87090477Y-34327381D01*
X87328572Y-33327381D01*
X87614286Y-33327381D02*
X88233334Y-33327381D01*
X87900000Y-33708333D01*
X88042858Y-33708333D01*
X88138096Y-33755952D01*
X88185715Y-33803571D01*
X88233334Y-33898810D01*
X88233334Y-34136905D01*
X88185715Y-34232143D01*
X88138096Y-34279762D01*
X88042858Y-34327381D01*
X87757143Y-34327381D01*
X87661905Y-34279762D01*
X87614286Y-34232143D01*
X125903334Y-102397143D02*
X125855715Y-102444762D01*
X125712858Y-102492381D01*
X125617620Y-102492381D01*
X125474762Y-102444762D01*
X125379524Y-102349524D01*
X125331905Y-102254286D01*
X125284286Y-102063810D01*
X125284286Y-101920952D01*
X125331905Y-101730476D01*
X125379524Y-101635238D01*
X125474762Y-101540000D01*
X125617620Y-101492381D01*
X125712858Y-101492381D01*
X125855715Y-101540000D01*
X125903334Y-101587619D01*
X126855715Y-102492381D02*
X126284286Y-102492381D01*
X126570000Y-102492381D02*
X126570000Y-101492381D01*
X126474762Y-101635238D01*
X126379524Y-101730476D01*
X126284286Y-101778095D01*
X129677143Y-108906666D02*
X129724762Y-108954285D01*
X129772381Y-109097142D01*
X129772381Y-109192380D01*
X129724762Y-109335238D01*
X129629524Y-109430476D01*
X129534286Y-109478095D01*
X129343810Y-109525714D01*
X129200952Y-109525714D01*
X129010476Y-109478095D01*
X128915238Y-109430476D01*
X128820000Y-109335238D01*
X128772381Y-109192380D01*
X128772381Y-109097142D01*
X128820000Y-108954285D01*
X128867619Y-108906666D01*
X128867619Y-108525714D02*
X128820000Y-108478095D01*
X128772381Y-108382857D01*
X128772381Y-108144761D01*
X128820000Y-108049523D01*
X128867619Y-108001904D01*
X128962857Y-107954285D01*
X129058095Y-107954285D01*
X129200952Y-108001904D01*
X129772381Y-108573333D01*
X129772381Y-107954285D01*
X137838334Y-96617143D02*
X137790715Y-96664762D01*
X137647858Y-96712381D01*
X137552620Y-96712381D01*
X137409762Y-96664762D01*
X137314524Y-96569524D01*
X137266905Y-96474286D01*
X137219286Y-96283810D01*
X137219286Y-96140952D01*
X137266905Y-95950476D01*
X137314524Y-95855238D01*
X137409762Y-95760000D01*
X137552620Y-95712381D01*
X137647858Y-95712381D01*
X137790715Y-95760000D01*
X137838334Y-95807619D01*
X138171667Y-95712381D02*
X138790715Y-95712381D01*
X138457381Y-96093333D01*
X138600239Y-96093333D01*
X138695477Y-96140952D01*
X138743096Y-96188571D01*
X138790715Y-96283810D01*
X138790715Y-96521905D01*
X138743096Y-96617143D01*
X138695477Y-96664762D01*
X138600239Y-96712381D01*
X138314524Y-96712381D01*
X138219286Y-96664762D01*
X138171667Y-96617143D01*
X141412143Y-102701666D02*
X141459762Y-102749285D01*
X141507381Y-102892142D01*
X141507381Y-102987380D01*
X141459762Y-103130238D01*
X141364524Y-103225476D01*
X141269286Y-103273095D01*
X141078810Y-103320714D01*
X140935952Y-103320714D01*
X140745476Y-103273095D01*
X140650238Y-103225476D01*
X140555000Y-103130238D01*
X140507381Y-102987380D01*
X140507381Y-102892142D01*
X140555000Y-102749285D01*
X140602619Y-102701666D01*
X140840714Y-101844523D02*
X141507381Y-101844523D01*
X140459762Y-102082619D02*
X141174048Y-102320714D01*
X141174048Y-101701666D01*
M02*
