G04 #@! TF.FileFunction,Paste,Top*
%FSLAX45Y45*%
G04 Gerber Fmt 4.5, Leading zero omitted, Abs format (unit mm)*
G04 Created by KiCad (PCBNEW 4.0.7) date 02/13/18 13:39:06*
%MOMM*%
%LPD*%
G01*
G04 APERTURE LIST*
%ADD10C,0.100000*%
%ADD11R,1.300000X0.700000*%
%ADD12R,0.330200X1.193800*%
%ADD13R,3.000000X6.000000*%
%ADD14R,0.800000X0.750000*%
%ADD15R,1.600000X1.000000*%
%ADD16C,1.524000*%
%ADD17R,0.700000X1.300000*%
%ADD18R,0.700000X0.250000*%
%ADD19R,1.100000X0.250000*%
%ADD20R,0.250000X0.700000*%
%ADD21R,0.250000X1.100000*%
%ADD22R,0.600000X1.950000*%
%ADD23R,3.300000X4.400000*%
%ADD24R,3.900000X6.200000*%
%ADD25R,0.900000X1.700000*%
%ADD26R,1.250000X1.000000*%
G04 APERTURE END LIST*
D10*
D11*
X16080000Y-9612500D03*
X16080000Y-9802500D03*
D12*
X15600000Y-4320000D03*
X15550000Y-4320000D03*
X15500000Y-4320000D03*
X15450000Y-4320000D03*
X15400000Y-4320000D03*
X15350000Y-4320000D03*
X15300000Y-4320000D03*
X15250000Y-4320000D03*
X15200000Y-4320000D03*
X15150000Y-4320000D03*
X15100000Y-4320000D03*
X15050000Y-4320000D03*
X15000000Y-4320000D03*
X14950000Y-4320000D03*
X14900000Y-4320000D03*
X14850000Y-4320000D03*
X14800000Y-4320000D03*
X14750000Y-4320000D03*
X14700000Y-4320000D03*
X14650000Y-4320000D03*
X14600000Y-4320000D03*
X14550000Y-4320000D03*
X14500000Y-4320000D03*
X14450000Y-4320000D03*
X14400000Y-4320000D03*
X14350000Y-4320000D03*
X14300000Y-4320000D03*
X14250000Y-4320000D03*
X14200000Y-4320000D03*
X14150000Y-4320000D03*
X14100000Y-4320000D03*
X14050000Y-4320000D03*
X14000000Y-4320000D03*
X13950000Y-4320000D03*
X13900000Y-4320000D03*
X13850000Y-4320000D03*
X13800000Y-4320000D03*
X13750000Y-4320000D03*
X13700000Y-4320000D03*
X13650000Y-4320000D03*
X13600000Y-4320000D03*
X13550000Y-4320000D03*
X13500000Y-4320000D03*
X13450000Y-4320000D03*
X13400000Y-4320000D03*
X13350000Y-4320000D03*
X13300000Y-4320000D03*
X13250000Y-4320000D03*
X13200000Y-4320000D03*
X13150000Y-4320000D03*
X13100000Y-4320000D03*
X13050000Y-4320000D03*
X13000000Y-4320000D03*
X12950000Y-4320000D03*
X12900000Y-4320000D03*
X12850000Y-4320000D03*
X12800000Y-4320000D03*
X12750000Y-4320000D03*
X12700000Y-4320000D03*
X12650000Y-4320000D03*
X12600000Y-4320000D03*
X12550000Y-4320000D03*
X12500000Y-4320000D03*
X12450000Y-4320000D03*
X12400000Y-4320000D03*
X12350000Y-4320000D03*
X12300000Y-4320000D03*
X12250000Y-4320000D03*
X12200000Y-4320000D03*
X12150000Y-4320000D03*
X12100000Y-4320000D03*
X12050000Y-4320000D03*
X12000000Y-4320000D03*
X11950000Y-4320000D03*
X11900000Y-4320000D03*
X11850000Y-4320000D03*
X11800000Y-4320000D03*
X11750000Y-4320000D03*
X11700000Y-4320000D03*
X11650000Y-4320000D03*
X11600000Y-4320000D03*
X11550000Y-4320000D03*
X11500000Y-4320000D03*
X11450000Y-4320000D03*
X11400000Y-4320000D03*
X11350000Y-4320000D03*
X11300000Y-4320000D03*
X11250000Y-4320000D03*
X11200000Y-4320000D03*
X11150000Y-4320000D03*
X11100000Y-4320000D03*
X11050000Y-4320000D03*
X11000000Y-4320000D03*
X10950000Y-4320000D03*
X10900000Y-4320000D03*
X10850000Y-4320000D03*
X10800000Y-4320000D03*
X10750000Y-4320000D03*
X10700000Y-4320000D03*
X10650000Y-4320000D03*
X10600000Y-4320000D03*
X10550000Y-4320000D03*
X10500000Y-4320000D03*
X10450000Y-4320000D03*
X10400000Y-4320000D03*
X10350000Y-4320000D03*
X10300000Y-4320000D03*
X10250000Y-4320000D03*
X10200000Y-4320000D03*
X10150000Y-4320000D03*
X15600000Y-4850000D03*
X15550000Y-4850000D03*
X15500000Y-4850000D03*
X15450000Y-4850000D03*
X15400000Y-4850000D03*
X15100000Y-4850000D03*
X15050000Y-4850000D03*
X15000000Y-4850000D03*
X14950000Y-4850000D03*
X14900000Y-4850000D03*
X14850000Y-4850000D03*
X14800000Y-4850000D03*
X14750000Y-4850000D03*
X14700000Y-4850000D03*
X14650000Y-4850000D03*
X14600000Y-4850000D03*
X14550000Y-4850000D03*
X14500000Y-4850000D03*
X14450000Y-4850000D03*
X14400000Y-4850000D03*
X14350000Y-4850000D03*
X14300000Y-4850000D03*
X14250000Y-4850000D03*
X14200000Y-4850000D03*
X14150000Y-4850000D03*
X14100000Y-4850000D03*
X14050000Y-4850000D03*
X14000000Y-4850000D03*
X13950000Y-4850000D03*
X13900000Y-4850000D03*
X13850000Y-4850000D03*
X13800000Y-4850000D03*
X13750000Y-4850000D03*
X13700000Y-4850000D03*
X13650000Y-4850000D03*
X13600000Y-4850000D03*
X13550000Y-4850000D03*
X13500000Y-4850000D03*
X13450000Y-4850000D03*
X13400000Y-4850000D03*
X13350000Y-4850000D03*
X13300000Y-4850000D03*
X13250000Y-4850000D03*
X13200000Y-4850000D03*
X13150000Y-4850000D03*
X13100000Y-4850000D03*
X13050000Y-4850000D03*
X13000000Y-4850000D03*
X12950000Y-4850000D03*
X12900000Y-4850000D03*
X12850000Y-4850000D03*
X12800000Y-4850000D03*
X12750000Y-4850000D03*
X12700000Y-4850000D03*
X12650000Y-4850000D03*
X12600000Y-4850000D03*
X12550000Y-4850000D03*
X12500000Y-4850000D03*
X12450000Y-4850000D03*
X12400000Y-4850000D03*
X12350000Y-4850000D03*
X12300000Y-4850000D03*
X12250000Y-4850000D03*
X12200000Y-4850000D03*
X12150000Y-4850000D03*
X12100000Y-4850000D03*
X12050000Y-4850000D03*
X12000000Y-4850000D03*
X11950000Y-4850000D03*
X11900000Y-4850000D03*
X11850000Y-4850000D03*
X11800000Y-4850000D03*
X11750000Y-4850000D03*
X11700000Y-4850000D03*
X11650000Y-4850000D03*
X11600000Y-4850000D03*
X11550000Y-4850000D03*
X11500000Y-4850000D03*
X11450000Y-4850000D03*
X11400000Y-4850000D03*
X11350000Y-4850000D03*
X11300000Y-4850000D03*
X11250000Y-4850000D03*
X11200000Y-4850000D03*
X11150000Y-4850000D03*
X11100000Y-4850000D03*
X11050000Y-4850000D03*
X11000000Y-4850000D03*
X10950000Y-4850000D03*
X10900000Y-4850000D03*
X10850000Y-4850000D03*
X10800000Y-4850000D03*
X10750000Y-4850000D03*
X10700000Y-4850000D03*
X10650000Y-4850000D03*
X10600000Y-4850000D03*
X10550000Y-4850000D03*
X10500000Y-4850000D03*
X10450000Y-4850000D03*
X10400000Y-4850000D03*
X10350000Y-4850000D03*
X10300000Y-4850000D03*
X10250000Y-4850000D03*
X10200000Y-4850000D03*
X10150000Y-4850000D03*
D13*
X15966600Y-4583300D03*
X9781700Y-4583300D03*
D14*
X16046000Y-7924000D03*
X16196000Y-7924000D03*
X16200000Y-7250000D03*
X16050000Y-7250000D03*
X16261000Y-6023000D03*
X16111000Y-6023000D03*
D15*
X13988000Y-11448500D03*
X13988000Y-11148500D03*
X13708000Y-11443500D03*
X13708000Y-11143500D03*
X14268000Y-11448500D03*
X14268000Y-11148500D03*
D16*
X9626000Y-3675500D03*
X9626000Y-3421500D03*
X9880000Y-3675500D03*
X9880000Y-3421500D03*
X10134000Y-3675500D03*
X10134000Y-3421500D03*
X10388000Y-3675500D03*
X10388000Y-3421500D03*
X10642000Y-3675500D03*
X10642000Y-3421500D03*
X10896000Y-3675500D03*
X10896000Y-3421500D03*
X11150000Y-3675500D03*
X11150000Y-3421500D03*
X11404000Y-3675500D03*
X11404000Y-3421500D03*
X11658000Y-3675500D03*
X11658000Y-3421500D03*
X11912000Y-3675500D03*
X11912000Y-3421500D03*
X12166000Y-3675500D03*
X12166000Y-3421500D03*
X12420000Y-3675500D03*
X12420000Y-3421500D03*
X12674000Y-3675500D03*
X12674000Y-3421500D03*
X12928000Y-3675500D03*
X12928000Y-3421500D03*
X13182000Y-3675500D03*
X13182000Y-3421500D03*
X13436000Y-3675500D03*
X13436000Y-3421500D03*
X13690000Y-3675500D03*
X13690000Y-3421500D03*
X13944000Y-3675500D03*
X13944000Y-3421500D03*
X14198000Y-3675500D03*
X14198000Y-3421500D03*
X14452000Y-3675500D03*
X14452000Y-3421500D03*
X14706000Y-3675500D03*
X14706000Y-3421500D03*
X14960000Y-3675500D03*
X14960000Y-3421500D03*
X15214000Y-3675500D03*
X15214000Y-3421500D03*
X15468000Y-3675500D03*
X15468000Y-3421500D03*
X15722000Y-3675500D03*
X15722000Y-3421500D03*
X15976000Y-3675500D03*
X15976000Y-3421500D03*
D11*
X12757000Y-11146500D03*
X12757000Y-11336500D03*
D17*
X12527000Y-11341500D03*
X12337000Y-11341500D03*
X12302000Y-10391500D03*
X12112000Y-10391500D03*
D11*
X11907000Y-10671500D03*
X11907000Y-10861500D03*
D17*
X13988000Y-10686000D03*
X13798000Y-10686000D03*
X13640500Y-10686000D03*
X13450500Y-10686000D03*
X13485500Y-9856000D03*
X13295500Y-9856000D03*
D11*
X13128000Y-10088500D03*
X13128000Y-10278500D03*
D18*
X13353000Y-10159639D03*
D19*
X13373000Y-10224639D03*
X13373000Y-10289639D03*
D18*
X13353000Y-10354639D03*
X13353000Y-10439639D03*
X13353000Y-10524639D03*
X13643000Y-10524639D03*
X13643000Y-10439639D03*
X13643000Y-10354639D03*
D19*
X13623000Y-10289639D03*
X13623000Y-10224639D03*
D18*
X13643000Y-10159639D03*
D20*
X13623000Y-10069639D03*
X13573000Y-10069639D03*
D21*
X13523000Y-10089639D03*
X13473000Y-10089639D03*
D20*
X13423000Y-10069639D03*
X13373000Y-10069639D03*
D22*
X13398000Y-10439639D03*
X13598000Y-10439639D03*
D16*
X9625900Y-3167896D03*
X9625900Y-2913896D03*
X9879900Y-3167896D03*
X9879900Y-2913896D03*
X10133900Y-3167896D03*
X10133900Y-2913896D03*
X10387900Y-3167896D03*
X10387900Y-2913896D03*
X10641900Y-3167896D03*
X10641900Y-2913896D03*
X10895900Y-3167896D03*
X10895900Y-2913896D03*
X11149900Y-3167896D03*
X11149900Y-2913896D03*
X11403900Y-3167896D03*
X11403900Y-2913896D03*
X11657900Y-3167896D03*
X11657900Y-2913896D03*
X11911900Y-3167896D03*
X11911900Y-2913896D03*
X12165900Y-3167896D03*
X12165900Y-2913896D03*
X12419900Y-3167896D03*
X12419900Y-2913896D03*
X12673900Y-3167896D03*
X12673900Y-2913896D03*
X12927900Y-3167896D03*
X12927900Y-2913896D03*
X13181900Y-3167896D03*
X13181900Y-2913896D03*
X13435900Y-3167896D03*
X13435900Y-2913896D03*
X13689900Y-3167896D03*
X13689900Y-2913896D03*
X13943900Y-3167896D03*
X13943900Y-2913896D03*
X14197900Y-3167896D03*
X14197900Y-2913896D03*
X14451900Y-3167896D03*
X14451900Y-2913896D03*
X14705900Y-3167896D03*
X14705900Y-2913896D03*
X14959900Y-3167896D03*
X14959900Y-2913896D03*
X15213900Y-3167896D03*
X15213900Y-2913896D03*
X15467900Y-3167896D03*
X15467900Y-2913896D03*
X15721900Y-3167896D03*
X15721900Y-2913896D03*
X15975900Y-3167896D03*
X15975900Y-2913896D03*
D18*
X12162000Y-10761500D03*
D19*
X12182000Y-10826500D03*
X12182000Y-10891500D03*
D18*
X12162000Y-10956500D03*
X12162000Y-11041500D03*
X12162000Y-11126500D03*
X12452000Y-11126500D03*
X12452000Y-11041500D03*
X12452000Y-10956500D03*
D19*
X12432000Y-10891500D03*
X12432000Y-10826500D03*
D18*
X12452000Y-10761500D03*
D20*
X12432000Y-10671500D03*
X12382000Y-10671500D03*
D21*
X12332000Y-10691500D03*
X12282000Y-10691500D03*
D20*
X12232000Y-10671500D03*
X12182000Y-10671500D03*
D22*
X12207000Y-11041500D03*
X12407000Y-11041500D03*
D23*
X10807500Y-10247500D03*
D24*
X10092500Y-11147500D03*
X11382500Y-11147500D03*
D11*
X15132500Y-9570000D03*
X15132500Y-9760000D03*
D25*
X8512500Y-2685000D03*
X8852500Y-2685000D03*
X8522500Y-3155000D03*
X8862500Y-3155000D03*
X8520000Y-3637500D03*
X8860000Y-3637500D03*
D26*
X12607000Y-10366500D03*
X12607000Y-10566500D03*
X12757000Y-10966500D03*
X12757000Y-10766500D03*
X13798000Y-9786000D03*
X13798000Y-9986000D03*
X13923000Y-10358500D03*
X13923000Y-10158500D03*
M02*
