G04 #@! TF.FileFunction,Copper,L3,Inr,Plane*
%FSLAX45Y45*%
G04 Gerber Fmt 4.5, Leading zero omitted, Abs format (unit mm)*
G04 Created by KiCad (PCBNEW 4.0.7) date 02/13/18 13:39:06*
%MOMM*%
%LPD*%
G01*
G04 APERTURE LIST*
%ADD10C,0.100000*%
%ADD11R,1.700000X1.700000*%
%ADD12O,1.700000X1.700000*%
%ADD13C,6.000000*%
%ADD14C,1.752600*%
%ADD15C,1.500000*%
%ADD16C,1.650000*%
%ADD17C,2.500000*%
%ADD18C,3.250000*%
%ADD19C,1.524000*%
%ADD20C,0.600000*%
%ADD21C,0.200000*%
%ADD22C,0.250000*%
%ADD23C,0.500000*%
%ADD24C,1.000000*%
%ADD25C,0.125000*%
%ADD26C,0.254000*%
G04 APERTURE END LIST*
D10*
D11*
X8777500Y-9668000D03*
D12*
X8523500Y-9668000D03*
X8777500Y-9414000D03*
X8523500Y-9414000D03*
X8777500Y-9160000D03*
X8523500Y-9160000D03*
X8777500Y-8906000D03*
X8523500Y-8906000D03*
D13*
X17008500Y-4385000D03*
X17008500Y-9085000D03*
D14*
X9989560Y-4585000D03*
X9989560Y-4585000D03*
X15760440Y-4585000D03*
X15760440Y-4585000D03*
D15*
X16139000Y-10804000D03*
X16012000Y-10550000D03*
X15885000Y-10804000D03*
X15758000Y-10550000D03*
X15631000Y-10804000D03*
X15504000Y-10550000D03*
X15377000Y-10804000D03*
X15250000Y-10550000D03*
X15123000Y-10804000D03*
X14996000Y-10550000D03*
D16*
X16114000Y-10067000D03*
X15860000Y-10067000D03*
X15250000Y-10067000D03*
X14996000Y-10067000D03*
D17*
X14894500Y-11134000D03*
D18*
X14996000Y-11439000D03*
X16139000Y-11439000D03*
D17*
X16240500Y-11134000D03*
D19*
X9626000Y-3675500D03*
X9626000Y-3421500D03*
X9880000Y-3675500D03*
X9880000Y-3421500D03*
X10134000Y-3675500D03*
X10134000Y-3421500D03*
X10388000Y-3675500D03*
X10388000Y-3421500D03*
X10642000Y-3675500D03*
X10642000Y-3421500D03*
X10896000Y-3675500D03*
X10896000Y-3421500D03*
X11150000Y-3675500D03*
X11150000Y-3421500D03*
X11404000Y-3675500D03*
X11404000Y-3421500D03*
X11658000Y-3675500D03*
X11658000Y-3421500D03*
X11912000Y-3675500D03*
X11912000Y-3421500D03*
X12166000Y-3675500D03*
X12166000Y-3421500D03*
X12420000Y-3675500D03*
X12420000Y-3421500D03*
X12674000Y-3675500D03*
X12674000Y-3421500D03*
X12928000Y-3675500D03*
X12928000Y-3421500D03*
X13182000Y-3675500D03*
X13182000Y-3421500D03*
X13436000Y-3675500D03*
X13436000Y-3421500D03*
X13690000Y-3675500D03*
X13690000Y-3421500D03*
X13944000Y-3675500D03*
X13944000Y-3421500D03*
X14198000Y-3675500D03*
X14198000Y-3421500D03*
X14452000Y-3675500D03*
X14452000Y-3421500D03*
X14706000Y-3675500D03*
X14706000Y-3421500D03*
X14960000Y-3675500D03*
X14960000Y-3421500D03*
X15214000Y-3675500D03*
X15214000Y-3421500D03*
X15468000Y-3675500D03*
X15468000Y-3421500D03*
X15722000Y-3675500D03*
X15722000Y-3421500D03*
X15976000Y-3675500D03*
X15976000Y-3421500D03*
X9625900Y-3167896D03*
X9625900Y-2913896D03*
X9879900Y-3167896D03*
X9879900Y-2913896D03*
X10133900Y-3167896D03*
X10133900Y-2913896D03*
X10387900Y-3167896D03*
X10387900Y-2913896D03*
X10641900Y-3167896D03*
X10641900Y-2913896D03*
X10895900Y-3167896D03*
X10895900Y-2913896D03*
X11149900Y-3167896D03*
X11149900Y-2913896D03*
X11403900Y-3167896D03*
X11403900Y-2913896D03*
X11657900Y-3167896D03*
X11657900Y-2913896D03*
X11911900Y-3167896D03*
X11911900Y-2913896D03*
X12165900Y-3167896D03*
X12165900Y-2913896D03*
X12419900Y-3167896D03*
X12419900Y-2913896D03*
X12673900Y-3167896D03*
X12673900Y-2913896D03*
X12927900Y-3167896D03*
X12927900Y-2913896D03*
X13181900Y-3167896D03*
X13181900Y-2913896D03*
X13435900Y-3167896D03*
X13435900Y-2913896D03*
X13689900Y-3167896D03*
X13689900Y-2913896D03*
X13943900Y-3167896D03*
X13943900Y-2913896D03*
X14197900Y-3167896D03*
X14197900Y-2913896D03*
X14451900Y-3167896D03*
X14451900Y-2913896D03*
X14705900Y-3167896D03*
X14705900Y-2913896D03*
X14959900Y-3167896D03*
X14959900Y-2913896D03*
X15213900Y-3167896D03*
X15213900Y-2913896D03*
X15467900Y-3167896D03*
X15467900Y-2913896D03*
X15721900Y-3167896D03*
X15721900Y-2913896D03*
X15975900Y-3167896D03*
X15975900Y-2913896D03*
D11*
X8734500Y-7382000D03*
D12*
X8734500Y-7128000D03*
X8734500Y-6874000D03*
D11*
X8551000Y-6554000D03*
D12*
X8551000Y-6300000D03*
X8551000Y-6046000D03*
X8551000Y-5792000D03*
X8551000Y-5538000D03*
X8551000Y-5284000D03*
D11*
X17019500Y-4919000D03*
D12*
X17019500Y-5173000D03*
X17019500Y-5427000D03*
D11*
X8757500Y-8523000D03*
D12*
X8503500Y-8523000D03*
X8757500Y-8269000D03*
X8503500Y-8269000D03*
X8757500Y-8015000D03*
X8503500Y-8015000D03*
D13*
X9432500Y-9085000D03*
D20*
X16032500Y-5887000D03*
X15472500Y-5875000D03*
X16050000Y-7140000D03*
X15395000Y-8230000D03*
X13923000Y-10476000D03*
X16381000Y-7764000D03*
X13708000Y-11143500D03*
X13733000Y-11436000D03*
X13975500Y-11446000D03*
X14273000Y-11446000D03*
X9117500Y-3650000D03*
X12619500Y-11071500D03*
X11374000Y-5001000D03*
X14268000Y-11148500D03*
X14027000Y-4965000D03*
X15699000Y-4964000D03*
X13934000Y-4730500D03*
X12059500Y-10759000D03*
X12527000Y-11341500D03*
X13263000Y-10156000D03*
X13640500Y-10686000D03*
X16863000Y-7018410D03*
X16863000Y-7098410D03*
X14574000Y-4095000D03*
X14570000Y-4511000D03*
X16829000Y-7335000D03*
X14574000Y-4015000D03*
X14570000Y-4591000D03*
X16829000Y-7415000D03*
X16408000Y-8082000D03*
X13000000Y-4475000D03*
X12500000Y-4500000D03*
X12575000Y-5125000D03*
X12300000Y-4450000D03*
X11475000Y-4500000D03*
X11250000Y-5350000D03*
X11000000Y-4175000D03*
X10742288Y-4485501D03*
X9185000Y-4588000D03*
X8937500Y-2620000D03*
X9472000Y-4665000D03*
X8692500Y-4735000D03*
X9545000Y-4728000D03*
X9334000Y-4229000D03*
X13191000Y-4705000D03*
X8375000Y-3825000D03*
X8767500Y-3240000D03*
X12943649Y-4700000D03*
X12800000Y-4975000D03*
X12500000Y-4700000D03*
X12303000Y-4747000D03*
X8767500Y-3640000D03*
X10502000Y-4988000D03*
X10300000Y-4565000D03*
X10822500Y-9652500D03*
X13485500Y-9856000D03*
X8727500Y-7610000D03*
X8577500Y-7810000D03*
X14600500Y-5016000D03*
X15925000Y-4400000D03*
X15925000Y-4500000D03*
X15925000Y-4625000D03*
X15925000Y-4750000D03*
X16025000Y-4750000D03*
X16025000Y-4625000D03*
X16025000Y-4500000D03*
X16025000Y-4400000D03*
X9800000Y-4394500D03*
X9800000Y-4550000D03*
X9800000Y-4675000D03*
X9800000Y-4775000D03*
X9700000Y-4775000D03*
X9700000Y-4675000D03*
X9700000Y-4550000D03*
X9700000Y-4394500D03*
X11118649Y-4725000D03*
X15577500Y-5035000D03*
X16057649Y-9441278D03*
X15112500Y-9432500D03*
X8552500Y-5100000D03*
X10075000Y-11300000D03*
X9957500Y-11000000D03*
X9950000Y-11150000D03*
X9950000Y-11300000D03*
X10200000Y-11300000D03*
X10200000Y-11150000D03*
X10200000Y-11000000D03*
X10072500Y-11000000D03*
X10072500Y-11150000D03*
X11500000Y-11300000D03*
X11285000Y-11300000D03*
X11492500Y-11000000D03*
X11272500Y-11000000D03*
X11272500Y-11150000D03*
X11500000Y-11150000D03*
X11387500Y-11300000D03*
X11380000Y-11000000D03*
X11382500Y-11150000D03*
X15504000Y-10375000D03*
X15092500Y-11110000D03*
X16372500Y-10960000D03*
X16267500Y-10800000D03*
X15557500Y-8090000D03*
X15917500Y-7705000D03*
X15917500Y-7487500D03*
X16337500Y-7510000D03*
X15895000Y-7157500D03*
X16367500Y-7272500D03*
X16360000Y-7182500D03*
X16290000Y-6927500D03*
X15725000Y-6710000D03*
X16345000Y-6165000D03*
X15892500Y-5980000D03*
X10140000Y-4712500D03*
X10650000Y-4732500D03*
X11650000Y-4725000D03*
X12147500Y-4725000D03*
X12650000Y-4722500D03*
X13082500Y-4715000D03*
X13600000Y-4727500D03*
X14102500Y-4702500D03*
X15085000Y-4725000D03*
X10147500Y-4205000D03*
X10645000Y-4192500D03*
X11150000Y-4205000D03*
X11650000Y-4202500D03*
X12150000Y-4190000D03*
X12350000Y-4192500D03*
X12650000Y-4207500D03*
X12800000Y-4202500D03*
X13100000Y-4202500D03*
X13600000Y-4200000D03*
X14100000Y-4200000D03*
X14600000Y-4207500D03*
X14947500Y-4427500D03*
X15685000Y-4340000D03*
X16332500Y-7605000D03*
X16315000Y-6417500D03*
X12979000Y-11281000D03*
X14493000Y-11296000D03*
X15548284Y-4598284D03*
X14753284Y-7901716D03*
X15491716Y-4541716D03*
X14696716Y-7958284D03*
X15720000Y-4209000D03*
X15226000Y-3936000D03*
X14482000Y-7246000D03*
X15226000Y-4014000D03*
X14560000Y-7246000D03*
X15251000Y-4175000D03*
X15104216Y-7849216D03*
X15251000Y-4097000D03*
X15160784Y-7905784D03*
X15019423Y-4111577D03*
X14954000Y-7255000D03*
X15074577Y-4056423D03*
X15032000Y-7255000D03*
X11168649Y-5150000D03*
X11075000Y-4575000D03*
X10981351Y-4475000D03*
X11000000Y-5125000D03*
X10925000Y-4675000D03*
X9750000Y-7000000D03*
X10868649Y-4500299D03*
D21*
X13923000Y-10476000D02*
X13923000Y-10652000D01*
X13923000Y-10652000D02*
X13125000Y-11450000D01*
X13125000Y-11450000D02*
X12025000Y-11450000D01*
X11750000Y-11175000D02*
X11750000Y-10425000D01*
X12025000Y-11450000D02*
X11750000Y-11175000D01*
X11750000Y-10425000D02*
X11225000Y-9900000D01*
X11225000Y-9900000D02*
X10559500Y-9900000D01*
X10382500Y-9342000D02*
X9740500Y-8700000D01*
X8680500Y-8700000D02*
X8503500Y-8523000D01*
X10559500Y-9900000D02*
X10382500Y-9723000D01*
X10382500Y-9723000D02*
X10382500Y-9342000D01*
X9740500Y-8700000D02*
X8680500Y-8700000D01*
D22*
X15282500Y-8047500D02*
X15282500Y-6065000D01*
X15282500Y-6065000D02*
X15472500Y-5875000D01*
X16194000Y-7764000D02*
X16050000Y-7620000D01*
X16050000Y-7620000D02*
X16050000Y-7140000D01*
X16381000Y-7764000D02*
X16194000Y-7764000D01*
X15532500Y-7797500D02*
X16347500Y-7797500D01*
X16347500Y-7797500D02*
X16381000Y-7764000D01*
X15282500Y-8047500D02*
X15532500Y-7797500D01*
D23*
X15282500Y-8230000D02*
X15395000Y-8230000D01*
X14930000Y-8230000D02*
X15282500Y-8230000D01*
D22*
X15282500Y-8230000D02*
X15282500Y-8047500D01*
D23*
X13953000Y-9207000D02*
X14930000Y-8230000D01*
X13923000Y-10476000D02*
X13953000Y-10446000D01*
X13953000Y-10446000D02*
X13953000Y-9207000D01*
D21*
X13923000Y-10476000D02*
X13936000Y-10476000D01*
D24*
X9147500Y-3680000D02*
X9117500Y-3650000D01*
X11374000Y-5001000D02*
X11374000Y-4722000D01*
X11374000Y-4722000D02*
X10624500Y-3972500D01*
X10624500Y-3972500D02*
X9440000Y-3972500D01*
X9440000Y-3972500D02*
X9147500Y-3680000D01*
D23*
X12169600Y-6750000D02*
X12169600Y-6711408D01*
D24*
X12169600Y-5796600D02*
X12123000Y-5750000D01*
X12169600Y-10621600D02*
X12169600Y-6750000D01*
D23*
X12180000Y-5807000D02*
X12123000Y-5750000D01*
D24*
X12123000Y-5750000D02*
X11404000Y-5031000D01*
X12169600Y-6750000D02*
X12169600Y-5796600D01*
X12619500Y-11071500D02*
X12169600Y-10621600D01*
X11404000Y-5031000D02*
X11374000Y-5001000D01*
X10822500Y-9652500D02*
X10822500Y-5087500D01*
X10822500Y-5087500D02*
X10300000Y-4565000D01*
D25*
X14558152Y-6714019D02*
X14558411Y-6713280D01*
X14508922Y-6734136D02*
X14512739Y-6728062D01*
X14772750Y-4329683D02*
X14854750Y-4247683D01*
X14556518Y-6715654D02*
X14557181Y-6715237D01*
X14554999Y-6716001D02*
X14555778Y-6715913D01*
X14557181Y-6662264D02*
X14556518Y-6661847D01*
X14558499Y-6712501D02*
X14558499Y-6665000D01*
X14517811Y-6654511D02*
X14512739Y-6649439D01*
X14558411Y-6664221D02*
X14558152Y-6663481D01*
X14772750Y-4587683D02*
X14772750Y-4329683D01*
X14523885Y-6719173D02*
X14530656Y-6716804D01*
X14482000Y-7246000D02*
X14505750Y-7222250D01*
X14557181Y-6715237D02*
X14557735Y-6714683D01*
X14530656Y-6660697D02*
X14523885Y-6658328D01*
X14506553Y-6636594D02*
X14505750Y-6629465D01*
X14505750Y-6748035D02*
X14506553Y-6740907D01*
X14557735Y-6662818D02*
X14557181Y-6662264D01*
X14505750Y-7222250D02*
X14505750Y-6748035D01*
X14506553Y-6740907D02*
X14508922Y-6734136D01*
X14555778Y-6715913D02*
X14556518Y-6715654D01*
X14512739Y-6728062D02*
X14517811Y-6722989D01*
X14517811Y-6722989D02*
X14523885Y-6719173D01*
X14530656Y-6716804D02*
X14537785Y-6716001D01*
X14537785Y-6716001D02*
X14554999Y-6716001D01*
X14558411Y-6713280D02*
X14558499Y-6712501D01*
X14557735Y-6714683D02*
X14558152Y-6714019D01*
X14558499Y-6665000D02*
X14558411Y-6664221D01*
X14854750Y-4247683D02*
X14854750Y-4053683D01*
X14558152Y-6663481D02*
X14557735Y-6662818D01*
X14556518Y-6661847D02*
X14555778Y-6661588D01*
X14555778Y-6661588D02*
X14554999Y-6661500D01*
X14554999Y-6661500D02*
X14537785Y-6661500D01*
X14537785Y-6661500D02*
X14530656Y-6660697D01*
X14523885Y-6658328D02*
X14517811Y-6654511D01*
X14512739Y-6649439D02*
X14508922Y-6643365D01*
X14508922Y-6643365D02*
X14506553Y-6636594D01*
X14505750Y-6629465D02*
X14505750Y-4854683D01*
X14505750Y-4854683D02*
X14772750Y-4587683D01*
X14854750Y-4053683D02*
X14948683Y-3959750D01*
X14948683Y-3959750D02*
X15202250Y-3959750D01*
X15202250Y-3959750D02*
X15226000Y-3936000D01*
X14560000Y-7246000D02*
X14536250Y-7222250D01*
X14576937Y-6739511D02*
X14582010Y-6734439D01*
X14538231Y-6746847D02*
X14538971Y-6746588D01*
X14582010Y-6734439D02*
X14585826Y-6728365D01*
X14536250Y-7222250D02*
X14536250Y-6750000D01*
X14536250Y-6627501D02*
X14536250Y-4867317D01*
X14570863Y-6743328D02*
X14576937Y-6739511D01*
X14803250Y-4342317D02*
X14885250Y-4260317D01*
X14536250Y-6750000D02*
X14536338Y-6749221D01*
X14585826Y-6728365D02*
X14588196Y-6721594D01*
X14536338Y-6749221D02*
X14536596Y-6748481D01*
X14576937Y-6637989D02*
X14570863Y-6634173D01*
X14537013Y-6747818D02*
X14537567Y-6747264D01*
X14538231Y-6630654D02*
X14537567Y-6630237D01*
X14536596Y-6748481D02*
X14537013Y-6747818D01*
X14588999Y-6663035D02*
X14588196Y-6655907D01*
X14537567Y-6747264D02*
X14538231Y-6746847D01*
X14538971Y-6746588D02*
X14539749Y-6746500D01*
X14588196Y-6655907D02*
X14585826Y-6649136D01*
X14961317Y-3990250D02*
X15202250Y-3990250D01*
X14539749Y-6746500D02*
X14556964Y-6746500D01*
X14556964Y-6631001D02*
X14539749Y-6631001D01*
X14803250Y-4600317D02*
X14803250Y-4342317D01*
X14556964Y-6746500D02*
X14564092Y-6745697D01*
X14588999Y-6714465D02*
X14588999Y-6663035D01*
X14564092Y-6745697D02*
X14570863Y-6743328D01*
X14588196Y-6721594D02*
X14588999Y-6714465D01*
X14564092Y-6631804D02*
X14556964Y-6631001D01*
X14585826Y-6649136D02*
X14582010Y-6643062D01*
X14536596Y-6629019D02*
X14536338Y-6628280D01*
X14582010Y-6643062D02*
X14576937Y-6637989D01*
X14538971Y-6630913D02*
X14538231Y-6630654D01*
X14570863Y-6634173D02*
X14564092Y-6631804D01*
X14539749Y-6631001D02*
X14538971Y-6630913D01*
X14536338Y-6628280D02*
X14536250Y-6627501D01*
X14537567Y-6630237D02*
X14537013Y-6629683D01*
X14537013Y-6629683D02*
X14536596Y-6629019D01*
X14536250Y-4867317D02*
X14803250Y-4600317D01*
X14885250Y-4260317D02*
X14885250Y-4066317D01*
X14885250Y-4066317D02*
X14961317Y-3990250D01*
X15202250Y-3990250D02*
X15226000Y-4014000D01*
X14977750Y-4563683D02*
X14977750Y-6500000D01*
X14977750Y-7231250D02*
X14954000Y-7255000D01*
X14974532Y-6509196D02*
X14972196Y-6511532D01*
X14862500Y-6562615D02*
X14863569Y-6572102D01*
X14977380Y-6503282D02*
X14976289Y-6506400D01*
X15089782Y-6629196D02*
X15087446Y-6631532D01*
X14886637Y-6601028D02*
X14895648Y-6604181D01*
X15091539Y-6613600D02*
X15092630Y-6616718D01*
X14969400Y-6513289D02*
X14966282Y-6514380D01*
X14963000Y-6514750D02*
X14905135Y-6514750D01*
X15081532Y-6605620D02*
X15084650Y-6606711D01*
X14977750Y-6500000D02*
X14977380Y-6503282D01*
X14886637Y-6518972D02*
X14878553Y-6524052D01*
X14977750Y-6677385D02*
X14977750Y-7231250D01*
X14987052Y-6650803D02*
X14981972Y-6658886D01*
X15080750Y-4460683D02*
X14977750Y-4563683D01*
X14978819Y-6667898D02*
X14977750Y-6677385D01*
X15080750Y-4139317D02*
X15080750Y-4460683D01*
X14895648Y-6515819D02*
X14886637Y-6518972D01*
X14863569Y-6572102D02*
X14866722Y-6581113D01*
X14981972Y-6658886D02*
X14978819Y-6667898D01*
X15087446Y-6608468D02*
X15089782Y-6610803D01*
X14862500Y-6557385D02*
X14862500Y-6562615D01*
X15019423Y-4111577D02*
X15053010Y-4111577D01*
X15053010Y-4111577D02*
X15080750Y-4139317D01*
X14976289Y-6506400D02*
X14974532Y-6509196D01*
X14871802Y-6589197D02*
X14878553Y-6595948D01*
X14972196Y-6511532D02*
X14969400Y-6513289D01*
X14966282Y-6514380D02*
X14963000Y-6514750D01*
X14905135Y-6514750D02*
X14895648Y-6515819D01*
X14878553Y-6524052D02*
X14871802Y-6530803D01*
X14871802Y-6530803D02*
X14866722Y-6538886D01*
X14993803Y-6644052D02*
X14987052Y-6650803D01*
X14866722Y-6538886D02*
X14863569Y-6547898D01*
X14863569Y-6547898D02*
X14862500Y-6557385D01*
X14866722Y-6581113D02*
X14871802Y-6589197D01*
X14878553Y-6595948D02*
X14886637Y-6601028D01*
X14895648Y-6604181D02*
X14905135Y-6605250D01*
X14905135Y-6605250D02*
X15078250Y-6605250D01*
X15078250Y-6605250D02*
X15081532Y-6605620D01*
X15084650Y-6606711D02*
X15087446Y-6608468D01*
X15081532Y-6634380D02*
X15078250Y-6634750D01*
X15089782Y-6610803D02*
X15091539Y-6613600D01*
X15092630Y-6616718D02*
X15093000Y-6620000D01*
X15093000Y-6620000D02*
X15092630Y-6623282D01*
X15092630Y-6623282D02*
X15091539Y-6626400D01*
X15091539Y-6626400D02*
X15089782Y-6629196D01*
X15087446Y-6631532D02*
X15084650Y-6633289D01*
X15084650Y-6633289D02*
X15081532Y-6634380D01*
X15078250Y-6634750D02*
X15020385Y-6634750D01*
X15020385Y-6634750D02*
X15010898Y-6635819D01*
X15010898Y-6635819D02*
X15001887Y-6638972D01*
X15001887Y-6638972D02*
X14993803Y-6644052D01*
X14907750Y-6545250D02*
X14904468Y-6545620D01*
X15004028Y-6521113D02*
X14998948Y-6529197D01*
X15074577Y-4056423D02*
X15074577Y-4090010D01*
X14893000Y-6560000D02*
X14893370Y-6563282D01*
X15007181Y-6512102D02*
X15004028Y-6521113D01*
X15074577Y-4090010D02*
X15111250Y-4126683D01*
X14998948Y-6529197D02*
X14992197Y-6535948D01*
X15111250Y-4126683D02*
X15111250Y-4473317D01*
X14904468Y-6574380D02*
X14907750Y-6574750D01*
X15111250Y-4473317D02*
X15008250Y-4576317D01*
X14898553Y-6548468D02*
X14896218Y-6550803D01*
X15008250Y-4576317D02*
X15008250Y-6502615D01*
X14907750Y-6574750D02*
X15080865Y-6574750D01*
X15008250Y-6502615D02*
X15007181Y-6512102D01*
X14992197Y-6535948D02*
X14984113Y-6541028D01*
X15114198Y-6649197D02*
X15107447Y-6655948D01*
X14984113Y-6541028D02*
X14975102Y-6544181D01*
X14975102Y-6544181D02*
X14965615Y-6545250D01*
X15080865Y-6665250D02*
X15023000Y-6665250D01*
X14965615Y-6545250D02*
X14907750Y-6545250D01*
X15107447Y-6584052D02*
X15114198Y-6590803D01*
X15008620Y-6676718D02*
X15008250Y-6680000D01*
X14901350Y-6546711D02*
X14898553Y-6548468D01*
X14893370Y-6556718D02*
X14893000Y-6560000D01*
X14904468Y-6545620D02*
X14901350Y-6546711D01*
X15090352Y-6664181D02*
X15080865Y-6665250D01*
X14896218Y-6550803D02*
X14894461Y-6553600D01*
X14894461Y-6553600D02*
X14893370Y-6556718D01*
X14894461Y-6566400D02*
X14896218Y-6569196D01*
X14893370Y-6563282D02*
X14894461Y-6566400D01*
X14901350Y-6573289D02*
X14904468Y-6574380D01*
X14896218Y-6569196D02*
X14898553Y-6571532D01*
X14898553Y-6571532D02*
X14901350Y-6573289D01*
X15011468Y-6670803D02*
X15009711Y-6673600D01*
X15080865Y-6574750D02*
X15090352Y-6575819D01*
X15099363Y-6578972D02*
X15107447Y-6584052D01*
X15090352Y-6575819D02*
X15099363Y-6578972D01*
X15008250Y-6680000D02*
X15008250Y-7231250D01*
X15114198Y-6590803D02*
X15119278Y-6598886D01*
X15119278Y-6598886D02*
X15122431Y-6607898D01*
X15122431Y-6607898D02*
X15123500Y-6617385D01*
X15107447Y-6655948D02*
X15099363Y-6661028D01*
X15123500Y-6617385D02*
X15123500Y-6622615D01*
X15123500Y-6622615D02*
X15122431Y-6632102D01*
X15008250Y-7231250D02*
X15032000Y-7255000D01*
X15122431Y-6632102D02*
X15119278Y-6641113D01*
X15119278Y-6641113D02*
X15114198Y-6649197D01*
X15099363Y-6661028D02*
X15090352Y-6664181D01*
X15023000Y-6665250D02*
X15019718Y-6665620D01*
X15013803Y-6668468D02*
X15011468Y-6670803D01*
X15019718Y-6665620D02*
X15016600Y-6666711D01*
X15016600Y-6666711D02*
X15013803Y-6668468D01*
X15009711Y-6673600D02*
X15008620Y-6676718D01*
D26*
G36*
X9548437Y-2528013D02*
X9553969Y-2541367D01*
X9558546Y-2552417D01*
X9623578Y-2649744D01*
X9642256Y-2668423D01*
X9739583Y-2733454D01*
X9746731Y-2736415D01*
X9763987Y-2743563D01*
X9878792Y-2766399D01*
X9885460Y-2766399D01*
X9892000Y-2767700D01*
X11072000Y-2767700D01*
X11078540Y-2766399D01*
X11085208Y-2766399D01*
X11200013Y-2743563D01*
X11215402Y-2737189D01*
X11224417Y-2733454D01*
X11321744Y-2668423D01*
X11340422Y-2649744D01*
X11405454Y-2552417D01*
X11408415Y-2545269D01*
X11415563Y-2528013D01*
X11427560Y-2467700D01*
X17224300Y-2467700D01*
X17224300Y-3200000D01*
X17225601Y-3206540D01*
X17225601Y-3213208D01*
X17233213Y-3251476D01*
X17243322Y-3275880D01*
X17264999Y-3308323D01*
X17283677Y-3327001D01*
X17316120Y-3348678D01*
X17324300Y-3352067D01*
X17324300Y-4199512D01*
X17316161Y-4179815D01*
X17214221Y-4077697D01*
X17080962Y-4022363D01*
X16936671Y-4022237D01*
X16803315Y-4077339D01*
X16701197Y-4179279D01*
X16645863Y-4312538D01*
X16645737Y-4456829D01*
X16700839Y-4590185D01*
X16802779Y-4692303D01*
X16936038Y-4747637D01*
X17080329Y-4747763D01*
X17213685Y-4692661D01*
X17315803Y-4590721D01*
X17324300Y-4570258D01*
X17324300Y-6644440D01*
X17302256Y-6648825D01*
X17288287Y-6654611D01*
X17277851Y-6658934D01*
X17212967Y-6702288D01*
X17194288Y-6720966D01*
X17194288Y-6720967D01*
X17150934Y-6785851D01*
X17144365Y-6801710D01*
X17140825Y-6810256D01*
X17125601Y-6886792D01*
X17125601Y-6893460D01*
X17124300Y-6900000D01*
X17124300Y-7500000D01*
X17125601Y-7506540D01*
X17125601Y-7513208D01*
X17140825Y-7589744D01*
X17141437Y-7591222D01*
X17150934Y-7614149D01*
X17194288Y-7679033D01*
X17194288Y-7679033D01*
X17212967Y-7697712D01*
X17277851Y-7741066D01*
X17285720Y-7744326D01*
X17302256Y-7751175D01*
X17324300Y-7755560D01*
X17324300Y-8899512D01*
X17316161Y-8879815D01*
X17214221Y-8777697D01*
X17080962Y-8722363D01*
X16936671Y-8722237D01*
X16803315Y-8777339D01*
X16701197Y-8879279D01*
X16645863Y-9012538D01*
X16645737Y-9156829D01*
X16700839Y-9290185D01*
X16802779Y-9392303D01*
X16936038Y-9447637D01*
X17080329Y-9447763D01*
X17213685Y-9392661D01*
X17315803Y-9290721D01*
X17324300Y-9270258D01*
X17324300Y-10644440D01*
X17302256Y-10648825D01*
X17287960Y-10654747D01*
X17277851Y-10658934D01*
X17212967Y-10702288D01*
X17194288Y-10720967D01*
X17194288Y-10720967D01*
X17150934Y-10785851D01*
X17143786Y-10803108D01*
X17140825Y-10810256D01*
X17125601Y-10886792D01*
X17125601Y-10893460D01*
X17124300Y-10900000D01*
X17124300Y-11932300D01*
X14947560Y-11932300D01*
X14935563Y-11871987D01*
X14925454Y-11847583D01*
X14925454Y-11847583D01*
X14860422Y-11750256D01*
X14841744Y-11731577D01*
X14744417Y-11666546D01*
X14735402Y-11662811D01*
X14720013Y-11656437D01*
X14605208Y-11633601D01*
X14598540Y-11633601D01*
X14592000Y-11632300D01*
X12212000Y-11632300D01*
X12205460Y-11633601D01*
X12083987Y-11656437D01*
X12069620Y-11662388D01*
X12059583Y-11666546D01*
X11962256Y-11731577D01*
X11943577Y-11750256D01*
X11878546Y-11847583D01*
X11875777Y-11854267D01*
X11868437Y-11871987D01*
X11856440Y-11932300D01*
X8459700Y-11932300D01*
X8459700Y-11480000D01*
X8504300Y-11480000D01*
X8521633Y-11567137D01*
X8570992Y-11641008D01*
X8644863Y-11690367D01*
X8732000Y-11707700D01*
X8819137Y-11690367D01*
X8893008Y-11641008D01*
X8942367Y-11567137D01*
X8943843Y-11559721D01*
X10574772Y-11559721D01*
X10599489Y-11619542D01*
X10645218Y-11665350D01*
X10704995Y-11690172D01*
X10769721Y-11690228D01*
X10829542Y-11665511D01*
X10875350Y-11619782D01*
X10900172Y-11560005D01*
X10900228Y-11495279D01*
X10875511Y-11435458D01*
X10829783Y-11389650D01*
X10770005Y-11364828D01*
X10705279Y-11364772D01*
X10645458Y-11389489D01*
X10599650Y-11435217D01*
X10574828Y-11494995D01*
X10574772Y-11559721D01*
X8943843Y-11559721D01*
X8959700Y-11480000D01*
X8942367Y-11392863D01*
X8893008Y-11318992D01*
X8819137Y-11269633D01*
X8732000Y-11252300D01*
X8644863Y-11269633D01*
X8570992Y-11318992D01*
X8521633Y-11392863D01*
X8504300Y-11480000D01*
X8459700Y-11480000D01*
X8459700Y-10400000D01*
X8458399Y-10393460D01*
X8458399Y-10386792D01*
X8443175Y-10310256D01*
X8437254Y-10295960D01*
X8433066Y-10285851D01*
X8389712Y-10220967D01*
X8371033Y-10202288D01*
X8371033Y-10202288D01*
X8306149Y-10158934D01*
X8288892Y-10151786D01*
X8281744Y-10148825D01*
X8259700Y-10144440D01*
X8259700Y-8269000D01*
X8352906Y-8269000D01*
X8364149Y-8325522D01*
X8396167Y-8373440D01*
X8429931Y-8396000D01*
X8396167Y-8418560D01*
X8364149Y-8466478D01*
X8352906Y-8523000D01*
X8364149Y-8579522D01*
X8396167Y-8627440D01*
X8444084Y-8659457D01*
X8500606Y-8670700D01*
X8506394Y-8670700D01*
X8541420Y-8663733D01*
X8629093Y-8751407D01*
X8652679Y-8767166D01*
X8657295Y-8768084D01*
X8680500Y-8772700D01*
X8680501Y-8772700D01*
X8713359Y-8772700D01*
X8670167Y-8801560D01*
X8650500Y-8830994D01*
X8630833Y-8801560D01*
X8582916Y-8769543D01*
X8526394Y-8758300D01*
X8520606Y-8758300D01*
X8464084Y-8769543D01*
X8416167Y-8801560D01*
X8384149Y-8849478D01*
X8372906Y-8906000D01*
X8384149Y-8962522D01*
X8416167Y-9010440D01*
X8449931Y-9033000D01*
X8416167Y-9055560D01*
X8384149Y-9103478D01*
X8372906Y-9160000D01*
X8384149Y-9216522D01*
X8416167Y-9264440D01*
X8449931Y-9287000D01*
X8416167Y-9309560D01*
X8384149Y-9357478D01*
X8372906Y-9414000D01*
X8384149Y-9470522D01*
X8416167Y-9518440D01*
X8449931Y-9541000D01*
X8416167Y-9563560D01*
X8384149Y-9611478D01*
X8372906Y-9668000D01*
X8384149Y-9724522D01*
X8416167Y-9772440D01*
X8464084Y-9804457D01*
X8520606Y-9815700D01*
X8526394Y-9815700D01*
X8582916Y-9804457D01*
X8630833Y-9772440D01*
X8631923Y-9770809D01*
X8632944Y-9776235D01*
X8646676Y-9797575D01*
X8667628Y-9811892D01*
X8692500Y-9816928D01*
X8862500Y-9816928D01*
X8885735Y-9812556D01*
X8907075Y-9798824D01*
X8921392Y-9777872D01*
X8926428Y-9753000D01*
X8926428Y-9583000D01*
X8922056Y-9559765D01*
X8908324Y-9538425D01*
X8887372Y-9524108D01*
X8878913Y-9522395D01*
X8884833Y-9518440D01*
X8916851Y-9470522D01*
X8928094Y-9414000D01*
X8916851Y-9357478D01*
X8884833Y-9309560D01*
X8851069Y-9287000D01*
X8884833Y-9264440D01*
X8916851Y-9216522D01*
X8928094Y-9160000D01*
X8916851Y-9103478D01*
X8884833Y-9055560D01*
X8851069Y-9033000D01*
X8884833Y-9010440D01*
X8916851Y-8962522D01*
X8928094Y-8906000D01*
X8916851Y-8849478D01*
X8884833Y-8801560D01*
X8841641Y-8772700D01*
X9238542Y-8772700D01*
X9227315Y-8777339D01*
X9125197Y-8879279D01*
X9069863Y-9012538D01*
X9069737Y-9156829D01*
X9124839Y-9290185D01*
X9226779Y-9392303D01*
X9360038Y-9447637D01*
X9504329Y-9447763D01*
X9637685Y-9392661D01*
X9739803Y-9290721D01*
X9795137Y-9157462D01*
X9795263Y-9013171D01*
X9740161Y-8879815D01*
X9638221Y-8777697D01*
X9626187Y-8772700D01*
X9710387Y-8772700D01*
X10309800Y-9372113D01*
X10309800Y-9723000D01*
X10309800Y-9723000D01*
X10314213Y-9745184D01*
X10315334Y-9750821D01*
X10324942Y-9765200D01*
X10331093Y-9774407D01*
X10508093Y-9951407D01*
X10531679Y-9967166D01*
X10536295Y-9968084D01*
X10559500Y-9972700D01*
X10559501Y-9972700D01*
X11194887Y-9972700D01*
X11677300Y-10455113D01*
X11677300Y-11175000D01*
X11677300Y-11175000D01*
X11681466Y-11195942D01*
X11682834Y-11202821D01*
X11695676Y-11222041D01*
X11698593Y-11226407D01*
X11973593Y-11501406D01*
X11973593Y-11501407D01*
X11993251Y-11514541D01*
X11997179Y-11517166D01*
X12025000Y-11522700D01*
X13124999Y-11522700D01*
X13125000Y-11522700D01*
X13148205Y-11518084D01*
X13152821Y-11517166D01*
X13176407Y-11501407D01*
X13176407Y-11501407D01*
X13223455Y-11454358D01*
X13640284Y-11454358D01*
X13654367Y-11488442D01*
X13680421Y-11514541D01*
X13714480Y-11528684D01*
X13751358Y-11528716D01*
X13785442Y-11514633D01*
X13811541Y-11488579D01*
X13821599Y-11464358D01*
X13882784Y-11464358D01*
X13896867Y-11498442D01*
X13922921Y-11524541D01*
X13956980Y-11538684D01*
X13993858Y-11538716D01*
X14027942Y-11524633D01*
X14054041Y-11498579D01*
X14068184Y-11464520D01*
X14068184Y-11464358D01*
X14180284Y-11464358D01*
X14194367Y-11498442D01*
X14220421Y-11524541D01*
X14254480Y-11538684D01*
X14291358Y-11538716D01*
X14325442Y-11524633D01*
X14351541Y-11498579D01*
X14357762Y-11483598D01*
X14770761Y-11483598D01*
X14804973Y-11566399D01*
X14868268Y-11629804D01*
X14951008Y-11664161D01*
X15040598Y-11664239D01*
X15123399Y-11630027D01*
X15186804Y-11566732D01*
X15221161Y-11483992D01*
X15221161Y-11483598D01*
X15913761Y-11483598D01*
X15947973Y-11566399D01*
X16011268Y-11629804D01*
X16094008Y-11664161D01*
X16183598Y-11664239D01*
X16266399Y-11630027D01*
X16329804Y-11566732D01*
X16364161Y-11483992D01*
X16364164Y-11480000D01*
X16504300Y-11480000D01*
X16521633Y-11567137D01*
X16570992Y-11641008D01*
X16644863Y-11690367D01*
X16732000Y-11707700D01*
X16819137Y-11690367D01*
X16893008Y-11641008D01*
X16942367Y-11567137D01*
X16959700Y-11480000D01*
X16942367Y-11392863D01*
X16893008Y-11318992D01*
X16819137Y-11269633D01*
X16732000Y-11252300D01*
X16644863Y-11269633D01*
X16570992Y-11318992D01*
X16521633Y-11392863D01*
X16504300Y-11480000D01*
X16364164Y-11480000D01*
X16364239Y-11394401D01*
X16330027Y-11311601D01*
X16266732Y-11248196D01*
X16183992Y-11213839D01*
X16094401Y-11213761D01*
X16011601Y-11247973D01*
X15948196Y-11311268D01*
X15913839Y-11394008D01*
X15913761Y-11483598D01*
X15221161Y-11483598D01*
X15221239Y-11394401D01*
X15187027Y-11311601D01*
X15123732Y-11248196D01*
X15040992Y-11213839D01*
X14951401Y-11213761D01*
X14868601Y-11247973D01*
X14805196Y-11311268D01*
X14770839Y-11394008D01*
X14770761Y-11483598D01*
X14357762Y-11483598D01*
X14365684Y-11464520D01*
X14365716Y-11427642D01*
X14351633Y-11393558D01*
X14325579Y-11367459D01*
X14291520Y-11353316D01*
X14254642Y-11353284D01*
X14220558Y-11367367D01*
X14194459Y-11393421D01*
X14180316Y-11427480D01*
X14180284Y-11464358D01*
X14068184Y-11464358D01*
X14068216Y-11427642D01*
X14054133Y-11393558D01*
X14028079Y-11367459D01*
X13994020Y-11353316D01*
X13957142Y-11353284D01*
X13923058Y-11367367D01*
X13896959Y-11393421D01*
X13882816Y-11427480D01*
X13882784Y-11464358D01*
X13821599Y-11464358D01*
X13825684Y-11454520D01*
X13825716Y-11417642D01*
X13811633Y-11383558D01*
X13785579Y-11357459D01*
X13751520Y-11343316D01*
X13714642Y-11343284D01*
X13680558Y-11357367D01*
X13654459Y-11383421D01*
X13640316Y-11417480D01*
X13640284Y-11454358D01*
X13223455Y-11454358D01*
X13515955Y-11161858D01*
X13615284Y-11161858D01*
X13629367Y-11195942D01*
X13655421Y-11222041D01*
X13689480Y-11236184D01*
X13726358Y-11236216D01*
X13760442Y-11222133D01*
X13786541Y-11196079D01*
X13798675Y-11166858D01*
X14175284Y-11166858D01*
X14189367Y-11200942D01*
X14215421Y-11227041D01*
X14249480Y-11241184D01*
X14286358Y-11241216D01*
X14320442Y-11227133D01*
X14346541Y-11201079D01*
X14360684Y-11167020D01*
X14360716Y-11130142D01*
X14346633Y-11096058D01*
X14320579Y-11069959D01*
X14286520Y-11055816D01*
X14249642Y-11055784D01*
X14215558Y-11069867D01*
X14189459Y-11095921D01*
X14175316Y-11129980D01*
X14175284Y-11166858D01*
X13798675Y-11166858D01*
X13800684Y-11162020D01*
X13800716Y-11125142D01*
X13786633Y-11091058D01*
X13760579Y-11064959D01*
X13726520Y-11050816D01*
X13689642Y-11050784D01*
X13655558Y-11064867D01*
X13629459Y-11090921D01*
X13615316Y-11124980D01*
X13615284Y-11161858D01*
X13515955Y-11161858D01*
X13846543Y-10831270D01*
X14985276Y-10831270D01*
X15006196Y-10881899D01*
X15044897Y-10920668D01*
X15095490Y-10941676D01*
X15150270Y-10941724D01*
X15200899Y-10920804D01*
X15239668Y-10882103D01*
X15249999Y-10857222D01*
X15260196Y-10881899D01*
X15298897Y-10920668D01*
X15349490Y-10941676D01*
X15404270Y-10941724D01*
X15454899Y-10920804D01*
X15493668Y-10882103D01*
X15503999Y-10857222D01*
X15514196Y-10881899D01*
X15552897Y-10920668D01*
X15603490Y-10941676D01*
X15658270Y-10941724D01*
X15708899Y-10920804D01*
X15747668Y-10882103D01*
X15757999Y-10857222D01*
X15768196Y-10881899D01*
X15806897Y-10920668D01*
X15857490Y-10941676D01*
X15912270Y-10941724D01*
X15962899Y-10920804D01*
X16001668Y-10882103D01*
X16022676Y-10831510D01*
X16022724Y-10776730D01*
X16001804Y-10726101D01*
X15963103Y-10687332D01*
X15912510Y-10666324D01*
X15857730Y-10666276D01*
X15807101Y-10687196D01*
X15768332Y-10725897D01*
X15758000Y-10750778D01*
X15747804Y-10726101D01*
X15709103Y-10687332D01*
X15658510Y-10666324D01*
X15603730Y-10666276D01*
X15553101Y-10687196D01*
X15514332Y-10725897D01*
X15504000Y-10750778D01*
X15493804Y-10726101D01*
X15455103Y-10687332D01*
X15404510Y-10666324D01*
X15349730Y-10666276D01*
X15299101Y-10687196D01*
X15260332Y-10725897D01*
X15250000Y-10750778D01*
X15239804Y-10726101D01*
X15201103Y-10687332D01*
X15150510Y-10666324D01*
X15095730Y-10666276D01*
X15045101Y-10687196D01*
X15006332Y-10725897D01*
X14985324Y-10776490D01*
X14985276Y-10831270D01*
X13846543Y-10831270D01*
X13974406Y-10703407D01*
X13974407Y-10703407D01*
X13990166Y-10679821D01*
X13995700Y-10652000D01*
X13995700Y-10577270D01*
X14858276Y-10577270D01*
X14879196Y-10627899D01*
X14917897Y-10666668D01*
X14968490Y-10687676D01*
X15023270Y-10687724D01*
X15073899Y-10666804D01*
X15112668Y-10628103D01*
X15122999Y-10603222D01*
X15133196Y-10627899D01*
X15171897Y-10666668D01*
X15222490Y-10687676D01*
X15277270Y-10687724D01*
X15327899Y-10666804D01*
X15366668Y-10628103D01*
X15387676Y-10577510D01*
X15387676Y-10577270D01*
X15620276Y-10577270D01*
X15641196Y-10627899D01*
X15679897Y-10666668D01*
X15730490Y-10687676D01*
X15785270Y-10687724D01*
X15835899Y-10666804D01*
X15874668Y-10628103D01*
X15884999Y-10603222D01*
X15895196Y-10627899D01*
X15933897Y-10666668D01*
X15984490Y-10687676D01*
X16039270Y-10687724D01*
X16089899Y-10666804D01*
X16128668Y-10628103D01*
X16149676Y-10577510D01*
X16149724Y-10522730D01*
X16128804Y-10472101D01*
X16090103Y-10433332D01*
X16039510Y-10412324D01*
X15984730Y-10412276D01*
X15934101Y-10433196D01*
X15895332Y-10471897D01*
X15885000Y-10496778D01*
X15874804Y-10472101D01*
X15836103Y-10433332D01*
X15785510Y-10412324D01*
X15730730Y-10412276D01*
X15680101Y-10433196D01*
X15641332Y-10471897D01*
X15620324Y-10522490D01*
X15620276Y-10577270D01*
X15387676Y-10577270D01*
X15387724Y-10522730D01*
X15366804Y-10472101D01*
X15328103Y-10433332D01*
X15277510Y-10412324D01*
X15222730Y-10412276D01*
X15172101Y-10433196D01*
X15133332Y-10471897D01*
X15123000Y-10496778D01*
X15112804Y-10472101D01*
X15074103Y-10433332D01*
X15023510Y-10412324D01*
X14968730Y-10412276D01*
X14918101Y-10433196D01*
X14879332Y-10471897D01*
X14858324Y-10522490D01*
X14858276Y-10577270D01*
X13995700Y-10577270D01*
X13995700Y-10534410D01*
X14001541Y-10528579D01*
X14006579Y-10516448D01*
X14015013Y-10508014D01*
X14015013Y-10508013D01*
X14034024Y-10479561D01*
X14036642Y-10466399D01*
X14040700Y-10446000D01*
X14040700Y-10446000D01*
X14040700Y-10095755D01*
X14850775Y-10095755D01*
X14872834Y-10149142D01*
X14913643Y-10190023D01*
X14966991Y-10212175D01*
X15024755Y-10212225D01*
X15078142Y-10190166D01*
X15119023Y-10149357D01*
X15122982Y-10139821D01*
X15126834Y-10149142D01*
X15167643Y-10190023D01*
X15220991Y-10212175D01*
X15278755Y-10212225D01*
X15332142Y-10190166D01*
X15373023Y-10149357D01*
X15395175Y-10096009D01*
X15395175Y-10095755D01*
X15714775Y-10095755D01*
X15736834Y-10149142D01*
X15777643Y-10190023D01*
X15830991Y-10212175D01*
X15888755Y-10212225D01*
X15942142Y-10190166D01*
X15983023Y-10149357D01*
X15986982Y-10139821D01*
X15990834Y-10149142D01*
X16031643Y-10190023D01*
X16084991Y-10212175D01*
X16142755Y-10212225D01*
X16196142Y-10190166D01*
X16237023Y-10149357D01*
X16259175Y-10096009D01*
X16259225Y-10038245D01*
X16237166Y-9984858D01*
X16196357Y-9943977D01*
X16143009Y-9921825D01*
X16085245Y-9921775D01*
X16031858Y-9943834D01*
X15990977Y-9984643D01*
X15987018Y-9994179D01*
X15983166Y-9984858D01*
X15942357Y-9943977D01*
X15889009Y-9921825D01*
X15831245Y-9921775D01*
X15777858Y-9943834D01*
X15736977Y-9984643D01*
X15714825Y-10037991D01*
X15714775Y-10095755D01*
X15395175Y-10095755D01*
X15395225Y-10038245D01*
X15373166Y-9984858D01*
X15332357Y-9943977D01*
X15279009Y-9921825D01*
X15221245Y-9921775D01*
X15167858Y-9943834D01*
X15126977Y-9984643D01*
X15123018Y-9994179D01*
X15119166Y-9984858D01*
X15078357Y-9943977D01*
X15025009Y-9921825D01*
X14967245Y-9921775D01*
X14913858Y-9943834D01*
X14872977Y-9984643D01*
X14850825Y-10037991D01*
X14850775Y-10095755D01*
X14040700Y-10095755D01*
X14040700Y-9243327D01*
X14966327Y-8317700D01*
X15364477Y-8317700D01*
X15376480Y-8322684D01*
X15413358Y-8322716D01*
X15447442Y-8308633D01*
X15473541Y-8282579D01*
X15487684Y-8248520D01*
X15487716Y-8211642D01*
X15473633Y-8177558D01*
X15447579Y-8151459D01*
X15413520Y-8137316D01*
X15376642Y-8137284D01*
X15364502Y-8142300D01*
X15357700Y-8142300D01*
X15357700Y-8100358D01*
X16315284Y-8100358D01*
X16329367Y-8134442D01*
X16355421Y-8160541D01*
X16389480Y-8174684D01*
X16426358Y-8174716D01*
X16460442Y-8160633D01*
X16486541Y-8134579D01*
X16500684Y-8100520D01*
X16500716Y-8063642D01*
X16486633Y-8029558D01*
X16460579Y-8003459D01*
X16426520Y-7989316D01*
X16389642Y-7989284D01*
X16355558Y-8003367D01*
X16329459Y-8029421D01*
X16315316Y-8063480D01*
X16315284Y-8100358D01*
X15357700Y-8100358D01*
X15357700Y-8078649D01*
X15563649Y-7872700D01*
X16347500Y-7872700D01*
X16376278Y-7866976D01*
X16391642Y-7856709D01*
X16399358Y-7856716D01*
X16433442Y-7842633D01*
X16459541Y-7816579D01*
X16473684Y-7782520D01*
X16473716Y-7745642D01*
X16459633Y-7711558D01*
X16433579Y-7685459D01*
X16399520Y-7671316D01*
X16362642Y-7671284D01*
X16328558Y-7685367D01*
X16325119Y-7688800D01*
X16225149Y-7688800D01*
X16125200Y-7588851D01*
X16125200Y-7353358D01*
X16736284Y-7353358D01*
X16745231Y-7375011D01*
X16736316Y-7396480D01*
X16736284Y-7433358D01*
X16750367Y-7467442D01*
X16776421Y-7493541D01*
X16810480Y-7507684D01*
X16847358Y-7507716D01*
X16881442Y-7493633D01*
X16907541Y-7467579D01*
X16921684Y-7433520D01*
X16921716Y-7396642D01*
X16912769Y-7374989D01*
X16921684Y-7353520D01*
X16921716Y-7316642D01*
X16907633Y-7282558D01*
X16881579Y-7256459D01*
X16847520Y-7242316D01*
X16810642Y-7242284D01*
X16776558Y-7256367D01*
X16750459Y-7282421D01*
X16736316Y-7316480D01*
X16736284Y-7353358D01*
X16125200Y-7353358D01*
X16125200Y-7195914D01*
X16128541Y-7192579D01*
X16142684Y-7158520D01*
X16142716Y-7121642D01*
X16128633Y-7087558D01*
X16102579Y-7061459D01*
X16068520Y-7047316D01*
X16031642Y-7047284D01*
X15997558Y-7061367D01*
X15971459Y-7087421D01*
X15957316Y-7121480D01*
X15957284Y-7158358D01*
X15971367Y-7192442D01*
X15974800Y-7195881D01*
X15974800Y-7620000D01*
X15980524Y-7648778D01*
X15996826Y-7673174D01*
X16045951Y-7722300D01*
X15532500Y-7722300D01*
X15503722Y-7728024D01*
X15479326Y-7744326D01*
X15357700Y-7865951D01*
X15357700Y-7036768D01*
X16770284Y-7036768D01*
X16779231Y-7058421D01*
X16770316Y-7079890D01*
X16770284Y-7116768D01*
X16784367Y-7150852D01*
X16810421Y-7176951D01*
X16844480Y-7191094D01*
X16881358Y-7191126D01*
X16915442Y-7177043D01*
X16941541Y-7150989D01*
X16955684Y-7116930D01*
X16955716Y-7080052D01*
X16946769Y-7058399D01*
X16955684Y-7036930D01*
X16955716Y-7000052D01*
X16941633Y-6965968D01*
X16915579Y-6939868D01*
X16881520Y-6925726D01*
X16844642Y-6925694D01*
X16810558Y-6939777D01*
X16784459Y-6965831D01*
X16770316Y-6999890D01*
X16770284Y-7036768D01*
X15357700Y-7036768D01*
X15357700Y-6096149D01*
X15486137Y-5967712D01*
X15490858Y-5967716D01*
X15524942Y-5953633D01*
X15551041Y-5927579D01*
X15560268Y-5905358D01*
X15939784Y-5905358D01*
X15953867Y-5939442D01*
X15979921Y-5965541D01*
X16013980Y-5979684D01*
X16050858Y-5979716D01*
X16084942Y-5965633D01*
X16111041Y-5939579D01*
X16125184Y-5905520D01*
X16125216Y-5868642D01*
X16111133Y-5834558D01*
X16085079Y-5808459D01*
X16051020Y-5794316D01*
X16014142Y-5794284D01*
X15980058Y-5808367D01*
X15953959Y-5834421D01*
X15939816Y-5868480D01*
X15939784Y-5905358D01*
X15560268Y-5905358D01*
X15565184Y-5893520D01*
X15565216Y-5856642D01*
X15551133Y-5822558D01*
X15525079Y-5796459D01*
X15491020Y-5782316D01*
X15454142Y-5782284D01*
X15420058Y-5796367D01*
X15393959Y-5822421D01*
X15379816Y-5856480D01*
X15379812Y-5861339D01*
X15229326Y-6011826D01*
X15213024Y-6036222D01*
X15207300Y-6065000D01*
X15207300Y-7824725D01*
X15191726Y-7818258D01*
X15182849Y-7796774D01*
X15156795Y-7770674D01*
X15122736Y-7756532D01*
X15085857Y-7756500D01*
X15051774Y-7770583D01*
X15025674Y-7796637D01*
X15011532Y-7830696D01*
X15011500Y-7867574D01*
X15025583Y-7901657D01*
X15051637Y-7927757D01*
X15073274Y-7936742D01*
X15082151Y-7958226D01*
X15108205Y-7984326D01*
X15142264Y-7998468D01*
X15179142Y-7998500D01*
X15207300Y-7986866D01*
X15207300Y-8142300D01*
X14930000Y-8142300D01*
X14930000Y-8142300D01*
X14896439Y-8148976D01*
X14867987Y-8167987D01*
X13890987Y-9144987D01*
X13871976Y-9173439D01*
X13865300Y-9207000D01*
X13865300Y-10402616D01*
X13844459Y-10423421D01*
X13830316Y-10457480D01*
X13830284Y-10494358D01*
X13844367Y-10528442D01*
X13850300Y-10534385D01*
X13850300Y-10621887D01*
X13094887Y-11377300D01*
X12612509Y-11377300D01*
X12619684Y-11360020D01*
X12619716Y-11323142D01*
X12605633Y-11289058D01*
X12579579Y-11262959D01*
X12545520Y-11248816D01*
X12508642Y-11248784D01*
X12474558Y-11262867D01*
X12448459Y-11288921D01*
X12434316Y-11322980D01*
X12434284Y-11359858D01*
X12441491Y-11377300D01*
X12055113Y-11377300D01*
X11822700Y-11144887D01*
X11822700Y-10425000D01*
X11817166Y-10397179D01*
X11801407Y-10373593D01*
X11801406Y-10373593D01*
X11276407Y-9848593D01*
X11252821Y-9832834D01*
X11248205Y-9831916D01*
X11225000Y-9827300D01*
X11224999Y-9827300D01*
X10589613Y-9827300D01*
X10455200Y-9692887D01*
X10455200Y-9342000D01*
X10449666Y-9314179D01*
X10433907Y-9290593D01*
X9791907Y-8648593D01*
X9768321Y-8632834D01*
X9763705Y-8631916D01*
X9740500Y-8627300D01*
X9740500Y-8627300D01*
X8902520Y-8627300D01*
X8906428Y-8608000D01*
X8906428Y-8438000D01*
X8902056Y-8414765D01*
X8888324Y-8393425D01*
X8867372Y-8379108D01*
X8858913Y-8377395D01*
X8864833Y-8373440D01*
X8896851Y-8325522D01*
X8908094Y-8269000D01*
X8896851Y-8212478D01*
X8864833Y-8164560D01*
X8831069Y-8142000D01*
X8864833Y-8119440D01*
X8896851Y-8071522D01*
X8908094Y-8015000D01*
X8896851Y-7958478D01*
X8864833Y-7910560D01*
X8816916Y-7878543D01*
X8760394Y-7867300D01*
X8754606Y-7867300D01*
X8698084Y-7878543D01*
X8650167Y-7910560D01*
X8618149Y-7958478D01*
X8606906Y-8015000D01*
X8618149Y-8071522D01*
X8650167Y-8119440D01*
X8683931Y-8142000D01*
X8650167Y-8164560D01*
X8630500Y-8193994D01*
X8610833Y-8164560D01*
X8562916Y-8132543D01*
X8506394Y-8121300D01*
X8500606Y-8121300D01*
X8444084Y-8132543D01*
X8396167Y-8164560D01*
X8364149Y-8212478D01*
X8352906Y-8269000D01*
X8259700Y-8269000D01*
X8259700Y-7755560D01*
X8281744Y-7751175D01*
X8288892Y-7748214D01*
X8306149Y-7741066D01*
X8371033Y-7697712D01*
X8371033Y-7697712D01*
X8389712Y-7679033D01*
X8433066Y-7614149D01*
X8437349Y-7603809D01*
X8443175Y-7589744D01*
X8458399Y-7513208D01*
X8458399Y-7506540D01*
X8459700Y-7500000D01*
X8459700Y-6900000D01*
X8458399Y-6893460D01*
X8458399Y-6886792D01*
X8455855Y-6874000D01*
X8583906Y-6874000D01*
X8595149Y-6930522D01*
X8627167Y-6978440D01*
X8660931Y-7001000D01*
X8627167Y-7023560D01*
X8595149Y-7071478D01*
X8583906Y-7128000D01*
X8595149Y-7184522D01*
X8627167Y-7232440D01*
X8675084Y-7264457D01*
X8731606Y-7275700D01*
X8737394Y-7275700D01*
X8793916Y-7264457D01*
X8841833Y-7232440D01*
X8873851Y-7184522D01*
X8885094Y-7128000D01*
X8873851Y-7071478D01*
X8841833Y-7023560D01*
X8834048Y-7018358D01*
X9657284Y-7018358D01*
X9671367Y-7052442D01*
X9697421Y-7078541D01*
X9731480Y-7092684D01*
X9768358Y-7092716D01*
X9802442Y-7078633D01*
X9828541Y-7052579D01*
X9842684Y-7018520D01*
X9842716Y-6981642D01*
X9828633Y-6947558D01*
X9802579Y-6921459D01*
X9768520Y-6907316D01*
X9731642Y-6907284D01*
X9697558Y-6921367D01*
X9671459Y-6947421D01*
X9657316Y-6981480D01*
X9657284Y-7018358D01*
X8834048Y-7018358D01*
X8808069Y-7001000D01*
X8841833Y-6978440D01*
X8873851Y-6930522D01*
X8885094Y-6874000D01*
X8873851Y-6817478D01*
X8841833Y-6769560D01*
X8793916Y-6737543D01*
X8737394Y-6726300D01*
X8731606Y-6726300D01*
X8675084Y-6737543D01*
X8627167Y-6769560D01*
X8595149Y-6817478D01*
X8583906Y-6874000D01*
X8455855Y-6874000D01*
X8443175Y-6810256D01*
X8436924Y-6795164D01*
X8433066Y-6785851D01*
X8389712Y-6720966D01*
X8371033Y-6702288D01*
X8371033Y-6702288D01*
X8306149Y-6658934D01*
X8287379Y-6651159D01*
X8281744Y-6648825D01*
X8259700Y-6644440D01*
X8259700Y-5538000D01*
X8400406Y-5538000D01*
X8411649Y-5594522D01*
X8443667Y-5642440D01*
X8477431Y-5665000D01*
X8443667Y-5687560D01*
X8411649Y-5735478D01*
X8400406Y-5792000D01*
X8411649Y-5848522D01*
X8443667Y-5896440D01*
X8477431Y-5919000D01*
X8443667Y-5941560D01*
X8411649Y-5989478D01*
X8400406Y-6046000D01*
X8411649Y-6102522D01*
X8443667Y-6150440D01*
X8477431Y-6173000D01*
X8443667Y-6195560D01*
X8411649Y-6243478D01*
X8400406Y-6300000D01*
X8411649Y-6356522D01*
X8443667Y-6404440D01*
X8449312Y-6408212D01*
X8442765Y-6409444D01*
X8421425Y-6423176D01*
X8407108Y-6444128D01*
X8402072Y-6469000D01*
X8402072Y-6639000D01*
X8406444Y-6662235D01*
X8420176Y-6683575D01*
X8441128Y-6697892D01*
X8466000Y-6702928D01*
X8636000Y-6702928D01*
X8659235Y-6698556D01*
X8680575Y-6684824D01*
X8694892Y-6663872D01*
X8699928Y-6639000D01*
X8699928Y-6469000D01*
X8695556Y-6445765D01*
X8681824Y-6424425D01*
X8660872Y-6410108D01*
X8652413Y-6408395D01*
X8658333Y-6404440D01*
X8690351Y-6356522D01*
X8701594Y-6300000D01*
X8690351Y-6243478D01*
X8658333Y-6195560D01*
X8624569Y-6173000D01*
X8658333Y-6150440D01*
X8690351Y-6102522D01*
X8701594Y-6046000D01*
X8690351Y-5989478D01*
X8658333Y-5941560D01*
X8624569Y-5919000D01*
X8658333Y-5896440D01*
X8690351Y-5848522D01*
X8701594Y-5792000D01*
X8690351Y-5735478D01*
X8658333Y-5687560D01*
X8624569Y-5665000D01*
X8658333Y-5642440D01*
X8690351Y-5594522D01*
X8701594Y-5538000D01*
X8690351Y-5481478D01*
X8658333Y-5433560D01*
X8610416Y-5401543D01*
X8553894Y-5390300D01*
X8548106Y-5390300D01*
X8491584Y-5401543D01*
X8443667Y-5433560D01*
X8411649Y-5481478D01*
X8400406Y-5538000D01*
X8259700Y-5538000D01*
X8259700Y-4753358D01*
X8599784Y-4753358D01*
X8613867Y-4787442D01*
X8639921Y-4813541D01*
X8673980Y-4827684D01*
X8710858Y-4827716D01*
X8744942Y-4813633D01*
X8771041Y-4787579D01*
X8785184Y-4753520D01*
X8785216Y-4716642D01*
X8771464Y-4683358D01*
X9379284Y-4683358D01*
X9393367Y-4717442D01*
X9419421Y-4743541D01*
X9453480Y-4757684D01*
X9456965Y-4757687D01*
X9466367Y-4780442D01*
X9492421Y-4806541D01*
X9526480Y-4820684D01*
X9563358Y-4820716D01*
X9597442Y-4806633D01*
X9623541Y-4780579D01*
X9637684Y-4746520D01*
X9637716Y-4709642D01*
X9623633Y-4675558D01*
X9597579Y-4649459D01*
X9563520Y-4635316D01*
X9560035Y-4635313D01*
X9551548Y-4614771D01*
X9839204Y-4614771D01*
X9862042Y-4670044D01*
X9904294Y-4712369D01*
X9959526Y-4735304D01*
X10019331Y-4735356D01*
X10074604Y-4712518D01*
X10116929Y-4670266D01*
X10139864Y-4615034D01*
X10139907Y-4565000D01*
X10187300Y-4565000D01*
X10195879Y-4608128D01*
X10220309Y-4644691D01*
X10474627Y-4899009D01*
X10449558Y-4909367D01*
X10423459Y-4935421D01*
X10409316Y-4969480D01*
X10409284Y-5006358D01*
X10423367Y-5040442D01*
X10449421Y-5066541D01*
X10483480Y-5080684D01*
X10520358Y-5080716D01*
X10554442Y-5066633D01*
X10580541Y-5040579D01*
X10591003Y-5015385D01*
X10709800Y-5134182D01*
X10709800Y-9652500D01*
X10718379Y-9695628D01*
X10742809Y-9732191D01*
X10779372Y-9756621D01*
X10822500Y-9765200D01*
X10865628Y-9756621D01*
X10902191Y-9732191D01*
X10926621Y-9695628D01*
X10935200Y-9652500D01*
X10935200Y-5368358D01*
X11157284Y-5368358D01*
X11171367Y-5402442D01*
X11197421Y-5428541D01*
X11231480Y-5442684D01*
X11268358Y-5442716D01*
X11302442Y-5428633D01*
X11328541Y-5402579D01*
X11342684Y-5368520D01*
X11342716Y-5331642D01*
X11328633Y-5297558D01*
X11302579Y-5271459D01*
X11268520Y-5257316D01*
X11231642Y-5257284D01*
X11197558Y-5271367D01*
X11171459Y-5297421D01*
X11157316Y-5331480D01*
X11157284Y-5368358D01*
X10935200Y-5368358D01*
X10935200Y-5191299D01*
X10947421Y-5203541D01*
X10981480Y-5217684D01*
X11018358Y-5217716D01*
X11052442Y-5203633D01*
X11078541Y-5177579D01*
X11079144Y-5176129D01*
X11090016Y-5202442D01*
X11116070Y-5228541D01*
X11150129Y-5242684D01*
X11187007Y-5242716D01*
X11221091Y-5228633D01*
X11247190Y-5202579D01*
X11261333Y-5168520D01*
X11261365Y-5131642D01*
X11247282Y-5097558D01*
X11221228Y-5071459D01*
X11187169Y-5057316D01*
X11150291Y-5057284D01*
X11116207Y-5071367D01*
X11090108Y-5097421D01*
X11089505Y-5098871D01*
X11078633Y-5072558D01*
X11052579Y-5046459D01*
X11018520Y-5032316D01*
X10981642Y-5032284D01*
X10947558Y-5046367D01*
X10930421Y-5063474D01*
X10926621Y-5044372D01*
X10918544Y-5032284D01*
X10902191Y-5007809D01*
X10379691Y-4485309D01*
X10343128Y-4460879D01*
X10300000Y-4452300D01*
X10256872Y-4460879D01*
X10220309Y-4485309D01*
X10195879Y-4521872D01*
X10187300Y-4565000D01*
X10139907Y-4565000D01*
X10139916Y-4555229D01*
X10117078Y-4499956D01*
X10074826Y-4457631D01*
X10019594Y-4434696D01*
X9959789Y-4434644D01*
X9904516Y-4457482D01*
X9862191Y-4499734D01*
X9839256Y-4554966D01*
X9839204Y-4614771D01*
X9551548Y-4614771D01*
X9550633Y-4612558D01*
X9524579Y-4586459D01*
X9490520Y-4572316D01*
X9453642Y-4572284D01*
X9419558Y-4586367D01*
X9393459Y-4612421D01*
X9379316Y-4646480D01*
X9379284Y-4683358D01*
X8771464Y-4683358D01*
X8771133Y-4682558D01*
X8745079Y-4656459D01*
X8711020Y-4642316D01*
X8674142Y-4642284D01*
X8640058Y-4656367D01*
X8613959Y-4682421D01*
X8599816Y-4716480D01*
X8599784Y-4753358D01*
X8259700Y-4753358D01*
X8259700Y-4606358D01*
X9092284Y-4606358D01*
X9106367Y-4640442D01*
X9132421Y-4666541D01*
X9166480Y-4680684D01*
X9203358Y-4680716D01*
X9237442Y-4666633D01*
X9263541Y-4640579D01*
X9277684Y-4606520D01*
X9277716Y-4569642D01*
X9263633Y-4535558D01*
X9237579Y-4509459D01*
X9203520Y-4495316D01*
X9166642Y-4495284D01*
X9132558Y-4509367D01*
X9106459Y-4535421D01*
X9092316Y-4569480D01*
X9092284Y-4606358D01*
X8259700Y-4606358D01*
X8259700Y-4247358D01*
X9241284Y-4247358D01*
X9255367Y-4281442D01*
X9281421Y-4307541D01*
X9315480Y-4321684D01*
X9352358Y-4321716D01*
X9386442Y-4307633D01*
X9412541Y-4281579D01*
X9426684Y-4247520D01*
X9426716Y-4210642D01*
X9412633Y-4176558D01*
X9386579Y-4150459D01*
X9352520Y-4136316D01*
X9315642Y-4136284D01*
X9281558Y-4150367D01*
X9255459Y-4176421D01*
X9241316Y-4210480D01*
X9241284Y-4247358D01*
X8259700Y-4247358D01*
X8259700Y-3843358D01*
X8282284Y-3843358D01*
X8296367Y-3877442D01*
X8322421Y-3903541D01*
X8356480Y-3917684D01*
X8393358Y-3917716D01*
X8427442Y-3903633D01*
X8453541Y-3877579D01*
X8467684Y-3843520D01*
X8467716Y-3806642D01*
X8453633Y-3772558D01*
X8427579Y-3746459D01*
X8393520Y-3732316D01*
X8356642Y-3732284D01*
X8322558Y-3746367D01*
X8296459Y-3772421D01*
X8282316Y-3806480D01*
X8282284Y-3843358D01*
X8259700Y-3843358D01*
X8259700Y-3755560D01*
X8281744Y-3751175D01*
X8288892Y-3748214D01*
X8306149Y-3741066D01*
X8371033Y-3697712D01*
X8371033Y-3697712D01*
X8389712Y-3679033D01*
X8403527Y-3658358D01*
X8674784Y-3658358D01*
X8688867Y-3692442D01*
X8714921Y-3718541D01*
X8748980Y-3732684D01*
X8785858Y-3732716D01*
X8819942Y-3718633D01*
X8846041Y-3692579D01*
X8860184Y-3658520D01*
X8860191Y-3650000D01*
X9004800Y-3650000D01*
X9013379Y-3693128D01*
X9037809Y-3729691D01*
X9067809Y-3759691D01*
X9067809Y-3759691D01*
X9360309Y-4052191D01*
X9396872Y-4076621D01*
X9440000Y-4085200D01*
X10577818Y-4085200D01*
X10908930Y-4416312D01*
X10908690Y-4416551D01*
X10887169Y-4407615D01*
X10850291Y-4407583D01*
X10816207Y-4421666D01*
X10812871Y-4424996D01*
X10794866Y-4406960D01*
X10760808Y-4392817D01*
X10723929Y-4392785D01*
X10689846Y-4406868D01*
X10663746Y-4432922D01*
X10649604Y-4466981D01*
X10649571Y-4503859D01*
X10663654Y-4537943D01*
X10689709Y-4564042D01*
X10723767Y-4578185D01*
X10760646Y-4578217D01*
X10794729Y-4564134D01*
X10798065Y-4560804D01*
X10816070Y-4578840D01*
X10850129Y-4592983D01*
X10880685Y-4593009D01*
X10872558Y-4596367D01*
X10846459Y-4622421D01*
X10832316Y-4656480D01*
X10832284Y-4693358D01*
X10846367Y-4727442D01*
X10872421Y-4753541D01*
X10906480Y-4767684D01*
X10943358Y-4767716D01*
X10977442Y-4753633D01*
X11003541Y-4727579D01*
X11017684Y-4693520D01*
X11017716Y-4656642D01*
X11012208Y-4643310D01*
X11022421Y-4653541D01*
X11056480Y-4667684D01*
X11093358Y-4667716D01*
X11127442Y-4653633D01*
X11136855Y-4644237D01*
X11261300Y-4768682D01*
X11261300Y-5001000D01*
X11269879Y-5044128D01*
X11294309Y-5080691D01*
X11324309Y-5110691D01*
X11324309Y-5110691D01*
X12056900Y-5843282D01*
X12056900Y-10621600D01*
X12065479Y-10664728D01*
X12066533Y-10666306D01*
X12041142Y-10666284D01*
X12007058Y-10680367D01*
X11980959Y-10706421D01*
X11966816Y-10740480D01*
X11966784Y-10777358D01*
X11980867Y-10811442D01*
X12006921Y-10837541D01*
X12040980Y-10851684D01*
X12077858Y-10851716D01*
X12111942Y-10837633D01*
X12138041Y-10811579D01*
X12152184Y-10777520D01*
X12152196Y-10763578D01*
X12539809Y-11151191D01*
X12576372Y-11175621D01*
X12619500Y-11184200D01*
X12662628Y-11175621D01*
X12699191Y-11151191D01*
X12723621Y-11114628D01*
X12732200Y-11071500D01*
X12723621Y-11028372D01*
X12699191Y-10991809D01*
X12411740Y-10704358D01*
X13547784Y-10704358D01*
X13561867Y-10738442D01*
X13587921Y-10764541D01*
X13621980Y-10778684D01*
X13658858Y-10778716D01*
X13692942Y-10764633D01*
X13719041Y-10738579D01*
X13733184Y-10704520D01*
X13733216Y-10667642D01*
X13719133Y-10633558D01*
X13693079Y-10607459D01*
X13659020Y-10593316D01*
X13622142Y-10593284D01*
X13588058Y-10607367D01*
X13561959Y-10633421D01*
X13547816Y-10667480D01*
X13547784Y-10704358D01*
X12411740Y-10704358D01*
X12282300Y-10574918D01*
X12282300Y-10174358D01*
X13170284Y-10174358D01*
X13184367Y-10208442D01*
X13210421Y-10234541D01*
X13244480Y-10248684D01*
X13281358Y-10248716D01*
X13315442Y-10234633D01*
X13341541Y-10208579D01*
X13355684Y-10174520D01*
X13355716Y-10137642D01*
X13341633Y-10103558D01*
X13315579Y-10077459D01*
X13281520Y-10063316D01*
X13244642Y-10063284D01*
X13210558Y-10077367D01*
X13184459Y-10103421D01*
X13170316Y-10137480D01*
X13170284Y-10174358D01*
X12282300Y-10174358D01*
X12282300Y-9874358D01*
X13392784Y-9874358D01*
X13406867Y-9908442D01*
X13432921Y-9934541D01*
X13466980Y-9948684D01*
X13503858Y-9948716D01*
X13537942Y-9934633D01*
X13564041Y-9908579D01*
X13578184Y-9874520D01*
X13578216Y-9837642D01*
X13564133Y-9803558D01*
X13538079Y-9777459D01*
X13504020Y-9763316D01*
X13467142Y-9763284D01*
X13433058Y-9777367D01*
X13406959Y-9803421D01*
X13392816Y-9837480D01*
X13392784Y-9874358D01*
X12282300Y-9874358D01*
X12282300Y-7976642D01*
X14604000Y-7976642D01*
X14618083Y-8010726D01*
X14644137Y-8036826D01*
X14678196Y-8050968D01*
X14715074Y-8051000D01*
X14749157Y-8036917D01*
X14775257Y-8010863D01*
X14784242Y-7989226D01*
X14805726Y-7980349D01*
X14831826Y-7954295D01*
X14845968Y-7920236D01*
X14846000Y-7883357D01*
X14831917Y-7849274D01*
X14805863Y-7823174D01*
X14771804Y-7809032D01*
X14734926Y-7809000D01*
X14700842Y-7823083D01*
X14674743Y-7849137D01*
X14665758Y-7870774D01*
X14644274Y-7879651D01*
X14618174Y-7905705D01*
X14604032Y-7939764D01*
X14604000Y-7976642D01*
X12282300Y-7976642D01*
X12282300Y-7264358D01*
X14389284Y-7264358D01*
X14403367Y-7298442D01*
X14429421Y-7324541D01*
X14463480Y-7338684D01*
X14500358Y-7338716D01*
X14521009Y-7330183D01*
X14541480Y-7338684D01*
X14578358Y-7338716D01*
X14612442Y-7324633D01*
X14638541Y-7298579D01*
X14652684Y-7264520D01*
X14652716Y-7227642D01*
X14638633Y-7193558D01*
X14612579Y-7167459D01*
X14605200Y-7164395D01*
X14605200Y-6802605D01*
X14607547Y-6801710D01*
X14613621Y-6797893D01*
X14619251Y-6792571D01*
X14625692Y-6788266D01*
X14630765Y-6783194D01*
X14635069Y-6776752D01*
X14640392Y-6771122D01*
X14644208Y-6765048D01*
X14646971Y-6757811D01*
X14650907Y-6751138D01*
X14653276Y-6744367D01*
X14654359Y-6736695D01*
X14656712Y-6729314D01*
X14657515Y-6722186D01*
X14657187Y-6718295D01*
X14657949Y-6714465D01*
X14657949Y-6663035D01*
X14657187Y-6659206D01*
X14657515Y-6655315D01*
X14656712Y-6648187D01*
X14654359Y-6640805D01*
X14653276Y-6633134D01*
X14650907Y-6626363D01*
X14646971Y-6619690D01*
X14644208Y-6612453D01*
X14640392Y-6606379D01*
X14635069Y-6600749D01*
X14630765Y-6594307D01*
X14625692Y-6589234D01*
X14619251Y-6584930D01*
X14613621Y-6579608D01*
X14607547Y-6575791D01*
X14605200Y-6574895D01*
X14605200Y-4895877D01*
X14852005Y-4649072D01*
X14866951Y-4626703D01*
X14872200Y-4600317D01*
X14872200Y-4370877D01*
X14934005Y-4309072D01*
X14948951Y-4286703D01*
X14954200Y-4260317D01*
X14954200Y-4177452D01*
X14966844Y-4190118D01*
X15000903Y-4204261D01*
X15011800Y-4204271D01*
X15011800Y-4432123D01*
X14928995Y-4514928D01*
X14914049Y-4537297D01*
X14908800Y-4563683D01*
X14908800Y-6445800D01*
X14905135Y-6445800D01*
X14901306Y-6446562D01*
X14897416Y-6446234D01*
X14887929Y-6447302D01*
X14880547Y-6449655D01*
X14872875Y-6450738D01*
X14863864Y-6453892D01*
X14857191Y-6457828D01*
X14849953Y-6460590D01*
X14841869Y-6465670D01*
X14836240Y-6470992D01*
X14829798Y-6475297D01*
X14823047Y-6482048D01*
X14818742Y-6488489D01*
X14813420Y-6494119D01*
X14808341Y-6502203D01*
X14805578Y-6509441D01*
X14801642Y-6516113D01*
X14798488Y-6525125D01*
X14797405Y-6532797D01*
X14795053Y-6540178D01*
X14793984Y-6549666D01*
X14794312Y-6553556D01*
X14793550Y-6557385D01*
X14793550Y-6562615D01*
X14794312Y-6566444D01*
X14793984Y-6570334D01*
X14795053Y-6579821D01*
X14797405Y-6587203D01*
X14798488Y-6594875D01*
X14801642Y-6603886D01*
X14805578Y-6610559D01*
X14808341Y-6617797D01*
X14813420Y-6625881D01*
X14818742Y-6631510D01*
X14823047Y-6637952D01*
X14829798Y-6644703D01*
X14836240Y-6649008D01*
X14841869Y-6654330D01*
X14849953Y-6659409D01*
X14857191Y-6662172D01*
X14863864Y-6666108D01*
X14872875Y-6669262D01*
X14880547Y-6670345D01*
X14887928Y-6672697D01*
X14897415Y-6673766D01*
X14901306Y-6673438D01*
X14905135Y-6674200D01*
X14909434Y-6674200D01*
X14908800Y-6677385D01*
X14908800Y-7173375D01*
X14901558Y-7176367D01*
X14875459Y-7202421D01*
X14861316Y-7236480D01*
X14861284Y-7273358D01*
X14875367Y-7307442D01*
X14901421Y-7333541D01*
X14935480Y-7347684D01*
X14972358Y-7347716D01*
X14993009Y-7339183D01*
X15013480Y-7347684D01*
X15050358Y-7347716D01*
X15084442Y-7333633D01*
X15110541Y-7307579D01*
X15124684Y-7273520D01*
X15124716Y-7236642D01*
X15110633Y-7202558D01*
X15084579Y-7176459D01*
X15077200Y-7173395D01*
X15077200Y-6734200D01*
X15080865Y-6734200D01*
X15084694Y-6733438D01*
X15088585Y-6733766D01*
X15098072Y-6732697D01*
X15105453Y-6730345D01*
X15113125Y-6729262D01*
X15122136Y-6726108D01*
X15128809Y-6722172D01*
X15136047Y-6719409D01*
X15144131Y-6714330D01*
X15149760Y-6709007D01*
X15156202Y-6704703D01*
X15162953Y-6697952D01*
X15167258Y-6691510D01*
X15172580Y-6685881D01*
X15177659Y-6677797D01*
X15180422Y-6670559D01*
X15184358Y-6663886D01*
X15187512Y-6654875D01*
X15188595Y-6647203D01*
X15190947Y-6639821D01*
X15192016Y-6630334D01*
X15191688Y-6626444D01*
X15192450Y-6622615D01*
X15192450Y-6617385D01*
X15191688Y-6613556D01*
X15192016Y-6609666D01*
X15190947Y-6600178D01*
X15188595Y-6592797D01*
X15187512Y-6585125D01*
X15184358Y-6576113D01*
X15180422Y-6569441D01*
X15177659Y-6562203D01*
X15172580Y-6554119D01*
X15167258Y-6548489D01*
X15162953Y-6542048D01*
X15156202Y-6535297D01*
X15149760Y-6530992D01*
X15144131Y-6525670D01*
X15136047Y-6520590D01*
X15128809Y-6517828D01*
X15122136Y-6513892D01*
X15113125Y-6510738D01*
X15105453Y-6509655D01*
X15098071Y-6507302D01*
X15088584Y-6506234D01*
X15084694Y-6506562D01*
X15080865Y-6505800D01*
X15076566Y-6505800D01*
X15077200Y-6502615D01*
X15077200Y-5173000D01*
X16868906Y-5173000D01*
X16880149Y-5229522D01*
X16912167Y-5277440D01*
X16945931Y-5300000D01*
X16912167Y-5322560D01*
X16880149Y-5370478D01*
X16868906Y-5427000D01*
X16880149Y-5483522D01*
X16912167Y-5531440D01*
X16960084Y-5563457D01*
X17016606Y-5574700D01*
X17022394Y-5574700D01*
X17078916Y-5563457D01*
X17126833Y-5531440D01*
X17158851Y-5483522D01*
X17170094Y-5427000D01*
X17158851Y-5370478D01*
X17126833Y-5322560D01*
X17093069Y-5300000D01*
X17126833Y-5277440D01*
X17158851Y-5229522D01*
X17170094Y-5173000D01*
X17158851Y-5116478D01*
X17126833Y-5068560D01*
X17078916Y-5036543D01*
X17022394Y-5025300D01*
X17016606Y-5025300D01*
X16960084Y-5036543D01*
X16912167Y-5068560D01*
X16880149Y-5116478D01*
X16868906Y-5173000D01*
X15077200Y-5173000D01*
X15077200Y-4982358D01*
X15606284Y-4982358D01*
X15620367Y-5016442D01*
X15646421Y-5042541D01*
X15680480Y-5056684D01*
X15717358Y-5056716D01*
X15751442Y-5042633D01*
X15777541Y-5016579D01*
X15791684Y-4982520D01*
X15791716Y-4945642D01*
X15777633Y-4911558D01*
X15751579Y-4885459D01*
X15717520Y-4871316D01*
X15680642Y-4871284D01*
X15646558Y-4885367D01*
X15620459Y-4911421D01*
X15606316Y-4945480D01*
X15606284Y-4982358D01*
X15077200Y-4982358D01*
X15077200Y-4604877D01*
X15122002Y-4560074D01*
X15399000Y-4560074D01*
X15413083Y-4594158D01*
X15439137Y-4620257D01*
X15460774Y-4629242D01*
X15469651Y-4650726D01*
X15495705Y-4676826D01*
X15529764Y-4690968D01*
X15566642Y-4691000D01*
X15600726Y-4676917D01*
X15625531Y-4652156D01*
X15632922Y-4670044D01*
X15675173Y-4712369D01*
X15730406Y-4735304D01*
X15790211Y-4735356D01*
X15845484Y-4712518D01*
X15887809Y-4670266D01*
X15910744Y-4615034D01*
X15910796Y-4555229D01*
X15887958Y-4499956D01*
X15845706Y-4457631D01*
X15790473Y-4434696D01*
X15730668Y-4434644D01*
X15675396Y-4457482D01*
X15633071Y-4499734D01*
X15617741Y-4536651D01*
X15600863Y-4519743D01*
X15579226Y-4510758D01*
X15570349Y-4489274D01*
X15544295Y-4463174D01*
X15510236Y-4449032D01*
X15473357Y-4449000D01*
X15439274Y-4463083D01*
X15413174Y-4489137D01*
X15399032Y-4523196D01*
X15399000Y-4560074D01*
X15122002Y-4560074D01*
X15160005Y-4522072D01*
X15174951Y-4499703D01*
X15180200Y-4473317D01*
X15180200Y-4235289D01*
X15198421Y-4253541D01*
X15232480Y-4267684D01*
X15269358Y-4267716D01*
X15303442Y-4253633D01*
X15329541Y-4227579D01*
X15329633Y-4227358D01*
X15627284Y-4227358D01*
X15641367Y-4261442D01*
X15667421Y-4287541D01*
X15701480Y-4301684D01*
X15738358Y-4301716D01*
X15772442Y-4287633D01*
X15798541Y-4261579D01*
X15812684Y-4227520D01*
X15812716Y-4190642D01*
X15798633Y-4156558D01*
X15772579Y-4130459D01*
X15738520Y-4116316D01*
X15701642Y-4116284D01*
X15667558Y-4130367D01*
X15641459Y-4156421D01*
X15627316Y-4190480D01*
X15627284Y-4227358D01*
X15329633Y-4227358D01*
X15343684Y-4193520D01*
X15343716Y-4156642D01*
X15335183Y-4135991D01*
X15343684Y-4115520D01*
X15343716Y-4078642D01*
X15329633Y-4044558D01*
X15318370Y-4033276D01*
X15318684Y-4032520D01*
X15318716Y-3995642D01*
X15310183Y-3974991D01*
X15318684Y-3954520D01*
X15318716Y-3917642D01*
X15304633Y-3883558D01*
X15278579Y-3857459D01*
X15244520Y-3843316D01*
X15207642Y-3843284D01*
X15173558Y-3857367D01*
X15147459Y-3883421D01*
X15144395Y-3890800D01*
X14948683Y-3890800D01*
X14922297Y-3896048D01*
X14899928Y-3910995D01*
X14805995Y-4004928D01*
X14791048Y-4027297D01*
X14785800Y-4053683D01*
X14785800Y-4219123D01*
X14723995Y-4280928D01*
X14709048Y-4303297D01*
X14703800Y-4329683D01*
X14703800Y-4559123D01*
X14662692Y-4600231D01*
X14662716Y-4572642D01*
X14653769Y-4550989D01*
X14662684Y-4529520D01*
X14662716Y-4492642D01*
X14648633Y-4458558D01*
X14622579Y-4432459D01*
X14588520Y-4418316D01*
X14551642Y-4418284D01*
X14517558Y-4432367D01*
X14491459Y-4458421D01*
X14477316Y-4492480D01*
X14477284Y-4529358D01*
X14486231Y-4551011D01*
X14477316Y-4572480D01*
X14477284Y-4609358D01*
X14491367Y-4643442D01*
X14517421Y-4669541D01*
X14551480Y-4683684D01*
X14579215Y-4683708D01*
X14456995Y-4805928D01*
X14442049Y-4828297D01*
X14436800Y-4854683D01*
X14436800Y-6629465D01*
X14437562Y-6633294D01*
X14437233Y-6637185D01*
X14438037Y-6644313D01*
X14440389Y-6651695D01*
X14441473Y-6659367D01*
X14443842Y-6666138D01*
X14447778Y-6672811D01*
X14450541Y-6680048D01*
X14454357Y-6686122D01*
X14456842Y-6688750D01*
X14454357Y-6691379D01*
X14450541Y-6697453D01*
X14447778Y-6704690D01*
X14443842Y-6711363D01*
X14441473Y-6718134D01*
X14440389Y-6725806D01*
X14438037Y-6733188D01*
X14437233Y-6740316D01*
X14437562Y-6744207D01*
X14436800Y-6748035D01*
X14436800Y-7164375D01*
X14429558Y-7167367D01*
X14403459Y-7193421D01*
X14389316Y-7227480D01*
X14389284Y-7264358D01*
X12282300Y-7264358D01*
X12282300Y-5796600D01*
X12273721Y-5753471D01*
X12249291Y-5716909D01*
X11675740Y-5143358D01*
X12482284Y-5143358D01*
X12496367Y-5177442D01*
X12522421Y-5203541D01*
X12556480Y-5217684D01*
X12593358Y-5217716D01*
X12627442Y-5203633D01*
X12653541Y-5177579D01*
X12667684Y-5143520D01*
X12667716Y-5106642D01*
X12653633Y-5072558D01*
X12627579Y-5046459D01*
X12593520Y-5032316D01*
X12556642Y-5032284D01*
X12522558Y-5046367D01*
X12496459Y-5072421D01*
X12482316Y-5106480D01*
X12482284Y-5143358D01*
X11675740Y-5143358D01*
X11525740Y-4993358D01*
X12707284Y-4993358D01*
X12721367Y-5027442D01*
X12747421Y-5053541D01*
X12781480Y-5067684D01*
X12818358Y-5067716D01*
X12852442Y-5053633D01*
X12878541Y-5027579D01*
X12892684Y-4993520D01*
X12892693Y-4983358D01*
X13934284Y-4983358D01*
X13948367Y-5017442D01*
X13974421Y-5043541D01*
X14008480Y-5057684D01*
X14045358Y-5057716D01*
X14079442Y-5043633D01*
X14105541Y-5017579D01*
X14119684Y-4983520D01*
X14119716Y-4946642D01*
X14105633Y-4912558D01*
X14079579Y-4886459D01*
X14045520Y-4872316D01*
X14008642Y-4872284D01*
X13974558Y-4886367D01*
X13948459Y-4912421D01*
X13934316Y-4946480D01*
X13934284Y-4983358D01*
X12892693Y-4983358D01*
X12892716Y-4956642D01*
X12878633Y-4922558D01*
X12852579Y-4896459D01*
X12818520Y-4882316D01*
X12781642Y-4882284D01*
X12747558Y-4896367D01*
X12721459Y-4922421D01*
X12707316Y-4956480D01*
X12707284Y-4993358D01*
X11525740Y-4993358D01*
X11486700Y-4954318D01*
X11486700Y-4765358D01*
X12210284Y-4765358D01*
X12224367Y-4799442D01*
X12250421Y-4825541D01*
X12284480Y-4839684D01*
X12321358Y-4839716D01*
X12355442Y-4825633D01*
X12381541Y-4799579D01*
X12395684Y-4765520D01*
X12395716Y-4728642D01*
X12391467Y-4718358D01*
X12407284Y-4718358D01*
X12421367Y-4752442D01*
X12447421Y-4778541D01*
X12481480Y-4792684D01*
X12518358Y-4792716D01*
X12552442Y-4778633D01*
X12578541Y-4752579D01*
X12592684Y-4718520D01*
X12592684Y-4718358D01*
X12850933Y-4718358D01*
X12865016Y-4752442D01*
X12891070Y-4778541D01*
X12925129Y-4792684D01*
X12962007Y-4792716D01*
X12996091Y-4778633D01*
X13022190Y-4752579D01*
X13034324Y-4723358D01*
X13098284Y-4723358D01*
X13112367Y-4757442D01*
X13138421Y-4783541D01*
X13172480Y-4797684D01*
X13209358Y-4797716D01*
X13243442Y-4783633D01*
X13269541Y-4757579D01*
X13273162Y-4748858D01*
X13841284Y-4748858D01*
X13855367Y-4782942D01*
X13881421Y-4809041D01*
X13915480Y-4823184D01*
X13952358Y-4823216D01*
X13986442Y-4809133D01*
X14012541Y-4783079D01*
X14026684Y-4749020D01*
X14026716Y-4712142D01*
X14012633Y-4678058D01*
X13986579Y-4651959D01*
X13952520Y-4637816D01*
X13915642Y-4637784D01*
X13881558Y-4651867D01*
X13855459Y-4677921D01*
X13841316Y-4711980D01*
X13841284Y-4748858D01*
X13273162Y-4748858D01*
X13283684Y-4723520D01*
X13283716Y-4686642D01*
X13269633Y-4652558D01*
X13243579Y-4626459D01*
X13209520Y-4612316D01*
X13172642Y-4612284D01*
X13138558Y-4626367D01*
X13112459Y-4652421D01*
X13098316Y-4686480D01*
X13098284Y-4723358D01*
X13034324Y-4723358D01*
X13036333Y-4718520D01*
X13036365Y-4681642D01*
X13022282Y-4647558D01*
X12996228Y-4621459D01*
X12962169Y-4607316D01*
X12925291Y-4607284D01*
X12891207Y-4621367D01*
X12865108Y-4647421D01*
X12850965Y-4681480D01*
X12850933Y-4718358D01*
X12592684Y-4718358D01*
X12592716Y-4681642D01*
X12578633Y-4647558D01*
X12552579Y-4621459D01*
X12518520Y-4607316D01*
X12481642Y-4607284D01*
X12447558Y-4621367D01*
X12421459Y-4647421D01*
X12407316Y-4681480D01*
X12407284Y-4718358D01*
X12391467Y-4718358D01*
X12381633Y-4694558D01*
X12355579Y-4668459D01*
X12321520Y-4654316D01*
X12284642Y-4654284D01*
X12250558Y-4668367D01*
X12224459Y-4694421D01*
X12210316Y-4728480D01*
X12210284Y-4765358D01*
X11486700Y-4765358D01*
X11486700Y-4722000D01*
X11478121Y-4678872D01*
X11478121Y-4678872D01*
X11453691Y-4642309D01*
X11329740Y-4518358D01*
X11382284Y-4518358D01*
X11396367Y-4552442D01*
X11422421Y-4578541D01*
X11456480Y-4592684D01*
X11493358Y-4592716D01*
X11527442Y-4578633D01*
X11553541Y-4552579D01*
X11567684Y-4518520D01*
X11567716Y-4481642D01*
X11562228Y-4468358D01*
X12207284Y-4468358D01*
X12221367Y-4502442D01*
X12247421Y-4528541D01*
X12281480Y-4542684D01*
X12318358Y-4542716D01*
X12352442Y-4528633D01*
X12362734Y-4518358D01*
X12407284Y-4518358D01*
X12421367Y-4552442D01*
X12447421Y-4578541D01*
X12481480Y-4592684D01*
X12518358Y-4592716D01*
X12552442Y-4578633D01*
X12578541Y-4552579D01*
X12592684Y-4518520D01*
X12592706Y-4493358D01*
X12907284Y-4493358D01*
X12921367Y-4527442D01*
X12947421Y-4553541D01*
X12981480Y-4567684D01*
X13018358Y-4567716D01*
X13052442Y-4553633D01*
X13078541Y-4527579D01*
X13092684Y-4493520D01*
X13092716Y-4456642D01*
X13078633Y-4422558D01*
X13052579Y-4396459D01*
X13018520Y-4382316D01*
X12981642Y-4382284D01*
X12947558Y-4396367D01*
X12921459Y-4422421D01*
X12907316Y-4456480D01*
X12907284Y-4493358D01*
X12592706Y-4493358D01*
X12592716Y-4481642D01*
X12578633Y-4447558D01*
X12552579Y-4421459D01*
X12518520Y-4407316D01*
X12481642Y-4407284D01*
X12447558Y-4421367D01*
X12421459Y-4447421D01*
X12407316Y-4481480D01*
X12407284Y-4518358D01*
X12362734Y-4518358D01*
X12378541Y-4502579D01*
X12392684Y-4468520D01*
X12392716Y-4431642D01*
X12378633Y-4397558D01*
X12352579Y-4371459D01*
X12318520Y-4357316D01*
X12281642Y-4357284D01*
X12247558Y-4371367D01*
X12221459Y-4397421D01*
X12207316Y-4431480D01*
X12207284Y-4468358D01*
X11562228Y-4468358D01*
X11553633Y-4447558D01*
X11527579Y-4421459D01*
X11493520Y-4407316D01*
X11456642Y-4407284D01*
X11422558Y-4421367D01*
X11396459Y-4447421D01*
X11382316Y-4481480D01*
X11382284Y-4518358D01*
X11329740Y-4518358D01*
X11058734Y-4247352D01*
X11078541Y-4227579D01*
X11092684Y-4193520D01*
X11092716Y-4156642D01*
X11078633Y-4122558D01*
X11052579Y-4096459D01*
X11018520Y-4082316D01*
X10981642Y-4082284D01*
X10947558Y-4096367D01*
X10927636Y-4116254D01*
X10844740Y-4033358D01*
X14481284Y-4033358D01*
X14490231Y-4055011D01*
X14481316Y-4076480D01*
X14481284Y-4113358D01*
X14495367Y-4147442D01*
X14521421Y-4173541D01*
X14555480Y-4187684D01*
X14592358Y-4187716D01*
X14626442Y-4173633D01*
X14652541Y-4147579D01*
X14666684Y-4113520D01*
X14666716Y-4076642D01*
X14657769Y-4054989D01*
X14666684Y-4033520D01*
X14666716Y-3996642D01*
X14652633Y-3962558D01*
X14626579Y-3936459D01*
X14592520Y-3922316D01*
X14555642Y-3922284D01*
X14521558Y-3936367D01*
X14495459Y-3962421D01*
X14481316Y-3996480D01*
X14481284Y-4033358D01*
X10844740Y-4033358D01*
X10704191Y-3892809D01*
X10667628Y-3868379D01*
X10624500Y-3859800D01*
X9486682Y-3859800D01*
X9227191Y-3600309D01*
X9227191Y-3600309D01*
X9197191Y-3570309D01*
X9160628Y-3545879D01*
X9117500Y-3537300D01*
X9074372Y-3545879D01*
X9037809Y-3570309D01*
X9013379Y-3606872D01*
X9004800Y-3650000D01*
X8860191Y-3650000D01*
X8860216Y-3621642D01*
X8846133Y-3587558D01*
X8820079Y-3561459D01*
X8786020Y-3547316D01*
X8749142Y-3547284D01*
X8715058Y-3561367D01*
X8688959Y-3587421D01*
X8674816Y-3621480D01*
X8674784Y-3658358D01*
X8403527Y-3658358D01*
X8433066Y-3614149D01*
X8438799Y-3600309D01*
X8443175Y-3589744D01*
X8458399Y-3513208D01*
X8458399Y-3506540D01*
X8459700Y-3500000D01*
X8459700Y-3258358D01*
X8674784Y-3258358D01*
X8688867Y-3292442D01*
X8714921Y-3318541D01*
X8748980Y-3332684D01*
X8785858Y-3332716D01*
X8819942Y-3318633D01*
X8846041Y-3292579D01*
X8860184Y-3258520D01*
X8860216Y-3221642D01*
X8846133Y-3187558D01*
X8820079Y-3161459D01*
X8786020Y-3147316D01*
X8749142Y-3147284D01*
X8715058Y-3161367D01*
X8688959Y-3187421D01*
X8674816Y-3221480D01*
X8674784Y-3258358D01*
X8459700Y-3258358D01*
X8459700Y-2910000D01*
X8884300Y-2910000D01*
X8901633Y-2997137D01*
X8950992Y-3071008D01*
X9024863Y-3120367D01*
X9112000Y-3137700D01*
X9199137Y-3120367D01*
X9273008Y-3071008D01*
X9322367Y-2997137D01*
X9333453Y-2941404D01*
X9486976Y-2941404D01*
X9508078Y-2992474D01*
X9547117Y-3031581D01*
X9569542Y-3040893D01*
X9547322Y-3050074D01*
X9508215Y-3089113D01*
X9487024Y-3140146D01*
X9486976Y-3195404D01*
X9508078Y-3246474D01*
X9547117Y-3285581D01*
X9569114Y-3294715D01*
X9547422Y-3303678D01*
X9508315Y-3342717D01*
X9487124Y-3393750D01*
X9487076Y-3449008D01*
X9508178Y-3500078D01*
X9547217Y-3539185D01*
X9569642Y-3548497D01*
X9547422Y-3557678D01*
X9508315Y-3596717D01*
X9487124Y-3647750D01*
X9487076Y-3703008D01*
X9508178Y-3754078D01*
X9547217Y-3793185D01*
X9598250Y-3814376D01*
X9653508Y-3814424D01*
X9704578Y-3793322D01*
X9743685Y-3754283D01*
X9752997Y-3731858D01*
X9762178Y-3754078D01*
X9801217Y-3793185D01*
X9852250Y-3814376D01*
X9907508Y-3814424D01*
X9958578Y-3793322D01*
X9997685Y-3754283D01*
X10006997Y-3731858D01*
X10016178Y-3754078D01*
X10055217Y-3793185D01*
X10106250Y-3814376D01*
X10161508Y-3814424D01*
X10212578Y-3793322D01*
X10251685Y-3754283D01*
X10260997Y-3731858D01*
X10270178Y-3754078D01*
X10309217Y-3793185D01*
X10360250Y-3814376D01*
X10415508Y-3814424D01*
X10466578Y-3793322D01*
X10505685Y-3754283D01*
X10514997Y-3731858D01*
X10524178Y-3754078D01*
X10563217Y-3793185D01*
X10614250Y-3814376D01*
X10669508Y-3814424D01*
X10720578Y-3793322D01*
X10759685Y-3754283D01*
X10768997Y-3731858D01*
X10778178Y-3754078D01*
X10817217Y-3793185D01*
X10868250Y-3814376D01*
X10923508Y-3814424D01*
X10974578Y-3793322D01*
X11013685Y-3754283D01*
X11022997Y-3731858D01*
X11032178Y-3754078D01*
X11071217Y-3793185D01*
X11122250Y-3814376D01*
X11177508Y-3814424D01*
X11228578Y-3793322D01*
X11267685Y-3754283D01*
X11276997Y-3731858D01*
X11286178Y-3754078D01*
X11325217Y-3793185D01*
X11376250Y-3814376D01*
X11431508Y-3814424D01*
X11482578Y-3793322D01*
X11521685Y-3754283D01*
X11530997Y-3731858D01*
X11540178Y-3754078D01*
X11579217Y-3793185D01*
X11630250Y-3814376D01*
X11685508Y-3814424D01*
X11736578Y-3793322D01*
X11775685Y-3754283D01*
X11784997Y-3731858D01*
X11794178Y-3754078D01*
X11833217Y-3793185D01*
X11884250Y-3814376D01*
X11939508Y-3814424D01*
X11990578Y-3793322D01*
X12029685Y-3754283D01*
X12038997Y-3731858D01*
X12048178Y-3754078D01*
X12087217Y-3793185D01*
X12138250Y-3814376D01*
X12193508Y-3814424D01*
X12244578Y-3793322D01*
X12283685Y-3754283D01*
X12292997Y-3731858D01*
X12302178Y-3754078D01*
X12341217Y-3793185D01*
X12392250Y-3814376D01*
X12447508Y-3814424D01*
X12498578Y-3793322D01*
X12537685Y-3754283D01*
X12546997Y-3731858D01*
X12556178Y-3754078D01*
X12595217Y-3793185D01*
X12646250Y-3814376D01*
X12701508Y-3814424D01*
X12752578Y-3793322D01*
X12791685Y-3754283D01*
X12800997Y-3731858D01*
X12810178Y-3754078D01*
X12849217Y-3793185D01*
X12900250Y-3814376D01*
X12955508Y-3814424D01*
X13006578Y-3793322D01*
X13045685Y-3754283D01*
X13054997Y-3731858D01*
X13064178Y-3754078D01*
X13103217Y-3793185D01*
X13154250Y-3814376D01*
X13209508Y-3814424D01*
X13260578Y-3793322D01*
X13299685Y-3754283D01*
X13308997Y-3731858D01*
X13318178Y-3754078D01*
X13357217Y-3793185D01*
X13408250Y-3814376D01*
X13463508Y-3814424D01*
X13514578Y-3793322D01*
X13553685Y-3754283D01*
X13562997Y-3731858D01*
X13572178Y-3754078D01*
X13611217Y-3793185D01*
X13662250Y-3814376D01*
X13717508Y-3814424D01*
X13768578Y-3793322D01*
X13807685Y-3754283D01*
X13816997Y-3731858D01*
X13826178Y-3754078D01*
X13865217Y-3793185D01*
X13916250Y-3814376D01*
X13971508Y-3814424D01*
X14022578Y-3793322D01*
X14061685Y-3754283D01*
X14070997Y-3731858D01*
X14080178Y-3754078D01*
X14119217Y-3793185D01*
X14170250Y-3814376D01*
X14225508Y-3814424D01*
X14276578Y-3793322D01*
X14315685Y-3754283D01*
X14324997Y-3731858D01*
X14334178Y-3754078D01*
X14373217Y-3793185D01*
X14424250Y-3814376D01*
X14479508Y-3814424D01*
X14530578Y-3793322D01*
X14569685Y-3754283D01*
X14578997Y-3731858D01*
X14588178Y-3754078D01*
X14627217Y-3793185D01*
X14678250Y-3814376D01*
X14733508Y-3814424D01*
X14784578Y-3793322D01*
X14823685Y-3754283D01*
X14832997Y-3731858D01*
X14842178Y-3754078D01*
X14881217Y-3793185D01*
X14932250Y-3814376D01*
X14987508Y-3814424D01*
X15038578Y-3793322D01*
X15077685Y-3754283D01*
X15086997Y-3731858D01*
X15096178Y-3754078D01*
X15135217Y-3793185D01*
X15186250Y-3814376D01*
X15241508Y-3814424D01*
X15292578Y-3793322D01*
X15331685Y-3754283D01*
X15340997Y-3731858D01*
X15350178Y-3754078D01*
X15389217Y-3793185D01*
X15440250Y-3814376D01*
X15495508Y-3814424D01*
X15546578Y-3793322D01*
X15585685Y-3754283D01*
X15594997Y-3731858D01*
X15604178Y-3754078D01*
X15643217Y-3793185D01*
X15694250Y-3814376D01*
X15749508Y-3814424D01*
X15800578Y-3793322D01*
X15839685Y-3754283D01*
X15848997Y-3731858D01*
X15858178Y-3754078D01*
X15897217Y-3793185D01*
X15948250Y-3814376D01*
X16003508Y-3814424D01*
X16054578Y-3793322D01*
X16093685Y-3754283D01*
X16114876Y-3703250D01*
X16114924Y-3647992D01*
X16093822Y-3596922D01*
X16054783Y-3557815D01*
X16032358Y-3548503D01*
X16054578Y-3539322D01*
X16093685Y-3500283D01*
X16114876Y-3449250D01*
X16114924Y-3393992D01*
X16093822Y-3342922D01*
X16054783Y-3303815D01*
X16032786Y-3294681D01*
X16054478Y-3285718D01*
X16093585Y-3246679D01*
X16114776Y-3195646D01*
X16114824Y-3140388D01*
X16093722Y-3089318D01*
X16054683Y-3050211D01*
X16032258Y-3040899D01*
X16054478Y-3031718D01*
X16093585Y-2992679D01*
X16114776Y-2941646D01*
X16114803Y-2910000D01*
X16254300Y-2910000D01*
X16271633Y-2997137D01*
X16320992Y-3071008D01*
X16394863Y-3120367D01*
X16482000Y-3137700D01*
X16569137Y-3120367D01*
X16643008Y-3071008D01*
X16692367Y-2997137D01*
X16709700Y-2910000D01*
X16692367Y-2822863D01*
X16643008Y-2748992D01*
X16569137Y-2699633D01*
X16482000Y-2682300D01*
X16394863Y-2699633D01*
X16320992Y-2748992D01*
X16271633Y-2822863D01*
X16254300Y-2910000D01*
X16114803Y-2910000D01*
X16114824Y-2886388D01*
X16093722Y-2835318D01*
X16054683Y-2796211D01*
X16003650Y-2775020D01*
X15948392Y-2774972D01*
X15897322Y-2796074D01*
X15858215Y-2835113D01*
X15848903Y-2857538D01*
X15839722Y-2835318D01*
X15800683Y-2796211D01*
X15749650Y-2775020D01*
X15694392Y-2774972D01*
X15643322Y-2796074D01*
X15604215Y-2835113D01*
X15594903Y-2857538D01*
X15585722Y-2835318D01*
X15546683Y-2796211D01*
X15495650Y-2775020D01*
X15440392Y-2774972D01*
X15389322Y-2796074D01*
X15350215Y-2835113D01*
X15340903Y-2857538D01*
X15331722Y-2835318D01*
X15292683Y-2796211D01*
X15241650Y-2775020D01*
X15186392Y-2774972D01*
X15135322Y-2796074D01*
X15096215Y-2835113D01*
X15086903Y-2857538D01*
X15077722Y-2835318D01*
X15038683Y-2796211D01*
X14987650Y-2775020D01*
X14932392Y-2774972D01*
X14881322Y-2796074D01*
X14842215Y-2835113D01*
X14832903Y-2857538D01*
X14823722Y-2835318D01*
X14784683Y-2796211D01*
X14733650Y-2775020D01*
X14678392Y-2774972D01*
X14627322Y-2796074D01*
X14588215Y-2835113D01*
X14578903Y-2857538D01*
X14569722Y-2835318D01*
X14530683Y-2796211D01*
X14479650Y-2775020D01*
X14424392Y-2774972D01*
X14373322Y-2796074D01*
X14334215Y-2835113D01*
X14324903Y-2857538D01*
X14315722Y-2835318D01*
X14276683Y-2796211D01*
X14225650Y-2775020D01*
X14170392Y-2774972D01*
X14119322Y-2796074D01*
X14080215Y-2835113D01*
X14070903Y-2857538D01*
X14061722Y-2835318D01*
X14022683Y-2796211D01*
X13971650Y-2775020D01*
X13916392Y-2774972D01*
X13865322Y-2796074D01*
X13826215Y-2835113D01*
X13816903Y-2857538D01*
X13807722Y-2835318D01*
X13768683Y-2796211D01*
X13717650Y-2775020D01*
X13662392Y-2774972D01*
X13611322Y-2796074D01*
X13572215Y-2835113D01*
X13562903Y-2857538D01*
X13553722Y-2835318D01*
X13514683Y-2796211D01*
X13463650Y-2775020D01*
X13408392Y-2774972D01*
X13357322Y-2796074D01*
X13318215Y-2835113D01*
X13308903Y-2857538D01*
X13299722Y-2835318D01*
X13260683Y-2796211D01*
X13209650Y-2775020D01*
X13154392Y-2774972D01*
X13103322Y-2796074D01*
X13064215Y-2835113D01*
X13054903Y-2857538D01*
X13045722Y-2835318D01*
X13006683Y-2796211D01*
X12955650Y-2775020D01*
X12900392Y-2774972D01*
X12849322Y-2796074D01*
X12810215Y-2835113D01*
X12800903Y-2857538D01*
X12791722Y-2835318D01*
X12752683Y-2796211D01*
X12701650Y-2775020D01*
X12646392Y-2774972D01*
X12595322Y-2796074D01*
X12556215Y-2835113D01*
X12546903Y-2857538D01*
X12537722Y-2835318D01*
X12498683Y-2796211D01*
X12447650Y-2775020D01*
X12392392Y-2774972D01*
X12341322Y-2796074D01*
X12302215Y-2835113D01*
X12292903Y-2857538D01*
X12283722Y-2835318D01*
X12244683Y-2796211D01*
X12193650Y-2775020D01*
X12138392Y-2774972D01*
X12087322Y-2796074D01*
X12048215Y-2835113D01*
X12038903Y-2857538D01*
X12029722Y-2835318D01*
X11990683Y-2796211D01*
X11939650Y-2775020D01*
X11884392Y-2774972D01*
X11833322Y-2796074D01*
X11794215Y-2835113D01*
X11784903Y-2857538D01*
X11775722Y-2835318D01*
X11736683Y-2796211D01*
X11685650Y-2775020D01*
X11630392Y-2774972D01*
X11579322Y-2796074D01*
X11540215Y-2835113D01*
X11530903Y-2857538D01*
X11521722Y-2835318D01*
X11482683Y-2796211D01*
X11431650Y-2775020D01*
X11376392Y-2774972D01*
X11325322Y-2796074D01*
X11286215Y-2835113D01*
X11276903Y-2857538D01*
X11267722Y-2835318D01*
X11228683Y-2796211D01*
X11177650Y-2775020D01*
X11122392Y-2774972D01*
X11071322Y-2796074D01*
X11032215Y-2835113D01*
X11022903Y-2857538D01*
X11013722Y-2835318D01*
X10974683Y-2796211D01*
X10923650Y-2775020D01*
X10868392Y-2774972D01*
X10817322Y-2796074D01*
X10778215Y-2835113D01*
X10768903Y-2857538D01*
X10759722Y-2835318D01*
X10720683Y-2796211D01*
X10669650Y-2775020D01*
X10614392Y-2774972D01*
X10563322Y-2796074D01*
X10524215Y-2835113D01*
X10514903Y-2857538D01*
X10505722Y-2835318D01*
X10466683Y-2796211D01*
X10415650Y-2775020D01*
X10360392Y-2774972D01*
X10309322Y-2796074D01*
X10270215Y-2835113D01*
X10260903Y-2857538D01*
X10251722Y-2835318D01*
X10212683Y-2796211D01*
X10161650Y-2775020D01*
X10106392Y-2774972D01*
X10055322Y-2796074D01*
X10016215Y-2835113D01*
X10006903Y-2857538D01*
X9997722Y-2835318D01*
X9958683Y-2796211D01*
X9907650Y-2775020D01*
X9852392Y-2774972D01*
X9801322Y-2796074D01*
X9762215Y-2835113D01*
X9752903Y-2857538D01*
X9743722Y-2835318D01*
X9704683Y-2796211D01*
X9653650Y-2775020D01*
X9598392Y-2774972D01*
X9547322Y-2796074D01*
X9508215Y-2835113D01*
X9487024Y-2886146D01*
X9486976Y-2941404D01*
X9333453Y-2941404D01*
X9339700Y-2910000D01*
X9322367Y-2822863D01*
X9273008Y-2748992D01*
X9199137Y-2699633D01*
X9112000Y-2682300D01*
X9024863Y-2699633D01*
X8950992Y-2748992D01*
X8901633Y-2822863D01*
X8884300Y-2910000D01*
X8459700Y-2910000D01*
X8459700Y-2638358D01*
X8844784Y-2638358D01*
X8858867Y-2672442D01*
X8884921Y-2698541D01*
X8918980Y-2712684D01*
X8955858Y-2712716D01*
X8989942Y-2698633D01*
X9016041Y-2672579D01*
X9030184Y-2638520D01*
X9030216Y-2601642D01*
X9016133Y-2567558D01*
X8990079Y-2541459D01*
X8956020Y-2527316D01*
X8919142Y-2527284D01*
X8885058Y-2541367D01*
X8858959Y-2567421D01*
X8844816Y-2601480D01*
X8844784Y-2638358D01*
X8459700Y-2638358D01*
X8459700Y-2467700D01*
X9536440Y-2467700D01*
X9548437Y-2528013D01*
X9548437Y-2528013D01*
G37*
X9548437Y-2528013D02*
X9553969Y-2541367D01*
X9558546Y-2552417D01*
X9623578Y-2649744D01*
X9642256Y-2668423D01*
X9739583Y-2733454D01*
X9746731Y-2736415D01*
X9763987Y-2743563D01*
X9878792Y-2766399D01*
X9885460Y-2766399D01*
X9892000Y-2767700D01*
X11072000Y-2767700D01*
X11078540Y-2766399D01*
X11085208Y-2766399D01*
X11200013Y-2743563D01*
X11215402Y-2737189D01*
X11224417Y-2733454D01*
X11321744Y-2668423D01*
X11340422Y-2649744D01*
X11405454Y-2552417D01*
X11408415Y-2545269D01*
X11415563Y-2528013D01*
X11427560Y-2467700D01*
X17224300Y-2467700D01*
X17224300Y-3200000D01*
X17225601Y-3206540D01*
X17225601Y-3213208D01*
X17233213Y-3251476D01*
X17243322Y-3275880D01*
X17264999Y-3308323D01*
X17283677Y-3327001D01*
X17316120Y-3348678D01*
X17324300Y-3352067D01*
X17324300Y-4199512D01*
X17316161Y-4179815D01*
X17214221Y-4077697D01*
X17080962Y-4022363D01*
X16936671Y-4022237D01*
X16803315Y-4077339D01*
X16701197Y-4179279D01*
X16645863Y-4312538D01*
X16645737Y-4456829D01*
X16700839Y-4590185D01*
X16802779Y-4692303D01*
X16936038Y-4747637D01*
X17080329Y-4747763D01*
X17213685Y-4692661D01*
X17315803Y-4590721D01*
X17324300Y-4570258D01*
X17324300Y-6644440D01*
X17302256Y-6648825D01*
X17288287Y-6654611D01*
X17277851Y-6658934D01*
X17212967Y-6702288D01*
X17194288Y-6720966D01*
X17194288Y-6720967D01*
X17150934Y-6785851D01*
X17144365Y-6801710D01*
X17140825Y-6810256D01*
X17125601Y-6886792D01*
X17125601Y-6893460D01*
X17124300Y-6900000D01*
X17124300Y-7500000D01*
X17125601Y-7506540D01*
X17125601Y-7513208D01*
X17140825Y-7589744D01*
X17141437Y-7591222D01*
X17150934Y-7614149D01*
X17194288Y-7679033D01*
X17194288Y-7679033D01*
X17212967Y-7697712D01*
X17277851Y-7741066D01*
X17285720Y-7744326D01*
X17302256Y-7751175D01*
X17324300Y-7755560D01*
X17324300Y-8899512D01*
X17316161Y-8879815D01*
X17214221Y-8777697D01*
X17080962Y-8722363D01*
X16936671Y-8722237D01*
X16803315Y-8777339D01*
X16701197Y-8879279D01*
X16645863Y-9012538D01*
X16645737Y-9156829D01*
X16700839Y-9290185D01*
X16802779Y-9392303D01*
X16936038Y-9447637D01*
X17080329Y-9447763D01*
X17213685Y-9392661D01*
X17315803Y-9290721D01*
X17324300Y-9270258D01*
X17324300Y-10644440D01*
X17302256Y-10648825D01*
X17287960Y-10654747D01*
X17277851Y-10658934D01*
X17212967Y-10702288D01*
X17194288Y-10720967D01*
X17194288Y-10720967D01*
X17150934Y-10785851D01*
X17143786Y-10803108D01*
X17140825Y-10810256D01*
X17125601Y-10886792D01*
X17125601Y-10893460D01*
X17124300Y-10900000D01*
X17124300Y-11932300D01*
X14947560Y-11932300D01*
X14935563Y-11871987D01*
X14925454Y-11847583D01*
X14925454Y-11847583D01*
X14860422Y-11750256D01*
X14841744Y-11731577D01*
X14744417Y-11666546D01*
X14735402Y-11662811D01*
X14720013Y-11656437D01*
X14605208Y-11633601D01*
X14598540Y-11633601D01*
X14592000Y-11632300D01*
X12212000Y-11632300D01*
X12205460Y-11633601D01*
X12083987Y-11656437D01*
X12069620Y-11662388D01*
X12059583Y-11666546D01*
X11962256Y-11731577D01*
X11943577Y-11750256D01*
X11878546Y-11847583D01*
X11875777Y-11854267D01*
X11868437Y-11871987D01*
X11856440Y-11932300D01*
X8459700Y-11932300D01*
X8459700Y-11480000D01*
X8504300Y-11480000D01*
X8521633Y-11567137D01*
X8570992Y-11641008D01*
X8644863Y-11690367D01*
X8732000Y-11707700D01*
X8819137Y-11690367D01*
X8893008Y-11641008D01*
X8942367Y-11567137D01*
X8943843Y-11559721D01*
X10574772Y-11559721D01*
X10599489Y-11619542D01*
X10645218Y-11665350D01*
X10704995Y-11690172D01*
X10769721Y-11690228D01*
X10829542Y-11665511D01*
X10875350Y-11619782D01*
X10900172Y-11560005D01*
X10900228Y-11495279D01*
X10875511Y-11435458D01*
X10829783Y-11389650D01*
X10770005Y-11364828D01*
X10705279Y-11364772D01*
X10645458Y-11389489D01*
X10599650Y-11435217D01*
X10574828Y-11494995D01*
X10574772Y-11559721D01*
X8943843Y-11559721D01*
X8959700Y-11480000D01*
X8942367Y-11392863D01*
X8893008Y-11318992D01*
X8819137Y-11269633D01*
X8732000Y-11252300D01*
X8644863Y-11269633D01*
X8570992Y-11318992D01*
X8521633Y-11392863D01*
X8504300Y-11480000D01*
X8459700Y-11480000D01*
X8459700Y-10400000D01*
X8458399Y-10393460D01*
X8458399Y-10386792D01*
X8443175Y-10310256D01*
X8437254Y-10295960D01*
X8433066Y-10285851D01*
X8389712Y-10220967D01*
X8371033Y-10202288D01*
X8371033Y-10202288D01*
X8306149Y-10158934D01*
X8288892Y-10151786D01*
X8281744Y-10148825D01*
X8259700Y-10144440D01*
X8259700Y-8269000D01*
X8352906Y-8269000D01*
X8364149Y-8325522D01*
X8396167Y-8373440D01*
X8429931Y-8396000D01*
X8396167Y-8418560D01*
X8364149Y-8466478D01*
X8352906Y-8523000D01*
X8364149Y-8579522D01*
X8396167Y-8627440D01*
X8444084Y-8659457D01*
X8500606Y-8670700D01*
X8506394Y-8670700D01*
X8541420Y-8663733D01*
X8629093Y-8751407D01*
X8652679Y-8767166D01*
X8657295Y-8768084D01*
X8680500Y-8772700D01*
X8680501Y-8772700D01*
X8713359Y-8772700D01*
X8670167Y-8801560D01*
X8650500Y-8830994D01*
X8630833Y-8801560D01*
X8582916Y-8769543D01*
X8526394Y-8758300D01*
X8520606Y-8758300D01*
X8464084Y-8769543D01*
X8416167Y-8801560D01*
X8384149Y-8849478D01*
X8372906Y-8906000D01*
X8384149Y-8962522D01*
X8416167Y-9010440D01*
X8449931Y-9033000D01*
X8416167Y-9055560D01*
X8384149Y-9103478D01*
X8372906Y-9160000D01*
X8384149Y-9216522D01*
X8416167Y-9264440D01*
X8449931Y-9287000D01*
X8416167Y-9309560D01*
X8384149Y-9357478D01*
X8372906Y-9414000D01*
X8384149Y-9470522D01*
X8416167Y-9518440D01*
X8449931Y-9541000D01*
X8416167Y-9563560D01*
X8384149Y-9611478D01*
X8372906Y-9668000D01*
X8384149Y-9724522D01*
X8416167Y-9772440D01*
X8464084Y-9804457D01*
X8520606Y-9815700D01*
X8526394Y-9815700D01*
X8582916Y-9804457D01*
X8630833Y-9772440D01*
X8631923Y-9770809D01*
X8632944Y-9776235D01*
X8646676Y-9797575D01*
X8667628Y-9811892D01*
X8692500Y-9816928D01*
X8862500Y-9816928D01*
X8885735Y-9812556D01*
X8907075Y-9798824D01*
X8921392Y-9777872D01*
X8926428Y-9753000D01*
X8926428Y-9583000D01*
X8922056Y-9559765D01*
X8908324Y-9538425D01*
X8887372Y-9524108D01*
X8878913Y-9522395D01*
X8884833Y-9518440D01*
X8916851Y-9470522D01*
X8928094Y-9414000D01*
X8916851Y-9357478D01*
X8884833Y-9309560D01*
X8851069Y-9287000D01*
X8884833Y-9264440D01*
X8916851Y-9216522D01*
X8928094Y-9160000D01*
X8916851Y-9103478D01*
X8884833Y-9055560D01*
X8851069Y-9033000D01*
X8884833Y-9010440D01*
X8916851Y-8962522D01*
X8928094Y-8906000D01*
X8916851Y-8849478D01*
X8884833Y-8801560D01*
X8841641Y-8772700D01*
X9238542Y-8772700D01*
X9227315Y-8777339D01*
X9125197Y-8879279D01*
X9069863Y-9012538D01*
X9069737Y-9156829D01*
X9124839Y-9290185D01*
X9226779Y-9392303D01*
X9360038Y-9447637D01*
X9504329Y-9447763D01*
X9637685Y-9392661D01*
X9739803Y-9290721D01*
X9795137Y-9157462D01*
X9795263Y-9013171D01*
X9740161Y-8879815D01*
X9638221Y-8777697D01*
X9626187Y-8772700D01*
X9710387Y-8772700D01*
X10309800Y-9372113D01*
X10309800Y-9723000D01*
X10309800Y-9723000D01*
X10314213Y-9745184D01*
X10315334Y-9750821D01*
X10324942Y-9765200D01*
X10331093Y-9774407D01*
X10508093Y-9951407D01*
X10531679Y-9967166D01*
X10536295Y-9968084D01*
X10559500Y-9972700D01*
X10559501Y-9972700D01*
X11194887Y-9972700D01*
X11677300Y-10455113D01*
X11677300Y-11175000D01*
X11677300Y-11175000D01*
X11681466Y-11195942D01*
X11682834Y-11202821D01*
X11695676Y-11222041D01*
X11698593Y-11226407D01*
X11973593Y-11501406D01*
X11973593Y-11501407D01*
X11993251Y-11514541D01*
X11997179Y-11517166D01*
X12025000Y-11522700D01*
X13124999Y-11522700D01*
X13125000Y-11522700D01*
X13148205Y-11518084D01*
X13152821Y-11517166D01*
X13176407Y-11501407D01*
X13176407Y-11501407D01*
X13223455Y-11454358D01*
X13640284Y-11454358D01*
X13654367Y-11488442D01*
X13680421Y-11514541D01*
X13714480Y-11528684D01*
X13751358Y-11528716D01*
X13785442Y-11514633D01*
X13811541Y-11488579D01*
X13821599Y-11464358D01*
X13882784Y-11464358D01*
X13896867Y-11498442D01*
X13922921Y-11524541D01*
X13956980Y-11538684D01*
X13993858Y-11538716D01*
X14027942Y-11524633D01*
X14054041Y-11498579D01*
X14068184Y-11464520D01*
X14068184Y-11464358D01*
X14180284Y-11464358D01*
X14194367Y-11498442D01*
X14220421Y-11524541D01*
X14254480Y-11538684D01*
X14291358Y-11538716D01*
X14325442Y-11524633D01*
X14351541Y-11498579D01*
X14357762Y-11483598D01*
X14770761Y-11483598D01*
X14804973Y-11566399D01*
X14868268Y-11629804D01*
X14951008Y-11664161D01*
X15040598Y-11664239D01*
X15123399Y-11630027D01*
X15186804Y-11566732D01*
X15221161Y-11483992D01*
X15221161Y-11483598D01*
X15913761Y-11483598D01*
X15947973Y-11566399D01*
X16011268Y-11629804D01*
X16094008Y-11664161D01*
X16183598Y-11664239D01*
X16266399Y-11630027D01*
X16329804Y-11566732D01*
X16364161Y-11483992D01*
X16364164Y-11480000D01*
X16504300Y-11480000D01*
X16521633Y-11567137D01*
X16570992Y-11641008D01*
X16644863Y-11690367D01*
X16732000Y-11707700D01*
X16819137Y-11690367D01*
X16893008Y-11641008D01*
X16942367Y-11567137D01*
X16959700Y-11480000D01*
X16942367Y-11392863D01*
X16893008Y-11318992D01*
X16819137Y-11269633D01*
X16732000Y-11252300D01*
X16644863Y-11269633D01*
X16570992Y-11318992D01*
X16521633Y-11392863D01*
X16504300Y-11480000D01*
X16364164Y-11480000D01*
X16364239Y-11394401D01*
X16330027Y-11311601D01*
X16266732Y-11248196D01*
X16183992Y-11213839D01*
X16094401Y-11213761D01*
X16011601Y-11247973D01*
X15948196Y-11311268D01*
X15913839Y-11394008D01*
X15913761Y-11483598D01*
X15221161Y-11483598D01*
X15221239Y-11394401D01*
X15187027Y-11311601D01*
X15123732Y-11248196D01*
X15040992Y-11213839D01*
X14951401Y-11213761D01*
X14868601Y-11247973D01*
X14805196Y-11311268D01*
X14770839Y-11394008D01*
X14770761Y-11483598D01*
X14357762Y-11483598D01*
X14365684Y-11464520D01*
X14365716Y-11427642D01*
X14351633Y-11393558D01*
X14325579Y-11367459D01*
X14291520Y-11353316D01*
X14254642Y-11353284D01*
X14220558Y-11367367D01*
X14194459Y-11393421D01*
X14180316Y-11427480D01*
X14180284Y-11464358D01*
X14068184Y-11464358D01*
X14068216Y-11427642D01*
X14054133Y-11393558D01*
X14028079Y-11367459D01*
X13994020Y-11353316D01*
X13957142Y-11353284D01*
X13923058Y-11367367D01*
X13896959Y-11393421D01*
X13882816Y-11427480D01*
X13882784Y-11464358D01*
X13821599Y-11464358D01*
X13825684Y-11454520D01*
X13825716Y-11417642D01*
X13811633Y-11383558D01*
X13785579Y-11357459D01*
X13751520Y-11343316D01*
X13714642Y-11343284D01*
X13680558Y-11357367D01*
X13654459Y-11383421D01*
X13640316Y-11417480D01*
X13640284Y-11454358D01*
X13223455Y-11454358D01*
X13515955Y-11161858D01*
X13615284Y-11161858D01*
X13629367Y-11195942D01*
X13655421Y-11222041D01*
X13689480Y-11236184D01*
X13726358Y-11236216D01*
X13760442Y-11222133D01*
X13786541Y-11196079D01*
X13798675Y-11166858D01*
X14175284Y-11166858D01*
X14189367Y-11200942D01*
X14215421Y-11227041D01*
X14249480Y-11241184D01*
X14286358Y-11241216D01*
X14320442Y-11227133D01*
X14346541Y-11201079D01*
X14360684Y-11167020D01*
X14360716Y-11130142D01*
X14346633Y-11096058D01*
X14320579Y-11069959D01*
X14286520Y-11055816D01*
X14249642Y-11055784D01*
X14215558Y-11069867D01*
X14189459Y-11095921D01*
X14175316Y-11129980D01*
X14175284Y-11166858D01*
X13798675Y-11166858D01*
X13800684Y-11162020D01*
X13800716Y-11125142D01*
X13786633Y-11091058D01*
X13760579Y-11064959D01*
X13726520Y-11050816D01*
X13689642Y-11050784D01*
X13655558Y-11064867D01*
X13629459Y-11090921D01*
X13615316Y-11124980D01*
X13615284Y-11161858D01*
X13515955Y-11161858D01*
X13846543Y-10831270D01*
X14985276Y-10831270D01*
X15006196Y-10881899D01*
X15044897Y-10920668D01*
X15095490Y-10941676D01*
X15150270Y-10941724D01*
X15200899Y-10920804D01*
X15239668Y-10882103D01*
X15249999Y-10857222D01*
X15260196Y-10881899D01*
X15298897Y-10920668D01*
X15349490Y-10941676D01*
X15404270Y-10941724D01*
X15454899Y-10920804D01*
X15493668Y-10882103D01*
X15503999Y-10857222D01*
X15514196Y-10881899D01*
X15552897Y-10920668D01*
X15603490Y-10941676D01*
X15658270Y-10941724D01*
X15708899Y-10920804D01*
X15747668Y-10882103D01*
X15757999Y-10857222D01*
X15768196Y-10881899D01*
X15806897Y-10920668D01*
X15857490Y-10941676D01*
X15912270Y-10941724D01*
X15962899Y-10920804D01*
X16001668Y-10882103D01*
X16022676Y-10831510D01*
X16022724Y-10776730D01*
X16001804Y-10726101D01*
X15963103Y-10687332D01*
X15912510Y-10666324D01*
X15857730Y-10666276D01*
X15807101Y-10687196D01*
X15768332Y-10725897D01*
X15758000Y-10750778D01*
X15747804Y-10726101D01*
X15709103Y-10687332D01*
X15658510Y-10666324D01*
X15603730Y-10666276D01*
X15553101Y-10687196D01*
X15514332Y-10725897D01*
X15504000Y-10750778D01*
X15493804Y-10726101D01*
X15455103Y-10687332D01*
X15404510Y-10666324D01*
X15349730Y-10666276D01*
X15299101Y-10687196D01*
X15260332Y-10725897D01*
X15250000Y-10750778D01*
X15239804Y-10726101D01*
X15201103Y-10687332D01*
X15150510Y-10666324D01*
X15095730Y-10666276D01*
X15045101Y-10687196D01*
X15006332Y-10725897D01*
X14985324Y-10776490D01*
X14985276Y-10831270D01*
X13846543Y-10831270D01*
X13974406Y-10703407D01*
X13974407Y-10703407D01*
X13990166Y-10679821D01*
X13995700Y-10652000D01*
X13995700Y-10577270D01*
X14858276Y-10577270D01*
X14879196Y-10627899D01*
X14917897Y-10666668D01*
X14968490Y-10687676D01*
X15023270Y-10687724D01*
X15073899Y-10666804D01*
X15112668Y-10628103D01*
X15122999Y-10603222D01*
X15133196Y-10627899D01*
X15171897Y-10666668D01*
X15222490Y-10687676D01*
X15277270Y-10687724D01*
X15327899Y-10666804D01*
X15366668Y-10628103D01*
X15387676Y-10577510D01*
X15387676Y-10577270D01*
X15620276Y-10577270D01*
X15641196Y-10627899D01*
X15679897Y-10666668D01*
X15730490Y-10687676D01*
X15785270Y-10687724D01*
X15835899Y-10666804D01*
X15874668Y-10628103D01*
X15884999Y-10603222D01*
X15895196Y-10627899D01*
X15933897Y-10666668D01*
X15984490Y-10687676D01*
X16039270Y-10687724D01*
X16089899Y-10666804D01*
X16128668Y-10628103D01*
X16149676Y-10577510D01*
X16149724Y-10522730D01*
X16128804Y-10472101D01*
X16090103Y-10433332D01*
X16039510Y-10412324D01*
X15984730Y-10412276D01*
X15934101Y-10433196D01*
X15895332Y-10471897D01*
X15885000Y-10496778D01*
X15874804Y-10472101D01*
X15836103Y-10433332D01*
X15785510Y-10412324D01*
X15730730Y-10412276D01*
X15680101Y-10433196D01*
X15641332Y-10471897D01*
X15620324Y-10522490D01*
X15620276Y-10577270D01*
X15387676Y-10577270D01*
X15387724Y-10522730D01*
X15366804Y-10472101D01*
X15328103Y-10433332D01*
X15277510Y-10412324D01*
X15222730Y-10412276D01*
X15172101Y-10433196D01*
X15133332Y-10471897D01*
X15123000Y-10496778D01*
X15112804Y-10472101D01*
X15074103Y-10433332D01*
X15023510Y-10412324D01*
X14968730Y-10412276D01*
X14918101Y-10433196D01*
X14879332Y-10471897D01*
X14858324Y-10522490D01*
X14858276Y-10577270D01*
X13995700Y-10577270D01*
X13995700Y-10534410D01*
X14001541Y-10528579D01*
X14006579Y-10516448D01*
X14015013Y-10508014D01*
X14015013Y-10508013D01*
X14034024Y-10479561D01*
X14036642Y-10466399D01*
X14040700Y-10446000D01*
X14040700Y-10446000D01*
X14040700Y-10095755D01*
X14850775Y-10095755D01*
X14872834Y-10149142D01*
X14913643Y-10190023D01*
X14966991Y-10212175D01*
X15024755Y-10212225D01*
X15078142Y-10190166D01*
X15119023Y-10149357D01*
X15122982Y-10139821D01*
X15126834Y-10149142D01*
X15167643Y-10190023D01*
X15220991Y-10212175D01*
X15278755Y-10212225D01*
X15332142Y-10190166D01*
X15373023Y-10149357D01*
X15395175Y-10096009D01*
X15395175Y-10095755D01*
X15714775Y-10095755D01*
X15736834Y-10149142D01*
X15777643Y-10190023D01*
X15830991Y-10212175D01*
X15888755Y-10212225D01*
X15942142Y-10190166D01*
X15983023Y-10149357D01*
X15986982Y-10139821D01*
X15990834Y-10149142D01*
X16031643Y-10190023D01*
X16084991Y-10212175D01*
X16142755Y-10212225D01*
X16196142Y-10190166D01*
X16237023Y-10149357D01*
X16259175Y-10096009D01*
X16259225Y-10038245D01*
X16237166Y-9984858D01*
X16196357Y-9943977D01*
X16143009Y-9921825D01*
X16085245Y-9921775D01*
X16031858Y-9943834D01*
X15990977Y-9984643D01*
X15987018Y-9994179D01*
X15983166Y-9984858D01*
X15942357Y-9943977D01*
X15889009Y-9921825D01*
X15831245Y-9921775D01*
X15777858Y-9943834D01*
X15736977Y-9984643D01*
X15714825Y-10037991D01*
X15714775Y-10095755D01*
X15395175Y-10095755D01*
X15395225Y-10038245D01*
X15373166Y-9984858D01*
X15332357Y-9943977D01*
X15279009Y-9921825D01*
X15221245Y-9921775D01*
X15167858Y-9943834D01*
X15126977Y-9984643D01*
X15123018Y-9994179D01*
X15119166Y-9984858D01*
X15078357Y-9943977D01*
X15025009Y-9921825D01*
X14967245Y-9921775D01*
X14913858Y-9943834D01*
X14872977Y-9984643D01*
X14850825Y-10037991D01*
X14850775Y-10095755D01*
X14040700Y-10095755D01*
X14040700Y-9243327D01*
X14966327Y-8317700D01*
X15364477Y-8317700D01*
X15376480Y-8322684D01*
X15413358Y-8322716D01*
X15447442Y-8308633D01*
X15473541Y-8282579D01*
X15487684Y-8248520D01*
X15487716Y-8211642D01*
X15473633Y-8177558D01*
X15447579Y-8151459D01*
X15413520Y-8137316D01*
X15376642Y-8137284D01*
X15364502Y-8142300D01*
X15357700Y-8142300D01*
X15357700Y-8100358D01*
X16315284Y-8100358D01*
X16329367Y-8134442D01*
X16355421Y-8160541D01*
X16389480Y-8174684D01*
X16426358Y-8174716D01*
X16460442Y-8160633D01*
X16486541Y-8134579D01*
X16500684Y-8100520D01*
X16500716Y-8063642D01*
X16486633Y-8029558D01*
X16460579Y-8003459D01*
X16426520Y-7989316D01*
X16389642Y-7989284D01*
X16355558Y-8003367D01*
X16329459Y-8029421D01*
X16315316Y-8063480D01*
X16315284Y-8100358D01*
X15357700Y-8100358D01*
X15357700Y-8078649D01*
X15563649Y-7872700D01*
X16347500Y-7872700D01*
X16376278Y-7866976D01*
X16391642Y-7856709D01*
X16399358Y-7856716D01*
X16433442Y-7842633D01*
X16459541Y-7816579D01*
X16473684Y-7782520D01*
X16473716Y-7745642D01*
X16459633Y-7711558D01*
X16433579Y-7685459D01*
X16399520Y-7671316D01*
X16362642Y-7671284D01*
X16328558Y-7685367D01*
X16325119Y-7688800D01*
X16225149Y-7688800D01*
X16125200Y-7588851D01*
X16125200Y-7353358D01*
X16736284Y-7353358D01*
X16745231Y-7375011D01*
X16736316Y-7396480D01*
X16736284Y-7433358D01*
X16750367Y-7467442D01*
X16776421Y-7493541D01*
X16810480Y-7507684D01*
X16847358Y-7507716D01*
X16881442Y-7493633D01*
X16907541Y-7467579D01*
X16921684Y-7433520D01*
X16921716Y-7396642D01*
X16912769Y-7374989D01*
X16921684Y-7353520D01*
X16921716Y-7316642D01*
X16907633Y-7282558D01*
X16881579Y-7256459D01*
X16847520Y-7242316D01*
X16810642Y-7242284D01*
X16776558Y-7256367D01*
X16750459Y-7282421D01*
X16736316Y-7316480D01*
X16736284Y-7353358D01*
X16125200Y-7353358D01*
X16125200Y-7195914D01*
X16128541Y-7192579D01*
X16142684Y-7158520D01*
X16142716Y-7121642D01*
X16128633Y-7087558D01*
X16102579Y-7061459D01*
X16068520Y-7047316D01*
X16031642Y-7047284D01*
X15997558Y-7061367D01*
X15971459Y-7087421D01*
X15957316Y-7121480D01*
X15957284Y-7158358D01*
X15971367Y-7192442D01*
X15974800Y-7195881D01*
X15974800Y-7620000D01*
X15980524Y-7648778D01*
X15996826Y-7673174D01*
X16045951Y-7722300D01*
X15532500Y-7722300D01*
X15503722Y-7728024D01*
X15479326Y-7744326D01*
X15357700Y-7865951D01*
X15357700Y-7036768D01*
X16770284Y-7036768D01*
X16779231Y-7058421D01*
X16770316Y-7079890D01*
X16770284Y-7116768D01*
X16784367Y-7150852D01*
X16810421Y-7176951D01*
X16844480Y-7191094D01*
X16881358Y-7191126D01*
X16915442Y-7177043D01*
X16941541Y-7150989D01*
X16955684Y-7116930D01*
X16955716Y-7080052D01*
X16946769Y-7058399D01*
X16955684Y-7036930D01*
X16955716Y-7000052D01*
X16941633Y-6965968D01*
X16915579Y-6939868D01*
X16881520Y-6925726D01*
X16844642Y-6925694D01*
X16810558Y-6939777D01*
X16784459Y-6965831D01*
X16770316Y-6999890D01*
X16770284Y-7036768D01*
X15357700Y-7036768D01*
X15357700Y-6096149D01*
X15486137Y-5967712D01*
X15490858Y-5967716D01*
X15524942Y-5953633D01*
X15551041Y-5927579D01*
X15560268Y-5905358D01*
X15939784Y-5905358D01*
X15953867Y-5939442D01*
X15979921Y-5965541D01*
X16013980Y-5979684D01*
X16050858Y-5979716D01*
X16084942Y-5965633D01*
X16111041Y-5939579D01*
X16125184Y-5905520D01*
X16125216Y-5868642D01*
X16111133Y-5834558D01*
X16085079Y-5808459D01*
X16051020Y-5794316D01*
X16014142Y-5794284D01*
X15980058Y-5808367D01*
X15953959Y-5834421D01*
X15939816Y-5868480D01*
X15939784Y-5905358D01*
X15560268Y-5905358D01*
X15565184Y-5893520D01*
X15565216Y-5856642D01*
X15551133Y-5822558D01*
X15525079Y-5796459D01*
X15491020Y-5782316D01*
X15454142Y-5782284D01*
X15420058Y-5796367D01*
X15393959Y-5822421D01*
X15379816Y-5856480D01*
X15379812Y-5861339D01*
X15229326Y-6011826D01*
X15213024Y-6036222D01*
X15207300Y-6065000D01*
X15207300Y-7824725D01*
X15191726Y-7818258D01*
X15182849Y-7796774D01*
X15156795Y-7770674D01*
X15122736Y-7756532D01*
X15085857Y-7756500D01*
X15051774Y-7770583D01*
X15025674Y-7796637D01*
X15011532Y-7830696D01*
X15011500Y-7867574D01*
X15025583Y-7901657D01*
X15051637Y-7927757D01*
X15073274Y-7936742D01*
X15082151Y-7958226D01*
X15108205Y-7984326D01*
X15142264Y-7998468D01*
X15179142Y-7998500D01*
X15207300Y-7986866D01*
X15207300Y-8142300D01*
X14930000Y-8142300D01*
X14930000Y-8142300D01*
X14896439Y-8148976D01*
X14867987Y-8167987D01*
X13890987Y-9144987D01*
X13871976Y-9173439D01*
X13865300Y-9207000D01*
X13865300Y-10402616D01*
X13844459Y-10423421D01*
X13830316Y-10457480D01*
X13830284Y-10494358D01*
X13844367Y-10528442D01*
X13850300Y-10534385D01*
X13850300Y-10621887D01*
X13094887Y-11377300D01*
X12612509Y-11377300D01*
X12619684Y-11360020D01*
X12619716Y-11323142D01*
X12605633Y-11289058D01*
X12579579Y-11262959D01*
X12545520Y-11248816D01*
X12508642Y-11248784D01*
X12474558Y-11262867D01*
X12448459Y-11288921D01*
X12434316Y-11322980D01*
X12434284Y-11359858D01*
X12441491Y-11377300D01*
X12055113Y-11377300D01*
X11822700Y-11144887D01*
X11822700Y-10425000D01*
X11817166Y-10397179D01*
X11801407Y-10373593D01*
X11801406Y-10373593D01*
X11276407Y-9848593D01*
X11252821Y-9832834D01*
X11248205Y-9831916D01*
X11225000Y-9827300D01*
X11224999Y-9827300D01*
X10589613Y-9827300D01*
X10455200Y-9692887D01*
X10455200Y-9342000D01*
X10449666Y-9314179D01*
X10433907Y-9290593D01*
X9791907Y-8648593D01*
X9768321Y-8632834D01*
X9763705Y-8631916D01*
X9740500Y-8627300D01*
X9740500Y-8627300D01*
X8902520Y-8627300D01*
X8906428Y-8608000D01*
X8906428Y-8438000D01*
X8902056Y-8414765D01*
X8888324Y-8393425D01*
X8867372Y-8379108D01*
X8858913Y-8377395D01*
X8864833Y-8373440D01*
X8896851Y-8325522D01*
X8908094Y-8269000D01*
X8896851Y-8212478D01*
X8864833Y-8164560D01*
X8831069Y-8142000D01*
X8864833Y-8119440D01*
X8896851Y-8071522D01*
X8908094Y-8015000D01*
X8896851Y-7958478D01*
X8864833Y-7910560D01*
X8816916Y-7878543D01*
X8760394Y-7867300D01*
X8754606Y-7867300D01*
X8698084Y-7878543D01*
X8650167Y-7910560D01*
X8618149Y-7958478D01*
X8606906Y-8015000D01*
X8618149Y-8071522D01*
X8650167Y-8119440D01*
X8683931Y-8142000D01*
X8650167Y-8164560D01*
X8630500Y-8193994D01*
X8610833Y-8164560D01*
X8562916Y-8132543D01*
X8506394Y-8121300D01*
X8500606Y-8121300D01*
X8444084Y-8132543D01*
X8396167Y-8164560D01*
X8364149Y-8212478D01*
X8352906Y-8269000D01*
X8259700Y-8269000D01*
X8259700Y-7755560D01*
X8281744Y-7751175D01*
X8288892Y-7748214D01*
X8306149Y-7741066D01*
X8371033Y-7697712D01*
X8371033Y-7697712D01*
X8389712Y-7679033D01*
X8433066Y-7614149D01*
X8437349Y-7603809D01*
X8443175Y-7589744D01*
X8458399Y-7513208D01*
X8458399Y-7506540D01*
X8459700Y-7500000D01*
X8459700Y-6900000D01*
X8458399Y-6893460D01*
X8458399Y-6886792D01*
X8455855Y-6874000D01*
X8583906Y-6874000D01*
X8595149Y-6930522D01*
X8627167Y-6978440D01*
X8660931Y-7001000D01*
X8627167Y-7023560D01*
X8595149Y-7071478D01*
X8583906Y-7128000D01*
X8595149Y-7184522D01*
X8627167Y-7232440D01*
X8675084Y-7264457D01*
X8731606Y-7275700D01*
X8737394Y-7275700D01*
X8793916Y-7264457D01*
X8841833Y-7232440D01*
X8873851Y-7184522D01*
X8885094Y-7128000D01*
X8873851Y-7071478D01*
X8841833Y-7023560D01*
X8834048Y-7018358D01*
X9657284Y-7018358D01*
X9671367Y-7052442D01*
X9697421Y-7078541D01*
X9731480Y-7092684D01*
X9768358Y-7092716D01*
X9802442Y-7078633D01*
X9828541Y-7052579D01*
X9842684Y-7018520D01*
X9842716Y-6981642D01*
X9828633Y-6947558D01*
X9802579Y-6921459D01*
X9768520Y-6907316D01*
X9731642Y-6907284D01*
X9697558Y-6921367D01*
X9671459Y-6947421D01*
X9657316Y-6981480D01*
X9657284Y-7018358D01*
X8834048Y-7018358D01*
X8808069Y-7001000D01*
X8841833Y-6978440D01*
X8873851Y-6930522D01*
X8885094Y-6874000D01*
X8873851Y-6817478D01*
X8841833Y-6769560D01*
X8793916Y-6737543D01*
X8737394Y-6726300D01*
X8731606Y-6726300D01*
X8675084Y-6737543D01*
X8627167Y-6769560D01*
X8595149Y-6817478D01*
X8583906Y-6874000D01*
X8455855Y-6874000D01*
X8443175Y-6810256D01*
X8436924Y-6795164D01*
X8433066Y-6785851D01*
X8389712Y-6720966D01*
X8371033Y-6702288D01*
X8371033Y-6702288D01*
X8306149Y-6658934D01*
X8287379Y-6651159D01*
X8281744Y-6648825D01*
X8259700Y-6644440D01*
X8259700Y-5538000D01*
X8400406Y-5538000D01*
X8411649Y-5594522D01*
X8443667Y-5642440D01*
X8477431Y-5665000D01*
X8443667Y-5687560D01*
X8411649Y-5735478D01*
X8400406Y-5792000D01*
X8411649Y-5848522D01*
X8443667Y-5896440D01*
X8477431Y-5919000D01*
X8443667Y-5941560D01*
X8411649Y-5989478D01*
X8400406Y-6046000D01*
X8411649Y-6102522D01*
X8443667Y-6150440D01*
X8477431Y-6173000D01*
X8443667Y-6195560D01*
X8411649Y-6243478D01*
X8400406Y-6300000D01*
X8411649Y-6356522D01*
X8443667Y-6404440D01*
X8449312Y-6408212D01*
X8442765Y-6409444D01*
X8421425Y-6423176D01*
X8407108Y-6444128D01*
X8402072Y-6469000D01*
X8402072Y-6639000D01*
X8406444Y-6662235D01*
X8420176Y-6683575D01*
X8441128Y-6697892D01*
X8466000Y-6702928D01*
X8636000Y-6702928D01*
X8659235Y-6698556D01*
X8680575Y-6684824D01*
X8694892Y-6663872D01*
X8699928Y-6639000D01*
X8699928Y-6469000D01*
X8695556Y-6445765D01*
X8681824Y-6424425D01*
X8660872Y-6410108D01*
X8652413Y-6408395D01*
X8658333Y-6404440D01*
X8690351Y-6356522D01*
X8701594Y-6300000D01*
X8690351Y-6243478D01*
X8658333Y-6195560D01*
X8624569Y-6173000D01*
X8658333Y-6150440D01*
X8690351Y-6102522D01*
X8701594Y-6046000D01*
X8690351Y-5989478D01*
X8658333Y-5941560D01*
X8624569Y-5919000D01*
X8658333Y-5896440D01*
X8690351Y-5848522D01*
X8701594Y-5792000D01*
X8690351Y-5735478D01*
X8658333Y-5687560D01*
X8624569Y-5665000D01*
X8658333Y-5642440D01*
X8690351Y-5594522D01*
X8701594Y-5538000D01*
X8690351Y-5481478D01*
X8658333Y-5433560D01*
X8610416Y-5401543D01*
X8553894Y-5390300D01*
X8548106Y-5390300D01*
X8491584Y-5401543D01*
X8443667Y-5433560D01*
X8411649Y-5481478D01*
X8400406Y-5538000D01*
X8259700Y-5538000D01*
X8259700Y-4753358D01*
X8599784Y-4753358D01*
X8613867Y-4787442D01*
X8639921Y-4813541D01*
X8673980Y-4827684D01*
X8710858Y-4827716D01*
X8744942Y-4813633D01*
X8771041Y-4787579D01*
X8785184Y-4753520D01*
X8785216Y-4716642D01*
X8771464Y-4683358D01*
X9379284Y-4683358D01*
X9393367Y-4717442D01*
X9419421Y-4743541D01*
X9453480Y-4757684D01*
X9456965Y-4757687D01*
X9466367Y-4780442D01*
X9492421Y-4806541D01*
X9526480Y-4820684D01*
X9563358Y-4820716D01*
X9597442Y-4806633D01*
X9623541Y-4780579D01*
X9637684Y-4746520D01*
X9637716Y-4709642D01*
X9623633Y-4675558D01*
X9597579Y-4649459D01*
X9563520Y-4635316D01*
X9560035Y-4635313D01*
X9551548Y-4614771D01*
X9839204Y-4614771D01*
X9862042Y-4670044D01*
X9904294Y-4712369D01*
X9959526Y-4735304D01*
X10019331Y-4735356D01*
X10074604Y-4712518D01*
X10116929Y-4670266D01*
X10139864Y-4615034D01*
X10139907Y-4565000D01*
X10187300Y-4565000D01*
X10195879Y-4608128D01*
X10220309Y-4644691D01*
X10474627Y-4899009D01*
X10449558Y-4909367D01*
X10423459Y-4935421D01*
X10409316Y-4969480D01*
X10409284Y-5006358D01*
X10423367Y-5040442D01*
X10449421Y-5066541D01*
X10483480Y-5080684D01*
X10520358Y-5080716D01*
X10554442Y-5066633D01*
X10580541Y-5040579D01*
X10591003Y-5015385D01*
X10709800Y-5134182D01*
X10709800Y-9652500D01*
X10718379Y-9695628D01*
X10742809Y-9732191D01*
X10779372Y-9756621D01*
X10822500Y-9765200D01*
X10865628Y-9756621D01*
X10902191Y-9732191D01*
X10926621Y-9695628D01*
X10935200Y-9652500D01*
X10935200Y-5368358D01*
X11157284Y-5368358D01*
X11171367Y-5402442D01*
X11197421Y-5428541D01*
X11231480Y-5442684D01*
X11268358Y-5442716D01*
X11302442Y-5428633D01*
X11328541Y-5402579D01*
X11342684Y-5368520D01*
X11342716Y-5331642D01*
X11328633Y-5297558D01*
X11302579Y-5271459D01*
X11268520Y-5257316D01*
X11231642Y-5257284D01*
X11197558Y-5271367D01*
X11171459Y-5297421D01*
X11157316Y-5331480D01*
X11157284Y-5368358D01*
X10935200Y-5368358D01*
X10935200Y-5191299D01*
X10947421Y-5203541D01*
X10981480Y-5217684D01*
X11018358Y-5217716D01*
X11052442Y-5203633D01*
X11078541Y-5177579D01*
X11079144Y-5176129D01*
X11090016Y-5202442D01*
X11116070Y-5228541D01*
X11150129Y-5242684D01*
X11187007Y-5242716D01*
X11221091Y-5228633D01*
X11247190Y-5202579D01*
X11261333Y-5168520D01*
X11261365Y-5131642D01*
X11247282Y-5097558D01*
X11221228Y-5071459D01*
X11187169Y-5057316D01*
X11150291Y-5057284D01*
X11116207Y-5071367D01*
X11090108Y-5097421D01*
X11089505Y-5098871D01*
X11078633Y-5072558D01*
X11052579Y-5046459D01*
X11018520Y-5032316D01*
X10981642Y-5032284D01*
X10947558Y-5046367D01*
X10930421Y-5063474D01*
X10926621Y-5044372D01*
X10918544Y-5032284D01*
X10902191Y-5007809D01*
X10379691Y-4485309D01*
X10343128Y-4460879D01*
X10300000Y-4452300D01*
X10256872Y-4460879D01*
X10220309Y-4485309D01*
X10195879Y-4521872D01*
X10187300Y-4565000D01*
X10139907Y-4565000D01*
X10139916Y-4555229D01*
X10117078Y-4499956D01*
X10074826Y-4457631D01*
X10019594Y-4434696D01*
X9959789Y-4434644D01*
X9904516Y-4457482D01*
X9862191Y-4499734D01*
X9839256Y-4554966D01*
X9839204Y-4614771D01*
X9551548Y-4614771D01*
X9550633Y-4612558D01*
X9524579Y-4586459D01*
X9490520Y-4572316D01*
X9453642Y-4572284D01*
X9419558Y-4586367D01*
X9393459Y-4612421D01*
X9379316Y-4646480D01*
X9379284Y-4683358D01*
X8771464Y-4683358D01*
X8771133Y-4682558D01*
X8745079Y-4656459D01*
X8711020Y-4642316D01*
X8674142Y-4642284D01*
X8640058Y-4656367D01*
X8613959Y-4682421D01*
X8599816Y-4716480D01*
X8599784Y-4753358D01*
X8259700Y-4753358D01*
X8259700Y-4606358D01*
X9092284Y-4606358D01*
X9106367Y-4640442D01*
X9132421Y-4666541D01*
X9166480Y-4680684D01*
X9203358Y-4680716D01*
X9237442Y-4666633D01*
X9263541Y-4640579D01*
X9277684Y-4606520D01*
X9277716Y-4569642D01*
X9263633Y-4535558D01*
X9237579Y-4509459D01*
X9203520Y-4495316D01*
X9166642Y-4495284D01*
X9132558Y-4509367D01*
X9106459Y-4535421D01*
X9092316Y-4569480D01*
X9092284Y-4606358D01*
X8259700Y-4606358D01*
X8259700Y-4247358D01*
X9241284Y-4247358D01*
X9255367Y-4281442D01*
X9281421Y-4307541D01*
X9315480Y-4321684D01*
X9352358Y-4321716D01*
X9386442Y-4307633D01*
X9412541Y-4281579D01*
X9426684Y-4247520D01*
X9426716Y-4210642D01*
X9412633Y-4176558D01*
X9386579Y-4150459D01*
X9352520Y-4136316D01*
X9315642Y-4136284D01*
X9281558Y-4150367D01*
X9255459Y-4176421D01*
X9241316Y-4210480D01*
X9241284Y-4247358D01*
X8259700Y-4247358D01*
X8259700Y-3843358D01*
X8282284Y-3843358D01*
X8296367Y-3877442D01*
X8322421Y-3903541D01*
X8356480Y-3917684D01*
X8393358Y-3917716D01*
X8427442Y-3903633D01*
X8453541Y-3877579D01*
X8467684Y-3843520D01*
X8467716Y-3806642D01*
X8453633Y-3772558D01*
X8427579Y-3746459D01*
X8393520Y-3732316D01*
X8356642Y-3732284D01*
X8322558Y-3746367D01*
X8296459Y-3772421D01*
X8282316Y-3806480D01*
X8282284Y-3843358D01*
X8259700Y-3843358D01*
X8259700Y-3755560D01*
X8281744Y-3751175D01*
X8288892Y-3748214D01*
X8306149Y-3741066D01*
X8371033Y-3697712D01*
X8371033Y-3697712D01*
X8389712Y-3679033D01*
X8403527Y-3658358D01*
X8674784Y-3658358D01*
X8688867Y-3692442D01*
X8714921Y-3718541D01*
X8748980Y-3732684D01*
X8785858Y-3732716D01*
X8819942Y-3718633D01*
X8846041Y-3692579D01*
X8860184Y-3658520D01*
X8860191Y-3650000D01*
X9004800Y-3650000D01*
X9013379Y-3693128D01*
X9037809Y-3729691D01*
X9067809Y-3759691D01*
X9067809Y-3759691D01*
X9360309Y-4052191D01*
X9396872Y-4076621D01*
X9440000Y-4085200D01*
X10577818Y-4085200D01*
X10908930Y-4416312D01*
X10908690Y-4416551D01*
X10887169Y-4407615D01*
X10850291Y-4407583D01*
X10816207Y-4421666D01*
X10812871Y-4424996D01*
X10794866Y-4406960D01*
X10760808Y-4392817D01*
X10723929Y-4392785D01*
X10689846Y-4406868D01*
X10663746Y-4432922D01*
X10649604Y-4466981D01*
X10649571Y-4503859D01*
X10663654Y-4537943D01*
X10689709Y-4564042D01*
X10723767Y-4578185D01*
X10760646Y-4578217D01*
X10794729Y-4564134D01*
X10798065Y-4560804D01*
X10816070Y-4578840D01*
X10850129Y-4592983D01*
X10880685Y-4593009D01*
X10872558Y-4596367D01*
X10846459Y-4622421D01*
X10832316Y-4656480D01*
X10832284Y-4693358D01*
X10846367Y-4727442D01*
X10872421Y-4753541D01*
X10906480Y-4767684D01*
X10943358Y-4767716D01*
X10977442Y-4753633D01*
X11003541Y-4727579D01*
X11017684Y-4693520D01*
X11017716Y-4656642D01*
X11012208Y-4643310D01*
X11022421Y-4653541D01*
X11056480Y-4667684D01*
X11093358Y-4667716D01*
X11127442Y-4653633D01*
X11136855Y-4644237D01*
X11261300Y-4768682D01*
X11261300Y-5001000D01*
X11269879Y-5044128D01*
X11294309Y-5080691D01*
X11324309Y-5110691D01*
X11324309Y-5110691D01*
X12056900Y-5843282D01*
X12056900Y-10621600D01*
X12065479Y-10664728D01*
X12066533Y-10666306D01*
X12041142Y-10666284D01*
X12007058Y-10680367D01*
X11980959Y-10706421D01*
X11966816Y-10740480D01*
X11966784Y-10777358D01*
X11980867Y-10811442D01*
X12006921Y-10837541D01*
X12040980Y-10851684D01*
X12077858Y-10851716D01*
X12111942Y-10837633D01*
X12138041Y-10811579D01*
X12152184Y-10777520D01*
X12152196Y-10763578D01*
X12539809Y-11151191D01*
X12576372Y-11175621D01*
X12619500Y-11184200D01*
X12662628Y-11175621D01*
X12699191Y-11151191D01*
X12723621Y-11114628D01*
X12732200Y-11071500D01*
X12723621Y-11028372D01*
X12699191Y-10991809D01*
X12411740Y-10704358D01*
X13547784Y-10704358D01*
X13561867Y-10738442D01*
X13587921Y-10764541D01*
X13621980Y-10778684D01*
X13658858Y-10778716D01*
X13692942Y-10764633D01*
X13719041Y-10738579D01*
X13733184Y-10704520D01*
X13733216Y-10667642D01*
X13719133Y-10633558D01*
X13693079Y-10607459D01*
X13659020Y-10593316D01*
X13622142Y-10593284D01*
X13588058Y-10607367D01*
X13561959Y-10633421D01*
X13547816Y-10667480D01*
X13547784Y-10704358D01*
X12411740Y-10704358D01*
X12282300Y-10574918D01*
X12282300Y-10174358D01*
X13170284Y-10174358D01*
X13184367Y-10208442D01*
X13210421Y-10234541D01*
X13244480Y-10248684D01*
X13281358Y-10248716D01*
X13315442Y-10234633D01*
X13341541Y-10208579D01*
X13355684Y-10174520D01*
X13355716Y-10137642D01*
X13341633Y-10103558D01*
X13315579Y-10077459D01*
X13281520Y-10063316D01*
X13244642Y-10063284D01*
X13210558Y-10077367D01*
X13184459Y-10103421D01*
X13170316Y-10137480D01*
X13170284Y-10174358D01*
X12282300Y-10174358D01*
X12282300Y-9874358D01*
X13392784Y-9874358D01*
X13406867Y-9908442D01*
X13432921Y-9934541D01*
X13466980Y-9948684D01*
X13503858Y-9948716D01*
X13537942Y-9934633D01*
X13564041Y-9908579D01*
X13578184Y-9874520D01*
X13578216Y-9837642D01*
X13564133Y-9803558D01*
X13538079Y-9777459D01*
X13504020Y-9763316D01*
X13467142Y-9763284D01*
X13433058Y-9777367D01*
X13406959Y-9803421D01*
X13392816Y-9837480D01*
X13392784Y-9874358D01*
X12282300Y-9874358D01*
X12282300Y-7976642D01*
X14604000Y-7976642D01*
X14618083Y-8010726D01*
X14644137Y-8036826D01*
X14678196Y-8050968D01*
X14715074Y-8051000D01*
X14749157Y-8036917D01*
X14775257Y-8010863D01*
X14784242Y-7989226D01*
X14805726Y-7980349D01*
X14831826Y-7954295D01*
X14845968Y-7920236D01*
X14846000Y-7883357D01*
X14831917Y-7849274D01*
X14805863Y-7823174D01*
X14771804Y-7809032D01*
X14734926Y-7809000D01*
X14700842Y-7823083D01*
X14674743Y-7849137D01*
X14665758Y-7870774D01*
X14644274Y-7879651D01*
X14618174Y-7905705D01*
X14604032Y-7939764D01*
X14604000Y-7976642D01*
X12282300Y-7976642D01*
X12282300Y-7264358D01*
X14389284Y-7264358D01*
X14403367Y-7298442D01*
X14429421Y-7324541D01*
X14463480Y-7338684D01*
X14500358Y-7338716D01*
X14521009Y-7330183D01*
X14541480Y-7338684D01*
X14578358Y-7338716D01*
X14612442Y-7324633D01*
X14638541Y-7298579D01*
X14652684Y-7264520D01*
X14652716Y-7227642D01*
X14638633Y-7193558D01*
X14612579Y-7167459D01*
X14605200Y-7164395D01*
X14605200Y-6802605D01*
X14607547Y-6801710D01*
X14613621Y-6797893D01*
X14619251Y-6792571D01*
X14625692Y-6788266D01*
X14630765Y-6783194D01*
X14635069Y-6776752D01*
X14640392Y-6771122D01*
X14644208Y-6765048D01*
X14646971Y-6757811D01*
X14650907Y-6751138D01*
X14653276Y-6744367D01*
X14654359Y-6736695D01*
X14656712Y-6729314D01*
X14657515Y-6722186D01*
X14657187Y-6718295D01*
X14657949Y-6714465D01*
X14657949Y-6663035D01*
X14657187Y-6659206D01*
X14657515Y-6655315D01*
X14656712Y-6648187D01*
X14654359Y-6640805D01*
X14653276Y-6633134D01*
X14650907Y-6626363D01*
X14646971Y-6619690D01*
X14644208Y-6612453D01*
X14640392Y-6606379D01*
X14635069Y-6600749D01*
X14630765Y-6594307D01*
X14625692Y-6589234D01*
X14619251Y-6584930D01*
X14613621Y-6579608D01*
X14607547Y-6575791D01*
X14605200Y-6574895D01*
X14605200Y-4895877D01*
X14852005Y-4649072D01*
X14866951Y-4626703D01*
X14872200Y-4600317D01*
X14872200Y-4370877D01*
X14934005Y-4309072D01*
X14948951Y-4286703D01*
X14954200Y-4260317D01*
X14954200Y-4177452D01*
X14966844Y-4190118D01*
X15000903Y-4204261D01*
X15011800Y-4204271D01*
X15011800Y-4432123D01*
X14928995Y-4514928D01*
X14914049Y-4537297D01*
X14908800Y-4563683D01*
X14908800Y-6445800D01*
X14905135Y-6445800D01*
X14901306Y-6446562D01*
X14897416Y-6446234D01*
X14887929Y-6447302D01*
X14880547Y-6449655D01*
X14872875Y-6450738D01*
X14863864Y-6453892D01*
X14857191Y-6457828D01*
X14849953Y-6460590D01*
X14841869Y-6465670D01*
X14836240Y-6470992D01*
X14829798Y-6475297D01*
X14823047Y-6482048D01*
X14818742Y-6488489D01*
X14813420Y-6494119D01*
X14808341Y-6502203D01*
X14805578Y-6509441D01*
X14801642Y-6516113D01*
X14798488Y-6525125D01*
X14797405Y-6532797D01*
X14795053Y-6540178D01*
X14793984Y-6549666D01*
X14794312Y-6553556D01*
X14793550Y-6557385D01*
X14793550Y-6562615D01*
X14794312Y-6566444D01*
X14793984Y-6570334D01*
X14795053Y-6579821D01*
X14797405Y-6587203D01*
X14798488Y-6594875D01*
X14801642Y-6603886D01*
X14805578Y-6610559D01*
X14808341Y-6617797D01*
X14813420Y-6625881D01*
X14818742Y-6631510D01*
X14823047Y-6637952D01*
X14829798Y-6644703D01*
X14836240Y-6649008D01*
X14841869Y-6654330D01*
X14849953Y-6659409D01*
X14857191Y-6662172D01*
X14863864Y-6666108D01*
X14872875Y-6669262D01*
X14880547Y-6670345D01*
X14887928Y-6672697D01*
X14897415Y-6673766D01*
X14901306Y-6673438D01*
X14905135Y-6674200D01*
X14909434Y-6674200D01*
X14908800Y-6677385D01*
X14908800Y-7173375D01*
X14901558Y-7176367D01*
X14875459Y-7202421D01*
X14861316Y-7236480D01*
X14861284Y-7273358D01*
X14875367Y-7307442D01*
X14901421Y-7333541D01*
X14935480Y-7347684D01*
X14972358Y-7347716D01*
X14993009Y-7339183D01*
X15013480Y-7347684D01*
X15050358Y-7347716D01*
X15084442Y-7333633D01*
X15110541Y-7307579D01*
X15124684Y-7273520D01*
X15124716Y-7236642D01*
X15110633Y-7202558D01*
X15084579Y-7176459D01*
X15077200Y-7173395D01*
X15077200Y-6734200D01*
X15080865Y-6734200D01*
X15084694Y-6733438D01*
X15088585Y-6733766D01*
X15098072Y-6732697D01*
X15105453Y-6730345D01*
X15113125Y-6729262D01*
X15122136Y-6726108D01*
X15128809Y-6722172D01*
X15136047Y-6719409D01*
X15144131Y-6714330D01*
X15149760Y-6709007D01*
X15156202Y-6704703D01*
X15162953Y-6697952D01*
X15167258Y-6691510D01*
X15172580Y-6685881D01*
X15177659Y-6677797D01*
X15180422Y-6670559D01*
X15184358Y-6663886D01*
X15187512Y-6654875D01*
X15188595Y-6647203D01*
X15190947Y-6639821D01*
X15192016Y-6630334D01*
X15191688Y-6626444D01*
X15192450Y-6622615D01*
X15192450Y-6617385D01*
X15191688Y-6613556D01*
X15192016Y-6609666D01*
X15190947Y-6600178D01*
X15188595Y-6592797D01*
X15187512Y-6585125D01*
X15184358Y-6576113D01*
X15180422Y-6569441D01*
X15177659Y-6562203D01*
X15172580Y-6554119D01*
X15167258Y-6548489D01*
X15162953Y-6542048D01*
X15156202Y-6535297D01*
X15149760Y-6530992D01*
X15144131Y-6525670D01*
X15136047Y-6520590D01*
X15128809Y-6517828D01*
X15122136Y-6513892D01*
X15113125Y-6510738D01*
X15105453Y-6509655D01*
X15098071Y-6507302D01*
X15088584Y-6506234D01*
X15084694Y-6506562D01*
X15080865Y-6505800D01*
X15076566Y-6505800D01*
X15077200Y-6502615D01*
X15077200Y-5173000D01*
X16868906Y-5173000D01*
X16880149Y-5229522D01*
X16912167Y-5277440D01*
X16945931Y-5300000D01*
X16912167Y-5322560D01*
X16880149Y-5370478D01*
X16868906Y-5427000D01*
X16880149Y-5483522D01*
X16912167Y-5531440D01*
X16960084Y-5563457D01*
X17016606Y-5574700D01*
X17022394Y-5574700D01*
X17078916Y-5563457D01*
X17126833Y-5531440D01*
X17158851Y-5483522D01*
X17170094Y-5427000D01*
X17158851Y-5370478D01*
X17126833Y-5322560D01*
X17093069Y-5300000D01*
X17126833Y-5277440D01*
X17158851Y-5229522D01*
X17170094Y-5173000D01*
X17158851Y-5116478D01*
X17126833Y-5068560D01*
X17078916Y-5036543D01*
X17022394Y-5025300D01*
X17016606Y-5025300D01*
X16960084Y-5036543D01*
X16912167Y-5068560D01*
X16880149Y-5116478D01*
X16868906Y-5173000D01*
X15077200Y-5173000D01*
X15077200Y-4982358D01*
X15606284Y-4982358D01*
X15620367Y-5016442D01*
X15646421Y-5042541D01*
X15680480Y-5056684D01*
X15717358Y-5056716D01*
X15751442Y-5042633D01*
X15777541Y-5016579D01*
X15791684Y-4982520D01*
X15791716Y-4945642D01*
X15777633Y-4911558D01*
X15751579Y-4885459D01*
X15717520Y-4871316D01*
X15680642Y-4871284D01*
X15646558Y-4885367D01*
X15620459Y-4911421D01*
X15606316Y-4945480D01*
X15606284Y-4982358D01*
X15077200Y-4982358D01*
X15077200Y-4604877D01*
X15122002Y-4560074D01*
X15399000Y-4560074D01*
X15413083Y-4594158D01*
X15439137Y-4620257D01*
X15460774Y-4629242D01*
X15469651Y-4650726D01*
X15495705Y-4676826D01*
X15529764Y-4690968D01*
X15566642Y-4691000D01*
X15600726Y-4676917D01*
X15625531Y-4652156D01*
X15632922Y-4670044D01*
X15675173Y-4712369D01*
X15730406Y-4735304D01*
X15790211Y-4735356D01*
X15845484Y-4712518D01*
X15887809Y-4670266D01*
X15910744Y-4615034D01*
X15910796Y-4555229D01*
X15887958Y-4499956D01*
X15845706Y-4457631D01*
X15790473Y-4434696D01*
X15730668Y-4434644D01*
X15675396Y-4457482D01*
X15633071Y-4499734D01*
X15617741Y-4536651D01*
X15600863Y-4519743D01*
X15579226Y-4510758D01*
X15570349Y-4489274D01*
X15544295Y-4463174D01*
X15510236Y-4449032D01*
X15473357Y-4449000D01*
X15439274Y-4463083D01*
X15413174Y-4489137D01*
X15399032Y-4523196D01*
X15399000Y-4560074D01*
X15122002Y-4560074D01*
X15160005Y-4522072D01*
X15174951Y-4499703D01*
X15180200Y-4473317D01*
X15180200Y-4235289D01*
X15198421Y-4253541D01*
X15232480Y-4267684D01*
X15269358Y-4267716D01*
X15303442Y-4253633D01*
X15329541Y-4227579D01*
X15329633Y-4227358D01*
X15627284Y-4227358D01*
X15641367Y-4261442D01*
X15667421Y-4287541D01*
X15701480Y-4301684D01*
X15738358Y-4301716D01*
X15772442Y-4287633D01*
X15798541Y-4261579D01*
X15812684Y-4227520D01*
X15812716Y-4190642D01*
X15798633Y-4156558D01*
X15772579Y-4130459D01*
X15738520Y-4116316D01*
X15701642Y-4116284D01*
X15667558Y-4130367D01*
X15641459Y-4156421D01*
X15627316Y-4190480D01*
X15627284Y-4227358D01*
X15329633Y-4227358D01*
X15343684Y-4193520D01*
X15343716Y-4156642D01*
X15335183Y-4135991D01*
X15343684Y-4115520D01*
X15343716Y-4078642D01*
X15329633Y-4044558D01*
X15318370Y-4033276D01*
X15318684Y-4032520D01*
X15318716Y-3995642D01*
X15310183Y-3974991D01*
X15318684Y-3954520D01*
X15318716Y-3917642D01*
X15304633Y-3883558D01*
X15278579Y-3857459D01*
X15244520Y-3843316D01*
X15207642Y-3843284D01*
X15173558Y-3857367D01*
X15147459Y-3883421D01*
X15144395Y-3890800D01*
X14948683Y-3890800D01*
X14922297Y-3896048D01*
X14899928Y-3910995D01*
X14805995Y-4004928D01*
X14791048Y-4027297D01*
X14785800Y-4053683D01*
X14785800Y-4219123D01*
X14723995Y-4280928D01*
X14709048Y-4303297D01*
X14703800Y-4329683D01*
X14703800Y-4559123D01*
X14662692Y-4600231D01*
X14662716Y-4572642D01*
X14653769Y-4550989D01*
X14662684Y-4529520D01*
X14662716Y-4492642D01*
X14648633Y-4458558D01*
X14622579Y-4432459D01*
X14588520Y-4418316D01*
X14551642Y-4418284D01*
X14517558Y-4432367D01*
X14491459Y-4458421D01*
X14477316Y-4492480D01*
X14477284Y-4529358D01*
X14486231Y-4551011D01*
X14477316Y-4572480D01*
X14477284Y-4609358D01*
X14491367Y-4643442D01*
X14517421Y-4669541D01*
X14551480Y-4683684D01*
X14579215Y-4683708D01*
X14456995Y-4805928D01*
X14442049Y-4828297D01*
X14436800Y-4854683D01*
X14436800Y-6629465D01*
X14437562Y-6633294D01*
X14437233Y-6637185D01*
X14438037Y-6644313D01*
X14440389Y-6651695D01*
X14441473Y-6659367D01*
X14443842Y-6666138D01*
X14447778Y-6672811D01*
X14450541Y-6680048D01*
X14454357Y-6686122D01*
X14456842Y-6688750D01*
X14454357Y-6691379D01*
X14450541Y-6697453D01*
X14447778Y-6704690D01*
X14443842Y-6711363D01*
X14441473Y-6718134D01*
X14440389Y-6725806D01*
X14438037Y-6733188D01*
X14437233Y-6740316D01*
X14437562Y-6744207D01*
X14436800Y-6748035D01*
X14436800Y-7164375D01*
X14429558Y-7167367D01*
X14403459Y-7193421D01*
X14389316Y-7227480D01*
X14389284Y-7264358D01*
X12282300Y-7264358D01*
X12282300Y-5796600D01*
X12273721Y-5753471D01*
X12249291Y-5716909D01*
X11675740Y-5143358D01*
X12482284Y-5143358D01*
X12496367Y-5177442D01*
X12522421Y-5203541D01*
X12556480Y-5217684D01*
X12593358Y-5217716D01*
X12627442Y-5203633D01*
X12653541Y-5177579D01*
X12667684Y-5143520D01*
X12667716Y-5106642D01*
X12653633Y-5072558D01*
X12627579Y-5046459D01*
X12593520Y-5032316D01*
X12556642Y-5032284D01*
X12522558Y-5046367D01*
X12496459Y-5072421D01*
X12482316Y-5106480D01*
X12482284Y-5143358D01*
X11675740Y-5143358D01*
X11525740Y-4993358D01*
X12707284Y-4993358D01*
X12721367Y-5027442D01*
X12747421Y-5053541D01*
X12781480Y-5067684D01*
X12818358Y-5067716D01*
X12852442Y-5053633D01*
X12878541Y-5027579D01*
X12892684Y-4993520D01*
X12892693Y-4983358D01*
X13934284Y-4983358D01*
X13948367Y-5017442D01*
X13974421Y-5043541D01*
X14008480Y-5057684D01*
X14045358Y-5057716D01*
X14079442Y-5043633D01*
X14105541Y-5017579D01*
X14119684Y-4983520D01*
X14119716Y-4946642D01*
X14105633Y-4912558D01*
X14079579Y-4886459D01*
X14045520Y-4872316D01*
X14008642Y-4872284D01*
X13974558Y-4886367D01*
X13948459Y-4912421D01*
X13934316Y-4946480D01*
X13934284Y-4983358D01*
X12892693Y-4983358D01*
X12892716Y-4956642D01*
X12878633Y-4922558D01*
X12852579Y-4896459D01*
X12818520Y-4882316D01*
X12781642Y-4882284D01*
X12747558Y-4896367D01*
X12721459Y-4922421D01*
X12707316Y-4956480D01*
X12707284Y-4993358D01*
X11525740Y-4993358D01*
X11486700Y-4954318D01*
X11486700Y-4765358D01*
X12210284Y-4765358D01*
X12224367Y-4799442D01*
X12250421Y-4825541D01*
X12284480Y-4839684D01*
X12321358Y-4839716D01*
X12355442Y-4825633D01*
X12381541Y-4799579D01*
X12395684Y-4765520D01*
X12395716Y-4728642D01*
X12391467Y-4718358D01*
X12407284Y-4718358D01*
X12421367Y-4752442D01*
X12447421Y-4778541D01*
X12481480Y-4792684D01*
X12518358Y-4792716D01*
X12552442Y-4778633D01*
X12578541Y-4752579D01*
X12592684Y-4718520D01*
X12592684Y-4718358D01*
X12850933Y-4718358D01*
X12865016Y-4752442D01*
X12891070Y-4778541D01*
X12925129Y-4792684D01*
X12962007Y-4792716D01*
X12996091Y-4778633D01*
X13022190Y-4752579D01*
X13034324Y-4723358D01*
X13098284Y-4723358D01*
X13112367Y-4757442D01*
X13138421Y-4783541D01*
X13172480Y-4797684D01*
X13209358Y-4797716D01*
X13243442Y-4783633D01*
X13269541Y-4757579D01*
X13273162Y-4748858D01*
X13841284Y-4748858D01*
X13855367Y-4782942D01*
X13881421Y-4809041D01*
X13915480Y-4823184D01*
X13952358Y-4823216D01*
X13986442Y-4809133D01*
X14012541Y-4783079D01*
X14026684Y-4749020D01*
X14026716Y-4712142D01*
X14012633Y-4678058D01*
X13986579Y-4651959D01*
X13952520Y-4637816D01*
X13915642Y-4637784D01*
X13881558Y-4651867D01*
X13855459Y-4677921D01*
X13841316Y-4711980D01*
X13841284Y-4748858D01*
X13273162Y-4748858D01*
X13283684Y-4723520D01*
X13283716Y-4686642D01*
X13269633Y-4652558D01*
X13243579Y-4626459D01*
X13209520Y-4612316D01*
X13172642Y-4612284D01*
X13138558Y-4626367D01*
X13112459Y-4652421D01*
X13098316Y-4686480D01*
X13098284Y-4723358D01*
X13034324Y-4723358D01*
X13036333Y-4718520D01*
X13036365Y-4681642D01*
X13022282Y-4647558D01*
X12996228Y-4621459D01*
X12962169Y-4607316D01*
X12925291Y-4607284D01*
X12891207Y-4621367D01*
X12865108Y-4647421D01*
X12850965Y-4681480D01*
X12850933Y-4718358D01*
X12592684Y-4718358D01*
X12592716Y-4681642D01*
X12578633Y-4647558D01*
X12552579Y-4621459D01*
X12518520Y-4607316D01*
X12481642Y-4607284D01*
X12447558Y-4621367D01*
X12421459Y-4647421D01*
X12407316Y-4681480D01*
X12407284Y-4718358D01*
X12391467Y-4718358D01*
X12381633Y-4694558D01*
X12355579Y-4668459D01*
X12321520Y-4654316D01*
X12284642Y-4654284D01*
X12250558Y-4668367D01*
X12224459Y-4694421D01*
X12210316Y-4728480D01*
X12210284Y-4765358D01*
X11486700Y-4765358D01*
X11486700Y-4722000D01*
X11478121Y-4678872D01*
X11478121Y-4678872D01*
X11453691Y-4642309D01*
X11329740Y-4518358D01*
X11382284Y-4518358D01*
X11396367Y-4552442D01*
X11422421Y-4578541D01*
X11456480Y-4592684D01*
X11493358Y-4592716D01*
X11527442Y-4578633D01*
X11553541Y-4552579D01*
X11567684Y-4518520D01*
X11567716Y-4481642D01*
X11562228Y-4468358D01*
X12207284Y-4468358D01*
X12221367Y-4502442D01*
X12247421Y-4528541D01*
X12281480Y-4542684D01*
X12318358Y-4542716D01*
X12352442Y-4528633D01*
X12362734Y-4518358D01*
X12407284Y-4518358D01*
X12421367Y-4552442D01*
X12447421Y-4578541D01*
X12481480Y-4592684D01*
X12518358Y-4592716D01*
X12552442Y-4578633D01*
X12578541Y-4552579D01*
X12592684Y-4518520D01*
X12592706Y-4493358D01*
X12907284Y-4493358D01*
X12921367Y-4527442D01*
X12947421Y-4553541D01*
X12981480Y-4567684D01*
X13018358Y-4567716D01*
X13052442Y-4553633D01*
X13078541Y-4527579D01*
X13092684Y-4493520D01*
X13092716Y-4456642D01*
X13078633Y-4422558D01*
X13052579Y-4396459D01*
X13018520Y-4382316D01*
X12981642Y-4382284D01*
X12947558Y-4396367D01*
X12921459Y-4422421D01*
X12907316Y-4456480D01*
X12907284Y-4493358D01*
X12592706Y-4493358D01*
X12592716Y-4481642D01*
X12578633Y-4447558D01*
X12552579Y-4421459D01*
X12518520Y-4407316D01*
X12481642Y-4407284D01*
X12447558Y-4421367D01*
X12421459Y-4447421D01*
X12407316Y-4481480D01*
X12407284Y-4518358D01*
X12362734Y-4518358D01*
X12378541Y-4502579D01*
X12392684Y-4468520D01*
X12392716Y-4431642D01*
X12378633Y-4397558D01*
X12352579Y-4371459D01*
X12318520Y-4357316D01*
X12281642Y-4357284D01*
X12247558Y-4371367D01*
X12221459Y-4397421D01*
X12207316Y-4431480D01*
X12207284Y-4468358D01*
X11562228Y-4468358D01*
X11553633Y-4447558D01*
X11527579Y-4421459D01*
X11493520Y-4407316D01*
X11456642Y-4407284D01*
X11422558Y-4421367D01*
X11396459Y-4447421D01*
X11382316Y-4481480D01*
X11382284Y-4518358D01*
X11329740Y-4518358D01*
X11058734Y-4247352D01*
X11078541Y-4227579D01*
X11092684Y-4193520D01*
X11092716Y-4156642D01*
X11078633Y-4122558D01*
X11052579Y-4096459D01*
X11018520Y-4082316D01*
X10981642Y-4082284D01*
X10947558Y-4096367D01*
X10927636Y-4116254D01*
X10844740Y-4033358D01*
X14481284Y-4033358D01*
X14490231Y-4055011D01*
X14481316Y-4076480D01*
X14481284Y-4113358D01*
X14495367Y-4147442D01*
X14521421Y-4173541D01*
X14555480Y-4187684D01*
X14592358Y-4187716D01*
X14626442Y-4173633D01*
X14652541Y-4147579D01*
X14666684Y-4113520D01*
X14666716Y-4076642D01*
X14657769Y-4054989D01*
X14666684Y-4033520D01*
X14666716Y-3996642D01*
X14652633Y-3962558D01*
X14626579Y-3936459D01*
X14592520Y-3922316D01*
X14555642Y-3922284D01*
X14521558Y-3936367D01*
X14495459Y-3962421D01*
X14481316Y-3996480D01*
X14481284Y-4033358D01*
X10844740Y-4033358D01*
X10704191Y-3892809D01*
X10667628Y-3868379D01*
X10624500Y-3859800D01*
X9486682Y-3859800D01*
X9227191Y-3600309D01*
X9227191Y-3600309D01*
X9197191Y-3570309D01*
X9160628Y-3545879D01*
X9117500Y-3537300D01*
X9074372Y-3545879D01*
X9037809Y-3570309D01*
X9013379Y-3606872D01*
X9004800Y-3650000D01*
X8860191Y-3650000D01*
X8860216Y-3621642D01*
X8846133Y-3587558D01*
X8820079Y-3561459D01*
X8786020Y-3547316D01*
X8749142Y-3547284D01*
X8715058Y-3561367D01*
X8688959Y-3587421D01*
X8674816Y-3621480D01*
X8674784Y-3658358D01*
X8403527Y-3658358D01*
X8433066Y-3614149D01*
X8438799Y-3600309D01*
X8443175Y-3589744D01*
X8458399Y-3513208D01*
X8458399Y-3506540D01*
X8459700Y-3500000D01*
X8459700Y-3258358D01*
X8674784Y-3258358D01*
X8688867Y-3292442D01*
X8714921Y-3318541D01*
X8748980Y-3332684D01*
X8785858Y-3332716D01*
X8819942Y-3318633D01*
X8846041Y-3292579D01*
X8860184Y-3258520D01*
X8860216Y-3221642D01*
X8846133Y-3187558D01*
X8820079Y-3161459D01*
X8786020Y-3147316D01*
X8749142Y-3147284D01*
X8715058Y-3161367D01*
X8688959Y-3187421D01*
X8674816Y-3221480D01*
X8674784Y-3258358D01*
X8459700Y-3258358D01*
X8459700Y-2910000D01*
X8884300Y-2910000D01*
X8901633Y-2997137D01*
X8950992Y-3071008D01*
X9024863Y-3120367D01*
X9112000Y-3137700D01*
X9199137Y-3120367D01*
X9273008Y-3071008D01*
X9322367Y-2997137D01*
X9333453Y-2941404D01*
X9486976Y-2941404D01*
X9508078Y-2992474D01*
X9547117Y-3031581D01*
X9569542Y-3040893D01*
X9547322Y-3050074D01*
X9508215Y-3089113D01*
X9487024Y-3140146D01*
X9486976Y-3195404D01*
X9508078Y-3246474D01*
X9547117Y-3285581D01*
X9569114Y-3294715D01*
X9547422Y-3303678D01*
X9508315Y-3342717D01*
X9487124Y-3393750D01*
X9487076Y-3449008D01*
X9508178Y-3500078D01*
X9547217Y-3539185D01*
X9569642Y-3548497D01*
X9547422Y-3557678D01*
X9508315Y-3596717D01*
X9487124Y-3647750D01*
X9487076Y-3703008D01*
X9508178Y-3754078D01*
X9547217Y-3793185D01*
X9598250Y-3814376D01*
X9653508Y-3814424D01*
X9704578Y-3793322D01*
X9743685Y-3754283D01*
X9752997Y-3731858D01*
X9762178Y-3754078D01*
X9801217Y-3793185D01*
X9852250Y-3814376D01*
X9907508Y-3814424D01*
X9958578Y-3793322D01*
X9997685Y-3754283D01*
X10006997Y-3731858D01*
X10016178Y-3754078D01*
X10055217Y-3793185D01*
X10106250Y-3814376D01*
X10161508Y-3814424D01*
X10212578Y-3793322D01*
X10251685Y-3754283D01*
X10260997Y-3731858D01*
X10270178Y-3754078D01*
X10309217Y-3793185D01*
X10360250Y-3814376D01*
X10415508Y-3814424D01*
X10466578Y-3793322D01*
X10505685Y-3754283D01*
X10514997Y-3731858D01*
X10524178Y-3754078D01*
X10563217Y-3793185D01*
X10614250Y-3814376D01*
X10669508Y-3814424D01*
X10720578Y-3793322D01*
X10759685Y-3754283D01*
X10768997Y-3731858D01*
X10778178Y-3754078D01*
X10817217Y-3793185D01*
X10868250Y-3814376D01*
X10923508Y-3814424D01*
X10974578Y-3793322D01*
X11013685Y-3754283D01*
X11022997Y-3731858D01*
X11032178Y-3754078D01*
X11071217Y-3793185D01*
X11122250Y-3814376D01*
X11177508Y-3814424D01*
X11228578Y-3793322D01*
X11267685Y-3754283D01*
X11276997Y-3731858D01*
X11286178Y-3754078D01*
X11325217Y-3793185D01*
X11376250Y-3814376D01*
X11431508Y-3814424D01*
X11482578Y-3793322D01*
X11521685Y-3754283D01*
X11530997Y-3731858D01*
X11540178Y-3754078D01*
X11579217Y-3793185D01*
X11630250Y-3814376D01*
X11685508Y-3814424D01*
X11736578Y-3793322D01*
X11775685Y-3754283D01*
X11784997Y-3731858D01*
X11794178Y-3754078D01*
X11833217Y-3793185D01*
X11884250Y-3814376D01*
X11939508Y-3814424D01*
X11990578Y-3793322D01*
X12029685Y-3754283D01*
X12038997Y-3731858D01*
X12048178Y-3754078D01*
X12087217Y-3793185D01*
X12138250Y-3814376D01*
X12193508Y-3814424D01*
X12244578Y-3793322D01*
X12283685Y-3754283D01*
X12292997Y-3731858D01*
X12302178Y-3754078D01*
X12341217Y-3793185D01*
X12392250Y-3814376D01*
X12447508Y-3814424D01*
X12498578Y-3793322D01*
X12537685Y-3754283D01*
X12546997Y-3731858D01*
X12556178Y-3754078D01*
X12595217Y-3793185D01*
X12646250Y-3814376D01*
X12701508Y-3814424D01*
X12752578Y-3793322D01*
X12791685Y-3754283D01*
X12800997Y-3731858D01*
X12810178Y-3754078D01*
X12849217Y-3793185D01*
X12900250Y-3814376D01*
X12955508Y-3814424D01*
X13006578Y-3793322D01*
X13045685Y-3754283D01*
X13054997Y-3731858D01*
X13064178Y-3754078D01*
X13103217Y-3793185D01*
X13154250Y-3814376D01*
X13209508Y-3814424D01*
X13260578Y-3793322D01*
X13299685Y-3754283D01*
X13308997Y-3731858D01*
X13318178Y-3754078D01*
X13357217Y-3793185D01*
X13408250Y-3814376D01*
X13463508Y-3814424D01*
X13514578Y-3793322D01*
X13553685Y-3754283D01*
X13562997Y-3731858D01*
X13572178Y-3754078D01*
X13611217Y-3793185D01*
X13662250Y-3814376D01*
X13717508Y-3814424D01*
X13768578Y-3793322D01*
X13807685Y-3754283D01*
X13816997Y-3731858D01*
X13826178Y-3754078D01*
X13865217Y-3793185D01*
X13916250Y-3814376D01*
X13971508Y-3814424D01*
X14022578Y-3793322D01*
X14061685Y-3754283D01*
X14070997Y-3731858D01*
X14080178Y-3754078D01*
X14119217Y-3793185D01*
X14170250Y-3814376D01*
X14225508Y-3814424D01*
X14276578Y-3793322D01*
X14315685Y-3754283D01*
X14324997Y-3731858D01*
X14334178Y-3754078D01*
X14373217Y-3793185D01*
X14424250Y-3814376D01*
X14479508Y-3814424D01*
X14530578Y-3793322D01*
X14569685Y-3754283D01*
X14578997Y-3731858D01*
X14588178Y-3754078D01*
X14627217Y-3793185D01*
X14678250Y-3814376D01*
X14733508Y-3814424D01*
X14784578Y-3793322D01*
X14823685Y-3754283D01*
X14832997Y-3731858D01*
X14842178Y-3754078D01*
X14881217Y-3793185D01*
X14932250Y-3814376D01*
X14987508Y-3814424D01*
X15038578Y-3793322D01*
X15077685Y-3754283D01*
X15086997Y-3731858D01*
X15096178Y-3754078D01*
X15135217Y-3793185D01*
X15186250Y-3814376D01*
X15241508Y-3814424D01*
X15292578Y-3793322D01*
X15331685Y-3754283D01*
X15340997Y-3731858D01*
X15350178Y-3754078D01*
X15389217Y-3793185D01*
X15440250Y-3814376D01*
X15495508Y-3814424D01*
X15546578Y-3793322D01*
X15585685Y-3754283D01*
X15594997Y-3731858D01*
X15604178Y-3754078D01*
X15643217Y-3793185D01*
X15694250Y-3814376D01*
X15749508Y-3814424D01*
X15800578Y-3793322D01*
X15839685Y-3754283D01*
X15848997Y-3731858D01*
X15858178Y-3754078D01*
X15897217Y-3793185D01*
X15948250Y-3814376D01*
X16003508Y-3814424D01*
X16054578Y-3793322D01*
X16093685Y-3754283D01*
X16114876Y-3703250D01*
X16114924Y-3647992D01*
X16093822Y-3596922D01*
X16054783Y-3557815D01*
X16032358Y-3548503D01*
X16054578Y-3539322D01*
X16093685Y-3500283D01*
X16114876Y-3449250D01*
X16114924Y-3393992D01*
X16093822Y-3342922D01*
X16054783Y-3303815D01*
X16032786Y-3294681D01*
X16054478Y-3285718D01*
X16093585Y-3246679D01*
X16114776Y-3195646D01*
X16114824Y-3140388D01*
X16093722Y-3089318D01*
X16054683Y-3050211D01*
X16032258Y-3040899D01*
X16054478Y-3031718D01*
X16093585Y-2992679D01*
X16114776Y-2941646D01*
X16114803Y-2910000D01*
X16254300Y-2910000D01*
X16271633Y-2997137D01*
X16320992Y-3071008D01*
X16394863Y-3120367D01*
X16482000Y-3137700D01*
X16569137Y-3120367D01*
X16643008Y-3071008D01*
X16692367Y-2997137D01*
X16709700Y-2910000D01*
X16692367Y-2822863D01*
X16643008Y-2748992D01*
X16569137Y-2699633D01*
X16482000Y-2682300D01*
X16394863Y-2699633D01*
X16320992Y-2748992D01*
X16271633Y-2822863D01*
X16254300Y-2910000D01*
X16114803Y-2910000D01*
X16114824Y-2886388D01*
X16093722Y-2835318D01*
X16054683Y-2796211D01*
X16003650Y-2775020D01*
X15948392Y-2774972D01*
X15897322Y-2796074D01*
X15858215Y-2835113D01*
X15848903Y-2857538D01*
X15839722Y-2835318D01*
X15800683Y-2796211D01*
X15749650Y-2775020D01*
X15694392Y-2774972D01*
X15643322Y-2796074D01*
X15604215Y-2835113D01*
X15594903Y-2857538D01*
X15585722Y-2835318D01*
X15546683Y-2796211D01*
X15495650Y-2775020D01*
X15440392Y-2774972D01*
X15389322Y-2796074D01*
X15350215Y-2835113D01*
X15340903Y-2857538D01*
X15331722Y-2835318D01*
X15292683Y-2796211D01*
X15241650Y-2775020D01*
X15186392Y-2774972D01*
X15135322Y-2796074D01*
X15096215Y-2835113D01*
X15086903Y-2857538D01*
X15077722Y-2835318D01*
X15038683Y-2796211D01*
X14987650Y-2775020D01*
X14932392Y-2774972D01*
X14881322Y-2796074D01*
X14842215Y-2835113D01*
X14832903Y-2857538D01*
X14823722Y-2835318D01*
X14784683Y-2796211D01*
X14733650Y-2775020D01*
X14678392Y-2774972D01*
X14627322Y-2796074D01*
X14588215Y-2835113D01*
X14578903Y-2857538D01*
X14569722Y-2835318D01*
X14530683Y-2796211D01*
X14479650Y-2775020D01*
X14424392Y-2774972D01*
X14373322Y-2796074D01*
X14334215Y-2835113D01*
X14324903Y-2857538D01*
X14315722Y-2835318D01*
X14276683Y-2796211D01*
X14225650Y-2775020D01*
X14170392Y-2774972D01*
X14119322Y-2796074D01*
X14080215Y-2835113D01*
X14070903Y-2857538D01*
X14061722Y-2835318D01*
X14022683Y-2796211D01*
X13971650Y-2775020D01*
X13916392Y-2774972D01*
X13865322Y-2796074D01*
X13826215Y-2835113D01*
X13816903Y-2857538D01*
X13807722Y-2835318D01*
X13768683Y-2796211D01*
X13717650Y-2775020D01*
X13662392Y-2774972D01*
X13611322Y-2796074D01*
X13572215Y-2835113D01*
X13562903Y-2857538D01*
X13553722Y-2835318D01*
X13514683Y-2796211D01*
X13463650Y-2775020D01*
X13408392Y-2774972D01*
X13357322Y-2796074D01*
X13318215Y-2835113D01*
X13308903Y-2857538D01*
X13299722Y-2835318D01*
X13260683Y-2796211D01*
X13209650Y-2775020D01*
X13154392Y-2774972D01*
X13103322Y-2796074D01*
X13064215Y-2835113D01*
X13054903Y-2857538D01*
X13045722Y-2835318D01*
X13006683Y-2796211D01*
X12955650Y-2775020D01*
X12900392Y-2774972D01*
X12849322Y-2796074D01*
X12810215Y-2835113D01*
X12800903Y-2857538D01*
X12791722Y-2835318D01*
X12752683Y-2796211D01*
X12701650Y-2775020D01*
X12646392Y-2774972D01*
X12595322Y-2796074D01*
X12556215Y-2835113D01*
X12546903Y-2857538D01*
X12537722Y-2835318D01*
X12498683Y-2796211D01*
X12447650Y-2775020D01*
X12392392Y-2774972D01*
X12341322Y-2796074D01*
X12302215Y-2835113D01*
X12292903Y-2857538D01*
X12283722Y-2835318D01*
X12244683Y-2796211D01*
X12193650Y-2775020D01*
X12138392Y-2774972D01*
X12087322Y-2796074D01*
X12048215Y-2835113D01*
X12038903Y-2857538D01*
X12029722Y-2835318D01*
X11990683Y-2796211D01*
X11939650Y-2775020D01*
X11884392Y-2774972D01*
X11833322Y-2796074D01*
X11794215Y-2835113D01*
X11784903Y-2857538D01*
X11775722Y-2835318D01*
X11736683Y-2796211D01*
X11685650Y-2775020D01*
X11630392Y-2774972D01*
X11579322Y-2796074D01*
X11540215Y-2835113D01*
X11530903Y-2857538D01*
X11521722Y-2835318D01*
X11482683Y-2796211D01*
X11431650Y-2775020D01*
X11376392Y-2774972D01*
X11325322Y-2796074D01*
X11286215Y-2835113D01*
X11276903Y-2857538D01*
X11267722Y-2835318D01*
X11228683Y-2796211D01*
X11177650Y-2775020D01*
X11122392Y-2774972D01*
X11071322Y-2796074D01*
X11032215Y-2835113D01*
X11022903Y-2857538D01*
X11013722Y-2835318D01*
X10974683Y-2796211D01*
X10923650Y-2775020D01*
X10868392Y-2774972D01*
X10817322Y-2796074D01*
X10778215Y-2835113D01*
X10768903Y-2857538D01*
X10759722Y-2835318D01*
X10720683Y-2796211D01*
X10669650Y-2775020D01*
X10614392Y-2774972D01*
X10563322Y-2796074D01*
X10524215Y-2835113D01*
X10514903Y-2857538D01*
X10505722Y-2835318D01*
X10466683Y-2796211D01*
X10415650Y-2775020D01*
X10360392Y-2774972D01*
X10309322Y-2796074D01*
X10270215Y-2835113D01*
X10260903Y-2857538D01*
X10251722Y-2835318D01*
X10212683Y-2796211D01*
X10161650Y-2775020D01*
X10106392Y-2774972D01*
X10055322Y-2796074D01*
X10016215Y-2835113D01*
X10006903Y-2857538D01*
X9997722Y-2835318D01*
X9958683Y-2796211D01*
X9907650Y-2775020D01*
X9852392Y-2774972D01*
X9801322Y-2796074D01*
X9762215Y-2835113D01*
X9752903Y-2857538D01*
X9743722Y-2835318D01*
X9704683Y-2796211D01*
X9653650Y-2775020D01*
X9598392Y-2774972D01*
X9547322Y-2796074D01*
X9508215Y-2835113D01*
X9487024Y-2886146D01*
X9486976Y-2941404D01*
X9333453Y-2941404D01*
X9339700Y-2910000D01*
X9322367Y-2822863D01*
X9273008Y-2748992D01*
X9199137Y-2699633D01*
X9112000Y-2682300D01*
X9024863Y-2699633D01*
X8950992Y-2748992D01*
X8901633Y-2822863D01*
X8884300Y-2910000D01*
X8459700Y-2910000D01*
X8459700Y-2638358D01*
X8844784Y-2638358D01*
X8858867Y-2672442D01*
X8884921Y-2698541D01*
X8918980Y-2712684D01*
X8955858Y-2712716D01*
X8989942Y-2698633D01*
X9016041Y-2672579D01*
X9030184Y-2638520D01*
X9030216Y-2601642D01*
X9016133Y-2567558D01*
X8990079Y-2541459D01*
X8956020Y-2527316D01*
X8919142Y-2527284D01*
X8885058Y-2541367D01*
X8858959Y-2567421D01*
X8844816Y-2601480D01*
X8844784Y-2638358D01*
X8459700Y-2638358D01*
X8459700Y-2467700D01*
X9536440Y-2467700D01*
X9548437Y-2528013D01*
M02*
