G04 #@! TF.FileFunction,Legend,Top*
%FSLAX45Y45*%
G04 Gerber Fmt 4.5, Leading zero omitted, Abs format (unit mm)*
G04 Created by KiCad (PCBNEW 4.0.7) date 02/13/18 13:39:06*
%MOMM*%
%LPD*%
G01*
G04 APERTURE LIST*
%ADD10C,0.100000*%
%ADD11C,0.200000*%
%ADD12C,0.120000*%
%ADD13C,0.152400*%
%ADD14C,0.254000*%
%ADD15C,0.010000*%
%ADD16C,0.127000*%
%ADD17C,0.150000*%
%ADD18C,0.049267*%
%ADD19C,0.050000*%
%ADD20C,0.049235*%
G04 APERTURE END LIST*
D10*
D11*
X9992500Y-4585000D02*
X15762500Y-4585000D01*
D12*
X8379500Y-9801000D02*
X8379500Y-8773000D01*
X8379500Y-8773000D02*
X8113500Y-8773000D01*
X8113500Y-8773000D02*
X8113500Y-9801000D01*
X8113500Y-9801000D02*
X8379500Y-9801000D01*
X8113500Y-9706000D02*
X7513500Y-9706000D01*
X7513500Y-9706000D02*
X7513500Y-9630000D01*
X7513500Y-9630000D02*
X8113500Y-9630000D01*
X8113500Y-9700000D02*
X7513500Y-9700000D01*
X8113500Y-9688000D02*
X7513500Y-9688000D01*
X8113500Y-9676000D02*
X7513500Y-9676000D01*
X8113500Y-9664000D02*
X7513500Y-9664000D01*
X8113500Y-9652000D02*
X7513500Y-9652000D01*
X8113500Y-9640000D02*
X7513500Y-9640000D01*
X8419207Y-9706000D02*
X8379500Y-9706000D01*
X8419207Y-9630000D02*
X8379500Y-9630000D01*
X8666500Y-9706000D02*
X8627793Y-9706000D01*
X8666500Y-9630000D02*
X8627793Y-9630000D01*
X8379500Y-9541000D02*
X8113500Y-9541000D01*
X8113500Y-9452000D02*
X7513500Y-9452000D01*
X7513500Y-9452000D02*
X7513500Y-9376000D01*
X7513500Y-9376000D02*
X8113500Y-9376000D01*
X8419207Y-9452000D02*
X8379500Y-9452000D01*
X8419207Y-9376000D02*
X8379500Y-9376000D01*
X8673207Y-9452000D02*
X8627793Y-9452000D01*
X8673207Y-9376000D02*
X8627793Y-9376000D01*
X8379500Y-9287000D02*
X8113500Y-9287000D01*
X8113500Y-9198000D02*
X7513500Y-9198000D01*
X7513500Y-9198000D02*
X7513500Y-9122000D01*
X7513500Y-9122000D02*
X8113500Y-9122000D01*
X8419207Y-9198000D02*
X8379500Y-9198000D01*
X8419207Y-9122000D02*
X8379500Y-9122000D01*
X8673207Y-9198000D02*
X8627793Y-9198000D01*
X8673207Y-9122000D02*
X8627793Y-9122000D01*
X8379500Y-9033000D02*
X8113500Y-9033000D01*
X8113500Y-8944000D02*
X7513500Y-8944000D01*
X7513500Y-8944000D02*
X7513500Y-8868000D01*
X7513500Y-8868000D02*
X8113500Y-8868000D01*
X8419207Y-8944000D02*
X8379500Y-8944000D01*
X8419207Y-8868000D02*
X8379500Y-8868000D01*
X8673207Y-8944000D02*
X8627793Y-8944000D01*
X8673207Y-8868000D02*
X8627793Y-8868000D01*
X8904500Y-9668000D02*
X8904500Y-9795000D01*
X8904500Y-9795000D02*
X8777500Y-9795000D01*
X15992000Y-9767500D02*
X15992000Y-9647500D01*
X16168000Y-9647500D02*
X16168000Y-9767500D01*
D13*
X9772390Y-4262420D02*
X10100216Y-4262420D01*
X15977610Y-4262420D02*
X15977610Y-4907580D01*
X15977610Y-4907580D02*
X15649717Y-4907580D01*
X9772390Y-4907580D02*
X9772390Y-4262420D01*
X15649784Y-4262420D02*
X15977610Y-4262420D01*
X10100216Y-4907580D02*
X9772390Y-4907580D01*
X15638101Y-4129500D02*
G75*
G03X15638101Y-4129500I-38100J0D01*
G01*
D11*
X14656000Y-9978000D02*
X14656000Y-12518000D01*
X14656000Y-12518000D02*
X16454000Y-12518000D01*
X16454000Y-12518000D02*
X16454000Y-9978000D01*
D14*
X16538200Y-10797200D02*
G75*
G03X16538200Y-10797200I-7000J0D01*
G01*
D12*
X16086000Y-7864000D02*
X16156000Y-7864000D01*
X16156000Y-7984000D02*
X16086000Y-7984000D01*
X16160000Y-7310000D02*
X16090000Y-7310000D01*
X16090000Y-7190000D02*
X16160000Y-7190000D01*
X16221000Y-6083000D02*
X16151000Y-6083000D01*
X16151000Y-5963000D02*
X16221000Y-5963000D01*
X13882000Y-11518500D02*
X14094000Y-11518500D01*
X13882000Y-11198500D02*
X13882000Y-11518500D01*
X14094000Y-11518500D02*
X14094000Y-11198500D01*
X13602000Y-11513500D02*
X13814000Y-11513500D01*
X13602000Y-11193500D02*
X13602000Y-11513500D01*
X13814000Y-11513500D02*
X13814000Y-11193500D01*
X14162000Y-11518500D02*
X14374000Y-11518500D01*
X14162000Y-11198500D02*
X14162000Y-11518500D01*
X14374000Y-11518500D02*
X14374000Y-11198500D01*
D15*
G36*
X11298733Y-6945398D02*
X11300250Y-7148886D01*
X11603322Y-7148886D01*
X11603318Y-7249909D01*
X11199227Y-7249909D01*
X11199227Y-6741909D01*
X11297216Y-6741909D01*
X11298733Y-6945398D01*
X11298733Y-6945398D01*
G37*
X11298733Y-6945398D02*
X11300250Y-7148886D01*
X11603322Y-7148886D01*
X11603318Y-7249909D01*
X11199227Y-7249909D01*
X11199227Y-6741909D01*
X11297216Y-6741909D01*
X11298733Y-6945398D01*
G36*
X12013182Y-7047864D02*
X11804914Y-7047864D01*
X11806582Y-7098375D01*
X11808250Y-7148886D01*
X11961227Y-7150037D01*
X12114204Y-7151188D01*
X12115872Y-7200549D01*
X12117540Y-7249909D01*
X11707227Y-7249909D01*
X11707227Y-6943954D01*
X12013182Y-6943954D01*
X12013182Y-7047864D01*
X12013182Y-7047864D01*
G37*
X12013182Y-7047864D02*
X11804914Y-7047864D01*
X11806582Y-7098375D01*
X11808250Y-7148886D01*
X11961227Y-7150037D01*
X12114204Y-7151188D01*
X12115872Y-7200549D01*
X12117540Y-7249909D01*
X11707227Y-7249909D01*
X11707227Y-6943954D01*
X12013182Y-6943954D01*
X12013182Y-7047864D01*
G36*
X12369648Y-6945173D02*
X12420159Y-6946841D01*
X12423237Y-7249909D01*
X12319136Y-7249909D01*
X12319136Y-6943505D01*
X12369648Y-6945173D01*
X12369648Y-6945173D01*
G37*
X12369648Y-6945173D02*
X12420159Y-6946841D01*
X12423237Y-7249909D01*
X12319136Y-7249909D01*
X12319136Y-6943505D01*
X12369648Y-6945173D01*
G36*
X12815247Y-6944205D02*
X12855107Y-6945162D01*
X12886682Y-6947134D01*
X12911598Y-6950430D01*
X12931481Y-6955357D01*
X12947959Y-6962225D01*
X12962657Y-6971342D01*
X12977202Y-6983015D01*
X12978787Y-6984402D01*
X13005902Y-7015139D01*
X13023169Y-7049608D01*
X13030919Y-7086089D01*
X13029482Y-7122865D01*
X13019188Y-7158216D01*
X13000368Y-7190423D01*
X12973352Y-7217769D01*
X12938471Y-7238534D01*
X12929222Y-7242254D01*
X12915826Y-7244812D01*
X12891133Y-7246827D01*
X12855378Y-7248286D01*
X12808797Y-7249180D01*
X12767966Y-7249470D01*
X12625091Y-7249909D01*
X12625091Y-7151773D01*
X12752276Y-7151773D01*
X12800450Y-7151530D01*
X12838412Y-7150639D01*
X12867488Y-7148856D01*
X12889005Y-7145937D01*
X12904289Y-7141637D01*
X12914666Y-7135713D01*
X12921463Y-7127920D01*
X12925309Y-7119926D01*
X12930553Y-7098355D01*
X12926772Y-7080943D01*
X12914171Y-7064738D01*
X12906676Y-7057604D01*
X12899529Y-7052831D01*
X12890321Y-7049946D01*
X12876641Y-7048472D01*
X12856079Y-7047937D01*
X12828498Y-7047864D01*
X12781354Y-7046407D01*
X12743537Y-7041564D01*
X12713145Y-7032629D01*
X12688274Y-7018891D01*
X12667022Y-6999644D01*
X12653441Y-6982739D01*
X12644735Y-6970608D01*
X12639153Y-6961312D01*
X12637783Y-6954474D01*
X12641715Y-6949717D01*
X12652038Y-6946664D01*
X12669839Y-6944937D01*
X12696208Y-6944161D01*
X12732234Y-6943958D01*
X12765475Y-6943954D01*
X12815247Y-6944205D01*
X12815247Y-6944205D01*
G37*
X12815247Y-6944205D02*
X12855107Y-6945162D01*
X12886682Y-6947134D01*
X12911598Y-6950430D01*
X12931481Y-6955357D01*
X12947959Y-6962225D01*
X12962657Y-6971342D01*
X12977202Y-6983015D01*
X12978787Y-6984402D01*
X13005902Y-7015139D01*
X13023169Y-7049608D01*
X13030919Y-7086089D01*
X13029482Y-7122865D01*
X13019188Y-7158216D01*
X13000368Y-7190423D01*
X12973352Y-7217769D01*
X12938471Y-7238534D01*
X12929222Y-7242254D01*
X12915826Y-7244812D01*
X12891133Y-7246827D01*
X12855378Y-7248286D01*
X12808797Y-7249180D01*
X12767966Y-7249470D01*
X12625091Y-7249909D01*
X12625091Y-7151773D01*
X12752276Y-7151773D01*
X12800450Y-7151530D01*
X12838412Y-7150639D01*
X12867488Y-7148856D01*
X12889005Y-7145937D01*
X12904289Y-7141637D01*
X12914666Y-7135713D01*
X12921463Y-7127920D01*
X12925309Y-7119926D01*
X12930553Y-7098355D01*
X12926772Y-7080943D01*
X12914171Y-7064738D01*
X12906676Y-7057604D01*
X12899529Y-7052831D01*
X12890321Y-7049946D01*
X12876641Y-7048472D01*
X12856079Y-7047937D01*
X12828498Y-7047864D01*
X12781354Y-7046407D01*
X12743537Y-7041564D01*
X12713145Y-7032629D01*
X12688274Y-7018891D01*
X12667022Y-6999644D01*
X12653441Y-6982739D01*
X12644735Y-6970608D01*
X12639153Y-6961312D01*
X12637783Y-6954474D01*
X12641715Y-6949717D01*
X12652038Y-6946664D01*
X12669839Y-6944937D01*
X12696208Y-6944161D01*
X12732234Y-6943958D01*
X12765475Y-6943954D01*
X12815247Y-6944205D01*
G36*
X13597361Y-7110059D02*
X13609598Y-7146947D01*
X13620515Y-7180185D01*
X13629606Y-7208211D01*
X13636368Y-7229462D01*
X13640296Y-7242375D01*
X13641091Y-7245582D01*
X13635878Y-7248259D01*
X13622341Y-7249782D01*
X13603637Y-7250241D01*
X13582920Y-7249725D01*
X13563345Y-7248326D01*
X13548068Y-7246132D01*
X13540243Y-7243235D01*
X13539886Y-7242693D01*
X13537275Y-7235153D01*
X13531632Y-7218503D01*
X13523579Y-7194584D01*
X13513735Y-7165241D01*
X13502721Y-7132316D01*
X13502472Y-7131568D01*
X13490034Y-7094668D01*
X13481040Y-7067107D01*
X13475727Y-7047132D01*
X13474332Y-7032990D01*
X13477092Y-7022928D01*
X13484245Y-7015194D01*
X13496027Y-7008035D01*
X13512676Y-6999697D01*
X13520872Y-6995578D01*
X13553630Y-6978864D01*
X13597361Y-7110059D01*
X13597361Y-7110059D01*
G37*
X13597361Y-7110059D02*
X13609598Y-7146947D01*
X13620515Y-7180185D01*
X13629606Y-7208211D01*
X13636368Y-7229462D01*
X13640296Y-7242375D01*
X13641091Y-7245582D01*
X13635878Y-7248259D01*
X13622341Y-7249782D01*
X13603637Y-7250241D01*
X13582920Y-7249725D01*
X13563345Y-7248326D01*
X13548068Y-7246132D01*
X13540243Y-7243235D01*
X13539886Y-7242693D01*
X13537275Y-7235153D01*
X13531632Y-7218503D01*
X13523579Y-7194584D01*
X13513735Y-7165241D01*
X13502721Y-7132316D01*
X13502472Y-7131568D01*
X13490034Y-7094668D01*
X13481040Y-7067107D01*
X13475727Y-7047132D01*
X13474332Y-7032990D01*
X13477092Y-7022928D01*
X13484245Y-7015194D01*
X13496027Y-7008035D01*
X13512676Y-6999697D01*
X13520872Y-6995578D01*
X13553630Y-6978864D01*
X13597361Y-7110059D01*
G36*
X13428631Y-6817081D02*
X13401846Y-6831522D01*
X13373789Y-6848298D01*
X13349951Y-6864104D01*
X13347129Y-6866149D01*
X13312013Y-6892000D01*
X11707227Y-6892000D01*
X11707227Y-6793864D01*
X13475019Y-6793864D01*
X13428631Y-6817081D01*
X13428631Y-6817081D01*
G37*
X13428631Y-6817081D02*
X13401846Y-6831522D01*
X13373789Y-6848298D01*
X13349951Y-6864104D01*
X13347129Y-6866149D01*
X13312013Y-6892000D01*
X11707227Y-6892000D01*
X11707227Y-6793864D01*
X13475019Y-6793864D01*
X13428631Y-6817081D01*
D14*
X9422800Y-3846696D02*
X9422800Y-3250304D01*
X9422800Y-3250304D02*
X16179200Y-3250304D01*
X16179200Y-3250304D02*
X16179200Y-3846696D01*
X16179200Y-3846696D02*
X9422800Y-3846696D01*
D12*
X12669000Y-11301500D02*
X12669000Y-11181500D01*
X12845000Y-11181500D02*
X12845000Y-11301500D01*
X12372000Y-11253500D02*
X12492000Y-11253500D01*
X12492000Y-11429500D02*
X12372000Y-11429500D01*
X12147000Y-10303500D02*
X12267000Y-10303500D01*
X12267000Y-10479500D02*
X12147000Y-10479500D01*
X11819000Y-10826500D02*
X11819000Y-10706500D01*
X11995000Y-10706500D02*
X11995000Y-10826500D01*
X13833000Y-10598000D02*
X13953000Y-10598000D01*
X13953000Y-10774000D02*
X13833000Y-10774000D01*
X13485500Y-10598000D02*
X13605500Y-10598000D01*
X13605500Y-10774000D02*
X13485500Y-10774000D01*
X13330500Y-9768000D02*
X13450500Y-9768000D01*
X13450500Y-9944000D02*
X13330500Y-9944000D01*
X13040000Y-10243500D02*
X13040000Y-10123500D01*
X13216000Y-10123500D02*
X13216000Y-10243500D01*
D16*
X13414500Y-10159639D02*
G75*
G03X13414500Y-10159639I-6500J0D01*
G01*
X13348000Y-10064639D02*
X13348000Y-10564639D01*
X13348000Y-10564639D02*
X13648000Y-10564639D01*
X13648000Y-10564639D02*
X13648000Y-10064639D01*
X13648000Y-10064639D02*
X13348000Y-10064639D01*
D14*
X9422700Y-3339092D02*
X9422700Y-2742700D01*
X9422700Y-2742700D02*
X16179100Y-2742700D01*
X16179100Y-2742700D02*
X16179100Y-3339092D01*
X16179100Y-3339092D02*
X9422700Y-3339092D01*
D16*
X12223500Y-10761500D02*
G75*
G03X12223500Y-10761500I-6500J0D01*
G01*
X12157000Y-10666500D02*
X12157000Y-11166500D01*
X12157000Y-11166500D02*
X12457000Y-11166500D01*
X12457000Y-11166500D02*
X12457000Y-10666500D01*
X12457000Y-10666500D02*
X12157000Y-10666500D01*
D12*
X8590500Y-7515000D02*
X8590500Y-6741000D01*
X8590500Y-6741000D02*
X8324500Y-6741000D01*
X8324500Y-6741000D02*
X8324500Y-7515000D01*
X8324500Y-7515000D02*
X8590500Y-7515000D01*
X8324500Y-7420000D02*
X7724500Y-7420000D01*
X7724500Y-7420000D02*
X7724500Y-7344000D01*
X7724500Y-7344000D02*
X8324500Y-7344000D01*
X8324500Y-7414000D02*
X7724500Y-7414000D01*
X8324500Y-7402000D02*
X7724500Y-7402000D01*
X8324500Y-7390000D02*
X7724500Y-7390000D01*
X8324500Y-7378000D02*
X7724500Y-7378000D01*
X8324500Y-7366000D02*
X7724500Y-7366000D01*
X8324500Y-7354000D02*
X7724500Y-7354000D01*
X8623500Y-7420000D02*
X8590500Y-7420000D01*
X8623500Y-7344000D02*
X8590500Y-7344000D01*
X8590500Y-7255000D02*
X8324500Y-7255000D01*
X8324500Y-7166000D02*
X7724500Y-7166000D01*
X7724500Y-7166000D02*
X7724500Y-7090000D01*
X7724500Y-7090000D02*
X8324500Y-7090000D01*
X8630207Y-7166000D02*
X8590500Y-7166000D01*
X8630207Y-7090000D02*
X8590500Y-7090000D01*
X8590500Y-7001000D02*
X8324500Y-7001000D01*
X8324500Y-6912000D02*
X7724500Y-6912000D01*
X7724500Y-6912000D02*
X7724500Y-6836000D01*
X7724500Y-6836000D02*
X8324500Y-6836000D01*
X8630207Y-6912000D02*
X8590500Y-6912000D01*
X8630207Y-6836000D02*
X8590500Y-6836000D01*
X8861500Y-7382000D02*
X8861500Y-7509000D01*
X8861500Y-7509000D02*
X8734500Y-7509000D01*
X8407000Y-6687000D02*
X8407000Y-5151000D01*
X8407000Y-5151000D02*
X8141000Y-5151000D01*
X8141000Y-5151000D02*
X8141000Y-6687000D01*
X8141000Y-6687000D02*
X8407000Y-6687000D01*
X8141000Y-6592000D02*
X7541000Y-6592000D01*
X7541000Y-6592000D02*
X7541000Y-6516000D01*
X7541000Y-6516000D02*
X8141000Y-6516000D01*
X8141000Y-6586000D02*
X7541000Y-6586000D01*
X8141000Y-6574000D02*
X7541000Y-6574000D01*
X8141000Y-6562000D02*
X7541000Y-6562000D01*
X8141000Y-6550000D02*
X7541000Y-6550000D01*
X8141000Y-6538000D02*
X7541000Y-6538000D01*
X8141000Y-6526000D02*
X7541000Y-6526000D01*
X8440000Y-6592000D02*
X8407000Y-6592000D01*
X8440000Y-6516000D02*
X8407000Y-6516000D01*
X8407000Y-6427000D02*
X8141000Y-6427000D01*
X8141000Y-6338000D02*
X7541000Y-6338000D01*
X7541000Y-6338000D02*
X7541000Y-6262000D01*
X7541000Y-6262000D02*
X8141000Y-6262000D01*
X8446707Y-6338000D02*
X8407000Y-6338000D01*
X8446707Y-6262000D02*
X8407000Y-6262000D01*
X8407000Y-6173000D02*
X8141000Y-6173000D01*
X8141000Y-6084000D02*
X7541000Y-6084000D01*
X7541000Y-6084000D02*
X7541000Y-6008000D01*
X7541000Y-6008000D02*
X8141000Y-6008000D01*
X8446707Y-6084000D02*
X8407000Y-6084000D01*
X8446707Y-6008000D02*
X8407000Y-6008000D01*
X8407000Y-5919000D02*
X8141000Y-5919000D01*
X8141000Y-5830000D02*
X7541000Y-5830000D01*
X7541000Y-5830000D02*
X7541000Y-5754000D01*
X7541000Y-5754000D02*
X8141000Y-5754000D01*
X8446707Y-5830000D02*
X8407000Y-5830000D01*
X8446707Y-5754000D02*
X8407000Y-5754000D01*
X8407000Y-5665000D02*
X8141000Y-5665000D01*
X8141000Y-5576000D02*
X7541000Y-5576000D01*
X7541000Y-5576000D02*
X7541000Y-5500000D01*
X7541000Y-5500000D02*
X8141000Y-5500000D01*
X8446707Y-5576000D02*
X8407000Y-5576000D01*
X8446707Y-5500000D02*
X8407000Y-5500000D01*
X8407000Y-5411000D02*
X8141000Y-5411000D01*
X8141000Y-5322000D02*
X7541000Y-5322000D01*
X7541000Y-5322000D02*
X7541000Y-5246000D01*
X7541000Y-5246000D02*
X8141000Y-5246000D01*
X8446707Y-5322000D02*
X8407000Y-5322000D01*
X8446707Y-5246000D02*
X8407000Y-5246000D01*
X8678000Y-6554000D02*
X8678000Y-6681000D01*
X8678000Y-6681000D02*
X8551000Y-6681000D01*
X17163500Y-4786000D02*
X17163500Y-5560000D01*
X17163500Y-5560000D02*
X17429500Y-5560000D01*
X17429500Y-5560000D02*
X17429500Y-4786000D01*
X17429500Y-4786000D02*
X17163500Y-4786000D01*
X17429500Y-4881000D02*
X18029500Y-4881000D01*
X18029500Y-4881000D02*
X18029500Y-4957000D01*
X18029500Y-4957000D02*
X17429500Y-4957000D01*
X17429500Y-4887000D02*
X18029500Y-4887000D01*
X17429500Y-4899000D02*
X18029500Y-4899000D01*
X17429500Y-4911000D02*
X18029500Y-4911000D01*
X17429500Y-4923000D02*
X18029500Y-4923000D01*
X17429500Y-4935000D02*
X18029500Y-4935000D01*
X17429500Y-4947000D02*
X18029500Y-4947000D01*
X17130500Y-4881000D02*
X17163500Y-4881000D01*
X17130500Y-4957000D02*
X17163500Y-4957000D01*
X17163500Y-5046000D02*
X17429500Y-5046000D01*
X17429500Y-5135000D02*
X18029500Y-5135000D01*
X18029500Y-5135000D02*
X18029500Y-5211000D01*
X18029500Y-5211000D02*
X17429500Y-5211000D01*
X17123793Y-5135000D02*
X17163500Y-5135000D01*
X17123793Y-5211000D02*
X17163500Y-5211000D01*
X17163500Y-5300000D02*
X17429500Y-5300000D01*
X17429500Y-5389000D02*
X18029500Y-5389000D01*
X18029500Y-5389000D02*
X18029500Y-5465000D01*
X18029500Y-5465000D02*
X17429500Y-5465000D01*
X17123793Y-5389000D02*
X17163500Y-5389000D01*
X17123793Y-5465000D02*
X17163500Y-5465000D01*
X16892500Y-4919000D02*
X16892500Y-4792000D01*
X16892500Y-4792000D02*
X17019500Y-4792000D01*
X11197500Y-11482500D02*
X11197500Y-11837500D01*
X11197500Y-11837500D02*
X10277500Y-11837500D01*
X10277500Y-11837500D02*
X10277500Y-11482500D01*
X10277500Y-10812500D02*
X10277500Y-10567500D01*
X10277500Y-10567500D02*
X10317500Y-10567500D01*
X10317500Y-10567500D02*
X10317500Y-10367500D01*
X10317500Y-10367500D02*
X10617500Y-10367500D01*
X10997500Y-10367500D02*
X11157500Y-10367500D01*
X11157500Y-10367500D02*
X11157500Y-10567500D01*
X11157500Y-10567500D02*
X11197500Y-10567500D01*
X11197500Y-10567500D02*
X11197500Y-10812500D01*
X10618500Y-10177500D02*
X10618500Y-10003500D01*
X10618500Y-10003500D02*
X10792500Y-10003500D01*
X15044500Y-9725000D02*
X15044500Y-9605000D01*
X15220500Y-9605000D02*
X15220500Y-9725000D01*
X8359500Y-8656000D02*
X8359500Y-7882000D01*
X8359500Y-7882000D02*
X8093500Y-7882000D01*
X8093500Y-7882000D02*
X8093500Y-8656000D01*
X8093500Y-8656000D02*
X8359500Y-8656000D01*
X8093500Y-8561000D02*
X7493500Y-8561000D01*
X7493500Y-8561000D02*
X7493500Y-8485000D01*
X7493500Y-8485000D02*
X8093500Y-8485000D01*
X8093500Y-8555000D02*
X7493500Y-8555000D01*
X8093500Y-8543000D02*
X7493500Y-8543000D01*
X8093500Y-8531000D02*
X7493500Y-8531000D01*
X8093500Y-8519000D02*
X7493500Y-8519000D01*
X8093500Y-8507000D02*
X7493500Y-8507000D01*
X8093500Y-8495000D02*
X7493500Y-8495000D01*
X8399207Y-8561000D02*
X8359500Y-8561000D01*
X8399207Y-8485000D02*
X8359500Y-8485000D01*
X8646500Y-8561000D02*
X8607793Y-8561000D01*
X8646500Y-8485000D02*
X8607793Y-8485000D01*
X8359500Y-8396000D02*
X8093500Y-8396000D01*
X8093500Y-8307000D02*
X7493500Y-8307000D01*
X7493500Y-8307000D02*
X7493500Y-8231000D01*
X7493500Y-8231000D02*
X8093500Y-8231000D01*
X8399207Y-8307000D02*
X8359500Y-8307000D01*
X8399207Y-8231000D02*
X8359500Y-8231000D01*
X8653207Y-8307000D02*
X8607793Y-8307000D01*
X8653207Y-8231000D02*
X8607793Y-8231000D01*
X8359500Y-8142000D02*
X8093500Y-8142000D01*
X8093500Y-8053000D02*
X7493500Y-8053000D01*
X7493500Y-8053000D02*
X7493500Y-7977000D01*
X7493500Y-7977000D02*
X8093500Y-7977000D01*
X8399207Y-8053000D02*
X8359500Y-8053000D01*
X8399207Y-7977000D02*
X8359500Y-7977000D01*
X8653207Y-8053000D02*
X8607793Y-8053000D01*
X8653207Y-7977000D02*
X8607793Y-7977000D01*
X8884500Y-8523000D02*
X8884500Y-8650000D01*
X8884500Y-8650000D02*
X8757500Y-8650000D01*
X8517500Y-2795000D02*
X8517500Y-2825000D01*
X8517500Y-2825000D02*
X8847500Y-2825000D01*
X8847500Y-2825000D02*
X8847500Y-2795000D01*
X8517500Y-2575000D02*
X8517500Y-2545000D01*
X8517500Y-2545000D02*
X8847500Y-2545000D01*
X8847500Y-2545000D02*
X8847500Y-2575000D01*
X8527500Y-3265000D02*
X8527500Y-3295000D01*
X8527500Y-3295000D02*
X8857500Y-3295000D01*
X8857500Y-3295000D02*
X8857500Y-3265000D01*
X8527500Y-3045000D02*
X8527500Y-3015000D01*
X8527500Y-3015000D02*
X8857500Y-3015000D01*
X8857500Y-3015000D02*
X8857500Y-3045000D01*
X8525000Y-3747500D02*
X8525000Y-3777500D01*
X8525000Y-3777500D02*
X8855000Y-3777500D01*
X8855000Y-3777500D02*
X8855000Y-3747500D01*
X8525000Y-3527500D02*
X8525000Y-3497500D01*
X8525000Y-3497500D02*
X8855000Y-3497500D01*
X8855000Y-3497500D02*
X8855000Y-3527500D01*
X12692000Y-10516500D02*
X12692000Y-10416500D01*
X12522000Y-10416500D02*
X12522000Y-10516500D01*
X12672000Y-10816500D02*
X12672000Y-10916500D01*
X12842000Y-10916500D02*
X12842000Y-10816500D01*
X13883000Y-9936000D02*
X13883000Y-9836000D01*
X13713000Y-9836000D02*
X13713000Y-9936000D01*
X13838000Y-10208500D02*
X13838000Y-10308500D01*
X14008000Y-10308500D02*
X14008000Y-10208500D01*
D17*
X9015167Y-9609238D02*
X9015167Y-9680667D01*
X9010405Y-9694952D01*
X9000881Y-9704476D01*
X8986595Y-9709238D01*
X8977071Y-9709238D01*
X9067548Y-9709238D02*
X9086595Y-9709238D01*
X9096119Y-9704476D01*
X9100881Y-9699714D01*
X9110405Y-9685429D01*
X9115167Y-9666381D01*
X9115167Y-9628286D01*
X9110405Y-9618762D01*
X9105643Y-9614000D01*
X9096119Y-9609238D01*
X9077071Y-9609238D01*
X9067548Y-9614000D01*
X9062786Y-9618762D01*
X9058024Y-9628286D01*
X9058024Y-9652095D01*
X9062786Y-9661619D01*
X9067548Y-9666381D01*
X9077071Y-9671143D01*
X9096119Y-9671143D01*
X9105643Y-9666381D01*
X9110405Y-9661619D01*
X9115167Y-9652095D01*
X16290238Y-9771786D02*
X16242619Y-9805119D01*
X16290238Y-9828929D02*
X16190238Y-9828929D01*
X16190238Y-9790833D01*
X16195000Y-9781310D01*
X16199762Y-9776548D01*
X16209286Y-9771786D01*
X16223571Y-9771786D01*
X16233095Y-9776548D01*
X16237857Y-9781310D01*
X16242619Y-9790833D01*
X16242619Y-9828929D01*
X16290238Y-9676548D02*
X16290238Y-9733691D01*
X16290238Y-9705119D02*
X16190238Y-9705119D01*
X16204524Y-9714643D01*
X16214048Y-9724167D01*
X16218809Y-9733691D01*
X16190238Y-9614643D02*
X16190238Y-9605119D01*
X16195000Y-9595595D01*
X16199762Y-9590833D01*
X16209286Y-9586071D01*
X16228333Y-9581310D01*
X16252143Y-9581310D01*
X16271190Y-9586071D01*
X16280714Y-9590833D01*
X16285476Y-9595595D01*
X16290238Y-9605119D01*
X16290238Y-9614643D01*
X16285476Y-9624167D01*
X16280714Y-9628929D01*
X16271190Y-9633691D01*
X16252143Y-9638452D01*
X16228333Y-9638452D01*
X16209286Y-9633691D01*
X16199762Y-9628929D01*
X16195000Y-9624167D01*
X16190238Y-9614643D01*
D14*
X15490041Y-11714088D02*
X15490041Y-11804803D01*
X15483993Y-11822945D01*
X15471898Y-11835041D01*
X15453755Y-11841088D01*
X15441660Y-11841088D01*
X15604945Y-11756422D02*
X15604945Y-11841088D01*
X15574707Y-11708041D02*
X15544469Y-11798755D01*
X15623088Y-11798755D01*
D17*
X16031714Y-8084714D02*
X16026952Y-8089476D01*
X16012667Y-8094238D01*
X16003143Y-8094238D01*
X15988857Y-8089476D01*
X15979333Y-8079952D01*
X15974571Y-8070429D01*
X15969809Y-8051381D01*
X15969809Y-8037095D01*
X15974571Y-8018048D01*
X15979333Y-8008524D01*
X15988857Y-7999000D01*
X16003143Y-7994238D01*
X16012667Y-7994238D01*
X16026952Y-7999000D01*
X16031714Y-8003762D01*
X16069809Y-8003762D02*
X16074571Y-7999000D01*
X16084095Y-7994238D01*
X16107905Y-7994238D01*
X16117429Y-7999000D01*
X16122190Y-8003762D01*
X16126952Y-8013286D01*
X16126952Y-8022809D01*
X16122190Y-8037095D01*
X16065048Y-8094238D01*
X16126952Y-8094238D01*
X16160286Y-7994238D02*
X16226952Y-7994238D01*
X16184095Y-8094238D01*
X16060714Y-7135714D02*
X16055952Y-7140476D01*
X16041667Y-7145238D01*
X16032143Y-7145238D01*
X16017857Y-7140476D01*
X16008333Y-7130952D01*
X16003571Y-7121429D01*
X15998809Y-7102381D01*
X15998809Y-7088095D01*
X16003571Y-7069048D01*
X16008333Y-7059524D01*
X16017857Y-7050000D01*
X16032143Y-7045238D01*
X16041667Y-7045238D01*
X16055952Y-7050000D01*
X16060714Y-7054762D01*
X16098809Y-7054762D02*
X16103571Y-7050000D01*
X16113095Y-7045238D01*
X16136905Y-7045238D01*
X16146429Y-7050000D01*
X16151190Y-7054762D01*
X16155952Y-7064286D01*
X16155952Y-7073809D01*
X16151190Y-7088095D01*
X16094048Y-7145238D01*
X16155952Y-7145238D01*
X16213095Y-7088095D02*
X16203571Y-7083333D01*
X16198809Y-7078571D01*
X16194048Y-7069048D01*
X16194048Y-7064286D01*
X16198809Y-7054762D01*
X16203571Y-7050000D01*
X16213095Y-7045238D01*
X16232143Y-7045238D01*
X16241667Y-7050000D01*
X16246429Y-7054762D01*
X16251190Y-7064286D01*
X16251190Y-7069048D01*
X16246429Y-7078571D01*
X16241667Y-7083333D01*
X16232143Y-7088095D01*
X16213095Y-7088095D01*
X16203571Y-7092857D01*
X16198809Y-7097619D01*
X16194048Y-7107143D01*
X16194048Y-7126190D01*
X16198809Y-7135714D01*
X16203571Y-7140476D01*
X16213095Y-7145238D01*
X16232143Y-7145238D01*
X16241667Y-7140476D01*
X16246429Y-7135714D01*
X16251190Y-7126190D01*
X16251190Y-7107143D01*
X16246429Y-7097619D01*
X16241667Y-7092857D01*
X16232143Y-7088095D01*
X16121714Y-5908714D02*
X16116952Y-5913476D01*
X16102667Y-5918238D01*
X16093143Y-5918238D01*
X16078857Y-5913476D01*
X16069333Y-5903952D01*
X16064571Y-5894429D01*
X16059809Y-5875381D01*
X16059809Y-5861095D01*
X16064571Y-5842048D01*
X16069333Y-5832524D01*
X16078857Y-5823000D01*
X16093143Y-5818238D01*
X16102667Y-5818238D01*
X16116952Y-5823000D01*
X16121714Y-5827762D01*
X16159809Y-5827762D02*
X16164571Y-5823000D01*
X16174095Y-5818238D01*
X16197905Y-5818238D01*
X16207429Y-5823000D01*
X16212190Y-5827762D01*
X16216952Y-5837286D01*
X16216952Y-5846809D01*
X16212190Y-5861095D01*
X16155048Y-5918238D01*
X16216952Y-5918238D01*
X16264571Y-5918238D02*
X16283619Y-5918238D01*
X16293143Y-5913476D01*
X16297905Y-5908714D01*
X16307429Y-5894429D01*
X16312190Y-5875381D01*
X16312190Y-5837286D01*
X16307429Y-5827762D01*
X16302667Y-5823000D01*
X16293143Y-5818238D01*
X16274095Y-5818238D01*
X16264571Y-5823000D01*
X16259809Y-5827762D01*
X16255048Y-5837286D01*
X16255048Y-5861095D01*
X16259809Y-5870619D01*
X16264571Y-5875381D01*
X16274095Y-5880143D01*
X16293143Y-5880143D01*
X16302667Y-5875381D01*
X16307429Y-5870619D01*
X16312190Y-5861095D01*
X13911690Y-11048738D02*
X13911690Y-10948738D01*
X13935500Y-10948738D01*
X13949786Y-10953500D01*
X13959310Y-10963024D01*
X13964071Y-10972548D01*
X13968833Y-10991595D01*
X13968833Y-11005881D01*
X13964071Y-11024929D01*
X13959310Y-11034452D01*
X13949786Y-11043976D01*
X13935500Y-11048738D01*
X13911690Y-11048738D01*
X14002167Y-10948738D02*
X14068833Y-10948738D01*
X14025976Y-11048738D01*
X13631690Y-11051238D02*
X13631690Y-10951238D01*
X13655500Y-10951238D01*
X13669786Y-10956000D01*
X13679310Y-10965524D01*
X13684071Y-10975048D01*
X13688833Y-10994095D01*
X13688833Y-11008381D01*
X13684071Y-11027429D01*
X13679310Y-11036952D01*
X13669786Y-11046476D01*
X13655500Y-11051238D01*
X13631690Y-11051238D01*
X13774548Y-10951238D02*
X13755500Y-10951238D01*
X13745976Y-10956000D01*
X13741214Y-10960762D01*
X13731690Y-10975048D01*
X13726929Y-10994095D01*
X13726929Y-11032191D01*
X13731690Y-11041714D01*
X13736452Y-11046476D01*
X13745976Y-11051238D01*
X13765024Y-11051238D01*
X13774548Y-11046476D01*
X13779310Y-11041714D01*
X13784071Y-11032191D01*
X13784071Y-11008381D01*
X13779310Y-10998857D01*
X13774548Y-10994095D01*
X13765024Y-10989333D01*
X13745976Y-10989333D01*
X13736452Y-10994095D01*
X13731690Y-10998857D01*
X13726929Y-11008381D01*
X14191690Y-11053738D02*
X14191690Y-10953738D01*
X14215500Y-10953738D01*
X14229786Y-10958500D01*
X14239310Y-10968024D01*
X14244071Y-10977548D01*
X14248833Y-10996595D01*
X14248833Y-11010881D01*
X14244071Y-11029929D01*
X14239310Y-11039452D01*
X14229786Y-11048976D01*
X14215500Y-11053738D01*
X14191690Y-11053738D01*
X14305976Y-10996595D02*
X14296452Y-10991833D01*
X14291690Y-10987071D01*
X14286929Y-10977548D01*
X14286929Y-10972786D01*
X14291690Y-10963262D01*
X14296452Y-10958500D01*
X14305976Y-10953738D01*
X14325024Y-10953738D01*
X14334548Y-10958500D01*
X14339310Y-10963262D01*
X14344071Y-10972786D01*
X14344071Y-10977548D01*
X14339310Y-10987071D01*
X14334548Y-10991833D01*
X14325024Y-10996595D01*
X14305976Y-10996595D01*
X14296452Y-11001357D01*
X14291690Y-11006119D01*
X14286929Y-11015643D01*
X14286929Y-11034691D01*
X14291690Y-11044214D01*
X14296452Y-11048976D01*
X14305976Y-11053738D01*
X14325024Y-11053738D01*
X14334548Y-11048976D01*
X14339310Y-11044214D01*
X14344071Y-11034691D01*
X14344071Y-11015643D01*
X14339310Y-11006119D01*
X14334548Y-11001357D01*
X14325024Y-10996595D01*
X12750200Y-3465043D02*
X12750200Y-3573900D01*
X12742943Y-3595671D01*
X12728428Y-3610186D01*
X12706657Y-3617443D01*
X12692143Y-3617443D01*
X12895343Y-3465043D02*
X12822771Y-3465043D01*
X12815514Y-3537614D01*
X12822771Y-3530357D01*
X12837286Y-3523100D01*
X12873571Y-3523100D01*
X12888086Y-3530357D01*
X12895343Y-3537614D01*
X12902600Y-3552129D01*
X12902600Y-3588414D01*
X12895343Y-3602929D01*
X12888086Y-3610186D01*
X12873571Y-3617443D01*
X12837286Y-3617443D01*
X12822771Y-3610186D01*
X12815514Y-3602929D01*
X12967238Y-11258167D02*
X12919619Y-11291500D01*
X12967238Y-11315309D02*
X12867238Y-11315309D01*
X12867238Y-11277214D01*
X12872000Y-11267690D01*
X12876762Y-11262928D01*
X12886286Y-11258167D01*
X12900571Y-11258167D01*
X12910095Y-11262928D01*
X12914857Y-11267690D01*
X12919619Y-11277214D01*
X12919619Y-11315309D01*
X12967238Y-11162929D02*
X12967238Y-11220071D01*
X12967238Y-11191500D02*
X12867238Y-11191500D01*
X12881524Y-11201024D01*
X12891048Y-11210548D01*
X12895809Y-11220071D01*
X12415333Y-11551738D02*
X12382000Y-11504119D01*
X12358190Y-11551738D02*
X12358190Y-11451738D01*
X12396286Y-11451738D01*
X12405810Y-11456500D01*
X12410571Y-11461262D01*
X12415333Y-11470786D01*
X12415333Y-11485071D01*
X12410571Y-11494595D01*
X12405810Y-11499357D01*
X12396286Y-11504119D01*
X12358190Y-11504119D01*
X12453429Y-11461262D02*
X12458190Y-11456500D01*
X12467714Y-11451738D01*
X12491524Y-11451738D01*
X12501048Y-11456500D01*
X12505810Y-11461262D01*
X12510571Y-11470786D01*
X12510571Y-11480309D01*
X12505810Y-11494595D01*
X12448667Y-11551738D01*
X12510571Y-11551738D01*
X12192833Y-10259238D02*
X12159500Y-10211619D01*
X12135690Y-10259238D02*
X12135690Y-10159238D01*
X12173786Y-10159238D01*
X12183310Y-10164000D01*
X12188071Y-10168762D01*
X12192833Y-10178286D01*
X12192833Y-10192571D01*
X12188071Y-10202095D01*
X12183310Y-10206857D01*
X12173786Y-10211619D01*
X12135690Y-10211619D01*
X12226167Y-10159238D02*
X12288071Y-10159238D01*
X12254738Y-10197333D01*
X12269024Y-10197333D01*
X12278548Y-10202095D01*
X12283310Y-10206857D01*
X12288071Y-10216381D01*
X12288071Y-10240191D01*
X12283310Y-10249714D01*
X12278548Y-10254476D01*
X12269024Y-10259238D01*
X12240452Y-10259238D01*
X12230929Y-10254476D01*
X12226167Y-10249714D01*
X11892833Y-10599238D02*
X11859500Y-10551619D01*
X11835690Y-10599238D02*
X11835690Y-10499238D01*
X11873786Y-10499238D01*
X11883310Y-10504000D01*
X11888071Y-10508762D01*
X11892833Y-10518286D01*
X11892833Y-10532571D01*
X11888071Y-10542095D01*
X11883310Y-10546857D01*
X11873786Y-10551619D01*
X11835690Y-10551619D01*
X11978548Y-10532571D02*
X11978548Y-10599238D01*
X11954738Y-10494476D02*
X11930929Y-10565905D01*
X11992833Y-10565905D01*
X13876333Y-10896238D02*
X13843000Y-10848619D01*
X13819190Y-10896238D02*
X13819190Y-10796238D01*
X13857286Y-10796238D01*
X13866810Y-10801000D01*
X13871571Y-10805762D01*
X13876333Y-10815286D01*
X13876333Y-10829571D01*
X13871571Y-10839095D01*
X13866810Y-10843857D01*
X13857286Y-10848619D01*
X13819190Y-10848619D01*
X13966810Y-10796238D02*
X13919190Y-10796238D01*
X13914429Y-10843857D01*
X13919190Y-10839095D01*
X13928714Y-10834333D01*
X13952524Y-10834333D01*
X13962048Y-10839095D01*
X13966810Y-10843857D01*
X13971571Y-10853381D01*
X13971571Y-10877191D01*
X13966810Y-10886714D01*
X13962048Y-10891476D01*
X13952524Y-10896238D01*
X13928714Y-10896238D01*
X13919190Y-10891476D01*
X13914429Y-10886714D01*
X13528833Y-10896238D02*
X13495500Y-10848619D01*
X13471690Y-10896238D02*
X13471690Y-10796238D01*
X13509786Y-10796238D01*
X13519310Y-10801000D01*
X13524071Y-10805762D01*
X13528833Y-10815286D01*
X13528833Y-10829571D01*
X13524071Y-10839095D01*
X13519310Y-10843857D01*
X13509786Y-10848619D01*
X13471690Y-10848619D01*
X13614548Y-10796238D02*
X13595500Y-10796238D01*
X13585976Y-10801000D01*
X13581214Y-10805762D01*
X13571690Y-10820048D01*
X13566929Y-10839095D01*
X13566929Y-10877191D01*
X13571690Y-10886714D01*
X13576452Y-10891476D01*
X13585976Y-10896238D01*
X13605024Y-10896238D01*
X13614548Y-10891476D01*
X13619310Y-10886714D01*
X13624071Y-10877191D01*
X13624071Y-10853381D01*
X13619310Y-10843857D01*
X13614548Y-10839095D01*
X13605024Y-10834333D01*
X13585976Y-10834333D01*
X13576452Y-10839095D01*
X13571690Y-10843857D01*
X13566929Y-10853381D01*
X13376333Y-9738738D02*
X13343000Y-9691119D01*
X13319190Y-9738738D02*
X13319190Y-9638738D01*
X13357286Y-9638738D01*
X13366810Y-9643500D01*
X13371571Y-9648262D01*
X13376333Y-9657786D01*
X13376333Y-9672071D01*
X13371571Y-9681595D01*
X13366810Y-9686357D01*
X13357286Y-9691119D01*
X13319190Y-9691119D01*
X13409667Y-9638738D02*
X13476333Y-9638738D01*
X13433476Y-9738738D01*
X13111333Y-10013738D02*
X13078000Y-9966119D01*
X13054190Y-10013738D02*
X13054190Y-9913738D01*
X13092286Y-9913738D01*
X13101810Y-9918500D01*
X13106571Y-9923262D01*
X13111333Y-9932786D01*
X13111333Y-9947071D01*
X13106571Y-9956595D01*
X13101810Y-9961357D01*
X13092286Y-9966119D01*
X13054190Y-9966119D01*
X13168476Y-9956595D02*
X13158952Y-9951833D01*
X13154190Y-9947071D01*
X13149429Y-9937548D01*
X13149429Y-9932786D01*
X13154190Y-9923262D01*
X13158952Y-9918500D01*
X13168476Y-9913738D01*
X13187524Y-9913738D01*
X13197048Y-9918500D01*
X13201810Y-9923262D01*
X13206571Y-9932786D01*
X13206571Y-9937548D01*
X13201810Y-9947071D01*
X13197048Y-9951833D01*
X13187524Y-9956595D01*
X13168476Y-9956595D01*
X13158952Y-9961357D01*
X13154190Y-9966119D01*
X13149429Y-9975643D01*
X13149429Y-9994691D01*
X13154190Y-10004214D01*
X13158952Y-10008976D01*
X13168476Y-10013738D01*
X13187524Y-10013738D01*
X13197048Y-10008976D01*
X13201810Y-10004214D01*
X13206571Y-9994691D01*
X13206571Y-9975643D01*
X13201810Y-9966119D01*
X13197048Y-9961357D01*
X13187524Y-9956595D01*
D18*
X13397892Y-10581652D02*
X13397892Y-10597605D01*
X13398831Y-10599481D01*
X13399769Y-10600420D01*
X13401646Y-10601358D01*
X13405400Y-10601358D01*
X13407276Y-10600420D01*
X13408215Y-10599481D01*
X13409153Y-10597605D01*
X13409153Y-10581652D01*
X13417599Y-10583528D02*
X13418537Y-10582590D01*
X13420414Y-10581652D01*
X13425106Y-10581652D01*
X13426983Y-10582590D01*
X13427921Y-10583528D01*
X13428860Y-10585405D01*
X13428860Y-10587282D01*
X13427921Y-10590097D01*
X13416661Y-10601358D01*
X13428860Y-10601358D01*
D19*
D20*
X13360289Y-10636190D02*
X13360289Y-10616496D01*
X13366854Y-10630564D01*
X13373419Y-10616496D01*
X13373419Y-10636190D01*
X13382797Y-10636190D02*
X13382797Y-10616496D01*
X13390299Y-10616496D01*
X13392175Y-10617434D01*
X13393113Y-10618372D01*
X13394051Y-10620248D01*
X13394051Y-10623061D01*
X13393113Y-10624937D01*
X13392175Y-10625875D01*
X13390299Y-10626812D01*
X13382797Y-10626812D01*
X13402491Y-10636190D02*
X13402491Y-10616496D01*
X13409055Y-10630564D01*
X13415620Y-10616496D01*
X13415620Y-10636190D01*
X13423123Y-10616496D02*
X13435314Y-10616496D01*
X13428749Y-10623999D01*
X13431563Y-10623999D01*
X13433438Y-10624937D01*
X13434376Y-10625875D01*
X13435314Y-10627750D01*
X13435314Y-10632439D01*
X13434376Y-10634315D01*
X13433438Y-10635253D01*
X13431563Y-10636190D01*
X13425936Y-10636190D01*
X13424060Y-10635253D01*
X13423123Y-10634315D01*
X13452195Y-10616496D02*
X13448443Y-10616496D01*
X13446568Y-10617434D01*
X13445630Y-10618372D01*
X13443754Y-10621185D01*
X13442817Y-10624937D01*
X13442817Y-10632439D01*
X13443754Y-10634315D01*
X13444692Y-10635253D01*
X13446568Y-10636190D01*
X13450319Y-10636190D01*
X13452195Y-10635253D01*
X13453132Y-10634315D01*
X13454070Y-10632439D01*
X13454070Y-10627750D01*
X13453132Y-10625875D01*
X13452195Y-10624937D01*
X13450319Y-10623999D01*
X13446568Y-10623999D01*
X13444692Y-10624937D01*
X13443754Y-10625875D01*
X13442817Y-10627750D01*
X13461573Y-10618372D02*
X13462511Y-10617434D01*
X13464386Y-10616496D01*
X13469075Y-10616496D01*
X13470951Y-10617434D01*
X13471889Y-10618372D01*
X13472827Y-10620248D01*
X13472827Y-10622123D01*
X13471889Y-10624937D01*
X13460635Y-10636190D01*
X13472827Y-10636190D01*
X13485018Y-10616496D02*
X13486894Y-10616496D01*
X13488769Y-10617434D01*
X13489707Y-10618372D01*
X13490645Y-10620248D01*
X13491583Y-10623999D01*
X13491583Y-10628688D01*
X13490645Y-10632439D01*
X13489707Y-10634315D01*
X13488769Y-10635253D01*
X13486894Y-10636190D01*
X13485018Y-10636190D01*
X13483142Y-10635253D01*
X13482205Y-10634315D01*
X13481267Y-10632439D01*
X13480329Y-10628688D01*
X13480329Y-10623999D01*
X13481267Y-10620248D01*
X13482205Y-10618372D01*
X13483142Y-10617434D01*
X13485018Y-10616496D01*
D19*
D17*
X12750100Y-2957439D02*
X12750100Y-3066296D01*
X12742843Y-3088067D01*
X12728329Y-3102582D01*
X12706557Y-3109839D01*
X12692043Y-3109839D01*
X12808157Y-2957439D02*
X12902500Y-2957439D01*
X12851700Y-3015496D01*
X12873471Y-3015496D01*
X12887986Y-3022753D01*
X12895243Y-3030010D01*
X12902500Y-3044525D01*
X12902500Y-3080810D01*
X12895243Y-3095325D01*
X12887986Y-3102582D01*
X12873471Y-3109839D01*
X12829929Y-3109839D01*
X12815414Y-3102582D01*
X12808157Y-3095325D01*
D18*
X12094485Y-10605708D02*
X12094485Y-10621661D01*
X12095424Y-10623538D01*
X12096362Y-10624477D01*
X12098239Y-10625415D01*
X12101993Y-10625415D01*
X12103869Y-10624477D01*
X12104808Y-10623538D01*
X12105746Y-10621661D01*
X12105746Y-10605708D01*
X12125453Y-10625415D02*
X12114192Y-10625415D01*
X12119822Y-10625415D02*
X12119822Y-10605708D01*
X12117946Y-10608524D01*
X12116069Y-10610400D01*
X12114192Y-10611339D01*
D19*
D20*
X12323409Y-10991678D02*
X12303715Y-10991678D01*
X12317782Y-10985113D01*
X12303715Y-10978548D01*
X12323409Y-10978548D01*
X12323409Y-10969170D02*
X12303715Y-10969170D01*
X12303715Y-10961668D01*
X12304653Y-10959792D01*
X12305591Y-10958854D01*
X12307466Y-10957917D01*
X12310280Y-10957917D01*
X12312155Y-10958854D01*
X12313093Y-10959792D01*
X12314031Y-10961668D01*
X12314031Y-10969170D01*
X12323409Y-10949476D02*
X12303715Y-10949476D01*
X12317782Y-10942912D01*
X12303715Y-10936347D01*
X12323409Y-10936347D01*
X12303715Y-10928845D02*
X12303715Y-10916653D01*
X12311218Y-10923218D01*
X12311218Y-10920404D01*
X12312155Y-10918529D01*
X12313093Y-10917591D01*
X12314969Y-10916653D01*
X12319658Y-10916653D01*
X12321534Y-10917591D01*
X12322471Y-10918529D01*
X12323409Y-10920404D01*
X12323409Y-10926031D01*
X12322471Y-10927907D01*
X12321534Y-10928845D01*
X12303715Y-10899773D02*
X12303715Y-10903524D01*
X12304653Y-10905399D01*
X12305591Y-10906337D01*
X12308404Y-10908213D01*
X12312155Y-10909151D01*
X12319658Y-10909151D01*
X12321534Y-10908213D01*
X12322471Y-10907275D01*
X12323409Y-10905399D01*
X12323409Y-10901648D01*
X12322471Y-10899773D01*
X12321534Y-10898835D01*
X12319658Y-10897897D01*
X12314969Y-10897897D01*
X12313093Y-10898835D01*
X12312155Y-10899773D01*
X12311218Y-10901648D01*
X12311218Y-10905399D01*
X12312155Y-10907275D01*
X12313093Y-10908213D01*
X12314969Y-10909151D01*
X12305591Y-10890394D02*
X12304653Y-10889457D01*
X12303715Y-10887581D01*
X12303715Y-10882892D01*
X12304653Y-10881016D01*
X12305591Y-10880079D01*
X12307466Y-10879141D01*
X12309342Y-10879141D01*
X12312155Y-10880079D01*
X12323409Y-10891332D01*
X12323409Y-10879141D01*
X12303715Y-10866949D02*
X12303715Y-10865074D01*
X12304653Y-10863198D01*
X12305591Y-10862260D01*
X12307466Y-10861322D01*
X12311218Y-10860384D01*
X12315907Y-10860384D01*
X12319658Y-10861322D01*
X12321534Y-10862260D01*
X12322471Y-10863198D01*
X12323409Y-10865074D01*
X12323409Y-10866949D01*
X12322471Y-10868825D01*
X12321534Y-10869763D01*
X12319658Y-10870700D01*
X12315907Y-10871638D01*
X12311218Y-10871638D01*
X12307466Y-10870700D01*
X12305591Y-10869763D01*
X12304653Y-10868825D01*
X12303715Y-10866949D01*
D19*
D17*
X8951167Y-7323238D02*
X8951167Y-7394667D01*
X8946405Y-7408952D01*
X8936881Y-7418476D01*
X8922595Y-7423238D01*
X8913071Y-7423238D01*
X8989262Y-7323238D02*
X9055929Y-7323238D01*
X9013071Y-7423238D01*
X8792667Y-6491238D02*
X8792667Y-6562667D01*
X8787905Y-6576952D01*
X8778381Y-6586476D01*
X8764095Y-6591238D01*
X8754571Y-6591238D01*
X8854571Y-6534095D02*
X8845048Y-6529333D01*
X8840286Y-6524571D01*
X8835524Y-6515048D01*
X8835524Y-6510286D01*
X8840286Y-6500762D01*
X8845048Y-6496000D01*
X8854571Y-6491238D01*
X8873619Y-6491238D01*
X8883143Y-6496000D01*
X8887905Y-6500762D01*
X8892667Y-6510286D01*
X8892667Y-6515048D01*
X8887905Y-6524571D01*
X8883143Y-6529333D01*
X8873619Y-6534095D01*
X8854571Y-6534095D01*
X8845048Y-6538857D01*
X8840286Y-6543619D01*
X8835524Y-6553143D01*
X8835524Y-6572190D01*
X8840286Y-6581714D01*
X8845048Y-6586476D01*
X8854571Y-6591238D01*
X8873619Y-6591238D01*
X8883143Y-6586476D01*
X8887905Y-6581714D01*
X8892667Y-6572190D01*
X8892667Y-6553143D01*
X8887905Y-6543619D01*
X8883143Y-6538857D01*
X8873619Y-6534095D01*
X16686167Y-4868238D02*
X16686167Y-4939667D01*
X16681405Y-4953952D01*
X16671881Y-4963476D01*
X16657595Y-4968238D01*
X16648071Y-4968238D01*
X16776643Y-4868238D02*
X16757595Y-4868238D01*
X16748071Y-4873000D01*
X16743309Y-4877762D01*
X16733786Y-4892048D01*
X16729024Y-4911095D01*
X16729024Y-4949191D01*
X16733786Y-4958714D01*
X16738548Y-4963476D01*
X16748071Y-4968238D01*
X16767119Y-4968238D01*
X16776643Y-4963476D01*
X16781405Y-4958714D01*
X16786167Y-4949191D01*
X16786167Y-4925381D01*
X16781405Y-4915857D01*
X16776643Y-4911095D01*
X16767119Y-4906333D01*
X16748071Y-4906333D01*
X16738548Y-4911095D01*
X16733786Y-4915857D01*
X16729024Y-4925381D01*
X10254167Y-10197738D02*
X10254167Y-10269167D01*
X10249405Y-10283452D01*
X10239881Y-10292976D01*
X10225595Y-10297738D01*
X10216071Y-10297738D01*
X10297024Y-10207262D02*
X10301786Y-10202500D01*
X10311310Y-10197738D01*
X10335119Y-10197738D01*
X10344643Y-10202500D01*
X10349405Y-10207262D01*
X10354167Y-10216786D01*
X10354167Y-10226310D01*
X10349405Y-10240595D01*
X10292262Y-10297738D01*
X10354167Y-10297738D01*
X15342738Y-9681667D02*
X15295119Y-9715000D01*
X15342738Y-9738810D02*
X15242738Y-9738810D01*
X15242738Y-9700714D01*
X15247500Y-9691190D01*
X15252262Y-9686429D01*
X15261786Y-9681667D01*
X15276071Y-9681667D01*
X15285595Y-9686429D01*
X15290357Y-9691190D01*
X15295119Y-9700714D01*
X15295119Y-9738810D01*
X15342738Y-9634048D02*
X15342738Y-9615000D01*
X15337976Y-9605476D01*
X15333214Y-9600714D01*
X15318929Y-9591190D01*
X15299881Y-9586429D01*
X15261786Y-9586429D01*
X15252262Y-9591190D01*
X15247500Y-9595952D01*
X15242738Y-9605476D01*
X15242738Y-9624524D01*
X15247500Y-9634048D01*
X15252262Y-9638810D01*
X15261786Y-9643571D01*
X15285595Y-9643571D01*
X15295119Y-9638810D01*
X15299881Y-9634048D01*
X15304643Y-9624524D01*
X15304643Y-9605476D01*
X15299881Y-9595952D01*
X15295119Y-9591190D01*
X15285595Y-9586429D01*
X8111048Y-8695238D02*
X8111048Y-8766667D01*
X8106286Y-8780952D01*
X8096762Y-8790476D01*
X8082476Y-8795238D01*
X8072952Y-8795238D01*
X8211048Y-8795238D02*
X8153905Y-8795238D01*
X8182476Y-8795238D02*
X8182476Y-8695238D01*
X8172952Y-8709524D01*
X8163429Y-8719048D01*
X8153905Y-8723810D01*
X8272952Y-8695238D02*
X8282476Y-8695238D01*
X8292000Y-8700000D01*
X8296762Y-8704762D01*
X8301524Y-8714286D01*
X8306286Y-8733333D01*
X8306286Y-8757143D01*
X8301524Y-8776191D01*
X8296762Y-8785714D01*
X8292000Y-8790476D01*
X8282476Y-8795238D01*
X8272952Y-8795238D01*
X8263429Y-8790476D01*
X8258667Y-8785714D01*
X8253905Y-8776191D01*
X8249143Y-8757143D01*
X8249143Y-8733333D01*
X8253905Y-8714286D01*
X8258667Y-8704762D01*
X8263429Y-8700000D01*
X8272952Y-8695238D01*
X8551667Y-2970476D02*
X8565952Y-2975238D01*
X8589762Y-2975238D01*
X8599286Y-2970476D01*
X8604048Y-2965714D01*
X8608810Y-2956190D01*
X8608810Y-2946667D01*
X8604048Y-2937143D01*
X8599286Y-2932381D01*
X8589762Y-2927619D01*
X8570714Y-2922857D01*
X8561191Y-2918095D01*
X8556429Y-2913333D01*
X8551667Y-2903809D01*
X8551667Y-2894286D01*
X8556429Y-2884762D01*
X8561191Y-2880000D01*
X8570714Y-2875238D01*
X8594524Y-2875238D01*
X8608810Y-2880000D01*
X8642143Y-2875238D02*
X8665952Y-2975238D01*
X8685000Y-2903809D01*
X8704048Y-2975238D01*
X8727857Y-2875238D01*
X8818333Y-2975238D02*
X8761191Y-2975238D01*
X8789762Y-2975238D02*
X8789762Y-2875238D01*
X8780238Y-2889524D01*
X8770714Y-2899048D01*
X8761191Y-2903809D01*
X8569167Y-3910476D02*
X8583452Y-3915238D01*
X8607262Y-3915238D01*
X8616786Y-3910476D01*
X8621548Y-3905714D01*
X8626310Y-3896190D01*
X8626310Y-3886667D01*
X8621548Y-3877143D01*
X8616786Y-3872381D01*
X8607262Y-3867619D01*
X8588214Y-3862857D01*
X8578691Y-3858095D01*
X8573929Y-3853333D01*
X8569167Y-3843809D01*
X8569167Y-3834286D01*
X8573929Y-3824762D01*
X8578691Y-3820000D01*
X8588214Y-3815238D01*
X8612024Y-3815238D01*
X8626310Y-3820000D01*
X8659643Y-3815238D02*
X8683452Y-3915238D01*
X8702500Y-3843809D01*
X8721548Y-3915238D01*
X8745357Y-3815238D01*
X8778691Y-3824762D02*
X8783452Y-3820000D01*
X8792976Y-3815238D01*
X8816786Y-3815238D01*
X8826310Y-3820000D01*
X8831072Y-3824762D01*
X8835833Y-3834286D01*
X8835833Y-3843809D01*
X8831072Y-3858095D01*
X8773929Y-3915238D01*
X8835833Y-3915238D01*
X8556667Y-3427976D02*
X8570952Y-3432738D01*
X8594762Y-3432738D01*
X8604286Y-3427976D01*
X8609048Y-3423214D01*
X8613810Y-3413690D01*
X8613810Y-3404167D01*
X8609048Y-3394643D01*
X8604286Y-3389881D01*
X8594762Y-3385119D01*
X8575714Y-3380357D01*
X8566191Y-3375595D01*
X8561429Y-3370833D01*
X8556667Y-3361309D01*
X8556667Y-3351786D01*
X8561429Y-3342262D01*
X8566191Y-3337500D01*
X8575714Y-3332738D01*
X8599524Y-3332738D01*
X8613810Y-3337500D01*
X8647143Y-3332738D02*
X8670952Y-3432738D01*
X8690000Y-3361309D01*
X8709048Y-3432738D01*
X8732857Y-3332738D01*
X8761429Y-3332738D02*
X8823333Y-3332738D01*
X8790000Y-3370833D01*
X8804286Y-3370833D01*
X8813810Y-3375595D01*
X8818572Y-3380357D01*
X8823333Y-3389881D01*
X8823333Y-3413690D01*
X8818572Y-3423214D01*
X8813810Y-3427976D01*
X8804286Y-3432738D01*
X8775714Y-3432738D01*
X8766191Y-3427976D01*
X8761429Y-3423214D01*
X12590333Y-10239714D02*
X12585571Y-10244476D01*
X12571286Y-10249238D01*
X12561762Y-10249238D01*
X12547476Y-10244476D01*
X12537952Y-10234952D01*
X12533190Y-10225429D01*
X12528429Y-10206381D01*
X12528429Y-10192095D01*
X12533190Y-10173048D01*
X12537952Y-10163524D01*
X12547476Y-10154000D01*
X12561762Y-10149238D01*
X12571286Y-10149238D01*
X12585571Y-10154000D01*
X12590333Y-10158762D01*
X12685571Y-10249238D02*
X12628429Y-10249238D01*
X12657000Y-10249238D02*
X12657000Y-10149238D01*
X12647476Y-10163524D01*
X12637952Y-10173048D01*
X12628429Y-10177810D01*
X12967714Y-10890667D02*
X12972476Y-10895429D01*
X12977238Y-10909714D01*
X12977238Y-10919238D01*
X12972476Y-10933524D01*
X12962952Y-10943048D01*
X12953429Y-10947810D01*
X12934381Y-10952571D01*
X12920095Y-10952571D01*
X12901048Y-10947810D01*
X12891524Y-10943048D01*
X12882000Y-10933524D01*
X12877238Y-10919238D01*
X12877238Y-10909714D01*
X12882000Y-10895429D01*
X12886762Y-10890667D01*
X12886762Y-10852571D02*
X12882000Y-10847810D01*
X12877238Y-10838286D01*
X12877238Y-10814476D01*
X12882000Y-10804952D01*
X12886762Y-10800190D01*
X12896286Y-10795429D01*
X12905809Y-10795429D01*
X12920095Y-10800190D01*
X12977238Y-10857333D01*
X12977238Y-10795429D01*
X13783833Y-9661714D02*
X13779071Y-9666476D01*
X13764786Y-9671238D01*
X13755262Y-9671238D01*
X13740976Y-9666476D01*
X13731452Y-9656952D01*
X13726690Y-9647429D01*
X13721929Y-9628381D01*
X13721929Y-9614095D01*
X13726690Y-9595048D01*
X13731452Y-9585524D01*
X13740976Y-9576000D01*
X13755262Y-9571238D01*
X13764786Y-9571238D01*
X13779071Y-9576000D01*
X13783833Y-9580762D01*
X13817167Y-9571238D02*
X13879071Y-9571238D01*
X13845738Y-9609333D01*
X13860024Y-9609333D01*
X13869548Y-9614095D01*
X13874310Y-9618857D01*
X13879071Y-9628381D01*
X13879071Y-9652191D01*
X13874310Y-9661714D01*
X13869548Y-9666476D01*
X13860024Y-9671238D01*
X13831452Y-9671238D01*
X13821929Y-9666476D01*
X13817167Y-9661714D01*
X14141214Y-10270167D02*
X14145976Y-10274929D01*
X14150738Y-10289214D01*
X14150738Y-10298738D01*
X14145976Y-10313024D01*
X14136452Y-10322548D01*
X14126929Y-10327310D01*
X14107881Y-10332071D01*
X14093595Y-10332071D01*
X14074548Y-10327310D01*
X14065024Y-10322548D01*
X14055500Y-10313024D01*
X14050738Y-10298738D01*
X14050738Y-10289214D01*
X14055500Y-10274929D01*
X14060262Y-10270167D01*
X14084071Y-10184452D02*
X14150738Y-10184452D01*
X14045976Y-10208262D02*
X14117405Y-10232071D01*
X14117405Y-10170167D01*
M02*
