M48
;DRILL file {KiCad 4.0.7} date 02/13/18 13:39:11
;FORMAT={-:-/ absolute / metric / decimal}
FMAT,2
METRIC,TZ
T1C0.400
T2C0.970
T3C1.000
T4C1.016
T5C1.100
T6C1.650
T7C1.753
T8C3.250
T9C3.700
%
G90
G05
M71
T1
X83.75Y-38.25
X85.525Y-51.
X85.775Y-78.1
X86.925Y-47.35
X87.275Y-76.1
X87.675Y-32.4
X87.675Y-36.4
X89.375Y-26.2
X91.175Y-36.5
X91.85Y-45.88
X93.34Y-42.29
X94.72Y-46.65
X95.45Y-47.28
X97.Y-43.945
X97.Y-45.5
X97.Y-46.75
X97.Y-47.75
X97.5Y-70.
X98.Y-43.945
X98.Y-45.5
X98.Y-46.75
X98.Y-47.75
X99.5Y-111.5
X99.5Y-113.
X99.575Y-110.
X100.725Y-110.
X100.725Y-111.5
X100.75Y-113.
X101.4Y-47.125
X101.475Y-42.05
X102.Y-110.
X102.Y-111.5
X102.Y-113.
X103.Y-45.65
X105.02Y-49.88
X106.45Y-41.925
X106.5Y-47.325
X107.423Y-44.855
X108.225Y-96.525
X108.686Y-45.003
X109.25Y-46.75
X109.814Y-44.75
X110.Y-41.75
X110.Y-51.25
X110.75Y-45.75
X111.186Y-47.25
X111.5Y-42.05
X111.686Y-51.5
X112.5Y-53.5
X112.725Y-110.
X112.725Y-111.5
X112.85Y-113.
X113.74Y-50.01
X113.8Y-110.
X113.825Y-111.5
X113.875Y-113.
X114.75Y-45.
X114.925Y-110.
X115.Y-111.5
X115.Y-113.
X116.5Y-42.025
X116.5Y-47.25
X120.595Y-107.59
X121.475Y-47.25
X121.5Y-41.9
X123.Y-44.5
X123.03Y-47.47
X123.5Y-41.925
X125.Y-45.
X125.Y-47.
X125.27Y-113.415
X125.75Y-51.25
X126.195Y-110.715
X126.5Y-42.075
X126.5Y-47.225
X128.Y-42.025
X128.Y-49.75
X129.436Y-47.
X129.79Y-112.81
X130.Y-44.75
X130.825Y-47.15
X131.Y-42.025
X131.91Y-47.05
X132.63Y-101.56
X134.855Y-98.56
X136.Y-42.
X136.Y-47.275
X136.405Y-106.86
X137.08Y-111.435
X137.33Y-114.36
X139.23Y-104.76
X139.34Y-47.305
X139.755Y-114.46
X140.27Y-49.65
X141.Y-42.
X141.025Y-47.025
X142.68Y-111.485
X142.73Y-114.46
X144.82Y-72.46
X144.93Y-112.96
X145.6Y-72.46
X145.7Y-45.11
X145.7Y-45.91
X145.74Y-40.15
X145.74Y-40.95
X146.Y-42.075
X146.005Y-50.16
X146.967Y-79.583
X147.533Y-79.017
X149.475Y-44.275
X149.54Y-72.55
X150.194Y-41.116
X150.32Y-72.55
X150.746Y-40.564
X150.85Y-47.25
X150.925Y-111.1
X151.042Y-78.492
X151.125Y-94.325
X151.608Y-79.058
X152.26Y-39.36
X152.26Y-40.14
X152.51Y-40.97
X152.51Y-41.75
X153.95Y-82.3
X154.725Y-58.75
X154.917Y-45.417
X155.04Y-103.75
X155.483Y-45.983
X155.575Y-80.9
X155.775Y-50.35
X156.85Y-43.4
X156.99Y-49.64
X157.2Y-42.09
X157.25Y-67.1
X158.925Y-59.8
X158.95Y-71.575
X159.175Y-74.875
X159.175Y-77.05
X159.25Y-44.
X159.25Y-45.
X159.25Y-46.25
X159.25Y-47.5
X160.25Y-44.
X160.25Y-45.
X160.25Y-46.25
X160.25Y-47.5
X160.325Y-58.87
X160.5Y-71.4
X160.576Y-94.413
X162.675Y-108.
X162.9Y-69.275
X163.15Y-64.175
X163.325Y-76.05
X163.375Y-75.1
X163.45Y-61.65
X163.6Y-71.825
X163.675Y-72.725
X163.725Y-109.6
X163.81Y-77.64
X164.08Y-80.82
X168.29Y-73.35
X168.29Y-74.15
X168.63Y-70.184
X168.63Y-70.984
T2
X149.96Y-105.5
X151.23Y-108.04
X152.5Y-105.5
X153.77Y-108.04
X155.04Y-105.5
X156.31Y-108.04
X157.58Y-105.5
X158.85Y-108.04
X160.12Y-105.5
X161.39Y-108.04
T3
X85.035Y-80.15
X85.035Y-82.69
X85.035Y-85.23
X85.235Y-89.06
X85.235Y-91.6
X85.235Y-94.14
X85.235Y-96.68
X85.51Y-52.84
X85.51Y-55.38
X85.51Y-57.92
X85.51Y-60.46
X85.51Y-63.
X85.51Y-65.54
X87.345Y-68.74
X87.345Y-71.28
X87.345Y-73.82
X87.575Y-80.15
X87.575Y-82.69
X87.575Y-85.23
X87.775Y-89.06
X87.775Y-91.6
X87.775Y-94.14
X87.775Y-96.68
X170.195Y-49.19
X170.195Y-51.73
X170.195Y-54.27
T4
X96.259Y-29.139
X96.259Y-31.679
X96.26Y-34.215
X96.26Y-36.755
X98.799Y-29.139
X98.799Y-31.679
X98.8Y-34.215
X98.8Y-36.755
X101.339Y-29.139
X101.339Y-31.679
X101.34Y-34.215
X101.34Y-36.755
X103.879Y-29.139
X103.879Y-31.679
X103.88Y-34.215
X103.88Y-36.755
X106.419Y-29.139
X106.419Y-31.679
X106.42Y-34.215
X106.42Y-36.755
X108.959Y-29.139
X108.959Y-31.679
X108.96Y-34.215
X108.96Y-36.755
X111.499Y-29.139
X111.499Y-31.679
X111.5Y-34.215
X111.5Y-36.755
X114.039Y-29.139
X114.039Y-31.679
X114.04Y-34.215
X114.04Y-36.755
X116.579Y-29.139
X116.579Y-31.679
X116.58Y-34.215
X116.58Y-36.755
X119.119Y-29.139
X119.119Y-31.679
X119.12Y-34.215
X119.12Y-36.755
X121.659Y-29.139
X121.659Y-31.679
X121.66Y-34.215
X121.66Y-36.755
X124.199Y-29.139
X124.199Y-31.679
X124.2Y-34.215
X124.2Y-36.755
X126.739Y-29.139
X126.739Y-31.679
X126.74Y-34.215
X126.74Y-36.755
X129.279Y-29.139
X129.279Y-31.679
X129.28Y-34.215
X129.28Y-36.755
X131.819Y-29.139
X131.819Y-31.679
X131.82Y-34.215
X131.82Y-36.755
X134.359Y-29.139
X134.359Y-31.679
X134.36Y-34.215
X134.36Y-36.755
X136.899Y-29.139
X136.899Y-31.679
X136.9Y-34.215
X136.9Y-36.755
X139.439Y-29.139
X139.439Y-31.679
X139.44Y-34.215
X139.44Y-36.755
X141.979Y-29.139
X141.979Y-31.679
X141.98Y-34.215
X141.98Y-36.755
X144.519Y-29.139
X144.519Y-31.679
X144.52Y-34.215
X144.52Y-36.755
X147.059Y-29.139
X147.059Y-31.679
X147.06Y-34.215
X147.06Y-36.755
X149.599Y-29.139
X149.599Y-31.679
X149.6Y-34.215
X149.6Y-36.755
X152.139Y-29.139
X152.139Y-31.679
X152.14Y-34.215
X152.14Y-36.755
X154.679Y-29.139
X154.679Y-31.679
X154.68Y-34.215
X154.68Y-36.755
X157.219Y-29.139
X157.219Y-31.679
X157.22Y-34.215
X157.22Y-36.755
X159.759Y-29.139
X159.759Y-31.679
X159.76Y-34.215
X159.76Y-36.755
T5
X149.96Y-100.67
X152.5Y-100.67
X158.6Y-100.67
X161.14Y-100.67
T6
X148.945Y-111.34
X162.405Y-111.34
T7
X99.896Y-45.85
X99.896Y-45.85
X157.604Y-45.85
X157.604Y-45.85
T8
X149.96Y-114.39
X161.39Y-114.39
T9
X94.325Y-90.85
X170.085Y-43.85
X170.085Y-90.85
T0
M30
