G04 #@! TF.FileFunction,Profile,NP*
%FSLAX45Y45*%
G04 Gerber Fmt 4.5, Leading zero omitted, Abs format (unit mm)*
G04 Created by KiCad (PCBNEW 4.0.7) date 02/13/18 13:39:06*
%MOMM*%
%LPD*%
G01*
G04 APERTURE LIST*
%ADD10C,0.100000*%
G04 APERTURE END LIST*
D10*
X17192000Y-6900000D02*
G75*
G02X17392000Y-6700000I200000J0D01*
G01*
X11072000Y-2700000D02*
X9892000Y-2700000D01*
X14592000Y-11700000D02*
G75*
G02X14892000Y-12000000I0J-300000D01*
G01*
X8192000Y-6700000D02*
G75*
G02X8392000Y-6900000I0J-200000D01*
G01*
X16642000Y-2910000D02*
G75*
G03X16642000Y-2910000I-160000J0D01*
G01*
X16892000Y-11480000D02*
G75*
G03X16892000Y-11480000I-160000J0D01*
G01*
X12212000Y-11700000D02*
X14592000Y-11700000D01*
X9272000Y-2910000D02*
G75*
G03X9272000Y-2910000I-160000J0D01*
G01*
X17192000Y-12000000D02*
X17192000Y-10900000D01*
X8392000Y-10400000D02*
X8392000Y-12000000D01*
X8892000Y-11480000D02*
G75*
G03X8892000Y-11480000I-160000J0D01*
G01*
X9592000Y-2400000D02*
X8392000Y-2400000D01*
X8392000Y-6900000D02*
X8392000Y-7500000D01*
X9892000Y-2700000D02*
G75*
G02X9592000Y-2400000I0J300000D01*
G01*
X8392000Y-3500000D02*
G75*
G02X8192000Y-3700000I-200000J0D01*
G01*
X17392000Y-10700000D02*
X17392000Y-7700000D01*
X17392000Y-3300000D02*
G75*
G02X17292000Y-3200000I0J100000D01*
G01*
X8192000Y-7700000D02*
X8192000Y-10200000D01*
X8192000Y-3700000D02*
X8192000Y-6700000D01*
X17292000Y-3200000D02*
X17292000Y-2400000D01*
X17192000Y-10900000D02*
G75*
G02X17392000Y-10700000I200000J0D01*
G01*
X11372000Y-2400000D02*
G75*
G02X11072000Y-2700000I-300000J0D01*
G01*
X17392000Y-6700000D02*
X17392000Y-3300000D01*
X11912000Y-12000000D02*
G75*
G02X12212000Y-11700000I300000J0D01*
G01*
X8392000Y-7500000D02*
G75*
G02X8192000Y-7700000I-200000J0D01*
G01*
X17292000Y-2400000D02*
X11372000Y-2400000D01*
X14892000Y-12000000D02*
X17192000Y-12000000D01*
X8392000Y-12000000D02*
X11912000Y-12000000D01*
X8392000Y-2400000D02*
X8392000Y-3500000D01*
X8192000Y-10200000D02*
G75*
G02X8392000Y-10400000I0J-200000D01*
G01*
X17392000Y-7700000D02*
G75*
G02X17192000Y-7500000I0J200000D01*
G01*
X17192000Y-7500000D02*
X17192000Y-6900000D01*
M02*
