G04 #@! TF.FileFunction,Paste,Bot*
%FSLAX45Y45*%
G04 Gerber Fmt 4.5, Leading zero omitted, Abs format (unit mm)*
G04 Created by KiCad (PCBNEW 4.0.7) date 02/13/18 13:39:06*
%MOMM*%
%LPD*%
G01*
G04 APERTURE LIST*
%ADD10C,0.100000*%
%ADD11R,0.450000X0.600000*%
%ADD12C,1.524000*%
%ADD13R,0.900000X0.500000*%
%ADD14R,1.300000X0.700000*%
%ADD15R,3.200000X2.300000*%
%ADD16R,5.800000X5.800000*%
%ADD17R,2.000000X0.600000*%
%ADD18R,0.500000X0.900000*%
G04 APERTURE END LIST*
D10*
D11*
X13465500Y-10931000D03*
X13465500Y-11141000D03*
D12*
X9626000Y-3675500D03*
X9626000Y-3421500D03*
X9880000Y-3675500D03*
X9880000Y-3421500D03*
X10134000Y-3675500D03*
X10134000Y-3421500D03*
X10388000Y-3675500D03*
X10388000Y-3421500D03*
X10642000Y-3675500D03*
X10642000Y-3421500D03*
X10896000Y-3675500D03*
X10896000Y-3421500D03*
X11150000Y-3675500D03*
X11150000Y-3421500D03*
X11404000Y-3675500D03*
X11404000Y-3421500D03*
X11658000Y-3675500D03*
X11658000Y-3421500D03*
X11912000Y-3675500D03*
X11912000Y-3421500D03*
X12166000Y-3675500D03*
X12166000Y-3421500D03*
X12420000Y-3675500D03*
X12420000Y-3421500D03*
X12674000Y-3675500D03*
X12674000Y-3421500D03*
X12928000Y-3675500D03*
X12928000Y-3421500D03*
X13182000Y-3675500D03*
X13182000Y-3421500D03*
X13436000Y-3675500D03*
X13436000Y-3421500D03*
X13690000Y-3675500D03*
X13690000Y-3421500D03*
X13944000Y-3675500D03*
X13944000Y-3421500D03*
X14198000Y-3675500D03*
X14198000Y-3421500D03*
X14452000Y-3675500D03*
X14452000Y-3421500D03*
X14706000Y-3675500D03*
X14706000Y-3421500D03*
X14960000Y-3675500D03*
X14960000Y-3421500D03*
X15214000Y-3675500D03*
X15214000Y-3421500D03*
X15468000Y-3675500D03*
X15468000Y-3421500D03*
X15722000Y-3675500D03*
X15722000Y-3421500D03*
X15976000Y-3675500D03*
X15976000Y-3421500D03*
D13*
X13975500Y-11296000D03*
X13975500Y-11446000D03*
X13733000Y-11286000D03*
X13733000Y-11436000D03*
X14273000Y-11296000D03*
X14273000Y-11446000D03*
D14*
X16876000Y-8164000D03*
X16876000Y-7974000D03*
D12*
X9625900Y-3167896D03*
X9625900Y-2913896D03*
X9879900Y-3167896D03*
X9879900Y-2913896D03*
X10133900Y-3167896D03*
X10133900Y-2913896D03*
X10387900Y-3167896D03*
X10387900Y-2913896D03*
X10641900Y-3167896D03*
X10641900Y-2913896D03*
X10895900Y-3167896D03*
X10895900Y-2913896D03*
X11149900Y-3167896D03*
X11149900Y-2913896D03*
X11403900Y-3167896D03*
X11403900Y-2913896D03*
X11657900Y-3167896D03*
X11657900Y-2913896D03*
X11911900Y-3167896D03*
X11911900Y-2913896D03*
X12165900Y-3167896D03*
X12165900Y-2913896D03*
X12419900Y-3167896D03*
X12419900Y-2913896D03*
X12673900Y-3167896D03*
X12673900Y-2913896D03*
X12927900Y-3167896D03*
X12927900Y-2913896D03*
X13181900Y-3167896D03*
X13181900Y-2913896D03*
X13435900Y-3167896D03*
X13435900Y-2913896D03*
X13689900Y-3167896D03*
X13689900Y-2913896D03*
X13943900Y-3167896D03*
X13943900Y-2913896D03*
X14197900Y-3167896D03*
X14197900Y-2913896D03*
X14451900Y-3167896D03*
X14451900Y-2913896D03*
X14705900Y-3167896D03*
X14705900Y-2913896D03*
X14959900Y-3167896D03*
X14959900Y-2913896D03*
X15213900Y-3167896D03*
X15213900Y-2913896D03*
X15467900Y-3167896D03*
X15467900Y-2913896D03*
X15721900Y-3167896D03*
X15721900Y-2913896D03*
X15975900Y-3167896D03*
X15975900Y-2913896D03*
D15*
X16485000Y-5560000D03*
X16485000Y-8490000D03*
D16*
X11330000Y-5815000D03*
X11330000Y-8235000D03*
D17*
X16545000Y-5845000D03*
X15725000Y-5885000D03*
X16545000Y-5925000D03*
X15725000Y-5965000D03*
X16545000Y-6005000D03*
X15725000Y-6045000D03*
X16545000Y-6085000D03*
X15725000Y-6125000D03*
X16545000Y-6165000D03*
X15725000Y-6205000D03*
X16545000Y-6245000D03*
X15725000Y-6285000D03*
X16545000Y-6325000D03*
X15725000Y-6365000D03*
X16545000Y-6405000D03*
X15725000Y-6445000D03*
X16545000Y-6805000D03*
X15725000Y-6845000D03*
X16545000Y-6885000D03*
X15725000Y-6925000D03*
X16545000Y-6965000D03*
X15725000Y-7005000D03*
X16545000Y-7045000D03*
X15725000Y-7085000D03*
X16545000Y-7125000D03*
X15725000Y-7165000D03*
X16545000Y-7205000D03*
X15725000Y-7245000D03*
X16545000Y-7285000D03*
X15725000Y-7325000D03*
X16545000Y-7365000D03*
X15725000Y-7405000D03*
X16545000Y-7445000D03*
X15725000Y-7485000D03*
X16545000Y-7525000D03*
X15725000Y-7565000D03*
X16545000Y-7605000D03*
X15725000Y-7645000D03*
X16545000Y-7685000D03*
X15725000Y-7725000D03*
X16545000Y-7765000D03*
X15725000Y-7805000D03*
X16545000Y-7845000D03*
X15725000Y-7885000D03*
X16545000Y-7925000D03*
X15725000Y-7965000D03*
X16545000Y-8005000D03*
X15725000Y-8045000D03*
X16545000Y-8085000D03*
X15725000Y-8125000D03*
X16545000Y-8165000D03*
X15725000Y-8205000D03*
D18*
X8832500Y-2657500D03*
X8682500Y-2657500D03*
X9015000Y-3277500D03*
X8865000Y-3277500D03*
X9017500Y-3650000D03*
X8867500Y-3650000D03*
M02*
